<svg width="90" height="90" viewBox="0 0 90 90" fill="none" xmlns="http://www.w3.org/2000/svg">
<path d="M44.9559 0.833496C20.5759 0.833496 0.833374 20.6202 0.833374 45.0002C0.833374 69.3802 20.5759 89.1668 44.9559 89.1668C69.38 89.1668 89.1667 69.3802 89.1667 45.0002C89.1667 20.6202 69.38 0.833496 44.9559 0.833496ZM45 80.3335C25.4784 80.3335 9.66671 64.5218 9.66671 45.0002C9.66671 25.4785 25.4784 9.66683 45 9.66683C64.5217 9.66683 80.3334 25.4785 80.3334 45.0002C80.3334 64.5218 64.5217 80.3335 45 80.3335ZM44.0284 22.9168H43.7634C41.9967 22.9168 40.5834 24.3302 40.5834 26.0968V46.9435C40.5834 48.4893 41.3784 49.9468 42.7475 50.7418L61.0767 61.7393C62.5784 62.6227 64.5217 62.181 65.4051 60.6793C65.6268 60.3217 65.7744 59.9231 65.8389 59.5073C65.9034 59.0914 65.8835 58.6669 65.7805 58.2589C65.6774 57.8509 65.4933 57.4678 65.2391 57.1324C64.9849 56.7971 64.6659 56.5163 64.3009 56.3068L47.2084 46.1485V26.0968C47.2084 24.3302 45.795 22.9168 44.0284 22.9168Z" fill="#8F6FEC"/>
</svg>
