<svg width="110" height="52" viewBox="0 0 110 52" fill="none" xmlns="http://www.w3.org/2000/svg">
<path d="M84.5465 51.5245C81.2905 51.5582 78.0623 50.922 75.0626 49.6554C72.0628 48.3889 69.3556 46.519 67.109 44.162L55.0965 31.762L43.084 44.162C38.3963 48.8161 32.0585 51.4279 25.4528 51.4279C18.847 51.4279 12.5093 48.8161 7.82151 44.162C3.32797 39.1603 0.843534 32.6732 0.846506 25.9495C0.80174 19.1451 3.44814 12.5987 8.20901 7.73698C10.4922 5.43501 13.2085 3.60788 16.2013 2.361C19.1942 1.11412 22.4043 0.472168 25.6465 0.472168C28.8887 0.472168 32.0988 1.11412 35.0917 2.361C38.0845 3.60788 40.8009 5.43501 43.084 7.73698L55.0965 20.137L67.109 7.73698C69.3922 5.43501 72.1085 3.60788 75.1013 2.361C78.0942 1.11412 81.3043 0.472168 84.5465 0.472168C87.7887 0.472168 90.9988 1.11412 93.9917 2.361C96.9845 3.60788 99.7009 5.43501 101.984 7.73698C106.649 12.6532 109.25 19.1721 109.25 25.9495C109.25 32.7268 106.649 39.2458 101.984 44.162C97.3401 48.7755 91.0916 51.4137 84.5465 51.5245ZM60.5215 25.9495L72.534 38.737C75.7308 41.9022 80.0478 43.6778 84.5465 43.6778C89.0452 43.6778 93.3622 41.9022 96.559 38.737C99.7383 35.2369 101.5 30.678 101.5 25.9495C101.5 21.221 99.7383 16.6621 96.559 13.162C93.3622 9.99673 89.0452 8.22115 84.5465 8.22115C80.0478 8.22115 75.7308 9.99673 72.534 13.162L60.5215 25.9495ZM25.6465 8.12448C23.4039 8.08174 21.177 8.50773 19.1085 9.37518C17.04 10.2426 15.1754 11.5324 13.634 13.162C10.3963 16.633 8.59585 21.2029 8.59585 25.9495C8.59585 30.6961 10.3963 35.266 13.634 38.737C16.8308 41.9022 21.1478 43.6778 25.6465 43.6778C30.1452 43.6778 34.4622 41.9022 37.659 38.737L49.6715 25.9495L37.659 13.162C34.3988 10.0808 30.1293 8.29035 25.6465 8.12448Z" fill="#F55949"/>
</svg>
