<svg width="40" height="40" viewBox="0 0 40 40" fill="none" xmlns="http://www.w3.org/2000/svg">
<path fill-rule="evenodd" clip-rule="evenodd" d="M4 18C4 10.268 10.268 4 18 4C25.732 4 32 10.268 32 18C32 25.732 25.732 32 18 32C10.268 32 4 25.732 4 18ZM18 0C8.05887 0 0 8.05887 0 18C0 27.9411 8.05887 36 18 36C22.2899 36 26.2292 34.4993 29.3217 31.9943L36.774 39.4465C37.512 40.1845 38.7085 40.1845 39.4465 39.4465C40.1845 38.7085 40.1845 37.512 39.4465 36.774L31.9943 29.3217C34.4993 26.2292 36 22.2899 36 18C36 8.05887 27.9411 0 18 0Z" fill="#00CED0"/>
</svg>
