<svg width="54" height="54" viewBox="0 0 54 54" fill="none" xmlns="http://www.w3.org/2000/svg">
<rect width="54" height="54" rx="8" fill="#4267B2"/>
<path fill-rule="evenodd" clip-rule="evenodd" d="M11.3906 27.0872C11.3906 34.8476 17.0269 41.3008 24.3984 42.6094L24.3984 31.3355L20.4961 31.3355L20.4961 27L24.3984 27L24.3984 23.5308C24.3984 19.6285 26.9128 17.4614 30.4692 17.4614C31.5957 17.4614 32.8106 17.6344 33.9371 17.8074V21.7969L31.943 21.7969C30.0347 21.7969 29.6016 22.7503 29.6016 23.9653L29.6016 27L33.7641 27L33.0707 31.3355L29.6016 31.3355L29.6016 42.6094C36.9731 41.3008 42.6094 34.8489 42.6094 27.0872C42.6094 18.4539 35.5852 11.3906 27 11.3906C18.4148 11.3906 11.3906 18.4539 11.3906 27.0872Z" fill="white"/>
</svg>
