<svg width="54" height="54" viewBox="0 0 54 54" fill="none" xmlns="http://www.w3.org/2000/svg">
<rect width="54" height="54" rx="8" fill="url(#paint0_linear)"/>
<path fill-rule="evenodd" clip-rule="evenodd" d="M20.6392 11.6641C22.2844 11.5884 22.809 11.5715 27 11.5715C31.1909 11.5715 31.7155 11.5898 33.3594 11.6641C35.0032 11.7384 36.1253 12.0007 37.1071 12.3808C38.1352 12.7694 39.0679 13.3767 39.8393 14.1621C40.6248 14.9322 41.2307 15.8635 41.6178 16.893C41.9994 17.8748 42.2602 18.9969 42.336 20.6379C42.4117 22.286 42.4285 22.8105 42.4285 27.0001C42.4285 31.1911 42.4103 31.7156 42.336 33.3609C42.2616 35.0019 41.9994 36.124 41.6178 37.1058C41.2307 38.1355 40.6238 39.0683 39.8393 39.8395C39.0679 40.6249 38.1352 41.2309 37.1071 41.618C36.1253 41.9995 35.0032 42.2604 33.3622 42.3361C31.7155 42.4118 31.1909 42.4287 27 42.4287C22.809 42.4287 22.2844 42.4104 20.6392 42.3361C18.9982 42.2618 17.8761 41.9995 16.8943 41.618C15.8646 41.2308 14.9318 40.6239 14.1606 39.8395C13.3757 39.069 12.7683 38.1366 12.3807 37.1072C12.0006 36.1254 11.7397 35.0033 11.664 33.3623C11.5882 31.7142 11.5714 31.1897 11.5714 27.0001C11.5714 22.8091 11.5896 22.2846 11.664 20.6407C11.7383 18.9969 12.0006 17.8748 12.3807 16.893C12.7688 15.8636 13.3767 14.9312 14.162 14.1607C14.9321 13.376 15.864 12.7686 16.8929 12.3808C17.8747 12.0007 18.9968 11.7398 20.6378 11.6641H20.6392ZM33.2345 14.4412C31.6075 14.3669 31.1194 14.3515 27 14.3515C22.8806 14.3515 22.3924 14.3669 20.7654 14.4412C19.2604 14.51 18.4441 14.761 17.8999 14.9728C17.1804 15.2534 16.6656 15.5858 16.1256 16.1258C15.6138 16.6238 15.2198 17.23 14.9727 17.9001C14.7609 18.4443 14.5099 19.2606 14.4411 20.7656C14.3668 22.3926 14.3514 22.8807 14.3514 27.0001C14.3514 31.1195 14.3668 31.6076 14.4411 33.2346C14.5099 34.7396 14.7609 35.556 14.9727 36.1002C15.2196 36.7692 15.6137 37.3765 16.1256 37.8744C16.6236 38.3864 17.2309 38.7805 17.8999 39.0274C18.4441 39.2392 19.2604 39.4902 20.7654 39.559C22.3924 39.6333 22.8791 39.6487 27 39.6487C31.1208 39.6487 31.6075 39.6333 33.2345 39.559C34.7395 39.4902 35.5558 39.2392 36.1 39.0274C36.8196 38.7469 37.3343 38.4144 37.8743 37.8744C38.3863 37.3765 38.7804 36.7692 39.0272 36.1002C39.239 35.556 39.4901 34.7396 39.5588 33.2346C39.6332 31.6076 39.6486 31.1195 39.6486 27.0001C39.6486 22.8807 39.6332 22.3926 39.5588 20.7656C39.4901 19.2606 39.239 18.4443 39.0272 17.9001C38.7467 17.1805 38.4143 16.6658 37.8743 16.1258C37.3763 15.6139 36.7701 15.22 36.1 14.9728C35.5558 14.761 34.7395 14.51 33.2345 14.4412ZM25.0293 31.7563C26.1299 32.2144 27.3554 32.2763 28.4964 31.9312C29.6375 31.5862 30.6234 30.8557 31.2858 29.8645C31.9481 28.8734 32.2458 27.683 32.1279 26.4967C32.0101 25.3105 31.4841 24.2019 30.6397 23.3604C30.1015 22.8224 29.4506 22.4105 28.7341 22.1543C28.0175 21.8981 27.253 21.804 26.4957 21.8787C25.7384 21.9534 25.0071 22.1951 24.3544 22.5863C23.7017 22.9776 23.1439 23.5087 22.7211 24.1414C22.2983 24.7741 22.021 25.4927 21.9093 26.2455C21.7975 26.9982 21.8541 27.7663 22.0748 28.4946C22.2956 29.2229 22.675 29.8931 23.1859 30.4571C23.6968 31.0211 24.3264 31.4648 25.0293 31.7563ZM21.3924 21.3925C22.1288 20.6561 23.003 20.072 23.9652 19.6734C24.9273 19.2749 25.9586 19.0698 27 19.0698C28.0414 19.0698 29.0726 19.2749 30.0348 19.6734C30.9969 20.072 31.8712 20.6561 32.6076 21.3925C33.344 22.1289 33.9281 23.0032 34.3266 23.9653C34.7252 24.9275 34.9303 25.9587 34.9303 27.0001C34.9303 28.0415 34.7252 29.0728 34.3266 30.0349C33.9281 30.9971 33.344 31.8713 32.6076 32.6077C31.1203 34.0949 29.1032 34.9304 27 34.9304C24.8967 34.9304 22.8796 34.0949 21.3924 32.6077C19.9052 31.1205 19.0697 29.1034 19.0697 27.0001C19.0697 24.8969 19.9052 22.8797 21.3924 21.3925ZM36.6891 20.2508C36.8716 20.0787 37.0177 19.8717 37.1187 19.642C37.2198 19.4124 37.2737 19.1649 37.2774 18.914C37.281 18.6632 37.2343 18.4142 37.14 18.1817C37.0457 17.9492 36.9057 17.7381 36.7283 17.5607C36.5509 17.3833 36.3398 17.2433 36.1073 17.149C35.8748 17.0547 35.6258 17.008 35.375 17.0116C35.1241 17.0153 34.8766 17.0692 34.647 17.1703C34.4174 17.2713 34.2104 17.4174 34.0382 17.5999C33.7034 17.9548 33.5201 18.4262 33.5272 18.914C33.5344 19.4019 33.7313 19.8677 34.0763 20.2127C34.4213 20.5577 34.8871 20.7547 35.375 20.7618C35.8628 20.7689 36.3342 20.5856 36.6891 20.2508Z" fill="white"/>
<defs>
<linearGradient id="paint0_linear" x1="-10.2857" y1="-7.07143" x2="59.7857" y2="59.7857" gradientUnits="userSpaceOnUse">
<stop stop-color="#5656C8"/>
<stop offset="0.322917" stop-color="#CE2C7B"/>
<stop offset="0.661458" stop-color="#E66E35"/>
<stop offset="1" stop-color="#F7CC6A"/>
</linearGradient>
</defs>
</svg>
