<svg width="54" height="54" viewBox="0 0 54 54" fill="none" xmlns="http://www.w3.org/2000/svg">
<rect width="54" height="54" rx="8" fill="#E77D08"/>
<path d="M27.0006 13C23.0692 13 19.8711 16.2416 19.8711 20.2266C19.8711 24.2114 23.0692 27.4515 27.0006 27.4515C30.9318 27.4515 34.1284 24.2114 34.1284 20.2266C34.1284 16.2416 30.9318 13 27.0006 13ZM27.0006 17.2341C28.6277 17.2341 29.9508 18.5772 29.9508 20.2266C29.9508 21.8754 28.6277 23.2174 27.0006 23.2174C25.3732 23.2174 24.0487 21.8754 24.0487 20.2266C24.0487 18.5772 25.3732 17.2341 27.0006 17.2341ZM21.1227 27.6974C20.4173 27.6863 19.7237 28.0387 19.3213 28.6887C18.7064 29.679 19.001 30.9857 19.9756 31.6086C21.2647 32.4285 22.6636 33.0102 24.1143 33.3455L20.1301 37.3862C19.3144 38.2135 19.3151 39.5532 20.1309 40.3805C20.5398 40.7934 21.0731 41 21.6078 41C22.1419 41 22.6769 40.7931 23.0846 40.3796L26.9989 36.4098L30.9167 40.3796C31.7316 41.2066 33.0531 41.2066 33.8695 40.3796C34.6854 39.5529 34.6854 38.2117 33.8695 37.3863L29.8835 33.3464C31.3346 33.0111 32.734 32.4291 34.0222 31.6086C34.9988 30.9858 35.2938 29.6776 34.6791 28.6888C34.0636 27.6983 32.7752 27.3999 31.7979 28.0238C28.8792 29.8849 25.1185 29.8837 22.2007 28.0238C21.8648 27.8093 21.4921 27.7032 21.1227 27.6974V27.6974Z" fill="white"/>
</svg>
