<svg width="54" height="54" viewBox="0 0 54 54" fill="none" xmlns="http://www.w3.org/2000/svg">
<rect width="54" height="54" rx="8" fill="#1C9CEA"/>
<path d="M46.2857 15.2318C44.9146 15.8503 43.4416 16.2682 41.8931 16.4571C43.4908 15.4838 44.6862 13.952 45.2561 12.1475C43.755 13.0552 42.112 13.6941 40.3988 14.0365C39.2466 12.7842 37.7206 11.9541 36.0576 11.6752C34.3945 11.3962 32.6876 11.6841 31.2017 12.4939C29.7158 13.3038 28.5342 14.5904 27.8402 16.154C27.1462 17.7176 26.9787 19.4708 27.3637 21.1412C24.322 20.9857 21.3464 20.1809 18.63 18.7789C15.9136 17.377 13.5172 15.4092 11.5962 13.0034C10.9393 14.1568 10.5616 15.4942 10.5616 16.9185C10.5609 18.2007 10.8711 19.4632 11.4646 20.5941C12.0581 21.725 12.9167 22.6893 13.9641 23.4014C12.7494 23.362 11.5615 23.0279 10.4992 22.4268L10.4992 22.5271C10.4991 24.3254 11.1102 26.0683 12.2287 27.4602C13.3472 28.8521 14.9043 29.8072 16.6358 30.1634C15.509 30.4738 14.3276 30.5196 13.1808 30.2971C13.6693 31.8445 14.6209 33.1976 15.9024 34.167C17.1838 35.1364 18.731 35.6736 20.3273 35.7034C17.6175 37.8689 14.271 39.0436 10.826 39.0384C10.2158 39.0386 9.60606 39.0023 9 38.9298C12.4968 41.2186 16.5674 42.4334 20.7247 42.4286C34.7975 42.4286 42.4908 30.5629 42.4908 20.2719C42.4908 19.9376 42.4826 19.5999 42.4678 19.2656C43.9642 18.1639 45.256 16.7996 46.2824 15.2368L46.2857 15.2318Z" fill="white"/>
</svg>
