<svg width="54" height="54" viewBox="0 0 54 54" fill="none" xmlns="http://www.w3.org/2000/svg">
<rect width="54" height="54" rx="8" fill="#4A76A8"/>
<path d="M41.6959 19.2206C41.9167 18.5175 41.6959 18 40.6338 18L37.1193 18C36.2242 18 35.8125 18.4444 35.5917 18.9394C35.5917 18.9394 33.8016 23.0512 31.2716 25.7175C30.4541 26.4881 30.0782 26.7356 29.6307 26.7356C29.4099 26.7356 29.0698 26.4881 29.0698 25.785L29.0698 19.2206C29.0698 18.3769 28.8192 18 28.0792 18L22.5538 18C21.9929 18 21.6587 18.3937 21.6587 18.7594C21.6587 19.5581 22.9238 19.7437 23.055 21.9937L23.055 26.8763C23.055 27.945 22.8521 28.1419 22.4046 28.1419C21.2112 28.1419 18.3113 24.0131 16.5928 19.2881C16.2467 18.3713 15.9066 18 15.0055 18L11.491 18C10.4885 18 10.2856 18.4444 10.2856 18.9394C10.2856 19.8169 11.479 24.1763 15.8409 29.9363C18.7469 33.8681 22.8402 36 26.5636 36C28.8013 36 29.0757 35.5275 29.0757 34.7119C29.0757 30.9544 28.8729 30.6 29.9947 30.6C30.5138 30.6 31.4088 30.8475 33.4973 32.7431C35.8841 34.9931 36.2779 36 37.6145 36L41.1291 36C42.1315 36 42.6387 35.5275 42.3463 34.5938C41.678 32.6306 37.161 28.5919 36.9581 28.3219C36.439 27.6919 36.5882 27.4106 36.9581 26.8481C36.9641 26.8425 41.2544 21.15 41.6959 19.2206Z" fill="white"/>
</svg>
