<svg width="288" height="288" viewBox="0 0 288 288" fill="none" xmlns="http://www.w3.org/2000/svg">
<g clip-path="url(#clip0)">
<rect width="288" height="288" rx="8" fill="#E6F4FE"/>
<path d="M-24.961 -90.5454C-27.8961 -96.695 -23.4277 -104 -16.6135 -104H-16.2514C-12.9438 -104 -9.91107 -102.195 -8.41657 -99.2438C0.0880241 -82.452 27.67 -24.6303 27.4992 18.6805C27.2964 70.1004 -12.1831 89.9406 -12.1831 141.361C-12.1831 192.782 27.2964 212.622 27.4992 264.042C27.67 307.353 0.0880127 365.174 -8.41658 381.966C-9.91107 384.917 -12.9438 386.722 -16.2514 386.722H-16.6135C-23.4277 386.722 -27.8961 379.417 -24.961 373.268C-13.9118 350.118 6.83047 301.618 6.68228 264.042C6.4795 212.622 -33 192.782 -33 141.361C-33 89.9406 6.4795 70.1004 6.68228 18.6805C6.83047 -18.896 -13.9118 -67.3954 -24.961 -90.5454Z" fill="#9CD7FF"/>
<path d="M96.039 -90.5454C93.1039 -96.695 97.5723 -104 104.386 -104H104.749C108.056 -104 111.089 -102.195 112.583 -99.2438C121.088 -82.452 148.67 -24.6303 148.499 18.6805C148.296 70.1004 108.817 89.9406 108.817 141.361C108.817 192.782 148.296 212.622 148.499 264.042C148.67 307.353 121.088 365.174 112.583 381.966C111.089 384.917 108.056 386.722 104.749 386.722H104.386C97.5723 386.722 93.1039 379.417 96.039 373.268C107.088 350.118 127.83 301.618 127.682 264.042C127.479 212.622 87.9999 192.782 87.9999 141.361C87.9999 89.9406 127.479 70.1004 127.682 18.6805C127.83 -18.896 107.088 -67.3954 96.039 -90.5454Z" fill="#9CD7FF"/>
<path d="M217.039 -90.5454C214.104 -96.695 218.572 -104 225.387 -104H225.749C229.056 -104 232.089 -102.195 233.584 -99.2438C242.088 -82.452 269.67 -24.6303 269.499 18.6805C269.297 70.1004 229.817 89.9406 229.817 141.361C229.817 192.782 269.297 212.622 269.499 264.042C269.67 307.353 242.088 365.174 233.584 381.966C232.089 384.917 229.056 386.722 225.749 386.722H225.387C218.572 386.722 214.104 379.417 217.039 373.268C228.088 350.118 248.831 301.618 248.682 264.042C248.48 212.622 209 192.782 209 141.361C209 89.9406 248.48 70.1004 248.682 18.6805C248.831 -18.896 228.088 -67.3954 217.039 -90.5454Z" fill="#9CD7FF"/>
<path d="M35.539 -90.5454C32.6039 -96.695 37.0723 -104 43.8865 -104H44.2486C47.5562 -104 50.5889 -102.195 52.0834 -99.2438C60.588 -82.452 88.17 -24.6303 87.9992 18.6805C87.7964 70.1004 48.3169 89.9406 48.3169 141.361C48.3169 192.782 87.7964 212.622 87.9992 264.042C88.17 307.353 60.588 365.174 52.0834 381.966C50.5889 384.917 47.5562 386.722 44.2486 386.722H43.8865C37.0723 386.722 32.6039 379.417 35.539 373.268C46.5882 350.118 67.3305 301.618 67.1823 264.042C66.9795 212.622 27.5 192.782 27.5 141.361C27.5 89.9406 66.9795 70.1004 67.1823 18.6805C67.3305 -18.896 46.5882 -67.3954 35.539 -90.5454Z" fill="#9CD7FF"/>
<path d="M156.539 -90.5454C153.604 -96.695 158.072 -104 164.886 -104H165.248C168.556 -104 171.589 -102.195 173.083 -99.2438C181.588 -82.452 209.17 -24.6303 208.999 18.6805C208.796 70.1004 169.317 89.9406 169.317 141.361C169.317 192.782 208.796 212.622 208.999 264.042C209.17 307.353 181.588 365.174 173.083 381.966C171.589 384.917 168.556 386.722 165.248 386.722H164.886C158.072 386.722 153.604 379.417 156.539 373.268C167.588 350.118 188.33 301.618 188.182 264.042C187.979 212.622 148.5 192.782 148.5 141.361C148.5 89.9406 187.979 70.1004 188.182 18.6805C188.33 -18.896 167.588 -67.3954 156.539 -90.5454Z" fill="#9CD7FF"/>
<path d="M277.539 -90.5454C274.604 -96.695 279.072 -104 285.887 -104H286.249C289.556 -104 292.589 -102.195 294.084 -99.2438C302.588 -82.452 330.17 -24.6303 329.999 18.6805C329.797 70.1004 290.317 89.9406 290.317 141.361C290.317 192.782 329.797 212.622 329.999 264.042C330.17 307.353 302.588 365.174 294.084 381.966C292.589 384.917 289.556 386.722 286.249 386.722H285.887C279.072 386.722 274.604 379.417 277.539 373.268C288.588 350.118 309.331 301.618 309.182 264.042C308.98 212.622 269.5 192.782 269.5 141.361C269.5 89.9406 308.98 70.1004 309.182 18.6805C309.331 -18.896 288.588 -67.3954 277.539 -90.5454Z" fill="#9CD7FF"/>
<path d="M264 231.276C264 218.021 253.255 207.276 240 207.276H225.676C209.273 207.276 195.976 220.574 195.976 236.977C195.976 241.21 199.407 244.642 203.64 244.642H256C260.418 244.642 264 241.06 264 236.642V231.276Z" fill="#CB2919"/>
<path d="M264 224.043C264 214.783 256.493 207.276 247.233 207.276H212.742C203.482 207.276 195.976 214.783 195.976 224.043H264Z" fill="#F55949"/>
<path d="M227.113 222.845C227.113 214.247 220.143 207.276 211.544 207.276C202.946 207.276 195.975 214.247 195.975 222.845V244.642H227.113V222.845Z" fill="#FBD2CE"/>
<path d="M225.197 222.845C225.197 215.305 219.085 209.192 211.545 209.192C204.004 209.192 197.892 215.305 197.892 222.845V242.726H225.197V222.845Z" fill="#636363"/>
<path d="M195.976 266.438C195.976 275.037 202.946 282.007 211.545 282.007C220.143 282.007 227.114 275.037 227.114 266.438L227.114 244.642L195.976 244.642L195.976 266.438Z" fill="#FBD2CE"/>
<path d="M211.545 209.192C225.197 209.192 225.197 222.787 225.197 222.787V242.726H214.007L197.892 222.787C197.892 222.787 197.892 209.192 211.545 209.192Z" fill="#3A3A3A"/>
<rect width="5.74855" height="69.4616" transform="matrix(-1 0 0 1 238.611 244.642)" fill="#AD650E"/>
<path d="M241.964 191.947C239.318 191.947 237.173 194.091 237.173 196.737V231.228C237.173 232.551 238.246 233.624 239.569 233.624C240.891 233.624 241.964 232.551 241.964 231.228V191.947Z" fill="#636363"/>
<path d="M260.647 198.174L241.964 191.951L241.964 204.397L260.647 198.174Z" fill="#F55949"/>
<path d="M0.909054 325.861C0.925339 321.978 1.74066 318.139 3.30428 314.584C3.30428 314.584 3.35212 314.584 3.35691 314.584C3.52731 314.792 3.76755 314.93 4.03244 314.972C4.14821 315.04 4.27012 315.096 4.39652 315.14C4.4215 315.151 4.4483 315.156 4.47546 315.156C4.50264 315.156 4.52954 315.151 4.55453 315.14C5.15812 315.423 5.88633 315.619 6.40369 315.38C6.5043 315.337 5.44554 314.479 5.38327 314.446C5.04234 314.29 4.72078 314.096 4.42517 313.866C4.09942 313.612 3.8791 313.353 3.98449 313.138C5.1717 310.733 6.48613 308.394 7.92223 306.129L8.91389 304.496C9.52991 305.007 10.2797 305.332 11.0744 305.43C11.0912 305.433 11.1083 305.432 11.1248 305.428C11.1413 305.424 11.1567 305.416 11.1702 305.406C11.2656 305.401 11.3603 305.387 11.4529 305.363C11.4779 305.355 11.5001 305.341 11.5168 305.321C11.5336 305.301 11.5442 305.276 11.5472 305.25C11.5503 305.224 11.5457 305.198 11.534 305.175C11.5224 305.151 11.5041 305.132 11.4815 305.119C11.0312 304.826 11.0648 304.683 10.6145 304.39C9.82889 303.883 9.56541 303.504 9.65643 303.231C11.4548 300.272 12.9018 297.113 13.9678 293.818C14.1496 293.975 14.3638 294.089 14.5953 294.153C14.9642 294.378 15.3619 294.488 15.6493 294.259C15.9367 294.029 15.3618 293.607 15.2181 293.521C14.5522 293.133 14.308 292.75 14.3367 292.563C15.3109 288.98 15.8592 285.294 15.9702 281.583C16.1252 281.716 16.3079 281.814 16.5052 281.867C16.7024 281.921 16.9091 281.931 17.1103 281.894C17.2013 281.894 16.6313 281.104 16.5786 281.032C16.4007 280.888 16.2597 280.704 16.1672 280.495C16.0747 280.286 16.0334 280.058 16.0468 279.83C16.0536 273.775 15.481 267.734 14.3367 261.789L43.7357 256.481C45.8722 268.318 46.2555 278.158 45.5801 286.412C45.5513 286.618 45.1346 286.987 44.4064 287.03C43.8412 287.063 43.9274 286.915 43.4483 287.284C43.41 287.315 43.3798 287.356 43.3606 287.402C43.3414 287.448 43.3337 287.498 43.3381 287.547C43.2887 287.587 43.2484 287.637 43.2197 287.693C43.191 287.75 43.1744 287.812 43.1713 287.875C43.1681 287.938 43.1784 288.002 43.2013 288.061C43.2243 288.12 43.2595 288.173 43.3046 288.218C43.8411 288.663 44.7082 288.534 45.3166 288.285C45.3405 288.285 45.398 288.232 45.4267 288.218C45.093 291.39 44.5651 294.538 43.8459 297.645C43.7405 298.077 43.1274 298.455 42.2315 298.527C41.7015 298.506 41.1758 298.632 40.7129 298.891C40.6746 298.891 40.6363 298.891 40.5979 298.92C40.5002 298.946 40.4155 299.007 40.3595 299.091C40.3034 299.176 40.2799 299.277 40.2934 299.378C40.3069 299.478 40.3565 299.57 40.4328 299.636C40.5091 299.703 40.6069 299.739 40.7081 299.739C41.4331 299.944 42.2091 299.859 42.8734 299.504C43.0247 299.461 43.1709 299.401 43.3094 299.327C43.3573 299.327 43.4147 299.327 43.4578 299.327C42.6977 302.293 41.7374 305.204 40.5835 308.041C40.4398 308.371 39.9272 308.649 38.9069 308.707C38.2857 308.684 37.6783 308.892 37.2016 309.291C37.1411 309.353 37.0977 309.43 37.0757 309.514C37.0537 309.598 37.0538 309.686 37.076 309.77C37.0981 309.854 37.1417 309.931 37.2023 309.993C37.2629 310.055 37.3386 310.1 37.4219 310.125C37.8518 310.273 38.319 310.273 38.7489 310.125C38.9257 310.08 39.0999 310.025 39.271 309.962C39.4891 309.874 39.7018 309.773 39.9081 309.66C38.8365 312.115 37.6389 314.514 36.3201 316.846C36.1141 317.205 34.6147 317.564 33.6566 317.636C33.3691 317.636 32.4542 318.685 32.7272 318.81C32.7847 318.834 32.8471 318.848 32.9093 318.867C33.5225 319.27 34.4518 319.073 35.2422 318.719C34.6099 319.792 33.9919 320.807 33.417 321.756C32.3679 323.466 30.9404 325.809 30.6913 326.637C30.7514 326.406 30.7787 326.167 30.7727 325.928L0.909054 325.861Z" fill="#2C5777"/>
<path d="M44.4064 287.02C43.8412 287.054 43.9274 286.905 43.4483 287.274C43.41 287.306 43.3798 287.346 43.3606 287.392C43.3414 287.438 43.3337 287.488 43.3381 287.538C43.2513 287.615 43.1957 287.721 43.1816 287.837C43.1675 287.952 43.1958 288.069 43.2615 288.165C39.1321 288.644 34.7967 288.141 31.1799 290.56C27.223 293.229 24.7224 297.746 22.3464 301.775C18.102 308.96 14.2552 317.382 12.7175 325.847H4.57371C5.42633 321.515 6.83353 317.311 8.76057 313.339C10.7247 309.406 12.9953 305.631 15.0887 301.77C17.8145 296.754 20.6649 289.909 18.2553 284.745C18.0794 284.295 17.8629 283.862 17.6085 283.451C17.3401 282.898 17.0193 282.372 16.6504 281.88C16.7982 281.902 16.9483 281.902 17.096 281.88C17.1871 281.88 16.6169 281.09 16.5642 281.018C16.3863 280.874 16.2453 280.69 16.1528 280.481C16.0603 280.272 16.019 280.044 16.0324 279.815C16.043 273.766 15.4752 267.73 14.3367 261.789L43.7357 256.481C45.8722 268.318 46.2555 278.158 45.5801 286.412C45.5513 286.608 45.1346 286.977 44.4064 287.02Z" fill="#1F4060"/>
<path d="M89.1394 258.828C96.8041 266.177 101.839 273.583 105.092 280.697C105.604 281.808 104.713 282.436 104.282 282.656C104.177 282.757 103.861 283.245 103.928 283.331C103.884 283.533 104.062 283.753 104.268 283.648C104.289 283.668 104.313 283.683 104.341 283.693C104.368 283.703 104.397 283.707 104.426 283.705C104.457 283.756 104.5 283.798 104.55 283.83C104.577 283.879 104.614 283.922 104.66 283.956C104.706 283.989 104.758 284.011 104.814 284.021C104.901 284.079 105.006 284.105 105.111 284.093C105.561 283.976 105.952 283.696 106.208 283.307C107.422 286.35 108.383 289.487 109.082 292.687C109.125 292.988 109.071 293.295 108.928 293.564C108.785 293.833 108.561 294.049 108.287 294.182C107.607 294.613 108.038 294.57 107.559 295.217C107.511 295.279 107.592 295.365 107.659 295.346C108.035 295.24 108.383 295.054 108.68 294.8C108.727 294.867 108.796 294.915 108.876 294.934C108.89 294.952 108.906 294.968 108.924 294.982C108.934 295.018 108.952 295.05 108.977 295.077C109.003 295.104 109.034 295.125 109.069 295.136C109.104 295.148 109.142 295.151 109.178 295.145C109.215 295.139 109.249 295.124 109.279 295.102C109.365 295.047 109.442 294.977 109.504 294.896C110.136 298.478 110.457 302.108 110.462 305.746C110.43 305.945 110.353 306.135 110.238 306.301C110.123 306.467 109.972 306.605 109.796 306.704C109.677 306.785 109.563 306.873 109.456 306.968V306.996L109.417 307.025C109.347 307.094 109.272 307.158 109.192 307.217C109.133 307.266 109.095 307.336 109.086 307.412C109.076 307.489 109.095 307.566 109.14 307.629C109.137 307.657 109.137 307.686 109.14 307.715C109.149 307.777 109.171 307.837 109.203 307.891C109.236 307.945 109.278 307.992 109.329 308.029C109.38 308.067 109.437 308.094 109.499 308.109C109.56 308.124 109.623 308.127 109.686 308.117C109.981 308.048 110.251 307.895 110.462 307.677C110.39 310.498 110.16 313.118 109.868 315.499C109.714 316.678 107.918 317.277 107.358 317.32C107.071 317.315 106.794 317.424 106.586 317.622C106.5 317.657 106.423 317.71 106.359 317.778C106.295 317.846 106.247 317.926 106.216 318.013C106.185 318.101 106.173 318.194 106.181 318.287C106.189 318.38 106.216 318.469 106.26 318.551C106.557 319.107 107.314 319.059 107.837 318.963C108.472 318.764 109.052 318.422 109.532 317.962C109.312 319.432 109.053 321.013 108.842 322.24C108.579 323.792 108.215 325.923 108.196 326.599H78.3225C78.4031 323.713 78.7236 320.838 79.2806 318.005C79.3956 318.096 79.4963 318.263 79.6016 318.316C79.8413 318.426 80.1019 318.483 80.3657 318.483C80.6295 318.483 80.8901 318.426 81.1298 318.316C81.8252 318.326 82.5119 318.161 83.1274 317.837C83.1333 317.834 83.1384 317.829 83.1419 317.823C83.1453 317.817 83.1471 317.81 83.1471 317.804C83.1471 317.797 83.1453 317.79 83.1419 317.784C83.1384 317.778 83.1333 317.773 83.1274 317.77C82.2747 317.564 81.8723 317.684 81.0148 317.382C80.1573 317.08 79.5776 316.424 79.6207 316.007C79.9656 313.952 80.2914 311.849 80.483 309.66C80.6361 309.748 80.7964 309.823 80.9621 309.885L81.0578 309.928C81.074 309.985 81.1021 310.038 81.1401 310.083C81.178 310.129 81.2251 310.166 81.2783 310.192C81.4071 310.261 81.552 310.295 81.6983 310.291C81.8446 310.287 81.9872 310.244 82.1118 310.168C82.193 310.138 82.269 310.096 82.337 310.043C82.4047 309.975 82.4483 309.887 82.4613 309.792C82.4743 309.696 82.4558 309.6 82.4088 309.516C82.3604 309.433 82.2839 309.37 82.1932 309.339C82.0001 309.199 81.7797 309.101 81.5465 309.051C80.6986 308.845 80.5884 308.251 80.5884 308.093C80.7547 305.352 80.5939 302.6 80.1093 299.897C80.2243 299.935 80.3584 300.079 80.4686 300.088C80.5221 300.095 80.5764 300.089 80.6276 300.073C80.6788 300.056 80.7258 300.029 80.7657 299.993H80.8471C80.9249 299.985 80.9974 299.95 81.0518 299.894C81.1061 299.838 81.1389 299.764 81.1442 299.686C81.1603 299.675 81.1742 299.661 81.1849 299.644C81.1955 299.628 81.2028 299.61 81.2064 299.59C81.7285 299.665 82.2607 299.561 82.7154 299.293C82.7729 299.26 82.4184 299.063 82.4184 299.13C82.4184 299.197 81.9969 298.905 81.6232 298.761C81.1777 298.594 79.707 298.378 79.5633 297.559C79.0411 295.667 77.8196 292.769 77.1681 291.097C77.3693 291.068 77.6902 291.576 77.6807 291.351C77.6751 291.266 77.6573 291.182 77.6279 291.102C77.6505 291.035 77.6472 290.963 77.6188 290.899C77.5904 290.835 77.5389 290.784 77.4746 290.757C77.8272 290.752 78.1762 290.684 78.5046 290.555C78.516 290.555 78.5269 290.551 78.535 290.543C78.5431 290.535 78.5476 290.524 78.5476 290.512C78.5476 290.501 78.5431 290.49 78.535 290.482C78.5269 290.474 78.516 290.469 78.5046 290.469C77.7956 290.206 77.8818 290.028 77.1201 289.99C76.8534 289.955 76.5979 289.861 76.3724 289.714C76.1469 289.567 75.9572 289.372 75.8171 289.142C73.7435 285.924 71.2837 282.972 68.4925 280.352L89.1394 258.828Z" fill="#2C5777"/>
<path d="M89.1394 258.828C96.8041 266.177 101.839 273.583 105.092 280.697C105.604 281.808 104.713 282.436 104.282 282.656C104.177 282.757 103.861 283.245 103.928 283.331C103.884 283.533 104.062 283.753 104.268 283.648C104.289 283.668 104.313 283.683 104.341 283.693C104.368 283.703 104.397 283.707 104.426 283.705C104.457 283.756 104.5 283.798 104.55 283.83C104.577 283.879 104.614 283.922 104.66 283.956C104.706 283.989 104.758 284.011 104.814 284.021C104.901 284.079 105.006 284.105 105.111 284.093C105.523 284.031 105.925 283.346 106.208 282.963C106.658 284.093 107.065 285.554 107.434 286.666C107.077 287.6 106.541 288.455 105.858 289.185C103.98 291.068 100.948 290.785 98.9599 291.37C94.6916 292.625 92.0329 297.027 91.6784 301.406C91.3622 305.368 92.6364 309.348 92.5741 313.334C92.5781 316.404 92.1967 319.461 91.4389 322.436C91.0939 323.725 90.8208 325.248 90.3226 326.618H81.1633C84.1518 320.82 85.6965 314.386 85.6663 307.863C85.628 304.309 85.3263 298.493 82.8496 295.801C82.1023 294.843 79.2471 294.182 78.3801 294.182C77.7621 292.678 77.1825 291.399 77.0963 291.015C77.3741 290.939 77.6567 291.614 77.6471 291.389C77.6416 291.304 77.6238 291.22 77.5944 291.14C77.6169 291.074 77.6138 291.001 77.5854 290.937C77.5569 290.873 77.5054 290.823 77.4412 290.795C77.7938 290.79 78.1426 290.722 78.4711 290.594C78.4825 290.594 78.4935 290.589 78.5016 290.581C78.5097 290.573 78.5142 290.562 78.5142 290.551C78.5142 290.539 78.5097 290.528 78.5016 290.52C78.4935 290.512 78.4825 290.508 78.4711 290.508C77.7621 290.244 77.8483 290.067 77.0867 290.028C76.8199 289.993 76.5645 289.899 76.339 289.752C76.1135 289.606 75.9238 289.41 75.7837 289.181C73.7101 285.962 71.2502 283.01 68.459 280.39L89.1394 258.828Z" fill="#1F4060"/>
<path d="M78.4424 291.887C83.1706 291.571 94.1168 290.364 104.028 284.999C108.752 282.44 104.507 282.527 104.507 282.527C94.548 288.946 82.912 289.985 78.0497 289.985C77.6712 289.985 77.3502 290.019 77.0916 290.029C77.0868 290.053 76.6555 292.007 78.4424 291.887Z" fill="#121A26"/>
<path d="M102.591 202.727C105.013 201.531 107.811 201.345 110.37 202.21C112.929 203.075 115.04 204.92 116.239 207.34C117.666 209.739 119.385 211.951 121.355 213.927C121.355 213.956 121.049 214.354 121.054 214.368C121.135 214.799 121.533 214.306 121.456 214.804C121.408 215.082 121.408 215.326 121.729 215.202C121.948 215.116 122.185 215.092 122.417 215.131C122.648 215.171 122.864 215.273 123.042 215.427C124.551 216.726 126.152 217.916 127.832 218.986C127.832 218.986 127.832 219.211 127.832 219.23C128.12 219.479 127.947 219.288 128.019 219.671C128.062 219.901 127.947 220.227 128.124 220.15C128.418 220.024 128.735 219.963 129.054 219.971C129.373 219.979 129.687 220.057 129.973 220.198C131.816 221.067 133.701 221.843 135.621 222.521C135.794 222.612 135.473 222.876 135.621 222.957C135.856 223.087 135.712 222.847 135.923 223.01L136.129 223.317C136.177 223.465 136.249 223.566 136.436 223.499L136.517 223.47C137.087 223.287 137.698 223.274 138.275 223.432L139.042 223.623C140.024 223.863 142.036 224.078 142.979 224.208C143.286 224.332 142.611 224.313 142.927 224.39C143.152 224.442 143.406 224.529 143.607 224.6C143.674 224.638 143.747 224.664 143.823 224.677C143.928 224.754 144 224.873 144.134 224.845C144.481 224.556 144.924 224.409 145.375 224.433C147.569 224.483 149.764 224.322 151.928 223.954C152.014 223.954 152.695 224.672 152.776 224.553C153.079 224.091 153.499 223.717 153.993 223.47C155.487 223.039 158.936 222.085 158.936 222.085C158.936 222.085 165.284 220.097 168.575 229.903C172.484 241.53 164.264 244.275 164.264 244.275C162.929 244.836 161.561 245.316 160.168 245.712C159.294 245.968 158.357 245.902 157.528 245.525L157.466 245.492C157.466 245.492 157.432 245.563 157.418 245.578C157.236 245.762 157.067 245.957 156.91 246.162C156.714 246.368 157.284 246.162 157.03 246.296C157.03 246.296 156.939 246.531 156.929 246.531C153.222 247.291 149.451 247.698 145.667 247.748C145.279 247.748 144.895 247.668 144.538 247.513C144.182 247.358 143.862 247.132 143.597 246.847L143.569 246.819C143.09 247.298 143.368 247.623 142.726 247.676C139.705 247.45 136.705 247.005 133.748 246.344C133.092 246.186 132.455 246.014 131.832 245.837C131.465 245.734 131.125 245.552 130.836 245.304C130.548 245.056 130.317 244.747 130.16 244.399C129.88 244.634 129.578 244.843 129.26 245.022C129.012 244.993 128.769 244.933 128.536 244.845C125.078 243.675 121.739 242.18 118.562 240.38C118.292 240.24 118.055 240.044 117.864 239.807C117.674 239.569 117.535 239.295 117.456 239.001C116.977 239.001 116.737 239.178 116.292 239.001C115.922 238.846 115.58 238.634 115.276 238.373C102.984 230.229 97.7432 219.92 97.4462 219.312C94.9552 214.253 97.5516 205.223 102.591 202.727Z" fill="#2C5777"/>
<path d="M141.518 230.407C134.687 230.407 130.812 228.548 127.688 226.416C125.188 224.711 123.521 222.953 122.97 221.525C121.878 218.651 122.577 217.214 125.054 217.036C125.94 217.707 126.893 218.378 127.851 218.981C127.851 218.981 127.851 219.206 127.851 219.226C128.139 219.475 127.966 219.283 128.038 219.666C128.081 219.896 127.966 220.222 128.143 220.145C128.437 220.019 128.754 219.958 129.073 219.966C129.392 219.975 129.706 220.052 129.993 220.193C131.833 221.062 133.717 221.837 135.636 222.517C135.813 222.608 135.492 222.871 135.636 222.953C135.87 223.082 135.727 222.842 135.937 223.005L136.143 223.312C136.191 223.46 136.263 223.561 136.45 223.494L136.531 223.465C137.101 223.283 137.712 223.269 138.29 223.427L139.056 223.618C140.038 223.858 142.05 224.074 142.994 224.203C143.3 224.327 142.625 224.308 142.941 224.385C143.166 224.438 143.42 224.524 143.621 224.596C143.688 224.633 143.761 224.659 143.837 224.672C143.942 224.749 144.014 224.869 144.148 224.84C144.495 224.552 144.938 224.405 145.389 224.428C146.481 224.457 147.693 224.428 148.838 224.342C149.38 225.721 148.1 230.828 141.518 230.407Z" fill="#468AAD"/>
<path d="M162.18 224.04C161.767 223.568 161.282 223.165 160.743 222.847C160.231 222.55 159.672 222.345 159.09 222.239L159.061 222.076C159.693 221.918 163.344 221.238 166.357 225.372C166.039 225.696 165.637 225.925 165.196 226.034C164.756 226.144 164.293 226.128 163.861 225.99C163.428 225.852 163.043 225.597 162.747 225.252C162.451 224.908 162.256 224.488 162.184 224.04H162.18Z" fill="#468AAD"/>
<path d="M102.591 202.727C105.013 201.531 107.811 201.345 110.37 202.21C112.928 203.075 115.04 204.92 116.239 207.34C117.647 209.722 119.344 211.92 121.293 213.884C118.797 216.897 117.044 222.248 121.892 228.342C124.91 232.131 131.018 235.527 135.449 236.821C138.376 237.669 141.02 237.468 143.87 237.468C155.248 237.468 152.618 233.578 153.384 228.179C153.55 226.756 153.981 225.377 154.654 224.112C155.32 222.196 155.99 222.143 158.783 223.551C158.996 223.672 159.164 223.859 159.261 224.084C159.358 224.309 159.379 224.559 159.32 224.797C158.841 226.205 157.739 227.25 157.217 228.715C156.79 229.923 156.46 230.909 156.738 232.203L157.03 232.347C157.139 232.284 157.262 232.249 157.388 232.243C157.514 232.237 157.639 232.26 157.754 232.311C157.87 232.363 157.971 232.44 158.051 232.538C158.13 232.635 158.186 232.75 158.213 232.874L158.381 233.195C158.814 233.773 159.124 234.436 159.291 235.139C159.42 235.537 159.516 235.944 159.636 236.342C162.963 235.164 166.143 233.604 169.111 231.695C169.473 233.069 169.654 234.485 169.648 235.906C169.161 236.565 168.814 237.316 168.627 238.114C168.575 238.196 168.536 238.263 168.513 238.306C168.153 238.656 167.823 239.044 167.435 239.369C167.435 239.326 166.299 240.088 166.136 240.189C165.974 240.289 165.681 240.442 165.451 240.567C165.691 241.013 165.902 241.472 166.136 241.856C166.199 241.959 166.238 242.075 166.251 242.195C166.265 242.314 166.252 242.436 166.215 242.55C166.177 242.665 166.115 242.77 166.033 242.859C165.951 242.947 165.85 243.017 165.739 243.063C165.495 244.318 162.386 245.037 162.386 245.037C162.286 244.981 162.191 244.917 162.103 244.845C161.414 244.296 160.6 243.925 159.734 243.765C158.867 243.605 157.975 243.662 157.135 243.93H157.073C149.72 246.201 141.231 245.88 133.791 243.997C132.833 243.738 131.842 243.46 130.879 243.173C123.773 240.997 117.119 237.555 111.238 233.012C105.547 228.548 100.55 222.632 96.6126 216.452C95.9036 211.388 98.4043 204.782 102.591 202.727Z" fill="#1F4060"/>
<path d="M119.726 214.128C120.067 213.989 121.164 213.692 121.446 214.023C121.668 214.374 121.767 214.788 121.729 215.201C117.417 216.873 106.299 222.315 107.357 233.525L105.599 233.693C104.483 221.846 114.701 216.217 119.726 214.128Z" fill="#121A26"/>
<path d="M117.475 238.982C117.097 239.106 116.689 239.106 116.311 238.982C115.942 238.843 115.775 237.899 115.775 237.506C115.827 229.31 119.53 224.773 121.921 222.363C123.341 220.883 125.039 219.696 126.917 218.871C127.102 218.788 127.307 218.766 127.505 218.807C127.703 218.849 127.883 218.951 128.019 219.101L128.081 219.187C128.202 219.492 128.233 219.824 128.172 220.145C126.295 220.958 124.597 222.134 123.176 223.604C120.876 225.904 117.245 230.871 117.475 238.982Z" fill="#121A26"/>
<path d="M130.179 244.399C130.179 244.399 129.782 245.037 129.336 245.013C129.082 244.955 128.847 244.831 128.657 244.652C128.467 244.473 128.327 244.247 128.254 243.997C126.982 238.165 127.907 232.069 130.85 226.876C131.71 225.336 132.847 223.969 134.203 222.842C134.418 222.67 134.672 222.552 134.943 222.501C135.214 222.45 135.493 222.467 135.756 222.55C135.832 222.578 135.906 222.613 135.976 222.656C136.11 222.751 136.22 222.876 136.299 223.02C136.378 223.164 136.423 223.325 136.431 223.489C136.431 223.489 136.431 223.489 136.431 223.489C135.032 224.174 133.557 225.688 132.359 227.762C130.92 230.256 129.986 233.009 129.612 235.864C129.238 238.719 129.431 241.619 130.179 244.399Z" fill="#121A26"/>
<path d="M138.917 233.362C139.238 230.411 140.072 227.427 141.652 225.218C141.997 224.739 142.634 224.126 143.214 224.208C143.269 224.212 143.324 224.222 143.377 224.236C143.706 224.343 144.009 224.516 144.268 224.744C142.539 225.994 141.125 229.386 140.67 233.544C140.191 237.798 140.761 243.47 143.597 246.814C143.597 246.814 143.449 247.676 142.888 247.676C142.608 247.634 142.342 247.525 142.112 247.358C141.883 247.191 141.697 246.972 141.571 246.718C139.027 242.934 138.452 237.583 138.917 233.362Z" fill="#121A26"/>
<path d="M149.331 230.885C149.47 228.941 149.885 227.027 150.563 225.199C150.879 224.399 151.947 223.647 152.479 224.073C152.61 224.212 152.712 224.375 152.781 224.552C152.11 225.697 151.291 227.963 151.07 231.034C150.85 234.105 151.109 241.247 157.475 245.482C157.475 245.482 157.518 246.177 157.13 246.44C156.742 246.703 155.775 246.291 155.286 245.908C149.212 241.142 149.101 234.071 149.331 230.885Z" fill="#121A26"/>
<path d="M5.36868 253.214C5.36868 253.133 5.40707 253.051 5.42622 252.97L9.01907 235.566L9.11965 235.087C11.8933 222.986 36.3247 217.779 63.8938 223.465C91.3096 229.099 111.607 243.365 109.7 255.528L109.509 256.486L106.026 273.435C106 273.594 105.972 273.754 105.94 273.914C103.42 286.177 78.864 291.495 51.0937 285.789C23.3234 280.084 2.8489 265.478 5.36868 253.214Z" fill="#2C5777"/>
<path d="M43.3379 238.459L44.5595 238.608C45.1343 238.68 45.714 238.737 46.2937 238.799C46.3607 238.799 47.9416 238.977 47.9895 238.967C50.9931 239.365 53.9967 239.925 56.9812 240.428C63.1769 241.514 69.3246 242.812 75.4245 244.323C81.4317 245.798 87.3654 247.531 93.2258 249.52C96.1415 250.523 99.0381 251.587 101.916 252.711C103.279 253.251 104.638 253.806 105.992 254.378C106.562 254.617 106.534 254.603 105.906 254.344L106.716 254.694C107.52 255.053 108.33 255.408 109.111 255.772C109.245 255.834 109.374 255.882 109.504 255.935L106.629 269.894C106.629 270.052 106.582 270.21 106.548 270.373C104.028 282.642 79.4724 287.954 51.6973 282.249C50.8638 282.076 50.0301 281.899 49.211 281.712C47.0791 281.231 45.0662 280.325 43.2924 279.049C41.5185 277.772 40.0203 276.151 38.8872 274.282C37.754 272.413 37.0093 270.335 36.6974 268.172C36.3855 266.009 36.513 263.806 37.072 261.693L37.1151 261.54C39.1989 253.86 41.4169 246.186 43.3379 238.459Z" fill="#346F93"/>
<path d="M54.768 267.863C27.1797 262.191 6.80109 247.782 8.99991 235.566L9.10049 235.087C11.8933 222.986 36.3247 217.779 63.8938 223.465C91.3096 229.099 111.607 243.365 109.7 255.528L109.509 256.486C106.462 268.385 82.1837 273.497 54.768 267.863Z" fill="#468AAD"/>
<path d="M11.6682 236.088L11.7544 235.671C12.5927 232.117 15.9988 229.132 21.6036 227.015C27.0647 224.96 34.2168 223.872 42.284 223.872C49.3672 223.906 56.4289 224.654 63.362 226.105C76.2531 228.754 87.9323 233.424 96.2485 239.254C103.798 244.524 107.746 250.273 107.046 255.01V255.053L106.888 255.825V255.863C105.964 259.336 102.519 262.268 96.9288 264.342C91.482 266.368 84.3873 267.437 76.4112 267.437C69.3277 267.404 62.2657 266.654 55.3332 265.2C42.3558 262.536 30.624 257.827 22.279 251.949C14.7101 246.603 10.8394 240.821 11.6682 236.088Z" fill="#121A26"/>
<path d="M11.6683 236.088L11.7545 235.671L15.5868 217.026L15.673 216.605C16.5114 213.05 19.9174 210.066 25.5222 207.953C30.9834 205.893 38.1356 204.806 46.2027 204.806C53.2862 204.839 60.3482 205.588 67.2808 207.043C80.1719 209.692 91.851 214.358 100.167 220.188C107.717 225.482 111.664 231.206 110.965 235.949V235.987L110.807 236.758L107.065 254.996V255.039L106.907 255.81V255.848C105.983 259.321 102.538 262.253 96.948 264.327C91.5013 266.354 84.4066 267.422 76.4305 267.422C69.347 267.389 62.285 266.64 55.3524 265.185C42.3751 262.521 30.6433 257.812 22.2983 251.935C14.7102 246.603 10.8395 240.821 11.6683 236.088Z" fill="#121A26"/>
<path d="M79.4912 257.693C73.4139 256.128 70.0366 248.843 71.9479 241.42C73.8592 233.998 80.3352 229.249 86.4126 230.814C92.4899 232.379 95.8672 239.665 93.9559 247.087C92.0446 254.51 85.5685 259.258 79.4912 257.693Z" fill="#1F4060"/>
<path d="M80.8174 258.469C74.74 256.904 71.3628 249.619 73.2741 242.196C75.1854 234.774 81.6614 230.025 87.7388 231.59C93.8161 233.155 97.1933 240.441 95.282 247.863C93.3708 255.286 86.8947 260.034 80.8174 258.469Z" fill="#346F93"/>
<path d="M94.1504 242.775C94.0616 242.79 93.9708 242.786 93.8834 242.765C93.796 242.743 93.7137 242.705 93.6414 242.651C93.5691 242.598 93.5084 242.53 93.4625 242.453C93.4166 242.376 93.3867 242.29 93.3744 242.201C93.2323 241.04 92.909 239.908 92.4163 238.847C91.3002 236.452 89.4319 234.79 87.1468 234.205C86.5524 234.051 85.9406 233.974 85.3264 233.975C83.6575 234.001 82.0336 234.521 80.6605 235.47C80.5211 235.562 80.3521 235.599 80.187 235.572C80.0219 235.546 79.8728 235.458 79.7695 235.326C79.7157 235.253 79.6772 235.17 79.6563 235.082C79.6353 234.994 79.6324 234.902 79.6476 234.813C79.6628 234.723 79.6959 234.638 79.7448 234.561C79.7937 234.485 79.8575 234.419 79.9324 234.368C81.0189 233.605 82.2554 233.083 83.5596 232.835C84.8638 232.587 86.2059 232.62 87.4965 232.931C90.1792 233.621 92.3684 235.537 93.657 238.32C94.2011 239.502 94.5598 240.761 94.7205 242.052C94.7453 242.227 94.7006 242.405 94.5958 242.547C94.491 242.69 94.3345 242.785 94.16 242.814L94.1504 242.775Z" fill="#468AAD"/>
<path d="M77.1013 249.568C77.2295 249.537 77.3647 249.553 77.4818 249.614C77.5989 249.675 77.69 249.776 77.7384 249.899C78.5671 252.007 80.1337 253.607 82.2175 254.143C82.9478 254.33 83.7068 254.377 84.4546 254.282C84.5358 254.27 84.6187 254.277 84.6969 254.302C84.7752 254.326 84.8469 254.368 84.9068 254.424C84.9666 254.48 85.013 254.549 85.0425 254.626C85.0721 254.702 85.084 254.785 85.0774 254.866C85.0623 254.988 85.007 255.102 84.9202 255.188C84.8334 255.275 84.7201 255.33 84.5983 255.346C84.3013 255.384 84.002 255.403 83.7025 255.403C83.1127 255.403 82.5253 255.329 81.954 255.183C79.5252 254.555 77.6857 252.692 76.7277 250.258C76.6995 250.186 76.6869 250.109 76.6908 250.032C76.6948 249.955 76.7151 249.88 76.7505 249.812C76.7858 249.743 76.8355 249.683 76.896 249.635C76.9564 249.588 77.0265 249.553 77.1013 249.535V249.568Z" fill="#468AAD"/>
<path d="M82.7324 253.299C79.0884 252.465 76.9609 248.18 77.9803 243.728C78.9998 239.277 82.7802 236.345 86.4243 237.18C90.0683 238.014 92.1958 242.299 91.1764 246.751C90.1569 251.202 86.3765 254.134 82.7324 253.299Z" fill="#121A26"/>
<path d="M82.8346 251.919C79.755 251.126 78.0435 247.435 79.012 243.673C79.9805 239.912 83.2623 237.506 86.3419 238.299C89.4216 239.092 91.133 242.784 90.1645 246.545C89.196 250.306 85.9143 252.713 82.8346 251.919Z" fill="#43E0BB"/>
<path d="M88.7516 246.522C88.7151 246.644 88.6378 246.751 88.5325 246.823C88.4272 246.896 88.3002 246.93 88.1727 246.921C88.0451 246.911 87.9247 246.858 87.8313 246.771C87.7379 246.684 87.6772 246.567 87.6594 246.44C87.5444 245.564 87.4918 244.524 87.3912 244.112C87.2591 243.538 86.9619 243.015 86.5364 242.607C86.1108 242.199 85.5754 241.925 84.9959 241.817C84.1816 241.616 83.3193 241.631 83.3193 241.022C83.3193 240.414 85.1924 240.146 86.1936 240.399C88.3445 240.95 89.5468 243.528 88.8666 246.148C88.8282 246.282 88.7899 246.402 88.7516 246.522Z" fill="#BCF8EA"/>
<path d="M82.8739 248.284C83.4919 248.859 84.1865 248.979 84.4356 249.242C84.8141 249.621 84.4356 249.942 83.9566 249.99C82.6057 250.129 81.1781 248.524 80.953 247.115C80.8524 246.363 81.2117 245.899 81.6477 246.157C82.0836 246.416 82.0787 247.542 82.8739 248.284Z" fill="#BCF8EA"/>
<path d="M12.9569 216.318L13.0623 215.8L20.5163 179.575L20.8038 178.181C20.8038 178.076 20.8516 177.97 20.8804 177.865C20.992 177.5 21.1232 177.142 21.2732 176.792C25.9247 165.98 49.259 161.529 75.4772 166.938C101.801 172.346 121.561 185.716 121.403 197.544C121.399 198.025 121.361 198.505 121.288 198.981L121.317 199.005L113.652 236.28L113.461 237.238C112.747 240.026 110.874 242.44 108.076 244.423L108.024 244.457C107.421 244.853 106.727 245.089 106.008 245.141C105.289 245.194 104.568 245.062 103.915 244.757C103.261 244.453 102.696 243.987 102.273 243.403C101.85 242.818 101.584 242.136 101.499 241.42C101.499 241.195 101.446 240.974 101.413 240.754C100.273 232.639 95.0941 226.081 87.9132 224.912C71.8508 222.306 65.6711 240.284 64.6651 242.502C62.9501 246.282 58.1166 248.811 48.9141 246.172C33.4984 241.75 21.4648 234.311 15.9893 226.747C13.4743 223.23 12.3725 219.69 12.9569 216.318Z" fill="#2C5777"/>
<path d="M75.4769 166.938C102.893 172.571 123.19 186.842 121.283 199.005L121.092 199.963C118.045 211.891 93.786 217.003 66.3511 211.369C38.8107 205.712 18.4466 191.335 20.5736 179.139L20.698 178.526C23.5627 166.459 47.9366 161.256 75.4769 166.938Z" fill="#468AAD"/>
<path d="M22.3124 179.393L22.3986 178.971V178.914C23.3136 175.048 26.9256 171.824 32.8371 169.591C38.4036 167.493 45.6707 166.387 53.8528 166.387C60.9956 166.42 68.1167 167.175 75.108 168.638C88.1237 171.316 99.9275 176.039 108.349 181.941C116.201 187.446 120.282 193.52 119.54 198.612V198.646V198.694L119.377 199.479V199.513V199.561C118.361 203.359 114.716 206.516 108.838 208.706C103.286 210.765 96.0759 211.858 87.9896 211.858C80.8467 211.822 73.7255 211.066 66.7343 209.601C53.6324 206.909 41.7761 202.147 33.3449 196.188C25.431 190.631 21.4214 184.504 22.3124 179.393Z" fill="#121A26"/>
<path d="M53.7953 213.439C55.448 204.615 57.1487 195.8 59.1894 187.053C60.9331 179.556 63.2182 172.202 65.1057 164.749C67.5648 165.087 70.0573 165.517 72.5835 166.037C98.9071 171.446 118.663 184.816 118.51 196.639C118.503 197.12 118.465 197.6 118.395 198.076C118.395 198.076 118.395 198.076 118.395 198.1L110.73 235.374L110.538 236.332C109.834 239.072 108.009 241.458 105.269 243.432L105.7 243.523C106.447 243.676 106.514 244.912 105.733 245.07C104.879 245.163 104.015 245.084 103.193 244.837C102.37 244.59 101.605 244.181 100.943 243.633C99.9409 242.724 99.3298 241.462 99.2377 240.112C98.0975 231.997 92.1909 224.95 84.9765 224.021C69.7045 222.047 63.6877 239.829 62.6817 242.033C61.0529 245.626 55.7451 247.7 47.3522 245.635C49.8768 234.962 51.7833 224.16 53.7953 213.439Z" fill="#1F4060"/>
<path d="M12.9569 216.318L13.0623 215.8L20.5163 179.575L20.8038 178.181C20.8038 178.076 20.8516 177.97 20.8804 177.865C20.992 177.5 21.1232 177.142 21.2732 176.792C25.9247 165.98 49.259 161.529 75.4772 166.938C101.801 172.346 121.561 185.716 121.403 197.544C121.399 198.025 121.361 198.505 121.288 198.981L121.317 199.005L113.652 236.28L113.461 237.238C112.747 240.026 110.874 242.44 108.076 244.423L108.024 244.457C107.421 244.853 106.727 245.089 106.008 245.141C105.289 245.194 104.568 245.062 103.915 244.757C103.261 244.453 102.696 243.987 102.273 243.403C101.85 242.818 101.584 242.136 101.499 241.42C101.499 241.195 101.446 240.974 101.413 240.754C100.273 232.639 95.0989 226.052 87.9132 224.912C71.9274 222.382 65.6711 240.284 64.6651 242.502C62.9501 246.282 58.1166 248.811 48.9141 246.172C33.4984 241.75 21.4648 234.311 15.9893 226.747C13.4743 223.23 12.3725 219.69 12.9569 216.318Z" fill="#2C5777"/>
<path d="M42.3128 222.148C43.3523 216.902 44.3823 211.815 47.0219 209.17C52.0518 204.14 61.1537 206.684 62.1118 206.229C62.1357 206.229 52.6363 201.391 52.7896 201.323C53.0866 201.204 53.5992 200.988 53.7189 200.945C57.6279 199.403 61.5753 197.884 65.719 197.113C65.834 197.089 67.6351 196.835 67.3142 196.859L67.9657 196.782C69.1011 196.662 70.2411 196.562 71.3765 196.471C73.5178 196.303 75.6544 196.179 77.791 195.992C82.361 195.589 86.8928 195.091 91.4964 194.967C96.1305 194.832 100.769 194.957 105.389 195.34C109.699 195.651 113.977 196.305 118.184 197.295C119.242 197.528 120.332 197.584 121.408 197.462V197.505C121.404 197.987 121.365 198.467 121.293 198.943L121.322 198.967L113.657 236.241L113.465 237.199C112.752 239.987 110.879 242.402 108.081 244.385L108.028 244.418C107.426 244.815 106.732 245.05 106.013 245.103C105.294 245.155 104.573 245.023 103.919 244.719C103.266 244.415 102.7 243.948 102.278 243.364C101.855 242.78 101.588 242.097 101.504 241.381C101.504 241.156 101.451 240.936 101.417 240.715C100.277 232.6 95.1036 226.014 87.9179 224.873C71.9322 222.344 65.6758 240.246 64.6698 242.464C62.9548 246.244 58.1788 248.562 48.9189 246.133C36.1427 242.785 40.9858 228.854 42.3128 222.148Z" fill="#346F93"/>
<path d="M75.4769 166.938C102.893 172.571 123.19 186.842 121.283 199.005L121.092 199.963C118.045 211.891 93.786 217.003 66.3511 211.369C38.8107 205.712 18.4466 191.335 20.5736 179.139L20.698 178.526C23.5627 166.459 47.9366 161.256 75.4769 166.938Z" fill="#468AAD"/>
<path d="M22.3124 179.393L22.3986 178.971V178.914C23.3136 175.048 26.9256 171.824 32.8371 169.591C38.4036 167.493 45.6707 166.387 53.8528 166.387C60.9956 166.42 68.1167 167.175 75.108 168.638C88.1237 171.316 99.9275 176.039 108.349 181.941C116.201 187.446 120.282 193.52 119.54 198.612V198.646V198.694L119.377 199.479V199.513V199.561C118.361 203.359 114.716 206.516 108.838 208.706C103.286 210.765 96.0759 211.858 87.9896 211.858C80.8467 211.822 73.7255 211.066 66.7343 209.601C53.6324 206.909 41.7761 202.147 33.3449 196.188C25.431 190.631 21.4214 184.504 22.3124 179.393Z" fill="#121A26"/>
<path d="M30.6002 228.059C25.1845 228.059 20.7941 222.356 20.7941 215.321C20.7941 208.286 25.1845 202.583 30.6002 202.583C36.0159 202.583 40.4064 208.286 40.4064 215.321C40.4064 222.356 36.0159 228.059 30.6002 228.059Z" fill="#121A26"/>
<path d="M21.4119 175.158L21.5363 174.55L23.2993 165.98C24.6002 159.455 27.2174 153.264 30.991 147.785C34.7645 142.306 39.6152 137.654 45.247 134.112C50.8788 130.57 57.1734 128.213 63.7464 127.186C70.3194 126.158 77.033 126.481 83.477 128.135C100.421 132.37 113.686 144.787 119.999 160.188C120.162 160.568 120.263 160.973 120.297 161.386C120.44 163.584 118.965 165.218 117.758 166.09C118.807 170.056 119.465 174.115 119.722 178.21C119.722 178.21 124.148 181.395 123.645 186.832C123.477 188.198 123.257 189.563 122.974 190.933L122.122 195.067L121.93 196.025C118.883 207.954 94.6244 213.065 67.1894 207.431C39.6491 201.731 19.2945 187.359 21.4119 175.158Z" fill="#2C5777"/>
<path d="M57.4938 150.693C61.4172 146.085 68.301 141.112 73.513 142.027C78.0735 142.813 83.7072 143.584 89.2641 142.071C92.4019 141.218 90.8593 133.927 92.2054 131.206C106.026 136.892 115.736 149.783 119.99 160.178C120.154 160.561 120.254 160.967 120.287 161.381C120.431 163.575 118.955 165.213 117.748 166.08C118.798 170.046 119.456 174.106 119.712 178.2C119.712 178.2 124.139 181.386 123.636 186.823C123.468 188.188 122.108 193.76 122.108 193.76C119.066 205.693 94.7492 210.962 67.3717 205.166C50.9261 201.683 45.8721 192.984 45.8721 181.333C45.8817 176.203 49.259 160.351 57.4938 150.693Z" fill="#346F93"/>
<path d="M74.8783 185.022C74.8783 192.025 78.749 199.393 94.6294 199.393C111.022 199.393 123.516 193.587 123.688 185.649C123.861 177.711 114.261 173.275 98.3852 172.931C82.5096 172.586 74.8879 177.079 74.8783 185.022Z" fill="#468AAD"/>
<path d="M76.3012 178.804L76.3539 178.693C77.7597 175.873 79.9708 173.533 82.7073 171.97C85.4439 170.407 88.5827 169.691 91.7264 169.913C101.221 170.545 109.24 169.822 114.323 167.896C116.584 167.038 118.266 165.941 119.238 164.624L121.681 184.02C121.518 185.739 120.937 187.391 119.99 188.834C119.042 190.277 117.756 191.466 116.244 192.298C109.571 195.939 99.6547 197.851 87.7408 196.294C77.5228 194.962 72.2102 187.216 76.2437 178.962L76.3012 178.804Z" fill="#121A26"/>
<path d="M-18.4539 223.101C-18.1474 222.622 -18.7366 222.622 -18.794 222.095C-18.794 221.961 -18.9904 221.645 -18.976 221.506C-18.6298 216.929 -17.2102 212.498 -14.8323 208.572C-14.3889 208.122 -13.8383 207.792 -13.2323 207.614C-12.8874 207.537 -13.2323 207.091 -13.1269 206.766C-13.0838 206.617 -13.2419 206.459 -13.1796 206.32C-10.305 202.631 -6.50294 199.771 -2.16159 198.033C-1.547 197.819 -0.892216 197.745 -0.245407 197.817C0.0851364 197.918 0.28632 197.439 0.578541 197.175L0.703094 197.113C0.995316 196.988 0.607376 197.051 0.913963 196.921C4.63967 195.941 8.50112 195.58 12.3439 195.853C13.0152 195.892 13.6637 196.11 14.2219 196.485C14.4901 196.691 14.9883 196.318 15.3236 196.294C19.1143 197.018 22.7594 198.363 26.1117 200.275C26.4998 200.545 26.8263 200.894 27.0698 201.3C27.367 201.462 27.6919 201.568 28.0279 201.611C28.2615 201.666 28.487 201.752 28.6986 201.865C31.4217 202.981 33.7395 204.901 35.3429 207.369C36.8443 209.647 37.6095 212.332 37.535 215.059C37.4605 217.786 36.5498 220.425 34.9262 222.617C31.9513 226.847 26.4039 226.1 21.9105 221.683C21.3643 221.204 21.877 220.591 21.8674 220.596L21.5847 220.663C20.9907 220.739 20.3679 220.318 19.8793 219.978C18.4134 218.938 16.526 217.894 15.1176 216.893C14.8542 216.668 14.6386 216.27 14.5524 216.332C14.1949 216.618 13.7444 216.761 13.2876 216.735C11.3696 216.303 9.42275 216.012 7.46248 215.863C7.34751 215.81 6.98341 215.547 6.95467 215.685C6.80684 216.117 6.49778 216.474 6.09236 216.682C5.48397 216.965 3.95582 217.884 2.97857 218.143C2.86838 218.172 2.81094 218.033 2.7822 218.143C2.81439 218.264 2.83835 218.387 2.85401 218.512C2.83905 218.754 2.75966 218.987 2.62407 219.187C1.99816 220.064 1.56102 221.06 1.34026 222.114C1.23008 222.315 0.98098 221.99 0.861217 222.114C0.736668 222.138 0.995415 222.684 1.04811 222.823C1.2953 223.082 1.437 223.424 1.44564 223.781C1.5032 224.956 1.72913 226.116 2.11637 227.226C2.11637 227.652 1.90071 227.365 2.01568 227.748C2.15939 228.227 1.66124 227.848 2.07801 228.074C2.45362 228.241 2.79483 228.476 3.08406 228.768C3.68765 229.372 5.32596 231.235 6.04932 231.896C6.15428 231.989 6.23767 232.103 6.29364 232.232C6.41268 232.401 6.54389 232.561 6.68637 232.711C6.7178 232.777 6.7581 232.838 6.80614 232.893C7.29047 232.97 7.76152 233.115 8.20503 233.324C9.38511 234.036 10.6259 234.642 11.9128 235.135L11.8409 235.111C11.8409 235.111 19.7309 236.548 15.9703 246.378C11.6589 257.554 5.2828 254.392 5.2828 254.392C2.14598 253.248 -0.845989 251.739 -3.63218 249.899C-4.06332 249.597 -4.3125 248.582 -4.3125 248.582C-4.42097 248.589 -4.52975 248.589 -4.63822 248.582C-4.73679 248.543 -4.84618 248.543 -4.94476 248.582C-5.24656 248.558 -5.52922 248.773 -5.81186 248.653C-6.20467 248.356 -12.5186 242.134 -14.2623 239.451C-14.4546 239.081 -14.5154 238.657 -14.4347 238.249C-14.4347 238.119 -14.8658 238.114 -15.0239 237.975C-15.182 237.837 -15.479 237.779 -15.6035 237.611C-17.6472 233.766 -18.7936 229.508 -18.9568 225.156C-18.9585 224.441 -18.786 223.735 -18.4539 223.101Z" fill="#2C5777"/>
<path d="M-9.15068 205.941C-7.44205 202.221 -4.36345 199.304 -0.556629 197.798C-0.461536 197.799 -0.366817 197.811 -0.273949 197.831C0.0565948 197.932 0.257778 197.453 0.549995 197.189L0.674553 197.127C0.96677 197.002 0.578716 197.065 0.885303 196.935C4.61101 195.955 8.47246 195.594 12.3153 195.867C12.9865 195.906 13.635 196.125 14.1932 196.499C14.4615 196.705 14.9597 196.332 15.295 196.308C19.0857 197.032 22.7309 198.377 26.0832 200.289C26.4712 200.559 26.7978 200.908 27.0413 201.314C27.3384 201.476 27.6634 201.582 27.9993 201.625C28.233 201.68 28.4584 201.766 28.67 201.879C31.393 202.995 33.7109 204.916 35.3143 207.383L35.3382 207.422C35.5995 207.833 35.7108 208.321 35.6532 208.805C35.5956 209.289 35.3726 209.737 35.0221 210.076C34.6716 210.414 34.215 210.62 33.7296 210.661C33.2443 210.701 32.7599 210.572 32.3586 210.296C29.2212 208.029 25.8046 206.176 22.1933 204.782C16.0279 202.564 9.93447 202.329 4.10927 204.523C-1.36143 206.579 -5.51 212.744 -4.31239 220.27C-3.48364 225.496 0.526009 232.931 11.1752 237.578C11.6955 237.814 12.1794 238.124 12.6123 238.497C11.8993 238.881 11.2628 239.393 10.7345 240.006C9.71294 241.188 8.84824 242.497 8.16198 243.901C7.54392 243.203 6.80362 242.623 5.9775 242.191C-5.99864 236.442 -11.2106 227.455 -11.8142 221.64C-12.5376 214.761 -11.5507 210.909 -9.15068 205.941Z" fill="#468AAD"/>
<path d="M2.83026 216.28C3.68717 214.558 5.05821 213.145 6.75362 212.236C11.5441 209.678 18.5286 211.278 23.3957 213.616C25.1023 214.452 26.731 215.438 28.2627 216.562C29.0092 217.107 29.8738 217.468 30.7861 217.615C31.6985 217.762 32.6328 217.692 33.5127 217.409C34.3926 217.126 35.1932 216.64 35.8493 215.989C36.5054 215.338 36.9984 214.542 37.288 213.664C37.3384 213.507 37.3784 213.347 37.4078 213.185C37.7479 215.901 37.3024 219.207 34.888 222.641C31.9131 226.871 26.3658 226.124 21.8723 221.707C21.8208 221.661 21.7757 221.607 21.7382 221.549C21.7243 221.533 21.7129 221.516 21.7046 221.496C21.6826 221.461 21.6664 221.422 21.6567 221.381C21.6284 221.25 21.6292 221.113 21.659 220.982C21.6888 220.85 21.7469 220.727 21.8292 220.62L21.5465 220.687C20.9525 220.763 20.3298 220.342 19.8412 220.002C18.3753 218.962 16.4878 217.918 15.0794 216.917C14.8159 216.692 14.6004 216.294 14.5141 216.356C14.1567 216.642 13.7063 216.785 13.2495 216.759C11.3314 216.327 9.3845 216.036 7.42423 215.887C7.30926 215.834 6.94528 215.571 6.91653 215.709C6.76871 216.141 6.45965 216.498 6.05423 216.706C5.07579 217.257 4.05917 217.737 3.01224 218.143C3.02428 217.972 3.02428 217.801 3.01224 217.63C3.01224 217.362 2.95957 217.108 2.91645 216.854C2.90205 216.661 2.87326 216.469 2.83026 216.28Z" fill="#1F4060"/>
<path d="M-18.4539 223.101C-18.411 223.044 -18.3844 222.976 -18.3772 222.905C-17.0071 229.932 -14.3437 234.689 -8.83465 240.203C-4.55677 244.476 0.430129 247.686 6.64814 249.305C6.4275 250.917 6.59166 252.559 7.12719 254.095C7.21342 254.306 7.29967 254.517 7.39069 254.718C6.66494 254.711 5.94274 254.616 5.23978 254.435C2.10296 253.291 -0.889129 251.782 -3.67532 249.942C-4.10646 249.64 -4.35552 248.625 -4.35552 248.625C-4.46399 248.632 -4.57289 248.632 -4.68136 248.625C-4.77993 248.586 -4.88932 248.586 -4.9879 248.625C-5.2897 248.601 -5.57236 248.816 -5.855 248.696C-6.24782 248.399 -12.5616 242.177 -14.3053 239.494C-14.4977 239.124 -14.5585 238.7 -14.4778 238.292C-14.4778 238.162 -14.909 238.157 -15.067 238.019C-15.2251 237.88 -15.5221 237.822 -15.6467 237.654C-17.6903 233.809 -18.8368 229.551 -19 225.199C-18.9955 224.465 -18.8078 223.744 -18.4539 223.101Z" fill="#1F4060"/>
<path d="M45.4271 288.136C45.5372 287.356 44.3876 287.001 44.3876 287.001C34.7976 286.949 25.3224 284.91 16.5598 281.013C16.4066 281.008 16.2575 281.062 16.1439 281.165C16.0303 281.268 15.9612 281.411 15.9514 281.564C15.913 282.321 16.9094 283.423 19.022 284.266C26.5131 287.289 34.4952 288.913 42.572 289.056C43.5396 289.056 45.336 288.932 45.4271 288.136Z" fill="#121A26"/>
<path d="M28.0615 214.081C29.2735 209.645 28.8087 204.164 27.0506 201.324C27.3765 201.355 27.6978 201.423 28.0087 201.525C28.4307 201.715 28.8049 201.997 29.1041 202.35C29.4033 202.703 29.6199 203.118 29.7381 203.566C30.5429 206.44 31.1081 210.536 29.9201 214.306C28.8423 217.717 26.2411 220.888 23.477 221.492C21.5608 221.913 21.3788 221.41 21.6423 220.629C21.6854 220.51 26.4088 220.112 28.0615 214.081Z" fill="#121A26"/>
<path d="M17.6852 208.687C18.2313 203.714 17.1199 198.315 14.0636 196.423C14.0921 196.428 14.1212 196.428 14.1498 196.423C14.7458 196.251 15.3814 196.277 15.9616 196.496C16.5418 196.716 17.0355 197.117 17.3689 197.64C19.2228 200.567 19.7642 204.878 19.2851 208.878C18.8731 212.677 17.6132 214.905 16.2767 216.294C15.5629 217.036 14.921 217.171 14.5043 216.39C16.0324 215.322 17.278 212.409 17.6852 208.687Z" fill="#121A26"/>
<path d="M0.645648 197.017C0.935424 196.912 1.24474 196.871 1.55181 196.898C1.85889 196.926 2.15624 197.02 2.42289 197.175C3.23612 197.649 3.98751 198.222 4.66 198.88C6.19773 200.37 11.4433 205.961 8.49236 214.832C8.21931 215.647 7.70675 216.131 6.95464 215.757C6.91632 215.757 6.89243 215.724 6.89722 215.709C9.34993 206.607 4.95226 201.448 3.50554 200.049C2.19295 198.78 0.683986 197.96 -0.53758 197.802C-0.222848 197.437 0.186538 197.165 0.645648 197.017Z" fill="#121A26"/>
<path d="M-13.3906 206.699C-13.2715 206.442 -13.087 206.222 -12.8558 206.06C-12.6245 205.898 -12.3546 205.799 -12.0732 205.774C-11.0957 205.697 -10.1121 205.757 -9.15101 205.951C-5.92127 206.646 -2.92212 208.153 -0.437196 210.33C1.63228 212.117 3.02633 213.956 3.53891 216.107C3.77843 217.113 3.74968 217.932 2.93051 218.181C2.81554 218.215 2.73882 218.224 2.73403 218.181C1.93402 213.985 -3.04803 208.763 -9.45767 207.542C-10.7051 207.267 -12.0006 207.3 -13.2325 207.637C-13.331 207.505 -13.3967 207.35 -13.4242 207.187C-13.4517 207.024 -13.4402 206.856 -13.3906 206.699Z" fill="#121A26"/>
<path d="M-18.9663 221.98C-19.0055 221.715 -18.9773 221.445 -18.8844 221.193C-18.7914 220.942 -18.6368 220.719 -18.4347 220.543C-17.0502 219.273 -15.0813 218.363 -12.552 217.841C-8.24056 216.955 -2.94708 217.52 0.406239 219.968C0.825815 220.281 1.12453 220.73 1.25194 221.238C1.37935 221.746 1.32764 222.282 1.10563 222.756C1.06251 222.852 1.03383 222.919 1.04341 222.933C-1.26559 219.499 -7.39747 218.44 -12.2215 219.436C-15.2874 220.069 -17.491 221.391 -18.4491 223.106C-18.6881 222.765 -18.8633 222.383 -18.9663 221.98Z" fill="#121A26"/>
<path d="M-9.05981 227.844C-5.93644 226.014 -2.61664 225.405 0.286374 226.129C1.13428 226.34 2.05405 226.804 2.20256 227.724C2.24223 227.883 2.23216 228.05 2.17379 228.203C-0.700489 226.766 -4.71011 227.173 -8.25026 229.247C-11.9677 231.427 -14.2478 234.847 -14.5209 238.541C-14.7327 238.532 -14.9386 238.468 -15.1189 238.357C-15.2992 238.245 -15.448 238.089 -15.5509 237.904C-15.7055 237.643 -15.804 237.353 -15.8403 237.052C-15.8765 236.751 -15.8498 236.445 -15.7617 236.155C-14.8371 232.831 -12.4898 229.856 -9.05981 227.844Z" fill="#121A26"/>
<path d="M-3.62243 237.19C-1.98889 234.713 0.530892 232.399 3.56325 231.566C4.11836 231.395 4.71346 231.407 5.26108 231.601C5.8087 231.794 6.27983 232.158 6.60512 232.639C6.66916 232.738 6.72221 232.844 6.76324 232.955C4.63628 232.715 0.971549 233.204 -2.25243 238.09C-4.64766 241.693 -5.27516 245.319 -4.35539 248.629C-4.35539 248.629 -4.33144 248.601 -4.35539 248.629C-4.54222 248.859 -5.79259 249.31 -6.10398 248.299C-7.01416 244.84 -5.78293 240.462 -3.62243 237.19Z" fill="#121A26"/>
<path d="M158.384 233.477C157.031 228.944 157.969 224.662 160.479 223.913C162.988 223.164 166.12 226.231 167.473 230.764C168.826 235.297 167.888 239.579 165.378 240.328C162.869 241.077 159.737 238.01 158.384 233.477Z" fill="#121A26"/>
<path d="M6.56021 252.494C4.29308 251.459 3.97225 247.297 5.84356 243.198C7.71487 239.1 11.0697 236.616 13.3368 237.651C15.604 238.686 15.9249 242.848 14.0536 246.947C12.1823 251.046 8.82733 253.529 6.56021 252.494Z" fill="#121A26"/>
<path d="M78.402 141.553C69.9302 139.812 63.6093 135.739 64.2839 132.456C64.9585 129.172 72.3732 127.921 80.845 129.662C89.3168 131.403 95.6378 135.475 94.9632 138.759C94.2886 142.042 86.8739 143.293 78.402 141.553Z" fill="#121A26"/>
<path d="M65.1825 131.967C64.5598 135.005 70.5335 138.799 78.524 140.442C86.5145 142.085 93.5037 140.954 94.1264 137.917C94.2749 137.203 94.4091 134.085 93.8869 133.333C92.1863 130.861 86.9025 130.703 80.7851 129.448C74.6677 128.192 69.6425 126.363 67.1083 127.963C66.3275 128.446 65.3262 131.249 65.1825 131.967Z" fill="#1F4060"/>
<path d="M80.5025 136.456C80.2965 137.865 80.0905 139.273 79.8989 140.686C79.4438 140.609 78.9888 140.523 78.5241 140.432C77.9588 140.312 77.4031 140.183 76.8522 140.049C77.2498 138.732 77.5804 137.381 77.8965 136.03C78.7588 136.207 79.6306 136.351 80.5025 136.456Z" fill="#2C5777"/>
<path d="M71.444 133.601C72.648 134.328 73.9346 134.909 75.2764 135.33C74.8404 136.619 74.4188 137.912 74.0212 139.206C72.5606 138.716 71.1441 138.104 69.7865 137.376C70.1602 136.518 70.5098 135.651 70.8882 134.847L71.444 133.601Z" fill="#2C5777"/>
<path d="M87.3911 137.017L87.4198 136.681C89.7096 136.514 92.5408 135.723 93.0917 133.213C93.1195 133.083 93.1402 132.952 93.154 132.82C93.1981 132.768 93.2382 132.712 93.2737 132.653C93.5064 132.849 93.7125 133.074 93.8869 133.323C94.4091 134.08 94.2749 137.194 94.1264 137.908C93.7528 139.733 91.0798 140.863 87.2714 141.127C87.3001 140.289 87.3097 139.46 87.3432 138.674C87.3624 138.119 87.372 137.568 87.3911 137.017Z" fill="#2C5777"/>
<path d="M79.2105 137.106C71.6172 135.545 65.942 131.942 66.5346 129.058C67.1272 126.174 73.7632 125.1 81.3565 126.66C88.9498 128.22 94.625 131.823 94.0324 134.708C93.4398 137.592 86.8038 138.666 79.2105 137.106Z" fill="#1F4060"/>
<path d="M66.5382 129.031C66.5623 128.917 66.5959 128.804 66.6388 128.696C69.5131 129.218 80.8808 132.418 83.1419 130.914C83.2942 130.805 83.4113 130.654 83.479 130.48C83.5466 130.306 83.5618 130.115 83.5226 129.933C83.4834 129.75 83.3915 129.582 83.2583 129.451C83.1251 129.32 82.9564 129.23 82.7731 129.194C82.7092 129.161 82.6417 129.135 82.5719 129.117C82.4769 129.04 82.368 128.981 82.251 128.945C79.4102 127.987 76.5407 126.827 73.6281 125.946C76.2222 125.863 78.8168 126.094 81.3551 126.636C88.948 128.193 94.6246 131.795 94.0306 134.679C93.4366 137.563 86.8019 138.641 79.209 137.074C71.6161 135.508 65.9442 131.915 66.5382 129.031Z" fill="#346F93"/>
<path d="M66.5477 128.997C66.5909 130.113 68.4352 131.646 71.1131 133.079C72.7322 133.941 76.5358 135.34 81.5945 136.159C92.6126 137.941 93.997 133.678 93.7862 133.108C94.0458 133.588 94.1337 134.142 94.0353 134.679C93.4461 137.553 86.8066 138.641 79.2137 137.074C71.6208 135.508 65.9441 131.91 66.5382 129.026C66.5397 129.016 66.543 129.006 66.5477 128.997Z" fill="#468AAD"/>
<path d="M80.905 132.108C78.2253 131.557 76.2226 130.285 76.4318 129.267C76.6411 128.248 78.9831 127.869 81.6627 128.419C84.3424 128.97 86.345 130.242 86.1358 131.26C85.9265 132.279 83.5847 132.658 80.905 132.108Z" fill="#121A26"/>
<path d="M77.7768 129.093C77.7888 129.04 77.8081 128.988 77.8342 128.94L82.0402 115.527C82.9121 112.734 87.0702 113.61 86.7253 116.528L85.0726 130.449C85.0776 130.5 85.0776 130.551 85.0726 130.602C84.9146 131.369 83.1565 131.651 81.1445 131.239C79.1325 130.827 77.6187 129.845 77.7768 129.093Z" fill="#2C5777"/>
<path d="M85.1636 129.644C84.0282 130.3 82.2558 130.238 81.5037 129.644C80.3444 128.758 80.6127 127.335 81.0247 125.227C81.6953 121.706 83.2522 114.037 83.2522 114.037C84.7708 113.294 86.9935 114.334 86.7349 116.489L85.1636 129.644Z" fill="#346F93"/>
<path d="M92.9243 188.415C90.8352 188.149 89.4832 185.249 89.9046 181.936C90.3259 178.624 92.3611 176.155 94.4502 176.42C96.5393 176.686 97.8913 179.587 97.47 182.899C97.0486 186.211 95.0135 188.681 92.9243 188.415Z" fill="#43E0BB"/>
<path d="M114.996 184.838C113.461 184.643 112.558 181.799 112.979 178.487C113.4 175.175 114.987 172.648 116.522 172.844C118.057 173.039 118.96 175.882 118.539 179.194C118.118 182.507 116.532 185.033 114.996 184.838Z" fill="#43E0BB"/>
<path d="M84.8187 117.175C84.2949 117.175 83.8702 116.75 83.8702 116.226C83.8702 115.702 84.2949 115.278 84.8187 115.278C85.3426 115.278 85.7672 115.702 85.7672 116.226C85.7672 116.75 85.3426 117.175 84.8187 117.175Z" fill="#468AAD"/>
<path d="M82.9553 127.431C83.2056 127.472 83.4621 127.413 83.6686 127.266C83.8752 127.119 84.0148 126.895 84.0571 126.645L85.0151 119.704C85.1014 119.182 84.929 118.655 84.4931 118.597C84.1386 118.545 83.7553 118.674 83.5876 119.388L82.1505 126.329C82.13 126.454 82.1347 126.582 82.1643 126.706C82.1938 126.829 82.2475 126.946 82.3224 127.048C82.3973 127.151 82.4919 127.237 82.6005 127.303C82.7091 127.369 82.8298 127.412 82.9553 127.431Z" fill="#468AAD"/>
<path d="M50.2873 139.729C49.6075 138.4 50.7481 136.458 52.8348 135.39C54.9215 134.322 57.1642 134.533 57.844 135.862C58.5237 137.19 57.3831 139.132 55.2964 140.2C53.2097 141.268 50.967 141.057 50.2873 139.729Z" fill="#346F93"/>
<path d="M100.01 154.858C97.8953 152.319 97.4912 149.17 99.1073 147.823C100.724 146.477 103.748 147.445 105.863 149.984C107.978 152.523 108.382 155.672 106.766 157.018C105.149 158.365 102.125 157.397 100.01 154.858Z" fill="#468AAD"/>
<path d="M111.626 209.214C112.35 208.964 113.044 208.634 113.695 208.232C114.157 207.925 114.603 207.596 115.032 207.245C115.749 206.837 116.421 206.355 117.039 205.808C117.039 205.88 117.039 205.947 117.039 206.014L111.535 232.74C111.411 233.343 111.053 233.872 110.539 234.21C110.025 234.549 109.397 234.67 108.795 234.546C108.192 234.422 107.663 234.064 107.324 233.55C106.985 233.036 106.865 232.408 106.989 231.806L111.626 209.214Z" fill="#468AAD"/>
<path d="M99.6543 266.196C100.624 265.694 101.532 265.078 102.356 264.361L102.481 264.26C103.391 263.628 104.306 263.024 105.182 262.344L103.046 272.749C102.922 273.352 102.564 273.881 102.05 274.22C101.536 274.558 100.909 274.679 100.306 274.555C99.703 274.431 99.1739 274.073 98.8353 273.559C98.4966 273.045 98.376 272.418 98.4998 271.815L99.6543 266.196Z" fill="#468AAD"/>
<path d="M83.5251 213.405C86.5133 213.56 89.5095 213.399 92.4641 212.926C93.9922 212.835 95.5204 212.706 97.0438 212.509L96.1575 217.501C95.8436 219.21 94.8671 220.727 93.4406 221.72C92.0141 222.713 90.253 223.103 88.5407 222.804C86.8254 222.496 85.3019 221.521 84.3029 220.093C83.3038 218.665 82.9106 216.899 83.209 215.182L83.5251 213.405Z" fill="#468AAD"/>
<path d="M73.8248 269.363C76.6272 269.257 79.444 269.109 82.2465 268.883C83.2294 268.841 84.2095 268.748 85.183 268.606L86.7446 268.428C86.9554 268.428 87.1614 268.366 87.3674 268.333L86.0549 275.753C85.9456 276.639 85.6568 277.494 85.2065 278.265C84.7561 279.036 84.1535 279.708 83.4352 280.238C82.7169 280.769 81.8981 281.148 81.0286 281.352C80.1592 281.556 79.2574 281.58 78.3781 281.424C77.4988 281.268 76.6604 280.935 75.9142 280.444C75.1679 279.954 74.5295 279.316 74.0375 278.571C73.5456 277.826 73.2105 276.988 73.0529 276.109C72.8953 275.23 72.9184 274.328 73.1206 273.458L73.8248 269.363Z" fill="#468AAD"/>
<path d="M60.3444 171.517C61.0832 171.517 61.8016 171.275 62.3905 170.829C62.9793 170.383 63.4064 169.757 63.6067 169.046C65.3124 163.314 68.8558 158.303 73.6906 154.784C74.4485 154.299 74.9826 153.533 75.1753 152.653C75.368 151.774 75.2035 150.855 74.7182 150.097C74.2329 149.339 73.4664 148.805 72.5873 148.612C71.7082 148.42 70.7886 148.584 70.0308 149.069C63.7773 153.465 59.2057 159.858 57.0678 167.196C56.9267 167.701 56.9041 168.231 57.0019 168.746C57.0997 169.26 57.3153 169.745 57.6316 170.163C57.948 170.58 58.3565 170.919 58.8255 171.152C59.2944 171.386 59.8111 171.507 60.3349 171.508L60.3444 171.517Z" fill="#468AAD"/>
<path d="M18.7728 235.753L12.4397 236.232C11.5223 236.304 10.6473 236.647 9.92625 237.219C9.20521 237.791 8.67096 238.564 8.39181 239.441L3.89362 253.549C3.57815 254.545 3.58122 255.614 3.90239 256.607C4.22356 257.601 4.84682 258.469 5.68525 259.092L15.4338 266.316C16.5799 267.165 17.9988 267.563 19.4195 267.432L28.3202 266.598C29.1346 266.523 29.9105 266.216 30.5557 265.713C31.201 265.211 31.6886 264.534 31.9608 263.762L36.7513 250.201C37.2565 248.765 37.2342 247.196 36.6883 245.775C36.1423 244.354 35.1084 243.173 33.7716 242.445L23.156 236.663C21.8153 235.938 20.2915 235.621 18.7728 235.753Z" fill="#1F4060"/>
<path d="M13.5847 236.16L18.4949 235.772C20.1879 235.638 21.8824 236.011 23.3619 236.845L34.4615 243.073C34.618 243.16 34.7421 243.296 34.8158 243.46C34.8894 243.623 34.9086 243.806 34.8705 243.982C34.8324 244.157 34.739 244.315 34.6042 244.434C34.4694 244.552 34.3001 244.624 34.1213 244.639L26.859 245.219C26.1053 245.283 25.3499 245.116 24.6937 244.74L13.1488 238.105C12.9531 237.996 12.7979 237.826 12.7063 237.622C12.6148 237.417 12.5918 237.189 12.6408 236.97C12.6899 236.751 12.8082 236.554 12.9783 236.408C13.1483 236.262 13.3611 236.175 13.5847 236.16Z" fill="#2C5777"/>
<path d="M14.7294 265.109L6.35089 259.034C5.41823 258.359 4.71926 257.409 4.35097 256.318C3.98267 255.227 3.9633 254.048 4.29576 252.946L8.12813 240.27C8.23245 239.941 8.40925 239.64 8.64542 239.388C8.88159 239.136 9.17117 238.941 9.49287 238.816C9.81458 238.691 10.1603 238.639 10.5044 238.666C10.8486 238.692 11.1824 238.795 11.4814 238.967L21.8433 244.879C22.4635 245.23 22.9444 245.784 23.2059 246.447C23.4674 247.111 23.4937 247.844 23.2804 248.524L17.6276 264.218C17.5294 264.495 17.3675 264.746 17.1548 264.951C16.9421 265.155 16.6845 265.306 16.4028 265.393C16.1211 265.479 15.823 265.499 15.5324 265.449C15.2418 265.4 14.9668 265.283 14.7294 265.109Z" fill="#2C5777"/>
<path d="M24.1394 243.541C21.7524 242.665 20.1909 240.937 20.6519 239.68C21.1128 238.423 23.4216 238.114 25.8087 238.989C28.1957 239.864 29.7571 241.593 29.2961 242.85C28.8352 244.107 26.5265 244.416 24.1394 243.541Z" fill="#121A26"/>
<path d="M25.7859 250.263C25.7859 247.695 28.344 246.698 31.774 246.909C33.877 247.034 34.8877 248.107 34.8686 249.822C34.8686 251.455 33.5513 252.955 31.4578 253.175C29.3644 253.396 25.7859 252.643 25.7859 250.263Z" fill="#121A26"/>
<path d="M23.3908 256.332C23.6511 255.452 24.1989 254.685 24.9465 254.153C25.6942 253.62 26.5986 253.354 27.5154 253.396C29.6951 253.396 31.9466 254.354 32.2723 256.026C32.5981 257.698 31.2232 260.079 29.0436 260.079C25.3932 260.079 22.6291 259.801 23.3908 256.332Z" fill="#121A26"/>
<path d="M21.4124 263.542C21.4262 262.61 21.8093 261.722 22.4776 261.073C23.1459 260.423 24.0447 260.066 24.9764 260.079C26.9405 260.079 29.0483 260.845 29.3405 262.345C29.6327 263.844 28.0998 265.813 26.1836 266.258C23.3908 266.905 21.374 265.458 21.4124 263.542Z" fill="#121A26"/>
<path d="M154.529 229.137L154.649 224.088C154.675 223.032 154.948 221.998 155.448 221.067C155.947 220.137 156.658 219.337 157.523 218.732L166.338 213.578C169.284 211.858 171.823 211.451 174.141 213.578L182.285 221.041C184.106 222.709 185.57 224.728 186.588 226.978C187.605 229.227 188.156 231.66 188.206 234.129V234.919C188.268 237.884 185.624 239.896 182.807 240.811L170.457 245.722C168.062 246.512 166.668 245.449 164.881 243.633L156.067 233.865C155.018 232.811 154.496 230.613 154.529 229.137Z" fill="#2C5777"/>
<path d="M170.984 226.977C174.4 229.918 180.01 235.12 183.329 238.071C183.538 238.256 183.696 238.491 183.788 238.753C183.88 239.016 183.904 239.299 183.855 239.573C183.807 239.847 183.69 240.105 183.514 240.321C183.338 240.537 183.109 240.704 182.85 240.807L170.788 245.324C170.068 245.558 169.296 245.58 168.564 245.388C167.832 245.196 167.171 244.798 166.659 244.241L157.71 234.507C157.44 234.215 157.241 233.865 157.127 233.484C157.013 233.103 156.987 232.701 157.053 232.308C157.118 231.916 157.272 231.544 157.503 231.22C157.734 230.896 158.036 230.629 158.385 230.44C161.03 229.003 163.784 227.676 166.146 226.43C166.914 226.023 167.786 225.858 168.65 225.955C169.513 226.053 170.327 226.409 170.984 226.977Z" fill="#1C4A66"/>
<path d="M180.815 241.607C180.775 241.604 180.735 241.604 180.695 241.607C178.625 241.942 177.241 241.702 175.655 240.347C174.688 239.51 173.54 238.909 172.302 238.589C170.999 238.22 170.122 238.038 169.619 236.749C169.202 235.676 169.188 234.502 168.632 233.463C167.478 231.298 164.767 229.31 161.969 228.639L166.156 226.421C166.924 226.013 167.797 225.846 168.662 225.944C169.526 226.041 170.341 226.398 170.999 226.967C174.414 229.908 180.024 235.111 183.344 238.062C183.553 238.246 183.711 238.481 183.803 238.744C183.895 239.007 183.918 239.289 183.87 239.563C183.822 239.838 183.704 240.095 183.528 240.311C183.352 240.527 183.124 240.695 182.865 240.797L180.815 241.607Z" fill="#1F4060"/>
<path d="M174.074 213.511L184.546 224.093C185.168 224.664 185.667 225.354 186.016 226.123C186.364 226.892 186.553 227.723 186.572 228.567L188.24 235.441C188.244 235.826 188.136 236.204 187.927 236.527C187.717 236.851 187.418 237.105 187.065 237.258C186.711 237.412 186.321 237.458 185.942 237.39C185.563 237.323 185.212 237.144 184.934 236.878C181.269 233.362 176.311 229.276 173.145 226.737C171.229 225.185 169.351 222.679 169.38 220.193C169.418 218.501 169.684 216.822 170.17 215.202C171.013 213.166 172.584 212.15 174.074 213.511Z" fill="#468AAD"/>
<path d="M157.921 226.071C159.233 227.633 161.945 227.508 163.981 225.803C166.017 224.098 166.601 221.444 165.293 219.882C163.985 218.32 160.675 218.445 158.639 220.131C158.201 220.473 157.835 220.899 157.562 221.383C157.289 221.867 157.114 222.4 157.047 222.952C156.981 223.504 157.023 224.063 157.173 224.599C157.323 225.134 157.577 225.634 157.921 226.071Z" fill="#121A26"/>
<path d="M174.601 224.351C176.149 224.208 177.236 222.205 176.997 219.877C176.757 217.549 174.482 213.875 172.929 214.013C171.377 214.152 170.822 217.252 171.013 219.58C171.205 221.908 173.054 224.49 174.601 224.351Z" fill="#121A26"/>
<path d="M177.044 225.421C176.831 223.089 177.864 221.089 179.35 220.954C180.836 220.818 182.213 222.599 182.425 224.931C182.637 227.263 181.605 229.263 180.119 229.398C178.633 229.533 177.256 227.752 177.044 225.421Z" fill="#121A26"/>
<path d="M184.752 233.835C183.438 233.782 182.439 232.071 182.521 230.011C182.602 227.952 183.734 226.325 185.048 226.377C186.361 226.429 187.36 228.141 187.279 230.2C187.197 232.259 186.066 233.887 184.752 233.835Z" fill="#121A26"/>
<path d="M182.678 229.607C182.678 229.573 182.678 229.549 182.678 229.516C182.803 229.051 182.963 228.596 183.157 228.155C183.013 228.644 182.855 229.128 182.678 229.607Z" fill="#2C5777"/>
<path d="M183.085 237.032C183.877 237.047 184.635 237.351 185.218 237.887C185.801 238.422 186.169 239.152 186.252 239.94C186.273 240.203 186.252 240.468 186.189 240.725C183.066 241.889 179.804 241.099 179.004 239.695C178.862 239.442 178.747 239.176 178.659 238.9C179.923 237.789 181.375 236.941 183.085 237.032Z" fill="#2C5777"/>
<path d="M177.064 227.173C177.097 226.421 176.752 225.501 177.064 223.71C177.543 220.936 179.181 220.471 179.181 220.471C179.181 220.471 179.401 220.471 179.765 220.471C179.785 222.974 178.814 225.384 177.064 227.173Z" fill="#1F4060"/>
<path d="M177.035 231.408C179.909 230.991 181.682 232.308 181.346 235.058L181.001 235.25C176.091 237.717 173.236 235.983 172.819 234.32C172.784 234.18 172.76 234.038 172.747 233.894C173.61 232.462 175.277 231.657 177.035 231.408Z" fill="#2C5777"/>
<path d="M38.361 237.597C37.8149 241.089 33.01 240.203 31.5154 241.247C30.0208 242.292 29.0196 243.226 27.022 243.226C25.0244 243.226 21.5464 241.669 21.5464 239.47C21.5464 237.271 22.8735 235.729 27.8603 234.282C32.44 232.955 38.8784 234.282 38.361 237.597Z" fill="#468AAD"/>
<path d="M25.786 234.962C25.1106 239.403 31.6208 239.872 34.6532 239.542C35.9091 239.45 37.1178 239.025 38.155 238.311C37.082 240.945 32.8855 240.275 31.5154 241.238C29.9777 242.315 29.0196 243.216 27.022 243.216C25.0244 243.216 21.5464 241.659 21.5464 239.46C21.5464 237.621 22.4998 236.227 25.786 234.962Z" fill="#2C5777"/>
<path d="M23.6732 262.359C22.878 264.036 23.2277 266.517 26.2456 267.475C31.1415 269.032 35.5104 267.173 34.7103 264.122C34.1882 262.115 33.1487 262.325 30.3989 261.497C27.5342 260.63 24.8277 259.925 23.6732 262.359Z" fill="#468AAD"/>
<path d="M22.7011 262.594C24.1095 259.93 27.2663 260.443 30.4088 261.497C31.6496 261.913 32.5598 262.038 33.2113 262.297C33.0628 263.015 30.1933 262.608 28.5694 262.876C25.7861 263.355 26.0065 267.097 27.5059 267.806C27.0939 267.719 26.6723 267.609 26.246 267.475C23.228 266.517 21.537 264.807 22.7011 262.594Z" fill="#2C5777"/>
<path d="M23.3906 261.655C24.6958 262.381 26.095 262.925 27.5487 263.269C25.872 264.361 26.2122 267.197 27.4961 267.806C27.0841 267.719 26.6625 267.609 26.2361 267.475C23.2181 266.517 21.5272 264.807 22.6912 262.594C22.8754 262.247 23.1112 261.93 23.3906 261.655Z" fill="#2C5777"/>
<path d="M25.6039 254.871C23.659 256.069 22.7009 259.959 27.865 261.607C31.7597 262.847 37.283 261.789 38.6004 259.393C39.9178 256.998 38.8974 254.9 34.4087 254.603C29.9201 254.306 27.6399 253.616 25.6039 254.871Z" fill="#468AAD"/>
<path d="M25.6041 254.871C27.6401 253.616 29.9155 254.301 34.4089 254.598C35.6332 254.617 36.8341 254.936 37.906 255.528C37.8246 255.566 35.2712 256.131 31.161 255.978C25.7861 255.777 26.246 261.171 28.7658 261.841C28.464 261.774 28.1622 261.698 27.8748 261.607C22.7011 259.959 23.6592 256.069 25.6041 254.871Z" fill="#2C5777"/>
<path d="M25.4888 254.948C26.5422 255.555 27.6692 256.023 28.8422 256.342C26.011 257.535 26.6865 261.291 28.7512 261.841C28.4494 261.774 28.1476 261.698 27.8602 261.607C22.8063 259.992 23.6254 256.227 25.4888 254.948Z" fill="#2C5777"/>
<path d="M26.9452 250.047C26.4662 253.046 29.4315 255.317 35.089 254.871C41.2304 254.392 43.525 252.328 42.6292 249.334C41.7334 246.34 35.1274 247.417 32.4064 247.417C29.6854 247.417 27.3189 247.705 26.9452 250.047Z" fill="#468AAD"/>
<path d="M26.9452 250.047C27.3189 247.705 29.695 247.432 32.4112 247.432H32.8902C32.2578 247.814 31.7809 248.408 31.5441 249.108C31.32 249.804 31.3371 250.554 31.5927 251.238C31.8483 251.923 32.3274 252.501 32.9524 252.879C35.0938 254.129 38.3466 253.492 40.5645 252.716C41.3946 252.419 42.1406 251.926 42.7393 251.278C42.2603 253.223 39.8268 254.536 35.1082 254.895C29.4315 255.302 26.4661 253.046 26.9452 250.047Z" fill="#2C5777"/>
<path d="M35.889 235.231C36.7226 235.647 37.283 236.62 35.889 236.965C34.495 237.31 31.3236 237.923 30.7775 235.748C30.4326 234.392 33.0147 233.793 35.889 235.231Z" fill="#61B4DF"/>
<path d="M24.459 236.438C25.0769 236.605 24.1667 237.645 24.7799 238.665C25.4937 239.853 26.3176 239.81 26.217 240.581C26.1356 241.458 22.8638 241.238 22.6865 239.063C22.5763 237.357 23.8697 236.28 24.459 236.438Z" fill="#2C5777"/>
<path d="M40.7418 249.233C41.4939 249.985 40.4017 251.48 36.4304 251.657C33.2352 251.801 33.5131 249.166 35.7502 248.874C36.6077 248.764 39.9849 248.481 40.7418 249.233Z" fill="#61B4DF"/>
<path d="M36.2629 257.741C36.8761 258.517 36.694 260.06 33.4556 260.242C30.8496 260.39 31.0604 257.669 32.9 257.367C33.5946 257.252 35.6449 256.96 36.2629 257.741Z" fill="#61B4DF"/>
<path d="M32.9717 264.241C33.4507 264.859 33.5274 266.095 30.9357 266.244C28.8519 266.359 29.0196 264.184 30.4902 263.944C31.0555 263.853 32.4926 263.619 32.9717 264.241Z" fill="#61B4DF"/>
<path d="M190.76 216.202C189.954 216.027 189.423 215.321 189.574 214.625C189.726 213.93 190.503 213.508 191.309 213.684C192.116 213.86 192.647 214.566 192.495 215.261C192.344 215.957 191.567 216.378 190.76 216.202Z" fill="#468AAD"/>
<path d="M184.45 226.5C184.45 226.5 187.08 225.408 189.38 228.766C191.296 231.592 190.898 237.599 188.46 239.473C184.848 242.256 179.995 241.451 179.023 239.698C177.245 236.483 181.068 235.841 181.835 233.81C182.601 231.779 182.314 231.013 182.697 229.499C183.392 226.917 184.45 226.5 184.45 226.5Z" fill="#468AAD"/>
<path d="M181.835 233.808C182.601 231.781 182.314 231.01 182.697 229.496C183.396 226.895 184.45 226.478 184.45 226.478C184.45 226.478 186.295 225.721 188.249 227.436C188.201 227.484 188.158 227.523 188.115 227.57C186.86 228.955 186.199 231.365 185.964 233.209C185.804 234.179 185.831 235.171 186.046 236.131C186.443 237.568 187.483 238.79 188.877 239.058C188.751 239.199 188.611 239.328 188.46 239.441C184.848 242.224 179.995 241.42 179.023 239.666C177.245 236.481 181.068 235.839 181.835 233.808Z" fill="#2C5777"/>
<path d="M184.129 234.641C182.793 236.361 179.919 237.798 178.62 238.67C178.093 236.313 181.159 235.604 181.835 233.807C182.601 231.781 182.314 231.01 182.697 229.496C183.396 226.895 184.45 226.478 184.45 226.478C185.25 226.226 186.113 226.268 186.884 226.598C187.023 229.137 185.562 232.806 184.129 234.641Z" fill="#1C4A66"/>
<path d="M187.507 233.448C187.545 232.816 187.65 231.776 188.278 231.446C188.511 231.31 188.787 231.269 189.049 231.332C189.311 231.394 189.539 231.555 189.686 231.781C189.965 232.379 190.055 233.047 189.945 233.697C189.915 233.917 189.866 234.134 189.796 234.344C189.745 234.663 189.6 234.96 189.38 235.197C189.364 235.22 189.349 235.244 189.337 235.269C189.184 235.428 188.982 235.532 188.764 235.565C188.546 235.598 188.322 235.558 188.129 235.451C187.945 235.33 187.795 235.164 187.694 234.969C187.593 234.773 187.545 234.554 187.554 234.335C187.504 234.042 187.488 233.745 187.507 233.448Z" fill="#61B4DF"/>
<path d="M179.181 220.471C179.181 220.471 184.929 220.107 186.093 224.51C186.618 226.613 186.397 228.834 185.468 230.792C184.538 232.751 182.958 234.326 180.996 235.25C176.086 237.717 173.231 235.983 172.814 234.321C172.134 231.633 175.286 229.573 176.484 228.376C177.681 227.178 177.643 226.555 178.122 223.782C178.601 221.008 179.181 220.471 179.181 220.471Z" fill="#468AAD"/>
<path d="M176.484 228.375C177.681 227.178 177.643 226.555 178.122 223.781C178.601 221.008 179.181 220.471 179.181 220.471C180.064 220.441 180.947 220.529 181.806 220.735C181.421 221.762 181.129 222.821 180.934 223.901C180.307 226.885 180.038 231.566 183.741 232.73L184.129 232.83C183.258 233.839 182.192 234.661 180.996 235.25C176.086 237.717 173.231 235.983 172.814 234.32C172.134 231.633 175.286 229.573 176.484 228.375Z" fill="#2C5777"/>
<path d="M176.484 228.375C177.682 227.178 176.584 226.483 177.064 223.709C177.543 220.936 179.181 220.471 179.181 220.471C180.064 220.441 180.947 220.529 181.806 220.735C180.637 221.606 180.426 227.326 178.41 229.568C176.493 231.13 171.703 232.505 172.925 234.641C172.876 234.538 172.84 234.431 172.814 234.32C172.134 231.633 175.286 229.573 176.484 228.375Z" fill="#1C4A66"/>
<path d="M182.515 226.771C182.472 226.083 182.678 225.403 183.095 224.854C183.252 224.702 183.445 224.591 183.656 224.532C183.867 224.472 184.09 224.466 184.304 224.514C184.518 224.561 184.716 224.661 184.883 224.804C185.049 224.947 185.177 225.129 185.255 225.333C185.489 226.017 185.539 226.751 185.399 227.46C185.354 227.971 185.165 228.458 184.853 228.864C184.716 229.014 184.547 229.13 184.358 229.204C184.17 229.277 183.967 229.307 183.765 229.29C183.563 229.273 183.368 229.209 183.194 229.105C183.021 229 182.874 228.857 182.764 228.687C182.41 228.16 182.462 227.398 182.515 226.771Z" fill="#61B4DF"/>
<path d="M175.669 224.711C174.232 225.88 171.32 220.993 171.837 217.808C172.354 214.622 172.532 214.205 176.33 212.974C180.642 211.585 189.423 210.996 192.479 213.003C195.535 215.01 193.998 219.178 189.245 219.676C183.928 220.236 178.826 222.162 175.669 224.711Z" fill="#468AAD"/>
<path d="M186.625 216.28C190.937 216.323 191.737 219.432 189.26 219.676C183.923 220.203 179.641 221.975 176.484 224.519C175.047 225.688 172.441 223.714 172.972 220.524C173.006 220.323 181.198 216.227 186.625 216.28Z" fill="#2C5777"/>
<path d="M173.217 222.507C175.133 221.336 177.178 220.389 179.31 219.685C180.776 219.245 183.454 218.334 184.934 218.861C185.83 219.178 185.413 219.762 184.934 220.433C181.384 221.463 178.817 222.632 176.474 224.519C175.363 225.42 173.566 224.711 173.044 222.603C173.106 222.555 173.164 222.541 173.217 222.507Z" fill="#1F4060"/>
<path d="M211.305 220.005C211.305 217.173 209.009 214.877 206.177 214.877H170.445C167.613 214.877 165.317 217.173 165.317 220.005V239.449C165.317 242.282 167.613 244.578 170.445 244.578H206.177C209.009 244.578 211.305 242.282 211.305 239.449V220.005Z" fill="white"/>
<path fill-rule="evenodd" clip-rule="evenodd" d="M170.445 217.674H206.177C207.464 217.674 208.508 218.718 208.508 220.005V239.449C208.508 240.737 207.464 241.78 206.177 241.78H170.445C169.158 241.78 168.114 240.737 168.114 239.449V220.005C168.114 218.718 169.158 217.674 170.445 217.674ZM206.177 214.877C209.009 214.877 211.305 217.173 211.305 220.005V239.449C211.305 242.282 209.009 244.578 206.177 244.578H170.445C167.613 244.578 165.317 242.282 165.317 239.449V220.005C165.317 217.173 167.613 214.877 170.445 214.877H206.177Z" fill="#F55949"/>
<path fill-rule="evenodd" clip-rule="evenodd" d="M209.809 223.288C209.511 222.575 208.691 222.239 207.979 222.538L188.471 230.704L168.963 222.538C168.251 222.239 167.431 222.575 167.133 223.288C166.835 224 167.171 224.82 167.883 225.118L187.931 233.51C188.277 233.655 188.666 233.655 189.011 233.51L209.059 225.118C209.772 224.82 210.107 224 209.809 223.288Z" fill="#F55949"/>
<path opacity="0.4" d="M172.502 233.371C175.185 233.18 175.856 230.098 175.856 228.581C175.664 224.749 168.75 224.269 165.317 224.509V230.206C166.594 231.244 169.82 233.563 172.502 233.371Z" fill="#898989"/>
<path d="M162.793 216.653C165.471 216.064 171.415 215.695 175.344 221.309C179.272 226.924 177.533 231.048 173.672 230.804C170.956 230.632 170.424 224.715 162.132 226.876C159.047 227.676 156.58 223.949 157.921 220.859C158.769 218.871 161.035 217.036 162.793 216.653Z" fill="#468AAD"/>
<path d="M157.907 220.859C158.151 220.296 158.474 219.771 158.865 219.298C158.865 219.465 158.865 219.638 158.865 219.81C159.023 224.936 165.868 223.882 168.819 222.167C169.74 221.644 170.544 220.938 171.181 220.093C171.653 219.554 172.001 218.917 172.201 218.229C173.421 219.054 174.477 220.099 175.315 221.31C179.267 226.91 177.504 231.049 173.643 230.804C170.927 230.632 170.395 224.716 162.103 226.876C159.032 227.676 156.565 223.944 157.907 220.859Z" fill="#2C5777"/>
<path d="M159.272 225.3C161.624 225.803 163.756 224.27 166.084 224.505C168.982 224.792 169.868 226.757 171.353 228.903C171.717 229.446 172.136 229.95 172.604 230.407C170.644 229.085 169.25 225.027 162.136 226.876C160.402 227.327 158.865 226.345 158.089 224.85C158.458 225.058 158.857 225.21 159.272 225.3Z" fill="#1F4060"/>
<path d="M164 217.856C164.865 217.392 165.866 217.248 166.826 217.449C167.113 217.514 167.377 217.654 167.593 217.853C167.809 218.052 167.969 218.304 168.058 218.584C168.138 218.834 168.146 219.102 168.08 219.357C168.014 219.611 167.876 219.842 167.684 220.021C167.345 220.482 166.863 220.819 166.314 220.979C165.423 221.243 164.355 221.295 163.631 220.61C163.426 220.428 163.269 220.198 163.174 219.941C163.078 219.684 163.047 219.407 163.084 219.135C163.12 218.863 163.223 218.604 163.383 218.381C163.542 218.158 163.754 217.978 164 217.856Z" fill="#61B4DF"/>
<path d="M172.623 223.944C172.679 223.758 172.777 223.586 172.907 223.442C173.038 223.298 173.2 223.185 173.38 223.111C173.562 222.994 173.77 222.922 173.986 222.902C174.202 222.882 174.42 222.914 174.621 222.996C175.267 223.269 175.837 224.107 176.096 224.984C176.144 225.089 176.182 225.195 176.216 225.29C176.376 225.769 176.376 226.287 176.216 226.766C176.107 227.043 175.902 227.272 175.637 227.409C175.373 227.547 175.068 227.583 174.779 227.513C173.672 227.513 173.011 226.205 172.709 225.31C172.543 224.874 172.512 224.398 172.623 223.944Z" fill="#468AAD"/>
</g>
<defs>
<clipPath id="clip0">
<rect width="288" height="288" rx="8" fill="white"/>
</clipPath>
</defs>
</svg>
