<svg width="472" height="472" viewBox="0 0 472 472" fill="none" xmlns="http://www.w3.org/2000/svg">
<g clip-path="url(#clip0)">
<rect width="472" height="472" rx="16" fill="#E6F4FE"/>
<path d="M-18.1545 -130.754C-21.1647 -136.867 -16.7109 -144.148 -9.89682 -144.148H1.93466C5.24231 -144.148 8.27061 -142.351 9.78236 -139.409C21.0757 -117.432 67.1067 -23.5477 66.832 46.1249C66.5175 125.875 5.28619 156.647 5.28619 236.398C5.28619 316.149 66.5175 346.921 66.832 426.671C67.1067 496.344 21.0758 590.228 9.78237 612.205C8.27062 615.147 5.24231 616.944 1.93466 616.944H-9.89682C-16.7109 616.944 -21.1647 609.664 -18.1545 603.55C-2.46687 571.692 34.7929 489.376 34.5457 426.671C34.2312 346.921 -27.0001 316.149 -27.0001 236.398C-27.0001 156.647 34.2312 125.875 34.5457 46.1249C34.7929 -16.58 -2.46687 -98.8958 -18.1545 -130.754Z" fill="#9CD7FF"/>
<path d="M169.512 -130.754C166.502 -136.867 170.956 -144.148 177.77 -144.148H189.601C192.909 -144.148 195.937 -142.351 197.449 -139.409C208.742 -117.432 254.773 -23.5477 254.499 46.1249C254.184 125.875 192.953 156.647 192.953 236.398C192.953 316.149 254.184 346.921 254.499 426.671C254.773 496.344 208.742 590.228 197.449 612.205C195.937 615.147 192.909 616.944 189.601 616.944H177.77C170.956 616.944 166.502 609.664 169.512 603.55C185.2 571.692 222.46 489.376 222.212 426.671C221.898 346.921 160.667 316.149 160.667 236.398C160.667 156.647 221.898 125.875 222.212 46.1249C222.46 -16.58 185.2 -98.8958 169.512 -130.754Z" fill="#9CD7FF"/>
<path d="M357.179 -130.754C354.169 -136.867 358.623 -144.148 365.437 -144.148H377.268C380.576 -144.148 383.604 -142.351 385.116 -139.409C396.409 -117.432 442.44 -23.5477 442.165 46.1249C441.851 125.875 380.62 156.647 380.62 236.398C380.62 316.149 441.851 346.921 442.165 426.671C442.44 496.344 396.409 590.228 385.116 612.205C383.604 615.147 380.576 616.944 377.268 616.944H365.437C358.623 616.944 354.169 609.664 357.179 603.55C372.867 571.692 410.126 489.376 409.879 426.671C409.565 346.921 348.333 316.149 348.333 236.398C348.333 156.647 409.565 125.875 409.879 46.1249C410.126 -16.58 372.867 -98.8958 357.179 -130.754Z" fill="#9CD7FF"/>
<path d="M75.6788 -130.754C72.6685 -136.867 77.1223 -144.148 83.9364 -144.148H95.7679C99.0756 -144.148 102.104 -142.351 103.616 -139.409C114.909 -117.432 160.94 -23.5477 160.665 46.1249C160.351 125.875 99.1194 156.647 99.1194 236.398C99.1194 316.149 160.351 346.921 160.665 426.671C160.94 496.344 114.909 590.228 103.616 612.205C102.104 615.147 99.0756 616.944 95.7679 616.944H83.9364C77.1223 616.944 72.6685 609.664 75.6788 603.55C91.3664 571.692 128.626 489.376 128.379 426.671C128.064 346.921 66.8331 316.149 66.8331 236.398C66.8331 156.647 128.064 125.875 128.379 46.1249C128.626 -16.58 91.3664 -98.8958 75.6788 -130.754Z" fill="#9CD7FF"/>
<path d="M263.345 -130.754C260.335 -136.867 264.789 -144.148 271.603 -144.148H283.435C286.742 -144.148 289.77 -142.351 291.282 -139.409C302.576 -117.432 348.607 -23.5477 348.332 46.1249C348.017 125.875 286.786 156.647 286.786 236.398C286.786 316.149 348.017 346.921 348.332 426.671C348.607 496.344 302.576 590.228 291.282 612.205C289.77 615.147 286.742 616.944 283.435 616.944H271.603C264.789 616.944 260.335 609.664 263.345 603.55C279.033 571.692 316.293 489.376 316.046 426.671C315.731 346.921 254.5 316.149 254.5 236.398C254.5 156.647 315.731 125.875 316.046 46.1249C316.293 -16.58 279.033 -98.8958 263.345 -130.754Z" fill="#9CD7FF"/>
<path d="M451.012 -130.754C448.002 -136.867 452.456 -144.148 459.27 -144.148H471.102C474.409 -144.148 477.437 -142.351 478.949 -139.409C490.243 -117.432 536.274 -23.5477 535.999 46.1249C535.684 125.875 474.453 156.647 474.453 236.398C474.453 316.149 535.684 346.921 535.999 426.671C536.274 496.344 490.243 590.228 478.949 612.205C477.437 615.147 474.409 616.944 471.102 616.944H459.27C452.456 616.944 448.002 609.664 451.012 603.55C466.7 571.692 503.96 489.376 503.713 426.671C503.398 346.921 442.167 316.149 442.167 236.398C442.167 156.647 503.398 125.875 503.713 46.1249C503.96 -16.58 466.7 -98.8958 451.012 -130.754Z" fill="#9CD7FF"/>
<path d="M442 331.662C442 318.407 431.255 307.662 418 307.662H332.384C315.263 307.662 301.384 321.541 301.384 338.662V376.902C301.384 381.32 304.966 384.902 309.384 384.902H434C438.418 384.902 442 381.32 442 376.902V331.662Z" fill="#CB2919"/>
<path d="M442 338.662C442 321.541 428.121 307.662 411 307.662H332.384C315.263 307.662 301.384 321.541 301.384 338.662V342.321H442V338.662Z" fill="#F55949"/>
<path d="M365.75 338.662C365.75 321.541 351.871 307.662 334.75 307.662H332.384C315.263 307.662 301.384 321.541 301.384 338.662V384.902H365.75V338.662Z" fill="#FBD2CE"/>
<path d="M361.79 339.845C361.79 324.258 349.154 311.623 333.567 311.623C317.981 311.623 305.345 324.258 305.345 339.845V380.941H361.79V339.845Z" fill="#636363"/>
<path d="M301.384 431.141C301.384 448.262 315.263 462.141 332.384 462.141L334.751 462.141C351.872 462.141 365.751 448.262 365.751 431.141L365.751 384.902L301.384 384.902L301.384 431.141Z" fill="#FBD2CE"/>
<path d="M333.567 311.623C361.79 311.623 361.79 339.725 361.79 339.725V380.941H338.657L305.345 339.725C305.345 339.725 305.345 311.623 333.567 311.623Z" fill="#3A3A3A"/>
<rect width="11.883" height="143.587" transform="matrix(-1 0 0 1 389.517 384.902)" fill="#AD650E"/>
<path d="M396.448 275.973H393.546C389.68 275.973 386.546 279.107 386.546 282.973V357.174C386.546 359.909 388.762 362.125 391.497 362.125C394.231 362.125 396.448 359.909 396.448 357.174V275.973Z" fill="#636363"/>
<path d="M435.068 288.847L396.448 275.983L396.448 301.711L435.068 288.847Z" fill="#F55949"/>
<path d="M80.5389 414.227C96.383 429.418 106.791 444.727 113.514 459.432C114.574 461.73 112.732 463.027 111.841 463.482C111.623 463.69 110.97 464.7 111.108 464.879C111.019 465.294 111.385 465.75 111.811 465.532C111.855 465.573 111.906 465.605 111.962 465.625C112.018 465.646 112.078 465.655 112.138 465.651C112.203 465.755 112.291 465.843 112.395 465.908C112.45 466.011 112.528 466.1 112.622 466.169C112.717 466.238 112.825 466.284 112.94 466.304C113.121 466.425 113.338 466.477 113.554 466.453C114.485 466.21 115.292 465.632 115.822 464.829C118.331 471.118 120.319 477.603 121.763 484.218C121.851 484.841 121.74 485.475 121.444 486.031C121.149 486.586 120.685 487.033 120.119 487.308C118.713 488.199 119.604 488.11 118.614 489.447C118.515 489.575 118.683 489.754 118.822 489.714C119.599 489.496 120.319 489.11 120.931 488.585C121.028 488.724 121.173 488.823 121.337 488.862C121.365 488.9 121.399 488.934 121.436 488.961C121.456 489.035 121.494 489.103 121.547 489.159C121.599 489.214 121.664 489.256 121.737 489.281C121.809 489.305 121.887 489.312 121.962 489.299C122.037 489.287 122.109 489.256 122.169 489.209C122.349 489.097 122.507 488.952 122.635 488.783C123.942 496.188 124.605 503.693 124.615 511.212C124.549 511.625 124.391 512.017 124.153 512.36C123.914 512.702 123.602 512.987 123.239 513.193C122.993 513.359 122.758 513.541 122.535 513.738V513.797L122.456 513.856C122.311 513.999 122.155 514.131 121.991 514.253C121.869 514.355 121.79 514.499 121.77 514.657C121.75 514.815 121.79 514.974 121.882 515.104C121.877 515.163 121.877 515.223 121.882 515.282C121.901 515.411 121.946 515.535 122.013 515.647C122.081 515.758 122.169 515.855 122.274 515.933C122.379 516.01 122.498 516.066 122.624 516.097C122.751 516.128 122.882 516.134 123.011 516.114C123.622 515.97 124.179 515.654 124.615 515.203C124.467 521.036 123.991 526.452 123.387 531.374C123.07 533.81 119.357 535.048 118.198 535.137C117.606 535.128 117.033 535.352 116.604 535.761C116.426 535.834 116.267 535.945 116.135 536.084C116.003 536.224 115.902 536.39 115.838 536.571C115.775 536.752 115.75 536.945 115.766 537.136C115.782 537.328 115.838 537.514 115.931 537.682C116.545 538.831 118.109 538.732 119.189 538.534C120.501 538.123 121.701 537.415 122.694 536.464C122.239 539.504 121.704 542.772 121.268 545.307C120.723 548.515 119.971 552.922 119.931 554.318H58.1789C58.3455 548.352 59.008 542.41 60.1594 536.553C60.3971 536.741 60.6052 537.088 60.8231 537.197C61.3185 537.424 61.8573 537.542 62.4025 537.542C62.9477 537.542 63.4865 537.424 63.9819 537.197C65.4194 537.216 66.8389 536.876 68.1112 536.206C68.1236 536.2 68.134 536.19 68.1412 536.177C68.1484 536.165 68.1521 536.151 68.1521 536.137C68.1521 536.123 68.1484 536.109 68.1412 536.097C68.134 536.085 68.1236 536.075 68.1112 536.068C66.3485 535.642 65.5168 535.89 63.7443 535.266C61.9717 534.642 60.7733 533.285 60.8625 532.424C61.5755 528.176 62.2489 523.828 62.645 519.303C62.9615 519.485 63.2927 519.641 63.6352 519.768L63.8332 519.857C63.8667 519.975 63.9247 520.084 64.0032 520.178C64.0817 520.272 64.179 520.348 64.2889 520.402C64.5552 520.546 64.8546 520.617 65.1571 520.608C65.4596 520.6 65.7544 520.511 66.012 520.353C66.1799 520.292 66.3369 520.205 66.4774 520.095C66.6174 519.954 66.7076 519.772 66.7344 519.575C66.7612 519.379 66.7231 519.179 66.6258 519.006C66.5257 518.834 66.3677 518.704 66.1802 518.639C65.7809 518.35 65.3255 518.148 64.8433 518.045C63.0906 517.619 62.8628 516.392 62.8628 516.065C63.2066 510.398 62.8742 504.71 61.8725 499.121C62.1102 499.201 62.3875 499.498 62.6152 499.518C62.7258 499.53 62.8379 499.519 62.9438 499.485C63.0497 499.451 63.1469 499.394 63.2293 499.32H63.3976C63.5583 499.304 63.7083 499.231 63.8207 499.115C63.9331 498.999 64.0007 498.847 64.0117 498.686C64.0451 498.663 64.0737 498.634 64.0958 498.6C64.1179 498.566 64.1329 498.528 64.1403 498.488C65.2196 498.643 66.3198 498.427 67.2597 497.874C67.3785 497.804 66.6456 497.398 66.6456 497.537C66.6456 497.676 65.7743 497.072 65.0019 496.775C64.081 496.428 61.0408 495.982 60.7438 494.289C59.6644 490.378 57.1392 484.387 55.7925 480.931C56.2084 480.871 56.8719 481.921 56.8521 481.455C56.8407 481.279 56.8039 481.106 56.7431 480.94C56.7898 480.804 56.783 480.654 56.7242 480.522C56.6655 480.39 56.559 480.285 56.4262 480.227C57.1551 480.218 57.8764 480.077 58.5553 479.812C58.579 479.812 58.6015 479.802 58.6182 479.785C58.6349 479.769 58.6443 479.746 58.6443 479.722C58.6443 479.699 58.6349 479.676 58.6182 479.659C58.6015 479.643 58.579 479.633 58.5553 479.633C57.0898 479.089 57.2679 478.722 55.6934 478.643C55.142 478.571 54.6139 478.376 54.1478 478.072C53.6817 477.769 53.2895 477.365 52.9999 476.89C48.7136 470.238 43.6287 464.135 37.8589 458.719L80.5389 414.227Z" fill="#2C5777"/>
<path d="M80.5391 414.227C96.3831 429.418 106.791 444.727 113.515 459.432C114.574 461.729 112.732 463.027 111.841 463.482C111.623 463.69 110.97 464.7 111.108 464.879C111.019 465.294 111.386 465.75 111.811 465.532C111.855 465.573 111.906 465.605 111.962 465.625C112.018 465.646 112.078 465.655 112.138 465.651C112.203 465.755 112.291 465.843 112.395 465.908C112.45 466.011 112.528 466.1 112.622 466.169C112.717 466.238 112.825 466.284 112.94 466.304C113.121 466.425 113.338 466.477 113.554 466.453C114.406 466.324 115.237 464.908 115.822 464.116C116.753 466.453 117.594 469.473 118.357 471.771C117.618 473.701 116.511 475.47 115.099 476.979C111.217 480.871 104.949 480.287 100.839 481.495C92.0161 484.089 86.5203 493.19 85.7875 502.241C85.1339 510.43 87.7679 518.659 87.6391 526.898C87.6472 533.243 86.8589 539.564 85.2924 545.713C84.5794 548.377 84.0148 551.526 82.985 554.358H64.0515C70.229 542.372 73.4221 529.073 73.3597 515.589C73.2805 508.242 72.6568 496.22 67.5372 490.655C65.9924 488.674 60.0904 487.308 58.298 487.308C57.0206 484.198 55.8225 481.554 55.6442 480.762C56.2186 480.604 56.8027 482 56.7829 481.535C56.7714 481.359 56.7346 481.185 56.6739 481.02C56.7205 480.883 56.714 480.733 56.6553 480.601C56.5965 480.469 56.4901 480.364 56.3572 480.307C57.0861 480.297 57.8072 480.156 58.4861 479.891C58.5098 479.891 58.5325 479.881 58.5492 479.865C58.5659 479.848 58.5753 479.825 58.5753 479.802C58.5753 479.778 58.5659 479.755 58.5492 479.739C58.5325 479.722 58.5098 479.713 58.4861 479.713C57.0205 479.168 57.1989 478.801 55.6244 478.722C55.073 478.65 54.5449 478.455 54.0788 478.151C53.6127 477.848 53.2205 477.444 52.9309 476.969C48.6446 470.317 43.5597 464.215 37.7899 458.798L80.5391 414.227Z" fill="#1F4060"/>
<path d="M58.4266 482.565C68.2004 481.911 90.8279 479.416 111.316 468.325C121.08 463.037 112.306 463.215 112.306 463.215C91.7191 476.484 67.6659 478.633 57.6148 478.633C56.8325 478.633 56.169 478.703 55.6343 478.722C55.6244 478.772 54.733 482.812 58.4266 482.565Z" fill="#121A26"/>
<path d="M108.346 298.258C113.352 295.786 119.135 295.401 124.425 297.189C129.714 298.977 134.078 302.792 136.558 307.794C139.508 312.752 143.06 317.326 147.134 321.41C147.134 321.47 146.5 322.292 146.51 322.321C146.678 323.213 147.5 322.193 147.342 323.223C147.243 323.797 147.243 324.302 147.906 324.045C148.358 323.868 148.849 323.818 149.327 323.9C149.806 323.982 150.252 324.193 150.619 324.51C153.74 327.197 157.049 329.655 160.522 331.868C160.522 331.868 160.522 332.333 160.522 332.373C161.116 332.887 160.759 332.491 160.908 333.284C160.997 333.759 160.759 334.432 161.126 334.274C161.732 334.013 162.388 333.887 163.048 333.904C163.708 333.921 164.356 334.081 164.948 334.373C168.756 336.17 172.653 337.773 176.623 339.176C176.98 339.364 176.316 339.908 176.623 340.077C177.109 340.344 176.812 339.849 177.247 340.186L177.673 340.819C177.772 341.126 177.921 341.334 178.307 341.196L178.475 341.136C179.653 340.759 180.916 340.731 182.11 341.057L183.694 341.453C185.724 341.948 189.883 342.394 191.834 342.661C192.467 342.919 191.071 342.879 191.725 343.038C192.19 343.147 192.715 343.325 193.131 343.473C193.269 343.551 193.42 343.604 193.576 343.632C193.794 343.79 193.943 344.038 194.22 343.978C194.938 343.382 195.853 343.078 196.785 343.127C201.322 343.23 205.858 342.899 210.332 342.136C210.51 342.136 211.916 343.622 212.085 343.374C212.711 342.42 213.578 341.648 214.6 341.136C217.689 340.245 224.819 338.274 224.819 338.274C224.819 338.274 237.94 334.165 244.743 354.435C252.824 378.469 235.831 384.143 235.831 384.143C233.071 385.304 230.244 386.296 227.364 387.114C225.558 387.643 223.621 387.506 221.908 386.728L221.779 386.658C221.779 386.658 221.71 386.807 221.68 386.837C221.304 387.216 220.954 387.62 220.63 388.045C220.224 388.47 221.403 388.045 220.878 388.322C220.878 388.322 220.69 388.807 220.67 388.807C213.006 390.377 205.211 391.219 197.389 391.322C196.586 391.323 195.792 391.157 195.056 390.837C194.32 390.517 193.658 390.048 193.111 389.461L193.052 389.401C192.062 390.392 192.636 391.065 191.309 391.174C185.065 390.707 178.863 389.787 172.752 388.421C171.395 388.094 170.078 387.738 168.791 387.371C168.032 387.159 167.329 386.783 166.732 386.27C166.135 385.757 165.658 385.119 165.334 384.4C164.755 384.886 164.132 385.317 163.473 385.688C162.961 385.628 162.459 385.505 161.978 385.321C154.829 382.903 147.926 379.813 141.36 376.092C140.802 375.802 140.31 375.398 139.917 374.907C139.523 374.416 139.236 373.848 139.073 373.24C138.083 373.24 137.588 373.607 136.667 373.24C135.903 372.921 135.194 372.483 134.567 371.943C109.158 355.109 98.3242 333.799 97.7102 332.541C92.5609 322.084 97.9281 303.418 108.346 298.258Z" fill="#2C5777"/>
<path d="M188.813 355.475C174.692 355.475 166.681 351.633 160.225 347.227C155.056 343.701 151.61 340.067 150.471 337.116C148.213 331.175 149.659 328.204 154.778 327.837C156.61 329.224 158.581 330.61 160.562 331.858C160.562 331.858 160.562 332.323 160.562 332.363C161.156 332.878 160.799 332.482 160.948 333.274C161.037 333.749 160.799 334.423 161.165 334.264C161.772 334.003 162.428 333.877 163.088 333.894C163.748 333.911 164.396 334.071 164.988 334.363C168.793 336.159 172.687 337.761 176.653 339.166C177.02 339.354 176.356 339.899 176.653 340.067C177.138 340.334 176.841 339.839 177.277 340.176L177.703 340.81C177.802 341.117 177.95 341.325 178.337 341.186L178.505 341.127C179.683 340.749 180.946 340.722 182.139 341.047L183.723 341.444C185.753 341.939 189.912 342.384 191.863 342.652C192.497 342.909 191.101 342.869 191.754 343.028C192.22 343.137 192.745 343.315 193.161 343.464C193.299 343.541 193.45 343.595 193.606 343.622C193.824 343.78 193.973 344.028 194.25 343.969C194.968 343.373 195.883 343.069 196.815 343.117C199.072 343.176 201.578 343.117 203.945 342.939C205.064 345.791 202.42 356.347 188.813 355.475Z" fill="#468AAD"/>
<path d="M231.523 342.315C230.671 341.34 229.668 340.507 228.552 339.849C227.495 339.236 226.339 338.81 225.136 338.592L225.077 338.255C226.384 337.928 233.93 336.522 240.158 345.068C239.501 345.738 238.67 346.212 237.759 346.438C236.848 346.663 235.892 346.632 234.998 346.346C234.104 346.061 233.307 345.533 232.695 344.821C232.083 344.11 231.681 343.242 231.533 342.315H231.523Z" fill="#468AAD"/>
<path d="M108.346 298.258C113.352 295.786 119.135 295.401 124.425 297.189C129.714 298.977 134.078 302.792 136.558 307.794C139.468 312.718 142.977 317.261 147.005 321.321C141.846 327.55 138.222 338.611 148.243 351.207C154.482 359.04 167.107 366.061 176.267 368.735C182.317 370.487 187.784 370.072 193.676 370.072C217.194 370.072 211.758 362.031 213.342 350.871C213.685 347.929 214.575 345.078 215.966 342.463C217.343 338.502 218.729 338.393 224.502 341.305C224.943 341.554 225.29 341.94 225.49 342.405C225.69 342.87 225.733 343.388 225.611 343.879C224.621 346.791 222.344 348.949 221.264 351.98C220.383 354.475 219.7 356.515 220.274 359.189L220.878 359.486C221.104 359.357 221.358 359.284 221.618 359.271C221.878 359.258 222.138 359.307 222.376 359.413C222.614 359.519 222.824 359.679 222.988 359.881C223.153 360.083 223.268 360.321 223.324 360.575L223.67 361.238C224.567 362.435 225.207 363.804 225.552 365.259C225.819 366.081 226.017 366.923 226.265 367.744C233.143 365.309 239.715 362.086 245.852 358.139C246.601 360.979 246.974 363.906 246.961 366.843C245.955 368.206 245.237 369.759 244.852 371.408C244.743 371.577 244.664 371.715 244.614 371.804C243.872 372.527 243.188 373.329 242.386 374.003C242.386 373.914 240.039 375.488 239.703 375.696C239.366 375.904 238.762 376.221 238.287 376.478C238.782 377.399 239.217 378.35 239.703 379.142C239.831 379.356 239.912 379.595 239.94 379.843C239.968 380.091 239.942 380.342 239.864 380.579C239.786 380.815 239.658 381.033 239.488 381.216C239.318 381.398 239.111 381.542 238.881 381.638C238.376 384.232 231.949 385.718 231.949 385.718C231.743 385.603 231.548 385.47 231.365 385.321C229.941 384.186 228.258 383.419 226.467 383.089C224.676 382.759 222.831 382.876 221.096 383.43H220.967C205.767 388.124 188.219 387.46 172.841 383.569C170.86 383.034 168.81 382.46 166.82 381.865C152.131 377.368 138.377 370.253 126.219 360.862C114.455 351.633 104.127 339.403 95.9872 326.629C94.5217 316.162 99.6908 302.507 108.346 298.258Z" fill="#1F4060"/>
<path d="M143.767 321.826C144.47 321.539 146.737 320.925 147.322 321.608C147.78 322.334 147.985 323.19 147.906 324.044C138.994 327.5 116.01 338.749 118.198 361.921L114.564 362.268C112.257 337.779 133.379 326.143 143.767 321.826Z" fill="#121A26"/>
<path d="M139.113 373.201C138.331 373.457 137.488 373.457 136.706 373.201C135.944 372.914 135.597 370.963 135.597 370.151C135.706 353.208 143.361 343.83 148.302 338.849C151.238 335.788 154.748 333.335 158.631 331.63C159.012 331.459 159.437 331.413 159.847 331.498C160.256 331.583 160.627 331.796 160.908 332.105L161.037 332.284C161.286 332.913 161.351 333.6 161.225 334.264C157.345 335.945 153.836 338.374 150.897 341.414C146.144 346.167 138.637 356.436 139.113 373.201Z" fill="#121A26"/>
<path d="M165.374 384.401C165.374 384.401 164.552 385.718 163.631 385.668C163.105 385.549 162.62 385.292 162.227 384.923C161.834 384.554 161.546 384.086 161.393 383.569C158.766 371.513 160.677 358.912 166.761 348.177C168.538 344.995 170.888 342.168 173.693 339.839C174.136 339.482 174.661 339.24 175.221 339.135C175.781 339.029 176.358 339.064 176.901 339.235C177.06 339.292 177.212 339.365 177.356 339.453C177.633 339.651 177.862 339.908 178.025 340.207C178.188 340.505 178.281 340.837 178.297 341.176C178.297 341.176 178.297 341.176 178.297 341.176C175.406 342.592 172.356 345.722 169.88 350.009C166.904 355.164 164.975 360.855 164.201 366.756C163.428 372.658 163.827 378.654 165.374 384.401Z" fill="#121A26"/>
<path d="M183.436 361.585C184.099 355.485 185.823 349.316 189.091 344.751C189.804 343.761 191.12 342.493 192.319 342.661C192.432 342.671 192.545 342.691 192.655 342.721C193.335 342.941 193.962 343.298 194.497 343.771C190.922 346.355 188.001 353.366 187.061 361.961C186.07 370.755 187.249 382.48 193.111 389.391C193.111 389.391 192.804 391.174 191.645 391.174C191.066 391.087 190.515 390.862 190.041 390.517C189.567 390.172 189.183 389.718 188.922 389.193C183.664 381.37 182.475 370.309 183.436 361.585Z" fill="#121A26"/>
<path d="M204.964 356.465C205.251 352.446 206.108 348.489 207.509 344.711C208.163 343.057 210.371 341.503 211.47 342.384C211.74 342.67 211.953 343.007 212.094 343.374C210.708 345.741 209.014 350.425 208.559 356.772C208.103 363.12 208.638 377.884 221.798 386.638C221.798 386.638 221.888 388.074 221.085 388.619C220.283 389.163 218.283 388.312 217.273 387.52C204.717 377.667 204.489 363.05 204.964 356.465Z" fill="#121A26"/>
<path d="M-92.6266 402.622C-92.6266 402.453 -92.5473 402.285 -92.5076 402.117L-85.0807 366.141L-84.8728 365.15C-79.1393 340.137 -28.6362 329.373 28.3529 341.127C85.0251 352.772 126.982 382.262 123.041 407.405L122.645 409.385L115.446 444.42C115.393 444.75 115.333 445.08 115.267 445.41C110.059 470.761 59.2983 481.753 1.89331 469.959C-55.5117 458.165 -97.8353 427.972 -92.6266 402.622Z" fill="#2C5777"/>
<path d="M-14.1392 372.121L-11.614 372.428C-10.4257 372.577 -9.22736 372.696 -8.02914 372.824C-7.8905 372.824 -4.62263 373.191 -4.52361 373.171C1.68528 373.993 7.89419 375.152 14.0635 376.191C26.8708 378.436 39.579 381.119 52.1882 384.242C64.606 387.292 76.8719 390.873 88.986 394.986C95.0133 397.059 101.001 399.258 106.949 401.581C109.768 402.697 112.577 403.846 115.376 405.027C116.555 405.523 116.495 405.493 115.198 404.958L116.871 405.681C118.535 406.424 120.209 407.157 121.823 407.909C122.1 408.038 122.367 408.137 122.635 408.246L116.693 437.102C116.693 437.429 116.594 437.755 116.525 438.092C111.316 463.452 60.5558 474.434 3.14095 462.64C1.4179 462.284 -0.305321 461.918 -1.99866 461.531C-6.40546 460.537 -10.5665 458.664 -14.2332 456.025C-17.8999 453.387 -20.9971 450.035 -23.3394 446.173C-25.6817 442.31 -27.2212 438.014 -27.8659 433.543C-28.5106 429.071 -28.2472 424.516 -27.0915 420.149L-27.0026 419.832C-22.695 403.958 -18.1101 388.094 -14.1392 372.121Z" fill="#346F93"/>
<path d="M9.48849 432.904C-47.5402 421.179 -89.6656 391.392 -85.1203 366.141L-84.9124 365.15C-79.1393 340.137 -28.6362 329.373 28.3529 341.127C85.0251 352.772 126.982 382.262 123.041 407.405L122.645 409.385C116.347 433.983 66.1607 444.549 9.48849 432.904Z" fill="#468AAD"/>
<path d="M-79.6046 367.22L-79.4264 366.358C-77.6935 359.011 -70.6527 352.841 -59.0668 348.464C-47.7779 344.216 -32.9935 341.968 -16.3176 341.968C-1.67565 342.037 12.922 343.583 27.2536 346.583C53.9013 352.059 78.0438 361.714 95.2346 373.765C110.841 384.658 119 396.541 117.555 406.335V406.424L117.228 408.018V408.097C115.317 415.277 108.197 421.337 96.6407 425.625C85.3815 429.814 70.7158 432.022 54.2281 432.022C39.5855 431.954 24.9875 430.405 10.6569 427.397C-16.1691 421.892 -40.4204 412.157 -57.6706 400.007C-73.3166 388.956 -81.3178 377.003 -79.6046 367.22Z" fill="#121A26"/>
<path d="M-79.6045 367.219L-79.4263 366.358L-71.5043 327.817L-71.3261 326.946C-69.5931 319.598 -62.5524 313.429 -50.9664 309.062C-39.6775 304.804 -24.8929 302.556 -8.217 302.556C6.42552 302.624 21.0236 304.173 35.3542 307.18C62.0019 312.656 86.1442 322.302 103.335 334.353C118.941 345.295 127.101 357.129 125.655 366.932V367.012L125.328 368.606L117.595 406.305V406.394L117.268 407.988V408.067C115.357 415.247 108.237 421.307 96.6805 425.595C85.4213 429.784 70.7556 431.992 54.2679 431.992C39.6253 431.924 25.0273 430.375 10.6967 427.367C-16.1293 421.862 -40.3806 412.127 -57.6308 399.977C-73.3164 388.956 -81.3176 377.003 -79.6045 367.219Z" fill="#121A26"/>
<path d="M60.5948 411.881C48.0321 408.646 41.0509 393.586 45.0018 378.242C48.9527 362.899 62.3396 353.083 74.9023 356.318C87.465 359.553 94.4462 374.614 90.4953 389.957C86.5444 405.3 73.1575 415.116 60.5948 411.881Z" fill="#1F4060"/>
<path d="M63.3362 413.485C50.7735 410.25 43.7923 395.189 47.7432 379.846C51.694 364.503 65.0809 354.687 77.6436 357.922C90.2063 361.157 97.1876 376.217 93.2367 391.561C89.2858 406.904 75.8989 416.72 63.3362 413.485Z" fill="#346F93"/>
<path d="M90.8974 381.044C90.7138 381.073 90.5261 381.066 90.3454 381.022C90.1648 380.978 89.9947 380.898 89.8452 380.787C89.6958 380.677 89.5702 380.537 89.4753 380.377C89.3805 380.217 89.3186 380.04 89.2933 379.856C88.9994 377.456 88.3312 375.117 87.3128 372.924C85.0055 367.973 81.1435 364.537 76.42 363.328C75.1913 363.009 73.9265 362.849 72.657 362.853C69.207 362.905 65.8502 363.981 63.0119 365.943C62.7237 366.133 62.3743 366.209 62.033 366.154C61.6918 366.099 61.3836 365.917 61.17 365.646C61.0588 365.495 60.9792 365.323 60.9359 365.14C60.8926 364.958 60.8866 364.769 60.918 364.584C60.9495 364.399 61.0178 364.222 61.1189 364.065C61.2201 363.907 61.3519 363.771 61.5067 363.665C63.7528 362.088 66.3087 361.008 69.0047 360.496C71.7007 359.983 74.475 360.051 77.1429 360.694C82.6883 362.12 87.2136 366.081 89.8774 371.835C91.0022 374.278 91.7437 376.88 92.0757 379.549C92.1271 379.911 92.0346 380.278 91.818 380.573C91.6014 380.867 91.278 381.065 90.9172 381.123L90.8974 381.044Z" fill="#468AAD"/>
<path d="M55.6546 395.085C55.9196 395.021 56.1989 395.055 56.441 395.18C56.6831 395.306 56.8715 395.515 56.9715 395.769C58.6846 400.126 61.9228 403.433 66.2304 404.542C67.7401 404.928 69.309 405.026 70.8548 404.83C71.0227 404.805 71.194 404.819 71.3558 404.87C71.5176 404.921 71.6658 405.007 71.7895 405.124C71.9132 405.24 72.0091 405.382 72.0702 405.54C72.1312 405.699 72.1559 405.869 72.1422 406.038C72.111 406.289 71.9967 406.524 71.8173 406.703C71.6379 406.882 71.4037 406.997 71.152 407.028C70.5379 407.107 69.9192 407.147 69.3001 407.147C68.0809 407.147 66.8668 406.994 65.6857 406.691C60.6652 405.394 56.8627 401.542 54.8822 396.511C54.8239 396.363 54.7978 396.204 54.806 396.045C54.8142 395.886 54.8562 395.73 54.9293 395.589C55.0024 395.447 55.105 395.323 55.2301 395.224C55.3551 395.125 55.4999 395.054 55.6546 395.016V395.085Z" fill="#468AAD"/>
<path d="M67.2949 402.798C59.7622 401.072 55.3643 392.215 57.4716 383.013C59.579 373.812 67.3937 367.752 74.9264 369.477C82.4591 371.202 86.8571 380.06 84.7497 389.261C82.6423 398.462 74.8276 404.523 67.2949 402.798Z" fill="#121A26"/>
<path d="M67.5061 399.946C61.14 398.306 57.6022 390.675 59.6043 382.9C61.6063 375.125 68.39 370.151 74.7561 371.79C81.1222 373.43 84.66 381.061 82.6579 388.836C80.6559 396.611 73.8722 401.585 67.5061 399.946Z" fill="#43E0BB"/>
<path d="M79.7373 388.788C79.662 389.041 79.5022 389.261 79.2845 389.411C79.0668 389.561 78.8043 389.632 78.5406 389.613C78.2769 389.593 78.0279 389.484 77.8349 389.303C77.6419 389.122 77.5165 388.881 77.4795 388.619C77.2419 386.807 77.1331 384.658 76.9252 383.807C76.6521 382.619 76.0378 381.538 75.1581 380.695C74.2785 379.853 73.1717 379.285 71.9739 379.063C70.2905 378.647 68.508 378.677 68.508 377.42C68.508 376.162 72.3799 375.607 74.4495 376.132C78.8958 377.271 81.3811 382.599 79.975 388.015C79.8958 388.293 79.8166 388.54 79.7373 388.788Z" fill="#BCF8EA"/>
<path d="M67.5873 392.431C68.8647 393.62 70.3006 393.867 70.8155 394.412C71.5978 395.194 70.8155 395.858 69.8252 395.957C67.0327 396.244 64.0818 392.926 63.6163 390.015C63.4084 388.46 64.1513 387.5 65.0524 388.035C65.9535 388.569 65.9434 390.896 67.5873 392.431Z" fill="#BCF8EA"/>
<path d="M-76.9408 326.352L-76.723 325.283L-61.3146 250.4L-60.7203 247.518C-60.7203 247.3 -60.6214 247.082 -60.562 246.864C-60.3312 246.111 -60.0601 245.371 -59.7499 244.646C-50.1345 222.296 -1.89937 213.097 52.2972 224.277C106.712 235.457 147.56 263.095 147.233 287.544C147.224 288.539 147.145 289.531 146.995 290.515L147.054 290.564L131.21 367.616L130.814 369.596C129.339 375.36 125.467 380.351 119.684 384.45L119.575 384.52C118.329 385.339 116.895 385.825 115.409 385.934C113.922 386.043 112.433 385.77 111.081 385.141C109.73 384.512 108.562 383.548 107.688 382.34C106.814 381.133 106.263 379.722 106.088 378.241C106.088 377.776 105.979 377.32 105.91 376.865C103.553 360.09 92.848 346.533 78.0041 344.117C44.8009 338.73 32.0266 375.895 29.9471 380.479C26.402 388.292 16.4105 393.521 -2.6123 388.065C-34.4787 378.925 -59.3538 363.546 -70.6724 347.91C-75.8712 340.641 -78.1489 333.323 -76.9408 326.352Z" fill="#2C5777"/>
<path d="M52.2967 224.277C108.969 235.922 150.926 265.422 146.985 290.564L146.589 292.545C140.291 317.202 90.1442 327.768 33.4323 316.123C-23.4973 304.428 -65.5928 274.71 -61.1961 249.498L-60.9389 248.231C-55.0172 223.286 -4.63297 212.532 52.2967 224.277Z" fill="#468AAD"/>
<path d="M-57.6015 250.023L-57.4233 249.151V249.033C-55.532 241.041 -48.0654 234.377 -35.8457 229.762C-24.3389 225.425 -9.31668 223.137 7.59685 223.137C22.362 223.207 37.0823 224.766 51.5343 227.792C78.4395 233.327 102.839 243.091 120.248 255.291C136.478 266.669 144.915 279.225 143.38 289.752V289.821V289.92L143.044 291.544V291.613V291.713C140.944 299.565 133.409 306.091 121.258 310.616C109.781 314.875 94.8778 317.132 78.1623 317.132C63.3969 317.059 48.6764 315.496 34.2247 312.468C7.14122 306.903 -17.3675 297.06 -34.796 284.741C-51.1549 273.254 -59.4434 260.589 -57.6015 250.023Z" fill="#121A26"/>
<path d="M7.47791 320.401C10.8943 302.16 14.4097 283.94 18.6282 265.858C22.2327 250.36 26.9563 235.16 30.8579 219.751C35.9412 220.451 41.0937 221.339 46.3156 222.415C100.73 233.595 141.568 261.233 141.251 285.673C141.237 286.667 141.158 287.659 141.014 288.643C141.014 288.643 141.014 288.643 141.014 288.693L125.17 365.745L124.773 367.725C123.318 373.389 119.545 378.321 113.881 382.401L114.772 382.589C116.317 382.906 116.455 385.46 114.841 385.787C113.076 385.979 111.29 385.815 109.589 385.305C107.888 384.795 106.307 383.949 104.939 382.816C102.867 380.937 101.604 378.329 101.413 375.538C99.0567 358.763 86.8468 344.197 71.9336 342.276C40.3643 338.196 27.9267 374.954 25.8472 379.509C22.4803 386.936 11.5083 391.224 -5.84096 386.956C-0.622314 364.893 3.31883 342.563 7.47791 320.401Z" fill="#1F4060"/>
<path d="M-76.9408 326.352L-76.723 325.283L-61.3146 250.4L-60.7203 247.518C-60.7203 247.3 -60.6214 247.082 -60.562 246.864C-60.3312 246.111 -60.0601 245.371 -59.7499 244.646C-50.1345 222.296 -1.89937 213.097 52.2972 224.277C106.712 235.457 147.56 263.095 147.233 287.544C147.224 288.539 147.145 289.531 146.995 290.515L147.054 290.564L131.21 367.616L130.814 369.596C129.339 375.36 125.467 380.351 119.684 384.45L119.575 384.52C118.329 385.339 116.895 385.825 115.409 385.934C113.922 386.043 112.433 385.77 111.081 385.141C109.73 384.512 108.562 383.548 107.688 382.34C106.814 381.133 106.263 379.722 106.088 378.241C106.088 377.776 105.979 377.32 105.91 376.865C103.553 360.09 92.8579 346.474 78.0041 344.117C44.9594 338.889 32.0266 375.895 29.9471 380.479C26.402 388.292 16.4105 393.521 -2.6123 388.065C-34.4787 378.925 -59.3538 363.546 -70.6724 347.91C-75.8712 340.641 -78.1489 333.323 -76.9408 326.352Z" fill="#2C5777"/>
<path d="M-16.258 338.403C-14.1092 327.56 -11.9801 317.043 -6.52376 311.577C3.8739 301.18 22.6887 306.438 24.6692 305.497C24.7187 305.497 5.08205 295.496 5.39893 295.357C6.01289 295.109 7.0724 294.664 7.31996 294.575C15.4004 291.386 23.5602 288.247 32.1259 286.653C32.3635 286.603 36.0867 286.078 35.4232 286.128L36.7701 285.969C39.117 285.722 41.4737 285.514 43.8206 285.326C48.247 284.979 52.6637 284.722 57.0802 284.335C66.5272 283.504 75.8949 282.474 85.4112 282.216C94.9906 281.938 104.578 282.196 114.129 282.989C123.038 283.632 131.883 284.983 140.578 287.029C142.765 287.51 145.017 287.627 147.243 287.375V287.465C147.234 288.459 147.154 289.452 147.005 290.435L147.064 290.485L131.22 367.537L130.824 369.517C129.349 375.28 125.477 380.271 119.694 384.371L119.585 384.44C118.339 385.259 116.905 385.746 115.419 385.855C113.932 385.963 112.442 385.69 111.091 385.061C109.74 384.432 108.571 383.468 107.697 382.261C106.824 381.053 106.273 379.642 106.098 378.162C106.098 377.696 105.989 377.241 105.919 376.785C103.563 360.011 92.8678 346.395 78.014 344.038C44.9693 338.809 32.0366 375.815 29.957 380.4C26.4119 388.213 16.5392 393.006 -2.6024 387.985C-29.0125 381.063 -19.001 352.267 -16.258 338.403Z" fill="#346F93"/>
<path d="M52.2967 224.277C108.969 235.922 150.926 265.422 146.985 290.564L146.589 292.545C140.291 317.202 90.1442 327.768 33.4323 316.123C-23.4973 304.428 -65.5928 274.71 -61.1961 249.498L-60.9389 248.231C-55.0172 223.286 -4.63297 212.532 52.2967 224.277Z" fill="#468AAD"/>
<path d="M-57.6015 250.023L-57.4233 249.151V249.033C-55.532 241.041 -48.0654 234.377 -35.8457 229.762C-24.3389 225.425 -9.31668 223.137 7.59685 223.137C22.362 223.207 37.0823 224.766 51.5343 227.792C78.4395 233.327 102.839 243.091 120.248 255.291C136.478 266.669 144.915 279.225 143.38 289.752V289.821V289.92L143.044 291.544V291.613V291.713C140.944 299.565 133.409 306.091 121.258 310.616C109.781 314.875 94.8778 317.132 78.1623 317.132C63.3969 317.059 48.6764 315.496 34.2247 312.468C7.14122 306.903 -17.3675 297.06 -34.796 284.741C-51.1549 273.254 -59.4434 260.589 -57.6015 250.023Z" fill="#121A26"/>
<path d="M-59.4631 241.269L-59.2058 240.011L-55.5615 222.296C-52.8724 208.809 -47.4623 196.012 -39.6619 184.686C-31.8614 173.359 -21.8343 163.742 -10.1926 156.421C1.44904 149.1 14.4608 144.228 28.0482 142.104C41.6355 139.98 55.5133 140.647 68.834 144.066C103.859 152.82 131.279 178.487 144.331 210.324C144.668 211.11 144.875 211.946 144.945 212.799C145.242 217.345 142.192 220.721 139.697 222.524C141.867 230.722 143.227 239.113 143.757 247.577C143.757 247.577 152.907 254.162 151.867 265.402C151.52 268.224 151.065 271.046 150.48 273.878L148.718 282.424L148.322 284.405C142.024 309.062 91.8772 319.628 35.1654 307.982C-21.7643 296.198 -63.84 266.491 -59.4631 241.269Z" fill="#2C5777"/>
<path d="M15.1231 190.697C23.2333 181.171 37.4632 170.892 48.2371 172.784C57.6643 174.408 69.3098 176.002 80.7968 172.873C87.2829 171.11 84.0942 156.038 86.8768 150.414C115.446 162.168 135.518 188.816 144.312 210.304C144.65 211.094 144.857 211.934 144.926 212.79C145.223 217.325 142.173 220.712 139.677 222.504C141.848 230.702 143.208 239.094 143.737 247.558C143.737 247.558 152.887 254.143 151.847 265.382C151.501 268.204 148.689 279.721 148.689 279.721C142.401 304.388 92.1352 315.281 35.5422 303.299C1.54684 296.1 -8.90045 278.117 -8.90045 254.034C-8.88065 243.428 -1.89935 210.661 15.1231 190.697Z" fill="#346F93"/>
<path d="M51.0594 261.659C51.0594 276.136 59.0606 291.366 91.8875 291.366C125.774 291.366 151.6 279.364 151.956 262.956C152.313 246.547 132.468 237.378 99.6512 236.665C66.8342 235.952 51.0792 245.24 51.0594 261.659Z" fill="#468AAD"/>
<path d="M54.0005 248.805L54.1096 248.577C57.0156 242.747 61.5862 237.91 67.243 234.679C72.8998 231.447 79.3882 229.967 85.8867 230.426C105.513 231.733 122.091 230.238 132.597 226.257C137.271 224.485 140.747 222.217 142.757 219.494L147.807 259.589C147.47 263.141 146.27 266.557 144.311 269.539C142.352 272.522 139.694 274.98 136.568 276.701C122.774 284.227 102.276 288.178 77.6479 284.959C56.5258 282.206 45.5439 266.194 53.8818 249.132L54.0005 248.805Z" fill="#121A26"/>
<path d="M223.677 361.822C220.88 352.452 222.819 343.6 228.007 342.052C233.195 340.503 239.668 346.844 242.465 356.214C245.262 365.584 243.323 374.435 238.135 375.984C232.947 377.533 226.474 371.192 223.677 361.822Z" fill="#121A26"/>
<path d="M58.3433 171.802C40.8309 168.204 27.7648 159.785 29.1593 152.998C30.5538 146.21 45.8808 143.625 63.3933 147.223C80.9057 150.821 93.9721 159.24 92.5776 166.027C91.1831 172.815 75.8558 175.4 58.3433 171.802Z" fill="#121A26"/>
<path d="M31.0169 151.988C29.7296 158.266 42.0781 166.109 58.5955 169.506C75.113 172.902 89.5606 170.565 90.8479 164.287C91.1549 162.812 91.4322 156.365 90.3528 154.81C86.8374 149.701 75.915 149.374 63.2695 146.779C50.624 144.185 40.2362 140.402 34.9977 143.71C33.3836 144.71 31.314 150.503 31.0169 151.988Z" fill="#1F4060"/>
<path d="M62.6853 161.267C62.2595 164.179 61.8337 167.09 61.4376 170.011C60.4968 169.853 59.5562 169.675 58.5957 169.486C57.4272 169.239 56.2785 168.971 55.1397 168.694C55.9616 165.971 56.6448 163.179 57.2984 160.386C59.0808 160.752 60.883 161.049 62.6853 161.267Z" fill="#2C5777"/>
<path d="M43.9601 155.365C46.4489 156.868 49.1084 158.068 51.8821 158.94C50.9809 161.604 50.1094 164.278 49.2875 166.951C46.2682 165.939 43.34 164.674 40.5338 163.168C41.3062 161.396 42.0289 159.604 42.8112 157.94L43.9601 155.365Z" fill="#2C5777"/>
<path d="M76.9251 162.426L76.9844 161.733C81.7178 161.386 87.5703 159.752 88.7091 154.563C88.7664 154.295 88.8093 154.024 88.8377 153.751C88.929 153.642 89.0117 153.526 89.0852 153.405C89.5662 153.81 89.9923 154.276 90.3528 154.791C91.4322 156.355 91.1549 162.792 90.8479 164.268C90.0755 168.04 84.5501 170.377 76.6776 170.922C76.737 169.189 76.7567 167.476 76.826 165.852C76.8656 164.703 76.8855 163.565 76.9251 162.426Z" fill="#2C5777"/>
<path d="M60.0145 162.609C44.3181 159.385 32.5867 151.937 33.8117 145.974C35.0367 140.012 48.7542 137.792 64.4506 141.017C80.147 144.242 91.8784 151.69 90.6534 157.652C89.4284 163.615 75.7109 165.834 60.0145 162.609Z" fill="#1F4060"/>
<path d="M33.8193 145.918C33.8689 145.682 33.9385 145.45 34.0272 145.225C39.9687 146.304 63.4674 152.919 68.1414 149.81C68.4561 149.586 68.6983 149.274 68.8381 148.914C68.978 148.553 69.0094 148.16 68.9283 147.782C68.8472 147.404 68.6572 147.058 68.3819 146.787C68.1066 146.515 67.7579 146.331 67.3789 146.255C67.2469 146.186 67.1074 146.133 66.963 146.097C66.7667 145.936 66.5416 145.815 66.2996 145.74C60.4274 143.76 54.4958 141.363 48.4751 139.541C53.8374 139.369 59.2007 139.848 64.4478 140.967C80.1433 144.185 91.8777 151.632 90.6498 157.593C89.4219 163.555 75.707 165.783 60.0114 162.545C44.3159 159.306 32.5914 151.88 33.8193 145.918Z" fill="#346F93"/>
<path d="M33.839 145.849C33.9281 148.156 37.7406 151.325 43.2761 154.286C46.6231 156.068 54.4856 158.96 64.9427 160.653C87.7185 164.337 90.5803 155.523 90.1446 154.345C90.6813 155.337 90.863 156.483 90.6596 157.593C89.4416 163.535 75.7167 165.782 60.0212 162.544C44.3257 159.306 32.5912 151.869 33.8191 145.908C33.8224 145.887 33.8291 145.867 33.839 145.849Z" fill="#468AAD"/>
<path d="M63.5173 152.278C57.978 151.14 53.8381 148.511 54.2707 146.405C54.7032 144.3 59.5444 143.516 65.0837 144.654C70.623 145.792 74.7626 148.421 74.3301 150.526C73.8975 152.632 69.0566 153.416 63.5173 152.278Z" fill="#121A26"/>
<path d="M57.0508 146.047C57.0756 145.936 57.1155 145.83 57.1695 145.73L65.864 118.003C67.6662 112.23 76.2616 114.042 75.5487 120.073L72.1323 148.849C72.1425 148.955 72.1425 149.061 72.1323 149.166C71.8056 150.751 68.1714 151.335 64.0123 150.483C59.8532 149.632 56.724 147.602 57.0508 146.047Z" fill="#2C5777"/>
<path d="M72.3204 147.186C69.9735 148.542 66.3096 148.414 64.7549 147.186C62.3585 145.354 62.9131 142.413 63.7647 138.056C65.151 130.777 68.3693 114.923 68.3693 114.923C71.5084 113.388 76.1032 115.537 75.5684 119.993L72.3204 147.186Z" fill="#346F93"/>
<path d="M88.363 268.673C84.0444 268.123 81.2497 262.128 82.1207 255.281C82.9917 248.434 87.1987 243.329 91.5172 243.879C95.8357 244.428 98.6305 250.424 97.7594 257.27C96.8884 264.117 92.6815 269.222 88.363 268.673Z" fill="#43E0BB"/>
<path d="M133.988 261.279C130.815 260.875 128.948 254.998 129.819 248.151C130.69 241.304 133.969 236.081 137.143 236.485C140.316 236.889 142.183 242.766 141.312 249.613C140.441 256.46 137.162 261.683 133.988 261.279Z" fill="#43E0BB"/>
<path d="M71.6076 121.41C70.5247 121.41 69.6469 120.532 69.6469 119.449C69.6469 118.366 70.5247 117.488 71.6076 117.488C72.6904 117.488 73.5682 118.366 73.5682 119.449C73.5682 120.532 72.6904 121.41 71.6076 121.41Z" fill="#468AAD"/>
<path d="M67.7557 142.61C68.273 142.696 68.8032 142.574 69.2302 142.269C69.6571 141.965 69.9458 141.504 70.0331 140.986L72.0136 126.638C72.1918 125.558 71.8355 124.469 70.9344 124.35C70.2016 124.241 69.4092 124.509 69.0626 125.984L66.0919 140.333C66.0497 140.592 66.0594 140.857 66.1204 141.112C66.1814 141.367 66.2925 141.608 66.4473 141.82C66.6021 142.032 66.7976 142.211 67.0222 142.346C67.2468 142.482 67.4961 142.572 67.7557 142.61Z" fill="#468AAD"/>
<path d="M0.226234 168.032C-1.17891 165.286 1.17877 161.27 5.49235 159.063C9.80592 156.855 14.4419 157.292 15.8471 160.038C17.2522 162.784 14.8944 166.799 10.5808 169.007C6.26725 171.214 1.63137 170.777 0.226234 168.032Z" fill="#346F93"/>
<path d="M103.01 199.307C98.6387 194.058 97.8032 187.547 101.144 184.765C104.485 181.982 110.737 183.981 115.109 189.23C119.48 194.479 120.316 200.99 116.975 203.772C113.634 206.555 107.382 204.555 103.01 199.307Z" fill="#468AAD"/>
<path d="M127.021 311.667C128.518 311.15 129.953 310.469 131.299 309.637C132.254 309.004 133.176 308.323 134.062 307.597C135.544 306.753 136.935 305.758 138.211 304.626C138.211 304.775 138.211 304.914 138.211 305.052L126.833 360.298C126.577 361.545 125.837 362.638 124.774 363.338C123.712 364.038 122.415 364.288 121.169 364.032C119.923 363.776 118.83 363.035 118.129 361.973C117.429 360.911 117.18 359.614 117.436 358.368L127.021 311.667Z" fill="#468AAD"/>
<path d="M102.275 429.457C104.28 428.419 106.155 427.145 107.86 425.664L108.117 425.456C109.999 424.149 111.89 422.901 113.702 421.495L109.286 443.003C109.03 444.25 108.289 445.343 107.227 446.043C106.164 446.743 104.868 446.993 103.622 446.737C102.375 446.481 101.282 445.74 100.582 444.678C99.8815 443.615 99.6322 442.319 99.8883 441.072L102.275 429.457Z" fill="#468AAD"/>
<path d="M68.9335 320.331C75.1106 320.65 81.304 320.319 87.4115 319.341C90.5704 319.152 93.7294 318.885 96.8784 318.479L95.0464 328.797C94.3974 332.331 92.3791 335.466 89.4302 337.519C86.4814 339.572 82.841 340.377 79.3014 339.76C75.7557 339.122 72.6063 337.107 70.5412 334.155C68.4761 331.203 67.6633 327.554 68.28 324.005L68.9335 320.331Z" fill="#468AAD"/>
<path d="M48.8815 436.003C54.6745 435.785 60.4972 435.478 66.2902 435.013C68.3221 434.925 70.3481 434.733 72.3604 434.438L75.5886 434.072C76.0243 434.072 76.4502 433.943 76.876 433.874L74.1627 449.213C73.9368 451.045 73.34 452.812 72.409 454.406C71.478 456 70.2323 457.388 68.7475 458.485C67.2627 459.581 65.57 460.364 63.7728 460.786C61.9755 461.207 60.1114 461.258 58.2937 460.936C56.4761 460.614 54.7431 459.924 53.2006 458.91C51.658 457.896 50.3381 456.579 49.3213 455.038C48.3044 453.498 47.6117 451.766 47.2859 449.949C46.96 448.132 47.0077 446.268 47.4258 444.469L48.8815 436.003Z" fill="#468AAD"/>
<path d="M21.0156 233.744C22.5428 233.743 24.028 233.243 25.2452 232.321C26.4625 231.398 27.3452 230.104 27.7593 228.634C31.2853 216.787 38.6099 206.428 48.6042 199.154C50.1708 198.151 51.2748 196.566 51.6731 194.749C52.0715 192.932 51.7316 191.031 50.7283 189.464C49.7251 187.898 48.1406 186.794 46.3234 186.396C44.5063 185.997 42.6054 186.337 41.0388 187.34C28.112 196.427 18.6618 209.641 14.2424 224.812C13.9508 225.854 13.9041 226.95 14.1063 228.014C14.3085 229.078 14.754 230.08 15.408 230.943C16.0619 231.806 16.9065 232.506 17.8759 232.989C18.8453 233.471 19.9133 233.723 20.996 233.724L21.0156 233.744Z" fill="#468AAD"/>
<path d="M215.709 352.851L215.956 342.414C216.01 340.232 216.575 338.093 217.607 336.17C218.639 334.247 220.109 332.593 221.898 331.343L240.118 320.688C246.208 317.133 251.457 316.291 256.25 320.688L273.084 336.116C276.848 339.563 279.874 343.737 281.978 348.388C284.082 353.038 285.22 358.067 285.324 363.17V364.804C285.452 370.933 279.986 375.092 274.163 376.984L248.635 387.134C243.683 388.768 240.802 386.569 237.108 382.816L218.887 362.625C216.719 360.446 215.639 355.901 215.709 352.851Z" fill="#2C5777"/>
<path d="M249.724 348.385C256.784 354.465 268.38 365.22 275.243 371.319C275.674 371.701 276.001 372.186 276.191 372.73C276.382 373.273 276.429 373.857 276.33 374.424C276.231 374.991 275.988 375.523 275.624 375.97C275.26 376.416 274.788 376.762 274.252 376.974L249.318 386.312C247.83 386.795 246.235 386.841 244.722 386.445C243.208 386.048 241.841 385.225 240.782 384.074L222.284 363.952C221.726 363.348 221.314 362.624 221.078 361.837C220.843 361.049 220.79 360.218 220.925 359.407C221.06 358.596 221.378 357.826 221.856 357.157C222.333 356.488 222.957 355.936 223.68 355.545C229.146 352.574 234.84 349.831 239.722 347.256C241.309 346.415 243.113 346.072 244.898 346.274C246.682 346.475 248.365 347.211 249.724 348.385Z" fill="#1C4A66"/>
<path d="M270.044 378.628C269.962 378.623 269.879 378.623 269.797 378.628C265.519 379.321 262.657 378.826 259.379 376.023C257.379 374.294 255.007 373.05 252.447 372.389C249.754 371.627 247.942 371.25 246.902 368.587C246.04 366.368 246.01 363.942 244.862 361.793C242.475 357.317 236.871 353.208 231.087 351.822L239.742 347.237C241.33 346.393 243.136 346.049 244.923 346.251C246.71 346.452 248.394 347.189 249.754 348.366C256.814 354.446 268.41 365.2 275.272 371.3C275.704 371.681 276.031 372.167 276.221 372.71C276.412 373.254 276.459 373.837 276.36 374.404C276.261 374.971 276.018 375.504 275.654 375.95C275.29 376.397 274.818 376.742 274.282 376.954L270.044 378.628Z" fill="#1F4060"/>
<path d="M256.111 320.549L277.758 342.424C279.042 343.604 280.076 345.032 280.795 346.621C281.515 348.211 281.907 349.929 281.946 351.673L285.393 365.883C285.403 366.679 285.178 367.46 284.746 368.128C284.313 368.796 283.694 369.322 282.964 369.64C282.234 369.957 281.427 370.052 280.643 369.912C279.86 369.772 279.135 369.404 278.56 368.854C270.984 361.585 260.735 353.139 254.19 347.89C250.229 344.682 246.347 339.503 246.406 334.363C246.485 330.866 247.035 327.395 248.04 324.045C249.783 319.836 253.031 317.737 256.111 320.549Z" fill="#468AAD"/>
<path d="M222.719 346.514C225.433 349.742 231.037 349.485 235.246 345.959C239.455 342.434 240.663 336.948 237.959 333.72C235.256 330.492 228.413 330.749 224.205 334.235C223.3 334.942 222.543 335.822 221.978 336.823C221.414 337.823 221.052 338.925 220.914 340.066C220.776 341.207 220.864 342.363 221.174 343.47C221.484 344.576 222.009 345.611 222.719 346.514Z" fill="#121A26"/>
<path d="M257.2 342.958C260.399 342.661 262.647 338.522 262.152 333.709C261.657 328.897 256.953 321.302 253.744 321.589C250.536 321.876 249.387 328.283 249.783 333.095C250.18 337.908 254.002 343.246 257.2 342.958Z" fill="#121A26"/>
<path d="M262.249 345.169C261.81 340.349 263.945 336.214 267.017 335.935C270.089 335.655 272.935 339.336 273.373 344.157C273.812 348.977 271.677 353.111 268.605 353.39C265.534 353.67 262.688 349.989 262.249 345.169Z" fill="#121A26"/>
<path d="M278.183 362.562C275.467 362.454 273.402 358.916 273.571 354.659C273.74 350.402 276.078 347.038 278.794 347.146C281.51 347.253 283.575 350.792 283.407 355.049C283.238 359.306 280.899 362.669 278.183 362.562Z" fill="#121A26"/>
<path d="M273.896 353.822C273.896 353.753 273.896 353.703 273.896 353.634C274.155 352.673 274.486 351.733 274.886 350.822C274.589 351.832 274.262 352.832 273.896 353.822Z" fill="#2C5777"/>
<path d="M274.738 369.171C276.374 369.203 277.942 369.831 279.147 370.938C280.353 372.045 281.112 373.554 281.283 375.181C281.328 375.726 281.285 376.275 281.155 376.805C274.698 379.212 267.954 377.578 266.301 374.676C266.009 374.154 265.77 373.603 265.588 373.033C268.202 370.735 271.203 368.982 274.738 369.171Z" fill="#2C5777"/>
<path d="M262.29 348.792C262.36 347.237 261.647 345.336 262.29 341.632C263.281 335.899 266.667 334.938 266.667 334.938C266.667 334.938 267.123 334.938 267.875 334.938C267.917 340.112 265.909 345.093 262.29 348.792Z" fill="#1F4060"/>
<path d="M262.231 357.545C268.173 356.684 271.836 359.407 271.143 365.091L270.43 365.487C260.28 370.587 254.378 367.002 253.517 363.566C253.444 363.276 253.394 362.982 253.368 362.684C255.151 359.724 258.597 358.06 262.231 357.545Z" fill="#2C5777"/>
<path d="M290.604 326.113C288.936 325.75 287.839 324.291 288.152 322.853C288.465 321.416 290.07 320.545 291.738 320.908C293.405 321.271 294.503 322.731 294.19 324.168C293.876 325.606 292.271 326.477 290.604 326.113Z" fill="#468AAD"/>
<path d="M277.56 347.399C277.56 347.399 282.996 345.141 287.749 352.082C291.71 357.925 290.888 370.343 285.848 374.215C278.382 379.968 268.35 378.304 266.34 374.68C262.666 368.035 270.568 366.709 272.153 362.51C273.737 358.311 273.143 356.727 273.935 353.598C275.371 348.26 277.56 347.399 277.56 347.399Z" fill="#468AAD"/>
<path d="M272.153 362.506C273.737 358.317 273.143 356.723 273.935 353.594C275.381 348.217 277.56 347.355 277.56 347.355C277.56 347.355 281.372 345.791 285.412 349.336C285.313 349.435 285.224 349.514 285.135 349.613C282.541 352.475 281.174 357.456 280.689 361.268C280.357 363.274 280.414 365.325 280.857 367.309C281.679 370.28 283.828 372.805 286.71 373.359C286.449 373.651 286.161 373.917 285.848 374.152C278.382 379.905 268.35 378.241 266.34 374.617C262.666 368.032 270.569 366.705 272.153 362.506Z" fill="#2C5777"/>
<path d="M276.896 364.229C274.134 367.784 268.192 370.754 265.508 372.557C264.419 367.685 270.757 366.219 272.153 362.506C273.737 358.317 273.143 356.723 273.935 353.593C275.381 348.216 277.56 347.355 277.56 347.355C279.212 346.833 280.997 346.921 282.59 347.602C282.877 352.851 279.857 360.436 276.896 364.229Z" fill="#1C4A66"/>
<path d="M283.878 361.763C283.957 360.456 284.174 358.307 285.472 357.624C285.953 357.344 286.524 357.259 287.066 357.388C287.608 357.517 288.08 357.85 288.383 358.317C288.959 359.553 289.145 360.934 288.918 362.278C288.857 362.732 288.754 363.18 288.611 363.615C288.505 364.275 288.205 364.889 287.749 365.378C287.716 365.425 287.686 365.475 287.66 365.526C287.344 365.856 286.928 366.071 286.476 366.139C286.025 366.207 285.564 366.124 285.165 365.903C284.784 365.654 284.474 365.311 284.265 364.906C284.057 364.502 283.957 364.05 283.976 363.595C283.871 362.991 283.838 362.376 283.878 361.763Z" fill="#61B4DF"/>
<path d="M266.667 334.938C266.667 334.938 278.55 334.185 280.956 343.286C282.041 347.634 281.584 352.224 279.662 356.272C277.741 360.321 274.474 363.578 270.42 365.487C260.27 370.587 254.368 367.002 253.506 363.566C252.1 358.011 258.616 353.753 261.092 351.277C263.567 348.801 263.488 347.514 264.478 341.78C265.469 336.047 266.667 334.938 266.667 334.938Z" fill="#468AAD"/>
<path d="M261.092 351.277C263.568 348.801 263.488 347.514 264.479 341.78C265.469 336.047 266.667 334.937 266.667 334.937C268.492 334.875 270.317 335.058 272.094 335.482C271.297 337.605 270.694 339.796 270.291 342.028C268.994 348.197 268.44 357.872 276.094 360.278L276.896 360.486C275.095 362.57 272.892 364.271 270.42 365.487C260.27 370.587 254.368 367.002 253.506 363.566C252.1 358.01 258.616 353.752 261.092 351.277Z" fill="#2C5777"/>
<path d="M261.092 351.277C263.568 348.801 261.3 347.365 262.29 341.632C263.28 335.898 266.667 334.937 266.667 334.937C268.492 334.875 270.317 335.058 272.094 335.482C269.677 337.284 269.242 349.108 265.073 353.742C261.112 356.971 251.209 359.813 253.734 364.229C253.635 364.017 253.559 363.794 253.507 363.566C252.1 358.01 258.616 353.752 261.092 351.277Z" fill="#1C4A66"/>
<path d="M273.559 347.959C273.471 346.538 273.896 345.133 274.757 343.998C275.083 343.684 275.482 343.455 275.918 343.332C276.354 343.209 276.814 343.196 277.256 343.294C277.699 343.392 278.11 343.598 278.453 343.894C278.796 344.19 279.061 344.566 279.223 344.989C279.708 346.403 279.81 347.919 279.521 349.385C279.428 350.44 279.037 351.447 278.392 352.287C278.109 352.596 277.76 352.836 277.37 352.989C276.98 353.141 276.56 353.202 276.143 353.167C275.725 353.131 275.322 353.001 274.963 352.784C274.605 352.568 274.3 352.273 274.074 351.92C273.341 350.831 273.45 349.257 273.559 347.959Z" fill="#61B4DF"/>
<path d="M259.408 343.701C256.437 346.118 250.417 336.017 251.486 329.432C252.556 322.847 252.922 321.985 260.775 319.44C269.687 316.568 287.839 315.35 294.156 319.5C300.474 323.649 297.295 332.264 287.472 333.294C276.48 334.452 265.934 338.433 259.408 343.701Z" fill="#468AAD"/>
<path d="M282.055 326.273C290.968 326.362 292.621 332.789 287.502 333.294C276.47 334.383 267.618 338.047 261.092 343.305C258.121 345.722 252.734 341.642 253.833 335.047C253.903 334.631 270.836 326.164 282.055 326.273Z" fill="#2C5777"/>
<path d="M254.338 339.146C258.3 336.726 262.526 334.768 266.934 333.313C269.965 332.402 275.5 330.521 278.56 331.61C280.412 332.264 279.55 333.472 278.56 334.858C271.222 336.987 265.914 339.403 261.072 343.305C258.775 345.167 255.061 343.701 253.982 339.344C254.111 339.245 254.229 339.215 254.338 339.146Z" fill="#1F4060"/>
<path d="M333.072 333.975C333.072 328.12 328.326 323.373 322.471 323.373H248.609C242.754 323.373 238.008 328.12 238.008 333.975V374.168C238.008 380.023 242.754 384.769 248.609 384.769H322.471C328.326 384.769 333.072 380.023 333.072 374.168V333.975Z" fill="white"/>
<path fill-rule="evenodd" clip-rule="evenodd" d="M248.609 329.156H322.471C325.132 329.156 327.29 331.313 327.29 333.975V374.168C327.29 376.829 325.132 378.986 322.471 378.986H248.609C245.948 378.986 243.79 376.829 243.79 374.168V333.975C243.79 331.313 245.948 329.156 248.609 329.156ZM322.471 323.373C328.326 323.373 333.072 328.12 333.072 333.975V374.168C333.072 380.023 328.326 384.769 322.471 384.769H248.609C242.754 384.769 238.008 380.023 238.008 374.168V333.975C238.008 328.12 242.754 323.373 248.609 323.373H322.471Z" fill="#F55949"/>
<path fill-rule="evenodd" clip-rule="evenodd" d="M329.98 340.76C329.363 339.287 327.669 338.593 326.197 339.209L285.871 356.09L245.546 339.209C244.073 338.593 242.379 339.287 241.763 340.76C241.146 342.233 241.84 343.927 243.313 344.543L284.755 361.891C285.469 362.19 286.274 362.19 286.988 361.891L328.429 344.543C329.902 343.927 330.597 342.233 329.98 340.76Z" fill="#F55949"/>
<path opacity="0.4" d="M252.862 361.604C258.407 361.208 259.793 354.838 259.793 351.702C259.397 343.78 245.105 342.79 238.008 343.285V355.062C240.649 357.207 247.316 362 252.862 361.604Z" fill="#898989"/>
<path d="M232.79 327.045C238.326 325.827 250.615 325.065 258.735 336.671C266.855 348.276 263.26 356.802 255.279 356.297C249.664 355.941 248.565 343.711 231.424 348.177C225.047 349.831 219.947 342.127 222.72 335.74C224.472 331.63 229.156 327.837 232.79 327.045Z" fill="#468AAD"/>
<path d="M222.69 335.74C223.196 334.576 223.862 333.49 224.671 332.512C224.671 332.858 224.671 333.215 224.671 333.571C224.997 344.167 239.148 341.988 245.248 338.443C247.152 337.363 248.813 335.904 250.13 334.156C251.106 333.041 251.826 331.726 252.239 330.303C254.76 332.009 256.943 334.168 258.676 336.671C266.845 348.247 263.201 356.803 255.22 356.298C249.605 355.941 248.506 343.711 231.365 348.178C225.017 349.831 219.917 342.117 222.69 335.74Z" fill="#2C5777"/>
<path d="M225.512 344.92C230.374 345.96 234.781 342.791 239.594 343.276C245.585 343.87 247.417 347.93 250.486 352.367C251.238 353.489 252.104 354.531 253.071 355.476C249.021 352.743 246.139 344.355 231.434 348.178C227.849 349.109 224.67 347.079 223.066 343.989C223.831 344.419 224.655 344.733 225.512 344.92Z" fill="#1F4060"/>
<path d="M235.286 329.531C237.074 328.572 239.143 328.274 241.129 328.69C241.72 328.825 242.267 329.113 242.713 329.525C243.159 329.937 243.491 330.458 243.674 331.037C243.84 331.554 243.856 332.108 243.719 332.634C243.582 333.16 243.299 333.637 242.901 334.007C242.2 334.96 241.205 335.656 240.069 335.988C238.227 336.533 236.019 336.641 234.524 335.225C234.1 334.848 233.775 334.373 233.578 333.842C233.381 333.31 233.317 332.738 233.392 332.176C233.467 331.614 233.679 331.079 234.01 330.618C234.34 330.157 234.778 329.784 235.286 329.531Z" fill="#61B4DF"/>
<path d="M253.111 342.117C253.228 341.732 253.429 341.377 253.699 341.079C253.97 340.781 254.303 340.547 254.676 340.394C255.053 340.152 255.483 340.004 255.929 339.963C256.375 339.922 256.825 339.988 257.24 340.156C258.577 340.721 259.756 342.454 260.29 344.266C260.389 344.484 260.469 344.702 260.538 344.9C260.869 345.889 260.869 346.96 260.538 347.95C260.313 348.523 259.889 348.995 259.342 349.279C258.796 349.564 258.165 349.64 257.567 349.495C255.28 349.495 253.913 346.791 253.289 344.939C252.945 344.038 252.883 343.054 253.111 342.117Z" fill="#468AAD"/>
</g>
<defs>
<clipPath id="clip0">
<rect width="472" height="472" rx="16" fill="white"/>
</clipPath>
</defs>
</svg>
