<svg width="144" height="472" viewBox="0 0 144 472" fill="none" xmlns="http://www.w3.org/2000/svg">
<g clip-path="url(#clip0)">
<rect width="144" height="472" rx="16" fill="#E6F4FE"/>
<path d="M-48.4879 -130.754C-51.4981 -136.867 -47.0443 -144.148 -40.2302 -144.148H-28.3987C-25.0911 -144.148 -22.0628 -142.351 -20.551 -139.409C-9.25763 -117.432 36.7734 -23.5477 36.4986 46.1249C36.1841 125.875 -25.0472 156.647 -25.0472 236.398C-25.0472 316.149 36.1841 346.921 36.4986 426.671C36.7734 496.344 -9.2576 590.228 -20.551 612.205C-22.0628 615.147 -25.0911 616.944 -28.3987 616.944H-40.2302C-47.0443 616.944 -51.4981 609.664 -48.4879 603.55C-32.8002 571.692 4.45957 489.376 4.21229 426.671C3.89778 346.921 -57.3335 316.149 -57.3335 236.398C-57.3335 156.647 3.89778 125.875 4.21229 46.1249C4.45957 -16.58 -32.8002 -98.8958 -48.4879 -130.754Z" fill="#9CD7FF"/>
<path d="M139.179 -130.754C136.169 -136.867 140.623 -144.148 147.437 -144.148H159.268C162.576 -144.148 165.604 -142.351 167.116 -139.409C178.409 -117.432 224.44 -23.5477 224.166 46.1249C223.851 125.875 162.62 156.647 162.62 236.398C162.62 316.149 223.851 346.921 224.166 426.671C224.44 496.344 178.409 590.228 167.116 612.205C165.604 615.147 162.576 616.944 159.268 616.944H147.437C140.623 616.944 136.169 609.664 139.179 603.55C154.867 571.692 192.127 489.376 191.879 426.671C191.565 346.921 130.333 316.149 130.333 236.398C130.333 156.647 191.565 125.875 191.879 46.1249C192.127 -16.58 154.867 -98.8958 139.179 -130.754Z" fill="#9CD7FF"/>
<path d="M45.3454 -130.754C42.3352 -136.867 46.7889 -144.148 53.6031 -144.148H65.4345C68.7422 -144.148 71.7705 -142.351 73.2822 -139.409C84.5756 -117.432 130.607 -23.5477 130.332 46.1249C130.017 125.875 68.7861 156.647 68.7861 236.398C68.7861 316.149 130.017 346.921 130.332 426.671C130.607 496.344 84.5756 590.228 73.2822 612.205C71.7705 615.147 68.7422 616.944 65.4345 616.944H53.6031C46.7889 616.944 42.3352 609.664 45.3454 603.55C61.033 571.692 98.2928 489.376 98.0455 426.671C97.731 346.921 36.4998 316.149 36.4998 236.398C36.4998 156.647 97.731 125.875 98.0455 46.1249C98.2928 -16.58 61.033 -98.8958 45.3454 -130.754Z" fill="#9CD7FF"/>
</g>
<defs>
<clipPath id="clip0">
<rect width="144" height="472" rx="16" fill="white"/>
</clipPath>
</defs>
</svg>
