<svg width="472" height="472" viewBox="0 0 472 472" fill="none" xmlns="http://www.w3.org/2000/svg">
<g clip-path="url(#clip0)">
<rect width="472" height="472" rx="16" fill="#E0FFED"/>
<circle r="431" transform="matrix(-1 0 0 1 463 300)" fill="#AAF5C9"/>
<ellipse rx="305.638" ry="306.193" transform="matrix(-1 0 0 1 463 299.445)" fill="#83F3B2"/>
<path d="M488.279 423.622C480.444 426.727 472.31 429.017 464.005 430.456C457.471 431.432 452.912 431.376 452.024 429.501C451.558 428.614 452.024 427.438 453.133 425.907C453.844 425.02 454.615 424.182 455.441 423.4C456.384 422.546 457.493 421.614 458.769 420.626C465.253 415.529 472.139 410.966 479.36 406.981C487.813 402.321 496.078 399.093 502.868 398.106C504.442 397.859 506.033 397.729 507.627 397.717C508.928 397.687 510.23 397.791 511.51 398.028C513.729 398.483 515.459 399.459 516.225 400.868C517.634 403.653 515.37 407.757 510.212 411.84C505.053 415.922 497.365 420.105 488.279 423.622Z" fill="#1F4060"/>
<path d="M486.093 419.017C480.464 421.403 474.655 423.34 468.72 424.808C464.061 425.918 460.954 426.029 460.377 424.997C459.801 423.965 461.908 421.857 465.669 419.117C470.604 415.65 475.796 412.564 481.201 409.887C486.612 407.051 492.329 404.84 498.241 403.297C502.923 402.188 506.273 402.332 507.116 403.83C507.959 405.327 505.929 407.779 502.135 410.486C497.116 413.909 491.737 416.77 486.093 419.017Z" fill="#121A26"/>
<path d="M468.62 450.336C469.352 450.336 470.106 450.336 470.905 450.336C471.704 450.336 472.536 450.269 473.401 450.203C474.267 450.136 475.176 450.058 476.097 449.947C477.495 449.803 478.948 449.615 480.468 449.382C481.988 449.149 483.552 448.882 485.161 448.572L486.792 448.239C488.434 447.906 490.12 447.518 491.839 447.13C492.978 446.856 494.132 446.556 495.301 446.231L497.054 445.732C506.461 443.036 514.615 439.563 520.14 435.991C525.665 432.419 528.627 428.769 527.518 426.007C527.027 424.944 526.144 424.114 525.055 423.688C523.903 425.791 522.291 427.608 520.34 429.002C519.863 429.368 519.375 429.734 518.853 430.111C517.3 431.194 515.689 432.19 514.027 433.096C512.918 433.728 511.62 434.36 510.322 434.982C505.455 437.258 500.432 439.182 495.29 440.739C490.128 442.334 484.875 443.612 479.558 444.567C478.127 444.822 476.74 445.044 475.409 445.221C473.368 445.499 471.427 445.709 469.674 445.82L467.788 445.909C465.407 446.069 463.015 445.837 460.71 445.221C460.42 445.582 460.221 446.007 460.131 446.461C460.04 446.915 460.06 447.384 460.188 447.828C460.876 449.459 463.916 450.291 468.62 450.336Z" fill="#121A26"/>
<path d="M465.647 463.693C465.827 464.139 466.102 464.541 466.453 464.87C466.803 465.2 467.221 465.449 467.677 465.602C467.221 465.449 466.803 465.2 466.453 464.87C466.102 464.541 465.827 464.139 465.647 463.693Z" fill="#2C5777"/>
<path d="M525.332 420.394L524.966 419.528L523.724 416.633L522.448 413.66C521.982 412.55 521.405 411.441 520.873 410.232C520.34 409.022 519.763 407.902 519.264 406.815L517.744 403.786L516.235 400.824C517.644 403.609 515.381 407.713 510.222 411.796C505.064 415.878 497.364 420.105 488.278 423.622C480.443 426.727 472.309 429.018 464.005 430.456C457.471 431.432 452.911 431.377 452.023 429.502C452.023 429.502 452.434 430.29 453.033 431.477L454.065 433.518L455.174 435.97C455.562 436.813 455.962 437.634 456.284 438.444L457.227 440.662C457.792 441.971 458.158 442.881 458.158 442.881L458.436 443.525C458.662 443.949 458.977 444.32 459.36 444.611C459.743 444.902 460.185 445.107 460.655 445.211C462.96 445.827 465.351 446.059 467.733 445.899L469.618 445.81C471.371 445.699 473.313 445.488 475.354 445.211C476.685 445.033 478.072 444.811 479.503 444.556C484.82 443.601 490.073 442.323 495.234 440.729C500.376 439.172 505.4 437.248 510.267 434.971C511.565 434.35 512.807 433.717 513.972 433.085C515.634 432.18 517.245 431.183 518.798 430.101C519.319 429.735 519.808 429.369 520.285 428.992C522.236 427.597 523.848 425.781 524.999 423.677C525.282 423.184 525.458 422.637 525.516 422.071C525.573 421.505 525.51 420.934 525.332 420.394Z" fill="#2C5777"/>
<path d="M475.133 471.492C475.854 471.559 476.608 471.603 477.351 471.636C478.095 471.67 478.982 471.692 479.848 471.703C480.713 471.714 481.623 471.703 482.555 471.703C483.952 471.703 485.428 471.592 486.992 471.481C488.556 471.37 490.109 471.215 491.751 471.026L493.404 470.826C495.068 470.616 496.733 470.36 498.53 470.072L502.058 469.44L503.855 469.074C513.473 467.088 521.927 464.248 527.773 461.13C530.235 459.91 532.483 458.299 534.43 456.36C535.872 454.785 536.449 453.242 536.061 451.922C535.675 450.841 534.878 449.955 533.842 449.459C532.478 451.453 530.69 453.12 528.606 454.341C528.106 454.663 527.574 454.984 527.019 455.306C525.371 456.254 523.675 457.117 521.938 457.891C520.718 458.423 519.431 459 518.088 459.477C513.027 461.365 507.836 462.889 502.557 464.037C497.275 465.228 491.925 466.095 486.537 466.633C485.073 466.766 483.675 466.877 482.322 466.955C480.247 467.077 478.305 467.121 476.542 467.088L474.656 467.01C472.262 466.976 469.891 466.537 467.644 465.712C467.325 466.054 467.091 466.466 466.962 466.915C466.833 467.365 466.812 467.838 466.901 468.297C467.456 469.983 470.473 471.048 475.133 471.492Z" fill="#121A26"/>
<path d="M474.689 466.91L476.575 466.988C478.339 466.988 480.28 466.988 482.355 466.855C483.708 466.777 485.106 466.666 486.571 466.533C491.958 465.995 497.308 465.128 502.59 463.937C507.87 462.789 513.06 461.266 518.122 459.377C519.464 458.856 520.751 458.268 521.971 457.791C523.708 457.017 525.404 456.155 527.052 455.206C527.607 454.884 528.162 454.563 528.639 454.241C530.724 453.021 532.512 451.354 533.875 449.36C532.505 451.338 530.723 452.996 528.65 454.219C528.14 454.54 527.618 454.873 527.064 455.195C525.414 456.144 523.714 457.003 521.971 457.769C520.762 458.312 519.475 458.878 518.122 459.355C513.058 461.241 507.868 462.769 502.59 463.926C497.304 465.109 491.95 465.973 486.56 466.511C485.106 466.655 483.697 466.766 482.355 466.844C480.269 466.955 478.339 466.999 476.564 466.966C475.92 466.966 475.288 466.966 474.678 466.899C472.292 466.864 469.929 466.425 467.689 465.601C469.932 466.429 472.299 466.871 474.689 466.91Z" fill="#121A26"/>
<path d="M518.099 459.355C519.453 458.834 520.74 458.312 521.949 457.769C523.691 457.003 525.391 456.144 527.041 455.195C527.596 454.873 528.15 454.54 528.627 454.219C530.7 452.996 532.483 451.338 533.853 449.359C534.165 448.9 534.379 448.381 534.482 447.835C534.585 447.289 534.575 446.728 534.452 446.187L534.33 445.754L534.186 445.321L533.22 442.293C532.621 440.473 531.889 438.044 531.002 435.636C530.114 433.229 529.282 430.799 528.639 428.98C528.328 428.081 528.006 427.327 527.806 426.761L527.485 425.929C528.594 428.669 525.621 432.33 520.107 435.914C514.594 439.497 506.428 442.958 497.021 445.654L495.268 446.153C494.107 446.471 492.953 446.771 491.807 447.052C490.087 447.473 488.401 447.862 486.759 448.161L485.128 448.494C483.519 448.805 481.944 449.071 480.435 449.304C478.926 449.537 477.462 449.725 476.064 449.87C475.143 449.981 474.234 450.058 473.368 450.125C472.503 450.191 471.671 450.236 470.872 450.258C470.073 450.28 469.319 450.258 468.587 450.258C463.883 450.258 460.821 449.382 460.156 447.695C460.156 447.695 460.533 448.605 461.043 450.025L462.907 455.239C463.572 457.136 464.149 459.078 464.626 460.52L465.403 462.916L465.514 463.26L465.614 463.615C465.795 464.062 466.072 464.464 466.424 464.794C466.777 465.123 467.197 465.372 467.655 465.523C469.895 466.347 472.258 466.786 474.644 466.821C475.254 466.821 475.887 466.877 476.53 466.888C478.305 466.888 480.236 466.888 482.321 466.766C483.664 466.688 485.072 466.577 486.526 466.433C491.917 465.895 497.27 465.031 502.557 463.848C507.836 462.717 513.03 461.215 518.099 459.355Z" fill="#2C5777"/>
<path d="M523.635 484.284C525.033 483.873 526.365 483.441 527.618 482.986C529.427 482.34 531.201 481.6 532.932 480.767C533.52 480.49 534.042 480.201 534.607 479.913C536.794 478.864 538.725 477.349 540.265 475.475C540.619 475.043 540.877 474.541 541.024 474.002C541.171 473.463 541.204 472.899 541.12 472.347L540.942 471.526L540.276 468.442C540.077 467.51 539.833 466.434 539.589 465.269L538.679 461.663C538.058 459.2 537.458 456.738 536.97 454.896C536.482 453.054 536.094 451.845 536.094 451.845C536.482 453.221 535.905 454.763 534.463 456.283C532.516 458.222 530.269 459.833 527.807 461.053C521.96 464.171 513.507 467.011 503.888 468.996L502.091 469.363L498.563 469.995C496.81 470.283 495.102 470.539 493.438 470.749L491.785 470.949C490.143 471.138 488.556 471.282 487.025 471.404C485.494 471.526 484.03 471.592 482.588 471.626C481.656 471.626 480.757 471.626 479.881 471.626C479.004 471.626 478.183 471.626 477.385 471.559C476.586 471.493 475.832 471.482 475.166 471.415C470.506 470.971 467.489 469.906 466.968 468.087C466.968 468.087 467.245 469.074 467.666 470.538L469.042 475.975C469.286 476.962 469.53 477.949 469.774 478.881C470.018 479.813 470.163 480.69 470.318 481.433L470.85 483.929L470.995 484.595C471.153 485.062 471.41 485.489 471.749 485.847C472.088 486.205 472.501 486.486 472.958 486.669C475.119 487.651 477.429 488.266 479.792 488.489C480.391 488.57 481.012 488.636 481.656 488.688C483.409 488.855 485.339 488.966 487.414 488.999C488.767 488.999 490.176 488.999 491.629 488.999C497.056 488.862 502.469 488.392 507.838 487.59C513.174 486.859 518.453 485.754 523.635 484.284Z" fill="#2C5777"/>
<path d="M525.332 420.394L524.966 419.528L523.724 416.633L522.448 413.66C521.982 412.55 521.405 411.441 520.873 410.232C520.34 409.022 519.763 407.902 519.264 406.815L517.744 403.786L516.235 400.824C517.644 403.609 515.381 407.713 510.222 411.796C505.064 415.878 497.364 420.105 488.278 423.622C480.443 426.727 472.309 429.018 464.005 430.456C457.471 431.432 452.911 431.377 452.023 429.502C452.023 429.502 452.434 430.29 453.033 431.477L454.065 433.518L455.174 435.97C455.562 436.813 455.962 437.634 456.284 438.444L457.227 440.662C457.792 441.971 458.158 442.881 458.158 442.881L458.436 443.525C458.662 443.949 458.977 444.32 459.36 444.611C459.743 444.902 460.185 445.107 460.655 445.211C462.96 445.827 465.351 446.059 467.733 445.899L469.618 445.81C471.371 445.699 473.313 445.488 475.354 445.211C476.685 445.033 478.072 444.811 479.503 444.556C484.82 443.601 490.073 442.323 495.234 440.729C500.376 439.172 505.4 437.248 510.267 434.971C511.565 434.35 512.807 433.717 513.972 433.085C515.634 432.18 517.245 431.183 518.798 430.101C519.319 429.735 519.808 429.369 520.285 428.992C522.236 427.597 523.848 425.781 524.999 423.677C525.282 423.184 525.458 422.637 525.516 422.071C525.573 421.505 525.51 420.934 525.332 420.394Z" fill="#1F4060"/>
<path d="M492.439 448.628C492.223 448.115 492.085 447.573 492.028 447.019H491.84C490.12 447.441 488.434 447.829 486.792 448.128L485.161 448.461C483.552 448.772 481.977 449.038 480.468 449.271C478.96 449.504 477.495 449.693 476.097 449.837C475.176 449.948 474.267 450.026 473.401 450.092C472.536 450.159 471.704 450.203 470.905 450.225H470.55L470.683 450.403C473.864 455.587 476.45 461.114 478.394 466.877C479.658 466.877 480.956 466.877 482.354 466.755C483.752 466.633 485.106 466.567 486.559 466.422C490.12 466.078 493.97 465.535 497.986 464.78C496.527 459.27 494.673 453.872 492.439 448.628Z" fill="#1F4060"/>
<path d="M346.031 433.141C336.435 430.922 327.948 427.938 322.057 424.809C316.166 421.681 312.838 418.408 313.515 415.823C314.824 410.631 331.531 410.509 350.38 416.333C369.229 422.158 383.662 429.491 382.663 433.607C382.131 435.648 377.804 436.613 371.159 436.535C362.688 436.274 354.268 435.136 346.031 433.141Z" fill="#1F4060"/>
<path d="M347.119 428.536C333.162 425.142 322.346 420.172 323.089 417.365C323.444 415.989 326.584 415.479 331.387 415.823C337.528 416.402 343.599 417.572 349.515 419.317C355.462 420.933 361.277 422.998 366.91 425.497C371.237 427.505 373.788 429.302 373.489 430.467C372.879 432.785 361.108 431.975 347.119 428.536Z" fill="#121A26"/>
<path d="M314.126 445.909C314.758 446.264 315.424 446.63 316.145 447.019C316.866 447.407 317.61 447.718 318.364 448.073C319.118 448.428 319.995 448.76 320.86 449.104C322.169 449.604 323.556 450.103 325.009 450.58C326.463 451.057 327.993 451.523 329.58 451.967L331.189 452.399C332.819 452.832 334.517 453.231 336.236 453.62C337.39 453.878 338.566 454.123 339.764 454.352L341.561 454.685C349.883 456.288 358.35 457.005 366.822 456.826C373.479 456.548 377.772 455.35 378.194 453.176C378.229 452.71 378.158 452.243 377.987 451.809C377.816 451.375 377.549 450.985 377.206 450.669C375.036 451.54 372.732 452.032 370.395 452.122C369.795 452.122 369.174 452.211 368.531 452.244C366.789 452.322 364.859 452.322 362.795 452.244C361.453 452.244 360.055 452.133 358.591 452.022C353.176 451.592 347.79 450.851 342.46 449.803C337.124 448.797 331.858 447.448 326.696 445.765C325.32 445.31 323.989 444.833 322.735 444.356C320.805 443.602 319.03 442.836 317.454 442.049C316.866 441.76 316.345 441.461 315.79 441.172C313.626 440.086 311.702 438.577 310.132 436.735C309.66 436.952 309.242 437.27 308.906 437.667C308.571 438.064 308.327 438.529 308.191 439.031C307.825 441.161 310.043 443.58 314.126 445.909Z" fill="#121A26"/>
<path d="M373.535 471.337C373.965 471.157 374.35 470.881 374.659 470.532C374.968 470.182 375.194 469.767 375.321 469.318C375.198 469.772 374.972 470.191 374.66 470.543C374.348 470.896 373.959 471.171 373.523 471.348L373.535 471.337Z" fill="#2C5777"/>
<path d="M304.895 457.836C304.853 458.348 304.922 458.864 305.096 459.348C305.27 459.832 305.546 460.274 305.905 460.642C305.545 460.274 305.269 459.833 305.095 459.349C304.921 458.864 304.853 458.349 304.895 457.836Z" fill="#2C5777"/>
<path d="M371.16 436.535C362.689 436.273 354.269 435.136 346.032 433.14C336.436 430.921 327.949 427.937 322.058 424.809C316.167 421.68 312.839 418.407 313.516 415.823C313.516 415.823 313.239 416.932 312.828 418.552C312.418 420.171 311.874 422.357 311.386 424.509C310.376 428.825 309.467 433.129 309.467 433.129L309.3 433.928C309.23 434.443 309.272 434.968 309.424 435.466C309.575 435.963 309.832 436.423 310.177 436.812C311.747 438.655 313.671 440.164 315.835 441.25C316.356 441.538 316.944 441.838 317.499 442.126C319.074 442.914 320.827 443.679 322.779 444.434C324.033 444.911 325.364 445.388 326.74 445.843C331.903 447.526 337.168 448.874 342.504 449.881C347.834 450.929 353.22 451.67 358.635 452.1C360.099 452.211 361.497 452.277 362.84 452.322C364.903 452.388 366.833 452.388 368.575 452.322C369.219 452.322 369.84 452.255 370.439 452.199C372.776 452.11 375.08 451.618 377.251 450.746C377.695 450.597 378.098 450.346 378.428 450.012C378.757 449.679 379.004 449.273 379.148 448.827L379.303 448.15C379.303 448.15 380.069 444.467 380.923 440.861C381.322 439.031 381.788 437.267 382.11 435.925L382.664 433.706C382.132 435.647 377.805 436.612 371.16 436.535Z" fill="#2C5777"/>
<path d="M310.243 469.584C310.886 469.906 311.574 470.238 312.306 470.56C313.038 470.882 313.815 471.192 314.625 471.503C315.435 471.814 316.278 472.124 317.165 472.424C318.485 472.868 319.894 473.3 321.37 473.711C322.845 474.121 324.387 474.51 325.996 474.82L327.616 475.186C329.269 475.541 330.944 475.863 332.708 476.174C333.869 476.373 335.056 476.562 336.269 476.739L338.088 476.995C346.481 478.208 354.977 478.535 363.438 477.971C370.094 477.394 374.233 475.974 374.61 473.789C374.627 473.32 374.536 472.854 374.344 472.427C374.151 472 373.863 471.623 373.5 471.326C371.358 472.301 369.066 472.905 366.722 473.112C366.123 473.178 365.502 473.256 364.858 473.311C363.116 473.467 361.186 473.567 359.123 473.6C357.78 473.6 356.382 473.6 354.929 473.6C349.503 473.445 344.092 472.975 338.721 472.191C333.341 471.422 328.016 470.311 322.779 468.863C321.37 468.474 320.027 468.064 318.741 467.631C316.766 466.98 314.976 466.296 313.371 465.579C312.772 465.313 312.262 465.058 311.663 464.78C309.46 463.811 307.472 462.411 305.816 460.664C305.361 460.907 304.963 461.243 304.648 461.65C304.332 462.057 304.107 462.527 303.986 463.027C303.675 465.146 306.005 467.365 310.243 469.584Z" fill="#121A26"/>
<path d="M311.697 464.78C312.24 465.058 312.806 465.313 313.405 465.579C315.017 466.319 316.807 467.003 318.774 467.631C320.061 468.064 321.404 468.475 322.813 468.863C328.05 470.311 333.375 471.422 338.755 472.191C344.126 472.975 349.537 473.445 354.963 473.6C356.416 473.6 357.814 473.6 359.156 473.6C361.22 473.6 363.15 473.467 364.892 473.312C365.535 473.312 366.157 473.179 366.756 473.112C369.1 472.905 371.392 472.301 373.534 471.326C371.397 472.302 369.108 472.903 366.767 473.101C366.179 473.178 365.558 473.245 364.914 473.3C363.161 473.467 361.231 473.556 359.168 473.589C357.836 473.589 356.427 473.589 354.974 473.589C349.548 473.43 344.136 472.956 338.766 472.169C333.385 471.405 328.06 470.294 322.824 468.841C321.418 468.441 320.076 468.031 318.797 467.609C316.97 467.012 315.174 466.324 313.416 465.546C312.817 465.291 312.307 465.024 311.719 464.758C309.52 463.791 307.536 462.396 305.883 460.653C307.528 462.401 309.504 463.804 311.697 464.78Z" fill="#121A26"/>
<path d="M354.963 473.567C356.416 473.567 357.825 473.567 359.157 473.567C361.22 473.567 363.15 473.445 364.903 473.279C365.547 473.279 366.168 473.157 366.756 473.079C369.097 472.881 371.386 472.28 373.523 471.304C373.959 471.127 374.348 470.852 374.66 470.5C374.972 470.147 375.198 469.728 375.32 469.274L375.431 468.586L375.82 466.157C376.086 464.703 376.43 462.828 376.774 460.831C377.118 458.834 377.484 456.971 377.772 455.528L378.238 453.121C377.817 455.34 373.501 456.449 366.867 456.771C358.395 456.951 349.927 456.233 341.606 454.63L339.809 454.297C338.611 454.06 337.435 453.816 336.281 453.565C334.55 453.177 332.864 452.777 331.233 452.344L329.624 451.912C328.038 451.468 326.518 451.002 325.054 450.525C323.589 450.048 322.214 449.549 320.905 449.05C320.039 448.709 319.207 448.366 318.408 448.018C317.61 447.663 316.855 447.319 316.19 446.964C315.524 446.609 314.803 446.243 314.171 445.855C310.088 443.525 307.869 441.106 308.28 439.054L307.725 441.85C307.403 443.536 306.948 445.766 306.616 448.007L305.506 454.175C305.229 455.861 305.051 456.982 305.051 456.982L304.918 457.781C304.875 458.299 304.945 458.82 305.124 459.308C305.302 459.797 305.584 460.241 305.95 460.61C307.603 462.352 309.587 463.747 311.785 464.714C312.318 464.981 312.895 465.247 313.483 465.502C315.24 466.28 317.036 466.968 318.863 467.565C320.135 467.987 321.478 468.398 322.89 468.797C328.127 470.25 333.452 471.361 338.832 472.125C344.177 472.917 349.563 473.398 354.963 473.567Z" fill="#2C5777"/>
<path d="M352.289 495.355C353.768 495.355 355.166 495.299 356.482 495.188C358.546 495.066 360.454 494.878 362.185 494.645L364.026 494.356C366.347 494.043 368.598 493.337 370.683 492.271C371.117 492.076 371.5 491.783 371.802 491.415C372.104 491.048 372.317 490.615 372.424 490.152L372.502 489.497L372.79 487.045C372.946 485.57 373.212 483.617 373.489 481.654C373.767 479.69 374.033 477.738 374.233 476.273C374.432 474.809 374.61 473.832 374.61 473.832C374.233 476.051 370.05 477.438 363.438 478.015C354.978 478.579 346.481 478.252 338.089 477.039L336.269 476.783C335.064 476.606 333.877 476.417 332.708 476.218C330.966 475.907 329.269 475.585 327.616 475.23L325.996 474.864C324.391 474.502 322.849 474.132 321.37 473.755C319.894 473.344 318.486 472.912 317.165 472.468C316.278 472.168 315.435 471.858 314.625 471.547C313.815 471.236 313.038 470.926 312.306 470.604C311.574 470.282 310.886 469.95 310.243 469.628C306.038 467.487 303.675 465.19 304.019 463.116C304.019 463.116 303.853 464.225 303.586 465.945L302.732 472.157C302.41 474.376 302.1 476.684 301.922 478.381L301.589 481.221L301.501 481.964C301.483 482.489 301.578 483.012 301.781 483.497C301.984 483.981 302.29 484.416 302.677 484.771C304.401 486.438 306.442 487.743 308.678 488.61C309.233 488.854 309.788 489.087 310.42 489.331C312.073 489.963 313.904 490.573 315.912 491.139C317.199 491.505 318.563 491.849 319.983 492.182C325.285 493.381 330.658 494.237 336.069 494.745C341.459 495.266 346.875 495.469 352.289 495.355Z" fill="#2C5777"/>
<path d="M324.953 469.418C326.102 463.486 327.67 457.643 329.646 451.934C328.06 451.49 326.54 451.024 325.075 450.547C323.611 450.07 322.235 449.571 320.926 449.071C320.061 448.731 319.229 448.387 318.43 448.04C317.631 447.685 316.877 447.341 316.211 446.986L316.078 446.919C315.058 449.426 314.159 451.956 313.338 454.508C312.45 457.758 311.63 461.031 310.886 464.303L311.774 464.769C312.306 465.036 312.883 465.302 313.471 465.557C315.229 466.335 317.025 467.024 318.852 467.621C320.124 468.042 321.466 468.453 322.879 468.852C323.511 469.041 324.232 469.24 324.953 469.418Z" fill="#3276A0"/>
<path d="M324.066 474.366C323.149 474.144 322.25 473.911 321.37 473.667C319.895 473.257 318.486 472.824 317.166 472.38C316.278 472.081 315.435 471.77 314.625 471.459C313.815 471.149 313.039 470.838 312.307 470.516C311.574 470.194 310.887 469.862 310.243 469.54L309.733 469.274C309.052 472.58 308.435 475.908 307.88 479.258C307.488 482.083 307.163 484.912 306.904 487.745C307.447 488.034 308.013 488.3 308.646 488.577C309.278 488.855 309.755 489.054 310.387 489.298C312.04 489.931 313.871 490.541 315.879 491.107C317.166 491.473 318.53 491.817 319.95 492.149L321.781 492.549C322.347 486.469 323.068 480.39 324.066 474.366Z" fill="#3276A0"/>
<path d="M371.16 436.535C362.689 436.273 354.269 435.136 346.032 433.14C336.436 430.921 327.949 427.937 322.058 424.809C316.167 421.68 312.839 418.407 313.516 415.823C313.516 415.823 313.239 416.932 312.828 418.552C312.418 420.171 311.874 422.357 311.386 424.509C310.376 428.825 309.467 433.129 309.467 433.129L309.3 433.928C309.23 434.443 309.272 434.968 309.424 435.466C309.575 435.963 309.832 436.423 310.177 436.812C311.747 438.655 313.671 440.164 315.835 441.25C316.356 441.538 316.944 441.838 317.499 442.126C319.074 442.914 320.827 443.679 322.779 444.434C324.033 444.911 325.364 445.388 326.74 445.843C331.903 447.526 337.168 448.874 342.504 449.881C347.834 450.929 353.22 451.67 358.635 452.1C360.099 452.211 361.497 452.277 362.84 452.322C364.903 452.388 366.833 452.388 368.575 452.322C369.219 452.322 369.84 452.255 370.439 452.199C371.548 452.111 372.658 451.978 373.556 451.811C374.351 451.345 375.265 451.121 376.186 451.168C376.564 451.05 376.934 450.909 377.295 450.746C377.739 450.597 378.142 450.346 378.472 450.012C378.801 449.679 379.048 449.273 379.192 448.827L379.347 448.15C379.347 448.15 380.113 444.467 380.967 440.861C381.367 439.031 381.832 437.267 382.154 435.925L382.709 433.706C382.132 435.647 377.805 436.612 371.16 436.535Z" fill="#1F4060"/>
<path d="M366.756 473.101C367.311 473.035 367.865 472.946 368.331 472.857C368.941 469.917 369.618 466.988 370.373 464.093C370.373 463.993 370.373 463.882 370.428 463.771C370.783 461.308 371.153 458.845 371.537 456.382C369.989 456.6 368.43 456.737 366.867 456.793C362.334 456.937 357.797 456.771 353.288 456.294C353.055 459.2 352.744 462.085 352.378 464.98C352.178 467.798 351.945 470.605 351.701 473.423C352.811 473.489 353.92 473.534 354.963 473.567C356.416 473.567 357.825 473.567 359.157 473.567C361.22 473.567 363.15 473.445 364.903 473.278C365.547 473.245 366.168 473.179 366.756 473.101Z" fill="#1F4060"/>
<path d="M529.981 355.405C528.051 355.028 526.098 355.05 527.574 354.096C527.705 353.929 527.853 353.776 528.018 353.641C527.716 353.513 527.455 353.306 527.26 353.043C527.065 352.78 526.943 352.469 526.908 352.144C524.845 351.034 522.548 349.437 522.582 347.085C522.596 346.46 522.85 345.864 523.293 345.422C523.735 344.98 524.331 344.725 524.956 344.711C526.758 344.615 528.559 344.926 530.225 345.62C530.225 345.487 530.225 345.365 530.225 345.243C529.879 344.95 529.622 344.566 529.482 344.134C529.281 343.458 529.133 342.769 529.038 342.07L528.927 341.993C527.241 340.55 527.152 338.143 527.818 335.503C527.545 334.961 527.467 334.342 527.596 333.75C527.663 333.473 527.774 333.195 527.862 332.907C527.816 332.64 527.828 332.366 527.897 332.103C527.966 331.841 528.09 331.597 528.262 331.387L528.528 331.065C528.528 330.943 528.628 330.832 528.683 330.71C528.445 330.737 528.205 330.698 527.987 330.597C527.77 330.495 527.586 330.336 527.453 330.136C527.321 329.936 527.247 329.704 527.239 329.464C527.231 329.225 527.289 328.988 527.407 328.78C527.529 328.536 527.685 328.314 527.818 328.07C527.806 327.805 527.872 327.543 528.007 327.315C528.484 326.472 529.016 325.673 529.571 324.886C529.555 324.645 529.589 324.403 529.671 324.176C529.754 323.949 529.882 323.741 530.048 323.566C530.477 323.127 530.881 322.664 531.257 322.179C531.346 322.068 531.446 321.968 531.557 321.879C533.668 319.251 534.742 315.939 534.574 312.571C532.355 274.852 529.648 232.384 527.751 204.783C527.396 204.783 526.642 202.397 526.487 202.076C525.877 202.941 525.377 202.775 524.756 203.585C524.312 204.161 523.281 203.584 523.525 202.874C523.891 201.931 524.235 200.989 524.634 200.035C524.293 200.459 523.922 200.86 523.525 201.233C523.525 201.233 523.957 198.736 523.979 198.692C525.654 196.253 526.59 193.384 526.675 190.427C526.453 187.332 526.376 185.213 526.198 182.839C521.96 126.26 487.569 65.243 396.044 69.6806C339.021 72.4208 280.856 106.812 283.263 201.111C283.263 202.619 283.341 204.161 283.385 205.703C283.629 208.044 286.036 210.319 287.223 211.506C287.3 211.594 287.349 211.702 287.366 211.817C287.383 211.932 287.366 212.05 287.318 212.156C287.271 212.262 287.193 212.352 287.096 212.416C286.999 212.479 286.885 212.514 286.769 212.515C286.738 212.638 286.675 212.751 286.585 212.841C286.495 212.931 286.383 212.995 286.26 213.025C286.136 213.056 286.007 213.053 285.886 213.016C285.764 212.979 285.655 212.909 285.57 212.815C285.504 212.748 285.46 212.682 285.404 212.615C285.349 212.548 285.404 212.704 285.404 212.748C285.125 213.212 284.785 213.637 284.395 214.013C284.282 214.131 284.14 214.219 283.984 214.268C283.892 214.343 283.792 214.406 283.684 214.457C284.794 251.422 286.78 294.721 288.832 331.542C288.939 333.216 289.653 334.794 290.84 335.98C292.297 337.469 293.841 338.87 295.466 340.173C295.807 340.209 296.134 340.329 296.417 340.523C296.699 340.717 296.929 340.978 297.086 341.283C297.859 342.628 298.456 344.067 298.861 345.565C299.012 346.052 298.977 346.578 298.761 347.04C299.016 348.305 299.249 349.57 299.582 350.79L299.649 351.079C300.333 352.599 300.739 354.23 300.847 355.893C301.252 357.761 301.522 359.656 301.657 361.562C301.692 361.798 301.692 362.037 301.657 362.272C302.223 365.978 302.034 369.927 300.78 372.079C300.603 372.371 300.354 372.612 300.057 372.779C299.759 372.947 299.424 373.035 299.083 373.035C298.742 373.035 298.406 372.947 298.109 372.779C297.812 372.612 297.563 372.371 297.386 372.079C296.975 371.89 296.628 371.586 296.387 371.203C296.309 371.081 296.243 370.959 296.176 370.837H295.988C294.453 371.808 293.283 373.259 292.659 374.964C291.994 376.767 291.736 378.696 291.905 380.611C293.103 397.429 294.19 409.233 294.956 412.927C297.729 426.24 321.581 447.541 419.208 441.772C512.952 436.225 538.468 412.373 538.468 391.849C538.468 387.345 538.036 376.85 537.359 362.816C536.693 358.09 532.322 355.86 529.981 355.405Z" fill="#2C5777"/>
<path d="M432.11 421.07C429.68 398.405 419.907 401.035 415.835 400.824C384.705 399.271 351.734 398.605 320.971 393.28C316.034 393.69 315.224 401.645 316.677 414.358C317.687 423.322 323.544 430.999 330.168 431.765C349.66 436.513 379.225 438.31 418.342 436.424C423.889 436.18 433.397 433.151 432.11 421.07Z" fill="#346F93"/>
<path d="M450.515 226.393C450.293 226.393 440.841 222.954 436.87 223.642C434.285 224.085 431.7 224.562 429.104 225.039C426.464 224.924 423.82 224.954 421.183 225.128C411.331 225.905 401.502 226.959 391.617 227.236C382.31 227.491 313.682 223.908 308.779 224.407C307.215 224.562 302.777 224.962 303.52 231.363L303.432 231.541C303.445 231.484 303.477 231.434 303.52 231.396C304.63 234.392 307.714 234.791 309.067 235.08C314.06 236.122 321.371 236.244 327.406 242.912C347.264 264.867 343.004 297.55 330.734 309.176C329.672 310.164 328.693 311.236 327.805 312.382C325.997 314.779 323.933 317.53 324.632 322.522C326.463 335.713 343.847 339.529 356.45 338.73C379.514 338.83 379.514 323.132 387.513 308.854C398.829 288.686 409.157 281.042 426.963 275.328C433.719 273.171 440.742 271.965 447.831 271.745C454.92 271.579 459.479 264.856 460.111 254.361C461.321 235.778 455.774 226.049 450.515 226.393Z" fill="#346F93"/>
<path d="M529.98 355.405C528.05 355.028 526.097 355.05 527.573 354.096C527.703 353.928 527.852 353.776 528.016 353.641C527.715 353.513 527.453 353.306 527.258 353.043C527.063 352.78 526.942 352.469 526.907 352.143C525.563 351.49 524.369 350.564 523.401 349.425C516.179 352.332 508.835 354.839 501.502 356.991C481.755 362.805 461.497 367.131 441.328 371.125C421.747 375.019 402.056 378.713 382.164 380.533C362.583 382.319 342.226 382.84 322.778 379.579C315.944 378.469 307.136 376.55 300.513 372.39C300.308 372.626 300.051 372.81 299.761 372.928C299.472 373.046 299.159 373.094 298.848 373.068C298.536 373.042 298.236 372.943 297.97 372.779C297.704 372.615 297.48 372.39 297.318 372.124C296.907 371.935 296.56 371.63 296.319 371.247C296.242 371.125 296.175 371.003 296.108 370.881H295.92C294.386 371.852 293.216 373.303 292.592 375.008C291.926 376.811 291.668 378.74 291.837 380.655C291.837 381.209 294.7 390.784 331.032 396.774C370.532 403.28 410.766 404.028 450.481 398.993C519.097 390.118 536.37 368.207 537.313 364.136C537.313 363.703 537.313 363.282 537.313 362.849C536.692 358.09 532.321 355.86 529.98 355.405Z" fill="#468CAF"/>
<path d="M441.351 178.279C441.451 160.595 442.35 142.922 441.917 125.227C442.394 124.883 441.828 124.118 442.394 123.563C447.464 118.482 442.394 103.849 416.468 98.6018C402.889 95.8505 384.606 98.1137 370.982 100.466C344.834 104.959 313.028 119.503 307.114 164.811C303.786 190.327 318.852 204.638 342.171 208.443C376.751 214.09 429.092 209.098 442.405 202.974C452.068 198.536 450.171 190.604 450.171 190.604C450.226 185.201 444.746 181.84 441.351 178.279Z" fill="#346F93"/>
<path d="M335.681 274.142C337.312 293.068 330.222 310.941 316.355 311.917C304.584 312.738 293.291 298.171 290.983 279.312C288.676 260.452 294.544 241.326 308.023 239.473C321.503 237.621 333.817 252.52 335.681 274.142Z" fill="#121A26"/>
<path d="M203.231 251.199C195.21 253.008 187.633 253.207 181.82 251.377C176.006 249.546 172.168 245.83 171.891 241.392C171.613 236.955 173.355 226.87 200.602 226.504C227.848 226.138 231.265 233.638 231.265 237.598C231.399 239.65 228.337 241.792 223.278 244.254C216.866 247.288 210.145 249.616 203.231 251.199Z" fill="#3276A0"/>
<path d="M194.843 288.686C195.584 288.688 196.325 288.651 197.062 288.575C197.83 288.486 198.593 288.357 199.347 288.187C200.143 288.003 200.928 287.777 201.699 287.51C202.911 287.099 204.093 286.606 205.238 286.035C206.444 285.437 207.615 284.771 208.744 284.038L209.853 283.25C210.963 282.451 212.161 281.564 213.292 280.621C214.047 279.989 214.801 279.323 215.511 278.646L216.621 277.537C221.621 272.538 226.28 267.208 230.566 261.584C233.972 257.146 236.113 254.495 235.414 253.274C235.186 253.029 234.91 252.836 234.602 252.706C234.294 252.576 233.962 252.512 233.628 252.52C233.192 253.208 232.702 253.861 232.163 254.472C231.542 255.194 230.799 255.981 229.944 256.88L228.835 257.989C227.792 259.032 226.616 260.142 225.418 261.317L222.855 263.725C219.543 266.828 216.05 269.733 212.394 272.423C208.746 275.148 204.736 277.352 200.479 278.968C199.337 279.381 198.17 279.722 196.984 279.989C195.29 280.389 193.556 280.597 191.815 280.61C191.216 280.61 190.616 280.61 190.028 280.532C188.609 280.411 187.211 280.109 185.868 279.634C184.637 279.181 183.481 278.545 182.44 277.748C182.44 279.554 182.914 281.329 183.816 282.895C184.338 283.791 184.98 284.612 185.724 285.336C186.507 286.049 187.38 286.657 188.32 287.144C189.281 287.643 190.303 288.016 191.36 288.254C192.502 288.525 193.67 288.67 194.843 288.686Z" fill="#121A26"/>
<path d="M242.358 261.495C242.259 260.619 242.125 259.986 241.726 259.753C242.125 259.986 242.247 260.619 242.358 261.495Z" fill="#2C5777"/>
<path d="M211.019 310.719C212.584 311.686 214.382 312.211 216.222 312.239C214.382 312.213 212.583 311.688 211.019 310.719Z" fill="#2C5777"/>
<path d="M234.094 250.545C234.019 250.394 233.952 250.238 233.894 250.079L233.728 249.636C233.628 249.336 233.439 248.959 233.295 248.415C232.851 247.072 232.48 245.705 232.186 244.322C231.853 242.713 231.609 240.994 231.454 239.729C231.454 239.074 231.343 238.531 231.309 238.153V237.543C231.442 239.596 228.381 241.737 223.322 244.2C216.913 247.252 210.191 249.599 203.275 251.2C195.254 253.008 187.677 253.208 181.864 251.377C176.05 249.547 172.212 245.83 171.935 241.393C171.935 241.393 171.935 241.87 172.012 242.691L172.334 246.141C172.645 248.992 173.199 252.797 174.009 256.669C174.783 260.278 175.757 263.841 176.927 267.342C177.382 268.795 177.87 270.015 178.192 270.869L178.702 272.212L178.99 272.933L179.301 273.654C179.995 275.287 181.104 276.71 182.518 277.781C183.559 278.579 184.715 279.215 185.946 279.667C187.289 280.143 188.687 280.445 190.106 280.566C190.694 280.621 191.294 280.643 191.893 280.643C193.634 280.631 195.368 280.422 197.062 280.022C198.248 279.756 199.415 279.415 200.557 279.001C204.814 277.385 208.824 275.182 212.472 272.456C216.128 269.766 219.621 266.862 222.933 263.758L225.496 261.351C226.739 260.164 227.87 259.054 228.913 258.023L230.022 256.913C230.888 256.015 231.631 255.227 232.241 254.506C232.78 253.894 233.27 253.242 233.706 252.553C233.922 252.272 234.07 251.944 234.137 251.595C234.204 251.247 234.19 250.887 234.094 250.545Z" fill="#2C5777"/>
<path d="M232.208 313.581C232.787 313.154 233.339 312.69 233.861 312.194C234.413 311.662 234.935 311.099 235.425 310.508C235.945 309.898 236.434 309.261 236.889 308.6C237.615 307.561 238.278 306.479 238.875 305.36C239.514 304.174 240.091 302.956 240.606 301.711C240.772 301.289 240.95 300.856 241.116 300.413C241.626 299.103 242.081 297.728 242.492 296.308C242.773 295.369 243.028 294.403 243.257 293.412L243.601 291.915C245.054 284.982 245.797 277.919 245.82 270.836C245.88 268.576 245.78 266.315 245.52 264.069C245.454 263.658 245.376 263.292 245.298 262.959C245.235 262.65 245.15 262.346 245.043 262.05C244.989 261.838 244.889 261.642 244.748 261.475C244.608 261.308 244.432 261.174 244.233 261.085C243.734 260.896 243.191 261.018 242.381 261.528C242.407 263.439 242.285 265.35 242.015 267.242C242.015 267.741 241.893 268.251 241.826 268.784C241.637 270.226 241.393 271.835 241.105 273.554C240.905 274.664 240.706 275.773 240.484 277.027C239.674 281.483 238.562 285.879 237.155 290.184C235.778 294.539 233.835 298.694 231.375 302.543C230.702 303.553 229.961 304.517 229.157 305.427C228.05 306.745 226.804 307.939 225.44 308.988C224.952 309.365 224.464 309.698 223.965 310.02C221.66 311.527 218.952 312.3 216.199 312.239C217.286 313.683 218.721 314.828 220.37 315.567C222.249 316.348 224.31 316.583 226.317 316.244C228.454 315.805 230.466 314.895 232.208 313.581Z" fill="#121A26"/>
<path d="M224.021 309.986C224.52 309.665 225.008 309.332 225.496 308.955C226.86 307.906 228.106 306.712 229.213 305.394C230.017 304.483 230.758 303.52 231.431 302.509C233.891 298.661 235.834 294.505 237.211 290.15C238.618 285.845 239.73 281.449 240.539 276.993C240.761 275.795 240.961 274.63 241.161 273.521C241.449 271.801 241.693 270.192 241.882 268.75C241.948 268.218 242.015 267.707 242.07 267.208C242.341 265.316 242.463 263.406 242.437 261.495C242.447 263.402 242.321 265.308 242.059 267.197C242.059 267.696 241.937 268.207 241.871 268.739C241.682 270.192 241.438 271.79 241.139 273.51L240.528 276.993C239.714 281.445 238.602 285.837 237.2 290.139C235.823 294.494 233.88 298.649 231.42 302.498C230.746 303.508 230.005 304.472 229.201 305.382C228.091 306.701 226.841 307.895 225.474 308.944C224.986 309.31 224.498 309.654 223.998 309.975C221.695 311.486 218.986 312.26 216.233 312.194C218.992 312.264 221.708 311.494 224.021 309.986Z" fill="#121A26"/>
<path d="M240.451 276.993L241.061 273.51C241.36 271.79 241.604 270.182 241.793 268.739C241.86 268.207 241.926 267.697 241.982 267.197C242.243 265.308 242.369 263.403 242.359 261.495C242.248 260.619 242.126 259.986 241.727 259.753L241.36 259.554C241.36 259.554 240.917 259.232 240.251 258.788C239.907 258.566 239.619 258.222 239.208 257.945C238.798 257.668 238.487 257.246 238.099 256.836C237.71 256.425 237.367 256.092 237.089 255.649C236.934 255.438 236.779 255.249 236.623 255.072L236.246 254.484L235.902 254.007L235.669 253.585L235.458 253.219C236.102 254.439 234.016 257.091 230.61 261.528C226.345 267.17 221.704 272.518 216.721 277.537L215.611 278.646C214.868 279.323 214.114 279.989 213.393 280.621C212.283 281.564 211.107 282.452 209.953 283.25L208.844 284.038C207.715 284.771 206.544 285.438 205.338 286.035C204.194 286.607 203.011 287.1 201.799 287.51C201.028 287.777 200.243 288.003 199.448 288.187C198.693 288.357 197.93 288.486 197.162 288.575C196.425 288.651 195.684 288.688 194.943 288.686C193.782 288.678 192.625 288.545 191.493 288.287C190.436 288.049 189.415 287.677 188.453 287.178C187.513 286.69 186.641 286.082 185.857 285.369C185.114 284.646 184.472 283.825 183.949 282.929L184.748 284.282L185.68 285.835L187 287.81L188.586 290.129L190.528 292.647C191.848 294.4 193.479 296.142 195.065 297.894C196.652 299.647 198.394 301.223 200.113 302.731C201.833 304.24 203.441 305.527 204.85 306.548C206.259 307.568 207.491 308.423 208.345 309.011C208.766 309.31 209.11 309.521 209.343 309.654L209.698 309.876L211.118 310.73C212.688 311.707 214.495 312.236 216.344 312.261C219.097 312.327 221.806 311.553 224.109 310.042C224.609 309.72 225.097 309.377 225.585 309.011C226.952 307.962 228.202 306.768 229.312 305.449C230.116 304.539 230.857 303.575 231.531 302.565C233.991 298.716 235.934 294.561 237.311 290.206C238.652 285.877 239.701 281.463 240.451 276.993Z" fill="#2C5777"/>
<path d="M273.998 315.689C274.305 315.04 274.571 314.373 274.797 313.692C275.019 312.993 275.219 312.261 275.396 311.473C275.574 310.686 275.707 309.931 275.818 309.122C275.987 307.874 276.087 306.619 276.117 305.361C276.117 304.052 276.117 302.709 276.017 301.322C276.017 300.868 275.929 300.402 275.895 299.936C275.751 298.527 275.54 297.085 275.285 295.631C275.108 294.655 274.908 293.679 274.686 292.691C274.564 292.192 274.453 291.704 274.331 291.194C273.384 287.444 272.19 283.76 270.759 280.166C269.589 277.138 268.255 274.175 266.765 271.291C265.754 269.241 264.55 267.29 263.171 265.467C262.061 264.069 261.107 263.403 260.209 263.437C259.865 263.474 259.541 263.613 259.277 263.836C258.937 264.091 258.644 264.402 258.411 264.757C259.55 266.362 260.492 268.098 261.218 269.927C261.407 270.404 261.618 270.892 261.817 271.391C262.372 272.756 262.927 274.253 263.515 275.906C263.881 277.016 264.258 278.125 264.624 279.235C265.991 283.561 267.044 287.98 267.775 292.458C268.551 296.948 268.745 301.52 268.352 306.06C268.231 307.255 268.05 308.444 267.808 309.621C267.463 311.305 266.954 312.951 266.288 314.535C266.044 315.079 265.789 315.645 265.523 316.111C264.333 318.475 262.483 320.444 260.198 321.78C260.966 322.144 261.774 322.419 262.605 322.601C263.424 322.753 264.26 322.794 265.09 322.723C268.928 322.534 272.112 319.816 273.998 315.689Z" fill="#121A26"/>
<path d="M258.412 264.845C258.201 264.528 257.929 264.258 257.61 264.05C257.292 263.842 256.934 263.701 256.559 263.636C256.939 263.704 257.3 263.849 257.621 264.063C257.942 264.277 258.215 264.554 258.423 264.879L258.412 264.845Z" fill="#2C5777"/>
<path d="M255.228 323.144H255.339C257.038 323.184 258.716 322.754 260.187 321.901H260.131C258.643 322.76 256.945 323.19 255.228 323.144Z" fill="#2C5777"/>
<path d="M264.613 279.344C264.258 278.235 263.881 277.059 263.504 276.016C262.938 274.363 262.394 272.865 261.806 271.501C261.606 271.002 261.396 270.514 261.207 270.036C260.481 268.207 259.539 266.472 258.4 264.867C258.192 264.542 257.919 264.264 257.598 264.051C257.278 263.837 256.916 263.692 256.537 263.624H256.015C255.838 263.637 255.66 263.637 255.483 263.624L254.085 263.524L252.121 263.28C251.4 263.114 250.635 263.058 249.902 262.837C249.17 262.615 248.305 262.482 247.684 262.26C247.062 262.038 246.408 261.849 245.875 261.694C244.943 261.283 244.311 261.062 244.311 261.062C244.51 261.151 244.686 261.285 244.826 261.452C244.966 261.619 245.067 261.815 245.121 262.027C245.228 262.323 245.313 262.627 245.376 262.936C245.454 263.269 245.531 263.635 245.598 264.046C245.858 266.292 245.958 268.553 245.897 270.813C245.875 277.896 245.132 284.959 243.679 291.892L243.335 293.389C243.098 294.373 242.843 295.338 242.569 296.285C242.159 297.705 241.704 299.08 241.194 300.39C241.027 300.833 240.85 301.266 240.683 301.688C240.169 302.933 239.591 304.151 238.953 305.337C238.356 306.456 237.693 307.537 236.967 308.577C236.512 309.238 236.023 309.874 235.502 310.485C235.013 311.076 234.49 311.639 233.938 312.171C233.416 312.667 232.864 313.13 232.285 313.558C230.562 314.873 228.569 315.789 226.45 316.243C224.443 316.582 222.382 316.348 220.503 315.566C220.503 315.566 222.567 316.431 225.684 317.641C227.226 318.151 229.012 318.75 230.987 319.349C232.962 319.948 234.948 320.381 237 320.88C239.052 321.379 241.171 321.701 243.124 322.056C245.077 322.411 246.974 322.566 248.56 322.733L252.432 323.01C253.364 323.077 253.896 323.077 253.896 323.077H255.305C257.025 323.116 258.722 322.679 260.209 321.812H260.264C262.55 320.476 264.399 318.507 265.589 316.143C265.856 315.644 266.111 315.111 266.355 314.568C267.021 312.983 267.53 311.337 267.875 309.653C268.117 308.476 268.298 307.287 268.418 306.092C268.811 301.552 268.617 296.981 267.841 292.491C267.082 288.037 266.003 283.643 264.613 279.344Z" fill="#2C5777"/>
<path d="M309.333 303.175C309.333 302.509 309.333 301.833 309.333 301.123C309.333 300.413 309.333 299.691 309.211 298.904C309.089 298.116 309.022 297.384 308.9 296.596C308.7 295.42 308.445 294.189 308.135 292.935C307.824 291.682 307.458 290.395 307.025 289.075C306.881 288.642 306.726 288.198 306.57 287.754C306.104 286.423 305.583 285.081 305.006 283.716C304.618 282.806 304.207 281.897 303.775 280.976C303.553 280.521 303.32 280.066 303.098 279.6C299.993 273.153 295.793 267.293 290.684 262.283C286.468 258.355 282.663 256.503 280.222 257.601C279.302 258.061 278.591 258.854 278.236 259.82C280.185 260.666 281.961 261.866 283.473 263.359C283.861 263.703 284.249 264.069 284.649 264.468C285.758 265.578 286.867 266.754 287.977 268.107C288.698 268.995 289.43 269.926 290.196 270.914C292.871 274.586 295.203 278.497 297.163 282.596C299.161 286.68 300.712 290.969 301.789 295.387C302.066 296.596 302.299 297.772 302.466 298.904C302.711 300.56 302.826 302.233 302.809 303.907C302.809 304.484 302.787 305.05 302.743 305.604C302.622 308.028 301.856 310.376 300.524 312.405C301.929 312.643 303.373 312.474 304.684 311.917C307.48 310.63 309.066 307.435 309.333 303.175Z" fill="#121A26"/>
<path d="M278.271 259.82C277.366 259.425 276.348 259.373 275.408 259.676H275.286C276.26 259.378 277.309 259.445 278.237 259.864L278.271 259.82Z" fill="#2C5777"/>
<path d="M296.919 315.145L297.118 315.068C298.469 314.532 299.628 313.605 300.447 312.405H300.336C299.502 313.645 298.31 314.601 296.919 315.145Z" fill="#2C5777"/>
<path d="M290.152 270.913C289.431 269.926 288.698 268.994 287.933 268.107C286.824 266.753 285.714 265.533 284.605 264.468C284.205 264.068 283.817 263.702 283.429 263.358C281.917 261.866 280.141 260.666 278.192 259.82V259.908C277.264 259.489 276.215 259.422 275.242 259.72L274.642 259.964L273.955 260.219L272.157 260.862C270.704 261.339 268.829 261.972 266.999 262.393C265.427 262.785 263.834 263.089 262.228 263.303C260.964 263.492 260.165 263.525 260.165 263.525C261.063 263.525 262.04 264.157 263.127 265.555C264.506 267.378 265.71 269.329 266.721 271.379C268.212 274.264 269.545 277.226 270.715 280.254C272.146 283.848 273.34 287.532 274.287 291.282C274.409 291.792 274.52 292.28 274.642 292.78C274.864 293.767 275.064 294.743 275.242 295.72C275.497 297.173 275.707 298.615 275.852 300.024C275.852 300.49 275.929 300.956 275.974 301.411C276.074 302.797 276.107 304.14 276.074 305.449C276.043 306.707 275.943 307.963 275.774 309.21C275.663 310.02 275.519 310.796 275.352 311.562C275.186 312.327 274.975 313.048 274.753 313.781C274.528 314.462 274.261 315.128 273.955 315.777C272.069 319.893 268.885 322.622 265.079 322.922C265.079 322.922 267.198 322.789 270.271 322.356C273.975 321.851 277.649 321.148 281.277 320.248C285.182 319.316 288.832 318.129 291.527 317.22L294.722 316.11L295.91 315.666L296.919 315.267C298.322 314.721 299.522 313.757 300.358 312.505H300.469C301.801 310.476 302.567 308.128 302.688 305.704C302.732 305.149 302.754 304.584 302.754 304.007C302.771 302.332 302.656 300.659 302.411 299.003C302.244 297.894 302.011 296.696 301.734 295.486C300.657 291.068 299.106 286.78 297.108 282.695C295.157 278.562 292.828 274.618 290.152 270.913Z" fill="#2C5777"/>
<path d="M326.95 271.28C325.286 257.323 318.829 251.444 315.945 249.291C311.452 245.963 306.149 245.408 302.632 246.928L301.312 247.483L300.202 248.016L298.882 248.615L297.296 249.369C294.988 250.478 292.17 251.876 289.652 253.13C287.134 254.383 284.771 255.548 283.073 256.358L280.3 257.634C282.74 256.525 286.546 258.388 290.761 262.316C295.871 267.326 300.071 273.186 303.176 279.633C303.397 280.099 303.63 280.554 303.852 281.009C304.285 281.93 304.695 282.839 305.084 283.749C305.661 285.114 306.193 286.456 306.648 287.787C306.803 288.231 306.959 288.675 307.103 289.107C307.535 290.417 307.902 291.715 308.212 292.968C308.523 294.222 308.778 295.453 308.978 296.629C309.1 297.417 309.211 298.194 309.288 298.937C309.366 299.68 309.399 300.423 309.41 301.156C309.421 301.888 309.41 302.542 309.41 303.208C309.155 307.468 307.569 310.663 304.718 311.95L308.534 310.186C310.753 309.077 313.626 307.723 316.3 306.403C318.973 305.083 329.868 295.808 326.95 271.28Z" fill="#2C5777"/>
<path d="M256.881 283.428C255.803 283.449 254.767 283.85 253.955 284.561C253.143 285.271 252.608 286.245 252.444 287.311C252.374 287.905 252.428 288.508 252.601 289.08C252.775 289.653 253.065 290.184 253.453 290.639C254.208 291.506 255.138 292.202 256.182 292.68C257.405 293.264 258.761 293.509 260.11 293.39C260.698 293.39 261.219 293.302 261.74 293.279C263.76 293.146 265.801 292.947 267.842 292.714C267.313 289.347 266.59 286.013 265.679 282.729C262.757 283.143 259.825 283.376 256.881 283.428Z" fill="#1F4060"/>
<path d="M274.465 291.804C281.275 290.657 287.916 288.667 294.234 285.88C295.432 285.347 296.631 284.77 297.829 284.16C297.596 283.639 297.374 283.117 297.119 282.596C295.843 279.948 294.413 277.377 292.836 274.897C286.021 278.133 278.823 280.493 271.414 281.919C272.557 284.966 273.531 288.073 274.332 291.227L274.465 291.804Z" fill="#1F4060"/>
<path d="M313.017 265.278C312.421 264.876 311.715 264.671 310.996 264.691C310.278 264.71 309.584 264.955 309.012 265.389C305.704 267.777 302.255 269.963 298.683 271.935C300.325 274.427 301.807 277.021 303.121 279.701C303.321 280.111 303.509 280.51 303.709 280.91C306.209 279.36 308.61 277.655 310.898 275.807C312.537 274.544 313.793 272.85 314.525 270.914C315.235 268.784 315.102 266.798 313.017 265.278Z" fill="#1F4060"/>
<path d="M213.926 271.356C217.254 268.816 220.294 266.176 222.945 263.746L225.508 261.339L226.018 260.851L225.674 260.262C223.048 255.744 220.981 250.924 219.517 245.907C214.792 247.919 209.913 249.552 204.928 250.788C206.005 258.044 209.721 265.233 213.926 271.356Z" fill="#1F4060"/>
<path d="M230.056 280.732C232.441 278.735 232.585 275.651 232.141 273.121C231.587 270.004 229.49 267.364 228.114 264.723C224.892 268.849 221.44 272.79 217.775 276.527C221.081 280.233 227.437 282.917 230.056 280.732Z" fill="#1F4060"/>
<path d="M260.753 305.949C254.907 307.391 234.128 311.019 235.37 320.526L236.923 320.903C238.964 321.414 241.095 321.724 243.047 322.079C245 322.434 246.897 322.59 248.483 322.756L252.355 323.033C253.287 323.1 253.819 323.1 253.819 323.1H255.228C256.948 323.14 258.646 322.702 260.132 321.835H260.187C262.473 320.5 264.322 318.531 265.512 316.166C265.779 315.667 266.034 315.135 266.278 314.591C266.944 313.006 267.453 311.36 267.798 309.676C268.04 308.499 268.221 307.311 268.341 306.115C268.397 305.583 268.419 305.006 268.452 304.495C267.698 304.595 262.561 305.494 260.753 305.949Z" fill="#1F4060"/>
<path d="M301.745 295.409C301.745 295.232 301.634 295.043 301.589 294.854C296.919 297.839 283.229 302.066 276.073 303.519C276.073 304.162 276.073 304.795 276.073 305.416C276.043 306.674 275.943 307.93 275.774 309.177C275.663 309.987 275.519 310.763 275.352 311.529C275.186 312.294 274.975 313.015 274.753 313.748C274.527 314.429 274.26 315.095 273.954 315.744C272.068 319.86 268.884 322.589 265.079 322.889C265.079 322.889 267.198 322.756 270.271 322.323C273.975 321.818 277.648 321.115 281.276 320.215C285.181 319.283 288.831 318.096 291.527 317.187L294.722 316.077L295.909 315.633L296.919 315.234C298.321 314.688 299.522 313.724 300.358 312.472H300.469C301.801 310.443 302.567 308.095 302.688 305.671C302.732 305.116 302.754 304.551 302.754 303.974C302.771 302.299 302.656 300.626 302.41 298.97C302.255 297.772 302.022 296.596 301.745 295.409Z" fill="#1F4060"/>
<path d="M326.95 271.28C326.574 267.868 325.781 264.514 324.587 261.295C324.587 267.419 327.439 281.475 307.947 291.881L308.224 292.924C308.535 294.178 308.79 295.409 308.989 296.585C309.111 297.373 309.222 298.15 309.3 298.893C309.378 299.636 309.411 300.379 309.422 301.112C309.433 301.844 309.422 302.498 309.422 303.164C309.167 307.424 307.58 310.619 304.729 311.906L308.546 310.142C310.764 309.033 313.638 307.679 316.311 306.359C318.985 305.039 329.868 295.809 326.95 271.28Z" fill="#1F4060"/>
<path d="M241.981 267.197C242.243 265.308 242.369 263.402 242.359 261.495C242.248 260.619 242.126 259.986 241.726 259.753L241.36 259.554C241.36 259.554 240.916 259.232 240.251 258.788C239.907 258.566 239.618 258.222 239.208 257.945C238.797 257.668 232.607 264.734 241.427 271.701C241.582 270.67 241.737 269.66 241.859 268.739C241.859 268.207 241.926 267.674 241.981 267.197Z" fill="#3276A0"/>
<path d="M263.515 275.994C262.949 274.341 262.405 272.844 261.817 271.479C261.618 270.98 261.407 270.492 261.218 270.015C260.492 268.186 259.55 266.45 258.412 264.845C258.203 264.521 257.93 264.243 257.61 264.029C257.289 263.815 256.927 263.67 256.548 263.602H256.026C255.849 263.615 255.671 263.615 255.494 263.602L254.096 263.503L252.132 263.259C251.411 263.092 250.646 263.037 249.914 262.815C249.181 262.593 248.316 262.46 247.695 262.238C247.074 262.016 246.419 261.827 245.886 261.672C244.955 261.262 244.322 261.04 244.322 261.04C244.521 261.13 244.697 261.263 244.837 261.43C244.977 261.597 245.078 261.794 245.132 262.005C245.239 262.302 245.324 262.606 245.387 262.915C245.465 263.247 245.543 263.614 245.609 264.024C245.869 266.27 245.969 268.531 245.909 270.791C245.909 271.812 245.909 272.933 245.831 274.12C251.637 276.09 257.754 276.985 263.881 276.76C263.681 276.549 263.604 276.238 263.515 275.994Z" fill="#3276A0"/>
<path d="M263.172 265.555C264.551 267.378 265.755 269.329 266.766 271.379C267.521 272.81 268.286 274.419 269.063 276.161C270.893 275.895 272.713 275.551 274.488 275.151C279.699 273.979 284.807 272.391 289.764 270.403C289.165 269.604 288.566 268.839 287.978 268.107C286.869 266.753 285.759 265.533 284.65 264.468C284.25 264.068 283.862 263.702 283.474 263.358C281.962 261.866 280.186 260.666 278.237 259.82V259.908C277.309 259.489 276.26 259.422 275.286 259.72L274.687 259.964L274 260.219L272.202 260.862C270.749 261.339 268.874 261.972 267.044 262.393C265.472 262.785 263.879 263.089 262.273 263.303C261.009 263.492 260.21 263.525 260.21 263.525C261.108 263.492 262.085 264.157 263.172 265.555Z" fill="#3276A0"/>
<path d="M290.718 262.316C292.513 264.013 294.174 265.845 295.688 267.797C299.239 266.117 302.684 264.224 306.005 262.128C310.596 259.159 314.868 255.724 318.752 251.877C317.881 250.953 316.931 250.106 315.912 249.347C311.419 246.019 306.116 245.464 302.599 246.984L301.279 247.539L300.17 248.071L298.85 248.671L297.263 249.425C294.956 250.534 292.138 251.932 289.62 253.186C287.101 254.439 284.738 255.604 283.041 256.414L280.267 257.69C282.708 256.581 286.502 258.389 290.718 262.316Z" fill="#3276A0"/>
<path d="M187.3 266.564C186.667 266.871 186.109 267.31 185.661 267.852C185.214 268.394 184.889 269.026 184.708 269.705C184.527 270.384 184.494 271.094 184.612 271.787C184.73 272.48 184.996 273.139 185.391 273.72C186.689 276.046 188.103 278.304 189.629 280.487C190.366 280.572 191.107 280.612 191.848 280.609C193.589 280.597 195.323 280.388 197.018 279.988C198.203 279.721 199.37 279.381 200.512 278.967C202.734 278.16 204.88 277.157 206.925 275.972C205.719 274.53 204.61 273.05 203.597 271.534C200.679 267.529 192.148 264.478 187.3 266.564Z" fill="#3276A0"/>
<path d="M216.145 303.851C217.557 304.257 219.06 304.218 220.449 303.739C221.839 303.261 223.047 302.367 223.91 301.177C228.991 294.909 224.11 290.328 224.11 290.328C219.898 287.777 215.942 284.827 212.295 281.519C211.529 282.129 210.753 282.717 209.976 283.25L208.867 284.037C207.738 284.77 206.567 285.437 205.361 286.034C204.216 286.606 203.034 287.099 201.822 287.51C201.051 287.776 200.265 288.002 199.47 288.187C198.716 288.356 197.953 288.486 197.185 288.575C196.885 288.575 196.575 288.63 196.264 288.641C201.954 294.832 208.682 299.979 216.145 303.851Z" fill="#3276A0"/>
<path d="M527.396 202.22C527.229 201.333 526.795 200.518 526.153 199.883C525.511 199.249 524.69 198.826 523.801 198.67C525.698 199.779 524.323 204.905 524.323 204.905C524.323 204.905 522.592 210.707 490.519 217.241C467.899 221.856 437.912 225.229 406.083 226.749C396.099 227.226 386.214 227.503 376.629 227.592C351.335 227.791 328.237 226.571 311.585 224.142C288.033 220.714 286.302 216.309 286.291 216.309C286.445 215.959 286.672 215.645 286.957 215.388C286.147 215.233 285.67 212.449 284.827 211.994C284.486 212.227 284.202 212.534 283.995 212.891C283.788 213.247 283.663 213.646 283.628 214.057C283.628 215.167 283.628 214.057 283.706 216.653C283.95 225.806 323.267 231.364 376.651 230.92C386.136 230.842 396.043 230.565 406.239 230.077C473.812 226.86 528.172 215.522 527.651 204.76C527.642 203.908 527.556 203.058 527.396 202.22Z" fill="#468CAF"/>
<path d="M523.802 198.67C523.185 199.921 522.242 200.982 521.073 201.743C518.399 203.651 510.234 207.867 486.77 212.382C464.682 216.631 435.982 219.771 405.951 221.202C395.966 221.679 386.137 221.956 376.585 222.034C352.633 222.233 331.266 221.191 314.814 219.016C298.362 216.842 291.894 214.19 289.486 212.804C288.425 212.253 287.434 211.574 286.535 210.784C285.936 210.894 285.396 211.217 285.016 211.695C284.637 212.172 284.443 212.771 284.472 213.381C284.916 222.511 323.234 228.024 376.629 227.592C386.115 227.514 396.022 227.237 406.217 226.749C473.779 223.52 526.365 212.826 526.387 202.053C526.387 200.223 525.022 198.67 523.802 198.67Z" fill="#121A26"/>
<path d="M390.674 59.2968C366.733 61.4268 359.843 67.3288 360.032 73.2974C360.265 80.8634 360.132 76.6256 360.132 76.6256C360.132 76.6256 365.934 80.2422 393.702 78.4117C420.217 76.6589 426.019 71.8663 426.019 71.8663C426.019 71.8663 426.174 71.2561 425.353 67.2623C424.532 63.2684 415.835 57.0447 390.674 59.2968Z" fill="#2C5777"/>
<path d="M425.354 67.2064C424.999 65.4868 423.135 63.379 419.219 61.6594C420.173 67.7722 411.675 70.2461 402.057 72.1099C393.071 73.8406 375.431 74.1845 360.055 72.3984C360.038 72.6866 360.038 72.9755 360.055 73.2637C360.055 74.8058 360.133 75.8486 360.155 76.5919C360.155 76.5919 365.957 80.2085 393.725 78.378C420.24 76.6252 426.042 71.8326 426.042 71.8326C426.042 71.8326 426.175 71.2002 425.354 67.2064Z" fill="#1F4060"/>
<path d="M391.561 67.3169C391.406 65.3644 387.823 64.6765 381.3 64.6876C375.242 64.6876 368.286 65.8858 368.076 68.6814C367.92 70.756 375.42 70.7893 382.032 70.2013C386.37 69.813 391.739 69.6133 391.561 67.3169Z" fill="#468CAF"/>
<path d="M411.208 65.4536C411.291 65.3606 411.365 65.2604 411.43 65.1542C411.707 64.7668 411.844 64.2972 411.82 63.8218C411.796 63.3465 411.612 62.8933 411.297 62.536C410.975 62.2482 410.587 62.0433 410.167 61.9389C409.748 61.8345 409.309 61.8338 408.89 61.9369C407.359 62.1477 404.885 63.2238 405.295 65.0321C405.301 65.4483 405.468 65.8459 405.761 66.1415L405.994 66.2968C406.219 66.4997 406.482 66.6561 406.767 66.757C407.053 66.8579 407.356 66.9014 407.658 66.8848C408.747 66.9606 409.825 66.6328 410.687 65.964C410.784 65.8962 410.877 65.8221 410.964 65.7421L411.053 65.6534L411.208 65.4536Z" fill="#468CAF"/>
<path d="M392.537 62.7794C395.527 62.4151 398.408 61.4368 401.002 59.9061C400.148 56.5779 396.331 41.5234 393.347 31.3725C391.217 24.1503 383.063 25.3817 382.664 32.615L380.445 60.9933C384.006 62.9015 389.209 63.1899 392.537 62.7794Z" fill="#2C5777"/>
<path d="M392.538 62.7795C395.527 62.4151 398.409 61.4368 401.002 59.9061C400.148 56.5779 396.332 41.5234 393.347 31.3725C393.123 30.2949 392.618 29.2956 391.883 28.4756C391.149 27.6555 390.211 27.0437 389.165 26.7019C390.796 28.7099 391.328 32.9589 391.972 37.6406C392.649 42.5219 393.913 49.9548 391.683 52.6285C391.086 53.4413 390.322 54.1173 389.443 54.6113C388.563 55.1053 387.588 55.406 386.583 55.4932C385.578 55.5803 384.567 55.452 383.615 55.1167C382.664 54.7815 381.795 54.2472 381.066 53.5493L380.501 60.9933C384.006 62.9015 389.209 63.1899 392.538 62.7795Z" fill="#1F4060"/>
<path d="M388.632 40.6032C388.821 45.1406 387.878 46.4275 386.669 46.4719C385.459 46.5163 384.45 45.296 384.228 40.7585C384.006 36.2211 384.783 30.0861 386.003 30.0417C387.223 29.9974 388.455 36.0658 388.632 40.6032Z" fill="#468CAF"/>
<path d="M335.606 191.839C367.23 200.203 441.366 196.276 470.759 183.885C493.03 174.511 492.072 145.137 468.591 131.259C441.744 115.407 362.465 117.659 334.333 137.826C311.205 154.388 314.18 186.148 335.606 191.839Z" fill="#121A26"/>
<path d="M474.911 136.364C482.882 146.065 482.743 158.549 480.296 165.654C474.583 182.329 446.951 186.145 406.846 189.423C371.243 192.327 335.501 191.876 321.552 181.185C322.898 183.714 324.834 185.971 327.235 187.812C329.637 189.652 332.452 191.036 335.501 191.876C367.144 200.169 441.326 196.276 470.737 183.99C490.852 175.619 492.013 151.202 474.911 136.364Z" fill="#273C56"/>
<path d="M350.555 165.733C349.842 160.848 354.944 154.789 361.655 153.753C368.691 152.726 375.109 157.136 375.913 162.412" stroke="#43E0BB" stroke-width="5" stroke-linecap="round" stroke-linejoin="round"/>
<path d="M449.122 157.861C448.772 152.102 443.398 147.425 436.61 147.139C429.514 146.808 424.123 151.194 423.558 157.296" stroke="#43E0BB" stroke-width="5" stroke-linecap="round" stroke-linejoin="round"/>
<path d="M459.002 101.01C459.967 103.772 462.907 105.447 465.381 106.701C467.855 107.954 470.928 109.563 473.657 108.354C474.259 108.082 474.799 107.693 475.247 107.208C475.695 106.724 476.041 106.154 476.265 105.533C476.488 104.912 476.585 104.253 476.549 103.594C476.512 102.935 476.344 102.29 476.054 101.697C474.944 99.279 472.548 97.5927 470.351 96.2503C468.715 95.2239 466.853 94.611 464.926 94.4642C463.585 94.3498 462.242 94.6728 461.099 95.385C460.128 95.9099 459.38 96.7693 458.995 97.8036C458.609 98.838 458.612 99.9772 459.002 101.01Z" fill="#346F93"/>
<path d="M531.334 322.035C529.393 324.253 525.987 326.86 521.205 329.49C519.749 330.295 518.136 330.776 516.477 330.899C514.818 331.021 513.152 330.783 511.593 330.2C510.035 329.617 508.622 328.703 507.45 327.521C506.279 326.34 505.378 324.918 504.808 323.355C495.112 296.075 468.198 278.291 439.354 282.163C414.404 285.491 395.111 304.14 388.987 327.803C387.037 335.042 382.62 341.373 376.498 345.701C370.377 350.03 362.937 352.085 355.462 351.511C321.98 349.026 300.225 343.324 292.858 338.121C292.858 338.121 293.901 359.809 294.412 367.231C294.412 367.653 294.877 373.999 294.988 374.354C295.676 384.815 333.762 398.483 416.268 396.641C484.418 395.11 533.808 372.39 533.12 360.253C533.12 360.087 531.334 322.035 531.334 322.035Z" fill="#121A26"/>
<path d="M486.703 303.375C491.556 309.339 495.706 315.842 499.073 322.756C501.735 328.303 504.476 332.352 511.276 331.997C512.552 331.919 515.514 331.165 516.734 330.887C514.209 331.016 511.706 330.357 509.572 329.002C507.438 327.646 505.777 325.661 504.819 323.321C495.334 296.629 469.319 279.045 441.24 281.93C462.918 281.963 476.785 291.315 486.703 303.375Z" fill="#273C56"/>
<path d="M477.203 338.394C477.345 318.444 462.71 302.167 444.513 302.037C426.316 301.907 411.449 317.973 411.306 337.922C411.164 357.871 425.799 374.149 443.996 374.279C462.193 374.409 477.06 358.343 477.203 338.394Z" fill="#273C56"/>
<path d="M454.112 373.685C472.042 370.575 483.813 352.119 480.403 332.463C476.994 312.807 459.695 299.394 441.766 302.504C423.836 305.614 412.065 324.069 415.475 343.725C418.884 363.381 436.183 376.795 454.112 373.685Z" fill="#2C5777"/>
<path d="M451.751 360.076C462.823 358.156 470.091 346.757 467.986 334.617C465.88 322.477 455.197 314.192 444.126 316.112C433.054 318.033 425.786 329.431 427.892 341.571C429.997 353.711 440.68 361.996 451.751 360.076Z" fill="#121A26"/>
<path d="M451.052 356.043C460.095 354.474 466.032 345.167 464.313 335.255C462.594 325.342 453.869 318.578 444.826 320.146C435.782 321.715 429.845 331.022 431.565 340.935C433.284 350.847 442.009 357.612 451.052 356.043Z" fill="#43E0BB"/>
<path d="M447.564 327.947C446.873 327.319 446.05 326.855 445.154 326.59C444.259 326.324 443.315 326.265 442.394 326.416C440.637 326.809 439.107 327.881 438.138 329.399C437.169 330.917 436.841 332.756 437.224 334.515C437.396 335.56 437.791 336.556 438.382 337.435C438.974 338.314 439.748 339.055 440.652 339.607C441.717 335.003 443.692 330.654 447.564 327.947Z" fill="#43E0BB"/>
<path d="M460.588 336.978C459.69 339.947 458.399 342.782 456.75 345.409C456.416 346.002 456.046 346.572 455.64 347.118C457.412 346.826 458.997 345.847 460.051 344.392C461.104 342.938 461.54 341.127 461.265 339.352C461.174 338.528 460.945 337.726 460.588 336.978Z" fill="#43E0BB"/>
<path d="M426.995 316.132C426.587 316.137 426.192 315.991 425.885 315.722C425.721 315.577 425.587 315.401 425.491 315.204C425.395 315.008 425.339 314.794 425.325 314.576C425.312 314.357 425.342 314.138 425.413 313.931C425.484 313.724 425.596 313.533 425.741 313.37C426.151 312.904 435.936 302.043 450.569 304.018C451.011 304.075 451.411 304.305 451.683 304.658C451.954 305.011 452.074 305.457 452.017 305.898C451.96 306.339 451.729 306.74 451.377 307.011C451.024 307.283 450.578 307.403 450.137 307.346C437.212 305.615 428.326 315.511 428.237 315.611C428.077 315.778 427.884 315.911 427.67 316.001C427.456 316.091 427.226 316.135 426.995 316.132Z" fill="#468CAF"/>
<path d="M463.029 360.031C462.754 360.029 462.485 359.96 462.243 359.831C462.002 359.701 461.795 359.515 461.642 359.288C461.396 358.921 461.306 358.472 461.392 358.04C461.477 357.607 461.731 357.226 462.097 356.98C469.252 352.187 469.862 343.867 469.862 343.778C469.889 343.337 470.09 342.924 470.421 342.631C470.751 342.337 471.185 342.187 471.626 342.214C472.068 342.24 472.48 342.441 472.774 342.772C473.067 343.103 473.217 343.537 473.191 343.978C472.889 347.114 471.91 350.148 470.322 352.87C468.735 355.591 466.575 357.936 463.994 359.742C463.71 359.937 463.373 360.038 463.029 360.031Z" fill="#346F93"/>
<path d="M221.007 233.437C221.007 243.853 210.899 247.304 200.483 247.304C190.067 247.304 181.623 238.86 181.623 228.444C181.623 218.028 190.067 209.585 200.483 209.585C210.899 209.585 221.007 223.021 221.007 233.437Z" fill="#121A26"/>
<path d="M208.896 214.107C210.48 214.148 212.047 214.448 213.534 214.996C214.936 215.517 216.238 216.276 217.381 217.24C217.499 217.173 217.627 217.111 217.749 217.034C217.039 215.555 212.516 207.364 199.644 208.117C199.935 209.124 200.093 210.165 200.114 211.214C201.699 211.05 203.301 211.223 204.814 211.721C206.328 212.22 207.719 213.033 208.896 214.107Z" fill="#3276A0"/>
<path d="M196.55 236.6C207.538 231.973 214.37 223.291 211.809 217.21C209.248 211.128 198.263 209.949 187.275 214.577C176.286 219.205 169.455 227.886 172.016 233.968C174.577 240.049 185.561 241.228 196.55 236.6Z" fill="#121A26"/>
<path d="M211.19 237.131L220.821 228.798C222.836 227.057 224.411 224.865 225.419 222.401C226.427 219.937 226.839 217.27 226.622 214.616L222.529 189.203C221.16 180.705 217.886 175.11 210.088 174.022L182.472 170.106C176.309 169.235 170.034 169.621 164.025 171.242C158.016 172.864 152.398 175.686 147.51 179.54L145.942 180.772C140.08 185.357 140.385 193.767 143.126 200.719L153.422 232.726C155.748 238.743 160.024 239.668 166.422 240.238L199.557 241.739C203.296 242.09 208.416 239.584 211.19 237.131Z" fill="#2C658C"/>
<path d="M189.077 201.662C177.883 199.735 158.736 197.176 147.718 195.42C147.024 195.306 146.312 195.373 145.651 195.614C144.991 195.855 144.403 196.263 143.946 196.797C143.488 197.332 143.176 197.975 143.04 198.665C142.903 199.356 142.947 200.069 143.167 200.738L153.71 231.449C154.41 233.226 155.604 234.764 157.152 235.882C158.7 237.001 160.536 237.651 162.442 237.758L195.717 239.584C196.715 239.638 197.713 239.464 198.634 239.075C199.555 238.686 200.375 238.094 201.033 237.341C201.691 236.589 202.169 235.696 202.431 234.731C202.693 233.767 202.733 232.755 202.546 231.773C201.16 224.348 199.271 216.844 197.921 210.246C197.483 208.091 196.404 206.118 194.826 204.587C193.248 203.055 191.245 202.036 189.077 201.662Z" fill="#294E6D"/>
<path d="M144.86 205.963L145.034 206.218C147.692 210.784 150.712 219.967 155.896 220.87C159.083 221.416 162.1 222.693 164.711 224.601C167.479 226.53 170.731 230.027 174.004 228.928C176.769 228.019 178.351 225.515 180.573 223.525C186.911 217.938 194.471 217.536 200.286 221.919L197.91 210.216C197.467 208.068 196.388 206.103 194.812 204.577C193.237 203.051 191.238 202.035 189.077 201.662C177.882 199.735 158.735 197.176 147.718 195.42C147.024 195.306 146.312 195.373 145.651 195.614C144.99 195.855 144.403 196.263 143.945 196.797C143.488 197.332 143.176 197.975 143.039 198.665C142.903 199.355 142.946 200.069 143.166 200.737L144.86 205.963Z" fill="#1F4060"/>
<path d="M210.327 174.087L172.96 170.661C170.855 170.362 168.711 170.493 166.658 171.046C164.605 171.6 162.685 172.564 161.016 173.881L144.942 181.661C144.181 182.264 143.615 183.08 143.317 184.005C143.019 184.93 143.002 185.923 143.268 186.857C143.534 187.792 144.071 188.626 144.811 189.256C145.551 189.886 146.462 190.281 147.427 190.394C160.146 191.902 176.049 195.009 186.006 197.084C192.141 198.364 199.993 197.967 204.784 193.93C208.003 191.148 210.838 187.952 213.216 184.424C215.919 179.481 215.378 174.803 210.327 174.087Z" fill="#3276A0"/>
<path d="M211.739 225.627C206.607 225.572 202.497 220.108 202.559 213.407C202.622 206.707 206.85 201.321 211.967 201.356C217.083 201.391 222.195 208.007 222.132 214.707C222.171 216.108 221.933 217.502 221.431 218.81C220.929 220.118 220.173 221.314 219.207 222.329C218.241 223.344 217.084 224.157 215.803 224.723C214.521 225.289 213.14 225.597 211.739 225.627Z" fill="#121A26"/>
<path d="M188.397 190.421C186.238 187.209 188.371 181.812 193.227 178.542C198.084 175.273 208.972 173.836 211.126 177.057C213.281 180.279 208.209 186.356 203.333 189.666C198.458 192.976 190.606 193.656 188.397 190.421Z" fill="#121A26"/>
<path d="M182.167 187.403C187.044 184.082 189.283 178.873 187.169 175.769C185.055 172.665 179.388 172.841 174.511 176.162C169.634 179.483 167.395 184.692 169.509 187.796C171.623 190.901 177.29 190.725 182.167 187.403Z" fill="#121A26"/>
<path d="M164.657 184.07C168.534 180.612 169.893 175.807 167.691 173.338C165.488 170.868 160.56 171.67 156.682 175.128C152.804 178.586 151.446 183.392 153.648 185.861C155.851 188.33 160.779 187.529 164.657 184.07Z" fill="#121A26"/>
<path d="M166.476 191.065C169.38 193.561 177.048 183.803 176.726 177.24C176.404 170.676 176.089 169.814 168.002 166.956C158.836 163.758 139.474 161.858 132.198 165.722C124.922 169.587 127.281 178.248 137.681 179.65C149.31 181.23 160.122 185.591 166.476 191.065Z" fill="#3276A0"/>
<path d="M176.686 177.221C176.31 170.644 176.049 169.795 167.962 166.937C161.109 164.837 153.995 163.704 146.829 163.57C147.122 164.3 147.268 165.082 147.257 165.869C147.246 166.656 147.078 167.432 146.764 168.154C146.45 168.876 145.996 169.528 145.427 170.072C144.859 170.617 144.187 171.042 143.453 171.325C141.357 172.246 139.023 172.403 136.949 173.383C134.344 174.602 133.943 176.118 133.035 178.34C134.499 178.993 136.051 179.428 137.642 179.631C149.325 181.2 160.137 185.561 166.491 191.035C169.381 193.562 177.053 183.794 176.686 177.221Z" fill="#2C658C"/>
<path opacity="0.6" d="M176.687 177.221C176.31 170.643 176.05 169.795 167.962 166.937C161.519 164.963 154.841 163.857 148.106 163.648C149.398 166.436 149.598 169.687 147.532 172.071C145.651 174.248 142.726 174.873 140.032 175.374C137.095 175.92 135.687 176.222 134.646 178.957C135.617 179.273 136.615 179.5 137.627 179.636C149.311 181.205 160.123 185.566 166.477 191.04C169.381 193.561 177.053 183.794 176.687 177.221Z" fill="#1F4060"/>
<path d="M172.482 186.744C168.472 184.164 164.174 182.061 159.676 180.479C156.549 179.46 150.85 177.393 147.435 178.35C145.368 178.928 146.153 180.197 147.01 181.574C154.621 183.961 160.032 186.53 164.72 190.624C166.963 192.548 171.134 191.213 172.818 186.916C172.701 186.869 172.589 186.811 172.482 186.744Z" fill="#2C5777"/>
<path d="M136.155 170.713C137.961 170.282 139.154 168.797 138.82 167.396C138.485 165.996 136.75 165.21 134.944 165.641C133.139 166.072 131.946 167.557 132.28 168.958C132.615 170.358 134.35 171.144 136.155 170.713Z" fill="#4FA0BF"/>
<path d="M180.553 191.473C182.8 195.586 194.267 187.006 196.106 179.074C197.945 171.141 197.952 170.015 190.302 163.495C181.647 156.118 161.726 146.241 152.67 147.983C143.614 149.724 143.181 160.904 153.758 166.639C165.64 173.092 175.716 182.52 180.553 191.473Z" fill="#3276A0"/>
<path d="M196.107 179.074C197.936 171.137 197.953 170.015 190.302 163.496C184.285 158.721 177.636 154.803 170.544 151.853C170.494 152.462 170.37 153.063 170.173 153.642C168.119 159.519 161.508 159.475 156.406 158.71C154.314 158.257 152.184 157.998 150.044 157.936C147.897 158.034 147.889 159.369 147.577 161.112C149.135 163.449 151.263 165.351 153.758 166.639C165.64 173.092 175.697 182.51 180.553 191.473C182.8 195.586 194.263 187.017 196.107 179.074Z" fill="#2C658C"/>
<path opacity="0.6" d="M196.107 179.074C197.936 171.137 197.953 170.015 190.302 163.496C184.494 158.877 178.086 155.066 171.255 152.166C171.105 153.966 170.446 155.687 169.353 157.125C168.261 158.564 166.782 159.662 165.088 160.291C163.676 160.829 162.2 161.181 160.698 161.338C159.832 161.454 155.146 161.157 154.693 161.827C153.219 164 161.234 168.433 162.583 169.626C163.015 169.996 163.315 170.497 163.434 171.053C163.554 171.609 163.488 172.189 163.246 172.704C170.858 178.346 177.048 185.019 180.553 191.473C182.8 195.586 194.263 187.017 196.107 179.074Z" fill="#1F4060"/>
<path d="M188.397 188.713C185.062 184.134 181.213 179.953 176.924 176.252C173.928 173.822 168.582 169.122 164.628 168.914C162.233 168.784 162.621 170.553 163.089 172.568C170.358 178.39 175.212 183.582 178.841 190.242C180.563 193.418 185.427 193.493 188.697 189.04C188.63 188.947 188.489 188.83 188.397 188.713Z" fill="#2C5777"/>
<path d="M155.239 156.084C157.283 156.452 159.198 155.318 159.516 153.551C159.834 151.784 158.435 150.054 156.39 149.686C154.346 149.318 152.431 150.452 152.113 152.219C151.795 153.985 153.195 155.716 155.239 156.084Z" fill="#4FA0BF"/>
<path d="M186.713 191.046C186.753 195.719 200.912 193.551 206.261 187.408C211.609 181.266 212.11 180.263 208.472 170.933C204.297 160.354 191.371 142.29 182.557 139.541C173.742 136.792 168.108 146.484 174.748 156.527C182.206 167.769 186.634 180.79 186.713 191.046Z" fill="#3276A0"/>
<path d="M185.584 156.184C178.601 147.869 171.267 151.288 174.762 156.497C182.275 167.729 185.707 178.889 185.785 189.12C185.831 193.808 193.849 195.7 199.198 189.557C199.567 189.193 194.386 166.664 185.584 156.184Z" fill="#2C658C"/>
<path d="M194.94 192.263C194.155 186.653 192.725 181.152 190.677 175.87C189.181 172.322 186.664 165.649 183.273 163.609C181.218 162.375 180.768 164.151 180.192 166.113C183.879 174.668 185.726 181.538 185.785 189.119C185.824 192.736 190.085 195.091 195.068 192.693C195.018 192.552 194.975 192.409 194.94 192.263Z" fill="#2C5777"/>
<path d="M184.052 147.817C185.163 146.407 184.742 144.222 183.111 142.936C181.48 141.65 179.257 141.751 178.145 143.16C177.034 144.57 177.455 146.755 179.086 148.041C180.717 149.327 182.94 149.227 184.052 147.817Z" fill="#4FA0BF"/>
<rect x="-1.10436" y="1.81119" width="83.5328" height="136.784" rx="9.5" transform="matrix(-0.971848 0.23561 0.23561 0.971848 168.417 92.3)" fill="#26A0DF" stroke="black" stroke-width="3"/>
<path d="M222.318 201.101C219.116 194.913 210.39 182.848 193.152 184.13C175.914 185.413 170.684 195.469 177.359 202.593C182.031 207.6 194.4 199.166 203.482 218.757C206.86 226.048 218.061 224.882 221.937 217.316C224.419 212.452 224.359 205.103 222.318 201.101Z" fill="#3276A0"/>
<path d="M221.937 217.316C222.625 215.918 223.119 214.434 223.406 212.904C223.091 213.202 222.76 213.484 222.416 213.748C212.195 221.642 203.276 206.648 201.873 198.146C201.425 195.515 201.514 192.821 202.134 190.226C202.43 188.443 203.11 186.747 204.127 185.253C200.57 184.203 196.848 183.822 193.152 184.131C175.914 185.413 170.684 195.469 177.359 202.594C182.031 207.6 194.4 199.166 203.482 218.757C206.86 226.048 218.062 224.883 221.937 217.316Z" fill="#2C658C"/>
<path d="M211.11 221.778C206.364 218.013 205.933 211.397 201.749 207.249C196.548 202.065 191.252 203.492 184.814 204.119C183.183 204.282 181.54 204.276 179.911 204.1C185.612 205.8 195.778 202.056 203.552 218.815C205.451 222.91 209.822 224.335 213.973 223.457C212.94 223.044 211.975 222.478 211.11 221.778Z" fill="#2C5777"/>
<path d="M218.017 200.642C217.536 198.216 216.212 196.038 214.279 194.495C213.694 194.042 213 193.749 212.267 193.647C211.534 193.544 210.786 193.635 210.099 193.91C209.491 194.16 208.965 194.575 208.579 195.108C208.194 195.641 207.965 196.271 207.917 196.927C207.579 198.321 207.707 199.787 208.28 201.103C209.192 203.268 210.804 205.433 213.287 205.74C213.964 205.838 214.654 205.77 215.299 205.542C215.943 205.314 216.523 204.933 216.989 204.431C217.454 203.93 217.79 203.323 217.969 202.663C218.148 202.003 218.165 201.31 218.017 200.642Z" fill="#468CAF"/>
<path d="M192.358 193.615C192.627 193.205 192.802 192.741 192.871 192.256C192.941 191.771 192.902 191.276 192.757 190.808C192.7 190.266 192.509 189.746 192.203 189.294C191.897 188.843 191.485 188.473 191.003 188.218C189.433 187.387 186.892 187.617 184.726 188.505C184.459 188.578 184.195 188.666 183.938 188.769C182.753 189.211 181.743 190.023 181.057 191.085C180.691 191.741 180.575 192.508 180.733 193.242C180.89 193.977 181.309 194.629 181.912 195.077C183.668 197.25 187.298 196.407 189.519 195.583C190.644 195.232 191.635 194.545 192.358 193.615Z" fill="#3276A0"/>
<rect x="114.875" y="152.815" width="48.8134" height="48.8134" rx="13" transform="rotate(-15.1628 114.875 152.815)" fill="#26A0DF"/>
<path d="M153.47 157.793L154.567 177.933C154.624 179.36 153.915 179.911 152.608 179.586L145.189 176.731L142.976 180.395C142.734 180.813 142.533 181.162 141.895 181.335L140.643 174.95L149.324 161.539C149.703 160.963 149.029 160.882 148.483 161.505L136.704 174.223L130.083 173.979C128.643 173.927 128.373 173.025 129.831 171.95L151.236 156.335C152.23 155.623 153.376 156.017 153.47 157.794L153.47 157.793Z" fill="white"/>
</g>
<defs>
<clipPath id="clip0">
<rect width="472" height="472" rx="16" fill="white"/>
</clipPath>
</defs>
</svg>
