<svg width="288" height="261" viewBox="0 0 288 261" fill="none" xmlns="http://www.w3.org/2000/svg">
<g clip-path="url(#clip0)">
<rect width="288" height="261" rx="8" fill="#E0FFED"/>
<circle r="223.5" transform="matrix(-1 0 0 1 263.5 152)" fill="#AAF5C9"/>
<ellipse rx="158.492" ry="158.78" transform="matrix(-1 0 0 1 263.5 151.712)" fill="#83F3B2"/>
<path d="M298.061 121.079C298.415 124.767 298.319 128.484 297.774 132.148C297.664 132.867 297.538 133.517 297.4 134.092C297.283 134.631 297.125 135.16 296.928 135.674C296.583 136.583 296.157 137.072 295.582 137.262C295.007 137.452 294.333 137.262 293.539 136.687C293.096 136.368 292.67 136.026 292.262 135.663C291.814 135.26 291.336 134.777 290.841 134.236C288.367 131.462 286.279 128.365 284.634 125.032C282.753 121.206 281.838 117.392 282.201 114.187C282.282 113.418 282.445 112.66 282.69 111.926C282.899 111.247 283.218 110.606 283.633 110.028C284.407 108.937 285.507 108.119 286.774 107.692C288.084 107.332 289.476 107.417 290.732 107.934C291.395 108.194 292.02 108.542 292.59 108.969C293.209 109.456 293.774 110.008 294.276 110.615C296.364 113.123 297.63 116.828 298.061 121.079Z" fill="#1F4060"/>
<path d="M294.304 121.689C294.859 124.317 295.115 127 295.069 129.686C295 131.814 294.678 133.137 293.953 133.408C293.228 133.678 292.152 132.677 290.875 130.974C289.296 128.817 287.981 126.478 286.958 124.007C285.755 121.131 285.088 118.364 285.111 116.143C285.134 113.923 285.911 112.375 287.199 111.944C288.488 111.512 290.076 112.444 291.341 114.245C292.607 116.046 293.694 118.646 294.304 121.689Z" fill="#121A26"/>
<path d="M312.736 113.451C312.623 112.55 312.411 111.665 312.104 110.81C311.997 110.51 311.874 110.216 311.735 109.93C311.414 109.239 311.008 108.589 310.527 107.997C310.073 107.451 309.533 106.982 308.928 106.611C308.089 106.08 307.141 105.744 306.155 105.627L305.269 105.575C305.269 105.575 304.084 105.518 302.301 105.466C301.403 105.414 300.379 105.466 299.275 105.541L297.549 105.644L296.674 105.702L295.806 105.817C294.655 105.978 293.504 106.151 292.411 106.323C291.318 106.496 290.375 106.772 289.535 106.962L287.51 107.462C287.263 107.52 287.078 107.583 286.935 107.623L286.739 107.687C288.049 107.327 289.441 107.412 290.697 107.928C291.36 108.188 291.985 108.537 292.555 108.964C293.174 109.451 293.739 110.002 294.241 110.609C296.329 113.123 297.595 116.839 298.026 121.079C298.38 124.767 298.284 128.484 297.739 132.148C297.629 132.867 297.503 133.517 297.365 134.092C297.247 134.631 297.09 135.16 296.893 135.674C296.548 136.583 296.122 137.072 295.547 137.262C295.654 137.215 295.766 137.179 295.88 137.153L296.766 136.957C297.129 136.882 297.549 136.733 298.003 136.664C298.458 136.595 298.929 136.543 299.407 136.463L299.764 136.399H300.115H300.793C301.189 136.356 301.587 136.342 301.984 136.359C302.675 136.399 303.135 136.399 303.135 136.399C303.25 136.391 303.365 136.391 303.48 136.399C303.695 136.41 303.909 136.374 304.108 136.292C304.307 136.211 304.486 136.086 304.631 135.927C304.966 135.615 305.274 135.275 305.551 134.909C305.911 134.447 306.247 133.967 306.558 133.471L306.989 132.769C307.386 132.102 307.806 131.354 308.232 130.543C308.508 130.019 308.807 129.461 309.06 128.903C310.103 126.798 310.974 124.613 311.666 122.368C312.393 120.104 312.781 117.744 312.817 115.367C312.833 114.727 312.807 114.087 312.736 113.451Z" fill="#2C5777"/>
<path d="M276.609 216.105C272.546 217.716 268.328 218.903 264.021 219.649C260.633 220.155 258.268 220.127 257.808 219.154C257.567 218.694 257.808 218.084 258.383 217.291C258.752 216.83 259.152 216.396 259.58 215.99C260.069 215.547 260.644 215.064 261.306 214.552C264.668 211.909 268.239 209.543 271.983 207.476C276.367 205.06 280.653 203.386 284.174 202.874C284.99 202.746 285.815 202.678 286.642 202.672C287.317 202.657 287.991 202.711 288.655 202.833C289.806 203.069 290.703 203.576 291.1 204.306C291.831 205.75 290.657 207.879 287.982 209.996C285.307 212.113 281.32 214.282 276.609 216.105Z" fill="#1F4060"/>
<path d="M275.475 213.718C272.556 214.955 269.544 215.959 266.466 216.721C264.05 217.296 262.439 217.354 262.14 216.819C261.841 216.284 262.934 215.191 264.884 213.77C267.443 211.972 270.136 210.371 272.938 208.983C275.744 207.512 278.709 206.366 281.775 205.566C284.202 204.991 285.94 205.066 286.377 205.842C286.814 206.619 285.761 207.89 283.794 209.294C281.191 211.069 278.402 212.552 275.475 213.718Z" fill="#121A26"/>
<path d="M266.414 229.958C266.794 229.958 267.185 229.958 267.599 229.958C268.013 229.958 268.445 229.924 268.894 229.889C269.342 229.855 269.814 229.814 270.292 229.757C271.016 229.682 271.77 229.584 272.558 229.464C273.346 229.343 274.158 229.205 274.992 229.044L275.837 228.871C276.689 228.698 277.563 228.497 278.455 228.296C279.046 228.154 279.644 227.998 280.25 227.83L281.159 227.571C286.037 226.173 290.266 224.372 293.131 222.52C295.996 220.667 297.532 218.775 296.956 217.342C296.702 216.791 296.244 216.36 295.679 216.14C295.082 217.231 294.246 218.173 293.234 218.895C292.987 219.085 292.734 219.275 292.463 219.471C291.658 220.032 290.823 220.549 289.961 221.018C289.385 221.346 288.712 221.674 288.039 221.996C285.516 223.177 282.911 224.175 280.244 224.982C277.568 225.809 274.844 226.472 272.087 226.967C271.344 227.099 270.625 227.214 269.935 227.306C268.876 227.45 267.87 227.559 266.961 227.617L265.983 227.663C264.748 227.746 263.508 227.625 262.312 227.306C262.162 227.493 262.059 227.714 262.012 227.949C261.965 228.184 261.975 228.428 262.042 228.658C262.399 229.504 263.975 229.935 266.414 229.958Z" fill="#121A26"/>
<path d="M264.873 236.885C264.966 237.116 265.109 237.324 265.29 237.495C265.472 237.666 265.689 237.796 265.925 237.875C265.689 237.796 265.472 237.666 265.29 237.495C265.109 237.324 264.966 237.116 264.873 236.885Z" fill="#2C5777"/>
<path d="M295.823 214.432L295.633 213.983L294.989 212.481L294.327 210.94C294.086 210.364 293.787 209.789 293.51 209.162C293.234 208.535 292.935 207.954 292.676 207.39L291.888 205.819L291.106 204.283C291.836 205.727 290.663 207.856 287.988 209.973C285.313 212.09 281.32 214.282 276.608 216.106C272.545 217.716 268.327 218.904 264.021 219.649C260.633 220.156 258.268 220.127 257.808 219.155C257.808 219.155 258.021 219.563 258.332 220.179L258.867 221.237L259.442 222.509C259.643 222.946 259.85 223.372 260.017 223.792L260.506 224.942C260.799 225.621 260.989 226.093 260.989 226.093L261.133 226.426C261.25 226.647 261.414 226.839 261.612 226.99C261.811 227.141 262.04 227.247 262.284 227.301C263.479 227.62 264.719 227.741 265.954 227.657L266.932 227.611C267.841 227.554 268.848 227.445 269.906 227.301C270.597 227.209 271.316 227.094 272.058 226.961C274.815 226.466 277.539 225.803 280.216 224.977C282.882 224.169 285.487 223.171 288.011 221.991C288.684 221.669 289.328 221.341 289.932 221.013C290.794 220.543 291.63 220.027 292.435 219.465C292.705 219.276 292.958 219.086 293.206 218.89C294.217 218.167 295.053 217.225 295.651 216.134C295.797 215.879 295.888 215.595 295.918 215.301C295.948 215.008 295.916 214.712 295.823 214.432Z" fill="#2C5777"/>
<path d="M269.791 240.929C270.165 240.964 270.557 240.987 270.942 241.004C271.327 241.021 271.788 241.033 272.236 241.039C272.685 241.044 273.157 241.039 273.64 241.039C274.365 241.039 275.13 240.981 275.941 240.923C276.752 240.866 277.558 240.785 278.409 240.688L279.266 240.584C280.129 240.475 280.992 240.342 281.924 240.193L283.754 239.865L284.686 239.675C289.673 238.645 294.057 237.173 297.089 235.556C298.365 234.923 299.531 234.088 300.541 233.082C301.289 232.265 301.588 231.466 301.386 230.781C301.186 230.22 300.773 229.761 300.236 229.504C299.529 230.538 298.601 231.402 297.52 232.035C297.261 232.202 296.985 232.369 296.698 232.536C295.843 233.028 294.964 233.475 294.063 233.876C293.43 234.152 292.763 234.452 292.067 234.699C289.442 235.678 286.75 236.468 284.013 237.063C281.274 237.681 278.499 238.131 275.705 238.409C274.946 238.479 274.221 238.536 273.519 238.576C272.443 238.64 271.437 238.663 270.522 238.645L269.544 238.605C268.303 238.587 267.074 238.36 265.908 237.932C265.743 238.109 265.622 238.323 265.555 238.556C265.488 238.789 265.477 239.034 265.523 239.272C265.81 240.147 267.375 240.699 269.791 240.929Z" fill="#121A26"/>
<path d="M269.561 238.553L270.539 238.594C271.454 238.594 272.461 238.594 273.537 238.525C274.238 238.484 274.963 238.427 275.723 238.358C278.517 238.079 281.291 237.629 284.03 237.012C286.768 236.416 289.459 235.626 292.084 234.647C292.78 234.377 293.447 234.072 294.08 233.824C294.981 233.423 295.86 232.976 296.715 232.484C297.003 232.317 297.29 232.15 297.538 231.983C298.619 231.351 299.546 230.486 300.253 229.452C299.543 230.478 298.618 231.338 297.543 231.972C297.279 232.139 297.008 232.311 296.721 232.478C295.865 232.97 294.984 233.416 294.08 233.813C293.453 234.095 292.786 234.388 292.084 234.636C289.458 235.614 286.767 236.406 284.03 237.006C281.288 237.619 278.512 238.067 275.717 238.346C274.963 238.421 274.233 238.479 273.537 238.519C272.455 238.576 271.454 238.599 270.534 238.582C270.2 238.582 269.872 238.582 269.556 238.548C268.318 238.529 267.093 238.302 265.931 237.874C267.094 238.303 268.322 238.533 269.561 238.553Z" fill="#121A26"/>
<path d="M292.072 234.635C292.774 234.365 293.441 234.095 294.069 233.813C294.972 233.416 295.854 232.97 296.709 232.478C296.997 232.311 297.284 232.139 297.532 231.972C298.607 231.338 299.531 230.478 300.241 229.452C300.403 229.214 300.514 228.945 300.568 228.662C300.621 228.379 300.616 228.088 300.552 227.807L300.489 227.582L300.414 227.358L299.913 225.787C299.603 224.844 299.223 223.584 298.763 222.336C298.303 221.087 297.871 219.827 297.538 218.884C297.376 218.418 297.21 218.027 297.106 217.733L296.939 217.302C297.515 218.723 295.973 220.621 293.114 222.48C290.254 224.338 286.02 226.133 281.142 227.531L280.233 227.789C279.631 227.954 279.032 228.11 278.438 228.255C277.546 228.474 276.672 228.675 275.82 228.831L274.975 229.003C274.141 229.164 273.324 229.302 272.541 229.423C271.759 229.544 270.999 229.642 270.275 229.717C269.797 229.774 269.325 229.814 268.877 229.849C268.428 229.884 267.996 229.907 267.582 229.918C267.168 229.93 266.777 229.918 266.397 229.918C263.958 229.918 262.37 229.464 262.025 228.589C262.025 228.589 262.22 229.061 262.485 229.797L263.452 232.501C263.797 233.485 264.096 234.492 264.343 235.239L264.746 236.482L264.804 236.66L264.855 236.845C264.949 237.076 265.093 237.285 265.276 237.456C265.459 237.627 265.676 237.756 265.914 237.834C267.075 238.261 268.301 238.489 269.538 238.507C269.855 238.507 270.183 238.536 270.516 238.542C271.437 238.542 272.438 238.542 273.519 238.478C274.215 238.438 274.946 238.381 275.7 238.306C278.495 238.027 281.271 237.579 284.012 236.965C286.75 236.379 289.444 235.6 292.072 234.635Z" fill="#2C5777"/>
<path d="M272.202 252.211C272.576 252.274 272.967 252.326 273.381 252.378C273.795 252.43 274.227 252.464 274.676 252.499C275.124 252.533 275.596 252.562 276.079 252.585C276.81 252.585 277.575 252.631 278.38 252.631C279.186 252.631 280.003 252.631 280.854 252.573L281.717 252.533C282.586 252.487 283.483 252.424 284.398 252.338C285.008 252.28 285.629 252.217 286.25 252.142L287.194 252.027C292.256 251.36 296.767 250.209 299.908 248.817C303.049 247.425 304.867 245.808 304.602 244.353C304.536 244.068 304.41 243.8 304.234 243.568C304.057 243.335 303.834 243.141 303.578 243.001C302.779 243.972 301.778 244.758 300.644 245.302C300.368 245.451 300.069 245.601 299.775 245.745C298.878 246.176 297.958 246.56 297.02 246.895C296.37 247.131 295.679 247.356 294.954 247.568C292.259 248.353 289.512 248.947 286.734 249.346C283.95 249.762 281.143 250.006 278.329 250.077C277.575 250.077 276.844 250.077 276.142 250.077C275.067 250.077 274.066 250.002 273.157 249.916C272.823 249.889 272.501 249.854 272.19 249.812C270.965 249.696 269.767 249.378 268.646 248.869C268.468 249.036 268.329 249.241 268.24 249.469C268.15 249.697 268.112 249.942 268.129 250.186C268.284 251.147 269.791 251.814 272.202 252.211Z" fill="#121A26"/>
<path d="M267.628 247.781C267.706 248.022 267.837 248.243 268.01 248.428C268.183 248.613 268.394 248.757 268.629 248.851C268.396 248.754 268.186 248.609 268.013 248.424C267.84 248.24 267.709 248.021 267.628 247.781Z" fill="#2C5777"/>
<path d="M294.943 247.562C295.668 247.35 296.358 247.125 297.008 246.889C297.947 246.554 298.866 246.17 299.764 245.739C300.069 245.595 300.339 245.445 300.633 245.296C301.767 244.752 302.768 243.966 303.567 242.995C303.75 242.77 303.884 242.51 303.96 242.231C304.037 241.951 304.053 241.659 304.01 241.372L303.918 240.947L303.573 239.347C303.469 238.864 303.342 238.306 303.216 237.702L302.744 235.832C302.422 234.555 302.111 233.278 301.858 232.323C301.605 231.368 301.404 230.741 301.404 230.741C301.605 231.454 301.306 232.254 300.558 233.042C299.549 234.048 298.383 234.883 297.106 235.516C294.074 237.133 289.691 238.605 284.703 239.635L283.771 239.825L281.942 240.153C281.033 240.302 280.147 240.435 279.284 240.544L278.427 240.647C277.575 240.745 276.752 240.82 275.959 240.883C275.165 240.947 274.405 240.981 273.657 240.998C273.174 240.998 272.708 240.998 272.254 240.998C271.799 240.998 271.374 240.998 270.959 240.964C270.545 240.929 270.154 240.924 269.809 240.889C267.393 240.659 265.828 240.107 265.557 239.163C265.557 239.163 265.701 239.675 265.92 240.435L266.633 243.254C266.76 243.766 266.886 244.278 267.013 244.761C267.139 245.244 267.214 245.699 267.295 246.084L267.571 247.378L267.646 247.724C267.728 247.966 267.861 248.187 268.037 248.373C268.213 248.559 268.427 248.704 268.664 248.799C269.785 249.308 270.982 249.627 272.208 249.743C272.518 249.785 272.841 249.82 273.174 249.846C274.083 249.933 275.084 249.99 276.16 250.007C276.862 250.007 277.592 250.007 278.346 250.007C281.16 249.937 283.967 249.693 286.751 249.277C289.518 248.898 292.256 248.325 294.943 247.562Z" fill="#2C5777"/>
<path d="M273.669 263.676C274.025 263.762 274.411 263.843 274.819 263.923C275.228 264.004 275.648 264.073 276.091 264.142C276.534 264.211 276.994 264.269 277.477 264.326C278.196 264.412 278.956 264.481 279.744 264.539C280.532 264.597 281.36 264.637 282.217 264.666H283.08C283.949 264.666 284.847 264.666 285.767 264.666C286.383 264.666 287.004 264.631 287.637 264.602L288.586 264.556C293.689 264.263 298.274 263.446 301.553 262.284C304.832 261.122 306.731 259.637 306.604 258.17C306.557 257.884 306.453 257.611 306.297 257.365C306.142 257.12 305.939 256.909 305.701 256.744C304.822 257.655 303.759 258.369 302.583 258.838C302.295 258.964 302.007 259.091 301.68 259.218C300.751 259.576 299.804 259.887 298.843 260.15C298.17 260.334 297.468 260.512 296.726 260.673C293.977 261.255 291.189 261.639 288.385 261.824C285.575 262.036 282.754 262.077 279.939 261.944C279.18 261.91 278.449 261.858 277.753 261.795C276.683 261.703 275.688 261.576 274.785 261.427L273.83 261.248C272.619 261.05 271.452 260.645 270.378 260.052C270.184 260.203 270.026 260.397 269.918 260.618C269.809 260.839 269.752 261.082 269.751 261.329C269.832 262.324 271.293 263.101 273.669 263.676Z" fill="#121A26"/>
<path d="M269.487 258.89V258.953C269.534 259.198 269.637 259.429 269.788 259.629C269.938 259.828 270.132 259.991 270.355 260.104L270.39 260.063C270.159 259.95 269.957 259.786 269.801 259.582C269.644 259.379 269.537 259.142 269.487 258.89Z" fill="#2C5777"/>
<path d="M296.721 260.696C297.463 260.535 298.165 260.357 298.838 260.173C299.798 259.91 300.745 259.599 301.674 259.241C301.99 259.114 302.289 258.988 302.577 258.861C303.753 258.392 304.816 257.678 305.695 256.767L305.649 256.732C305.862 256.524 306.029 256.272 306.138 255.995C306.247 255.717 306.296 255.42 306.282 255.122L306.23 254.736C306.23 254.736 305.868 252.136 305.5 249.559C305.304 248.258 305.051 246.97 304.884 245.998L304.591 244.381C304.855 245.836 303.043 247.459 299.896 248.845C296.749 250.232 292.245 251.388 287.182 252.055L286.239 252.17C285.618 252.245 284.996 252.308 284.386 252.366C283.472 252.452 282.574 252.516 281.706 252.562L280.843 252.602C279.991 252.636 279.169 252.654 278.369 252.659C277.569 252.665 276.81 252.659 276.068 252.613C275.584 252.613 275.113 252.562 274.664 252.527C274.215 252.493 273.784 252.452 273.37 252.406C272.955 252.36 272.564 252.303 272.19 252.239C269.78 251.843 268.273 251.175 268.106 250.22L268.336 251.526C268.474 252.314 268.681 253.356 268.836 254.403L269.412 258.608L269.458 258.919C269.512 259.167 269.621 259.4 269.779 259.599C269.936 259.798 270.137 259.959 270.367 260.069L270.332 260.109C271.406 260.703 272.573 261.107 273.784 261.306L274.739 261.484C275.642 261.634 276.637 261.76 277.707 261.853C278.403 261.916 279.134 261.968 279.893 262.002C282.708 262.134 285.529 262.094 288.339 261.881C291.157 261.687 293.959 261.291 296.721 260.696Z" fill="#2C5777"/>
<path d="M307.34 268.601C307.34 268.601 307.34 268.44 307.34 268.152C307.34 267.864 307.34 267.462 307.283 267.001C307.22 266.023 307.139 264.7 307.059 263.417C307.018 262.767 306.978 262.117 306.938 261.507C306.897 260.898 306.823 260.357 306.777 259.845L306.61 258.222C306.754 259.689 304.884 261.179 301.559 262.336C298.234 263.492 293.695 264.315 288.592 264.608L287.643 264.654C287.01 264.654 286.388 264.706 285.773 264.717C284.852 264.717 283.955 264.717 283.086 264.717H282.223C281.366 264.717 280.543 264.648 279.75 264.591C278.956 264.533 278.202 264.464 277.483 264.378C277 264.321 276.539 264.257 276.096 264.194C275.653 264.131 275.228 264.05 274.825 263.975C274.422 263.901 274.037 263.814 273.674 263.728C271.299 263.153 269.837 262.376 269.74 261.427C269.74 261.427 269.797 261.95 269.878 262.733C269.912 263.124 269.97 263.584 270.01 264.073C270.05 264.562 270.073 265.091 270.102 265.615C270.171 266.662 270.234 267.709 270.286 268.491C270.286 268.883 270.332 269.21 270.332 269.441V270.171C270.332 271.184 271.903 272.081 274.468 272.812C274.768 272.898 275.078 272.979 275.406 273.059C276.292 273.278 277.276 273.473 278.34 273.634C279.03 273.749 279.75 273.853 280.503 273.945C283.302 274.281 286.118 274.449 288.937 274.446C291.752 274.452 294.565 274.26 297.353 273.87C298.101 273.761 298.82 273.64 299.505 273.502C300.485 273.313 301.455 273.073 302.41 272.783C302.732 272.679 303.043 272.576 303.336 272.467C305.868 271.546 307.363 270.35 307.363 269.084L307.34 268.601Z" fill="#2C5777"/>
<path d="M293.183 222.451L293.131 222.485C290.85 223.894 288.428 225.063 285.906 225.972C285.952 226.11 285.992 226.248 286.038 226.392C287.776 229.179 289.102 232.204 289.973 235.372C290.698 235.136 291.405 234.889 292.073 234.635C292.74 234.382 293.442 234.095 294.069 233.813C294.972 233.416 295.854 232.97 296.709 232.478L297.245 232.144C296.319 228.75 294.953 225.491 293.183 222.451Z" fill="#3276A0"/>
<path d="M295.823 214.432L295.633 213.983L294.989 212.481L294.327 210.94C294.086 210.364 293.787 209.789 293.51 209.162C293.234 208.535 292.935 207.954 292.676 207.39L291.888 205.819L291.106 204.283C291.836 205.727 290.663 207.856 287.988 209.973C285.313 212.09 281.32 214.282 276.608 216.106C272.545 217.716 268.327 218.904 264.021 219.649C260.633 220.156 258.268 220.127 257.808 219.155C257.808 219.155 258.021 219.563 258.332 220.179L258.867 221.237L259.442 222.509C259.643 222.946 259.85 223.372 260.017 223.792L260.506 224.942C260.799 225.621 260.989 226.093 260.989 226.093L261.133 226.426C261.25 226.647 261.414 226.839 261.612 226.99C261.811 227.141 262.04 227.247 262.284 227.301C263.479 227.62 264.719 227.741 265.954 227.657L266.932 227.611C267.841 227.554 268.848 227.445 269.906 227.301C270.597 227.209 271.316 227.094 272.058 226.961C274.815 226.466 277.539 225.803 280.216 224.977C282.882 224.169 285.487 223.171 288.011 221.991C288.684 221.669 289.328 221.341 289.932 221.013C290.794 220.543 291.63 220.027 292.435 219.465C292.705 219.276 292.958 219.086 293.206 218.89C294.217 218.167 295.053 217.225 295.651 216.134C295.797 215.879 295.888 215.595 295.918 215.301C295.948 215.008 295.916 214.712 295.823 214.432Z" fill="#1F4060"/>
<path d="M278.766 229.073C278.654 228.807 278.582 228.525 278.553 228.238H278.455C277.563 228.457 276.689 228.658 275.837 228.814L274.992 228.986C274.158 229.147 273.341 229.285 272.558 229.406C271.776 229.527 271.017 229.625 270.292 229.7C269.814 229.757 269.342 229.797 268.894 229.832C268.445 229.867 268.014 229.89 267.599 229.901H267.415L267.484 229.993C269.133 232.682 270.475 235.547 271.483 238.536C272.138 238.536 272.811 238.536 273.536 238.473C274.261 238.41 274.963 238.375 275.717 238.3C277.563 238.122 279.56 237.84 281.642 237.449C280.886 234.591 279.924 231.792 278.766 229.073Z" fill="#1F4060"/>
<path d="M282.281 240.107L281.93 240.17C281.021 240.32 280.135 240.452 279.272 240.561L278.415 240.665C277.564 240.763 276.741 240.837 275.947 240.901C275.153 240.964 274.394 240.998 273.646 241.016C273.163 241.016 272.697 241.016 272.242 241.016C273.064 243.953 273.672 246.947 274.06 249.973C274.71 250.019 275.395 250.048 276.12 250.059C276.845 250.071 277.552 250.059 278.306 250.059C280.032 250.019 281.936 249.892 283.909 249.68C283.524 246.469 282.994 243.265 282.281 240.107Z" fill="#1F4060"/>
<path d="M284.616 256.686C284.501 255.24 284.369 253.794 284.219 252.348C283.362 252.429 282.522 252.492 281.705 252.533L280.842 252.573C279.991 252.607 279.168 252.625 278.369 252.63C277.569 252.636 276.81 252.63 276.067 252.584C275.584 252.584 275.112 252.533 274.664 252.498H274.347C274.658 255.478 274.836 258.493 274.923 261.519C275.78 261.657 276.712 261.777 277.713 261.864C278.409 261.927 279.14 261.979 279.899 262.013C281.452 262.094 283.132 262.105 284.887 262.059C284.846 260.236 284.754 258.452 284.616 256.686Z" fill="#1F4060"/>
<path d="M202.844 221.042C197.868 219.891 193.467 218.344 190.412 216.721C187.358 215.099 185.632 213.402 185.983 212.061C186.662 209.369 195.325 209.306 205.1 212.326C214.874 215.346 222.358 219.149 221.841 221.283C221.564 222.342 219.321 222.842 215.875 222.802C211.482 222.666 207.116 222.076 202.844 221.042Z" fill="#1F4060"/>
<path d="M203.408 218.654C196.171 216.894 190.562 214.316 190.948 212.861C191.132 212.148 192.76 211.883 195.251 212.061C198.435 212.362 201.583 212.968 204.651 213.873C207.735 214.711 210.75 215.782 213.672 217.078C215.915 218.119 217.238 219.051 217.083 219.655C216.767 220.857 210.663 220.437 203.408 218.654Z" fill="#121A26"/>
<path d="M186.3 227.663C186.628 227.847 186.973 228.037 187.347 228.238C187.721 228.44 188.106 228.601 188.497 228.785C188.888 228.969 189.343 229.141 189.792 229.32C190.47 229.579 191.19 229.838 191.943 230.085C192.697 230.332 193.491 230.574 194.313 230.804L195.148 231.028C195.993 231.253 196.873 231.46 197.765 231.661C198.363 231.795 198.973 231.922 199.595 232.041L200.526 232.213C204.842 233.045 209.232 233.417 213.626 233.324C217.078 233.18 219.304 232.559 219.523 231.431C219.541 231.19 219.504 230.947 219.415 230.722C219.327 230.497 219.188 230.295 219.011 230.131C217.885 230.583 216.69 230.838 215.478 230.885C215.168 230.885 214.845 230.931 214.512 230.948C213.609 230.988 212.608 230.988 211.538 230.948C210.841 230.948 210.117 230.89 209.357 230.833C206.549 230.61 203.756 230.226 200.992 229.682C198.225 229.16 195.495 228.461 192.818 227.588C192.104 227.352 191.414 227.105 190.764 226.858C189.763 226.466 188.842 226.069 188.025 225.661C187.721 225.511 187.45 225.356 187.163 225.206C186.04 224.643 185.043 223.861 184.229 222.905C183.984 223.018 183.767 223.183 183.593 223.389C183.419 223.595 183.292 223.836 183.222 224.096C183.032 225.201 184.183 226.455 186.3 227.663Z" fill="#121A26"/>
<path d="M217.107 240.849C217.33 240.755 217.529 240.613 217.69 240.431C217.85 240.25 217.967 240.035 218.033 239.802C217.969 240.037 217.852 240.255 217.69 240.437C217.528 240.62 217.327 240.763 217.101 240.854L217.107 240.849Z" fill="#2C5777"/>
<path d="M181.513 233.848C181.491 234.113 181.527 234.381 181.617 234.632C181.707 234.883 181.85 235.112 182.036 235.303C181.85 235.112 181.707 234.883 181.616 234.632C181.526 234.381 181.491 234.113 181.513 233.848Z" fill="#2C5777"/>
<path d="M215.875 222.802C211.483 222.666 207.116 222.076 202.845 221.041C197.869 219.891 193.468 218.343 190.413 216.721C187.358 215.099 185.632 213.401 185.983 212.061C185.983 212.061 185.839 212.636 185.627 213.476C185.414 214.316 185.132 215.449 184.879 216.566C184.355 218.803 183.883 221.036 183.883 221.036L183.797 221.45C183.761 221.717 183.783 221.989 183.861 222.247C183.94 222.505 184.073 222.744 184.252 222.945C185.066 223.901 186.064 224.684 187.186 225.247C187.456 225.396 187.761 225.552 188.049 225.701C188.866 226.11 189.774 226.507 190.787 226.898C191.437 227.145 192.127 227.392 192.841 227.628C195.518 228.501 198.249 229.2 201.016 229.722C203.78 230.266 206.572 230.65 209.38 230.873C210.14 230.931 210.865 230.965 211.561 230.988C212.631 231.023 213.632 231.023 214.535 230.988C214.869 230.988 215.191 230.953 215.501 230.925C216.713 230.878 217.908 230.623 219.034 230.171C219.264 230.094 219.473 229.963 219.644 229.791C219.815 229.618 219.943 229.407 220.017 229.176L220.098 228.825C220.098 228.825 220.495 226.915 220.938 225.045C221.145 224.096 221.387 223.181 221.553 222.485L221.841 221.335C221.565 222.341 219.321 222.842 215.875 222.802Z" fill="#2C5777"/>
<path d="M184.286 239.94C184.62 240.106 184.976 240.279 185.356 240.446C185.736 240.613 186.138 240.774 186.558 240.935C186.978 241.096 187.415 241.257 187.876 241.412C188.56 241.643 189.291 241.867 190.056 242.08C190.821 242.293 191.621 242.494 192.455 242.655L193.295 242.845C194.152 243.029 195.021 243.196 195.935 243.357C196.538 243.46 197.153 243.558 197.782 243.65L198.726 243.783C203.078 244.412 207.484 244.581 211.871 244.289C215.323 243.99 217.469 243.253 217.664 242.12C217.673 241.877 217.626 241.636 217.526 241.414C217.426 241.192 217.277 240.997 217.089 240.843C215.978 241.349 214.79 241.662 213.574 241.769C213.263 241.804 212.941 241.844 212.607 241.873C211.704 241.953 210.703 242.005 209.633 242.022C208.937 242.022 208.212 242.022 207.458 242.022C204.645 241.942 201.839 241.698 199.054 241.292C196.264 240.893 193.503 240.316 190.787 239.566C190.056 239.364 189.36 239.151 188.693 238.927C187.669 238.59 186.74 238.235 185.908 237.863C185.598 237.725 185.333 237.592 185.022 237.449C183.88 236.946 182.849 236.22 181.99 235.314C181.755 235.44 181.548 235.614 181.385 235.825C181.221 236.037 181.104 236.28 181.041 236.54C180.88 237.638 182.088 238.789 184.286 239.94Z" fill="#121A26"/>
<path d="M185.04 237.449C185.322 237.593 185.615 237.725 185.926 237.863C186.762 238.247 187.69 238.601 188.71 238.927C189.377 239.152 190.074 239.365 190.804 239.566C193.52 240.317 196.282 240.893 199.071 241.292C201.856 241.698 204.663 241.942 207.476 242.022C208.23 242.022 208.955 242.022 209.651 242.022C210.721 242.022 211.722 241.953 212.625 241.873C212.959 241.873 213.281 241.804 213.591 241.769C214.807 241.662 215.996 241.349 217.106 240.843C215.998 241.349 214.811 241.661 213.597 241.764C213.292 241.804 212.97 241.838 212.636 241.867C211.727 241.953 210.726 241.999 209.656 242.017C208.966 242.017 208.235 242.017 207.482 242.017C204.668 241.934 201.862 241.688 199.077 241.28C196.287 240.884 193.525 240.308 190.81 239.554C190.081 239.347 189.385 239.134 188.722 238.916C187.774 238.606 186.843 238.249 185.931 237.846C185.621 237.713 185.356 237.575 185.051 237.437C183.911 236.936 182.882 236.212 182.025 235.309C182.878 236.215 183.903 236.942 185.04 237.449Z" fill="#121A26"/>
<path d="M207.476 242.005C208.23 242.005 208.96 242.005 209.651 242.005C210.721 242.005 211.722 241.942 212.631 241.856C212.964 241.856 213.287 241.792 213.591 241.752C214.805 241.649 215.993 241.338 217.101 240.832C217.327 240.74 217.528 240.597 217.69 240.415C217.852 240.232 217.969 240.014 218.033 239.779L218.09 239.422L218.292 238.162C218.43 237.409 218.608 236.437 218.786 235.401C218.965 234.365 219.154 233.399 219.304 232.651L219.546 231.403C219.327 232.553 217.089 233.129 213.649 233.295C209.256 233.389 204.865 233.016 200.55 232.185L199.618 232.013C198.996 231.89 198.386 231.763 197.788 231.633C196.891 231.432 196.016 231.224 195.171 231L194.336 230.776C193.514 230.546 192.726 230.304 191.966 230.057C191.207 229.809 190.494 229.55 189.815 229.291C189.366 229.115 188.934 228.937 188.52 228.756C188.106 228.572 187.715 228.394 187.37 228.21C187.025 228.026 186.651 227.836 186.323 227.635C184.206 226.426 183.055 225.172 183.268 224.108L182.98 225.558C182.813 226.432 182.578 227.589 182.405 228.751L181.83 231.949C181.686 232.824 181.594 233.405 181.594 233.405L181.525 233.819C181.503 234.088 181.539 234.358 181.631 234.611C181.724 234.864 181.87 235.095 182.06 235.286C182.917 236.19 183.946 236.913 185.086 237.415C185.362 237.553 185.661 237.691 185.966 237.823C186.877 238.226 187.809 238.583 188.756 238.893C189.416 239.112 190.112 239.325 190.844 239.532C193.56 240.285 196.321 240.862 199.111 241.257C201.883 241.668 204.676 241.918 207.476 242.005Z" fill="#2C5777"/>
<path d="M182.825 252.28C183.164 252.435 183.533 252.59 183.918 252.74C184.304 252.89 184.712 253.033 185.138 253.172C185.563 253.31 186.012 253.453 186.478 253.586C187.176 253.785 187.913 253.977 188.687 254.161C189.458 254.339 190.269 254.506 191.109 254.656L191.961 254.805C192.818 254.949 193.687 255.076 194.619 255.191C195.228 255.271 195.85 255.34 196.477 255.404L197.426 255.496C201.803 255.922 206.213 255.89 210.583 255.398C213.988 254.938 216.14 254.109 216.255 252.964C216.258 252.722 216.203 252.482 216.096 252.264C215.989 252.046 215.833 251.857 215.64 251.71C214.558 252.264 213.391 252.629 212.188 252.792L211.233 252.941C210.335 253.062 209.346 253.16 208.276 253.223C207.578 253.265 206.853 253.294 206.101 253.31C203.287 253.358 200.473 253.241 197.673 252.959C194.867 252.695 192.081 252.252 189.332 251.63C188.595 251.457 187.888 251.279 187.22 251.089C186.179 250.796 185.23 250.479 184.373 250.151C184.056 250.025 183.757 249.904 183.469 249.777C182.31 249.328 181.251 248.651 180.357 247.787C180.124 247.922 179.922 248.105 179.766 248.325C179.609 248.544 179.501 248.794 179.448 249.058C179.327 250.134 180.599 251.273 182.825 252.28Z" fill="#121A26"/>
<path d="M215.639 251.704C215.862 251.603 216.058 251.452 216.213 251.262C216.368 251.073 216.477 250.85 216.531 250.611C216.475 250.852 216.365 251.076 216.208 251.266C216.051 251.457 215.853 251.609 215.628 251.71L215.639 251.704Z" fill="#2C5777"/>
<path d="M179.753 246.314V246.348C179.739 246.614 179.783 246.88 179.883 247.128C179.982 247.375 180.134 247.598 180.328 247.781C180.132 247.592 179.979 247.363 179.88 247.11C179.78 246.857 179.737 246.585 179.753 246.314Z" fill="#2C5777"/>
<path d="M206.089 253.303C206.856 253.303 207.581 253.275 208.264 253.217C209.334 253.154 210.324 253.056 211.221 252.935L212.176 252.786C213.379 252.623 214.547 252.257 215.628 251.704C215.853 251.603 216.052 251.451 216.208 251.261C216.365 251.07 216.475 250.846 216.531 250.605L216.571 250.266L216.721 248.995C216.801 248.229 216.939 247.217 217.083 246.199C217.227 245.18 217.365 244.168 217.469 243.408C217.572 242.649 217.664 242.143 217.664 242.143C217.469 243.293 215.3 244.013 211.871 244.312C207.484 244.604 203.078 244.435 198.726 243.805L197.782 243.673C197.157 243.581 196.542 243.483 195.936 243.38C195.032 243.219 194.152 243.052 193.295 242.868L192.455 242.678C191.623 242.49 190.823 242.298 190.056 242.103C189.291 241.89 188.56 241.665 187.876 241.435C187.416 241.28 186.978 241.119 186.558 240.958C186.138 240.797 185.736 240.636 185.356 240.469C184.976 240.302 184.62 240.129 184.286 239.963C182.106 238.852 180.88 237.661 181.059 236.586C181.059 236.586 180.972 237.161 180.834 238.053L180.391 241.274C180.224 242.425 180.063 243.621 179.971 244.502L179.799 245.974L179.753 246.36C179.743 246.632 179.793 246.903 179.898 247.154C180.003 247.406 180.162 247.631 180.362 247.815C181.257 248.679 182.315 249.356 183.475 249.806C183.762 249.932 184.05 250.053 184.378 250.18C185.235 250.508 186.184 250.824 187.226 251.117C187.893 251.307 188.601 251.486 189.337 251.658C192.086 252.28 194.872 252.724 197.679 252.987C200.474 253.257 203.282 253.363 206.089 253.303Z" fill="#2C5777"/>
<path d="M181.933 264.763C182.284 264.901 182.658 265.039 183.049 265.172C183.44 265.304 183.855 265.425 184.292 265.546C184.729 265.667 185.178 265.787 185.649 265.897C186.351 266.063 187.099 266.219 187.882 266.357C188.664 266.495 189.481 266.627 190.327 266.737L191.184 266.846C192.047 266.949 192.944 267.036 193.859 267.105C194.473 267.151 195.094 267.191 195.723 267.226L196.678 267.272C201.069 267.488 205.471 267.243 209.812 266.541C213.194 265.92 215.288 264.999 215.363 263.854C215.353 263.613 215.287 263.377 215.17 263.165C215.054 262.954 214.889 262.772 214.69 262.635C213.632 263.239 212.478 263.657 211.279 263.872C210.974 263.941 210.657 264.004 210.324 264.067C209.432 264.228 208.454 264.372 207.384 264.487C206.694 264.562 205.969 264.625 205.215 264.677C202.407 264.86 199.591 264.877 196.781 264.729C193.968 264.601 191.166 264.29 188.394 263.797C187.646 263.659 186.932 263.515 186.248 263.354C185.201 263.112 184.234 262.842 183.371 262.549C183.055 262.445 182.744 262.336 182.457 262.221C181.277 261.826 180.188 261.2 179.252 260.38C179.026 260.525 178.833 260.718 178.687 260.944C178.542 261.17 178.446 261.425 178.407 261.691C178.32 262.779 179.666 263.86 181.933 264.763Z" fill="#121A26"/>
<path d="M178.59 258.924V258.993C178.593 259.263 178.654 259.529 178.768 259.773C178.882 260.017 179.047 260.234 179.252 260.409L179.292 260.374C179.076 260.199 178.901 259.978 178.779 259.728C178.658 259.477 178.593 259.203 178.59 258.924Z" fill="#2C5777"/>
<path d="M205.215 264.677C205.968 264.625 206.693 264.562 207.384 264.487C208.454 264.372 209.432 264.228 210.323 264.067C210.657 264.004 210.973 263.941 211.278 263.872C212.478 263.657 213.632 263.239 214.69 262.635L214.655 262.6C214.88 262.49 215.076 262.328 215.228 262.128C215.38 261.928 215.483 261.696 215.53 261.45V261.151L215.616 259.868C215.656 259.103 215.748 258.079 215.846 257.055C215.944 256.03 216.036 255.006 216.111 254.241C216.186 253.476 216.232 252.964 216.232 252.964C216.116 254.115 213.965 254.937 210.559 255.398C206.189 255.889 201.779 255.922 197.402 255.496L196.453 255.403C195.826 255.34 195.205 255.271 194.595 255.191C193.686 255.076 192.794 254.949 191.937 254.805L191.086 254.656C190.246 254.506 189.435 254.339 188.664 254.161C187.893 253.982 187.151 253.793 186.455 253.586C185.989 253.453 185.54 253.315 185.114 253.171C184.688 253.027 184.28 252.884 183.895 252.74C183.509 252.596 183.141 252.435 182.801 252.28C180.575 251.273 179.304 250.134 179.413 249.052L179.269 250.537L178.964 253.793C178.849 254.978 178.746 256.163 178.694 257.06C178.642 257.958 178.59 258.544 178.59 258.544V258.895C178.593 259.173 178.656 259.447 178.777 259.698C178.897 259.948 179.071 260.169 179.286 260.345L179.246 260.38C180.182 261.2 181.271 261.826 182.451 262.221C182.738 262.336 183.026 262.445 183.365 262.549C184.234 262.842 185.2 263.124 186.242 263.354C186.926 263.515 187.64 263.659 188.388 263.797C191.16 264.29 193.962 264.601 196.775 264.729C199.587 264.878 202.405 264.86 205.215 264.677Z" fill="#2C5777"/>
<path d="M191.914 239.854C192.51 236.778 193.323 233.748 194.348 230.787C193.525 230.557 192.737 230.315 191.978 230.068C191.218 229.821 190.505 229.562 189.826 229.303C189.377 229.126 188.946 228.948 188.532 228.768C188.117 228.584 187.726 228.405 187.381 228.221L187.312 228.187C186.783 229.487 186.317 230.799 185.891 232.122C185.431 233.807 185.005 235.504 184.62 237.201L185.08 237.443C185.356 237.581 185.655 237.719 185.96 237.852C186.872 238.255 187.803 238.612 188.75 238.922C189.41 239.14 190.106 239.353 190.839 239.56C191.166 239.658 191.54 239.762 191.914 239.854Z" fill="#3276A0"/>
<path d="M191.454 242.419C190.979 242.304 190.513 242.183 190.056 242.057C189.291 241.844 188.56 241.62 187.876 241.39C187.416 241.234 186.978 241.073 186.558 240.912C186.139 240.751 185.736 240.59 185.356 240.423C184.976 240.256 184.62 240.084 184.286 239.917L184.021 239.779C183.669 241.493 183.348 243.219 183.061 244.956C182.857 246.421 182.689 247.888 182.554 249.357C182.836 249.507 183.13 249.645 183.458 249.789C183.786 249.933 184.033 250.036 184.361 250.163C185.218 250.491 186.167 250.807 187.209 251.1C187.876 251.29 188.583 251.469 189.32 251.641L190.269 251.848C190.562 248.696 190.936 245.543 191.454 242.419Z" fill="#3276A0"/>
<path d="M189.699 258.556C189.809 257.193 189.912 255.823 190.033 254.443C189.573 254.351 189.124 254.253 188.687 254.155C187.92 253.979 187.183 253.787 186.478 253.58C186.012 253.448 185.563 253.309 185.137 253.166C184.711 253.022 184.303 252.878 183.918 252.734C183.532 252.59 183.164 252.429 182.825 252.274L182.336 252.038C182.094 255.352 181.985 258.683 181.944 262.014L182.451 262.215C182.738 262.33 183.026 262.439 183.365 262.543C184.234 262.836 185.2 263.118 186.242 263.348C186.926 263.509 187.64 263.653 188.388 263.791L189.406 263.958C189.469 262.14 189.567 260.334 189.699 258.556Z" fill="#3276A0"/>
<path d="M215.875 222.802C211.483 222.666 207.116 222.076 202.845 221.041C197.869 219.891 193.468 218.343 190.413 216.721C187.358 215.099 185.632 213.401 185.983 212.061C185.983 212.061 185.839 212.636 185.627 213.476C185.414 214.316 185.132 215.449 184.879 216.566C184.355 218.803 183.883 221.036 183.883 221.036L183.797 221.45C183.761 221.717 183.783 221.989 183.861 222.247C183.94 222.505 184.073 222.744 184.252 222.945C185.066 223.901 186.064 224.684 187.186 225.247C187.456 225.396 187.761 225.552 188.049 225.701C188.866 226.11 189.774 226.507 190.787 226.898C191.437 227.145 192.127 227.392 192.841 227.628C195.518 228.501 198.249 229.2 201.016 229.722C203.78 230.266 206.572 230.65 209.38 230.873C210.14 230.931 210.865 230.965 211.561 230.988C212.631 231.023 213.632 231.023 214.535 230.988C214.869 230.988 215.191 230.953 215.501 230.925C216.077 230.879 216.652 230.81 217.118 230.723C217.53 230.482 218.004 230.366 218.481 230.39C218.677 230.329 218.87 230.256 219.057 230.171C219.287 230.094 219.496 229.963 219.667 229.791C219.838 229.618 219.966 229.407 220.04 229.176L220.121 228.825C220.121 228.825 220.518 226.915 220.961 225.045C221.168 224.096 221.41 223.181 221.576 222.485L221.864 221.335C221.565 222.341 219.321 222.842 215.875 222.802Z" fill="#1F4060"/>
<path d="M213.591 241.764C213.879 241.729 214.167 241.683 214.408 241.637C214.725 240.112 215.076 238.594 215.467 237.092C215.467 237.04 215.467 236.983 215.496 236.925C215.68 235.648 215.871 234.371 216.071 233.094C215.268 233.207 214.459 233.278 213.649 233.307C211.299 233.382 208.946 233.295 206.607 233.048C206.487 234.555 206.325 236.051 206.136 237.552C206.032 239.014 205.911 240.469 205.785 241.93C206.36 241.965 206.935 241.988 207.476 242.005C208.23 242.005 208.96 242.005 209.651 242.005C210.721 242.005 211.722 241.942 212.631 241.856C212.964 241.838 213.287 241.804 213.591 241.764Z" fill="#1F4060"/>
<path d="M212.694 252.677C212.993 249.8 213.413 246.895 213.937 244.047C213.315 244.157 212.625 244.249 211.871 244.312C209.766 244.478 207.652 244.508 205.543 244.404C205.267 247.378 204.968 250.353 204.703 253.327C205.163 253.327 205.624 253.327 206.067 253.327C206.834 253.327 207.559 253.298 208.241 253.24C209.311 253.177 210.301 253.079 211.198 252.959L212.153 252.809L212.694 252.677Z" fill="#1F4060"/>
<path d="M212.418 255.996C212.418 255.68 212.458 255.369 212.487 255.059C211.912 255.185 211.279 255.294 210.583 255.392C208.567 255.641 206.539 255.77 204.508 255.778C204.352 257.59 204.209 259.408 204.099 261.226C204.026 262.399 203.963 263.573 203.909 264.746C204.352 264.746 204.795 264.706 205.215 264.677C205.969 264.626 206.694 264.562 207.384 264.488C208.454 264.373 209.432 264.229 210.324 264.068C210.658 264.004 210.974 263.941 211.279 263.872L211.71 263.768C211.837 261.18 212.084 258.579 212.418 255.996Z" fill="#1F4060"/>
<path d="M298.234 180.731C297.233 180.535 296.22 180.547 296.986 180.052C297.053 179.965 297.13 179.886 297.216 179.816C297.059 179.75 296.924 179.643 296.823 179.506C296.721 179.37 296.659 179.209 296.64 179.04C295.57 178.464 294.379 177.636 294.397 176.416C294.404 176.092 294.536 175.783 294.765 175.554C294.995 175.325 295.304 175.193 295.628 175.185C296.563 175.136 297.497 175.297 298.36 175.657C298.36 175.588 298.36 175.525 298.36 175.461C298.181 175.309 298.048 175.11 297.975 174.886C297.871 174.536 297.794 174.178 297.745 173.816L297.687 173.776C296.813 173.028 296.767 171.78 297.112 170.41C296.97 170.13 296.93 169.809 296.997 169.501C297.032 169.358 297.089 169.214 297.135 169.064C297.111 168.926 297.118 168.784 297.153 168.648C297.189 168.512 297.253 168.385 297.342 168.276L297.48 168.109C297.48 168.046 297.532 167.988 297.561 167.925C297.437 167.939 297.313 167.919 297.2 167.866C297.087 167.814 296.992 167.731 296.923 167.628C296.855 167.524 296.816 167.403 296.812 167.279C296.808 167.155 296.838 167.032 296.899 166.924C296.963 166.798 297.043 166.682 297.112 166.556C297.106 166.419 297.14 166.283 297.21 166.165C297.457 165.728 297.733 165.313 298.021 164.905C298.013 164.78 298.031 164.655 298.073 164.537C298.116 164.419 298.182 164.311 298.268 164.22C298.491 163.993 298.701 163.753 298.896 163.501C298.941 163.444 298.993 163.392 299.051 163.346C300.146 161.983 300.703 160.265 300.616 158.519C299.465 138.959 298.061 116.937 297.078 102.624C296.894 102.624 296.502 101.387 296.422 101.22C296.105 101.669 295.847 101.583 295.524 102.003C295.294 102.302 294.759 102.003 294.886 101.635C295.076 101.146 295.254 100.657 295.461 100.162C295.284 100.382 295.092 100.59 294.886 100.783C294.886 100.783 295.11 99.4887 295.122 99.4657C295.99 98.2011 296.475 96.7131 296.52 95.1798C296.405 93.5747 296.364 92.4759 296.272 91.2448C294.075 61.9051 276.241 30.2641 228.779 32.5653C199.209 33.9863 169.047 51.8202 170.295 100.72C170.295 101.502 170.336 102.302 170.359 103.102C170.485 104.315 171.734 105.495 172.349 106.11C172.389 106.156 172.414 106.212 172.423 106.272C172.432 106.331 172.423 106.392 172.398 106.447C172.374 106.502 172.334 106.549 172.283 106.582C172.232 106.615 172.174 106.633 172.113 106.634C172.097 106.698 172.064 106.756 172.018 106.803C171.971 106.849 171.913 106.882 171.849 106.898C171.785 106.914 171.718 106.913 171.655 106.893C171.592 106.874 171.536 106.838 171.492 106.789C171.457 106.755 171.434 106.72 171.406 106.686C171.377 106.651 171.406 106.732 171.406 106.755C171.261 106.995 171.085 107.216 170.882 107.41C170.824 107.472 170.75 107.517 170.669 107.543C170.622 107.581 170.569 107.614 170.514 107.641C171.089 126.809 172.119 149.263 173.183 168.357C173.239 169.225 173.609 170.043 174.225 170.658C174.98 171.43 175.781 172.156 176.623 172.832C176.8 172.851 176.97 172.913 177.116 173.014C177.263 173.114 177.382 173.25 177.463 173.408C177.864 174.105 178.174 174.852 178.384 175.628C178.462 175.881 178.444 176.154 178.332 176.393C178.464 177.049 178.585 177.705 178.758 178.338L178.792 178.488C179.147 179.276 179.358 180.121 179.414 180.984C179.623 181.953 179.764 182.935 179.834 183.924C179.852 184.046 179.852 184.17 179.834 184.292C180.127 186.214 180.029 188.262 179.379 189.378C179.287 189.529 179.158 189.654 179.004 189.741C178.85 189.827 178.676 189.873 178.499 189.873C178.322 189.873 178.148 189.827 177.994 189.741C177.84 189.654 177.711 189.529 177.619 189.378C177.406 189.28 177.226 189.122 177.101 188.923C177.061 188.86 177.026 188.797 176.992 188.733H176.894C176.098 189.237 175.492 189.989 175.168 190.873C174.823 191.809 174.689 192.809 174.777 193.802C175.398 202.523 175.962 208.644 176.359 210.56C177.797 217.463 190.166 228.509 240.791 225.517C289.403 222.641 302.635 210.272 302.635 199.629C302.635 197.294 302.411 191.851 302.06 184.574C301.714 182.123 299.448 180.967 298.234 180.731Z" fill="#2C5777"/>
<path d="M247.482 214.782C246.222 203.029 241.153 204.393 239.042 204.283C222.899 203.478 205.802 203.133 189.849 200.371C187.289 200.584 186.869 204.709 187.623 211.302C188.146 215.95 191.184 219.931 194.618 220.328C204.726 222.79 220.057 223.722 240.342 222.744C243.219 222.618 248.149 221.047 247.482 214.782Z" fill="#346F93"/>
<path d="M257.026 113.83C256.911 113.83 252.009 112.047 249.95 112.404C248.609 112.634 247.269 112.881 245.923 113.128C244.554 113.068 243.183 113.084 241.815 113.174C236.707 113.577 231.61 114.124 226.484 114.267C221.657 114.4 186.07 112.542 183.527 112.8C182.716 112.881 180.415 113.088 180.8 116.408L180.754 116.5C180.761 116.47 180.777 116.444 180.8 116.425C181.375 117.978 182.975 118.185 183.676 118.335C186.265 118.875 190.056 118.939 193.186 122.396C203.484 133.781 201.275 150.729 194.912 156.758C194.361 157.27 193.853 157.826 193.393 158.421C192.455 159.664 191.385 161.09 191.748 163.679C192.697 170.519 201.712 172.498 208.247 172.084C220.207 172.136 220.207 163.995 224.355 156.591C230.223 146.133 235.579 142.169 244.812 139.206C248.316 138.088 251.958 137.462 255.634 137.348C259.31 137.262 261.674 133.775 262.002 128.333C262.629 118.697 259.753 113.652 257.026 113.83Z" fill="#346F93"/>
<path d="M298.233 180.731C297.232 180.535 296.22 180.547 296.985 180.052C297.053 179.965 297.13 179.886 297.215 179.816C297.059 179.75 296.923 179.643 296.822 179.506C296.721 179.37 296.658 179.209 296.64 179.04C295.943 178.701 295.324 178.221 294.822 177.63C291.077 179.137 287.268 180.438 283.466 181.554C273.225 184.568 262.721 186.812 252.262 188.883C242.108 190.902 231.897 192.818 221.582 193.761C211.428 194.687 200.871 194.958 190.786 193.266C187.243 192.691 182.675 191.696 179.24 189.539C179.134 189.661 179.001 189.757 178.851 189.818C178.701 189.879 178.538 189.904 178.377 189.89C178.215 189.877 178.06 189.825 177.922 189.74C177.784 189.655 177.668 189.539 177.584 189.401C177.37 189.303 177.191 189.145 177.066 188.946C177.026 188.883 176.991 188.82 176.956 188.756H176.859C176.063 189.26 175.456 190.012 175.133 190.896C174.788 191.831 174.654 192.832 174.742 193.825C174.742 194.112 176.226 199.077 195.067 202.183C215.55 205.557 236.414 205.945 257.008 203.334C292.59 198.732 301.547 187.37 302.036 185.258C302.036 185.034 302.036 184.816 302.036 184.591C301.714 182.123 299.447 180.967 298.233 180.731Z" fill="#468CAF"/>
<path d="M252.274 88.88C252.326 79.7099 252.792 70.5455 252.567 61.3696C252.815 61.1913 252.521 60.7943 252.815 60.5067C255.444 57.8719 252.815 50.2838 239.37 47.5627C232.328 46.136 222.848 47.3096 215.783 48.5292C202.224 50.8591 185.73 58.4012 182.664 81.896C180.938 95.1276 188.75 102.549 200.843 104.522C218.775 107.45 245.917 104.862 252.82 101.686C257.831 99.3848 256.847 95.2715 256.847 95.2715C256.876 92.4698 254.034 90.7267 252.274 88.88Z" fill="#346F93"/>
<path d="M197.477 138.591C198.323 148.405 194.647 157.673 187.455 158.18C181.352 158.605 175.495 151.052 174.299 141.272C173.102 131.492 176.145 121.574 183.135 120.613C190.125 119.652 196.511 127.378 197.477 138.591Z" fill="#121A26"/>
<path d="M128.794 126.694C124.634 127.632 120.705 127.735 117.691 126.786C114.676 125.837 112.686 123.909 112.542 121.608C112.398 119.307 113.301 114.078 127.43 113.888C141.559 113.698 143.331 117.587 143.331 119.641C143.4 120.705 141.813 121.815 139.189 123.093C135.865 124.666 132.379 125.873 128.794 126.694Z" fill="#3276A0"/>
<path d="M124.444 146.133C124.828 146.134 125.212 146.115 125.595 146.076C125.993 146.029 126.389 145.962 126.78 145.874C127.192 145.779 127.599 145.661 127.999 145.523C128.628 145.31 129.241 145.055 129.835 144.758C130.46 144.448 131.067 144.103 131.653 143.723L132.228 143.314C132.803 142.9 133.424 142.44 134.011 141.951C134.402 141.623 134.794 141.278 135.162 140.927L135.737 140.351C138.33 137.759 140.746 134.995 142.968 132.079C144.735 129.778 145.845 128.403 145.482 127.77C145.365 127.643 145.221 127.542 145.061 127.475C144.902 127.407 144.73 127.375 144.556 127.379C144.33 127.736 144.076 128.074 143.797 128.391C143.475 128.765 143.089 129.174 142.646 129.64L142.071 130.215C141.53 130.756 140.92 131.331 140.299 131.941L138.97 133.189C137.253 134.798 135.441 136.305 133.545 137.699C131.654 139.113 129.574 140.255 127.367 141.094C126.774 141.308 126.169 141.485 125.554 141.623C124.676 141.83 123.776 141.939 122.874 141.945C122.563 141.945 122.252 141.945 121.947 141.905C121.211 141.842 120.486 141.685 119.79 141.439C119.152 141.204 118.552 140.874 118.012 140.461C118.012 141.398 118.258 142.318 118.726 143.13C118.997 143.595 119.33 144.021 119.715 144.396C120.121 144.765 120.574 145.081 121.061 145.333C121.56 145.592 122.09 145.786 122.638 145.909C123.23 146.049 123.836 146.125 124.444 146.133Z" fill="#121A26"/>
<path d="M149.084 132.033C149.032 131.579 148.963 131.251 148.756 131.13C148.963 131.251 149.026 131.579 149.084 132.033Z" fill="#2C5777"/>
<path d="M132.832 157.558C133.644 158.06 134.576 158.332 135.53 158.346C134.576 158.333 133.643 158.061 132.832 157.558Z" fill="#2C5777"/>
<path d="M144.798 126.355C144.759 126.276 144.725 126.196 144.695 126.113L144.608 125.883C144.557 125.728 144.459 125.532 144.384 125.25C144.153 124.554 143.961 123.845 143.809 123.127C143.636 122.293 143.51 121.402 143.429 120.746C143.429 120.406 143.371 120.124 143.354 119.929V119.612C143.423 120.677 141.835 121.787 139.212 123.064C135.889 124.647 132.403 125.864 128.817 126.694C124.657 127.632 120.728 127.735 117.714 126.786C114.699 125.837 112.709 123.91 112.565 121.609C112.565 121.609 112.565 121.856 112.605 122.282L112.772 124.071C112.933 125.549 113.221 127.523 113.64 129.53C114.042 131.402 114.547 133.249 115.154 135.065C115.389 135.818 115.642 136.451 115.809 136.894L116.074 137.59L116.224 137.964L116.385 138.338C116.744 139.185 117.32 139.923 118.053 140.478C118.593 140.892 119.192 141.222 119.831 141.456C120.527 141.703 121.252 141.859 121.988 141.922C122.293 141.951 122.603 141.962 122.914 141.962C123.817 141.956 124.716 141.848 125.595 141.64C126.21 141.502 126.815 141.325 127.407 141.111C129.615 140.273 131.694 139.13 133.586 137.717C135.482 136.322 137.293 134.816 139.011 133.206L140.34 131.958C140.984 131.343 141.571 130.767 142.112 130.232L142.687 129.657C143.136 129.191 143.521 128.782 143.837 128.409C144.117 128.091 144.371 127.753 144.597 127.396C144.709 127.25 144.786 127.08 144.82 126.899C144.855 126.718 144.848 126.532 144.798 126.355Z" fill="#2C5777"/>
<path d="M143.82 159.043C144.12 158.821 144.406 158.581 144.677 158.324C144.963 158.047 145.234 157.755 145.488 157.449C145.758 157.133 146.012 156.802 146.248 156.46C146.624 155.921 146.968 155.36 147.277 154.78C147.608 154.165 147.908 153.533 148.175 152.887C148.261 152.669 148.353 152.444 148.439 152.214C148.704 151.535 148.94 150.822 149.153 150.085C149.299 149.598 149.431 149.098 149.55 148.584L149.728 147.807C150.482 144.212 150.867 140.55 150.879 136.877C150.91 135.705 150.858 134.532 150.723 133.368C150.689 133.155 150.649 132.965 150.608 132.792C150.576 132.632 150.531 132.474 150.476 132.321C150.448 132.211 150.396 132.109 150.323 132.022C150.25 131.936 150.159 131.867 150.056 131.82C149.797 131.722 149.515 131.785 149.095 132.05C149.109 133.041 149.046 134.032 148.905 135.013C148.905 135.272 148.842 135.536 148.808 135.813C148.71 136.56 148.583 137.395 148.434 138.286C148.33 138.862 148.227 139.437 148.112 140.087C147.692 142.398 147.115 144.677 146.386 146.91C145.672 149.168 144.664 151.323 143.388 153.319C143.039 153.843 142.655 154.342 142.238 154.814C141.664 155.498 141.018 156.117 140.311 156.661C140.057 156.857 139.804 157.029 139.545 157.196C138.35 157.977 136.946 158.379 135.518 158.347C136.082 159.096 136.826 159.689 137.682 160.072C138.656 160.478 139.725 160.599 140.765 160.423C141.873 160.196 142.917 159.724 143.82 159.043Z" fill="#121A26"/>
<path d="M139.574 157.179C139.833 157.012 140.086 156.839 140.34 156.644C141.047 156.1 141.693 155.48 142.267 154.797C142.684 154.325 143.068 153.825 143.417 153.301C144.693 151.305 145.701 149.151 146.415 146.892C147.144 144.66 147.72 142.38 148.14 140.07C148.256 139.448 148.359 138.844 148.463 138.269C148.612 137.377 148.739 136.543 148.837 135.795C148.871 135.519 148.906 135.254 148.934 134.995C149.075 134.014 149.138 133.024 149.124 132.033C149.13 133.022 149.064 134.01 148.929 134.99C148.929 135.249 148.865 135.513 148.831 135.789C148.733 136.543 148.606 137.371 148.451 138.263L148.135 140.07C147.712 142.378 147.136 144.655 146.409 146.887C145.695 149.145 144.687 151.3 143.412 153.295C143.062 153.819 142.678 154.319 142.261 154.791C141.685 155.475 141.037 156.094 140.328 156.638C140.075 156.828 139.822 157.006 139.563 157.173C138.368 157.956 136.964 158.358 135.536 158.323C136.967 158.359 138.375 157.96 139.574 157.179Z" fill="#121A26"/>
<path d="M148.094 140.07L148.411 138.263C148.566 137.372 148.693 136.537 148.791 135.789C148.825 135.513 148.86 135.249 148.888 134.99C149.024 134.01 149.089 133.022 149.084 132.033C149.026 131.578 148.963 131.25 148.756 131.13L148.566 131.026C148.566 131.026 148.336 130.859 147.991 130.629C147.813 130.514 147.663 130.336 147.45 130.192C147.237 130.048 147.076 129.829 146.875 129.617C146.673 129.404 146.495 129.231 146.351 129.001C146.271 128.892 146.19 128.794 146.11 128.702L145.914 128.397L145.736 128.15L145.615 127.931L145.506 127.741C145.839 128.374 144.758 129.749 142.992 132.05C140.78 134.976 138.373 137.749 135.789 140.352L135.214 140.927C134.828 141.278 134.437 141.623 134.063 141.951C133.488 142.44 132.878 142.9 132.28 143.314L131.704 143.723C131.119 144.103 130.512 144.448 129.887 144.758C129.293 145.055 128.68 145.31 128.051 145.523C127.651 145.662 127.244 145.779 126.832 145.874C126.441 145.962 126.045 146.03 125.647 146.076C125.264 146.115 124.88 146.134 124.496 146.133C123.894 146.129 123.294 146.06 122.707 145.926C122.159 145.803 121.629 145.61 121.131 145.351C120.643 145.098 120.191 144.783 119.784 144.413C119.399 144.038 119.066 143.612 118.795 143.147L119.209 143.849L119.692 144.655L120.377 145.679L121.2 146.881L122.206 148.187C122.891 149.096 123.737 149.999 124.559 150.908C125.382 151.817 126.285 152.634 127.177 153.416C128.069 154.199 128.903 154.866 129.633 155.395C130.364 155.925 131.003 156.368 131.446 156.673C131.664 156.828 131.842 156.937 131.963 157.006L132.147 157.121L132.884 157.564C133.698 158.071 134.635 158.345 135.593 158.358C137.021 158.392 138.426 157.991 139.62 157.207C139.879 157.041 140.132 156.862 140.386 156.673C141.095 156.129 141.743 155.509 142.319 154.826C142.735 154.354 143.119 153.854 143.469 153.33C144.745 151.334 145.752 149.18 146.466 146.921C147.162 144.676 147.706 142.387 148.094 140.07Z" fill="#2C5777"/>
<path d="M165.491 160.136C165.65 159.799 165.788 159.454 165.905 159.1C166.02 158.738 166.124 158.358 166.216 157.95C166.308 157.541 166.377 157.15 166.434 156.73C166.522 156.083 166.574 155.432 166.59 154.78C166.59 154.101 166.59 153.405 166.538 152.686C166.538 152.45 166.492 152.208 166.475 151.967C166.4 151.236 166.291 150.488 166.158 149.735C166.066 149.228 165.963 148.722 165.848 148.21C165.784 147.951 165.727 147.698 165.664 147.433C165.172 145.489 164.553 143.579 163.811 141.715C163.204 140.145 162.513 138.608 161.74 137.113C161.216 136.049 160.592 135.038 159.876 134.092C159.301 133.368 158.806 133.022 158.34 133.04C158.162 133.059 157.994 133.131 157.857 133.247C157.681 133.379 157.529 133.54 157.408 133.724C157.999 134.557 158.487 135.457 158.864 136.405C158.961 136.653 159.071 136.906 159.174 137.165C159.462 137.872 159.75 138.649 160.054 139.506C160.244 140.081 160.44 140.657 160.63 141.232C161.339 143.475 161.885 145.767 162.264 148.089C162.666 150.418 162.767 152.788 162.563 155.142C162.5 155.762 162.406 156.379 162.281 156.989C162.102 157.862 161.838 158.716 161.493 159.538C161.366 159.819 161.234 160.113 161.096 160.354C160.479 161.581 159.52 162.602 158.334 163.294C158.733 163.483 159.152 163.626 159.583 163.72C160.008 163.799 160.441 163.82 160.871 163.783C162.862 163.685 164.513 162.276 165.491 160.136Z" fill="#121A26"/>
<path d="M157.408 133.77C157.299 133.606 157.158 133.465 156.993 133.358C156.828 133.25 156.642 133.177 156.448 133.143C156.645 133.178 156.832 133.253 156.998 133.364C157.165 133.475 157.306 133.619 157.414 133.787L157.408 133.77Z" fill="#2C5777"/>
<path d="M155.757 164.002H155.815C156.696 164.023 157.566 163.8 158.329 163.357H158.3C157.528 163.803 156.648 164.026 155.757 164.002Z" fill="#2C5777"/>
<path d="M160.624 141.289C160.44 140.713 160.244 140.104 160.049 139.563C159.755 138.706 159.473 137.929 159.169 137.221C159.065 136.963 158.956 136.709 158.858 136.462C158.482 135.514 157.993 134.614 157.402 133.781C157.294 133.613 157.153 133.469 156.987 133.358C156.82 133.247 156.633 133.172 156.436 133.137H156.166C156.074 133.143 155.981 133.143 155.889 133.137L155.165 133.085L154.146 132.959C153.772 132.872 153.375 132.843 152.996 132.728C152.616 132.613 152.167 132.544 151.845 132.429C151.523 132.314 151.184 132.216 150.907 132.136C150.424 131.923 150.096 131.808 150.096 131.808C150.199 131.855 150.291 131.924 150.363 132.01C150.436 132.097 150.488 132.199 150.516 132.308C150.572 132.462 150.616 132.62 150.649 132.78C150.689 132.953 150.729 133.143 150.764 133.355C150.898 134.52 150.95 135.693 150.919 136.865C150.907 140.538 150.522 144.2 149.768 147.795L149.59 148.572C149.467 149.082 149.335 149.583 149.193 150.073C148.98 150.81 148.744 151.523 148.48 152.202C148.393 152.432 148.301 152.656 148.215 152.875C147.948 153.521 147.649 154.152 147.318 154.768C147.008 155.348 146.664 155.909 146.288 156.448C146.052 156.79 145.798 157.12 145.528 157.437C145.275 157.743 145.004 158.035 144.717 158.312C144.447 158.569 144.16 158.809 143.86 159.031C142.967 159.712 141.933 160.188 140.834 160.423C139.794 160.599 138.725 160.477 137.751 160.072C137.751 160.072 138.821 160.521 140.437 161.148C141.237 161.412 142.163 161.723 143.187 162.034C144.211 162.344 145.241 162.569 146.305 162.828C147.369 163.086 148.468 163.253 149.481 163.437C150.493 163.621 151.477 163.702 152.3 163.788L154.307 163.932C154.791 163.967 155.067 163.967 155.067 163.967H155.797C156.689 163.987 157.569 163.76 158.34 163.311H158.369C159.554 162.618 160.513 161.597 161.13 160.371C161.268 160.112 161.401 159.836 161.527 159.554C161.873 158.733 162.137 157.879 162.315 157.006C162.441 156.395 162.535 155.779 162.597 155.159C162.801 152.805 162.701 150.434 162.298 148.106C161.904 145.796 161.345 143.518 160.624 141.289Z" fill="#2C5777"/>
<path d="M183.814 153.646C183.814 153.301 183.814 152.95 183.814 152.582C183.814 152.214 183.814 151.84 183.751 151.432C183.687 151.023 183.653 150.643 183.59 150.235C183.486 149.625 183.354 148.987 183.193 148.337C183.032 147.686 182.842 147.019 182.617 146.335C182.543 146.11 182.462 145.88 182.382 145.65C182.14 144.96 181.869 144.263 181.57 143.556C181.369 143.084 181.156 142.612 180.932 142.135C180.817 141.899 180.696 141.663 180.581 141.422C178.971 138.078 176.793 135.04 174.143 132.441C171.957 130.405 169.984 129.444 168.718 130.014C168.241 130.252 167.873 130.663 167.689 131.164C168.699 131.603 169.62 132.225 170.404 132.999C170.605 133.178 170.807 133.368 171.014 133.575C171.589 134.15 172.164 134.76 172.74 135.462C173.114 135.922 173.493 136.405 173.89 136.917C175.277 138.821 176.487 140.849 177.503 142.975C178.539 145.093 179.344 147.317 179.902 149.608C180.046 150.235 180.167 150.845 180.253 151.432C180.38 152.29 180.44 153.158 180.431 154.026C180.431 154.325 180.42 154.619 180.397 154.906C180.334 156.163 179.937 157.381 179.246 158.433C179.975 158.556 180.723 158.469 181.404 158.18C182.853 157.512 183.676 155.856 183.814 153.646Z" fill="#121A26"/>
<path d="M167.706 131.164C167.237 130.959 166.709 130.933 166.222 131.089H166.159C166.664 130.935 167.208 130.97 167.689 131.187L167.706 131.164Z" fill="#2C5777"/>
<path d="M177.377 159.854L177.48 159.814C178.18 159.536 178.781 159.055 179.206 158.433H179.148C178.716 159.076 178.098 159.572 177.377 159.854Z" fill="#2C5777"/>
<path d="M173.867 136.917C173.494 136.405 173.114 135.922 172.717 135.461C172.142 134.76 171.566 134.127 170.991 133.574C170.784 133.367 170.583 133.177 170.381 132.999C169.597 132.225 168.676 131.603 167.666 131.164V131.21C167.185 130.993 166.641 130.958 166.136 131.112L165.825 131.239L165.468 131.371L164.536 131.705C163.783 131.952 162.81 132.28 161.861 132.499C161.046 132.702 160.22 132.859 159.387 132.97C158.732 133.068 158.317 133.085 158.317 133.085C158.783 133.085 159.29 133.413 159.853 134.138C160.569 135.084 161.193 136.095 161.717 137.158C162.49 138.654 163.182 140.19 163.788 141.761C164.531 143.624 165.149 145.534 165.641 147.479C165.704 147.744 165.762 147.997 165.825 148.256C165.94 148.768 166.044 149.274 166.136 149.78C166.268 150.534 166.377 151.282 166.452 152.012C166.452 152.254 166.492 152.496 166.515 152.732C166.567 153.451 166.584 154.147 166.567 154.826C166.551 155.478 166.5 156.129 166.412 156.776C166.354 157.196 166.279 157.599 166.193 157.995C166.107 158.392 165.998 158.766 165.882 159.146C165.765 159.499 165.627 159.845 165.468 160.182C164.49 162.316 162.839 163.731 160.866 163.886C160.866 163.886 161.965 163.817 163.558 163.593C165.479 163.331 167.384 162.966 169.265 162.5C171.29 162.017 173.183 161.401 174.581 160.929L176.238 160.354L176.853 160.124L177.377 159.917C178.104 159.634 178.727 159.134 179.16 158.484H179.218C179.908 157.432 180.306 156.215 180.368 154.958C180.391 154.67 180.403 154.377 180.403 154.078C180.412 153.21 180.352 152.342 180.224 151.483C180.138 150.908 180.017 150.287 179.874 149.659C179.315 147.368 178.511 145.145 177.475 143.026C176.463 140.883 175.255 138.838 173.867 136.917Z" fill="#2C5777"/>
<path d="M192.95 137.107C192.087 129.869 188.738 126.82 187.243 125.704C184.913 123.979 182.163 123.691 180.339 124.479L179.655 124.767L179.079 125.043L178.395 125.353L177.572 125.745C176.376 126.32 174.914 127.045 173.608 127.695C172.302 128.345 171.077 128.949 170.197 129.369L168.759 130.031C170.024 129.455 171.998 130.422 174.184 132.458C176.833 135.057 179.011 138.095 180.621 141.439C180.736 141.68 180.857 141.916 180.972 142.152C181.196 142.629 181.409 143.101 181.611 143.573C181.91 144.28 182.186 144.977 182.422 145.667C182.502 145.897 182.583 146.127 182.658 146.352C182.882 147.03 183.072 147.704 183.233 148.354C183.394 149.004 183.526 149.642 183.63 150.252C183.693 150.66 183.751 151.063 183.791 151.449C183.831 151.834 183.849 152.22 183.854 152.599C183.86 152.979 183.854 153.318 183.854 153.663C183.722 155.873 182.899 157.529 181.421 158.197L183.4 157.282C184.55 156.707 186.04 156.005 187.427 155.32C188.813 154.636 194.463 149.826 192.95 137.107Z" fill="#2C5777"/>
<path d="M156.615 143.406C156.055 143.418 155.518 143.626 155.097 143.994C154.676 144.362 154.399 144.867 154.314 145.42C154.277 145.728 154.305 146.041 154.395 146.338C154.485 146.634 154.636 146.91 154.837 147.146C155.228 147.595 155.711 147.956 156.252 148.204C156.886 148.507 157.589 148.634 158.289 148.573C158.594 148.573 158.864 148.527 159.134 148.515C160.181 148.446 161.24 148.342 162.299 148.222C162.024 146.476 161.649 144.747 161.177 143.044C159.662 143.259 158.141 143.38 156.615 143.406Z" fill="#1F4060"/>
<path d="M165.733 147.75C169.264 147.155 172.708 146.123 175.985 144.678C176.606 144.402 177.227 144.102 177.849 143.786C177.728 143.516 177.613 143.245 177.48 142.975C176.819 141.602 176.078 140.269 175.26 138.982C171.726 140.661 167.993 141.884 164.151 142.624C164.744 144.204 165.249 145.815 165.664 147.451L165.733 147.75Z" fill="#1F4060"/>
<path d="M185.724 133.995C185.416 133.786 185.049 133.68 184.677 133.69C184.304 133.7 183.944 133.827 183.648 134.052C181.932 135.291 180.144 136.424 178.292 137.447C179.143 138.739 179.911 140.084 180.593 141.474C180.696 141.686 180.794 141.894 180.898 142.101C182.194 141.297 183.439 140.413 184.626 139.454C185.476 138.799 186.127 137.921 186.507 136.917C186.875 135.813 186.806 134.783 185.724 133.995Z" fill="#1F4060"/>
<path d="M134.34 137.147C136.065 135.829 137.642 134.46 139.017 133.2L140.346 131.952L140.61 131.699L140.432 131.394C139.07 129.051 137.998 126.551 137.239 123.949C134.789 124.993 132.259 125.839 129.674 126.481C130.232 130.243 132.159 133.971 134.34 137.147Z" fill="#1F4060"/>
<path d="M142.704 142.008C143.941 140.973 144.016 139.373 143.786 138.062C143.498 136.445 142.411 135.076 141.697 133.707C140.026 135.846 138.236 137.89 136.336 139.828C138.05 141.749 141.346 143.142 142.704 142.008Z" fill="#1F4060"/>
<path d="M158.623 155.085C155.591 155.833 144.816 157.714 145.46 162.644L146.265 162.84C147.324 163.104 148.428 163.265 149.441 163.45C150.453 163.634 151.437 163.714 152.26 163.8L154.268 163.944C154.751 163.979 155.027 163.979 155.027 163.979H155.758C156.649 163.999 157.53 163.772 158.3 163.323H158.329C159.514 162.63 160.473 161.609 161.091 160.383C161.229 160.124 161.361 159.848 161.487 159.566C161.833 158.745 162.097 157.891 162.276 157.018C162.401 156.407 162.495 155.791 162.557 155.171C162.586 154.895 162.598 154.596 162.615 154.331C162.224 154.383 159.56 154.849 158.623 155.085Z" fill="#1F4060"/>
<path d="M179.879 149.619C179.879 149.527 179.822 149.43 179.799 149.332C177.377 150.879 170.278 153.071 166.567 153.825C166.567 154.158 166.567 154.486 166.567 154.808C166.551 155.461 166.5 156.112 166.412 156.759C166.354 157.179 166.279 157.581 166.193 157.978C166.107 158.375 165.997 158.749 165.882 159.129C165.765 159.482 165.627 159.828 165.468 160.164C164.49 162.299 162.839 163.714 160.866 163.869C160.866 163.869 161.965 163.8 163.558 163.576C165.479 163.314 167.384 162.949 169.265 162.483C171.29 162 173.183 161.384 174.581 160.912L176.238 160.337L176.853 160.107L177.377 159.9C178.104 159.617 178.727 159.117 179.16 158.467H179.218C179.908 157.415 180.306 156.198 180.368 154.941C180.391 154.653 180.403 154.36 180.403 154.061C180.411 153.192 180.352 152.325 180.224 151.466C180.144 150.845 180.023 150.235 179.879 149.619Z" fill="#1F4060"/>
<path d="M192.95 137.107C192.755 135.337 192.343 133.598 191.725 131.929C191.725 135.105 193.203 142.394 183.095 147.79L183.239 148.331C183.4 148.981 183.532 149.619 183.636 150.229C183.699 150.638 183.757 151.04 183.797 151.426C183.837 151.811 183.855 152.197 183.86 152.576C183.866 152.956 183.86 153.295 183.86 153.641C183.728 155.85 182.905 157.507 181.427 158.174L183.406 157.259C184.556 156.684 186.046 155.982 187.433 155.297C188.819 154.613 194.463 149.826 192.95 137.107Z" fill="#1F4060"/>
<path d="M148.888 134.99C149.024 134.01 149.089 133.022 149.084 132.033C149.026 131.578 148.963 131.25 148.756 131.129L148.566 131.026C148.566 131.026 148.336 130.859 147.991 130.629C147.812 130.514 147.663 130.336 147.45 130.192C147.237 130.048 144.027 133.713 148.6 137.325C148.681 136.79 148.762 136.267 148.825 135.789C148.825 135.513 148.859 135.237 148.888 134.99Z" fill="#3276A0"/>
<path d="M160.055 139.552C159.761 138.695 159.479 137.918 159.174 137.21C159.071 136.951 158.961 136.698 158.864 136.451C158.487 135.502 157.999 134.602 157.408 133.77C157.3 133.602 157.159 133.458 156.992 133.347C156.826 133.236 156.639 133.161 156.442 133.126H156.171C156.079 133.132 155.987 133.132 155.895 133.126L155.17 133.074L154.152 132.947C153.778 132.861 153.381 132.832 153.001 132.717C152.622 132.602 152.173 132.533 151.851 132.418C151.529 132.303 151.189 132.205 150.913 132.125C150.43 131.912 150.102 131.797 150.102 131.797C150.205 131.843 150.296 131.913 150.369 131.999C150.442 132.086 150.494 132.188 150.522 132.297C150.577 132.451 150.622 132.609 150.654 132.769C150.695 132.942 150.735 133.131 150.769 133.344C150.904 134.509 150.956 135.682 150.925 136.854C150.925 137.383 150.925 137.964 150.884 138.58C153.895 139.601 157.067 140.065 160.244 139.949C160.141 139.839 160.101 139.678 160.055 139.552Z" fill="#3276A0"/>
<path d="M159.877 134.138C160.592 135.084 161.216 136.095 161.741 137.158C162.132 137.901 162.529 138.735 162.932 139.638C163.881 139.5 164.824 139.322 165.745 139.114C168.447 138.507 171.096 137.683 173.666 136.652C173.356 136.238 173.045 135.841 172.74 135.461C172.165 134.76 171.59 134.127 171.014 133.574C170.807 133.367 170.606 133.177 170.405 132.999C169.62 132.225 168.7 131.603 167.689 131.164V131.21C167.208 130.993 166.664 130.958 166.159 131.112L165.848 131.239L165.492 131.371L164.56 131.705C163.806 131.952 162.834 132.28 161.885 132.499C161.069 132.702 160.243 132.859 159.411 132.97C158.755 133.068 158.341 133.085 158.341 133.085C158.807 133.068 159.313 133.413 159.877 134.138Z" fill="#3276A0"/>
<path d="M174.161 132.459C175.092 133.339 175.953 134.289 176.738 135.301C178.58 134.43 180.366 133.448 182.089 132.361C184.469 130.821 186.684 129.04 188.699 127.045C188.247 126.566 187.754 126.127 187.226 125.734C184.896 124.008 182.146 123.72 180.322 124.508L179.638 124.796L179.063 125.072L178.378 125.383L177.555 125.774C176.359 126.349 174.897 127.074 173.592 127.724C172.286 128.374 171.06 128.978 170.18 129.398L168.742 130.06C170.007 129.484 171.975 130.422 174.161 132.459Z" fill="#3276A0"/>
<path d="M120.532 134.661C120.204 134.82 119.915 135.048 119.683 135.329C119.451 135.61 119.282 135.938 119.188 136.29C119.095 136.642 119.078 137.011 119.139 137.37C119.2 137.729 119.338 138.071 119.543 138.372C120.215 139.578 120.949 140.75 121.74 141.881C122.122 141.925 122.507 141.946 122.891 141.945C123.794 141.938 124.693 141.83 125.572 141.622C126.186 141.484 126.792 141.308 127.384 141.093C128.536 140.675 129.649 140.155 130.709 139.54C130.084 138.792 129.509 138.025 128.983 137.239C127.47 135.162 123.046 133.58 120.532 134.661Z" fill="#3276A0"/>
<path d="M135.49 153.997C136.223 154.207 137.002 154.187 137.722 153.939C138.443 153.691 139.07 153.227 139.517 152.611C142.152 149.36 139.621 146.984 139.621 146.984C137.437 145.662 135.385 144.132 133.494 142.417C133.097 142.733 132.694 143.038 132.292 143.314L131.716 143.722C131.131 144.102 130.524 144.448 129.898 144.758C129.305 145.054 128.692 145.31 128.063 145.523C127.663 145.661 127.256 145.778 126.844 145.874C126.452 145.962 126.057 146.029 125.658 146.075C125.503 146.075 125.342 146.104 125.181 146.11C128.131 149.32 131.62 151.989 135.49 153.997Z" fill="#3276A0"/>
<path d="M296.893 101.295C296.807 100.835 296.582 100.412 296.249 100.083C295.916 99.7545 295.49 99.535 295.029 99.4541C296.013 100.029 295.3 102.687 295.3 102.687C295.3 102.687 294.402 105.696 277.77 109.084C266.04 111.478 250.49 113.226 233.985 114.015C228.808 114.262 223.682 114.406 218.711 114.452C205.595 114.555 193.617 113.923 184.982 112.663C172.769 110.885 171.871 108.601 171.865 108.601C171.945 108.419 172.063 108.257 172.211 108.124C171.791 108.043 171.543 106.599 171.106 106.363C170.93 106.485 170.782 106.643 170.675 106.828C170.568 107.013 170.503 107.22 170.485 107.433C170.485 108.009 170.485 107.433 170.525 108.78C170.652 113.526 191.04 116.408 218.723 116.178C223.641 116.137 228.779 115.994 234.066 115.741C269.107 114.072 297.296 108.193 297.025 102.612C297.021 102.17 296.976 101.729 296.893 101.295Z" fill="#468CAF"/>
<path d="M295.029 99.4541C294.709 100.103 294.22 100.653 293.614 101.048C292.228 102.037 287.994 104.223 275.826 106.565C264.372 108.768 249.49 110.396 233.916 111.138C228.739 111.386 223.642 111.529 218.688 111.57C206.268 111.673 195.188 111.132 186.656 110.005C178.125 108.877 174.771 107.502 173.523 106.783C172.972 106.498 172.458 106.146 171.992 105.736C171.681 105.793 171.401 105.961 171.204 106.208C171.008 106.456 170.907 106.767 170.922 107.082C171.152 111.817 191.023 114.676 218.711 114.452C223.63 114.412 228.768 114.268 234.054 114.015C269.09 112.341 296.358 106.795 296.37 101.209C296.37 100.259 295.662 99.4541 295.029 99.4541Z" fill="#121A26"/>
<path d="M225.994 27.1806C213.58 28.2852 210.007 31.3457 210.105 34.4408C210.226 38.3643 210.157 36.1667 210.157 36.1667C210.157 36.1667 213.165 38.0421 227.565 37.0929C241.314 36.184 244.323 33.6987 244.323 33.6987C244.323 33.6987 244.404 33.3823 243.978 31.3112C243.552 29.2402 239.042 26.0128 225.994 27.1806Z" fill="#2C5777"/>
<path d="M243.978 31.2822C243.794 30.3905 242.828 29.2974 240.797 28.4057C241.292 31.5756 236.885 32.8585 231.897 33.825C227.237 34.7224 218.09 34.9007 210.117 33.9745C210.108 34.124 210.108 34.2738 210.117 34.4233C210.117 35.2229 210.157 35.7637 210.168 36.1491C210.168 36.1491 213.177 38.0246 227.577 37.0754C241.326 36.1664 244.335 33.6811 244.335 33.6811C244.335 33.6811 244.404 33.3532 243.978 31.2822Z" fill="#1F4060"/>
<path d="M226.455 31.3395C226.374 30.327 224.516 29.9704 221.133 29.9761C217.992 29.9761 214.385 30.5974 214.276 32.0471C214.195 33.1229 218.084 33.1402 221.513 32.8353C223.762 32.6339 226.547 32.5304 226.455 31.3395Z" fill="#468CAF"/>
<path d="M236.643 30.3732C236.686 30.325 236.724 30.273 236.758 30.2179C236.901 30.0171 236.973 29.7736 236.96 29.527C236.948 29.2805 236.852 29.0455 236.689 28.8603C236.522 28.711 236.321 28.6048 236.103 28.5506C235.886 28.4965 235.658 28.4961 235.44 28.5496C234.647 28.6589 233.364 29.2169 233.577 30.1547C233.58 30.3705 233.666 30.5767 233.818 30.7299L233.939 30.8105C234.056 30.9157 234.192 30.9968 234.34 31.0491C234.488 31.1015 234.645 31.124 234.802 31.1154C235.366 31.1547 235.925 30.9847 236.372 30.6379C236.423 30.6027 236.471 30.5643 236.516 30.5228L236.562 30.4768L236.643 30.3732Z" fill="#468CAF"/>
<path d="M226.961 28.9866C228.511 28.7976 230.005 28.2903 231.35 27.4966C230.907 25.7707 228.928 17.964 227.381 12.7001C226.276 8.95499 222.048 9.59356 221.841 13.3445L220.69 28.0604C222.537 29.0499 225.235 29.1994 226.961 28.9866Z" fill="#2C5777"/>
<path d="M226.961 28.9865C228.511 28.7976 230.006 28.2903 231.35 27.4965C230.907 25.7706 228.928 17.964 227.381 12.7001C227.264 12.1413 227.003 11.6231 226.622 11.1978C226.241 10.7726 225.755 10.4553 225.212 10.2781C226.058 11.3194 226.334 13.5227 226.668 15.9505C227.018 18.4817 227.674 22.3361 226.518 23.7226C226.208 24.1441 225.812 24.4947 225.356 24.7508C224.9 25.007 224.394 25.1629 223.873 25.2081C223.352 25.2533 222.827 25.1867 222.334 25.0129C221.841 24.8391 221.39 24.562 221.012 24.2001L220.719 28.0603C222.537 29.0498 225.235 29.1994 226.961 28.9865Z" fill="#1F4060"/>
<path d="M224.936 17.4868C225.033 19.8397 224.545 20.5071 223.917 20.5301C223.29 20.5531 222.767 19.9203 222.652 17.5674C222.537 15.2144 222.939 12.0331 223.572 12.01C224.205 11.987 224.844 15.1339 224.936 17.4868Z" fill="#468CAF"/>
<path d="M197.439 95.9117C213.837 100.249 252.282 98.2127 267.523 91.7872C279.072 86.9263 278.576 71.6938 266.399 64.4975C252.478 56.2772 211.367 57.4449 196.778 67.9029C184.785 76.4914 186.327 92.9607 197.439 95.9117Z" fill="#121A26"/>
<path d="M269.677 67.1447C273.81 72.1753 273.738 78.649 272.469 82.3335C269.507 90.9803 255.178 92.9594 234.38 94.6591C215.918 96.1649 197.384 95.931 190.151 90.3871C190.849 91.6986 191.852 92.8689 193.098 93.8235C194.343 94.778 195.803 95.4957 197.384 95.931C213.793 100.232 252.261 98.2125 267.512 91.8415C277.943 87.5011 278.545 74.8389 269.677 67.1447Z" fill="#273C56"/>
<path d="M205.19 82.3743C204.821 79.8411 207.466 76.699 210.946 76.1619C214.595 75.6292 217.923 77.9165 218.34 80.6521" stroke="#43E0BB" stroke-width="2" stroke-linecap="round" stroke-linejoin="round"/>
<path d="M256.304 78.2923C256.122 75.3061 253.335 72.8807 249.815 72.7324C246.135 72.5605 243.34 74.8351 243.047 77.999" stroke="#43E0BB" stroke-width="2" stroke-linecap="round" stroke-linejoin="round"/>
<path d="M261.427 48.8113C261.927 50.2437 263.452 51.1124 264.735 51.7625C266.018 52.4126 267.611 53.2467 269.026 52.6197C269.338 52.4789 269.619 52.2768 269.851 52.0255C270.083 51.7742 270.263 51.4789 270.379 51.1569C270.494 50.8349 270.544 50.493 270.526 50.1513C270.507 49.8096 270.42 49.4752 270.269 49.1679C269.694 47.9138 268.451 47.0393 267.312 46.3432C266.463 45.811 265.498 45.4931 264.499 45.417C263.803 45.3577 263.107 45.5252 262.514 45.8945C262.011 46.1667 261.623 46.6123 261.423 47.1487C261.223 47.6851 261.224 48.2758 261.427 48.8113Z" fill="#346F93"/>
<path d="M286.59 78.2833C286.014 75.614 284.438 71.2303 283.196 68.0144C282.436 66.0642 280.216 62.0372 278.415 62.7851C276.114 63.7285 277.54 67.9626 279.692 73.5142C282.459 80.6708 282.839 85.5032 285.37 84.8186C287.573 84.2433 287.067 80.4867 286.59 78.2833Z" fill="#346F93"/>
<path d="M298.935 163.426C297.929 164.577 296.162 165.929 293.683 167.292C292.928 167.71 292.092 167.959 291.231 168.023C290.371 168.086 289.507 167.963 288.699 167.66C287.891 167.358 287.158 166.884 286.55 166.271C285.943 165.659 285.475 164.922 285.18 164.111C280.152 149.964 266.196 140.743 251.238 142.75C238.3 144.476 228.296 154.147 225.12 166.418C224.108 170.172 221.818 173.454 218.644 175.699C215.469 177.943 211.611 179.009 207.735 178.712C190.372 177.423 179.091 174.466 175.271 171.768C175.271 171.768 175.812 183.015 176.077 186.864C176.077 187.082 176.318 190.373 176.376 190.557C176.732 195.982 196.482 203.069 239.266 202.114C274.606 201.321 300.218 189.539 299.862 183.245C299.862 183.159 298.935 163.426 298.935 163.426Z" fill="#121A26"/>
<path d="M275.791 153.75C278.308 156.843 280.46 160.215 282.206 163.8C283.587 166.677 285.008 168.776 288.534 168.592C289.196 168.552 290.732 168.161 291.364 168.017C290.055 168.084 288.757 167.742 287.65 167.039C286.544 166.336 285.682 165.307 285.186 164.094C280.267 150.252 266.777 141.134 252.216 142.63C263.457 142.647 270.648 147.497 275.791 153.75Z" fill="#273C56"/>
<path d="M270.865 171.909C270.939 161.565 263.349 153.124 253.913 153.056C244.477 152.989 236.768 161.32 236.694 171.665C236.62 182.01 244.209 190.45 253.645 190.518C263.081 190.586 270.791 182.254 270.865 171.909Z" fill="#273C56"/>
<path d="M258.891 190.21C268.189 188.597 274.293 179.027 272.525 168.834C270.757 158.641 261.786 151.686 252.489 153.298C243.191 154.911 237.087 164.481 238.855 174.674C240.623 184.867 249.593 191.823 258.891 190.21Z" fill="#2C5777"/>
<path d="M257.667 183.153C263.408 182.157 267.177 176.247 266.085 169.951C264.993 163.656 259.454 159.36 253.712 160.355C247.971 161.351 244.202 167.262 245.294 173.557C246.386 179.853 251.925 184.149 257.667 183.153Z" fill="#121A26"/>
<path d="M257.304 181.062C261.994 180.248 265.072 175.422 264.181 170.282C263.289 165.141 258.765 161.634 254.075 162.447C249.386 163.261 246.307 168.087 247.199 173.227C248.09 178.367 252.615 181.875 257.304 181.062Z" fill="#43E0BB"/>
<path d="M255.495 166.493C255.137 166.167 254.71 165.926 254.246 165.788C253.782 165.651 253.292 165.62 252.815 165.699C251.903 165.902 251.11 166.458 250.608 167.245C250.105 168.032 249.935 168.986 250.134 169.898C250.223 170.44 250.428 170.957 250.734 171.413C251.041 171.868 251.443 172.252 251.911 172.539C252.464 170.151 253.488 167.896 255.495 166.493Z" fill="#43E0BB"/>
<path d="M262.249 171.175C261.784 172.715 261.114 174.185 260.259 175.548C260.086 175.855 259.894 176.151 259.684 176.434C260.602 176.282 261.424 175.774 261.971 175.02C262.517 174.266 262.743 173.327 262.6 172.407C262.553 171.979 262.435 171.563 262.249 171.175Z" fill="#43E0BB"/>
<path d="M244.829 160.366C244.618 160.368 244.413 160.292 244.254 160.153C244.169 160.078 244.099 159.986 244.049 159.884C243.999 159.783 243.97 159.672 243.963 159.558C243.956 159.445 243.972 159.332 244.009 159.224C244.046 159.117 244.104 159.018 244.179 158.933C244.392 158.691 249.466 153.059 257.054 154.083C257.283 154.113 257.49 154.233 257.631 154.416C257.772 154.598 257.834 154.83 257.805 155.058C257.775 155.287 257.655 155.495 257.473 155.636C257.29 155.777 257.058 155.839 256.83 155.809C250.127 154.912 245.519 160.043 245.473 160.095C245.39 160.182 245.29 160.251 245.179 160.298C245.068 160.344 244.949 160.367 244.829 160.366Z" fill="#468CAF"/>
<path d="M263.515 183.13C263.373 183.129 263.233 183.093 263.107 183.026C262.982 182.959 262.875 182.862 262.796 182.744C262.668 182.554 262.622 182.322 262.666 182.097C262.71 181.873 262.842 181.675 263.032 181.548C266.742 179.062 267.059 174.748 267.059 174.702C267.072 174.473 267.176 174.259 267.348 174.107C267.519 173.955 267.744 173.877 267.973 173.89C268.202 173.904 268.416 174.008 268.568 174.18C268.72 174.351 268.798 174.576 268.784 174.805C268.628 176.432 268.12 178.005 267.297 179.416C266.474 180.827 265.354 182.043 264.015 182.98C263.868 183.081 263.693 183.134 263.515 183.13Z" fill="#346F93"/>
<path d="M293.913 153.146C293.885 147.56 292.705 127.597 291.819 119.658C291.497 116.782 290.634 113.669 288.546 114.48C286.555 115.28 286.458 119.002 286.492 120.728C286.492 121.217 288.155 147.272 288.747 155.067C288.966 157.886 290.139 161.177 292.325 159.813C293.867 158.876 293.919 154.946 293.913 153.146Z" fill="#346F93"/>
<path d="M138.012 117.483C138.012 122.884 132.77 124.674 127.369 124.674C121.967 124.674 117.589 120.295 117.589 114.894C117.589 109.493 121.967 105.114 127.369 105.114C132.77 105.114 138.012 112.081 138.012 117.483Z" fill="#121A26"/>
<path d="M131.732 107.459C132.553 107.48 133.366 107.636 134.137 107.92C134.864 108.19 135.539 108.584 136.132 109.084C136.193 109.049 136.259 109.017 136.322 108.977C135.954 108.21 133.609 103.963 126.934 104.353C127.085 104.875 127.167 105.415 127.177 105.959C127.999 105.874 128.83 105.964 129.615 106.222C130.4 106.481 131.121 106.902 131.732 107.459Z" fill="#3276A0"/>
<path d="M125.329 119.123C131.027 116.724 134.57 112.222 133.242 109.068C131.914 105.915 126.218 105.303 120.52 107.703C114.821 110.103 111.279 114.605 112.607 117.758C113.935 120.912 119.631 121.523 125.329 119.123Z" fill="#121A26"/>
<path d="M132.921 119.399L137.916 115.077C138.96 114.175 139.777 113.038 140.3 111.76C140.823 110.483 141.036 109.099 140.924 107.723L138.801 94.5448C138.091 90.1383 136.393 87.2367 132.35 86.6729L118.029 84.6423C114.833 84.1902 111.579 84.3905 108.463 85.2313C105.347 86.072 102.434 87.5358 99.8991 89.534L99.086 90.1732C96.0463 92.5508 96.2043 96.912 97.6258 100.517L102.965 117.114C104.171 120.234 106.389 120.714 109.706 121.01L126.889 121.788C128.828 121.97 131.483 120.671 132.921 119.399Z" fill="#2C658C"/>
<path d="M121.454 101.006C115.649 100.007 105.72 98.6795 100.007 97.7687C99.6472 97.7096 99.278 97.7444 98.9353 97.8695C98.5926 97.9946 98.288 98.206 98.0508 98.4831C97.8136 98.7603 97.6517 99.0939 97.581 99.4518C97.5102 99.8097 97.5328 100.18 97.6467 100.526L103.114 116.452C103.477 117.373 104.096 118.171 104.899 118.751C105.702 119.331 106.654 119.668 107.642 119.724L124.898 120.67C125.415 120.698 125.932 120.608 126.41 120.407C126.887 120.205 127.313 119.898 127.654 119.507C127.995 119.117 128.243 118.654 128.379 118.154C128.515 117.654 128.535 117.13 128.439 116.62C127.72 112.77 126.74 108.878 126.04 105.457C125.813 104.34 125.254 103.317 124.436 102.522C123.617 101.728 122.578 101.199 121.454 101.006Z" fill="#294E6D"/>
<path d="M98.5249 103.236L98.6151 103.368C99.9935 105.736 101.56 110.498 104.248 110.966C105.9 111.249 107.465 111.912 108.819 112.901C110.254 113.901 111.941 115.715 113.638 115.145C115.072 114.673 115.892 113.375 117.044 112.343C120.331 109.446 124.251 109.237 127.267 111.51L126.035 105.442C125.805 104.328 125.245 103.309 124.428 102.517C123.611 101.726 122.575 101.199 121.454 101.006C115.649 100.007 105.72 98.6794 100.007 97.7686C99.6469 97.7095 99.2777 97.7443 98.935 97.8694C98.5924 97.9945 98.2877 98.2059 98.0505 98.483C97.8133 98.7602 97.6515 99.0938 97.5807 99.4517C97.5099 99.8096 97.5326 100.18 97.6465 100.526L98.5249 103.236Z" fill="#1F4060"/>
<path d="M132.473 86.7063L113.096 84.9301C112.005 84.7748 110.893 84.8427 109.828 85.1297C108.764 85.4167 107.769 85.9168 106.903 86.5998L98.5675 90.634C98.1726 90.947 97.8794 91.3701 97.7249 91.8497C97.5703 92.3293 97.5615 92.844 97.6994 93.3287C97.8373 93.8133 98.1158 94.2461 98.4996 94.5726C98.8835 94.899 99.3555 95.1043 99.856 95.1626C106.452 95.9448 114.698 97.5557 119.862 98.6321C123.043 99.2957 127.115 99.0897 129.599 96.9961C131.268 95.5536 132.739 93.8961 133.972 92.067C135.374 89.5038 135.093 87.0777 132.473 86.7063Z" fill="#3276A0"/>
<path d="M133.206 113.433C130.545 113.405 128.413 110.571 128.446 107.096C128.478 103.622 130.67 100.829 133.324 100.847C135.977 100.865 138.628 104.296 138.595 107.771C138.616 108.497 138.492 109.22 138.232 109.898C137.971 110.576 137.579 111.196 137.078 111.723C136.578 112.249 135.978 112.671 135.313 112.964C134.648 113.258 133.932 113.417 133.206 113.433Z" fill="#121A26"/>
<path d="M121.101 95.1765C119.982 93.5111 121.088 90.712 123.606 89.0166C126.125 87.3211 131.771 86.5761 132.888 88.2466C134.005 89.9172 131.375 93.0688 128.847 94.7851C126.319 96.5013 122.247 96.8542 121.101 95.1765Z" fill="#121A26"/>
<path d="M117.871 93.6117C120.4 91.8893 121.561 89.1882 120.465 87.5784C119.369 85.9687 116.43 86.06 113.901 87.7823C111.372 89.5046 110.211 92.2058 111.307 93.8155C112.403 95.4253 115.342 95.334 117.871 93.6117Z" fill="#121A26"/>
<path d="M108.791 91.8834C110.802 90.0902 111.506 87.5984 110.364 86.3179C109.222 85.0375 106.666 85.4532 104.655 87.2464C102.645 89.0397 101.94 91.5316 103.082 92.812C104.224 94.0925 106.78 93.6767 108.791 91.8834Z" fill="#121A26"/>
<path d="M109.734 95.5103C111.24 96.805 115.216 91.745 115.049 88.3413C114.882 84.9377 114.719 84.4906 110.525 83.0086C105.772 81.3501 95.7318 80.3648 91.9589 82.3688C88.1859 84.3727 89.4093 88.864 94.8022 89.5909C100.833 90.4104 106.439 92.6719 109.734 95.5103Z" fill="#3276A0"/>
<path d="M115.029 88.3316C114.834 84.9208 114.698 84.4809 110.505 82.9988C106.951 81.9098 103.262 81.322 99.5457 81.2526C99.6981 81.6313 99.7736 82.0365 99.7679 82.4446C99.7622 82.8527 99.6753 83.2556 99.5124 83.6298C99.3495 84.0041 99.1138 84.3422 98.819 84.6245C98.5242 84.9068 98.1762 85.1276 97.7952 85.2741C96.7086 85.7516 95.4982 85.8329 94.4226 86.3411C93.0716 86.9732 92.8637 87.7596 92.393 88.9117C93.1522 89.2506 93.957 89.4762 94.7817 89.5812C100.84 90.3949 106.447 92.6564 109.742 95.4948C111.24 96.8051 115.219 91.7399 115.029 88.3316Z" fill="#2C658C"/>
<path opacity="0.6" d="M115.029 88.3316C114.834 84.9207 114.699 84.4809 110.505 82.9988C107.164 81.975 103.701 81.4014 100.208 81.2932C100.878 82.7387 100.982 84.4246 99.9107 85.6609C98.9352 86.7898 97.4183 87.114 96.0212 87.3739C94.4984 87.657 93.7681 87.8134 93.2282 89.2319C93.7319 89.3956 94.2493 89.5134 94.7742 89.5839C100.833 90.3977 106.44 92.6591 109.734 95.4975C111.241 96.8051 115.219 91.7399 115.029 88.3316Z" fill="#1F4060"/>
<path d="M112.849 93.27C110.769 91.932 108.541 90.8416 106.208 90.0209C104.586 89.4929 101.631 88.4206 99.8604 88.9171C98.7883 89.2168 99.1954 89.8749 99.6397 90.589C103.586 91.8264 106.393 93.1591 108.824 95.2816C109.987 96.2796 112.15 95.5873 113.023 93.3592C112.962 93.3346 112.904 93.3048 112.849 93.27Z" fill="#2C5777"/>
<path d="M94.011 84.9568C94.9474 84.7333 95.5659 83.9633 95.3925 83.237C95.2191 82.5108 94.3195 82.1032 93.3831 82.3268C92.4467 82.5503 91.8282 83.3203 92.0016 84.0466C92.175 84.7728 93.0746 85.1804 94.011 84.9568Z" fill="#4FA0BF"/>
<path d="M117.034 95.722C118.199 97.8548 124.146 93.4059 125.099 89.2924C126.053 85.1789 126.056 84.5946 122.089 81.214C117.601 77.3885 107.271 72.2663 102.575 73.1696C97.8789 74.0729 97.6542 79.87 103.139 82.8441C109.301 86.1905 114.526 91.0792 117.034 95.722Z" fill="#3276A0"/>
<path d="M125.1 89.2926C126.048 85.1767 126.057 84.5948 122.09 81.2142C118.969 78.7384 115.521 76.7067 111.844 75.1768C111.818 75.4927 111.753 75.8043 111.652 76.1044C110.586 79.1522 107.158 79.1291 104.512 78.7325C103.427 78.4978 102.323 78.3635 101.213 78.3311C100.1 78.382 100.096 79.0743 99.9341 79.9783C100.742 81.1901 101.845 82.1764 103.139 82.8443C109.301 86.1907 114.516 91.0744 117.034 95.7222C118.199 97.855 124.143 93.4113 125.1 89.2926Z" fill="#2C658C"/>
<path opacity="0.6" d="M125.1 89.2926C126.048 85.1767 126.057 84.5948 122.09 81.2142C119.078 78.819 115.755 76.8428 112.212 75.3391C112.135 76.2727 111.793 77.1647 111.226 77.9108C110.66 78.657 109.893 79.2263 109.014 79.5522C108.282 79.8316 107.517 80.0141 106.738 80.0951C106.289 80.1556 103.859 80.0016 103.624 80.3486C102.859 81.4758 107.016 83.7743 107.715 84.3931C107.94 84.5848 108.095 84.8447 108.157 85.1331C108.219 85.4215 108.185 85.7223 108.059 85.9893C112.007 88.9148 115.216 92.3752 117.034 95.7222C118.199 97.855 124.144 93.4113 125.1 89.2926Z" fill="#1F4060"/>
<path d="M121.102 94.291C119.372 91.9166 117.376 89.7485 115.152 87.8292C113.598 86.569 110.826 84.1317 108.776 84.0241C107.534 83.9566 107.735 84.8738 107.978 85.9188C111.747 88.938 114.265 91.63 116.146 95.0837C117.039 96.7306 119.562 96.7695 121.257 94.4603C121.223 94.4122 121.149 94.3518 121.102 94.291Z" fill="#2C5777"/>
<path d="M103.907 77.3706C104.967 77.5613 105.96 76.9733 106.125 76.0571C106.29 75.1409 105.564 74.2435 104.504 74.0528C103.444 73.862 102.451 74.45 102.286 75.3662C102.121 76.2824 102.847 77.1798 103.907 77.3706Z" fill="#4FA0BF"/>
<path d="M120.228 95.5005C120.249 97.9242 127.591 96.7999 130.365 93.6145C133.139 90.4291 133.398 89.9091 131.512 85.071C129.347 79.5849 122.644 70.2177 118.073 68.7922C113.502 67.3667 110.58 72.3925 114.024 77.6004C117.891 83.4303 120.187 90.1823 120.228 95.5005Z" fill="#3276A0"/>
<path d="M119.643 77.4224C116.022 73.111 112.219 74.8839 114.031 77.5851C117.927 83.4093 119.707 89.1966 119.747 94.5019C119.771 96.9332 123.929 97.9141 126.702 94.7287C126.894 94.5395 124.207 82.8573 119.643 77.4224Z" fill="#2C658C"/>
<path d="M124.494 96.1319C124.088 93.2225 123.346 90.3699 122.284 87.6308C121.508 85.7912 120.203 82.3308 118.444 81.2729C117.379 80.6331 117.145 81.5539 116.847 82.5713C118.759 87.0075 119.716 90.5701 119.747 94.5015C119.767 96.377 121.977 97.5983 124.561 96.3544C124.535 96.2815 124.513 96.2072 124.494 96.1319Z" fill="#2C5777"/>
<path d="M118.848 73.0839C119.425 72.3529 119.206 71.2197 118.361 70.5528C117.515 69.886 116.362 69.938 115.785 70.669C115.209 71.4001 115.427 72.5333 116.273 73.2002C117.119 73.8671 118.272 73.815 118.848 73.0839Z" fill="#4FA0BF"/>
<rect x="-1.10436" y="1.81119" width="41.8726" height="69.4865" rx="9.5" transform="matrix(-0.971848 0.23561 0.23561 0.971848 109.487 44.4447)" fill="#26A0DF" stroke="black" stroke-width="3"/>
<path d="M138.692 100.714C137.031 97.5058 132.506 91.2492 123.567 91.9144C114.628 92.5795 111.916 97.7941 115.378 101.489C117.801 104.085 124.215 99.7113 128.924 109.87C130.676 113.651 136.484 113.047 138.494 109.123C139.781 106.601 139.75 102.79 138.692 100.714Z" fill="#3276A0"/>
<path d="M138.494 109.123C138.851 108.398 139.107 107.629 139.256 106.835C139.092 106.99 138.921 107.136 138.742 107.273C133.442 111.366 128.817 103.591 128.09 99.1824C127.857 97.8182 127.903 96.4212 128.225 95.0753C128.378 94.151 128.731 93.271 129.258 92.4964C127.414 91.9518 125.484 91.7544 123.567 91.9145C114.628 92.5796 111.916 97.7942 115.378 101.489C117.801 104.085 124.215 99.7114 128.924 109.87C130.676 113.651 136.484 113.047 138.494 109.123Z" fill="#2C658C"/>
<path d="M132.88 111.437C130.419 109.485 130.195 106.054 128.026 103.903C125.328 101.215 122.582 101.955 119.243 102.28C118.398 102.364 117.546 102.361 116.701 102.27C119.657 103.152 124.929 101.21 128.96 109.9C129.945 112.024 132.212 112.763 134.364 112.308C133.829 112.093 133.328 111.8 132.88 111.437Z" fill="#2C5777"/>
<path d="M136.461 100.477C136.212 99.2187 135.525 98.0895 134.523 97.2891C134.219 97.0541 133.86 96.9024 133.479 96.8492C133.099 96.796 132.712 96.8431 132.355 96.9858C132.04 97.1157 131.767 97.3308 131.567 97.6071C131.367 97.8834 131.248 98.21 131.224 98.5501C131.049 99.2732 131.115 100.034 131.412 100.716C131.885 101.838 132.721 102.961 134.008 103.12C134.359 103.171 134.717 103.136 135.052 103.018C135.386 102.899 135.687 102.702 135.928 102.442C136.169 102.182 136.344 101.867 136.437 101.525C136.529 101.183 136.538 100.823 136.461 100.477Z" fill="#468CAF"/>
<path d="M123.155 96.8327C123.295 96.6203 123.386 96.3797 123.422 96.1281C123.458 95.8765 123.437 95.6201 123.363 95.3772C123.333 95.096 123.234 94.8264 123.075 94.5922C122.917 94.3581 122.703 94.1666 122.453 94.0344C121.639 93.6032 120.321 93.7225 119.198 94.1828C119.059 94.2208 118.923 94.2665 118.789 94.3197C118.175 94.5491 117.651 94.9703 117.295 95.5209C117.105 95.861 117.046 96.2587 117.127 96.6396C117.209 97.0205 117.426 97.3586 117.739 97.5911C118.649 98.7177 120.532 98.2808 121.684 97.8534C122.267 97.6712 122.78 97.315 123.155 96.8327Z" fill="#3276A0"/>
<rect x="82.9759" y="75.6754" width="25.3127" height="25.3127" rx="12.6564" transform="rotate(-15.1628 82.9759 75.6754)" fill="#26A0DF"/>
<path d="M102.99 78.2569L103.558 88.7007C103.588 89.4405 103.221 89.7262 102.543 89.5578L98.6955 88.0771L97.5479 89.9774C97.4225 90.1944 97.318 90.3753 96.9873 90.4649L96.3379 87.1538L100.84 80.1995C101.036 79.9005 100.687 79.8585 100.403 80.1816L94.2954 86.7771L90.862 86.6501C90.1155 86.6232 89.9754 86.1558 90.7311 85.5984L101.831 77.5006C102.347 77.1316 102.941 77.3361 102.99 78.2574L102.99 78.2569Z" fill="white"/>
</g>
<defs>
<clipPath id="clip0">
<rect width="288" height="261" rx="8" fill="white"/>
</clipPath>
</defs>
</svg>
