<svg width="32" height="32" viewBox="0 0 32 32" fill="none" xmlns="http://www.w3.org/2000/svg">
<path d="M17 24C17.2653 24 17.5196 24.1054 17.7071 24.2929C17.8947 24.4804 18 24.7348 18 25C18 25.2652 17.8947 25.5196 17.7071 25.7071C17.5196 25.8946 17.2653 26 17 26C16.7348 26 16.4805 25.8946 16.2929 25.7071C16.1054 25.5196 16 25.2652 16 25C16 24.7348 16.1054 24.4804 16.2929 24.2929C16.4805 24.1054 16.7348 24 17 24V24ZM13.5 23C13.7653 23 14.0196 23.1054 14.2071 23.2929C14.3947 23.4804 14.5 23.7348 14.5 24C14.5 24.2652 14.3947 24.5196 14.2071 24.7071C14.0196 24.8946 13.7653 25 13.5 25C13.2348 25 12.9805 24.8946 12.7929 24.7071C12.6054 24.5196 12.5 24.2652 12.5 24C12.5 23.7348 12.6054 23.4804 12.7929 23.2929C12.9805 23.1054 13.2348 23 13.5 23V23ZM20.5 23C20.7653 23 21.0196 23.1054 21.2071 23.2929C21.3947 23.4804 21.5 23.7348 21.5 24C21.5 24.2652 21.3947 24.5196 21.2071 24.7071C21.0196 24.8946 20.7653 25 20.5 25C20.2348 25 19.9805 24.8946 19.7929 24.7071C19.6054 24.5196 19.5 24.2652 19.5 24C19.5 23.7348 19.6054 23.4804 19.7929 23.2929C19.9805 23.1054 20.2348 23 20.5 23ZM17.002 10.009C20.17 10.009 21.968 12.106 22.229 14.639H22.309C22.7933 14.6383 23.273 14.7331 23.7206 14.9178C24.1682 15.1026 24.5751 15.3737 24.918 15.7157C25.2608 16.0577 25.5329 16.4639 25.7188 16.9111C25.9046 17.3583 26.0005 17.8377 26.001 18.322C26.0004 18.8062 25.9044 19.2855 25.7185 19.7326C25.5326 20.1797 25.2604 20.5857 24.9176 20.9276C24.5748 21.2695 24.1679 21.5406 23.7204 21.7253C23.2728 21.9099 22.7932 22.0047 22.309 22.004H11.694C11.2099 22.0047 10.7303 21.9099 10.2827 21.7253C9.83512 21.5406 9.4283 21.2695 9.08547 20.9276C8.74263 20.5857 8.4705 20.1797 8.2846 19.7326C8.09871 19.2855 8.00269 18.8062 8.00203 18.322C8.00256 17.8377 8.09848 17.3583 8.28432 16.9111C8.47015 16.4639 8.74227 16.0577 9.08511 15.7157C9.42796 15.3737 9.83483 15.1026 10.2825 14.9178C10.7301 14.7331 11.2098 14.6383 11.694 14.639H11.774C12.037 12.089 13.834 10.009 17.002 10.009V10.009ZM17.002 11.506C14.93 11.506 13.125 13.14 13.125 15.396C13.125 15.753 12.806 16.034 12.441 16.034H11.751C10.489 16.034 9.46703 17.034 9.46703 18.27C9.46703 19.505 10.489 20.506 11.75 20.506H22.253C23.514 20.506 24.536 19.506 24.536 18.27C24.536 17.035 23.514 16.034 22.253 16.034H21.563C21.197 16.034 20.878 15.754 20.878 15.396C20.878 13.111 19.073 11.506 17.002 11.506V11.506ZM8.36703 14.164C8.43657 14.3315 8.44308 14.5185 8.38535 14.6904C8.32762 14.8623 8.20956 15.0074 8.05303 15.099L7.96103 15.144L7.03503 15.528C6.85968 15.5995 6.66378 15.602 6.48666 15.535C6.30954 15.468 6.16431 15.3365 6.08013 15.1669C5.99596 14.9973 5.97906 14.8021 6.03283 14.6205C6.0866 14.4389 6.20706 14.2844 6.37003 14.188L6.46103 14.142L7.38703 13.758C7.47804 13.7203 7.57558 13.7009 7.67408 13.7009C7.77259 13.7009 7.87013 13.7203 7.96113 13.758C8.05214 13.7957 8.13482 13.851 8.20447 13.9206C8.27411 13.9903 8.32935 14.073 8.36703 14.164V14.164ZM14.854 9.331L14.683 9.389C14.1629 9.57129 13.6714 9.82651 13.223 10.147C12.7416 9.99061 12.2234 9.98771 11.7402 10.1387C11.257 10.2897 10.8327 10.5872 10.5259 10.9899C10.2192 11.3926 10.0452 11.8807 10.028 12.3867C10.0108 12.8926 10.1513 13.3914 10.43 13.814C9.94231 13.9508 9.48045 14.167 9.06303 14.454C8.6047 13.6662 8.4335 12.744 8.57857 11.8442C8.72363 10.9444 9.17599 10.1227 9.85868 9.51888C10.5414 8.91506 11.4122 8.56645 12.3229 8.53238C13.2337 8.49831 14.1281 8.78088 14.854 9.332V9.331ZM6.94103 9.362L7.04603 9.397L7.97203 9.781C8.1457 9.85421 8.28543 9.99012 8.36344 10.1617C8.44145 10.3332 8.45201 10.5279 8.39301 10.7069C8.33402 10.8859 8.20981 11.0361 8.04508 11.1276C7.88035 11.2192 7.68719 11.2454 7.50403 11.201L7.39803 11.167L6.47203 10.783C6.29791 10.71 6.15772 10.574 6.07946 10.4022C6.00119 10.2304 5.99061 10.0354 6.04982 9.8561C6.10903 9.67682 6.23368 9.52647 6.39889 9.43507C6.56409 9.34366 6.75769 9.31793 6.94103 9.363V9.362ZM10.756 6.376L10.801 6.467L11.185 7.393C11.2575 7.56851 11.2608 7.765 11.1941 7.9428C11.1274 8.1206 10.9957 8.26648 10.8257 8.351C10.6556 8.43552 10.4598 8.45238 10.2778 8.39819C10.0958 8.344 9.94116 8.22278 9.84503 8.059L9.79903 7.967L9.41503 7.041C9.34356 6.86565 9.34107 6.66975 9.40805 6.49263C9.47503 6.31551 9.60653 6.17028 9.77616 6.0861C9.94578 6.00192 10.141 5.98502 10.3225 6.0388C10.5041 6.09257 10.6586 6.21303 10.755 6.376H10.756ZM15.109 6.057C15.2751 6.12591 15.4108 6.25217 15.4916 6.41277C15.5723 6.57337 15.5927 6.75763 15.549 6.932L15.515 7.037L15.131 7.963C15.0578 8.13667 14.9219 8.2764 14.7504 8.35441C14.5788 8.43242 14.3842 8.44297 14.2052 8.38398C14.0262 8.32499 13.876 8.20077 13.7844 8.03605C13.6928 7.87132 13.6666 7.67816 13.711 7.495L13.746 7.389L14.129 6.463C14.1667 6.37199 14.222 6.28929 14.2916 6.21963C14.3612 6.14997 14.4439 6.09471 14.5349 6.05701C14.6259 6.01931 14.7235 5.9999 14.822 5.9999C14.9205 5.9999 15.018 6.0193 15.109 6.057V6.057Z" fill="#4099F1"/>
</svg>

