<svg width="288" height="155" viewBox="0 0 288 155" fill="none" xmlns="http://www.w3.org/2000/svg">
<g clip-path="url(#clip0)">
<rect width="288" height="155" rx="8" fill="#404040"/>
<rect x="18" y="98.8415" width="17.1806" height="34.3612" rx="4" fill="#E1F7A3"/>
<rect x="39.7621" y="79.3701" width="17.1806" height="53.8326" rx="4" fill="#E1F7A3"/>
<rect x="61.5242" y="60.4714" width="17.1806" height="72.7313" rx="4" fill="#E1F7A3"/>
<rect x="83.2864" y="105.141" width="17.1806" height="28.0617" rx="4" fill="#E1F7A3"/>
<rect x="105.048" y="82.8062" width="17.1806" height="50.3965" rx="4" fill="#E1F7A3"/>
<rect x="126.811" y="87.3877" width="17.1806" height="45.815" rx="4" fill="#E1F7A3"/>
<rect x="148.573" y="78.7974" width="17.1806" height="54.4053" rx="4" fill="#E1F7A3"/>
<rect x="170.335" y="65.0529" width="17.1806" height="68.1498" rx="4" fill="#E1F7A3"/>
<path d="M170.498 151.074C170.498 150.9 170.559 150.731 170.669 150.596C170.78 150.461 170.933 150.368 171.104 150.332C171.282 150.038 171.538 149.798 171.844 149.639C172.151 149.481 172.495 149.411 172.838 149.436C173.04 149.35 173.26 149.315 173.479 149.334C174.608 149.43 175.08 150.581 175.003 151.651C175.107 152.582 174.736 153.586 173.919 154.053C173.629 154.223 173.3 154.315 172.964 154.32C172.602 154.344 172.239 154.28 171.909 154.131C171.578 153.983 171.288 153.755 171.066 153.468C170.522 152.796 170.466 151.91 170.498 151.074Z" fill="#273C56"/>
<path d="M165.03 150.431C166.938 150.717 169.161 151.416 170.388 153.028C170.513 152.984 170.645 152.968 170.776 152.982C170.907 152.995 171.034 153.038 171.147 153.106C171.259 153.175 171.355 153.267 171.428 153.378C171.5 153.488 171.547 153.613 171.565 153.743C171.862 156.209 170.055 157.461 167.696 157.127C165.486 156.815 163.618 155.705 162.526 153.717C161.534 151.91 163.084 150.143 165.03 150.431Z" fill="#273C56"/>
<path d="M164.747 152.796C164.747 152.796 161.243 148.411 161.243 147.784C161.243 146.858 161.712 146.858 161.712 146.858L171.408 137.517C171.736 137.493 172.065 137.542 172.373 137.659C172.68 137.777 172.957 137.961 173.185 138.198C174.653 139.666 178.427 143.599 178.427 143.599C178.427 143.599 173.663 152.38 173.073 153.687C172.483 154.995 170.823 155.446 169.169 154.773C167.816 154.224 165.2 153.452 164.747 152.796Z" fill="#1F4060"/>
<path d="M161.712 146.858L164.082 144.571C164.653 145.409 165.312 146.209 165.857 147.037C166.615 148.186 167.359 149.342 168.091 150.506C168.833 151.688 169.572 152.865 170.351 154.018C170.567 154.368 170.786 154.715 171.005 155.064C170.378 155.117 169.748 155.016 169.169 154.771C167.816 154.221 165.2 153.436 164.747 152.793C164.747 152.793 161.243 148.408 161.243 147.781C161.243 146.858 161.712 146.858 161.712 146.858Z" fill="#2C5777"/>
<path d="M167.637 148.953C168.267 149.705 169.014 150.378 169.662 151.088C170.642 152.177 171.603 153.281 172.598 154.365C171.96 154.979 170.965 155.208 169.908 154.981C169.796 154.768 169.684 154.554 169.566 154.341C168.718 152.697 167.946 150.978 167.052 149.345C167.14 149.305 167.225 149.258 167.306 149.206L167.637 148.953Z" fill="#346F93"/>
<path d="M171.854 137.517C171.854 137.517 170.098 137.517 169.086 137.517C168.075 137.517 166.991 138.878 166.15 139.692C165.31 140.506 162.569 144.926 161.776 146.249C160.984 147.573 160.976 147.997 162.094 148.44C163.033 148.817 164.44 149.188 165.675 149.577C166.826 149.943 167.976 149.535 168.923 147.909C169.871 146.284 172.345 140.314 172.838 139.212C173.3 138.163 172.846 137.512 171.854 137.517Z" fill="#3276A0"/>
<path d="M163.89 141.099C162.057 143.634 161.048 145.465 162.74 146.703C163.96 147.594 166.938 147.373 168.897 144.301C170.581 141.662 171.146 138.833 169.164 137.704C167.362 136.671 165.724 138.566 163.89 141.099Z" fill="#121A26"/>
<path d="M171.709 123.232C171.613 123.117 171.515 122.994 171.416 122.863L171.106 122.455L170.789 122.015C170.629 121.785 170.46 121.54 170.292 121.281C170.124 121.022 169.953 120.747 169.785 120.464C169.729 120.368 169.671 120.272 169.614 120.173C169.446 119.88 169.278 119.576 169.115 119.258C169.006 119.047 168.902 118.831 168.798 118.609C168.75 118.497 168.699 118.385 168.648 118.273C167.848 116.466 167.506 114.657 167.8 113.152C167.93 112.458 168.232 111.807 168.678 111.26C168.879 111.002 169.131 110.788 169.417 110.63C169.697 110.467 170 110.349 170.316 110.28C170.54 110.231 170.768 110.21 170.997 110.216C171.226 110.233 171.452 110.275 171.672 110.342C171.391 110.514 171.141 110.731 170.93 110.985C170.707 111.26 170.519 111.561 170.37 111.882C170.305 112.014 170.248 112.151 170.199 112.29C170.056 112.686 169.958 113.097 169.905 113.515C169.867 113.805 169.848 114.097 169.849 114.39C169.866 115.493 170.046 116.588 170.383 117.638C170.704 118.679 171.108 119.693 171.592 120.67C171.717 120.937 171.859 121.187 171.976 121.43C172.174 121.807 172.369 122.153 172.553 122.463L172.753 122.789C172.897 123.019 173.053 123.241 173.22 123.456C173.348 123.625 173.491 123.783 173.647 123.928C173.59 124.021 173.517 124.102 173.431 124.168C173.364 124.233 173.283 124.279 173.193 124.302C173.073 124.314 172.951 124.299 172.837 124.257C172.724 124.216 172.621 124.149 172.537 124.062C172.229 123.819 171.951 123.54 171.709 123.232Z" fill="#121A26"/>
<path d="M160.591 115.233C160.802 114.816 161.103 114.452 161.472 114.166C161.101 114.45 160.799 114.815 160.589 115.233H160.591Z" fill="#2C5777"/>
<path d="M169.932 125.73C169.849 125.785 169.755 125.821 169.657 125.834C169.558 125.847 169.458 125.838 169.364 125.807C169.458 125.838 169.558 125.847 169.657 125.833C169.755 125.82 169.849 125.784 169.932 125.73Z" fill="#2C5777"/>
<path d="M169.905 113.515C169.958 113.097 170.056 112.686 170.199 112.29C170.248 112.151 170.305 112.014 170.37 111.882C170.519 111.561 170.707 111.26 170.93 110.985C171.141 110.731 171.391 110.514 171.672 110.342C172.061 110.096 172.501 109.94 172.958 109.885L173.369 109.861C173.369 109.861 173.919 109.835 174.746 109.811C175.163 109.787 175.638 109.811 176.15 109.845L176.951 109.893L177.356 109.92L177.759 109.973C178.293 110.048 178.827 110.128 179.334 110.208C179.841 110.288 180.279 110.416 180.668 110.504L181.608 110.737C181.722 110.763 181.808 110.793 181.875 110.811L181.965 110.841C181.358 110.674 180.712 110.713 180.129 110.953C179.822 111.073 179.532 111.235 179.267 111.433C178.98 111.659 178.718 111.915 178.485 112.196C177.517 113.363 176.929 115.087 176.729 117.054C176.565 118.764 176.61 120.488 176.863 122.188C176.913 122.522 176.972 122.823 177.036 123.09C177.091 123.34 177.164 123.585 177.255 123.824C177.415 124.246 177.613 124.473 177.88 124.561C177.83 124.539 177.778 124.522 177.725 124.51L177.314 124.419C177.146 124.385 176.951 124.315 176.74 124.283C176.529 124.251 176.31 124.227 176.089 124.19L175.923 124.16H175.761H175.446C175.262 124.14 175.078 124.134 174.893 124.142C174.573 124.16 174.359 124.16 174.359 124.16C174.306 124.156 174.253 124.156 174.199 124.16C174.1 124.166 174 124.149 173.908 124.111C173.816 124.073 173.733 124.015 173.666 123.941C173.51 123.797 173.367 123.639 173.239 123.469C173.072 123.255 172.916 123.032 172.772 122.802L172.571 122.476C172.387 122.167 172.192 121.82 171.995 121.444C171.867 121.201 171.728 120.942 171.611 120.683C171.127 119.706 170.723 118.693 170.402 117.651C170.065 116.601 169.885 115.506 169.868 114.403C169.86 114.107 169.873 113.81 169.905 113.515Z" fill="#2C5777"/>
<path d="M167.375 126.186C167.239 126.141 167.109 126.09 166.946 126.034L166.479 125.852L165.974 125.641C165.708 125.529 165.441 125.407 165.16 125.273C164.88 125.14 164.589 125.006 164.293 124.846L163.994 124.691C163.692 124.531 163.387 124.36 163.081 124.179C162.876 124.056 162.671 123.928 162.468 123.795L162.161 123.592C160.522 122.484 159.284 121.147 158.747 119.709C158.48 119.047 158.397 118.325 158.507 117.619C158.559 117.292 158.659 116.973 158.804 116.675C158.959 116.387 159.161 116.127 159.401 115.906C159.571 115.747 159.758 115.608 159.959 115.492C160.058 115.435 160.159 115.384 160.263 115.338C160.373 115.297 160.482 115.263 160.594 115.233C160.441 115.532 160.34 115.856 160.295 116.189C160.243 116.542 160.236 116.901 160.274 117.256C160.288 117.402 160.309 117.548 160.338 117.691C160.378 117.892 160.43 118.091 160.493 118.286C160.561 118.495 160.641 118.699 160.733 118.898C160.856 119.167 160.995 119.428 161.149 119.68C161.737 120.61 162.461 121.447 163.298 122.161C164.123 122.876 165.001 123.527 165.924 124.11C166.172 124.267 166.415 124.414 166.647 124.553L167.181 124.852L167.68 125.118L168.021 125.295C168.288 125.433 168.555 125.561 168.774 125.633C168.967 125.708 169.166 125.766 169.369 125.81C169.367 125.866 169.361 125.922 169.35 125.978C169.346 126.029 169.337 126.08 169.324 126.13C169.303 126.216 169.257 126.295 169.193 126.357C169.119 126.424 169.025 126.467 168.926 126.479C168.798 126.496 168.669 126.496 168.542 126.479C168.143 126.425 167.752 126.327 167.375 126.186Z" fill="#121A26"/>
<path d="M168.008 125.295L167.666 125.118L167.167 124.852L166.634 124.553C166.401 124.414 166.159 124.267 165.91 124.11C164.987 123.527 164.109 122.876 163.284 122.161C162.448 121.447 161.723 120.61 161.136 119.68C160.981 119.428 160.842 119.167 160.72 118.898C160.628 118.699 160.548 118.495 160.479 118.286C160.417 118.091 160.365 117.892 160.325 117.691C160.296 117.548 160.274 117.402 160.261 117.256C160.223 116.901 160.23 116.542 160.282 116.189C160.326 115.856 160.427 115.532 160.581 115.233C160.428 115.532 160.328 115.854 160.285 116.186C160.23 116.539 160.222 116.898 160.261 117.254C160.277 117.398 160.298 117.542 160.325 117.689C160.408 118.105 160.54 118.51 160.72 118.895C160.842 119.164 160.981 119.425 161.136 119.677C161.723 120.607 162.448 121.444 163.284 122.159C164.107 122.876 164.985 123.528 165.91 124.107C166.159 124.264 166.399 124.414 166.631 124.55C166.986 124.761 167.33 124.953 167.65 125.126L167.992 125.303C168.259 125.441 168.526 125.569 168.742 125.641C168.935 125.716 169.134 125.774 169.337 125.818C169.134 125.774 168.935 125.716 168.742 125.641C168.536 125.548 168.286 125.433 168.008 125.295Z" fill="#121A26"/>
<path d="M161.155 119.666C161 119.414 160.861 119.153 160.738 118.884C160.559 118.499 160.427 118.094 160.343 117.678C160.317 117.531 160.295 117.387 160.279 117.243C160.241 116.888 160.249 116.529 160.303 116.175C160.347 115.843 160.447 115.521 160.6 115.223C160.81 114.805 161.112 114.44 161.483 114.155L161.648 114.027C161.731 113.963 161.819 113.91 161.819 113.91C161.819 113.91 162.305 113.584 163.044 113.109C163.407 112.861 163.866 112.639 164.346 112.378L165.094 111.991C165.361 111.871 165.627 111.759 165.894 111.644C166.875 111.225 167.881 110.868 168.907 110.577C169.753 110.371 170.322 110.254 170.322 110.254C170.005 110.322 169.702 110.44 169.422 110.603C169.136 110.761 168.885 110.975 168.683 111.233C168.237 111.781 167.935 112.431 167.805 113.125C167.512 114.63 167.856 116.44 168.654 118.246C168.704 118.359 168.755 118.471 168.803 118.583C168.907 118.804 169.011 119.02 169.121 119.231C169.284 119.549 169.452 119.853 169.62 120.147C169.676 120.245 169.735 120.341 169.791 120.437C169.959 120.723 170.13 120.995 170.298 121.254C170.466 121.513 170.634 121.758 170.794 121.988L171.112 122.428L171.421 122.837C171.52 122.967 171.619 123.09 171.715 123.205C171.954 123.513 172.229 123.792 172.534 124.035C172.618 124.122 172.721 124.189 172.835 124.23C172.948 124.272 173.07 124.287 173.191 124.275C173.191 124.275 172.98 124.326 172.657 124.39C172.279 124.503 171.909 124.638 171.547 124.793L171.248 124.91L170.981 125.062C170.814 125.139 170.654 125.228 170.501 125.329C170.234 125.508 170.052 125.615 170.052 125.615C170.052 125.615 170.018 125.633 169.991 125.657L169.932 125.706C169.849 125.761 169.754 125.797 169.655 125.81C169.557 125.823 169.456 125.814 169.361 125.783C169.158 125.74 168.959 125.681 168.766 125.607C168.544 125.521 168.293 125.407 168.016 125.268L167.674 125.092C167.354 124.918 167.01 124.726 166.655 124.515C166.423 124.379 166.183 124.23 165.934 124.072C165.009 123.493 164.131 122.842 163.308 122.124C162.472 121.417 161.746 120.589 161.155 119.666Z" fill="#2C5777"/>
<path d="M165.518 130.728L165.07 130.84L164.573 130.952L164.04 131.07C163.773 131.126 163.479 131.184 163.178 131.238C162.876 131.291 162.561 131.347 162.233 131.398L161.902 131.443C161.568 131.491 161.221 131.531 160.866 131.563C160.632 131.585 160.391 131.601 160.146 131.614L159.78 131.63C158.843 131.669 157.904 131.592 156.986 131.401C156.177 131.237 155.409 130.915 154.726 130.453C154.124 130.043 153.637 129.485 153.311 128.833C153.037 128.205 152.959 127.508 153.087 126.834C153.207 126.366 153.427 125.93 153.733 125.556C153.775 125.896 153.865 126.228 154 126.543C154.07 126.704 154.15 126.86 154.24 127.011C154.339 127.167 154.448 127.316 154.568 127.456C154.664 127.571 154.766 127.68 154.875 127.79C155.18 128.094 155.518 128.363 155.884 128.59C156.134 128.743 156.393 128.879 156.66 128.999C157.672 129.428 158.744 129.698 159.839 129.799C160.926 129.909 162.019 129.941 163.111 129.895C163.406 129.885 163.692 129.871 163.967 129.855C164.386 129.831 164.768 129.799 165.126 129.765L165.499 129.725L165.918 129.669C166.057 129.65 166.185 129.631 166.305 129.61C166.506 129.579 166.702 129.528 166.892 129.458C166.957 129.522 167.005 129.6 167.033 129.686C167.061 129.773 167.067 129.865 167.053 129.954C167.034 130.12 166.876 130.25 166.604 130.373C166.535 130.405 166.46 130.434 166.377 130.464C166.295 130.493 166.22 130.525 166.132 130.555C165.95 130.608 165.747 130.667 165.518 130.728Z" fill="#121A26"/>
<path d="M153.725 125.556C153.697 125.317 153.697 125.075 153.725 124.836C153.758 124.597 153.818 124.364 153.904 124.139V124.11C153.817 124.337 153.757 124.573 153.722 124.814C153.7 125.057 153.705 125.301 153.738 125.543L153.725 125.556Z" fill="#2C5777"/>
<path d="M167.311 129.111C167.278 129.186 167.223 129.25 167.154 129.295C167.073 129.356 166.983 129.404 166.887 129.439C166.983 129.404 167.073 129.354 167.154 129.292C167.224 129.25 167.279 129.186 167.311 129.111Z" fill="#2C5777"/>
<path d="M156.658 128.985C156.391 128.866 156.131 128.73 155.881 128.577C155.515 128.35 155.177 128.081 154.872 127.776C154.763 127.667 154.662 127.558 154.566 127.443C154.446 127.302 154.336 127.153 154.237 126.997C154.147 126.847 154.067 126.691 153.997 126.53C153.863 126.215 153.773 125.883 153.73 125.543C153.697 125.301 153.692 125.057 153.714 124.814C153.749 124.573 153.809 124.337 153.896 124.11L154.04 123.733L154.187 123.354C154.321 123.014 154.473 122.681 154.643 122.356L154.969 121.7C155.086 121.455 155.216 121.218 155.358 120.987C155.649 120.507 155.959 119.989 156.292 119.495C156.626 119.002 156.999 118.537 157.341 118.094C157.683 117.651 158.048 117.294 158.344 116.957C158.497 116.795 158.63 116.64 158.758 116.514L159.094 116.194L159.391 115.927C159.15 116.149 158.948 116.408 158.793 116.696C158.648 116.995 158.549 117.313 158.497 117.641C158.386 118.346 158.469 119.068 158.737 119.73C159.271 121.169 160.511 122.506 162.15 123.613L162.457 123.816C162.66 123.95 162.865 124.083 163.071 124.2C163.379 124.378 163.683 124.549 163.983 124.713L164.282 124.868C164.579 125.022 164.869 125.164 165.15 125.295C165.43 125.425 165.705 125.561 165.964 125.663L166.468 125.874L166.935 126.055C167.087 126.111 167.229 126.162 167.365 126.207C167.733 126.349 168.116 126.45 168.507 126.509C168.635 126.525 168.764 126.525 168.891 126.509C168.991 126.496 169.084 126.454 169.158 126.386L169.051 126.485L168.929 126.594C168.881 126.64 168.838 126.698 168.787 126.754C168.686 126.874 168.558 127.005 168.43 127.149C168.301 127.293 168.197 127.472 168.069 127.63C167.941 127.787 167.866 127.977 167.76 128.131C167.709 128.205 167.667 128.284 167.634 128.366L167.53 128.58C167.451 128.721 167.386 128.869 167.335 129.023L167.29 129.14C167.258 129.218 167.202 129.284 167.13 129.327C167.049 129.389 166.959 129.438 166.863 129.474C166.673 129.544 166.476 129.595 166.276 129.626C166.156 129.647 166.028 129.666 165.889 129.685L165.47 129.741L165.096 129.781C164.747 129.815 164.357 129.847 163.938 129.871C163.662 129.887 163.377 129.901 163.081 129.911C161.99 129.957 160.897 129.925 159.81 129.815C158.723 129.702 157.66 129.422 156.658 128.985Z" fill="#2C5777"/>
<path d="M166.77 135.521C166.681 135.639 166.583 135.761 166.479 135.887C166.375 136.012 166.263 136.154 166.145 136.279L165.774 136.69C165.574 136.904 165.374 137.117 165.16 137.339C164.947 137.56 164.717 137.782 164.474 138.008L164.229 138.233C163.978 138.459 163.717 138.686 163.428 138.91C163.244 139.06 163.055 139.209 162.86 139.356L162.561 139.572C161.803 140.125 160.984 140.587 160.119 140.949C159.724 141.111 159.317 141.243 158.902 141.342C158.524 141.428 158.137 141.476 157.749 141.483C157.043 141.509 156.341 141.361 155.705 141.051C155.126 140.736 154.665 140.242 154.392 139.642C154.194 139.213 154.113 138.74 154.157 138.27C154.391 138.516 154.661 138.725 154.958 138.889C155.275 139.05 155.611 139.172 155.959 139.252C156.104 139.287 156.251 139.314 156.399 139.332C156.817 139.389 157.241 139.399 157.661 139.361C157.952 139.336 158.24 139.294 158.526 139.233C159.599 138.982 160.628 138.574 161.582 138.022C162.53 137.484 163.434 136.871 164.285 136.188C164.517 136.004 164.741 135.825 164.952 135.655C165.278 135.388 165.574 135.121 165.836 134.878L166.102 134.611C166.319 134.4 166.505 134.203 166.655 134.024C166.798 133.871 166.929 133.706 167.044 133.53C167.229 133.582 167.388 133.701 167.49 133.864C167.527 133.976 167.537 134.095 167.519 134.212C167.502 134.329 167.457 134.44 167.389 134.536C167.218 134.886 167.011 135.216 166.77 135.521Z" fill="#121A26"/>
<path d="M154.168 138.27C153.838 137.925 153.589 137.511 153.439 137.058L153.421 136.989C153.569 137.456 153.825 137.882 154.168 138.233V138.27Z" fill="#2C5777"/>
<path d="M167.162 132.978V132.999C167.187 133.091 167.189 133.187 167.17 133.279C167.15 133.372 167.109 133.459 167.05 133.533H167.031C167.095 133.457 167.139 133.367 167.162 133.271C167.185 133.174 167.185 133.074 167.162 132.978Z" fill="#2C5777"/>
<path d="M158.526 139.233C158.24 139.293 157.952 139.336 157.661 139.361C157.241 139.399 156.817 139.389 156.399 139.332C156.251 139.314 156.104 139.287 155.959 139.252C155.611 139.172 155.275 139.05 154.958 138.889C154.661 138.725 154.391 138.516 154.157 138.27V138.233C153.814 137.882 153.558 137.456 153.41 136.989L153.322 136.637C153.322 136.637 153.167 136.044 152.964 135.147C152.874 134.696 152.809 134.155 152.732 133.581C152.652 132.979 152.609 132.373 152.604 131.766C152.604 131.454 152.604 131.144 152.585 130.837C152.567 130.531 152.623 130.232 152.639 129.941C152.663 129.412 152.717 128.884 152.799 128.361C152.948 127.443 153.066 126.834 153.066 126.834C152.938 127.508 153.016 128.205 153.29 128.833C153.615 129.485 154.102 130.043 154.704 130.453C155.388 130.915 156.156 131.237 156.965 131.401C157.883 131.592 158.822 131.669 159.759 131.63L160.124 131.614C160.37 131.614 160.61 131.585 160.845 131.563C161.2 131.531 161.547 131.491 161.88 131.443L162.211 131.398C162.54 131.346 162.855 131.293 163.156 131.238C163.458 131.184 163.746 131.126 164.018 131.07L164.552 130.952L165.048 130.84L165.497 130.728C165.726 130.667 165.929 130.608 166.108 130.547C166.196 130.517 166.276 130.488 166.353 130.456C166.431 130.424 166.511 130.397 166.58 130.365C166.847 130.242 167.01 130.098 167.028 129.946C167.028 129.946 167.01 130.13 166.956 130.4C166.928 130.553 166.913 130.708 166.911 130.864C166.911 130.95 166.911 131.038 166.884 131.131C166.858 131.224 166.9 131.313 166.903 131.398C166.896 131.577 166.907 131.755 166.938 131.932C166.97 132.102 166.972 132.263 167.002 132.401C167.082 132.668 167.116 132.863 167.116 132.863L167.141 132.975C167.16 133.068 167.159 133.164 167.137 133.256C167.115 133.349 167.072 133.435 167.012 133.509H167.031C166.915 133.684 166.785 133.849 166.641 134.003C166.492 134.181 166.305 134.379 166.089 134.59L165.822 134.857C165.555 135.099 165.264 135.361 164.939 135.633C164.728 135.809 164.504 135.988 164.272 136.167C163.421 136.849 162.517 137.462 161.568 138C160.62 138.559 159.595 138.974 158.526 139.233Z" fill="#2C5777"/>
<path d="M155.716 141.051C156.351 141.361 157.053 141.509 157.76 141.483C158.148 141.476 158.534 141.428 158.913 141.342C159.328 141.243 159.735 141.111 160.13 140.949C160.995 140.587 161.814 140.125 162.572 139.572L162.871 139.356C163.065 139.209 163.255 139.06 163.439 138.911C163.706 138.686 163.973 138.46 164.24 138.233L164.485 138.009C164.728 137.782 164.955 137.557 165.171 137.339C165.387 137.12 165.585 136.904 165.785 136.69L166.156 136.279C166.273 136.143 166.385 136.012 166.489 135.887C166.593 135.761 166.692 135.639 166.78 135.521C167.025 135.216 167.235 134.885 167.407 134.534C167.476 134.437 167.52 134.326 167.538 134.21C167.556 134.093 167.546 133.974 167.509 133.861C167.509 133.861 167.605 134.045 167.73 134.336C167.792 134.48 167.92 134.641 168.019 134.822L168.179 135.089C168.243 135.187 168.312 135.281 168.387 135.372C168.531 135.561 168.67 135.753 168.798 135.938L169.233 136.421L169.534 136.768L169.67 136.893L169.812 137.026C169.913 137.137 169.989 137.267 170.036 137.41C170.082 137.552 170.096 137.702 170.079 137.851C170.072 138.055 170.056 138.258 170.028 138.46C169.988 138.701 169.936 138.941 169.871 139.177C169.836 139.3 169.799 139.423 169.756 139.551C169.644 139.898 169.505 140.272 169.337 140.664C169.23 140.917 169.11 141.179 168.979 141.446C168.499 142.432 167.93 143.373 167.279 144.256C166.637 145.142 165.877 145.938 165.022 146.62C164.792 146.798 164.553 146.964 164.306 147.117C163.954 147.336 163.581 147.521 163.193 147.669C163.058 147.719 162.922 147.764 162.785 147.805C162.507 147.886 162.222 147.94 161.934 147.966C161.667 147.995 161.397 147.982 161.133 147.928C160.632 147.831 160.17 147.593 159.799 147.242L159.532 146.975L159.265 146.725C159.108 146.546 158.881 146.295 158.606 145.991L157.656 144.971C157.338 144.555 157.005 144.107 156.676 143.653C156.514 143.423 156.34 143.21 156.193 142.967C156.047 142.724 155.903 142.487 155.761 142.257C155.494 141.79 155.227 141.374 155.025 140.979C154.638 140.178 154.392 139.644 154.392 139.644C154.668 140.245 155.133 140.739 155.716 141.051Z" fill="#2C5777"/>
<path d="M176.727 121.137C175.155 121.019 173.574 121.172 172.054 121.588C172.024 121.537 171.998 121.486 171.968 121.43C171.84 121.187 171.701 120.928 171.584 120.67C171.354 120.2 171.128 119.69 170.914 119.151C172.78 118.688 174.704 118.508 176.623 118.617C176.607 119.458 176.642 120.3 176.727 121.137Z" fill="#273C56"/>
<path d="M167.034 120.707C167.751 120.266 168.515 119.908 169.313 119.639C169.412 119.826 169.513 120.008 169.614 120.173C169.671 120.272 169.729 120.368 169.785 120.464C169.953 120.75 170.124 121.022 170.292 121.281C170.46 121.54 170.621 121.774 170.781 122.001C170.019 122.253 169.276 122.555 168.555 122.906C166.268 123.821 165.307 121.686 167.034 120.707Z" fill="#273C56"/>
<path d="M155.449 135.769C155.841 134.835 157.477 134.672 158.059 137.029C158.253 137.755 158.49 138.468 158.771 139.164C158.689 139.183 158.606 139.207 158.526 139.223C158.241 139.283 157.952 139.326 157.661 139.351C157.241 139.388 156.817 139.378 156.399 139.321C156.251 139.303 156.104 139.276 155.959 139.241L155.852 139.212C155.425 138.032 155.059 136.698 155.449 135.769Z" fill="#273C56"/>
<path d="M161.926 147.979C161.832 147.979 161.739 147.979 161.659 147.979C158.478 144.84 156.855 141.878 156.671 141.36C157.036 141.441 157.408 141.477 157.781 141.47C158.169 141.462 158.556 141.415 158.934 141.328C159.176 141.272 159.415 141.203 159.649 141.123C159.812 141.448 159.98 141.769 160.162 142.084C160.948 143.4 161.84 144.649 162.83 145.82C163.182 146.348 163.594 146.832 164.058 147.264C163.785 147.417 163.502 147.55 163.209 147.661C163.074 147.711 162.938 147.756 162.801 147.797C162.516 147.887 162.223 147.948 161.926 147.979Z" fill="#273C56"/>
<path d="M163.965 129.847C163.689 129.863 163.404 129.877 163.108 129.887C162.687 129.887 162.246 129.906 161.793 129.887C161.879 129.081 162.141 128.303 162.561 127.608C163.122 126.629 165.094 126.677 164.835 128.289C164.72 128.783 164.639 129.284 164.592 129.789L163.965 129.847Z" fill="#3276A0"/>
<path d="M164.285 136.188C163.765 136.599 163.194 137.016 162.569 137.419C161.841 135.513 161.664 133.501 161.715 131.467L161.894 131.443L162.225 131.398C162.554 131.346 162.869 131.293 163.17 131.238C163.471 131.184 163.759 131.126 164.032 131.07L164.539 130.96C164.549 132.452 164.812 133.931 165.318 135.334C165.2 135.438 165.08 135.54 164.952 135.649C164.741 135.825 164.517 136.004 164.285 136.188Z" fill="#3276A0"/>
<path d="M167.33 144.17C167.063 143.882 166.812 143.597 166.572 143.338C165.323 142.023 164.233 140.565 163.324 138.996L163.439 138.905C163.706 138.681 163.973 138.454 164.24 138.227L164.485 138.003C164.728 137.776 164.955 137.552 165.171 137.333C165.387 137.114 165.585 136.898 165.785 136.685L165.852 136.613C166.052 137.045 166.271 137.469 166.514 137.883C166.628 138.099 166.751 138.31 166.884 138.513C167.461 139.568 168.168 140.547 168.987 141.427C168.987 141.427 168.987 141.446 168.974 141.454C168.507 142.406 167.957 143.315 167.33 144.17Z" fill="#3276A0"/>
<path d="M177.364 114.849C174.872 114.94 172.398 115.309 169.988 115.949C169.898 115.434 169.852 114.913 169.849 114.39C169.848 114.097 169.867 113.805 169.905 113.515C169.958 113.097 170.056 112.686 170.199 112.29C170.223 112.22 170.255 112.156 170.282 112.09C171.176 111.858 172.078 111.663 172.985 111.497C173.492 111.444 173.999 111.398 174.509 111.372C175.635 111.327 176.762 111.394 177.874 111.572C177.721 112.192 177.65 112.83 177.663 113.469C177.507 113.915 177.406 114.379 177.364 114.849Z" fill="#3276A0"/>
<path d="M168.051 116.576C166.855 117.02 165.702 117.571 164.605 118.222C163.552 118.849 162.568 119.585 161.67 120.419C161.478 120.178 161.3 119.927 161.136 119.666C160.981 119.414 160.842 119.153 160.72 118.884C160.54 118.499 160.408 118.094 160.325 117.678C160.298 117.531 160.277 117.387 160.261 117.243C160.245 117.099 160.245 117.032 160.242 116.925L160.311 116.867C162.581 115.094 165.137 113.723 167.869 112.813C167.837 112.925 167.802 113.037 167.781 113.152C167.605 114.299 167.697 115.471 168.051 116.576Z" fill="#3276A0"/>
<path d="M156.18 121.881C156.797 120.688 157.569 119.582 158.478 118.593C158.516 118.976 158.606 119.351 158.745 119.709C159.078 120.544 159.576 121.303 160.207 121.943C159.518 122.751 158.901 123.618 158.363 124.534C158.253 124.733 158.094 124.9 157.901 125.02C157.708 125.14 157.488 125.209 157.261 125.22C156.932 125.225 156.613 125.103 156.372 124.878C156.334 124.843 156.297 124.805 156.263 124.766C155.409 123.776 156.028 122.364 156.18 121.881Z" fill="#3276A0"/>
<path d="M181.996 153.347C188.804 156.074 198.44 158.596 209.23 160.262C220.019 161.929 229.97 162.413 237.295 161.886C244.619 161.359 249.288 159.768 249.672 157.288L247.88 168.902C247.113 173.876 229.003 175.205 207.434 171.876C185.866 168.547 169.003 161.814 169.773 156.826L171.565 145.212C171.199 147.71 175.205 150.63 181.996 153.347Z" fill="#346E91"/>
<path d="M248.59 157.116V157.084L248.916 154.984C249.528 155.78 249.804 156.554 249.69 157.288C249.575 158.023 249.081 158.679 248.256 159.248L248.582 157.149C248.583 157.137 248.586 157.127 248.59 157.116Z" fill="#2A6D96"/>
<path d="M171.583 145.227C171.697 144.51 172.188 143.84 173.016 143.266L172.686 145.416L172.357 147.567C171.744 146.735 171.461 145.961 171.583 145.227Z" fill="#4688AB"/>
<path d="M182.451 152.325C189.489 155.135 199.067 157.564 209.416 159.162C219.765 160.761 229.63 161.334 237.187 160.775C245.21 160.187 248.331 158.464 248.582 157.149L248.256 159.248C244.716 161.707 235.037 162.638 222.75 161.789L195.914 157.647C183.938 154.748 174.99 150.939 172.357 147.531L172.686 145.381C172.482 146.714 174.919 149.319 182.451 152.325Z" fill="#4688AB"/>
<path d="M223.628 67.1196C244.587 70.3447 258.953 89.9709 255.774 110.561L248.966 154.615L248.582 157.084V157.149C248.332 158.464 245.21 160.187 237.187 160.775C229.63 161.334 219.768 160.757 209.416 159.162C199.064 157.568 189.489 155.135 182.451 152.325C174.926 149.319 172.482 146.714 172.686 145.399L173.07 142.89L179.878 98.8147C183.057 78.221 202.672 63.8552 223.631 67.091L223.628 67.1196Z" fill="#121A26"/>
<path d="M219.091 96.4888C208.742 94.8907 198.881 94.3173 191.323 94.8727C183.232 95.4712 180.125 97.2163 179.921 98.5349C179.717 99.8536 182.154 102.455 189.686 105.462C196.724 108.271 206.302 110.697 216.651 112.295C227 113.893 236.865 114.467 244.422 113.911C252.513 113.316 255.62 111.568 255.824 110.253C256.029 108.938 253.592 106.332 246.056 103.326C239.018 100.517 229.443 98.087 219.091 96.4888ZM219.263 95.3888C240.831 98.7177 257.695 105.451 256.928 110.439C256.161 115.427 238.051 116.742 216.482 113.413C194.914 110.084 178.051 103.351 178.817 98.3629C179.584 93.3749 197.695 92.0562 219.263 95.3888Z" fill="#2A6D96"/>
<path d="M220.782 85.5416C210.434 83.9435 200.569 83.3701 193.011 83.9255C184.924 84.5204 181.813 86.2691 181.613 87.5842C181.412 88.8993 183.845 91.5044 191.377 94.5108C198.415 97.3202 207.993 99.7462 218.342 101.344C228.691 102.943 238.556 103.519 246.113 102.96C254.205 102.366 257.312 100.62 257.516 99.3018C257.72 97.9831 255.283 95.3816 247.747 92.3751C240.71 89.5658 231.135 87.1398 220.782 85.5416ZM218.174 102.448C196.605 99.1191 179.742 92.3859 180.509 87.3978C181.276 82.4097 199.386 81.0947 220.955 84.4236" fill="#2A6D96"/>
<path d="M225.358 55.9143C235.716 57.5145 245.014 63.1634 251.207 71.6185C257.4 80.0736 259.982 90.6424 258.383 101L257.268 108.225C256.498 113.198 238.391 114.531 216.823 111.199C195.254 107.866 178.391 101.14 179.158 96.1486L180.276 88.9209C181.88 78.5667 187.529 69.2732 195.983 63.0837C204.438 56.8942 215.004 54.3154 225.358 55.9143Z" fill="#346E91"/>
<path d="M180.52 87.3371L180.584 87.1974L180.498 87.6381C180.498 87.5374 180.505 87.4368 180.52 87.3371Z" fill="#121A26"/>
<path d="M186.178 84.4559C186.982 82.9397 188.19 81.6757 189.668 80.8044C188.95 81.4865 188.345 82.2789 187.876 83.1515C187.264 84.2959 186.899 85.5566 186.807 86.8514C186.715 88.1461 186.896 89.4458 187.34 90.6656C187.784 91.8854 188.481 92.9977 189.384 93.9301C190.287 94.8626 191.376 95.594 192.581 96.0768C199.39 98.7715 208.914 101.255 219.6 102.903C222.467 103.347 225.269 103.706 227.978 103.978C229.936 104.184 231.909 103.751 233.6 102.742C232.64 103.677 231.485 104.389 230.219 104.828C228.953 105.267 227.605 105.422 226.272 105.283C223.563 105.003 220.757 104.645 217.894 104.207C207.209 102.556 197.677 100.072 190.876 97.3775C189.672 96.894 188.583 96.1622 187.681 95.2297C186.779 94.2972 186.084 93.1851 185.641 91.9659C185.198 90.7467 185.016 89.4477 185.109 88.1536C185.201 86.8596 185.566 85.5997 186.178 84.4559Z" fill="#468CAF"/>
<path d="M219.607 102.903C208.922 101.255 199.393 98.7715 192.588 96.0768C191.383 95.594 190.294 94.8626 189.391 93.9302C188.488 92.9978 187.791 91.8854 187.347 90.6656C186.903 89.4459 186.722 88.1462 186.814 86.8514C186.906 85.5567 187.271 84.2959 187.883 83.1515C188.293 82.2724 188.882 81.4889 189.613 80.8517C190.344 80.2145 191.2 79.7378 192.127 79.4524C193.054 79.167 194.03 79.0793 194.993 79.1949C195.956 79.3105 196.883 79.6269 197.716 80.1236C203.625 82.3847 211.709 84.4595 220.736 85.857C223.205 86.2369 225.624 86.5486 227.964 86.7923C230.35 87.0351 232.553 88.1814 234.121 89.9963C235.69 91.8111 236.504 94.1571 236.399 96.5534C236.49 97.6404 236.326 98.7338 235.92 99.7462C235.514 100.759 234.877 101.662 234.06 102.384C233.242 103.107 232.267 103.628 231.212 103.907C230.158 104.185 229.053 104.213 227.985 103.989C225.276 103.706 222.474 103.347 219.607 102.903Z" fill="#121A26"/>
<path d="M222.872 98.0252C221.188 97.7651 220.139 95.5073 220.529 92.9823C220.919 90.4573 222.6 88.6213 224.284 88.8814C225.968 89.1415 227.017 91.3992 226.627 93.9242C226.237 96.4492 224.556 98.2853 222.872 98.0252Z" fill="#4FC997"/>
<path d="M198.464 92.7026C196.78 92.4425 195.731 90.1847 196.121 87.6597C196.511 85.1347 198.192 83.2986 199.876 83.5587C201.56 83.8188 202.609 86.0766 202.219 88.6016C201.829 91.1266 200.148 92.9627 198.464 92.7026Z" fill="#4FC997"/>
<path d="M216.482 113.399C238.051 116.728 256.158 115.395 256.928 110.425L251.847 143.32C251.413 146.137 245.397 147.785 236.37 148.082C232.363 148.189 228.352 148.089 224.355 147.782C223.625 147.73 222.913 147.527 222.264 147.186C221.616 146.845 221.046 146.374 220.589 145.801C220.132 145.229 219.798 144.568 219.61 143.86C219.421 143.153 219.381 142.414 219.492 141.69C220.176 137.265 219.114 132.748 216.531 129.091C213.947 125.434 210.045 122.923 205.646 122.089L204.095 121.795C201.906 121.379 199.655 121.407 197.477 121.88C195.3 122.352 193.239 123.257 191.419 124.543C189.599 125.828 188.057 127.467 186.883 129.361C185.71 131.256 184.93 133.367 184.59 135.569C184.52 136.02 184.344 136.447 184.077 136.816C183.811 137.186 183.461 137.488 183.056 137.697C182.652 137.906 182.203 138.017 181.748 138.021C181.292 138.025 180.842 137.922 180.434 137.719C175.94 135.501 173.432 133.237 173.74 131.269L178.817 98.3702C178.051 103.337 194.914 110.07 216.482 113.399Z" fill="#346E91"/>
<path d="M203.335 129.091C209.222 130.001 213.236 135.634 212.293 141.672C211.351 147.71 205.843 151.87 199.945 150.96C194.047 150.05 190.044 144.42 190.987 138.379C191.929 132.337 197.447 128.184 203.335 129.091ZM200.199 147.366C204.177 147.979 207.915 145.166 208.545 141.084C209.176 137.003 206.46 133.201 202.482 132.581C200.544 132.327 198.584 132.842 197.021 134.015C195.458 135.188 194.416 136.927 194.117 138.858C193.819 140.79 194.289 142.761 195.425 144.351C196.562 145.941 198.275 147.023 200.199 147.366Z" fill="#2A6D96"/>
<path d="M202.278 128.929C208.165 129.839 212.182 135.473 211.236 141.511C210.29 147.549 204.786 151.709 198.888 150.802C192.99 149.896 188.984 144.259 189.93 138.221C190.876 132.183 196.405 128.023 202.278 128.929ZM199.637 146.044C200.861 146.264 202.122 146.115 203.261 145.615C204.399 145.115 205.362 144.287 206.028 143.237C206.693 142.186 207.031 140.961 206.997 139.719C206.963 138.476 206.559 137.271 205.837 136.259C205.115 135.247 204.108 134.473 202.944 134.036C201.78 133.599 200.512 133.519 199.302 133.806C198.092 134.093 196.995 134.734 196.152 135.648C195.308 136.561 194.756 137.705 194.566 138.934C194.433 139.735 194.458 140.554 194.641 141.345C194.825 142.136 195.162 142.883 195.634 143.544C196.107 144.204 196.704 144.765 197.394 145.194C198.083 145.623 198.85 145.911 199.651 146.044H199.637Z" fill="#2C5777"/>
<path d="M189.944 138.221C190.222 136.339 190.978 134.56 192.141 133.054C193.303 131.548 194.833 130.366 196.584 129.621C196.066 131.547 195.944 133.559 196.226 135.533C195.343 136.468 194.765 137.649 194.57 138.92C194.436 139.719 194.461 140.538 194.643 141.328C194.826 142.118 195.162 142.865 195.633 143.525C196.104 144.185 196.7 144.746 197.387 145.176C198.075 145.605 198.841 145.895 199.64 146.029C200.782 146.204 201.95 146.043 203.002 145.567C203.658 145.765 204.335 145.885 205.019 145.925H205.263C206.604 146.242 207.987 146.339 209.359 146.212C208.219 147.875 206.635 149.185 204.786 149.991C202.938 150.797 200.9 151.067 198.906 150.77C193.029 149.892 189.019 144.259 189.944 138.221Z" fill="#1F4060"/>
<path d="M209.595 141.812C209.728 141.811 209.856 141.763 209.957 141.677C210.058 141.59 210.124 141.47 210.143 141.339C210.555 138.763 209.937 136.128 208.423 134.003C207.689 132.96 206.751 132.076 205.667 131.404C204.583 130.731 203.374 130.285 202.113 130.09C202.039 130.075 201.962 130.075 201.888 130.09C201.813 130.105 201.743 130.135 201.68 130.179C201.618 130.222 201.565 130.278 201.525 130.342C201.485 130.406 201.458 130.478 201.447 130.553C201.436 130.628 201.44 130.705 201.459 130.778C201.478 130.852 201.512 130.921 201.558 130.981C201.605 131.041 201.663 131.09 201.729 131.127C201.796 131.164 201.869 131.187 201.945 131.194C203.058 131.365 204.124 131.76 205.081 132.353C206.038 132.947 206.865 133.727 207.513 134.648C208.859 136.538 209.408 138.88 209.043 141.17C209.022 141.316 209.058 141.464 209.146 141.583C209.233 141.702 209.364 141.781 209.509 141.804L209.595 141.812Z" fill="#2A6D96"/>
<path d="M199.841 144.8C200.819 144.978 201.827 144.859 202.737 144.46C203.647 144.062 204.418 143.401 204.95 142.562C205.482 141.723 205.753 140.744 205.726 139.751C205.699 138.758 205.377 137.795 204.8 136.986C204.224 136.177 203.419 135.558 202.488 135.209C201.558 134.859 200.545 134.796 199.578 135.025C198.612 135.255 197.735 135.767 197.061 136.497C196.388 137.228 195.947 138.142 195.795 139.124C195.582 140.413 195.888 141.734 196.646 142.798C197.404 143.862 198.553 144.582 199.841 144.8Z" fill="#4FC997"/>
<path d="M202.181 143.051C202.241 143.052 202.3 143.037 202.353 143.008C203.232 142.548 203.892 141.757 204.188 140.81C204.485 139.863 204.392 138.837 203.932 137.958C203.471 137.078 202.68 136.418 201.733 136.122C200.786 135.826 199.76 135.919 198.881 136.379C198.838 136.403 198.799 136.434 198.768 136.473C198.737 136.511 198.714 136.555 198.7 136.602C198.686 136.65 198.682 136.699 198.687 136.748C198.692 136.797 198.707 136.845 198.73 136.888C198.754 136.931 198.786 136.969 198.824 137C198.862 137.031 198.906 137.055 198.954 137.069C199.001 137.083 199.05 137.087 199.099 137.082C199.148 137.077 199.196 137.062 199.239 137.038C199.941 136.696 200.748 136.64 201.49 136.883C202.232 137.126 202.85 137.649 203.213 138.34C203.575 139.032 203.654 139.838 203.432 140.586C203.21 141.335 202.705 141.967 202.023 142.349C201.979 142.37 201.939 142.4 201.907 142.438C201.874 142.475 201.85 142.518 201.835 142.565C201.82 142.613 201.815 142.662 201.821 142.711C201.826 142.76 201.841 142.808 201.866 142.851C201.897 142.908 201.942 142.957 201.997 142.993C202.052 143.028 202.116 143.048 202.181 143.051Z" fill="#84EFC1"/>
<g opacity="0.5">
<path d="M214.902 61.6226C209.366 59.4725 204.263 61.8483 202.199 63.9159C199.641 66.4708 199.304 71.054 206.066 74.1465C214.544 78.0237 224.506 78.7117 228.755 78.7117C236.772 78.7117 235.173 73.3366 234.088 70.9071C232.941 68.3521 230.644 64.7544 225.728 63.984C220.689 63.1992 217.446 62.6223 214.902 61.6226Z" fill="#4688AB"/>
</g>
<g opacity="0.5">
<path d="M238.069 64.9265C240.96 64.4069 251.883 74.899 246.174 77.5292C243.411 78.8013 241.989 75.1427 240.05 71.9141C237.983 68.4561 235.557 65.378 238.069 64.9265Z" fill="#4688AB"/>
</g>
<g opacity="0.6">
<path opacity="0.6" d="M249.195 88.2471C253.312 88.3081 253.828 96.5104 251.879 99.4775C250.302 101.868 246.468 100.832 245.884 98.4706C245.375 96.4029 245.526 93.4538 245.884 91.9201C246.5 89.4153 247.876 88.2292 249.195 88.2471Z" fill="#346F93"/>
</g>
<ellipse rx="4.51298" ry="8.81732" transform="matrix(-0.988201 -0.15316 -0.15316 0.988201 247.106 130.796)" fill="#121A26"/>
<path d="M275.868 140.627C275.663 140.165 275.356 139.755 274.971 139.428C274.742 139.294 274.905 138.924 274.901 138.619C274.9 138.583 274.899 138.548 274.869 138.516C274.785 138.282 274.956 138.535 274.864 138.294C273.44 135.666 271.593 133.29 269.397 131.262C269.018 130.901 268.548 130.649 268.038 130.532C267.779 130.492 267.727 130.01 267.561 129.806C265.137 128.044 262.439 126.694 259.575 125.812C259.221 125.737 258.854 125.736 258.5 125.81C258.253 125.73 258.023 125.606 257.82 125.444C257.667 125.338 257.5 125.256 257.323 125.198C255.896 124.467 253.141 122.654 250.437 123.051C246.452 123.638 245.494 126.064 244.661 127.856C244.176 129.398 243.708 131.174 243.901 132.854C244.003 134.029 244.365 135.167 244.96 136.186C245.555 137.205 246.369 138.08 247.342 138.746C248.019 139.253 248.831 139.546 249.676 139.588C250.233 139.649 250.314 139.027 250.318 139.034C250.321 139.041 250.412 139.207 250.43 139.232C250.698 139.609 251.271 139.738 251.725 139.83C253.094 140.108 254.691 140.627 256.006 140.888C256.272 140.917 256.614 140.83 256.623 140.908C256.65 141.263 256.808 141.595 257.066 141.84C258.332 142.697 259.533 143.646 260.66 144.679C260.747 144.716 261.086 144.776 261.024 144.87C260.86 145.185 260.821 145.55 260.917 145.891C261.08 146.385 261.372 147.74 261.744 148.43C261.785 148.507 261.895 148.469 261.843 148.549C261.756 148.595 261.672 148.647 261.593 148.706C261.467 148.844 261.377 149.011 261.333 149.193C261.169 150.016 260.836 150.795 260.354 151.483C260.301 151.649 260.615 151.616 260.601 151.767C260.654 151.848 260.205 151.992 260.099 152.034C259.82 152.033 259.551 152.136 259.343 152.322C258.645 152.912 257.866 153.401 257.031 153.774C256.832 153.969 256.997 153.972 256.88 154.054C257.179 156.372 256.59 158.921 255.78 160.92C255.198 162.396 254.421 163.787 253.471 165.057C252.388 166.877 250.81 168.587 248.923 169.537C248.964 169.597 249.019 169.645 249.085 169.676C249.463 169.742 256.348 170.007 258.8 169.57C259.112 169.481 259.386 169.288 259.574 169.023C259.637 168.946 259.876 169.198 260.042 169.212C260.207 169.226 260.404 169.368 260.558 169.35C263.826 168.455 266.849 166.831 269.4 164.601C269.818 164.209 270.131 163.718 270.311 163.173C270.418 162.751 270.724 163.088 271.065 162.828C271.135 162.751 271.421 162.701 271.494 162.62C273.903 159.991 275.658 156.832 276.618 153.398C276.643 152.904 276.536 152.412 276.31 151.972C276.172 151.732 276.604 151.692 276.738 151.46C276.797 151.358 276.972 151.36 277.016 151.252C277.576 147.671 277.18 144.006 275.868 140.627Z" fill="#346E91"/>
<path d="M249.661 139.574C250.218 139.635 250.299 139.013 250.303 139.02C250.307 139.027 250.397 139.193 250.415 139.218C250.683 139.595 251.256 139.724 251.71 139.816C253.079 140.094 254.676 140.609 255.991 140.874C256.257 140.903 256.599 140.816 256.608 140.894C256.635 141.249 256.793 141.581 257.051 141.826C258.317 142.683 259.518 143.632 260.646 144.665C260.733 144.702 261.071 144.762 261.009 144.856C260.845 145.17 260.806 145.536 260.902 145.877C261.065 146.371 261.357 147.726 261.729 148.416C261.736 148.43 261.748 148.443 261.762 148.451C264.385 146.862 267.511 146.325 270.514 146.945C272.743 147.355 275.157 149.441 277.002 151.252C277.585 147.668 277.191 143.992 275.861 140.613C275.655 140.151 275.348 139.741 274.963 139.413C274.734 139.279 274.897 138.91 274.893 138.605C274.892 138.569 274.891 138.533 274.862 138.502C274.777 138.267 274.948 138.521 274.856 138.28C273.432 135.651 271.585 133.276 269.389 131.248C269.01 130.887 268.541 130.635 268.03 130.518C267.771 130.478 267.72 129.995 267.553 129.792C265.13 128.029 262.431 126.68 259.568 125.798C259.213 125.723 258.847 125.722 258.492 125.796C258.245 125.716 258.015 125.592 257.813 125.429C257.66 125.324 257.492 125.242 257.315 125.184C255.888 124.452 253.133 122.639 250.43 123.037C246.444 123.624 245.487 126.05 244.653 127.841C244.169 129.384 243.701 131.159 243.893 132.839C243.996 134.015 244.358 135.153 244.953 136.172C245.548 137.191 246.361 138.065 247.335 138.732C248.011 139.239 248.824 139.532 249.668 139.573L249.661 139.574Z" fill="#346E91"/>
<path d="M271.948 150.568C271.215 149.899 270.273 149.775 269.264 149.879C268.847 149.933 268.444 150.069 268.08 150.28C267.716 150.491 267.398 150.772 267.144 151.108C266.359 152.093 265.428 152.953 264.384 153.658C262.15 155.108 259.576 155.949 256.917 156.096C256.788 157.752 256.399 159.378 255.765 160.913C255.685 161.123 255.593 161.334 255.501 161.54C260.912 161.878 265.189 160.462 267.591 158.639C269.246 157.431 270.739 156.014 272.031 154.423C272.323 154.061 272.53 153.636 272.635 153.182C272.74 152.728 272.74 152.256 272.635 151.802C272.535 151.331 272.296 150.902 271.948 150.568Z" fill="#4688AB"/>
<path d="M259.736 130.146C259.119 130.924 259.06 131.872 259.233 132.871C259.315 133.284 259.478 133.676 259.714 134.025C259.949 134.374 260.252 134.672 260.605 134.902C261.641 135.617 262.563 136.487 263.338 137.481C264.938 139.609 263.781 142.106 265.458 144.022C266.712 145.456 268.522 146.246 269.937 145.801C271.021 145.46 272.359 143.9 272.446 142.768C272.625 140.439 270.071 136.211 268.087 133.939C266.768 132.371 265.252 130.979 263.577 129.799C263.195 129.532 262.757 129.355 262.297 129.282C261.837 129.208 261.366 129.241 260.92 129.376C260.457 129.508 260.045 129.776 259.736 130.146Z" fill="#4688AB"/>
<path d="M253.439 134.41C257.261 135.888 261.896 138.618 263.141 142.552C263.195 142.923 263.225 144.292 262.918 146.801C262.894 146.834 262.736 147.118 262.712 147.147C262.635 147.54 262.994 147.115 262.86 147.477C262.728 147.552 262.6 147.635 262.479 147.726C262.317 147.849 262.155 147.964 261.99 148.097C261.89 148.185 261.796 148.281 261.71 148.384C261.428 147.86 261.252 147.13 260.66 145.822C260.068 144.514 258.078 142.456 257.051 141.837C256.793 141.592 256.635 141.26 256.609 140.905C256.6 140.826 256.258 140.914 255.992 140.885C254.677 140.62 253.079 140.105 251.71 139.827C251.256 139.734 250.683 139.605 250.416 139.228C250.397 139.2 250.304 139.052 250.303 139.031C250.285 139.135 250.244 139.234 250.185 139.321C250.125 139.408 250.048 139.482 249.957 139.537L249.865 139.568L249.818 139.57C249.765 139.576 249.711 139.578 249.657 139.574C248.855 139.543 248.078 139.28 247.423 138.816C245.445 137.392 244.184 135.585 243.872 132.84C243.56 130.261 244.242 127.66 245.779 125.566C246.273 124.962 243.536 132.024 249.197 133.219C250.64 133.503 252.059 133.902 253.439 134.41Z" fill="#1F4060"/>
<path d="M250.697 132.01C252.571 128.962 255.931 126.308 258.474 125.793C258.284 125.627 258.076 125.482 257.854 125.36C257.521 125.221 257.162 125.159 256.802 125.177C256.442 125.195 256.091 125.294 255.774 125.466C253.715 126.539 251.094 128.397 249.588 131.08C248.215 133.502 247.807 136.667 248.926 138.56C249.693 139.86 250.087 139.706 250.374 139.14C250.443 139.045 248.145 136.163 250.697 132.01Z" fill="#0F141D"/>
<path d="M259.271 135.017C261.807 132.061 265.457 129.819 268.157 130.544C268.14 130.527 268.127 130.506 268.119 130.484C267.9 130.055 267.548 129.709 267.115 129.497C266.683 129.285 266.194 129.218 265.72 129.307C263.07 129.818 260.349 131.818 258.315 134.195C256.379 136.452 255.785 138.348 255.707 139.845C255.67 140.645 255.932 141.08 256.598 140.898C256.394 139.484 257.363 137.23 259.271 135.017Z" fill="#0F141D"/>
<path d="M275.217 138.819C275.152 138.586 275.035 138.372 274.876 138.19C274.717 138.008 274.52 137.863 274.298 137.767C273.625 137.481 272.919 137.277 272.197 137.16C270.552 136.889 264.646 136.209 260.446 142.15C260.062 142.697 259.997 143.236 260.578 143.537C260.607 143.536 260.629 143.557 260.635 143.536C265.173 137.798 270.447 138.143 271.977 138.395C273.377 138.625 274.585 139.19 275.24 139.88C275.325 139.53 275.318 139.164 275.217 138.819Z" fill="#0F141D"/>
<path d="M276.927 151.562C277.009 151.358 277.036 151.136 277.004 150.919C276.973 150.701 276.885 150.496 276.749 150.323C276.272 149.73 275.717 149.204 275.097 148.762C272.984 147.302 270.534 146.405 267.977 146.155C265.868 145.932 264.08 146.124 262.589 146.975C261.882 147.376 261.442 147.828 261.736 148.43C261.778 148.515 261.811 148.564 261.836 148.549C264.659 146.769 270.252 146.815 274.349 149.795C275.169 150.354 275.84 151.105 276.303 151.983C276.433 151.967 276.558 151.921 276.666 151.848C276.775 151.775 276.864 151.677 276.927 151.562Z" fill="#0F141D"/>
<path d="M271.217 162.86C271.384 162.74 271.519 162.581 271.61 162.396C271.701 162.211 271.745 162.006 271.739 161.801C271.724 160.342 271.189 158.735 270.142 157.03C268.371 154.128 265.22 151.418 262.051 150.82C261.65 150.752 261.239 150.823 260.883 151.02C260.528 151.217 260.25 151.529 260.096 151.905C260.066 151.985 260.042 152.035 260.031 152.036C263.208 151.519 267.063 154.426 269.062 157.692C270.333 159.767 270.751 161.718 270.275 163.174C270.605 163.128 270.924 163.021 271.217 162.86Z" fill="#0F141D"/>
<path d="M256.914 154.393C256.909 154.207 256.148 154.162 256.846 153.839C257.424 153.57 258.1 153.808 258.629 154.153C260.581 155.409 261.999 157.614 262.62 160.362C263.301 163.377 262.865 166.288 261.456 168.575C261.339 168.779 261.18 168.956 260.991 169.096C260.801 169.235 260.584 169.333 260.354 169.384C260.195 169.426 260.027 169.427 259.867 169.384C259.707 169.342 259.562 169.258 259.445 169.141C261.395 167.02 262.124 163.912 261.383 160.644C260.744 157.753 259.022 155.409 256.914 154.393Z" fill="#0F141D"/>
<path d="M257.022 155.699C257.022 155.699 255.357 151.905 251.696 150.409C250.913 150.05 250.056 149.883 249.196 149.923C248.919 149.938 248.648 150.01 248.4 150.135C248.153 150.259 247.934 150.435 247.757 150.649C247.581 150.863 247.451 151.111 247.376 151.378C247.301 151.645 247.282 151.925 247.321 152.2L248.224 157.228L257.022 155.699Z" fill="#1F4060"/>
<path d="M247.269 154.294L256.585 154.133C257.903 154.1 259.009 155.018 259.107 156.22L260.639 174.463C260.751 175.779 259.672 176.939 258.217 177.069L250.974 177.719C249.74 177.833 248.658 176.996 248.591 175.879L247.269 154.294Z" fill="#468CB0"/>
<path d="M246.488 154.428L255.803 154.267C257.122 154.234 258.227 155.153 258.325 156.337L259.857 174.579C259.969 175.896 258.89 177.055 257.435 177.185L250.192 177.839C248.958 177.949 247.876 177.112 247.809 175.996L246.488 154.428Z" fill="#2C5776"/>
<path d="M254.017 175.406C254.938 174.667 256.451 173.392 256.665 172.225C256.88 171.058 255.341 169.864 255.163 168.642C254.956 167.235 256.069 166.161 255.907 164.842C255.759 163.645 255.246 162.643 255.275 161.374C255.312 159.993 255.896 158.537 254.714 157.416C253.678 156.439 252.072 156.26 250.863 155.52C250.642 155.398 250.448 155.234 250.292 155.037C250.135 154.84 250.02 154.613 249.952 154.37L246.502 154.428L247.809 176.006C247.877 177.123 248.959 177.96 250.192 177.846L251.451 177.736C252.071 176.864 253.079 176.165 254.017 175.406Z" fill="#192F44"/>
<path d="M244.9 159.325C246.751 159.589 248.556 160.111 250.262 160.876C252.107 161.701 254.618 161.484 255.519 160.088C256.42 158.693 256.165 157.244 254.421 155.596C253.176 154.419 250.001 152.731 246.09 153.575C242.179 154.418 239.856 158.692 244.9 159.325Z" fill="#2C5776"/>
<path d="M250.868 159.71C249.401 159.245 248.056 158.504 247.265 157.291C246.948 156.815 246.757 156.266 246.713 155.695C246.588 155.282 246.586 154.84 246.709 154.426C246.832 154.011 247.073 153.641 247.404 153.362C246.957 153.399 246.513 153.464 246.075 153.557C245.292 153.727 244.546 154.04 243.876 154.479C242.85 157.452 245.865 159.183 248.73 160.093C249.038 160.187 249.323 160.345 249.566 160.556C249.794 160.647 250.022 160.746 250.247 160.844C252.092 161.669 254.603 161.452 255.504 160.056C255.576 159.947 255.642 159.833 255.7 159.714C254.276 160.858 252.406 160.471 250.868 159.71Z" fill="#1F4060"/>
<path d="M254.243 155.797C253.87 155.208 253.164 154.788 252.542 154.449C252.025 154.11 251.417 153.936 250.799 153.951C250.591 153.956 250.387 154.014 250.208 154.12C250.029 154.226 249.881 154.377 249.777 154.557C249.674 154.737 249.618 154.942 249.617 155.15C249.615 155.358 249.667 155.563 249.768 155.744C250.338 156.892 252.239 158.364 253.654 157.615C253.829 157.554 253.987 157.453 254.116 157.321C254.245 157.188 254.342 157.028 254.399 156.852C254.456 156.676 254.472 156.489 254.445 156.306C254.417 156.123 254.348 155.949 254.243 155.797Z" fill="#346E91"/>
<path d="M225.105 60.9484C219.306 60.1247 214.743 58.4736 214.916 57.2608C215.088 56.0479 219.929 55.7325 225.729 56.5562C231.529 57.38 236.091 59.031 235.919 60.2438C235.746 61.4567 230.905 61.7722 225.105 60.9484Z" fill="#121A26"/>
<path d="M217.437 55.3604C219.087 56.0762 222.072 56.8187 225.524 57.309C228.976 57.7993 232.055 57.9144 233.839 57.6829C234.778 57.5737 235.409 57.2072 235.452 56.9057C235.452 56.9057 236.046 59.3464 236.014 59.5699C235.823 60.918 230.924 61.3405 225.073 60.5096C219.223 59.6787 214.635 57.9158 214.826 56.5677C214.876 56.2129 215.929 54.2305 216.156 54.0819C216.26 54.3772 216.43 54.6455 216.651 54.8668C216.873 55.0881 217.141 55.2567 217.437 55.3604Z" fill="#2C5777"/>
<path d="M228.635 57.6567C229.955 57.7646 231.146 57.8108 232.173 57.7973C232.186 58.827 232.209 59.8618 232.24 60.8905C230.902 60.9642 229.561 60.9502 228.225 60.8487C228.258 60.542 228.541 58.418 228.635 57.6567Z" fill="#346F93"/>
<path d="M224.15 57.0957C224.598 57.1592 225.046 57.241 225.507 57.3065L225.787 57.3463C225.697 58.2094 225.444 60.3451 225.429 60.5529L225.057 60.5C224.507 60.4219 223.964 60.3448 223.439 60.2448C223.751 59.2179 223.964 58.155 224.15 57.0957Z" fill="#346F93"/>
<path d="M218.157 55.6436C218.581 55.7943 219.058 55.9489 219.58 56.0955C219.159 57.0491 218.803 58.0264 218.467 59.0174C217.92 58.8344 217.384 58.6241 216.859 58.3873C217.299 57.4763 217.734 56.5789 218.157 55.6436Z" fill="#346F93"/>
<path d="M226.003 53.9421C231.353 54.702 235.585 56.0669 235.453 56.9964C235.406 57.3263 234.816 57.5574 233.839 57.6829C232.055 57.9144 228.98 57.7998 225.524 57.309C222.069 56.8182 219.078 56.0894 217.437 55.3604C216.674 55.0205 216.028 54.5811 216.074 54.2512C216.206 53.3217 220.653 53.1823 226.003 53.9421Z" fill="#4D9DBC"/>
<path d="M225.913 54.5737C227.715 54.8296 229.131 55.3601 229.076 55.7468C229.057 55.8852 228.853 55.9903 228.518 56.0584C227.584 56.179 226.638 56.1604 225.71 56.0034C224.774 55.9011 223.859 55.6552 222.998 55.2744C222.745 55.1408 222.532 54.9621 222.552 54.8201C222.607 54.4334 224.111 54.3177 225.913 54.5737Z" fill="#121A26"/>
<path d="M227.975 42.5535C230.696 42.94 228.695 55.3234 228.695 55.3234C228.695 55.3234 228.16 55.7723 225.812 55.4387C223.463 55.1052 222.976 54.5365 222.976 54.5365C222.976 54.5365 225.41 42.1892 227.975 42.5535Z" fill="#2C5777"/>
<path d="M226.817 53.6091C227.293 53.6766 227.694 53.3246 227.836 52.6317C228.199 50.3911 228.372 48.1237 228.353 45.8538C228.384 45.7047 228.356 45.5495 228.277 45.4199C228.197 45.2902 228.071 45.1957 227.924 45.1558C227.774 45.1535 227.629 45.2079 227.517 45.3082C227.405 45.4084 227.336 45.5471 227.322 45.6965C227.322 45.6965 226.084 50.9497 226.106 52.4005C226.089 53.1293 226.328 53.5396 226.817 53.6091Z" fill="#468CAF"/>
<path d="M227.904 44.1722C227.626 44.1326 227.432 43.8751 227.472 43.5969C227.512 43.3186 227.769 43.1251 228.047 43.1646C228.326 43.2042 228.519 43.4617 228.48 43.74C228.44 44.0182 228.182 44.2117 227.904 44.1722Z" fill="#468CAF"/>
<rect width="10.0335" height="24.7254" rx="5.01674" transform="matrix(-0.992494 -0.122292 -0.122292 0.992494 235.976 118.224)" fill="#4688AB"/>
<rect width="4.93872" height="9.24876" rx="2.46936" transform="matrix(-0.984459 -0.175614 -0.175614 0.984459 178.74 152.236)" fill="#4688AB"/>
<rect width="5.96982" height="24.7254" rx="2.98491" transform="matrix(-0.981937 -0.189208 -0.189208 0.981937 187.508 108.794)" fill="#4688AB"/>
</g>
<defs>
<clipPath id="clip0">
<rect width="288" height="155" rx="8" fill="white"/>
</clipPath>
</defs>
</svg>
