<svg width="472" height="206" viewBox="0 0 472 206" fill="none" xmlns="http://www.w3.org/2000/svg">
<g clip-path="url(#clip0)">
<rect width="472" height="206" rx="16" fill="#404040"/>
<rect x="18" y="121" width="30" height="60" rx="4" fill="#E1F7A3"/>
<rect x="56" y="87" width="30" height="94" rx="4" fill="#E1F7A3"/>
<rect x="94" y="54" width="30" height="127" rx="4" fill="#E1F7A3"/>
<rect x="132" y="132" width="30" height="49" rx="4" fill="#E1F7A3"/>
<rect x="170" y="93" width="30" height="88" rx="4" fill="#E1F7A3"/>
<rect x="208" y="101" width="30" height="80" rx="4" fill="#E1F7A3"/>
<rect x="246" y="86" width="30" height="95" rx="4" fill="#E1F7A3"/>
<rect x="284" y="62" width="30" height="119" rx="4" fill="#E1F7A3"/>
<path d="M274.242 215.213C274.242 215.213 268.124 207.556 268.124 206.461C268.124 204.844 268.944 204.844 268.944 204.844L285.874 188.534C286.447 188.492 287.022 188.576 287.558 188.782C288.095 188.987 288.579 189.308 288.977 189.722C291.54 192.285 298.13 199.154 298.13 199.154C298.13 199.154 289.811 214.486 288.782 216.769C287.752 219.053 284.853 219.84 281.964 218.666C279.601 217.706 275.035 216.359 274.242 215.213Z" fill="#1F4060"/>
<path d="M268.944 204.844L273.082 200.851C274.079 202.314 275.23 203.712 276.181 205.156C277.504 207.163 278.804 209.183 280.081 211.214C281.377 213.279 282.668 215.334 284.028 217.347C284.406 217.957 284.788 218.563 285.17 219.174C284.076 219.266 282.975 219.09 281.964 218.661C279.601 217.701 275.034 216.331 274.242 215.208C274.242 215.208 268.124 207.552 268.124 206.457C268.124 204.844 268.944 204.844 268.944 204.844Z" fill="#2C5777"/>
<path d="M286.652 188.534C286.652 188.534 283.586 188.534 281.82 188.534C280.053 188.534 278.161 190.911 276.694 192.332C275.226 193.753 270.44 201.47 269.056 203.782C267.672 206.093 267.658 206.834 269.61 207.607C271.251 208.264 273.707 208.912 275.864 209.593C277.873 210.231 279.881 209.518 281.535 206.68C283.19 203.842 287.509 193.418 288.372 191.493C289.178 189.662 288.386 188.525 286.652 188.534Z" fill="#3276A0"/>
<path d="M272.746 194.788C269.545 199.215 267.784 202.412 270.738 204.574C272.868 206.13 278.068 205.743 281.489 200.38C284.429 195.771 285.417 190.831 281.955 188.86C278.809 187.057 275.948 190.365 272.746 194.788Z" fill="#121A26"/>
<path d="M286.4 163.589C286.233 163.389 286.06 163.174 285.888 162.946L285.347 162.233L284.793 161.464C284.513 161.063 284.219 160.635 283.926 160.183C283.632 159.73 283.334 159.251 283.04 158.757C282.943 158.589 282.84 158.421 282.742 158.249C282.449 157.736 282.155 157.205 281.871 156.65C281.68 156.282 281.498 155.905 281.316 155.518C281.232 155.322 281.144 155.126 281.055 154.931C279.657 151.776 279.061 148.616 279.573 145.988C279.801 144.776 280.328 143.64 281.107 142.684C281.458 142.235 281.897 141.86 282.397 141.584C282.886 141.3 283.416 141.094 283.968 140.974C284.358 140.888 284.757 140.851 285.156 140.862C285.556 140.891 285.951 140.964 286.335 141.081C285.845 141.382 285.407 141.762 285.04 142.204C284.65 142.684 284.322 143.21 284.061 143.77C283.948 144.002 283.849 144.24 283.763 144.483C283.513 145.175 283.342 145.892 283.25 146.622C283.183 147.129 283.151 147.639 283.152 148.15C283.181 150.076 283.496 151.988 284.084 153.822C284.645 155.64 285.351 157.41 286.195 159.115C286.414 159.581 286.661 160.019 286.866 160.443C287.211 161.101 287.551 161.706 287.873 162.247L288.222 162.815C288.474 163.217 288.746 163.606 289.038 163.98C289.262 164.276 289.512 164.552 289.783 164.805C289.685 164.967 289.557 165.11 289.406 165.225C289.29 165.337 289.147 165.417 288.991 165.458C288.781 165.479 288.568 165.452 288.37 165.38C288.171 165.307 287.992 165.19 287.845 165.038C287.307 164.615 286.822 164.128 286.4 163.589Z" fill="#121A26"/>
<path d="M266.987 149.623C267.354 148.895 267.879 148.258 268.524 147.759C267.876 148.256 267.349 148.893 266.982 149.623H266.987Z" fill="#2C5777"/>
<path d="M283.297 167.951C283.152 168.047 282.988 168.11 282.816 168.133C282.644 168.156 282.469 168.14 282.304 168.086C282.469 168.14 282.644 168.155 282.816 168.132C282.988 168.108 283.152 168.047 283.297 167.951Z" fill="#2C5777"/>
<path d="M283.25 146.622C283.341 145.892 283.513 145.175 283.763 144.483C283.849 144.24 283.948 144.002 284.061 143.77C284.322 143.21 284.65 142.684 285.039 142.204C285.407 141.762 285.845 141.382 286.335 141.081C287.015 140.652 287.782 140.379 288.581 140.285L289.299 140.243C289.299 140.243 290.259 140.196 291.703 140.154C292.43 140.112 293.26 140.154 294.154 140.215L295.552 140.299L296.261 140.345L296.964 140.438C297.896 140.569 298.828 140.709 299.714 140.848C300.599 140.988 301.363 141.212 302.044 141.366L303.684 141.771C303.885 141.818 304.034 141.869 304.15 141.902L304.309 141.953C303.248 141.661 302.12 141.73 301.103 142.149C300.565 142.359 300.059 142.641 299.597 142.987C299.096 143.382 298.638 143.828 298.232 144.32C296.54 146.356 295.515 149.367 295.166 152.801C294.879 155.788 294.957 158.799 295.399 161.767C295.487 162.35 295.59 162.876 295.702 163.342C295.796 163.778 295.924 164.207 296.084 164.624C296.363 165.36 296.708 165.756 297.174 165.91C297.087 165.872 296.996 165.842 296.904 165.821L296.186 165.663C295.893 165.602 295.552 165.481 295.184 165.425C294.816 165.369 294.434 165.327 294.047 165.262L293.758 165.211H293.474H292.924C292.604 165.176 292.281 165.165 291.96 165.178C291.4 165.211 291.028 165.211 291.028 165.211C290.934 165.204 290.841 165.204 290.748 165.211C290.574 165.22 290.4 165.19 290.239 165.124C290.078 165.058 289.933 164.957 289.816 164.829C289.544 164.576 289.295 164.3 289.07 164.004C288.779 163.63 288.507 163.241 288.255 162.839L287.905 162.27C287.584 161.73 287.244 161.124 286.899 160.467C286.675 160.043 286.433 159.591 286.228 159.139C285.383 157.434 284.677 155.663 284.117 153.845C283.528 152.011 283.214 150.1 283.185 148.174C283.171 147.656 283.193 147.137 283.25 146.622Z" fill="#2C5777"/>
<path d="M278.832 168.748C278.595 168.668 278.366 168.58 278.082 168.482L277.267 168.165L276.386 167.797C275.92 167.601 275.454 167.387 274.965 167.154C274.475 166.921 273.967 166.688 273.45 166.408L272.928 166.138C272.4 165.858 271.869 165.56 271.334 165.243C270.976 165.029 270.617 164.805 270.263 164.572L269.727 164.218C266.866 162.284 264.703 159.95 263.767 157.438C263.3 156.282 263.155 155.021 263.347 153.789C263.438 153.217 263.612 152.661 263.865 152.139C264.136 151.637 264.489 151.184 264.908 150.797C265.204 150.519 265.531 150.277 265.882 150.075C266.055 149.976 266.232 149.885 266.414 149.805C266.605 149.735 266.796 149.674 266.991 149.623C266.723 150.145 266.547 150.709 266.469 151.291C266.379 151.909 266.366 152.535 266.432 153.155C266.456 153.41 266.493 153.664 266.544 153.915C266.614 154.266 266.705 154.613 266.814 154.954C266.934 155.317 267.074 155.674 267.234 156.021C267.448 156.491 267.69 156.947 267.961 157.387C268.986 159.011 270.251 160.472 271.712 161.72C273.153 162.968 274.685 164.105 276.297 165.122C276.731 165.397 277.155 165.653 277.56 165.896L278.492 166.418L279.364 166.884L279.96 167.191C280.426 167.433 280.892 167.657 281.274 167.783C281.612 167.912 281.96 168.015 282.313 168.091C282.311 168.189 282.3 168.287 282.281 168.384C282.273 168.474 282.258 168.563 282.234 168.65C282.198 168.801 282.118 168.938 282.006 169.046C281.876 169.164 281.714 169.239 281.54 169.26C281.317 169.289 281.092 169.289 280.869 169.26C280.173 169.165 279.49 168.994 278.832 168.748Z" fill="#121A26"/>
<path d="M279.937 167.191L279.34 166.884L278.469 166.418L277.537 165.896C277.132 165.653 276.708 165.397 276.274 165.122C274.662 164.105 273.129 162.968 271.689 161.72C270.228 160.472 268.963 159.011 267.937 157.387C267.667 156.947 267.424 156.491 267.21 156.021C267.051 155.674 266.91 155.317 266.791 154.954C266.681 154.613 266.591 154.266 266.521 153.915C266.47 153.664 266.433 153.41 266.409 153.155C266.343 152.535 266.355 151.909 266.446 151.291C266.523 150.709 266.7 150.145 266.968 149.623C266.702 150.144 266.527 150.707 266.451 151.287C266.356 151.903 266.341 152.53 266.409 153.151C266.437 153.402 266.474 153.654 266.521 153.91C266.666 154.637 266.898 155.344 267.21 156.016C267.424 156.486 267.667 156.942 267.937 157.382C268.963 159.007 270.228 160.468 271.689 161.716C273.125 162.968 274.659 164.106 276.274 165.117C276.708 165.392 277.127 165.653 277.532 165.891C278.152 166.259 278.753 166.595 279.312 166.898L279.909 167.205C280.375 167.447 280.841 167.671 281.218 167.797C281.556 167.926 281.904 168.029 282.258 168.105C281.904 168.029 281.556 167.926 281.218 167.797C280.86 167.634 280.422 167.433 279.937 167.191Z" fill="#121A26"/>
<path d="M267.97 157.363C267.7 156.924 267.457 156.468 267.243 155.998C266.93 155.326 266.699 154.619 266.553 153.891C266.507 153.635 266.47 153.384 266.442 153.132C266.374 152.511 266.388 151.885 266.484 151.268C266.56 150.688 266.735 150.125 267.001 149.604C267.368 148.874 267.895 148.237 268.543 147.74L268.832 147.517C268.977 147.405 269.13 147.312 269.13 147.312C269.13 147.312 269.979 146.743 271.269 145.914C271.903 145.48 272.705 145.093 273.543 144.637L274.848 143.961C275.314 143.751 275.78 143.556 276.246 143.355C277.959 142.623 279.716 142 281.507 141.491C282.985 141.132 283.977 140.927 283.977 140.927C283.425 141.047 282.895 141.253 282.407 141.538C281.907 141.814 281.468 142.188 281.116 142.638C280.337 143.594 279.81 144.73 279.583 145.942C279.07 148.57 279.671 151.729 281.065 154.884C281.153 155.08 281.242 155.276 281.326 155.471C281.507 155.858 281.689 156.235 281.88 156.604C282.164 157.158 282.458 157.689 282.752 158.202C282.849 158.374 282.952 158.542 283.05 158.71C283.343 159.209 283.642 159.684 283.935 160.136C284.229 160.588 284.522 161.017 284.802 161.417L285.357 162.186L285.897 162.899C286.07 163.128 286.242 163.342 286.41 163.542C286.827 164.081 287.308 164.567 287.84 164.992C287.987 165.144 288.167 165.26 288.365 165.333C288.564 165.406 288.776 165.432 288.987 165.411C288.987 165.411 288.619 165.5 288.055 165.611C287.396 165.809 286.749 166.044 286.116 166.315L285.594 166.52L285.128 166.786C284.837 166.919 284.557 167.075 284.289 167.252C283.823 167.564 283.507 167.75 283.507 167.75C283.507 167.75 283.446 167.783 283.399 167.825L283.297 167.909C283.152 168.005 282.987 168.068 282.814 168.091C282.641 168.115 282.465 168.098 282.3 168.044C281.946 167.969 281.598 167.866 281.26 167.736C280.874 167.587 280.436 167.387 279.951 167.145L279.355 166.837C278.795 166.534 278.194 166.199 277.574 165.83C277.169 165.593 276.75 165.332 276.316 165.057C274.701 164.045 273.167 162.908 271.731 161.655C270.27 160.42 269.002 158.974 267.97 157.363Z" fill="#2C5777"/>
<path d="M275.589 176.679L274.806 176.875L273.939 177.07L273.007 177.276C272.541 177.373 272.029 177.476 271.502 177.569C270.976 177.662 270.426 177.76 269.853 177.849L269.275 177.928C268.692 178.012 268.086 178.082 267.467 178.138C267.057 178.175 266.637 178.203 266.208 178.226L265.57 178.254C263.933 178.322 262.295 178.188 260.691 177.853C259.279 177.568 257.937 177.006 256.744 176.199C255.693 175.482 254.843 174.509 254.274 173.37C253.796 172.273 253.659 171.056 253.883 169.88C254.091 169.063 254.476 168.301 255.011 167.648C255.085 168.242 255.242 168.822 255.477 169.372C255.599 169.653 255.739 169.925 255.896 170.188C256.068 170.46 256.26 170.72 256.469 170.966C256.637 171.166 256.814 171.357 257.005 171.548C257.537 172.08 258.128 172.549 258.766 172.946C259.203 173.213 259.656 173.451 260.123 173.659C261.889 174.409 263.761 174.881 265.673 175.057C267.571 175.249 269.48 175.305 271.386 175.225C271.901 175.206 272.4 175.183 272.882 175.155C273.613 175.113 274.28 175.057 274.904 174.997L275.556 174.927L276.288 174.829C276.53 174.796 276.754 174.764 276.964 174.726C277.313 174.672 277.657 174.583 277.989 174.461C278.101 174.573 278.185 174.71 278.234 174.86C278.283 175.011 278.295 175.171 278.269 175.328C278.236 175.617 277.961 175.845 277.486 176.059C277.365 176.115 277.234 176.166 277.09 176.218C276.945 176.269 276.815 176.325 276.661 176.376C276.344 176.469 275.99 176.572 275.589 176.679Z" fill="#121A26"/>
<path d="M254.997 167.648C254.948 167.23 254.948 166.808 254.997 166.39C255.055 165.974 255.16 165.566 255.309 165.173V165.122C255.158 165.519 255.052 165.932 254.992 166.352C254.952 166.776 254.962 167.203 255.02 167.625L254.997 167.648Z" fill="#2C5777"/>
<path d="M278.721 173.855C278.662 173.987 278.567 174.098 278.446 174.177C278.303 174.283 278.146 174.368 277.98 174.428C278.147 174.366 278.304 174.28 278.446 174.172C278.568 174.098 278.664 173.987 278.721 173.855Z" fill="#2C5777"/>
<path d="M260.118 173.636C259.651 173.427 259.198 173.189 258.762 172.923C258.123 172.526 257.532 172.057 257 171.525C256.809 171.334 256.632 171.143 256.464 170.942C256.255 170.697 256.063 170.437 255.891 170.164C255.734 169.902 255.594 169.629 255.472 169.349C255.237 168.799 255.08 168.218 255.006 167.625C254.948 167.203 254.938 166.776 254.978 166.352C255.038 165.932 255.144 165.519 255.295 165.122L255.546 164.465L255.803 163.803C256.037 163.209 256.303 162.627 256.599 162.061L257.168 160.914C257.372 160.488 257.599 160.072 257.848 159.67C258.356 158.831 258.897 157.927 259.479 157.065C260.062 156.203 260.714 155.392 261.311 154.619C261.907 153.845 262.546 153.221 263.063 152.633C263.328 152.349 263.561 152.079 263.785 151.86L264.372 151.301L264.89 150.835C264.47 151.221 264.117 151.675 263.846 152.177C263.594 152.698 263.419 153.254 263.328 153.826C263.136 155.058 263.281 156.319 263.748 157.475C264.68 159.987 266.847 162.321 269.708 164.255L270.244 164.61C270.598 164.843 270.957 165.076 271.316 165.281C271.853 165.591 272.384 165.889 272.909 166.175L273.431 166.446C273.949 166.716 274.457 166.963 274.946 167.191C275.435 167.42 275.915 167.657 276.367 167.834L277.248 168.202L278.063 168.519C278.329 168.617 278.576 168.706 278.814 168.785C279.457 169.033 280.126 169.209 280.808 169.311C281.031 169.34 281.256 169.34 281.479 169.311C281.653 169.29 281.816 169.215 281.945 169.097L281.759 169.27L281.544 169.461C281.461 169.54 281.386 169.642 281.297 169.74C281.12 169.95 280.897 170.178 280.673 170.43C280.449 170.682 280.268 170.994 280.044 171.269C279.82 171.544 279.69 171.875 279.503 172.145C279.415 172.273 279.342 172.41 279.284 172.555L279.103 172.928C278.964 173.174 278.85 173.433 278.762 173.701L278.683 173.906C278.627 174.042 278.529 174.157 278.404 174.232C278.262 174.34 278.105 174.427 277.938 174.489C277.605 174.611 277.262 174.7 276.912 174.754C276.703 174.792 276.479 174.824 276.237 174.857L275.505 174.955L274.853 175.025C274.242 175.085 273.562 175.141 272.83 175.183C272.349 175.211 271.85 175.234 271.334 175.253C269.428 175.333 267.519 175.277 265.621 175.085C263.723 174.888 261.867 174.399 260.118 173.636Z" fill="#2C5777"/>
<path d="M277.775 185.049C277.621 185.254 277.448 185.468 277.267 185.687C277.085 185.906 276.889 186.153 276.684 186.372L276.036 187.09C275.687 187.462 275.337 187.835 274.965 188.222C274.592 188.609 274.191 188.996 273.767 189.392L273.338 189.783C272.9 190.179 272.444 190.575 271.94 190.967C271.619 191.228 271.288 191.489 270.948 191.745L270.426 192.122C269.103 193.087 267.672 193.894 266.162 194.527C265.472 194.81 264.762 195.039 264.037 195.212C263.376 195.363 262.701 195.446 262.024 195.459C260.79 195.504 259.564 195.245 258.454 194.704C257.443 194.155 256.638 193.291 256.161 192.244C255.815 191.496 255.674 190.669 255.751 189.848C256.159 190.278 256.631 190.643 257.149 190.929C257.704 191.211 258.291 191.424 258.897 191.563C259.15 191.624 259.407 191.671 259.666 191.703C260.396 191.802 261.136 191.82 261.87 191.754C262.377 191.71 262.882 191.636 263.38 191.531C265.253 191.092 267.051 190.379 268.715 189.415C270.372 188.475 271.95 187.405 273.436 186.214C273.842 185.892 274.233 185.58 274.601 185.282C275.17 184.816 275.687 184.35 276.144 183.926L276.61 183.46C276.987 183.091 277.313 182.747 277.574 182.434C277.825 182.167 278.052 181.878 278.255 181.572C278.577 181.663 278.855 181.87 279.033 182.155C279.097 182.351 279.115 182.559 279.084 182.763C279.053 182.967 278.975 183.161 278.856 183.329C278.558 183.94 278.196 184.516 277.775 185.049Z" fill="#121A26"/>
<path d="M255.77 189.848C255.194 189.247 254.759 188.524 254.498 187.733L254.465 187.612C254.724 188.427 255.171 189.171 255.77 189.783V189.848Z" fill="#2C5777"/>
<path d="M278.46 180.607V180.645C278.503 180.804 278.507 180.972 278.473 181.134C278.439 181.296 278.367 181.448 278.264 181.577H278.231C278.342 181.444 278.42 181.287 278.46 181.119C278.499 180.951 278.499 180.776 278.46 180.607Z" fill="#2C5777"/>
<path d="M263.38 191.53C262.881 191.635 262.377 191.71 261.87 191.754C261.136 191.819 260.396 191.802 259.666 191.703C259.407 191.671 259.15 191.624 258.897 191.563C258.291 191.424 257.704 191.211 257.149 190.929C256.631 190.642 256.159 190.278 255.751 189.848V189.783C255.152 189.171 254.706 188.427 254.446 187.611L254.293 186.996C254.293 186.996 254.022 185.962 253.668 184.396C253.51 183.608 253.398 182.662 253.263 181.661C253.123 180.61 253.048 179.552 253.039 178.492C253.039 177.947 253.039 177.406 253.007 176.87C252.974 176.334 253.072 175.812 253.1 175.304C253.143 174.38 253.236 173.459 253.379 172.546C253.64 170.943 253.845 169.88 253.845 169.88C253.622 171.056 253.758 172.273 254.237 173.37C254.805 174.509 255.655 175.482 256.707 176.199C257.9 177.006 259.242 177.568 260.654 177.853C262.257 178.188 263.896 178.322 265.533 178.254L266.171 178.226C266.6 178.226 267.019 178.175 267.429 178.138C268.049 178.082 268.655 178.012 269.237 177.928L269.815 177.849C270.39 177.759 270.94 177.665 271.465 177.569C271.991 177.476 272.495 177.373 272.97 177.275L273.902 177.07L274.769 176.875L275.552 176.679C275.952 176.572 276.307 176.469 276.619 176.362C276.773 176.311 276.912 176.26 277.048 176.204C277.183 176.148 277.322 176.101 277.444 176.045C277.91 175.831 278.194 175.579 278.227 175.314C278.227 175.314 278.194 175.635 278.101 176.106C278.051 176.373 278.024 176.645 278.021 176.917C278.021 177.066 278.021 177.22 277.975 177.383C277.928 177.546 278.003 177.7 278.008 177.849C277.995 178.161 278.015 178.473 278.068 178.781C278.124 179.079 278.129 179.359 278.18 179.601C278.32 180.067 278.38 180.407 278.38 180.407L278.422 180.603C278.457 180.765 278.454 180.933 278.416 181.094C278.377 181.255 278.303 181.406 278.199 181.535H278.231C278.029 181.841 277.801 182.129 277.551 182.397C277.29 182.709 276.964 183.054 276.586 183.422L276.12 183.888C275.654 184.312 275.146 184.769 274.578 185.244C274.21 185.552 273.818 185.864 273.413 186.176C271.927 187.367 270.349 188.438 268.692 189.378C267.037 190.352 265.247 191.078 263.38 191.53Z" fill="#2C5777"/>
<path d="M258.473 194.704C259.583 195.245 260.809 195.504 262.042 195.459C262.72 195.446 263.395 195.363 264.055 195.212C264.78 195.039 265.491 194.81 266.18 194.527C267.69 193.894 269.121 193.087 270.444 192.122L270.966 191.745C271.306 191.489 271.637 191.228 271.959 190.967C272.425 190.575 272.891 190.179 273.357 189.783L273.785 189.392C274.21 188.996 274.606 188.604 274.983 188.222C275.361 187.84 275.705 187.462 276.055 187.09L276.703 186.372C276.908 186.134 277.103 185.906 277.285 185.687C277.467 185.468 277.639 185.254 277.793 185.048C278.22 184.515 278.587 183.937 278.888 183.324C279.008 183.156 279.086 182.962 279.116 182.758C279.147 182.554 279.13 182.346 279.065 182.15C279.065 182.15 279.233 182.472 279.452 182.979C279.559 183.231 279.783 183.511 279.955 183.828L280.235 184.294C280.347 184.465 280.468 184.63 280.598 184.788C280.85 185.118 281.092 185.454 281.316 185.775L282.076 186.619L282.602 187.225L282.84 187.444L283.087 187.677C283.264 187.869 283.397 188.097 283.477 188.346C283.558 188.594 283.584 188.857 283.553 189.117C283.542 189.472 283.512 189.827 283.464 190.179C283.395 190.602 283.303 191.02 283.189 191.433C283.129 191.647 283.064 191.861 282.989 192.085C282.793 192.691 282.551 193.343 282.257 194.028C282.071 194.471 281.861 194.928 281.633 195.394C280.795 197.116 279.801 198.759 278.665 200.301C277.543 201.848 276.216 203.237 274.722 204.429C274.321 204.739 273.904 205.029 273.473 205.296C272.858 205.68 272.207 206.003 271.53 206.261C271.294 206.348 271.056 206.427 270.817 206.498C270.332 206.639 269.834 206.733 269.331 206.778C268.864 206.829 268.392 206.807 267.933 206.713C267.058 206.542 266.25 206.127 265.603 205.515L265.137 205.049L264.671 204.611C264.396 204.299 264 203.861 263.52 203.33L261.861 201.55C261.306 200.823 260.723 200.04 260.15 199.248C259.866 198.847 259.563 198.474 259.307 198.05C259.051 197.626 258.799 197.211 258.552 196.81C258.086 195.995 257.62 195.268 257.266 194.578C256.59 193.18 256.161 192.248 256.161 192.248C256.643 193.297 257.455 194.16 258.473 194.704Z" fill="#2C5777"/>
<path d="M295.161 159.931C292.416 159.726 289.656 159.992 287.001 160.718C286.95 160.63 286.904 160.541 286.852 160.443C286.629 160.019 286.386 159.567 286.181 159.115C285.78 158.295 285.384 157.405 285.012 156.464C288.269 155.656 291.629 155.342 294.979 155.532C294.953 157 295.013 158.469 295.161 159.931Z" fill="#273C56"/>
<path d="M278.236 159.181C279.487 158.41 280.823 157.785 282.216 157.317C282.388 157.643 282.565 157.96 282.742 158.249C282.84 158.421 282.942 158.589 283.04 158.757C283.334 159.255 283.632 159.731 283.926 160.183C284.219 160.635 284.499 161.045 284.779 161.441C283.449 161.88 282.151 162.408 280.892 163.02C276.898 164.619 275.221 160.891 278.236 159.181Z" fill="#273C56"/>
<path d="M258.007 185.482C258.692 183.851 261.548 183.566 262.564 187.681C262.902 188.948 263.318 190.193 263.809 191.409C263.664 191.442 263.52 191.484 263.38 191.512C262.882 191.617 262.377 191.691 261.87 191.735C261.136 191.801 260.396 191.783 259.666 191.684C259.407 191.652 259.15 191.605 258.897 191.544L258.711 191.493C257.965 189.433 257.326 187.103 258.007 185.482Z" fill="#273C56"/>
<path d="M269.317 206.801C269.153 206.801 268.99 206.801 268.851 206.801C263.296 201.321 260.463 196.149 260.141 195.245C260.777 195.385 261.428 195.449 262.08 195.436C262.757 195.423 263.432 195.34 264.093 195.189C264.515 195.09 264.932 194.97 265.342 194.83C265.626 195.398 265.919 195.958 266.236 196.507C267.609 198.806 269.167 200.988 270.896 203.031C271.509 203.953 272.229 204.799 273.04 205.553C272.564 205.82 272.068 206.052 271.558 206.247C271.322 206.334 271.084 206.413 270.845 206.485C270.347 206.641 269.835 206.747 269.317 206.801Z" fill="#273C56"/>
<path d="M272.877 175.141C272.396 175.169 271.897 175.192 271.381 175.211C270.645 175.211 269.876 175.244 269.084 175.211C269.235 173.802 269.693 172.444 270.426 171.231C271.404 169.521 274.848 169.605 274.396 172.42C274.195 173.282 274.054 174.157 273.972 175.039L272.877 175.141Z" fill="#3276A0"/>
<path d="M273.436 186.213C272.528 186.931 271.53 187.658 270.44 188.362C269.168 185.034 268.86 181.521 268.949 177.97L269.261 177.928L269.839 177.849C270.413 177.759 270.963 177.665 271.488 177.569C272.015 177.476 272.518 177.373 272.994 177.275L273.879 177.084C273.897 179.689 274.357 182.272 275.24 184.722C275.035 184.904 274.825 185.081 274.601 185.272C274.233 185.58 273.842 185.892 273.436 186.213Z" fill="#3276A0"/>
<path d="M278.753 200.151C278.287 199.648 277.849 199.15 277.43 198.698C275.249 196.401 273.345 193.857 271.759 191.116L271.959 190.957C272.425 190.566 272.891 190.17 273.357 189.774L273.786 189.382C274.21 188.986 274.606 188.595 274.983 188.213C275.361 187.83 275.706 187.453 276.055 187.08L276.172 186.954C276.521 187.709 276.903 188.45 277.327 189.172C277.528 189.55 277.742 189.918 277.975 190.272C278.982 192.115 280.216 193.824 281.647 195.361C281.647 195.361 281.647 195.394 281.624 195.408C280.809 197.07 279.848 198.658 278.753 200.151Z" fill="#3276A0"/>
<path d="M296.275 148.952C291.923 149.111 287.603 149.755 283.395 150.872C283.238 149.973 283.157 149.063 283.152 148.15C283.151 147.639 283.183 147.129 283.25 146.622C283.342 145.892 283.513 145.175 283.763 144.483C283.805 144.362 283.861 144.25 283.907 144.134C285.468 143.728 287.043 143.388 288.628 143.099C289.513 143.006 290.399 142.927 291.289 142.88C293.254 142.801 295.223 142.918 297.165 143.229C296.897 144.313 296.774 145.427 296.797 146.543C296.523 147.321 296.348 148.13 296.275 148.952Z" fill="#3276A0"/>
<path d="M280.011 151.967C277.924 152.742 275.91 153.705 273.995 154.842C272.157 155.937 270.438 157.222 268.869 158.677C268.534 158.257 268.223 157.818 267.937 157.363C267.667 156.924 267.424 156.468 267.21 155.998C266.897 155.326 266.666 154.619 266.521 153.891C266.474 153.635 266.437 153.384 266.409 153.132C266.381 152.88 266.381 152.764 266.376 152.577L266.497 152.475C270.46 149.38 274.924 146.986 279.695 145.396C279.639 145.592 279.578 145.788 279.541 145.988C279.233 147.991 279.394 150.037 280.011 151.967Z" fill="#3276A0"/>
<path d="M259.284 161.231C260.36 159.147 261.709 157.217 263.296 155.49C263.363 156.157 263.52 156.812 263.762 157.438C264.345 158.895 265.213 160.221 266.316 161.338C265.113 162.75 264.035 164.264 263.096 165.863C262.903 166.21 262.626 166.502 262.289 166.712C261.952 166.921 261.567 167.041 261.171 167.061C260.596 167.07 260.04 166.857 259.619 166.464C259.552 166.402 259.488 166.337 259.428 166.268C257.937 164.54 259.018 162.074 259.284 161.231Z" fill="#3276A0"/>
<path d="M304.362 216.174C316.251 220.936 333.076 225.341 351.916 228.25C370.757 231.16 388.133 232.005 400.922 231.085C413.712 230.165 421.865 227.387 422.535 223.057L419.406 243.336C418.067 252.021 386.443 254.343 348.782 248.53C311.12 242.717 281.674 230.96 283.019 222.25L286.148 201.97C285.509 206.332 292.505 211.431 304.362 216.174Z" fill="#346E91"/>
<path d="M286.179 201.995C286.379 200.744 287.236 199.574 288.682 198.573L288.106 202.327L287.531 206.081C286.461 204.63 285.966 203.278 286.179 201.995Z" fill="#4688AB"/>
<path d="M305.157 214.391C317.446 219.297 334.171 223.539 352.242 226.33C370.312 229.12 387.538 230.121 400.735 229.145C414.744 228.119 420.194 225.109 420.632 222.813L420.063 226.48C413.881 230.772 396.98 232.399 375.525 230.916L328.665 223.683C307.754 218.621 292.129 211.969 287.53 206.019L288.106 202.265C287.749 204.592 292.004 209.141 305.157 214.391Z" fill="#4688AB"/>
<path d="M377.058 65.6087C413.656 71.2401 438.741 105.51 433.19 141.464L421.302 218.389L420.632 222.7V222.813C420.194 225.109 414.744 228.119 400.735 229.145C387.538 230.121 370.319 229.114 352.242 226.33C334.165 223.545 317.446 219.297 305.157 214.391C292.017 209.141 287.749 204.592 288.106 202.296L288.776 197.916L300.664 120.953C306.214 84.9932 340.466 59.9084 377.064 65.5586L377.058 65.6087Z" fill="#121A26"/>
<path d="M369.136 116.892C351.065 114.101 333.846 113.1 320.649 114.07C306.521 115.115 301.096 118.162 300.739 120.465C300.383 122.767 304.637 127.31 317.79 132.56C330.079 137.465 346.804 141.702 364.875 144.492C382.946 147.283 400.171 148.284 413.368 147.314C427.496 146.275 432.921 143.222 433.278 140.926C433.635 138.629 429.38 134.08 416.221 128.831C403.932 123.925 387.213 119.683 369.136 116.892ZM369.436 114.971C407.098 120.784 436.544 132.541 435.205 141.251C433.866 149.961 402.242 152.257 364.581 146.444C326.919 140.632 297.473 128.874 298.812 120.164C300.151 111.455 331.775 109.152 369.436 114.971Z" fill="#2A6D96"/>
<path d="M372.089 97.7764C354.019 94.9857 336.793 93.9845 323.597 94.9544C309.474 95.9931 304.043 99.0465 303.693 101.343C303.342 103.639 307.591 108.188 320.743 113.438C333.032 118.344 349.758 122.58 367.828 125.37C385.899 128.161 403.125 129.168 416.321 128.192C430.45 127.154 435.875 124.106 436.231 121.804C436.588 119.501 432.333 114.958 419.174 109.709C406.885 104.803 390.166 100.567 372.089 97.7764ZM367.534 127.298C329.873 121.485 300.426 109.727 301.765 101.018C303.105 92.3076 334.728 90.0113 372.39 95.8241" fill="#2A6D96"/>
<path d="M380.08 46.0426C398.166 48.8369 414.402 58.7007 425.216 73.4646C436.03 88.2285 440.537 106.683 437.746 124.77L435.8 137.384C434.454 146.069 402.837 148.397 365.175 142.578C327.514 136.759 298.067 125.014 299.406 116.298L301.359 103.677C304.159 85.5972 314.025 69.3693 328.787 58.5614C343.549 47.7536 361.998 43.2507 380.08 46.0426Z" fill="#346E91"/>
<path d="M301.784 100.911L301.897 100.667L301.747 101.437C301.747 101.261 301.759 101.085 301.784 100.911Z" fill="#121A26"/>
<path d="M311.664 95.8805C313.068 93.233 315.177 91.026 317.759 89.5044C316.505 90.6956 315.449 92.0791 314.63 93.6029C313.56 95.6012 312.924 97.8026 312.763 100.063C312.602 102.324 312.919 104.594 313.694 106.724C314.469 108.854 315.685 110.796 317.262 112.424C318.839 114.052 320.742 115.329 322.846 116.172C334.734 120.878 351.366 125.214 370.025 128.092C375.03 128.868 379.923 129.494 384.654 129.969C388.074 130.33 391.518 129.572 394.471 127.811C392.794 129.443 390.778 130.687 388.567 131.453C386.356 132.22 384.003 132.491 381.675 132.247C376.945 131.759 372.046 131.133 367.046 130.37C348.387 127.485 331.743 123.149 319.867 118.444C317.765 117.599 315.865 116.321 314.29 114.693C312.715 113.065 311.501 111.123 310.727 108.994C309.953 106.865 309.636 104.597 309.798 102.337C309.959 100.078 310.595 97.8777 311.664 95.8805Z" fill="#468CAF"/>
<path d="M370.037 128.092C351.378 125.214 334.741 120.878 322.858 116.172C320.754 115.329 318.852 114.052 317.275 112.424C315.698 110.796 314.482 108.854 313.707 106.724C312.931 104.594 312.614 102.324 312.775 100.064C312.937 97.8027 313.573 95.6012 314.643 93.603C315.357 92.0678 316.386 90.6997 317.662 89.5871C318.939 88.4744 320.434 87.6421 322.052 87.1437C323.671 86.6454 325.376 86.4922 327.057 86.6941C328.738 86.8959 330.358 87.4484 331.812 88.3157C342.13 92.264 356.246 95.8869 372.008 98.3271C376.319 98.9904 380.543 99.5348 384.629 99.9602C388.796 100.384 392.642 102.386 395.381 105.555C398.12 108.724 399.543 112.82 399.358 117.005C399.518 118.903 399.232 120.812 398.522 122.58C397.813 124.348 396.701 125.925 395.273 127.186C393.846 128.448 392.143 129.358 390.302 129.845C388.46 130.331 386.53 130.38 384.666 129.988C379.936 129.494 375.043 128.868 370.037 128.092Z" fill="#121A26"/>
<path d="M375.738 119.575C372.798 119.121 370.966 115.178 371.647 110.769C372.328 106.36 375.264 103.154 378.204 103.608C381.145 104.062 382.977 108.005 382.296 112.414C381.615 116.823 378.679 120.029 375.738 119.575Z" fill="#4FC997"/>
<path d="M333.117 110.28C330.177 109.826 328.345 105.884 329.026 101.475C329.707 97.0657 332.643 93.8597 335.584 94.3138C338.524 94.768 340.356 98.7104 339.675 103.119C338.994 107.528 336.058 110.735 333.117 110.28Z" fill="#4FC997"/>
<path d="M364.581 146.419C402.243 152.232 433.86 149.905 435.205 141.226L426.333 198.667C425.576 203.585 415.07 206.463 399.308 206.982C392.31 207.169 385.307 206.994 378.328 206.457C377.052 206.366 375.809 206.012 374.677 205.417C373.545 204.822 372.549 203.998 371.751 202.999C370.953 201.999 370.371 200.845 370.042 199.61C369.712 198.374 369.643 197.084 369.837 195.82C371.03 188.093 369.176 180.205 364.665 173.82C360.154 167.435 353.34 163.051 345.659 161.593L342.95 161.08C339.128 160.353 335.198 160.403 331.395 161.228C327.593 162.052 323.995 163.634 320.817 165.879C317.638 168.123 314.945 170.985 312.896 174.292C310.847 177.6 309.486 181.287 308.892 185.132C308.769 185.918 308.462 186.664 307.997 187.31C307.531 187.955 306.921 188.482 306.214 188.848C305.507 189.213 304.724 189.407 303.929 189.414C303.133 189.421 302.347 189.24 301.634 188.887C293.788 185.013 289.408 181.059 289.946 177.624L298.812 120.177C297.473 128.849 326.919 140.607 364.581 146.419Z" fill="#346E91"/>
<path d="M341.623 173.819C351.904 175.409 358.912 185.245 357.266 195.788C355.621 206.331 346.003 213.596 335.704 212.007C325.405 210.417 318.416 200.587 320.061 190.038C321.707 179.488 331.343 172.236 341.623 173.819ZM336.148 205.731C343.094 206.801 349.62 201.889 350.721 194.762C351.822 187.635 347.08 180.996 340.134 179.914C336.75 179.471 333.328 180.37 330.598 182.419C327.868 184.467 326.049 187.502 325.528 190.875C325.007 194.248 325.827 197.69 327.812 200.467C329.796 203.243 332.789 205.132 336.148 205.731Z" fill="#2A6D96"/>
<path d="M339.778 173.538C350.058 175.127 357.072 184.964 355.42 195.507C353.769 206.05 344.158 213.315 333.858 211.732C323.559 210.149 316.564 200.306 318.216 189.763C319.867 179.219 329.522 171.955 339.778 173.538ZM335.166 203.422C337.303 203.807 339.506 203.547 341.494 202.673C343.481 201.8 345.164 200.355 346.326 198.521C347.488 196.687 348.077 194.548 348.017 192.378C347.958 190.207 347.253 188.104 345.992 186.337C344.731 184.569 342.973 183.217 340.94 182.454C338.907 181.691 336.693 181.552 334.581 182.053C332.469 182.554 330.554 183.674 329.081 185.269C327.608 186.864 326.644 188.862 326.312 191.008C326.079 192.406 326.123 193.837 326.443 195.218C326.763 196.599 327.352 197.904 328.177 199.057C329.002 200.21 330.046 201.189 331.249 201.938C332.453 202.687 333.792 203.191 335.191 203.422H335.166Z" fill="#2C5777"/>
<path d="M318.241 189.763C318.725 186.476 320.046 183.369 322.076 180.74C324.107 178.11 326.778 176.046 329.835 174.745C328.931 178.109 328.718 181.621 329.209 185.07C327.668 186.702 326.659 188.764 326.318 190.983C326.085 192.379 326.128 193.808 326.447 195.188C326.765 196.568 327.352 197.871 328.174 199.024C328.996 200.177 330.037 201.156 331.238 201.906C332.439 202.657 333.776 203.163 335.172 203.397C337.166 203.702 339.205 203.421 341.042 202.59C342.187 202.935 343.37 203.145 344.564 203.215H344.99C347.331 203.768 349.746 203.938 352.142 203.716C350.152 206.621 347.385 208.908 344.158 210.315C340.93 211.723 337.372 212.194 333.89 211.675C323.628 210.142 316.626 200.306 318.241 189.763Z" fill="#1F4060"/>
<path d="M352.555 196.032C352.787 196.032 353.011 195.948 353.186 195.797C353.362 195.645 353.478 195.436 353.512 195.207C354.231 190.708 353.152 186.108 350.508 182.398C349.226 180.577 347.589 179.033 345.696 177.859C343.802 176.685 341.692 175.905 339.49 175.565C339.36 175.538 339.226 175.538 339.096 175.565C338.966 175.591 338.843 175.644 338.734 175.72C338.626 175.795 338.533 175.892 338.463 176.005C338.393 176.117 338.347 176.243 338.327 176.374C338.307 176.505 338.314 176.639 338.347 176.767C338.38 176.895 338.44 177.015 338.521 177.12C338.602 177.225 338.704 177.312 338.82 177.376C338.936 177.44 339.064 177.479 339.196 177.493C341.139 177.792 343.002 178.48 344.673 179.517C346.344 180.553 347.788 181.916 348.919 183.524C351.269 186.823 352.228 190.913 351.591 194.912C351.553 195.167 351.617 195.426 351.77 195.634C351.922 195.841 352.15 195.98 352.404 196.02L352.555 196.032Z" fill="#2A6D96"/>
<path d="M335.523 201.251C337.23 201.561 338.991 201.354 340.58 200.658C342.169 199.961 343.514 198.807 344.444 197.342C345.373 195.877 345.845 194.168 345.798 192.434C345.752 190.7 345.189 189.019 344.182 187.606C343.175 186.193 341.77 185.113 340.145 184.503C338.521 183.893 336.752 183.781 335.064 184.182C333.376 184.583 331.846 185.478 330.669 186.753C329.492 188.028 328.723 189.625 328.458 191.34C328.085 193.59 328.619 195.897 329.943 197.755C331.267 199.612 333.274 200.87 335.523 201.251Z" fill="#4FC997"/>
<path d="M339.609 198.197C339.713 198.198 339.817 198.172 339.909 198.122C341.444 197.318 342.597 195.937 343.114 194.283C343.631 192.629 343.469 190.838 342.665 189.303C341.861 187.768 340.48 186.615 338.826 186.098C337.172 185.581 335.381 185.742 333.846 186.546C333.77 186.588 333.703 186.643 333.649 186.71C333.595 186.777 333.555 186.854 333.53 186.936C333.506 187.019 333.498 187.105 333.507 187.191C333.516 187.276 333.542 187.359 333.583 187.435C333.624 187.51 333.68 187.577 333.746 187.631C333.813 187.686 333.89 187.726 333.973 187.75C334.055 187.775 334.142 187.783 334.227 187.774C334.313 187.765 334.396 187.739 334.471 187.698C335.696 187.099 337.107 187.001 338.402 187.426C339.698 187.85 340.777 188.763 341.41 189.971C342.043 191.178 342.18 192.585 341.793 193.892C341.405 195.2 340.523 196.304 339.333 196.971C339.255 197.008 339.186 197.06 339.129 197.125C339.073 197.19 339.03 197.266 339.004 197.349C338.978 197.431 338.97 197.518 338.979 197.603C338.988 197.689 339.015 197.772 339.058 197.847C339.112 197.948 339.191 198.033 339.287 198.094C339.384 198.156 339.494 198.191 339.609 198.197Z" fill="#84EFC1"/>
<g opacity="0.5">
<path d="M361.821 56.01C352.154 52.2557 343.244 56.4041 339.64 60.0145C335.172 64.4759 334.584 72.4788 346.391 77.8787C361.196 84.6489 378.59 85.8503 386.011 85.8503C400.009 85.8503 397.218 76.4645 395.322 72.2222C393.32 67.7609 389.309 61.4787 380.724 60.1334C371.927 58.7631 366.264 57.7557 361.821 56.01Z" fill="#4688AB"/>
</g>
<g opacity="0.5">
<path d="M402.274 61.7792C407.323 60.8719 426.395 79.1927 416.428 83.7855C411.603 86.0068 409.119 79.6183 405.734 73.9806C402.124 67.9425 397.888 62.5676 402.274 61.7792Z" fill="#4688AB"/>
</g>
<g opacity="0.6">
<path opacity="0.6" d="M421.702 102.501C428.892 102.607 429.793 116.93 426.389 122.11C423.636 126.284 416.941 124.476 415.921 120.352C415.032 116.742 415.295 111.592 415.921 108.914C416.997 104.54 419.4 102.469 421.702 102.501Z" fill="#346F93"/>
</g>
<ellipse rx="7.88036" ry="15.3964" transform="matrix(-0.988201 -0.15316 -0.15316 0.988201 418.055 176.798)" fill="#121A26"/>
<path d="M468.278 193.965C467.919 193.158 467.383 192.442 466.711 191.87C466.311 191.636 466.595 190.99 466.588 190.458C466.586 190.396 466.585 190.333 466.533 190.278C466.385 189.869 466.684 190.312 466.523 189.89C464.037 185.301 460.812 181.152 456.978 177.611C456.315 176.981 455.496 176.541 454.605 176.337C454.152 176.267 454.062 175.424 453.772 175.069C449.54 171.991 444.828 169.635 439.827 168.095C439.208 167.964 438.569 167.962 437.949 168.091C437.519 167.951 437.117 167.735 436.763 167.451C436.495 167.268 436.203 167.123 435.895 167.023C433.403 165.745 428.592 162.58 423.871 163.274C416.912 164.299 415.24 168.535 413.785 171.663C412.938 174.357 412.121 177.457 412.457 180.39C412.636 182.443 413.268 184.431 414.307 186.21C415.347 187.989 416.767 189.516 418.467 190.68C419.648 191.565 421.067 192.077 422.541 192.149C423.514 192.256 423.656 191.17 423.662 191.182C423.669 191.195 423.826 191.485 423.859 191.528C424.326 192.186 425.327 192.411 426.119 192.573C428.51 193.058 431.299 193.964 433.595 194.42C434.06 194.471 434.657 194.318 434.673 194.455C434.719 195.075 434.995 195.655 435.446 196.082C437.656 197.579 439.754 199.236 441.722 201.039C441.874 201.104 442.465 201.208 442.357 201.374C442.07 201.922 442.003 202.559 442.17 203.156C442.454 204.019 442.964 206.384 443.614 207.589C443.686 207.724 443.878 207.657 443.788 207.797C443.636 207.877 443.489 207.969 443.351 208.071C443.13 208.312 442.974 208.604 442.896 208.921C442.61 210.358 442.028 211.72 441.187 212.919C441.094 213.21 441.644 213.152 441.619 213.416C441.71 213.557 440.928 213.809 440.742 213.882C440.255 213.881 439.785 214.06 439.421 214.385C438.203 215.416 436.844 216.27 435.385 216.92C435.037 217.261 435.325 217.266 435.122 217.409C435.643 221.458 434.615 225.909 433.2 229.399C432.184 231.976 430.828 234.405 429.169 236.623C427.277 239.8 424.522 242.786 421.228 244.446C421.298 244.55 421.395 244.634 421.509 244.689C422.169 244.804 434.192 245.266 438.473 244.502C439.019 244.347 439.496 244.01 439.826 243.548C439.935 243.414 440.353 243.854 440.642 243.878C440.93 243.902 441.275 244.15 441.543 244.119C447.249 242.555 452.528 239.72 456.983 235.827C457.713 235.142 458.26 234.284 458.573 233.333C458.761 232.596 459.295 233.184 459.891 232.731C460.013 232.596 460.511 232.509 460.639 232.368C464.845 227.777 467.911 222.26 469.587 216.264C469.63 215.401 469.444 214.543 469.049 213.774C468.807 213.355 469.563 213.286 469.797 212.879C469.899 212.701 470.205 212.706 470.282 212.517C471.26 206.264 470.569 199.864 468.278 193.965Z" fill="#346E91"/>
<path d="M422.515 192.125C423.488 192.232 423.63 191.146 423.637 191.158C423.643 191.17 423.801 191.46 423.833 191.503C424.3 192.162 425.301 192.387 426.094 192.549C428.484 193.033 431.273 193.934 433.57 194.396C434.034 194.447 434.631 194.294 434.647 194.431C434.694 195.05 434.969 195.63 435.42 196.058C437.631 197.555 439.728 199.211 441.697 201.014C441.849 201.079 442.44 201.184 442.331 201.349C442.044 201.898 441.978 202.535 442.144 203.131C442.429 203.994 442.939 206.36 443.588 207.564C443.601 207.59 443.621 207.612 443.646 207.625C448.226 204.852 453.685 203.913 458.928 204.996C462.82 205.712 467.036 209.356 470.257 212.517C471.275 206.258 470.587 199.841 468.265 193.94C467.906 193.133 467.37 192.417 466.698 191.845C466.297 191.611 466.582 190.965 466.575 190.433C466.573 190.371 466.572 190.308 466.52 190.253C466.372 189.844 466.671 190.287 466.51 189.865C464.024 185.276 460.799 181.128 456.965 177.586C456.302 176.956 455.483 176.516 454.592 176.312C454.139 176.242 454.049 175.4 453.759 175.044C449.527 171.967 444.815 169.61 439.814 168.07C439.195 167.939 438.556 167.938 437.936 168.067C437.506 167.927 437.104 167.71 436.75 167.427C436.482 167.243 436.19 167.099 435.882 166.998C433.39 165.721 428.579 162.555 423.858 163.249C416.899 164.275 415.227 168.51 413.772 171.639C412.925 174.332 412.108 177.432 412.444 180.366C412.623 182.418 413.255 184.406 414.294 186.185C415.334 187.964 416.754 189.491 418.454 190.655C419.635 191.54 421.054 192.052 422.528 192.124L422.515 192.125Z" fill="#346E91"/>
<path d="M440.109 175.663C439.03 177.021 438.928 178.677 439.23 180.421C439.373 181.142 439.658 181.827 440.069 182.436C440.481 183.045 441.009 183.565 441.625 183.967C443.435 185.216 445.045 186.735 446.397 188.471C449.192 192.187 447.172 196.546 450.1 199.893C452.29 202.395 455.45 203.777 457.921 202.999C459.813 202.404 462.149 199.68 462.301 197.702C462.614 193.635 458.155 186.253 454.69 182.286C452.387 179.547 449.74 177.118 446.815 175.057C446.148 174.591 445.384 174.282 444.58 174.154C443.777 174.026 442.955 174.082 442.176 174.318C441.368 174.549 440.648 175.017 440.109 175.663Z" fill="#4688AB"/>
<path d="M429.112 183.109C435.786 185.69 443.88 190.457 446.055 197.325C446.148 197.973 446.201 200.364 445.665 204.746C445.622 204.803 445.347 205.298 445.304 205.349C445.171 206.035 445.797 205.293 445.563 205.925C445.332 206.056 445.11 206.202 444.898 206.361C444.615 206.575 444.332 206.776 444.044 207.008C443.869 207.162 443.705 207.33 443.556 207.508C443.063 206.594 442.756 205.319 441.722 203.035C440.689 200.752 437.213 197.158 435.421 196.077C434.97 195.649 434.694 195.069 434.647 194.45C434.632 194.312 434.034 194.465 433.57 194.414C431.274 193.952 428.485 193.052 426.094 192.567C425.302 192.405 424.301 192.18 423.834 191.522C423.801 191.473 423.638 191.214 423.637 191.176C423.605 191.358 423.534 191.531 423.43 191.684C423.326 191.836 423.191 191.965 423.033 192.062L422.872 192.116L422.791 192.118C422.697 192.13 422.603 192.132 422.509 192.125C421.108 192.072 419.752 191.612 418.608 190.802C415.153 188.316 412.952 185.16 412.407 180.367C411.862 175.863 413.053 171.321 415.738 167.665C416.6 166.61 411.82 178.942 421.706 181.029C424.226 181.525 426.702 182.221 429.112 183.109Z" fill="#1F4060"/>
<path d="M424.325 178.917C427.597 173.596 433.465 168.961 437.905 168.061C437.572 167.771 437.209 167.518 436.822 167.306C436.241 167.064 435.614 166.954 434.985 166.986C434.357 167.018 433.743 167.191 433.19 167.491C429.594 169.365 425.019 172.609 422.388 177.294C419.99 181.523 419.278 187.049 421.232 190.355C422.572 192.624 423.26 192.357 423.761 191.368C423.882 191.202 419.869 186.17 424.325 178.917Z" fill="#0F141D"/>
<path d="M439.297 184.169C443.724 179.007 450.098 175.092 454.812 176.357C454.783 176.327 454.761 176.291 454.747 176.252C454.363 175.504 453.748 174.899 452.994 174.529C452.239 174.159 451.384 174.042 450.558 174.198C445.93 175.09 441.179 178.582 437.628 182.733C434.246 186.674 433.209 189.985 433.074 192.599C433.009 193.996 433.466 194.755 434.628 194.438C434.272 191.968 435.964 188.032 439.297 184.169Z" fill="#0F141D"/>
<path d="M467.141 190.807C467.026 190.401 466.823 190.026 466.546 189.708C466.268 189.39 465.923 189.138 465.537 188.969C464.36 188.47 463.128 188.114 461.867 187.91C458.995 187.437 448.682 186.249 441.349 196.623C440.678 197.578 440.564 198.52 441.579 199.046C441.629 199.044 441.667 199.081 441.679 199.043C449.602 189.024 458.812 189.626 461.483 190.066C463.928 190.468 466.037 191.454 467.181 192.659C467.33 192.049 467.316 191.41 467.141 190.807Z" fill="#0F141D"/>
<path d="M470.127 213.059C470.27 212.703 470.316 212.315 470.262 211.935C470.207 211.555 470.053 211.196 469.816 210.895C468.983 209.859 468.013 208.941 466.931 208.169C463.241 205.62 458.963 204.053 454.499 203.617C450.815 203.227 447.694 203.562 445.09 205.048C443.856 205.749 443.087 206.538 443.601 207.589C443.674 207.737 443.732 207.824 443.776 207.798C448.705 204.689 458.471 204.769 465.624 209.973C467.056 210.95 468.228 212.261 469.037 213.793C469.264 213.766 469.481 213.686 469.671 213.558C469.86 213.43 470.017 213.259 470.127 213.059Z" fill="#0F141D"/>
<path d="M379.638 54.8332C369.51 53.3948 361.544 50.5117 361.845 48.3939C362.146 46.2761 370.6 45.7253 380.727 47.1637C390.854 48.6021 398.82 51.485 398.519 53.6028C398.219 55.7207 389.765 56.2716 379.638 54.8332Z" fill="#121A26"/>
<path d="M366.248 45.0756C369.129 46.3254 374.342 47.622 380.37 48.4781C386.397 49.3342 391.772 49.5352 394.889 49.1309C396.527 48.9402 397.629 48.3004 397.704 47.7739C397.704 47.7739 398.742 52.0356 398.687 52.4259C398.352 54.78 389.798 55.5178 379.582 54.0669C369.367 52.6159 361.354 49.5378 361.689 47.1837C361.777 46.5642 363.614 43.1027 364.011 42.8431C364.193 43.3588 364.489 43.8272 364.876 44.2136C365.263 44.6 365.732 44.8946 366.248 45.0756Z" fill="#2C5777"/>
<path d="M385.801 49.0852C388.106 49.2736 390.186 49.3542 391.978 49.3306C392.001 51.1287 392.041 52.9356 392.096 54.7319C389.76 54.8606 387.418 54.8362 385.085 54.6588C385.142 54.1234 385.637 50.4144 385.801 49.0852Z" fill="#346F93"/>
<path d="M377.97 48.1057C378.751 48.2166 379.533 48.3593 380.339 48.4737L380.828 48.5432C380.671 50.0503 380.23 53.7796 380.203 54.1425L379.553 54.0501C378.593 53.9137 377.645 53.779 376.728 53.6046C377.273 51.8113 377.644 49.9554 377.97 48.1057Z" fill="#346F93"/>
<path d="M367.504 45.5701C368.244 45.8332 369.078 46.1032 369.99 46.3591C369.254 48.0242 368.633 49.7308 368.045 51.4612C367.092 51.1416 366.155 50.7745 365.238 50.361C366.007 48.7702 366.767 47.2033 367.504 45.5701Z" fill="#346F93"/>
<path d="M381.205 42.599C390.547 43.9259 397.937 46.3091 397.707 47.9322C397.625 48.5083 396.594 48.9118 394.889 49.1309C391.772 49.5351 386.403 49.335 380.37 48.478C374.336 47.621 369.113 46.3484 366.248 45.0756C364.916 44.482 363.786 43.7148 363.868 43.1387C364.099 41.5156 371.863 41.2721 381.205 42.599Z" fill="#4D9DBC"/>
<path d="M381.048 43.7018C384.195 44.1488 386.667 45.0751 386.571 45.7503C386.537 45.9919 386.182 46.1754 385.597 46.2945C383.966 46.5049 382.314 46.4725 380.693 46.1984C379.059 46.0198 377.461 45.5904 375.957 44.9254C375.517 44.6921 375.144 44.38 375.179 44.1322C375.275 43.4569 377.901 43.2548 381.048 43.7018Z" fill="#121A26"/>
<path d="M384.649 22.7127C389.4 23.3876 385.905 45.011 385.905 45.011C385.905 45.011 384.972 45.7948 380.871 45.2124C376.77 44.6299 375.919 43.6369 375.919 43.6369C375.919 43.6369 380.17 22.0765 384.649 22.7127Z" fill="#2C5777"/>
<path d="M382.627 42.0176C383.457 42.1355 384.157 41.5207 384.405 40.3109C385.04 36.3984 385.343 32.4392 385.309 28.4756C385.362 28.2152 385.315 27.9443 385.175 27.7179C385.036 27.4915 384.816 27.3265 384.559 27.2568C384.297 27.2528 384.044 27.3478 383.849 27.5228C383.654 27.6979 383.533 27.9401 383.509 28.201C383.509 28.201 381.346 37.3738 381.385 39.9072C381.356 41.1797 381.772 41.8961 382.627 42.0176Z" fill="#468CAF"/>
<path d="M384.525 25.5392C384.039 25.4702 383.701 25.0205 383.77 24.5346C383.839 24.0488 384.289 23.7109 384.775 23.7799C385.261 23.849 385.599 24.2987 385.53 24.7845C385.461 25.2704 385.011 25.6082 384.525 25.5392Z" fill="#468CAF"/>
<rect width="17.52" height="43.1743" rx="8.76" transform="matrix(-0.992494 -0.122292 -0.122292 0.992494 398.619 154.844)" fill="#4688AB"/>
<rect width="10.4242" height="43.1743" rx="5.21211" transform="matrix(-0.981937 -0.189208 -0.189208 0.981937 313.987 138.379)" fill="#4688AB"/>
</g>
<defs>
<clipPath id="clip0">
<rect width="472" height="206" rx="16" fill="white"/>
</clipPath>
</defs>
</svg>
