<svg width="288" height="155" viewBox="0 0 288 155" fill="none" xmlns="http://www.w3.org/2000/svg">
<g clip-path="url(#clip0)">
<rect width="288" height="155" rx="16" fill="#404040"/>
<path d="M138 161.654L194.711 117.197L211.293 131.236L266.677 80.0939L281.269 94.8014L334 41.6538" stroke="#43E0BB" stroke-width="14"/>
<path d="M33.7704 198.416C33.7841 195.148 34.47 191.919 35.7856 188.928C35.7856 188.928 35.8259 188.928 35.8299 188.928C35.9725 189.103 36.1749 189.22 36.3982 189.255C36.4946 189.311 36.5957 189.358 36.7005 189.396C36.7222 189.405 36.7454 189.409 36.7689 189.409C36.7925 189.409 36.8158 189.405 36.8375 189.396C37.3454 189.634 37.9579 189.799 38.3932 189.597C38.4778 189.561 37.5872 188.84 37.5348 188.811C37.2479 188.681 36.9774 188.517 36.7287 188.324C36.4546 188.11 36.2692 187.892 36.3538 187.711C37.3555 185.689 38.4628 183.721 39.6709 181.815L40.5051 180.44C41.0229 180.871 41.654 181.144 42.3228 181.226C42.3369 181.228 42.3514 181.228 42.3652 181.224C42.3791 181.221 42.3921 181.215 42.4034 181.206C42.4824 181.202 42.5608 181.19 42.6372 181.17C42.6585 181.164 42.6776 181.152 42.6922 181.135C42.7068 181.119 42.7161 181.098 42.7191 181.076C42.7221 181.054 42.7187 181.032 42.7091 181.012C42.6996 180.992 42.6844 180.976 42.6654 180.964C42.2826 180.718 42.3148 180.597 41.9359 180.352C41.2749 179.924 41.0533 179.606 41.1298 179.376C42.6429 176.886 43.8602 174.229 44.7572 171.457C44.9101 171.589 45.0904 171.685 45.2852 171.739C45.5955 171.928 45.93 172.021 46.1678 171.827C46.4056 171.634 45.9301 171.279 45.8092 171.207C45.2489 170.88 45.0393 170.558 45.0675 170.401C45.8872 167.386 46.3484 164.285 46.4418 161.163C46.5722 161.275 46.726 161.357 46.8919 161.402C47.0579 161.448 47.2318 161.455 47.4011 161.425C47.4777 161.425 46.998 160.76 46.9537 160.699C46.804 160.579 46.6854 160.424 46.6075 160.248C46.5297 160.072 46.4951 159.88 46.5064 159.688C46.513 154.591 46.0298 149.506 45.0635 144.501L69.802 140.036C71.5995 149.995 71.9179 158.273 71.3536 165.217C71.3294 165.391 70.9788 165.701 70.3662 165.737C69.8906 165.766 69.9632 165.641 69.5601 165.951C69.5278 165.978 69.5026 166.012 69.4864 166.05C69.4703 166.089 69.4637 166.131 69.4674 166.173C69.426 166.206 69.3919 166.248 69.3678 166.296C69.3436 166.343 69.3298 166.395 69.3271 166.449C69.3245 166.502 69.333 166.555 69.3523 166.605C69.3716 166.654 69.4013 166.699 69.4392 166.737C69.8906 167.112 70.6201 167.003 71.1319 166.793C71.1319 166.793 71.2004 166.749 71.2246 166.737C70.9439 169.406 70.4998 172.054 69.8947 174.669C69.806 175.031 69.2901 175.35 68.5364 175.41C68.0904 175.393 67.6482 175.499 67.2588 175.717C67.2266 175.717 67.1943 175.717 67.1621 175.741C67.0799 175.763 67.0085 175.814 66.9613 175.885C66.9142 175.956 66.8945 176.042 66.9058 176.126C66.9172 176.21 66.9588 176.288 67.023 176.344C67.0872 176.4 67.1696 176.43 67.2548 176.43C67.8647 176.602 68.5176 176.531 69.0765 176.233C69.2038 176.196 69.3267 176.146 69.4432 176.083C69.4835 176.083 69.5319 176.083 69.5682 176.083C68.9287 178.579 68.1207 181.028 67.15 183.415C67.0291 183.693 66.5938 183.927 65.7393 183.975C65.2167 183.956 64.7056 184.131 64.3045 184.467C64.2536 184.519 64.2171 184.584 64.1986 184.654C64.1801 184.725 64.1803 184.799 64.1989 184.87C64.2176 184.94 64.2542 185.005 64.3052 185.057C64.3562 185.109 64.4198 185.147 64.4899 185.168C64.8501 185.293 65.242 185.293 65.6023 185.168C65.7524 185.13 65.9004 185.084 66.0457 185.031C66.2291 184.957 66.4081 184.872 66.5816 184.777C65.68 186.843 64.6724 188.861 63.5629 190.822C63.3896 191.125 62.1281 191.427 61.3221 191.487C61.0802 191.487 60.3063 192.37 60.5401 192.475C60.5885 192.495 60.6409 192.507 60.6933 192.523C61.2092 192.862 61.991 192.697 62.656 192.398C62.124 193.301 61.6042 194.156 61.1165 194.954C60.2379 196.392 59.0368 198.363 58.8272 199.061C58.8753 198.865 58.8984 198.665 58.8958 198.464L33.7704 198.416Z" fill="#2C5777"/>
<path d="M70.3662 165.737C69.8906 165.766 69.9631 165.641 69.5601 165.951C69.5278 165.978 69.5025 166.012 69.4864 166.05C69.4702 166.089 69.4637 166.131 69.4674 166.173C69.3944 166.238 69.3475 166.327 69.3356 166.425C69.3238 166.522 69.3477 166.62 69.4028 166.701C65.9287 167.104 62.2772 166.681 59.2382 168.716C55.9092 170.961 53.8053 174.761 51.8063 178.151C48.2313 184.197 44.999 191.282 43.7053 198.404H36.8536C37.571 194.759 38.7549 191.222 40.3762 187.88C42.0286 184.571 43.935 181.395 45.7003 178.147C47.9936 173.927 50.3916 168.168 48.3643 163.823C48.2164 163.445 48.0343 163.08 47.8203 162.735C47.5944 162.269 47.3245 161.827 47.0142 161.413C47.1385 161.431 47.2647 161.431 47.389 161.413C47.4656 161.413 46.9859 160.748 46.9416 160.687C46.7919 160.567 46.6733 160.412 46.5955 160.236C46.5177 160.06 46.483 159.868 46.4943 159.676C46.5009 154.579 46.0177 149.494 45.0513 144.489L69.7898 140.024C71.5874 149.983 71.9057 158.261 71.3415 165.205C71.3294 165.391 70.9788 165.701 70.3662 165.737Z" fill="#1F4060"/>
<path d="M108.002 142.019C114.45 148.201 118.686 154.432 121.423 160.417C121.854 161.352 121.105 161.88 120.742 162.066C120.653 162.15 120.387 162.562 120.444 162.634C120.407 162.803 120.552 162.989 120.73 162.9C120.747 162.917 120.768 162.93 120.791 162.938C120.814 162.946 120.838 162.95 120.863 162.948C120.889 162.991 120.925 163.027 120.968 163.053C120.99 163.095 121.021 163.131 121.06 163.159C121.098 163.187 121.143 163.206 121.189 163.214C121.263 163.263 121.351 163.285 121.439 163.275C121.817 163.177 122.145 162.941 122.358 162.614C123.381 165.173 124.19 167.813 124.776 170.505C124.812 170.759 124.767 171.017 124.647 171.243C124.526 171.469 124.338 171.651 124.107 171.763C123.535 172.126 123.898 172.089 123.495 172.633C123.454 172.686 123.523 172.758 123.579 172.742C123.895 172.653 124.188 172.497 124.438 172.283C124.477 172.339 124.536 172.38 124.603 172.396C124.614 172.411 124.628 172.425 124.643 172.436C124.651 172.466 124.667 172.494 124.688 172.516C124.709 172.539 124.736 172.556 124.765 172.566C124.795 172.576 124.826 172.578 124.857 172.573C124.888 172.568 124.917 172.556 124.941 172.537C125.015 172.491 125.079 172.432 125.131 172.363C125.663 175.377 125.933 178.432 125.937 181.492C125.91 181.66 125.846 181.82 125.749 181.959C125.652 182.099 125.525 182.215 125.377 182.298C125.277 182.366 125.181 182.44 125.091 182.52V182.544L125.058 182.568C124.999 182.626 124.936 182.68 124.869 182.73C124.819 182.771 124.787 182.83 124.779 182.894C124.771 182.958 124.787 183.023 124.825 183.076C124.823 183.1 124.823 183.125 124.825 183.149C124.832 183.201 124.851 183.252 124.878 183.297C124.905 183.342 124.941 183.382 124.984 183.413C125.027 183.445 125.075 183.468 125.127 183.48C125.178 183.493 125.232 183.495 125.284 183.487C125.533 183.429 125.759 183.3 125.937 183.116C125.876 185.49 125.683 187.695 125.433 189.698C125.308 190.69 123.797 191.193 123.325 191.23C123.084 191.226 122.851 191.317 122.676 191.484C122.604 191.514 122.539 191.558 122.485 191.615C122.432 191.672 122.391 191.739 122.365 191.813C122.339 191.887 122.329 191.965 122.335 192.043C122.342 192.121 122.365 192.197 122.402 192.265C122.652 192.733 123.289 192.693 123.728 192.612C124.263 192.445 124.751 192.157 125.155 191.77C124.97 193.007 124.752 194.337 124.575 195.369C124.353 196.675 124.047 198.468 124.031 199.036H98.873C98.9408 196.608 99.2105 194.19 99.6791 191.806C99.7758 191.883 99.8604 192.024 99.9491 192.068C100.151 192.161 100.37 192.209 100.592 192.209C100.814 192.209 101.033 192.161 101.235 192.068C101.82 192.076 102.398 191.937 102.915 191.665C102.921 191.662 102.925 191.658 102.928 191.653C102.931 191.648 102.932 191.642 102.932 191.637C102.932 191.631 102.931 191.625 102.928 191.62C102.925 191.615 102.921 191.611 102.915 191.608C102.198 191.435 101.86 191.536 101.138 191.282C100.417 191.028 99.929 190.476 99.9652 190.125C100.255 188.396 100.53 186.627 100.691 184.785C100.82 184.859 100.955 184.922 101.094 184.974L101.178 185.011C101.192 185.059 101.216 185.103 101.247 185.141C101.279 185.18 101.319 185.211 101.364 185.232C101.472 185.291 101.594 185.32 101.717 185.316C101.84 185.313 101.96 185.277 102.065 185.212C102.133 185.188 102.197 185.152 102.254 185.107C102.311 185.05 102.348 184.976 102.358 184.895C102.368 184.815 102.352 184.734 102.311 184.664C102.273 184.594 102.209 184.541 102.134 184.515C101.971 184.397 101.786 184.315 101.589 184.273C100.876 184.1 100.783 183.6 100.783 183.467C100.93 181.161 100.801 178.846 100.401 176.571C100.497 176.603 100.61 176.724 100.703 176.732C100.748 176.737 100.793 176.733 100.836 176.719C100.88 176.705 100.919 176.682 100.953 176.652H101.021C101.087 176.646 101.148 176.617 101.193 176.569C101.238 176.522 101.264 176.459 101.267 176.394C101.282 176.385 101.294 176.374 101.304 176.36C101.314 176.346 101.321 176.33 101.324 176.313C101.763 176.376 102.21 176.288 102.593 176.063C102.641 176.035 102.343 175.87 102.343 175.926C102.343 175.983 101.988 175.737 101.674 175.616C101.36 175.495 100.082 175.294 99.941 174.604C99.5017 173.012 98.474 170.574 97.9058 169.167C98.075 169.143 98.349 169.57 98.341 169.381C98.3363 169.309 98.3214 169.239 98.2967 169.171C98.3157 169.116 98.3129 169.055 98.289 169.001C98.2651 168.947 98.2218 168.904 98.1677 168.881C98.4644 168.877 98.7579 168.82 99.0342 168.712C99.0438 168.712 99.0531 168.708 99.0599 168.701C99.0667 168.694 99.0705 168.685 99.0705 168.676C99.0705 168.666 99.0667 168.657 99.0599 168.65C99.0531 168.643 99.0438 168.639 99.0342 168.639C98.4377 168.418 98.5103 168.269 97.8695 168.236C97.6451 168.207 97.4301 168.127 97.2404 168.004C97.0507 167.881 96.8911 167.716 96.7732 167.523C95.0286 164.815 92.9591 162.332 90.6107 160.127L108.002 142.019Z" fill="#2C5777"/>
<path d="M108.002 142.019C114.45 148.201 118.686 154.432 121.423 160.417C121.854 161.352 121.105 161.88 120.742 162.066C120.653 162.15 120.387 162.562 120.444 162.634C120.407 162.803 120.552 162.989 120.73 162.9C120.747 162.917 120.768 162.93 120.791 162.938C120.814 162.946 120.838 162.95 120.863 162.948C120.889 162.991 120.925 163.027 120.968 163.053C120.99 163.095 121.021 163.131 121.06 163.159C121.098 163.187 121.143 163.206 121.189 163.214C121.263 163.263 121.351 163.285 121.439 163.275C121.786 163.223 122.124 162.646 122.358 162.324C122.741 163.275 123.084 164.504 123.394 165.439C123.093 166.225 122.643 166.945 122.068 167.559C120.488 169.143 117.933 168.905 116.264 169.397C112.673 170.453 110.436 174.157 110.138 177.841C109.872 181.174 110.944 184.523 110.892 187.876C110.895 190.459 110.574 193.032 109.936 195.534C109.642 196.618 109.417 197.9 108.997 199.053H101.291C103.806 194.174 105.105 188.762 105.08 183.274C105.048 180.283 104.794 175.39 102.71 173.125C102.077 172.319 99.6791 171.763 98.9496 171.763C98.4297 170.497 97.942 169.421 97.8695 169.099C98.1032 169.034 98.341 169.603 98.3329 169.413C98.3282 169.342 98.3134 169.271 98.2886 169.204C98.3076 169.148 98.3049 169.087 98.281 169.033C98.257 168.979 98.2137 168.937 98.1596 168.913C98.4563 168.909 98.7498 168.852 99.0261 168.744C99.0357 168.744 99.045 168.74 99.0518 168.734C99.0586 168.727 99.0624 168.718 99.0624 168.708C99.0624 168.698 99.0586 168.689 99.0518 168.682C99.045 168.675 99.0357 168.672 99.0261 168.672C98.4296 168.45 98.5022 168.301 97.8614 168.269C97.637 168.239 97.422 168.16 97.2323 168.036C97.0426 167.913 96.883 167.748 96.7651 167.555C95.0206 164.848 92.951 162.364 90.6027 160.159L108.002 142.019Z" fill="#1F4060"/>
<path d="M119.319 94.819C121.356 93.8118 123.71 93.6548 125.862 94.3826C128.015 95.1105 129.79 96.6636 130.798 98.7003C132.001 100.718 133.448 102.579 135.106 104.242C135.106 104.266 134.848 104.601 134.852 104.613C134.921 104.976 135.255 104.56 135.191 104.98C135.151 105.213 135.15 105.419 135.42 105.314C135.604 105.242 135.804 105.222 135.999 105.255C136.194 105.289 136.375 105.374 136.525 105.504C137.795 106.597 139.142 107.598 140.555 108.498C140.555 108.498 140.555 108.688 140.555 108.704C140.797 108.913 140.652 108.752 140.712 109.074C140.745 109.268 140.652 109.542 140.797 109.478C141.044 109.371 141.311 109.32 141.579 109.327C141.848 109.334 142.112 109.399 142.353 109.518C143.901 110.249 145.486 110.902 147.1 111.473C147.25 111.549 146.98 111.771 147.1 111.839C147.298 111.948 147.177 111.747 147.354 111.884L147.528 112.142C147.568 112.267 147.625 112.351 147.786 112.295L147.854 112.271C148.334 112.117 148.848 112.106 149.333 112.238L149.978 112.4C150.804 112.601 152.497 112.782 153.291 112.891C153.549 112.996 152.981 112.98 153.247 113.044C153.436 113.089 153.626 113.161 153.819 113.222C153.876 113.253 153.937 113.275 154.001 113.286C154.089 113.351 154.15 113.451 154.262 113.427C154.555 113.185 154.927 113.061 155.306 113.081C157.153 113.123 158.999 112.988 160.82 112.678C160.892 112.678 161.465 113.282 161.529 113.181C161.787 112.794 162.141 112.48 162.557 112.271C163.814 111.908 166.716 111.106 166.716 111.106C166.716 111.106 172.057 109.433 174.825 117.683C178.114 127.465 171.198 129.774 171.198 129.774C170.074 130.247 168.922 130.651 167.748 130.984C167.014 131.199 166.227 131.143 165.531 130.826L165.479 130.798C165.479 130.798 165.451 130.859 165.439 130.871C165.286 131.025 165.143 131.19 165.012 131.362C164.846 131.536 165.326 131.362 165.112 131.475C165.112 131.475 165.032 131.673 165.028 131.673C161.908 132.312 158.736 132.655 155.552 132.697C155.225 132.697 154.902 132.63 154.603 132.499C154.303 132.369 154.034 132.178 153.811 131.939L153.787 131.915C153.384 132.318 153.618 132.592 153.078 132.636C150.536 132.446 148.012 132.072 145.525 131.516C144.972 131.383 144.432 131.238 143.912 131.088C143.603 131.002 143.317 130.849 143.073 130.64C142.829 130.431 142.634 130.172 142.502 129.879C142.265 130.073 142.012 130.244 141.744 130.391C141.536 130.367 141.332 130.317 141.136 130.242C138.226 129.258 135.417 128 132.744 126.486C132.517 126.367 132.317 126.203 132.157 126.003C131.996 125.803 131.879 125.572 131.813 125.325C131.41 125.325 131.209 125.474 130.834 125.325C130.523 125.195 130.235 125.017 129.979 124.797C119.638 117.945 115.228 109.272 114.978 108.76C112.895 104.516 115.079 96.9189 119.319 94.819Z" fill="#2C5777"/>
<path d="M152.074 118.107C146.327 118.107 143.066 116.543 140.438 114.749C138.334 113.315 136.928 111.835 136.468 110.634C135.549 108.216 136.138 107.007 138.218 106.858C138.967 107.422 139.769 107.986 140.575 108.494C140.575 108.494 140.575 108.684 140.575 108.7C140.817 108.909 140.672 108.748 140.733 109.071C140.765 109.264 140.672 109.538 140.817 109.474C141.064 109.367 141.331 109.316 141.599 109.323C141.868 109.33 142.132 109.395 142.373 109.514C143.921 110.245 145.506 110.898 147.121 111.469C147.27 111.545 147 111.767 147.121 111.835C147.318 111.944 147.197 111.743 147.375 111.88L147.548 112.138C147.588 112.263 147.645 112.347 147.806 112.291L147.874 112.267C148.354 112.113 148.868 112.102 149.353 112.234L149.998 112.396C150.825 112.597 152.517 112.778 153.311 112.887C153.569 112.992 153.001 112.976 153.267 113.04C153.456 113.085 153.646 113.157 153.839 113.218C153.896 113.249 153.957 113.271 154.021 113.282C154.109 113.347 154.17 113.448 154.283 113.423C154.574 113.18 154.947 113.056 155.327 113.077C156.245 113.101 157.265 113.077 158.228 113.004C158.668 114.165 157.608 118.461 152.074 118.107Z" fill="#3276A0"/>
<path d="M169.453 112.75C169.105 112.354 168.697 112.015 168.244 111.747C167.814 111.497 167.343 111.324 166.853 111.235L166.829 111.098C167.361 110.965 170.432 110.392 172.968 113.871C172.645 114.008 172.343 114.188 172.069 114.407C171.775 113.961 171.389 113.584 170.938 113.298C170.488 113.013 169.981 112.826 169.453 112.75Z" fill="#3276A0"/>
<path d="M119.319 94.819C121.356 93.8118 123.71 93.6548 125.862 94.3826C128.015 95.1105 129.79 96.6636 130.798 98.7003C131.985 100.702 133.413 102.551 135.05 104.206C132.954 106.741 131.479 111.243 135.557 116.369C138.097 119.557 143.235 122.415 146.963 123.503C149.426 124.217 151.651 124.047 154.049 124.047C163.621 124.047 161.408 120.775 162.053 116.232C162.193 115.035 162.555 113.875 163.121 112.811C163.681 111.198 164.246 111.154 166.595 112.339C166.775 112.44 166.916 112.598 166.998 112.787C167.079 112.976 167.096 113.187 167.047 113.387C166.644 114.572 165.717 115.451 165.277 116.684C164.919 117.699 164.641 118.53 164.874 119.618L165.12 119.739C165.213 119.687 165.316 119.657 165.422 119.651C165.528 119.646 165.633 119.666 165.73 119.709C165.827 119.752 165.912 119.818 165.979 119.9C166.046 119.982 166.093 120.079 166.116 120.182L166.257 120.452C166.622 120.939 166.882 121.496 167.023 122.089C167.131 122.423 167.212 122.766 167.309 123.1C170.109 122.109 172.786 120.797 175.285 119.191C175.59 120.347 175.741 121.538 175.736 122.733C175.327 123.288 175.035 123.92 174.878 124.591C174.834 124.66 174.801 124.716 174.781 124.753C174.479 125.047 174.201 125.373 173.874 125.647C173.874 125.611 172.919 126.252 172.778 126.337C172.637 126.421 172.399 126.55 172.206 126.655C172.407 127.03 172.584 127.417 172.782 127.739C172.834 127.826 172.867 127.923 172.879 128.024C172.89 128.125 172.88 128.227 172.848 128.324C172.816 128.42 172.764 128.509 172.695 128.583C172.626 128.657 172.541 128.716 172.448 128.755C172.242 129.811 169.626 130.415 169.626 130.415C169.542 130.369 169.463 130.315 169.388 130.254C168.809 129.792 168.124 129.48 167.395 129.346C166.666 129.211 165.915 129.259 165.209 129.484H165.157C158.97 131.395 151.828 131.125 145.569 129.541C144.763 129.323 143.929 129.089 143.118 128.848C137.14 127.017 131.542 124.121 126.594 120.299C121.806 116.543 117.602 111.565 114.289 106.366C113.693 102.106 115.801 96.5481 119.319 94.819Z" fill="#1F4060"/>
<path d="M133.736 104.411C134.022 104.295 134.945 104.045 135.183 104.323C135.369 104.618 135.453 104.967 135.42 105.314C131.793 106.721 122.439 111.299 123.329 120.73L121.85 120.871C120.911 110.904 129.504 106.169 133.736 104.411Z" fill="#121A26"/>
<path d="M131.842 125.321C131.523 125.425 131.18 125.425 130.862 125.321C130.552 125.204 130.411 124.41 130.411 124.079C130.455 117.184 133.571 113.367 135.582 111.339C136.777 110.094 138.205 109.095 139.785 108.401C139.941 108.332 140.114 108.313 140.28 108.348C140.447 108.382 140.598 108.469 140.712 108.595L140.765 108.667C140.863 108.924 140.889 109.203 140.837 109.473C139.26 110.158 137.833 111.147 136.638 112.383C134.703 114.318 131.648 118.497 131.842 125.321Z" fill="#121A26"/>
<path d="M142.526 129.879C142.526 129.879 142.196 130.415 141.821 130.395C141.607 130.347 141.409 130.242 141.249 130.092C141.089 129.942 140.972 129.751 140.91 129.541C139.84 124.634 140.618 119.505 143.094 115.136C143.817 113.841 144.774 112.69 145.916 111.743C146.096 111.597 146.31 111.499 146.538 111.456C146.765 111.413 147 111.427 147.221 111.497C147.286 111.52 147.348 111.55 147.407 111.585C147.523 111.664 147.62 111.767 147.69 111.889C147.76 112.011 147.801 112.147 147.81 112.287C147.81 112.287 147.81 112.287 147.81 112.287C146.633 112.863 145.392 114.137 144.384 115.882C143.17 117.978 142.381 120.294 142.062 122.696C141.743 125.097 141.901 127.538 142.526 129.879Z" fill="#121A26"/>
<path d="M149.877 120.593C150.151 118.111 150.853 115.6 152.183 113.742C152.473 113.339 153.009 112.823 153.497 112.891C153.543 112.895 153.589 112.903 153.634 112.915C153.91 113.005 154.165 113.15 154.383 113.343C152.928 114.395 151.739 117.248 151.357 120.746C150.954 124.325 151.433 129.097 153.819 131.911C153.819 131.911 153.694 132.636 153.223 132.636C152.987 132.601 152.763 132.509 152.57 132.369C152.377 132.228 152.221 132.044 152.114 131.83C149.974 128.646 149.491 124.144 149.877 120.593Z" fill="#121A26"/>
<path d="M158.643 118.509C158.76 116.874 159.109 115.263 159.679 113.725C159.945 113.052 160.844 112.42 161.291 112.778C161.401 112.895 161.485 113.032 161.541 113.181C160.981 114.145 160.292 116.051 160.106 118.634C159.921 121.218 160.139 127.227 165.495 130.79C165.495 130.79 165.531 131.374 165.205 131.596C164.879 131.818 164.064 131.471 163.653 131.149C158.523 127.139 158.45 121.19 158.643 118.509Z" fill="#121A26"/>
<path d="M37.5226 137.295C37.5226 137.227 37.5548 137.158 37.5709 137.09L40.5777 122.447L40.6623 122.044C43.012 111.872 63.5508 107.491 86.7617 112.258C109.828 116.998 126.904 129.001 125.3 139.234L125.139 140.04L122.209 154.299C122.187 154.434 122.163 154.568 122.136 154.702C120.016 165.02 99.3566 169.494 75.9885 164.694C52.6204 159.893 35.4026 147.613 37.5226 137.295Z" fill="#2C5777"/>
<path d="M69.4513 124.882L70.4791 125.006C70.9627 125.067 71.4503 125.115 71.938 125.168C71.9904 125.168 73.3245 125.317 73.3648 125.309C75.8918 125.643 78.4189 126.115 80.9298 126.538C86.1397 127.452 91.312 128.544 96.4467 129.815C101.498 131.056 106.49 132.514 111.424 134.188C113.879 135.031 116.317 135.926 118.735 136.872C119.885 137.326 121.028 137.794 122.165 138.274C122.644 138.476 122.62 138.464 122.092 138.246L122.773 138.54L124.788 139.447C124.897 139.5 125.01 139.54 125.119 139.584L122.701 151.329C122.681 151.462 122.66 151.595 122.632 151.732C120.512 162.054 99.8484 166.523 76.4843 161.723C75.7776 161.578 75.0804 161.428 74.3925 161.272C72.6014 160.863 70.9108 160.099 69.4218 159.023C67.9327 157.947 66.6756 156.582 65.7255 155.01C64.7753 153.437 64.1516 151.69 63.8915 149.871C63.6315 148.053 63.7404 146.2 64.2118 144.425L64.2481 144.296C65.9973 137.839 67.8391 131.383 69.4513 124.882Z" fill="#346F93"/>
<path d="M79.0838 149.62C55.8729 144.848 38.7277 132.725 40.5777 122.447L40.6623 122.044C43.012 111.872 63.5508 107.491 86.7617 112.258C109.828 116.998 126.904 129.001 125.3 139.234L125.139 140.04C122.576 150.059 102.15 154.36 79.0838 149.62Z" fill="#468CAF"/>
<path d="M42.8226 122.887L42.8952 122.536C43.6005 119.545 46.466 117.034 51.1816 115.253C55.7762 113.524 61.7936 112.609 68.5808 112.609C74.5401 112.637 80.4814 113.267 86.3144 114.487C97.1602 116.716 106.986 120.646 113.983 125.551C120.335 129.984 123.656 134.82 123.067 138.807V138.843L122.934 139.492V139.524C122.157 142.446 119.259 144.913 114.555 146.658C109.973 148.363 104.004 149.261 97.2932 149.261C91.3336 149.234 85.3921 148.603 79.5595 147.379C68.6412 145.138 58.7708 141.176 51.7499 136.231C45.3819 131.733 42.1253 126.869 42.8226 122.887Z" fill="#121A26"/>
<path d="M42.8226 122.887L42.8952 122.536L46.1195 106.85L46.192 106.495C46.8973 103.504 49.763 100.994 54.4785 99.2161C59.0731 97.4831 65.0904 96.5682 71.8776 96.5682C77.8372 96.5959 83.7786 97.2265 89.6112 98.4504C100.457 100.679 110.283 104.605 117.28 109.51C123.632 113.963 126.953 118.78 126.364 122.77V122.802L126.231 123.451L123.084 138.794V138.831L122.951 139.48V139.512C122.173 142.434 119.275 144.9 114.571 146.646C109.989 148.35 104.02 149.249 97.3093 149.249C91.3497 149.222 85.4083 148.591 79.5757 147.367C68.6574 145.126 58.787 141.164 51.7661 136.219C45.3819 131.733 42.1253 126.869 42.8226 122.887Z" fill="#121A26"/>
<path d="M99.8869 141.052C94.7738 139.736 91.9324 133.606 93.5405 127.361C95.1485 121.117 100.597 117.122 105.71 118.438C110.823 119.755 113.665 125.884 112.057 132.129C110.449 138.374 105 142.369 99.8869 141.052Z" fill="#1F4060"/>
<path d="M101.003 141.705C95.8897 140.389 93.0483 134.259 94.6563 128.014C96.2644 121.769 101.713 117.774 106.826 119.091C111.939 120.407 114.78 126.537 113.172 132.782C111.564 139.027 106.116 143.022 101.003 141.705Z" fill="#346F93"/>
<path d="M112.218 128.513C112.143 128.525 112.067 128.522 111.993 128.504C111.919 128.486 111.85 128.453 111.789 128.408C111.729 128.363 111.677 128.307 111.639 128.241C111.6 128.176 111.575 128.104 111.565 128.029C111.445 127.052 111.173 126.1 110.759 125.208C109.82 123.193 108.248 121.794 106.325 121.303C105.825 121.173 105.31 121.108 104.794 121.109C103.389 121.13 102.023 121.568 100.868 122.367C100.751 122.444 100.609 122.475 100.47 122.452C100.331 122.43 100.205 122.356 100.118 122.246C100.073 122.184 100.041 122.114 100.023 122.04C100.006 121.966 100.003 121.889 100.016 121.814C100.029 121.738 100.056 121.666 100.098 121.602C100.139 121.538 100.192 121.483 100.255 121.44C101.17 120.798 102.21 120.358 103.307 120.15C104.405 119.941 105.534 119.969 106.619 120.23C108.876 120.811 110.718 122.423 111.803 124.765C112.26 125.759 112.562 126.818 112.697 127.904C112.718 128.052 112.68 128.201 112.592 128.321C112.504 128.441 112.372 128.521 112.226 128.545L112.218 128.513Z" fill="#468CAF"/>
<path d="M97.8735 134.228C97.9814 134.202 98.095 134.216 98.1936 134.267C98.2921 134.318 98.3689 134.403 98.4096 134.506C99.1068 136.279 100.425 137.626 102.178 138.077C102.792 138.234 103.431 138.274 104.06 138.194C104.128 138.184 104.198 138.19 104.264 138.21C104.33 138.231 104.39 138.266 104.44 138.314C104.491 138.361 104.53 138.419 104.555 138.483C104.58 138.548 104.59 138.617 104.584 138.686C104.571 138.788 104.525 138.883 104.452 138.956C104.379 139.029 104.283 139.076 104.181 139.089C103.931 139.121 103.679 139.137 103.427 139.137C102.931 139.137 102.437 139.075 101.956 138.952C99.9128 138.424 98.3652 136.856 97.5591 134.808C97.5354 134.748 97.5249 134.683 97.5282 134.619C97.5315 134.554 97.5486 134.49 97.5784 134.433C97.6081 134.375 97.6499 134.325 97.7008 134.284C97.7517 134.244 97.8105 134.215 97.8735 134.2V134.228Z" fill="#468CAF"/>
<path d="M102.607 137.381C99.5409 136.679 97.7509 133.074 98.6086 129.329C99.4663 125.584 102.647 123.117 105.713 123.819C108.779 124.521 110.569 128.126 109.711 131.871C108.853 135.616 105.673 138.083 102.607 137.381Z" fill="#121A26"/>
<path d="M102.7 136.199C100.109 135.532 98.6689 132.426 99.4837 129.261C100.299 126.097 103.059 124.072 105.651 124.74C108.242 125.407 109.681 128.513 108.867 131.677C108.052 134.842 105.291 136.866 102.7 136.199Z" fill="#4FC997"/>
<path d="M107.675 131.665C107.645 131.768 107.58 131.857 107.491 131.918C107.403 131.98 107.296 132.009 107.188 132.001C107.081 131.993 106.98 131.948 106.901 131.874C106.823 131.801 106.772 131.703 106.756 131.596C106.66 130.859 106.615 129.984 106.527 129.637C106.418 129.156 106.171 128.718 105.817 128.375C105.463 128.032 105.016 127.8 104.532 127.707C103.847 127.538 103.121 127.55 103.121 127.038C103.121 126.526 104.697 126.3 105.519 126.514C107.329 126.977 108.34 129.146 107.764 131.35C107.74 131.463 107.708 131.564 107.675 131.665Z" fill="#72DDB1"/>
<path d="M102.73 133.148C103.25 133.631 103.835 133.732 104.044 133.954C104.363 134.272 104.044 134.542 103.641 134.583C102.505 134.7 101.303 133.349 101.114 132.164C101.025 131.532 101.332 131.141 101.698 131.358C102.065 131.576 102.061 132.523 102.73 133.148Z" fill="#72DDB1"/>
<path d="M43.9068 106.253L43.9955 105.818L50.2586 75.3402L50.5005 74.1673C50.5162 74.0774 50.5377 73.9885 50.5649 73.9013C50.6588 73.5947 50.7692 73.2933 50.8954 72.9985C54.817 63.8899 74.4529 60.1577 96.5072 64.6879C118.654 69.2382 135.279 80.4869 135.146 90.4379C135.143 90.8428 135.11 91.2468 135.05 91.6471L135.074 91.6672L128.625 123.028L128.464 123.834C127.864 126.179 126.288 128.211 123.934 129.879L123.89 129.907C123.383 130.241 122.799 130.439 122.194 130.483C121.589 130.527 120.983 130.416 120.433 130.16C119.882 129.904 119.407 129.512 119.051 129.02C118.696 128.529 118.472 127.955 118.4 127.352C118.38 127.163 118.356 126.977 118.328 126.792C117.368 119.964 113.012 114.447 106.97 113.463C93.4562 111.271 88.2571 126.397 87.4107 128.263C85.9678 131.443 81.9011 133.571 74.1587 131.35C61.189 127.63 51.0647 121.371 46.458 115.007C44.342 112.069 43.399 109.091 43.9068 106.253Z" fill="#2C5777"/>
<path d="M96.5071 64.7081C119.573 69.4479 136.65 81.4543 135.046 91.6875L134.884 92.4935C132.321 102.529 111.911 106.83 88.8293 102.09C65.6587 97.33 48.5256 85.2348 50.315 74.9735L50.4198 74.4576C52.83 64.3051 73.3365 59.9281 96.5071 64.7081Z" fill="#468CAF"/>
<path d="M51.7781 75.187L51.8507 74.8324V74.784C52.6205 71.5315 55.6554 68.819 60.6329 66.9409C65.3162 65.1756 71.4302 64.2446 78.3141 64.2446C84.3236 64.2728 90.3149 64.9074 96.1969 66.1388C107.147 68.3918 117.078 72.3658 124.164 77.3312C130.769 81.9621 134.203 87.0726 133.579 91.3569V91.3851V91.4254L133.442 92.0864V92.1146V92.1549C132.587 95.351 129.52 98.007 124.575 99.8489C119.904 101.582 113.838 102.501 107.035 102.501C101.025 102.471 95.0337 101.835 89.1517 100.603C78.1287 98.3375 68.1535 94.3313 61.06 89.3175C54.4018 84.6423 51.0284 79.4874 51.7781 75.187Z" fill="#121A26"/>
<path d="M78.2658 103.831C79.6562 96.407 81.0869 88.9911 82.8039 81.6316C84.2709 75.3241 86.1935 69.1375 87.7814 62.8662C89.8504 63.151 91.9475 63.5124 94.0729 63.9504C116.204 68.5007 132.841 79.7495 132.728 89.6964C132.723 90.1012 132.69 90.5051 132.631 90.9055C132.631 90.9055 132.631 90.9055 132.652 90.9257L126.203 122.286L126.038 123.092C125.449 125.397 123.914 127.405 121.604 129.065L121.967 129.142C122.596 129.271 122.652 130.311 121.995 130.444C121.277 130.522 120.55 130.455 119.858 130.247C119.165 130.04 118.522 129.695 117.965 129.234C117.122 128.469 116.608 127.408 116.53 126.272C115.567 119.445 110.597 113.516 104.532 112.734C91.6829 111.074 86.6207 126.034 85.7743 127.888C84.404 130.911 79.9383 132.656 72.8569 130.919C74.9688 121.939 76.573 112.851 78.2658 103.831Z" fill="#1F4060"/>
<path d="M43.9068 106.253L43.9955 105.818L50.2586 75.3402L50.5005 74.1673C50.5162 74.0774 50.5377 73.9885 50.5649 73.9013C50.6588 73.5947 50.7692 73.2933 50.8954 72.9985C54.817 63.8899 74.4529 60.1577 96.5072 64.6879C118.654 69.2382 135.279 80.4869 135.146 90.4379C135.143 90.8428 135.11 91.2468 135.05 91.6471L135.074 91.6672L128.625 123.028L128.464 123.834C127.864 126.179 126.288 128.211 123.934 129.879L123.89 129.907C123.383 130.241 122.799 130.439 122.194 130.483C121.589 130.527 120.983 130.416 120.433 130.16C119.882 129.904 119.407 129.512 119.051 129.02C118.696 128.529 118.472 127.955 118.4 127.352C118.38 127.163 118.356 126.977 118.328 126.792C117.368 119.964 113.016 114.423 106.97 113.463C93.5207 111.335 88.2571 126.397 87.4107 128.263C85.9678 131.443 81.9011 133.571 74.1587 131.35C61.189 127.63 51.0647 121.371 46.458 115.007C44.342 112.069 43.399 109.091 43.9068 106.253Z" fill="#2C5777"/>
<path d="M68.6049 111.158C69.4795 106.745 70.346 102.465 72.5668 100.24C76.7986 96.008 84.4564 98.1481 85.2624 97.7652C85.2826 97.7652 77.2904 93.6945 77.4193 93.6381C77.6692 93.5373 78.1005 93.356 78.2012 93.3197C81.49 92.0219 84.8111 90.7443 88.2973 90.0954C88.3941 90.0752 89.9095 89.8616 89.6395 89.8818L90.1875 89.8173C91.1427 89.7165 92.102 89.6319 93.0572 89.5553C94.8548 89.4143 96.6563 89.3095 98.4539 89.1523C102.299 88.8137 106.112 88.3946 109.985 88.2898C113.884 88.1767 117.786 88.2817 121.673 88.6042C125.299 88.8659 128.899 89.4158 132.438 90.2485C133.328 90.4445 134.245 90.4922 135.15 90.3896V90.4259C135.147 90.8307 135.115 91.2348 135.054 91.635L135.078 91.6552L128.629 123.016L128.468 123.822C127.868 126.167 126.292 128.199 123.938 129.867L123.894 129.895C123.387 130.229 122.803 130.427 122.198 130.471C121.593 130.515 120.987 130.404 120.437 130.148C119.887 129.892 119.411 129.5 119.055 129.008C118.7 128.517 118.476 127.943 118.404 127.34C118.384 127.151 118.36 126.965 118.332 126.78C117.372 119.952 113.02 114.411 106.974 113.451C93.5248 111.323 88.2611 126.385 87.4147 128.251C85.9718 131.431 81.9535 133.382 74.1628 131.338C63.4057 128.521 67.4884 116.801 68.6049 111.158Z" fill="#346F93"/>
<path d="M96.5071 64.7081C119.573 69.4479 136.65 81.4543 135.046 91.6875L134.884 92.4935C132.321 102.529 111.911 106.83 88.8293 102.09C65.6587 97.33 48.5256 85.2348 50.315 74.9735L50.4198 74.4576C52.83 64.3051 73.3365 59.9281 96.5071 64.7081Z" fill="#468CAF"/>
<path d="M51.7781 75.187L51.8507 74.8324V74.784C52.6205 71.5315 55.6554 68.819 60.6329 66.9409C65.3162 65.1756 71.4302 64.2446 78.3141 64.2446C84.3236 64.2728 90.3149 64.9074 96.1969 66.1388C107.147 68.3918 117.078 72.3658 124.164 77.3312C130.769 81.9621 134.203 87.0726 133.579 91.3569V91.3851V91.4254L133.442 92.0864V92.1146V92.1549C132.587 95.351 129.52 98.007 124.575 99.8489C119.904 101.582 113.838 102.501 107.035 102.501C101.025 102.471 95.0337 101.835 89.1517 100.603C78.1287 98.3375 68.1535 94.3313 61.06 89.3175C54.4018 84.6423 51.0284 79.4874 51.7781 75.187Z" fill="#121A26"/>
<path d="M58.7506 116.132C54.1942 116.132 50.5005 111.334 50.5005 105.415C50.5005 99.4962 54.1942 94.6981 58.7506 94.6981C63.3071 94.6981 67.0008 99.4962 67.0008 105.415C67.0008 111.334 63.3071 116.132 58.7506 116.132Z" fill="#121A26"/>
<path d="M51.0203 71.6242L51.1251 71.1124L52.6083 63.902C53.7028 58.4128 55.9047 53.2042 59.0795 48.5944C62.2543 43.9846 66.3354 40.0703 71.0736 37.0906C75.8118 34.1108 81.1078 32.1281 86.6379 31.2635C92.168 30.3989 97.8163 30.6707 103.238 32.062C117.493 35.6249 128.653 46.0716 133.965 59.0293C134.103 59.3495 134.187 59.6897 134.215 60.0369C134.336 61.8868 133.095 63.2612 132.079 63.9947C132.963 67.3311 133.515 70.7466 133.728 74.1916C133.728 74.1916 137.456 76.8718 137.033 81.4462C136.891 82.5949 136.706 83.7436 136.468 84.8962L135.751 88.3745L135.59 89.1805C133.026 99.2162 112.617 103.517 89.5346 98.7769C66.364 93.9807 49.2389 81.8896 51.0203 71.6242Z" fill="#2C5777"/>
<path d="M81.3731 51.0411C84.678 47.1639 90.4697 42.9803 94.8547 43.7501C98.6916 44.4111 103.431 45.06 108.107 43.7864C110.742 43.069 109.449 36.9348 110.581 34.6455C122.209 39.4296 130.378 50.2753 133.957 59.0212C134.095 59.3426 134.179 59.6843 134.207 60.0328C134.328 61.8788 133.087 63.2571 132.071 63.9866C132.955 67.323 133.507 70.7385 133.72 74.1835C133.72 74.1835 137.448 76.8637 137.025 81.4382C136.883 82.5868 135.739 87.2742 135.739 87.2742C133.18 97.3138 112.721 101.747 89.6878 96.8705C75.8515 93.9404 71.5995 86.6212 71.5995 76.8194C71.6075 72.5028 74.449 59.1663 81.3731 51.0411Z" fill="#346F93"/>
<path d="M96.0034 79.9228C96.0034 85.8152 99.26 92.0139 112.621 92.0139C126.413 92.0139 136.92 87.1291 137.069 80.4508C137.218 73.7724 129.137 70.0403 115.78 69.7501C102.424 69.4599 96.0115 73.2404 96.0034 79.9228Z" fill="#468CAF"/>
<path d="M97.2005 74.6913L97.2448 74.5986C98.4262 72.2289 100.283 70.2624 102.582 68.9476C104.88 67.6327 107.517 67.0284 110.158 67.211C118.146 67.743 124.893 67.1344 129.169 65.5142C131.072 64.7927 132.486 63.8698 133.3 62.7614L135.36 79.0804C135.223 80.5262 134.734 81.9164 133.937 83.1303C133.14 84.3441 132.058 85.3447 130.786 86.0449C125.171 89.108 116.828 90.7161 106.805 89.4062C98.208 88.2858 93.7383 81.7687 97.1319 74.8243L97.2005 74.6913Z" fill="#121A26"/>
<path d="M17.4595 111.96C17.7174 111.557 17.2217 111.557 17.1733 111.114C17.1733 111.001 17.008 110.735 17.0201 110.618C17.3114 106.767 18.5058 103.039 20.5065 99.7361C20.8788 99.3567 21.3423 99.0792 21.8525 98.9301C22.1427 98.8656 21.8526 98.4907 21.9373 98.2167C21.9776 98.0917 21.8445 97.9587 21.8969 97.8419C24.3154 94.7383 27.5143 92.3322 31.1668 90.8693C31.6839 90.6891 32.2347 90.6272 32.7789 90.6879C33.057 90.7726 33.2263 90.3695 33.4721 90.1479L33.581 90.0995C33.8268 89.9947 33.5003 90.0471 33.7583 89.9383C36.8915 89.1138 40.139 88.8102 43.3708 89.0395C43.9368 89.0719 44.4838 89.2556 44.9547 89.5715C45.1804 89.7448 45.5996 89.4305 45.8817 89.4103C49.0709 90.0193 52.1377 91.151 54.9581 92.7596C55.2846 92.987 55.5593 93.2809 55.7642 93.6221C56.0142 93.7589 56.2876 93.8477 56.5702 93.884C56.7668 93.9304 56.9565 94.0022 57.1345 94.0976C59.4255 95.0368 61.3757 96.6522 62.7246 98.7285C63.9878 100.645 64.6315 102.904 64.5688 105.198C64.5061 107.493 63.7399 109.712 62.374 111.557C59.8711 115.116 55.2039 114.487 51.4235 110.771C50.964 110.368 51.3952 109.852 51.3831 109.856L51.1454 109.913C50.6496 109.977 50.1216 109.623 49.7146 109.336C48.4813 108.462 46.8933 107.583 45.7084 106.741C45.4867 106.551 45.3053 106.217 45.2327 106.269C44.932 106.51 44.5531 106.63 44.1688 106.608C42.555 106.245 40.9171 106 39.2679 105.874C39.1711 105.83 38.8648 105.608 38.8406 105.725C38.7163 106.088 38.4562 106.388 38.1151 106.564C37.6033 106.801 36.3176 107.575 35.4954 107.793C35.4027 107.817 35.3544 107.7 35.3302 107.793C35.3573 107.895 35.3774 107.999 35.3906 108.103C35.378 108.306 35.3112 108.503 35.1972 108.671C34.6693 109.408 34.3002 110.247 34.113 111.134C34.0243 111.303 33.8148 111.029 33.71 111.134C33.6092 111.154 33.8268 111.614 33.8711 111.731C34.0791 111.948 34.1984 112.236 34.2057 112.537C34.2541 113.525 34.4441 114.5 34.7699 115.434C34.7699 115.793 34.5886 115.551 34.6853 115.874C34.8062 116.277 34.3871 115.958 34.7377 116.148C35.0537 116.288 35.3407 116.486 35.5841 116.732C36.0879 117.24 37.4702 118.808 38.0788 119.364C38.1671 119.442 38.2373 119.538 38.2844 119.646C38.3845 119.788 38.495 119.923 38.6149 120.049C38.6413 120.105 38.6753 120.156 38.7157 120.202C39.1232 120.267 39.5194 120.389 39.8925 120.565C40.8854 121.164 41.9293 121.674 43.012 122.089L42.9516 122.068C42.9516 122.068 49.5897 123.278 46.4218 131.548C42.8186 140.951 37.434 138.291 37.434 138.291C34.7949 137.328 32.2776 136.059 29.9335 134.51C29.5707 134.256 29.3612 133.402 29.3612 133.402C29.2699 133.408 29.1784 133.408 29.0871 133.402C29.0042 133.369 28.9121 133.369 28.8291 133.402C28.5752 133.382 28.3374 133.563 28.0996 133.462C27.7691 133.212 22.4571 127.977 20.9901 125.72C20.8283 125.409 20.777 125.052 20.8449 124.708C20.8449 124.6 20.4822 124.595 20.3492 124.479C20.2162 124.362 19.9663 124.313 19.8616 124.172C18.1421 120.937 17.1776 117.355 17.0403 113.693C17.037 113.09 17.1809 112.495 17.4595 111.96Z" fill="#2C5777"/>
<path d="M25.3066 97.5235C26.7441 94.3934 29.3343 91.939 32.5371 90.6718C32.6171 90.6733 32.6968 90.6828 32.7749 90.7C33.053 90.7847 33.2223 90.3816 33.4681 90.16L33.581 90.0995C33.8268 89.9947 33.5003 90.0471 33.7583 89.9383C36.8915 89.1138 40.139 88.8102 43.3708 89.0395C43.9368 89.0719 44.4838 89.2556 44.9547 89.5715C45.1804 89.7448 45.5996 89.4305 45.8817 89.4103C49.0709 90.0193 52.1377 91.151 54.9581 92.7596C55.2846 92.987 55.5593 93.2809 55.7642 93.6221C56.0142 93.7589 56.2876 93.8477 56.5703 93.884C56.7668 93.9304 56.9565 94.0022 57.1345 94.0976C59.4255 95.0368 61.3757 96.6522 62.7246 98.7285L62.7448 98.7608C62.9647 99.1066 63.0583 99.5177 63.0098 99.9246C62.9613 100.331 62.7738 100.709 62.4788 100.994C62.1839 101.278 61.7997 101.452 61.3914 101.486C60.983 101.519 60.5755 101.411 60.2378 101.179C57.5953 99.2737 54.7181 97.7173 51.6773 96.5481C46.4902 94.682 41.3636 94.4846 36.4626 96.3305C31.86 98.0595 28.3697 103.247 29.3773 109.578C30.0746 113.975 33.4479 120.231 42.4075 124.14C42.8447 124.34 43.2517 124.601 43.6166 124.914C43.0167 125.237 42.4812 125.667 42.0367 126.183C41.1772 127.178 40.4498 128.279 39.8724 129.46C39.3524 128.873 38.7296 128.385 38.0346 128.021C27.9586 123.185 23.5735 115.624 23.0657 110.731C22.4571 104.943 23.2874 101.703 25.3066 97.5235Z" fill="#3276A0"/>
<path d="M35.3866 106.221C36.1075 104.772 37.261 103.584 38.6874 102.819C42.7178 100.667 48.5941 102.013 52.689 103.98C54.1248 104.683 55.4952 105.513 56.7839 106.459C57.4115 106.917 58.1387 107.221 58.906 107.345C59.6734 107.468 60.4591 107.409 61.1991 107.171C61.9391 106.934 62.6124 106.524 63.164 105.977C63.7156 105.429 64.1299 104.759 64.373 104.02C64.4185 103.889 64.4535 103.754 64.4778 103.617C64.764 105.903 64.3891 108.684 62.3578 111.573C59.855 115.132 55.1878 114.503 51.4073 110.787C51.364 110.748 51.326 110.704 51.2945 110.654C51.2827 110.641 51.2732 110.626 51.2662 110.61C51.2477 110.58 51.2342 110.548 51.226 110.513C51.2032 110.403 51.204 110.288 51.2283 110.178C51.2526 110.068 51.2998 109.964 51.367 109.873L51.1292 109.929C50.6335 109.993 50.1055 109.639 49.6984 109.353C48.4651 108.478 46.8772 107.599 45.6923 106.757C45.4706 106.568 45.2893 106.233 45.2167 106.286C44.916 106.526 44.5369 106.646 44.1526 106.624C42.5389 106.261 40.901 106.016 39.2517 105.891C39.155 105.846 38.8487 105.625 38.8245 105.741C38.7001 106.104 38.4401 106.405 38.099 106.58C37.2758 107.043 36.4206 107.447 35.5398 107.789C35.5519 107.645 35.5519 107.501 35.5398 107.358C35.5398 107.132 35.4994 106.918 35.4631 106.705C35.4497 106.542 35.4241 106.38 35.3866 106.221Z" fill="#1F4060"/>
<path d="M17.4594 111.96C17.4955 111.912 17.5178 111.855 17.5238 111.795C18.6765 117.708 20.9175 121.71 25.5524 126.349C29.1515 129.944 33.3471 132.644 38.5785 134.006C38.3929 135.363 38.531 136.744 38.9816 138.037C39.0541 138.214 39.1267 138.391 39.2032 138.561C38.5927 138.555 37.985 138.475 37.3936 138.323C34.7545 137.36 32.2373 136.091 29.8931 134.542C29.5304 134.289 29.3208 133.434 29.3208 133.434C29.2295 133.44 29.138 133.44 29.0467 133.434C28.9638 133.402 28.8718 133.402 28.7888 133.434C28.5349 133.414 28.2971 133.595 28.0593 133.495C27.7288 133.245 22.4167 128.009 20.9497 125.752C20.7878 125.441 20.7367 125.085 20.8046 124.741C20.8046 124.632 20.4419 124.628 20.3089 124.511C20.1759 124.394 19.926 124.346 19.8212 124.205C18.1018 120.969 17.1373 117.387 17 113.726C17.0037 113.108 17.1616 112.501 17.4594 111.96Z" fill="#1F4060"/>
<path d="M56.6145 104.371C57.6341 100.639 57.2432 96.0281 55.7641 93.6381C56.0382 93.6645 56.3086 93.7212 56.5702 93.8074C56.9252 93.9673 57.2401 94.2044 57.4918 94.5014C57.7435 94.7984 57.9256 95.1479 58.0251 95.5243C58.7022 97.9426 59.1778 101.389 58.1783 104.56C57.2715 107.43 55.083 110.098 52.7575 110.606C51.1453 110.961 50.9921 110.537 51.2138 109.881C51.2501 109.78 55.224 109.445 56.6145 104.371Z" fill="#121A26"/>
<path d="M47.8847 99.8327C48.3441 95.6492 47.4091 91.107 44.8377 89.515C44.8617 89.5191 44.8863 89.5191 44.9103 89.515C45.4118 89.3705 45.9464 89.3922 46.4346 89.5767C46.9227 89.7612 47.3382 90.0986 47.6187 90.5387C49.1785 93.0012 49.6339 96.6286 49.2309 99.9939C48.8843 103.19 47.8243 105.064 46.6998 106.233C46.0993 106.858 45.5592 106.971 45.2086 106.314C46.4781 105.415 47.5421 102.964 47.8847 99.8327Z" fill="#121A26"/>
<path d="M33.5487 90.0147C33.7918 89.926 34.0515 89.8919 34.3092 89.9149C34.5669 89.9378 34.8165 90.0173 35.04 90.1477C35.7262 90.5454 36.3598 91.0274 36.9262 91.5825C38.2199 92.836 42.6332 97.5394 40.1505 105.004C39.9208 105.689 39.4895 106.096 38.8568 105.782C38.8245 105.782 38.8043 105.753 38.8083 105.741C40.8719 98.0835 37.172 93.7428 35.9548 92.5659C34.8505 91.4979 33.5809 90.8087 32.5532 90.6757C32.8169 90.3668 33.1617 90.1378 33.5487 90.0147Z" fill="#121A26"/>
<path d="M21.7397 98.1603C21.8393 97.9443 21.9942 97.7585 22.1889 97.6218C22.3836 97.4852 22.6111 97.4026 22.8481 97.3824C23.6705 97.3175 24.498 97.3677 25.3065 97.5315C28.0238 98.1159 30.5471 99.3838 32.6378 101.215C34.3789 102.719 35.5517 104.266 35.983 106.076C36.1845 106.922 36.1603 107.611 35.4711 107.821C35.3744 107.849 35.3099 107.857 35.3059 107.821C34.6328 104.29 30.4372 99.8974 25.0486 98.8696C23.9991 98.6384 22.9091 98.666 21.8726 98.9502C21.7897 98.8384 21.7345 98.7085 21.7114 98.5712C21.6883 98.4339 21.698 98.2931 21.7397 98.1603Z" fill="#121A26"/>
<path d="M17.0564 111.017C17.0235 110.794 17.0472 110.567 17.1254 110.355C17.2036 110.144 17.3338 109.956 17.5038 109.808C18.6686 108.74 20.325 107.974 22.453 107.535C26.0804 106.789 30.534 107.265 33.3552 109.324C33.7082 109.588 33.9595 109.965 34.0667 110.393C34.1739 110.82 34.1304 111.271 33.9436 111.67C33.9074 111.751 33.8832 111.807 33.8913 111.819C31.9487 108.929 26.7898 108.039 22.7312 108.877C20.1518 109.409 18.2978 110.521 17.4917 111.964C17.2906 111.677 17.1431 111.357 17.0564 111.017Z" fill="#121A26"/>
<path d="M25.3831 115.95C28.0109 114.411 30.804 113.899 33.2423 114.508C33.9598 114.685 34.7336 115.076 34.8545 115.85C34.8879 115.983 34.8795 116.124 34.8304 116.253C32.4122 115.044 29.0387 115.386 26.0603 117.131C22.9287 118.965 21.0142 121.843 20.7845 124.95C20.6062 124.943 20.4328 124.889 20.2811 124.796C20.1293 124.702 20.0043 124.57 19.918 124.414C19.788 124.195 19.705 123.951 19.6745 123.697C19.6439 123.444 19.6664 123.187 19.7406 122.943C20.5225 120.146 22.4974 117.643 25.3831 115.95Z" fill="#121A26"/>
<path d="M29.9536 123.814C31.3279 121.73 33.4479 119.783 35.9991 119.082C36.4662 118.938 36.967 118.949 37.4277 119.111C37.8884 119.274 38.2848 119.58 38.5585 119.985C38.6124 120.068 38.6569 120.157 38.6914 120.251C36.9019 120.049 33.8188 120.46 31.1063 124.571C29.0911 127.602 28.5631 130.653 29.3369 133.438C29.3168 133.438 29.3571 133.414 29.3369 133.438C29.1797 133.632 28.1278 134.01 27.8659 133.16C27.1041 130.25 28.1399 126.566 29.9536 123.814Z" fill="#121A26"/>
<path d="M166.261 120.691C165.122 116.877 165.911 113.275 168.023 112.644C170.134 112.014 172.769 114.595 173.907 118.408C175.046 122.222 174.257 125.825 172.145 126.455C170.033 127.085 167.399 124.504 166.261 120.691Z" fill="#121A26"/>
<path d="M38.5295 136.677C36.6221 135.806 36.3521 132.305 37.9265 128.856C39.5009 125.408 42.3235 123.319 44.2309 124.189C46.1383 125.06 46.4082 128.562 44.8338 132.01C43.2594 135.458 40.4369 137.548 38.5295 136.677Z" fill="#121A26"/>
<path d="M98.9682 43.3573C91.8406 41.8929 86.5226 38.4663 87.0902 35.7038C87.6577 32.9413 93.8959 31.8889 101.024 33.3533C108.151 34.8177 113.469 38.2443 112.902 41.0068C112.334 43.7694 106.096 44.8217 98.9682 43.3573Z" fill="#121A26"/>
<path d="M87.8459 35.2864C87.3219 37.8417 92.3478 41.0337 99.0705 42.4161C105.793 43.7986 111.674 42.8474 112.197 40.2921C112.322 39.6916 112.435 37.0678 111.996 36.4351C110.565 34.3554 106.12 34.2224 100.973 33.1664C95.826 32.1105 91.5981 30.5709 89.4661 31.917C88.797 32.3241 87.9668 34.6818 87.8459 35.2864Z" fill="#1F4060"/>
<path d="M100.735 39.0627C100.562 40.2477 100.388 41.4326 100.227 42.6216C99.8242 42.5571 99.4615 42.4845 99.0705 42.408C98.5949 42.3072 98.1234 42.1984 97.6639 42.0855C97.9984 40.9772 98.2765 39.8406 98.5425 38.704C99.276 38.8532 100.002 38.9741 100.735 39.0627Z" fill="#2C5777"/>
<path d="M93.1096 36.6608C94.1227 37.2723 95.2051 37.7607 96.3339 38.1158C95.9671 39.2 95.6125 40.2882 95.278 41.3764C94.0481 40.9636 92.8549 40.4486 91.711 39.8368C92.0294 39.1153 92.3237 38.3858 92.6421 37.7087C92.7912 37.3621 92.9524 37.0115 93.1096 36.6608Z" fill="#2C5777"/>
<path d="M106.531 39.5344L106.555 39.2523C108.481 39.1112 110.863 38.4462 111.327 36.3343C111.35 36.2251 111.368 36.1148 111.379 36.0038C111.416 35.9594 111.45 35.9123 111.48 35.8627C111.675 36.0287 111.848 36.2182 111.996 36.427C112.435 37.0638 112.322 39.6835 112.197 40.2841C111.883 41.8196 109.634 42.7708 106.43 42.9925C106.454 42.2872 106.462 41.5899 106.49 40.9289C106.507 40.4614 106.531 39.9979 106.531 39.5344Z" fill="#2C5777"/>
<path d="M99.6443 39.6116C93.2558 38.299 88.4811 35.2678 88.9797 32.841C89.4783 30.4143 95.0613 29.511 101.45 30.8235C107.838 32.1361 112.613 35.1673 112.114 37.5941C111.616 40.0209 106.033 40.9241 99.6443 39.6116Z" fill="#1F4060"/>
<path d="M88.9865 32.8158C89.0067 32.7195 89.035 32.6251 89.0711 32.5336C91.4893 32.9729 101.053 35.6652 102.956 34.3997C103.084 34.3081 103.182 34.181 103.239 34.034C103.296 33.8871 103.308 33.7267 103.275 33.5728C103.241 33.4189 103.163 33.2781 103.051 33.1679C102.938 33.0578 102.796 32.983 102.641 32.9528C102.589 32.9241 102.534 32.9024 102.476 32.8883C102.396 32.8231 102.305 32.7739 102.206 32.7432C99.8161 31.9371 97.4019 30.9618 94.9515 30.2202C97.138 30.1491 99.325 30.344 101.465 30.8006C107.853 32.1104 112.629 35.1413 112.129 37.5676C111.629 39.9939 106.047 40.9007 99.6589 39.5828C93.2708 38.2648 88.4867 35.242 88.9865 32.8158Z" fill="#346F93"/>
<path d="M88.9946 32.7875C89.0308 33.7266 90.5825 35.0163 92.8355 36.2214C94.1978 36.9468 97.3979 38.1237 101.654 38.8129C110.924 40.3122 112.089 36.7252 111.911 36.2455C112.127 36.6505 112.201 37.1158 112.121 37.5675C111.621 39.9857 106.039 40.9006 99.6509 39.5827C93.2627 38.2648 88.4867 35.2379 88.9865 32.8117C88.9878 32.8032 88.9905 32.795 88.9946 32.7875Z" fill="#468CAF"/>
<path d="M101.074 35.4066C98.8191 34.9434 97.1342 33.8733 97.3102 33.0164C97.4863 32.1595 99.4567 31.8404 101.711 32.3036C103.966 32.7668 105.651 33.8369 105.475 34.6938C105.299 35.5507 103.328 35.8698 101.074 35.4066Z" fill="#121A26"/>
<path d="M98.4417 32.8681C98.4518 32.8231 98.4682 32.7797 98.4901 32.7391L102.029 21.4541C102.762 19.1044 106.261 19.8419 105.971 22.2964L104.58 34.0087C104.584 34.0516 104.584 34.0948 104.58 34.1377C104.447 34.7825 102.968 35.0203 101.275 34.6737C99.5823 34.3271 98.3087 33.5009 98.4417 32.8681Z" fill="#2C5777"/>
<path d="M104.657 33.3316C103.701 33.8837 102.21 33.8313 101.577 33.3316C100.602 32.586 100.828 31.3889 101.174 29.6156C101.739 26.6532 103.045 20.2006 103.045 20.2006C104.326 19.5759 106.196 20.4505 105.979 22.2642L104.657 33.3316Z" fill="#346F93"/>
<path d="M113.385 83.689C111.631 83.4586 110.505 81.0174 110.87 78.2364C111.236 75.4554 112.954 73.3877 114.708 73.618C116.462 73.8484 117.588 76.2896 117.223 79.0706C116.858 81.8516 115.139 83.9193 113.385 83.689Z" fill="#4FC997"/>
<path d="M129.757 79.7574C128.466 79.5931 127.706 77.2008 128.06 74.4142C128.415 71.6276 129.749 69.5017 131.041 69.6661C132.333 69.8304 133.093 72.2226 132.738 75.0093C132.384 77.7959 131.049 79.9217 129.757 79.7574Z" fill="#4FC997"/>
<path d="M104.366 22.8405C103.926 22.8405 103.568 22.4833 103.568 22.0425C103.568 21.6018 103.926 21.2445 104.366 21.2445C104.807 21.2445 105.164 21.6018 105.164 22.0425C105.164 22.4833 104.807 22.8405 104.366 22.8405Z" fill="#468CAF"/>
<path d="M102.799 31.4696C103.009 31.5046 103.225 31.4547 103.399 31.3308C103.573 31.2068 103.69 31.0191 103.726 30.8086L104.532 24.9686C104.604 24.5293 104.459 24.086 104.092 24.0376C103.794 23.9933 103.472 24.1021 103.331 24.7026L102.122 30.5426C102.104 30.648 102.108 30.7558 102.133 30.8597C102.158 30.9636 102.203 31.0615 102.266 31.1477C102.329 31.234 102.409 31.3069 102.5 31.3621C102.591 31.4174 102.693 31.4539 102.799 31.4696Z" fill="#468CAF"/>
<path d="M75.313 41.8164C74.7411 40.6988 75.7007 39.0646 77.4563 38.1662C79.212 37.2678 81.0988 37.4454 81.6707 38.563C82.2426 39.6806 81.283 41.3149 79.5274 42.2133C77.7717 43.1117 75.8849 42.934 75.313 41.8164Z" fill="#346F93"/>
<path d="M117.155 54.5388C115.376 52.4025 115.036 49.7526 116.396 48.6201C117.756 47.4876 120.3 48.3013 122.08 50.4376C123.859 52.5739 124.199 55.2237 122.839 56.3562C121.479 57.4887 118.935 56.675 117.155 54.5388Z" fill="#468CAF"/>
<path d="M126.92 100.276C127.529 100.066 128.113 99.7887 128.661 99.45C129.065 99.196 129.419 98.9139 129.786 98.6197C130.389 98.2762 130.955 97.871 131.475 97.4106C131.475 97.471 131.475 97.5275 131.475 97.5839L126.856 120.057C126.752 120.564 126.45 121.01 126.018 121.294C125.586 121.579 125.058 121.681 124.551 121.577C124.043 121.473 123.598 121.171 123.313 120.739C123.028 120.306 122.927 119.779 123.031 119.271L126.92 100.276Z" fill="#468CAF"/>
<path d="M116.849 148.218C117.665 147.795 118.428 147.277 119.122 146.674L119.226 146.589C119.992 146.057 120.762 145.549 121.5 144.977L119.702 153.731C119.598 154.238 119.296 154.683 118.864 154.968C118.432 155.253 117.904 155.355 117.397 155.251C116.889 155.146 116.444 154.845 116.159 154.413C115.875 153.98 115.773 153.452 115.877 152.945L116.849 148.218Z" fill="#468CAF"/>
<path d="M103.278 103.803C105.792 103.933 108.313 103.798 110.799 103.4C112.085 103.323 113.37 103.214 114.652 103.049L113.906 107.249C113.647 108.692 112.827 109.973 111.625 110.813C110.423 111.653 108.938 111.983 107.494 111.731C106.051 111.471 104.769 110.651 103.929 109.45C103.088 108.248 102.757 106.763 103.008 105.318L103.278 103.803Z" fill="#468CAF"/>
<path d="M95.1167 150.882C97.4744 150.793 99.8443 150.668 102.202 150.479C103.029 150.443 103.854 150.365 104.673 150.245L105.987 150.096C106.164 150.096 106.337 150.043 106.511 150.015L105.406 156.258C105.314 157.004 105.071 157.723 104.693 158.372C104.314 159.021 103.807 159.585 103.202 160.032C102.598 160.478 101.909 160.797 101.178 160.969C100.446 161.14 99.6873 161.161 98.9475 161.03C98.2077 160.898 97.5024 160.618 96.8746 160.205C96.2467 159.792 95.7095 159.256 95.2957 158.629C94.8818 158.002 94.6 157.297 94.4674 156.558C94.3347 155.818 94.3541 155.059 94.5242 154.328L95.1167 150.882Z" fill="#468CAF"/>
<path d="M83.7753 68.5611C84.3968 68.5607 85.0012 68.3574 85.4967 67.982C85.9921 67.6066 86.3514 67.0797 86.52 66.4815C87.9572 61.6584 90.9412 57.4422 95.0119 54.483C95.6495 54.0747 96.0989 53.4298 96.261 52.6902C96.4231 51.9506 96.2848 51.1769 95.8764 50.5393C95.4681 49.9017 94.8232 49.4524 94.0836 49.2903C93.344 49.1282 92.5704 49.2665 91.9328 49.6748C86.6711 53.3735 82.8237 58.7516 81.0225 64.9257C80.9046 65.3504 80.8863 65.7966 80.9692 66.2295C81.052 66.6624 81.2338 67.0703 81.5002 67.4214C81.7667 67.7725 82.1106 68.0573 82.5053 68.2536C82.8999 68.4499 83.3345 68.5524 83.7753 68.5531V68.5611Z" fill="#468CAF"/>
<path d="M48.7996 122.604L43.4714 123.007C42.6996 123.068 41.9633 123.357 41.3567 123.838C40.75 124.319 40.3006 124.97 40.0658 125.708L36.2812 137.577C36.0158 138.415 36.0184 139.314 36.2886 140.15C36.5588 140.986 37.0832 141.717 37.7886 142.24L45.9904 148.318C46.9547 149.033 48.1485 149.367 49.3437 149.257L56.8321 148.556C57.5171 148.493 58.1697 148.235 58.7121 147.812C59.2544 147.389 59.6637 146.819 59.8912 146.17L63.9215 134.76C64.3458 133.552 64.3266 132.232 63.8673 131.037C63.4081 129.841 62.5387 128.848 61.4147 128.235L52.4833 123.37C51.3565 122.761 50.0759 122.495 48.7996 122.604Z" fill="#1F4060"/>
<path d="M44.4347 122.947L48.5658 122.621C49.9902 122.507 51.416 122.822 52.6607 123.523L61.9991 128.763C62.1307 128.837 62.2352 128.951 62.2971 129.089C62.3591 129.226 62.3752 129.38 62.3432 129.528C62.3112 129.675 62.2327 129.808 62.1192 129.908C62.0058 130.008 61.8634 130.068 61.713 130.081L55.6028 130.568C54.9675 130.622 54.3309 130.482 53.7772 130.165L44.0599 124.575C43.8984 124.481 43.7713 124.338 43.697 124.167C43.6227 123.996 43.6053 123.805 43.6472 123.623C43.6891 123.441 43.7881 123.277 43.9298 123.156C44.0715 123.034 44.2484 122.961 44.4347 122.947Z" fill="#2C5777"/>
<path d="M45.398 147.303L38.3489 142.192C37.5642 141.624 36.9761 140.825 36.6662 139.907C36.3563 138.989 36.3401 137.997 36.6199 137.069L39.8442 126.405C39.9319 126.128 40.0806 125.875 40.2793 125.663C40.478 125.451 40.7217 125.287 40.9924 125.182C41.263 125.076 41.5538 125.033 41.8433 125.055C42.1328 125.077 42.4138 125.164 42.6654 125.309L51.3831 130.282C51.9049 130.578 52.3095 131.044 52.5295 131.602C52.7495 132.16 52.7717 132.777 52.5922 133.349L47.8364 146.553C47.7538 146.787 47.6175 146.998 47.4385 147.17C47.2596 147.341 47.0429 147.469 46.8059 147.541C46.5689 147.614 46.318 147.631 46.0735 147.589C45.829 147.548 45.5977 147.45 45.398 147.303Z" fill="#2C658C"/>
<path d="M53.3124 129.16C51.3041 128.423 49.9905 126.969 50.3783 125.911C50.7661 124.854 52.7085 124.594 54.7168 125.33C56.7251 126.067 58.0388 127.521 57.651 128.578C57.2632 129.636 55.3207 129.896 53.3124 129.16Z" fill="#121A26"/>
<path d="M54.7001 134.812C54.7001 132.652 56.8523 131.814 59.738 131.991C61.5074 132.096 62.3579 132.999 62.3418 134.442C62.3418 135.816 61.2334 137.077 59.4721 137.263C57.7108 137.448 54.7001 136.815 54.7001 134.812Z" fill="#121A26"/>
<path d="M52.697 139.919C52.916 139.179 53.3768 138.533 54.0058 138.085C54.6349 137.637 55.3958 137.413 56.1672 137.448C58.001 137.448 59.8952 138.254 60.1693 139.661C60.4434 141.068 59.2866 143.071 57.4528 143.071C54.3696 143.071 52.044 142.837 52.697 139.919Z" fill="#121A26"/>
<path d="M51.0203 145.985C51.032 145.201 51.3544 144.454 51.9167 143.907C52.4789 143.361 53.235 143.06 54.0189 143.071C55.6714 143.071 57.4448 143.716 57.6866 144.977C57.9284 146.239 56.6427 147.895 55.0346 148.27C52.697 148.814 50.9881 147.597 51.0203 145.985Z" fill="#121A26"/>
<path d="M165.123 108.692L167.338 105.065C167.8 104.307 168.435 103.668 169.19 103.2C169.945 102.733 170.8 102.449 171.685 102.372L180.276 102.324C183.146 102.311 185.167 103.082 185.961 105.607L188.755 114.471C189.38 116.452 189.596 118.539 189.392 120.606C189.187 122.673 188.565 124.677 187.564 126.498L187.232 127.073C186.03 129.26 183.256 129.614 180.819 129.096L169.715 127.459C167.637 127.028 167.065 125.664 166.531 123.592L164.217 112.767C163.933 111.574 164.478 109.753 165.123 108.692Z" fill="#2C658C"/>
<path d="M178.021 114.04C179.273 117.62 181.171 123.77 182.349 127.317C182.424 127.539 182.44 127.777 182.396 128.007C182.353 128.237 182.251 128.453 182.101 128.632C181.95 128.812 181.756 128.95 181.537 129.034C181.318 129.117 181.081 129.143 180.849 129.108L170.16 127.326C169.537 127.193 168.966 126.885 168.513 126.437C168.06 125.989 167.746 125.421 167.607 124.8L165.182 113.943C165.108 113.616 165.11 113.277 165.187 112.952C165.264 112.626 165.415 112.323 165.628 112.064C165.84 111.806 166.109 111.599 166.413 111.46C166.718 111.322 167.05 111.254 167.385 111.263C169.916 111.329 172.481 111.521 174.722 111.605C175.454 111.63 176.16 111.877 176.749 112.311C177.338 112.746 177.781 113.349 178.021 114.04Z" fill="#294E6D"/>
<path d="M179.022 128.831C178.994 128.812 178.965 128.795 178.935 128.78C177.286 128.154 176.378 127.397 175.793 125.742C175.44 124.726 174.857 123.805 174.089 123.051C173.295 122.234 172.733 121.732 172.909 120.582C173.056 119.625 173.54 118.764 173.572 117.772C173.642 115.709 172.502 113.12 170.746 111.454L174.726 111.598C175.459 111.623 176.166 111.869 176.755 112.304C177.345 112.739 177.789 113.343 178.029 114.035C179.28 117.615 181.179 123.765 182.357 127.312C182.431 127.534 182.447 127.772 182.404 128.002C182.36 128.232 182.259 128.448 182.108 128.627C181.958 128.807 181.764 128.945 181.545 129.029C181.325 129.112 181.089 129.138 180.857 129.103L179.022 128.831Z" fill="#1F4060"/>
<path d="M185.937 105.528L189.112 117.642C189.327 118.319 189.402 119.033 189.332 119.74C189.262 120.447 189.049 121.132 188.707 121.754L187.029 127.464C186.872 127.747 186.634 127.977 186.346 128.126C186.058 128.274 185.733 128.333 185.411 128.297C185.089 128.26 184.785 128.129 184.538 127.92C184.29 127.712 184.11 127.434 184.02 127.123C182.829 123.019 180.935 117.956 179.696 114.774C178.953 112.837 178.639 110.222 179.705 108.422C180.445 107.206 181.345 106.094 182.381 105.118C183.852 103.989 185.424 103.91 185.937 105.528Z" fill="#3276A0"/>
<path d="M168.884 107.885C169.183 109.575 171.211 110.625 173.412 110.238C175.613 109.852 177.155 108.165 176.856 106.474C176.556 104.784 174.099 103.487 171.906 103.859C171.443 103.924 170.997 104.079 170.594 104.317C170.191 104.555 169.839 104.87 169.558 105.244C169.277 105.618 169.073 106.044 168.958 106.497C168.842 106.95 168.817 107.422 168.884 107.885Z" fill="#121A26"/>
<path d="M181.743 113.638C182.931 114.185 184.566 113.183 185.371 111.386C186.176 109.589 186.063 105.955 184.874 105.403C183.685 104.851 181.972 106.874 181.136 108.653C180.3 110.432 180.575 113.099 181.743 113.638Z" fill="#121A26"/>
<path d="M183.076 115.452C183.903 113.664 185.496 112.641 186.636 113.167C187.776 113.694 188.03 115.571 187.203 117.359C186.377 119.147 184.783 120.17 183.644 119.643C182.504 119.117 182.25 117.24 183.076 115.452Z" fill="#121A26"/>
<path d="M185.168 124.822C184.233 124.232 184.225 122.564 185.151 121.098C186.076 119.632 187.585 118.922 188.521 119.513C189.456 120.104 189.464 121.771 188.538 123.237C187.612 124.703 186.103 125.413 185.168 124.822Z" fill="#121A26"/>
<path d="M188.034 119.355C188.034 119.355 190.41 119.666 190.673 123.08C190.88 125.945 188.06 130.153 185.499 130.494C181.696 131.003 178.499 128.375 178.528 126.688C178.585 123.599 181.64 124.739 183.053 123.581C184.466 122.424 184.579 121.745 185.495 120.803C187.091 119.216 188.034 119.355 188.034 119.355Z" fill="#3276A0"/>
<path d="M183.053 123.582C184.464 122.428 184.579 121.745 185.495 120.803C187.099 119.202 188.042 119.342 188.042 119.342C188.042 119.342 189.705 119.566 190.407 121.638C190.352 121.652 190.301 121.66 190.25 121.677C188.756 122.16 187.257 123.635 186.311 124.88C185.788 125.522 185.392 126.256 185.144 127.046C184.829 128.26 185.073 129.587 185.976 130.369C185.825 130.419 185.669 130.454 185.511 130.473C181.708 130.982 178.511 128.354 178.54 126.667C178.585 123.599 181.64 124.739 183.053 123.582Z" fill="#2C5777"/>
<path d="M184.375 125.154C182.677 125.845 179.979 125.683 178.666 125.772C179.273 123.833 181.806 124.606 183.053 123.581C184.464 122.427 184.579 121.745 185.495 120.803C187.099 119.202 188.042 119.341 188.042 119.341C188.731 119.494 189.342 119.888 189.765 120.452C188.805 122.365 186.19 124.42 184.375 125.154Z" fill="#294E6D"/>
<path d="M185.435 120.875C185.449 120.851 185.459 120.833 185.473 120.809C185.76 120.523 186.068 120.259 186.395 120.019C186.084 120.315 185.766 120.601 185.435 120.875Z" fill="#2C658C"/>
<path d="M182.608 126.457C183.178 126.801 183.603 127.341 183.803 127.977C184.002 128.612 183.963 129.299 183.692 129.907C183.597 130.108 183.47 130.293 183.316 130.453C180.551 129.988 178.506 128.039 178.514 126.68C178.517 126.437 178.545 126.194 178.597 125.956C179.986 125.678 181.4 125.671 182.608 126.457Z" fill="#2C658C"/>
<path d="M186.73 112.748C186.73 112.748 191.072 114.901 190.068 118.598C189.565 120.352 188.47 121.876 186.969 122.913C185.468 123.949 183.654 124.432 181.836 124.28C177.22 124.012 175.87 121.547 176.265 120.161C176.9 117.916 180.063 117.741 181.44 117.373C182.816 117.004 183.05 116.534 184.566 114.714C186.082 112.895 186.73 112.748 186.73 112.748Z" fill="#3276A0"/>
<path d="M181.447 117.376C182.823 117.008 183.057 116.538 184.573 114.718C186.089 112.899 186.737 112.752 186.737 112.752C187.393 113.101 187.999 113.537 188.539 114.048C187.825 114.633 187.166 115.282 186.572 115.989C184.859 117.899 182.695 121.196 184.903 123.602L185.143 123.839C184.084 124.205 182.962 124.357 181.843 124.283C177.228 124.015 175.877 121.551 176.272 120.164C176.9 117.916 180.063 117.741 181.447 117.376Z" fill="#2C5777"/>
<path d="M181.447 117.376C182.823 117.008 182.313 116.038 183.828 114.219C185.344 112.399 186.737 112.752 186.737 112.752C187.393 113.101 187.999 113.537 188.539 114.048C187.321 114.192 184.761 118.27 182.348 119.056C180.295 119.387 176.226 118.374 176.218 120.445C176.226 120.349 176.244 120.256 176.272 120.164C176.9 117.916 180.063 117.741 181.447 117.376Z" fill="#294E6D"/>
<path d="M182.368 116.74C182.709 116.206 182.844 115.391 183.825 114.217C185.341 112.397 186.733 112.75 186.733 112.75C186.733 112.75 186.894 112.843 187.159 112.996C186.12 114.828 184.397 116.174 182.368 116.74Z" fill="#1F4060"/>
<path d="M180.566 119.814C182.835 120.719 183.572 122.425 182.171 124.287L181.84 124.281C177.224 124.013 175.873 121.549 176.269 120.162C176.302 120.046 176.345 119.932 176.396 119.822C177.634 119.145 179.18 119.256 180.566 119.814Z" fill="#2C658C"/>
<path d="M65.2798 124.156C64.8204 127.094 60.778 126.349 59.5205 127.227C58.263 128.106 57.4206 128.892 55.74 128.892C54.0593 128.892 51.1333 127.582 51.1333 125.732C51.1333 123.882 52.2497 122.584 56.4453 121.367C60.2983 120.251 65.7151 121.367 65.2798 124.156Z" fill="#3276A0"/>
<path d="M54.7001 121.939C54.1318 125.676 59.6091 126.071 62.1603 125.792C63.217 125.715 64.2339 125.357 65.1066 124.757C64.2038 126.973 60.6732 126.409 59.5205 127.219C58.2268 128.126 57.4206 128.884 55.74 128.884C54.0593 128.884 51.1333 127.574 51.1333 125.724C51.1333 124.176 51.9353 123.003 54.7001 121.939Z" fill="#2C658C"/>
<path d="M52.9267 144.989C52.2576 146.4 52.5519 148.487 55.091 149.294C59.2101 150.603 62.8858 149.04 62.2127 146.472C61.7734 144.784 60.8988 144.961 58.5853 144.264C56.151 143.534 53.894 142.942 52.9267 144.989Z" fill="#3276A0"/>
<path d="M52.1206 145.187C53.3056 142.946 55.9616 143.377 58.6055 144.264C59.6494 144.614 60.4111 144.719 60.9633 144.937C60.8383 145.541 58.4241 145.199 57.0578 145.424C54.7162 145.828 54.9016 148.975 56.1631 149.572C55.8165 149.499 55.4618 149.406 55.1031 149.294C52.5478 148.488 51.1251 147.049 52.1206 145.187Z" fill="#2C5777"/>
<path d="M52.693 144.397C53.7911 145.008 54.9684 145.465 56.1914 145.755C54.7808 146.674 55.0669 149.06 56.147 149.572C55.8004 149.499 55.4458 149.406 55.0871 149.294C52.548 148.487 51.1252 147.049 52.1045 145.187C52.2595 144.895 52.4579 144.629 52.693 144.397Z" fill="#2C658C"/>
<path d="M54.5389 138.69C52.9026 139.697 52.0965 142.97 56.4412 144.356C59.7179 145.4 64.3649 144.51 65.4733 142.494C66.5816 140.479 65.7232 138.714 61.9467 138.464C58.1702 138.214 56.2599 137.634 54.5389 138.69Z" fill="#3276A0"/>
<path d="M54.5389 138.69C56.2518 137.634 58.1662 138.21 61.9467 138.46C62.9766 138.476 63.987 138.744 64.8889 139.242C64.8203 139.274 62.6722 139.75 59.2142 139.621C54.6921 139.451 55.079 143.99 57.199 144.554C56.941 144.497 56.6911 144.433 56.4493 144.356C52.1206 142.97 52.9267 139.697 54.5389 138.69Z" fill="#2C5777"/>
<path d="M54.4502 138.754C55.3364 139.265 56.2846 139.659 57.2715 139.927C54.8895 140.931 55.4538 144.09 57.1949 144.554C56.937 144.497 56.6871 144.433 56.4452 144.356C52.1932 142.998 52.8824 139.83 54.4502 138.754Z" fill="#2C658C"/>
<path d="M55.6755 134.631C55.2725 137.154 57.7673 139.064 62.5272 138.69C67.6941 138.287 69.6247 136.55 68.871 134.031C68.1173 131.512 62.5594 132.418 60.2701 132.418C57.9809 132.418 55.9899 132.66 55.6755 134.631Z" fill="#3276A0"/>
<path d="M55.6755 134.631C55.9899 132.66 57.9849 132.43 60.2741 132.43H60.6771C60.145 132.752 59.7439 133.252 59.5446 133.841C59.356 134.426 59.3705 135.057 59.5855 135.633C59.8006 136.209 60.2037 136.695 60.7296 137.013C62.5312 138.065 65.2678 137.529 67.1338 136.876C67.8317 136.625 68.4592 136.21 68.9636 135.667C68.5606 137.303 66.5132 138.408 62.5433 138.71C57.7632 139.052 55.2724 137.154 55.6755 134.631Z" fill="#2C658C"/>
<path d="M63.2002 122.165C63.9015 122.516 64.373 123.334 63.2002 123.624C62.0273 123.914 59.3592 124.43 58.8998 122.6C58.6096 121.46 60.7819 120.956 63.2002 122.165Z" fill="#468CAF"/>
<path d="M53.5837 123.181C54.1036 123.322 53.3379 124.196 53.8538 125.055C54.4543 126.054 55.1475 126.018 55.0629 126.667C54.9944 127.405 52.2416 127.219 52.0925 125.389C51.9998 123.955 53.0879 123.048 53.5837 123.181Z" fill="#2C5777"/>
<path d="M67.283 133.946C67.9158 134.579 66.9969 135.836 63.6557 135.985C60.9674 136.106 61.2011 133.89 63.0793 133.644C63.8088 133.551 66.6301 133.313 67.283 133.946Z" fill="#468CAF"/>
<path d="M63.5146 141.104C64.0305 141.757 63.8773 143.055 61.1527 143.208C58.9602 143.333 59.1376 141.043 60.6853 140.789C61.2697 140.693 63.0027 140.447 63.5146 141.104Z" fill="#468CAF"/>
<path d="M60.7376 146.573C61.1406 147.093 61.2051 148.133 59.0247 148.258C57.2714 148.354 57.4125 146.525 58.6499 146.323C59.1174 146.247 60.3265 146.049 60.7376 146.573Z" fill="#468CAF"/>
<path d="M186.509 118.74C186.766 118.221 187.201 117.812 187.734 117.586C187.913 117.542 188.101 117.542 188.28 117.588C188.459 117.634 188.624 117.723 188.76 117.847C188.896 117.972 188.999 118.128 189.06 118.303C189.122 118.477 189.139 118.663 189.11 118.846C188.993 119.443 188.721 119.998 188.32 120.456C188.073 120.809 187.73 121.084 187.332 121.249C187.169 121.301 186.997 121.314 186.829 121.289C186.66 121.263 186.5 121.199 186.36 121.102C186.22 121.004 186.105 120.876 186.022 120.727C185.94 120.578 185.893 120.412 185.885 120.241C185.848 119.708 186.207 119.175 186.509 118.74Z" fill="#468CAF"/>
<rect width="8.46379" height="49.5736" rx="4" transform="matrix(-1 0 0 1 183.579 87.3074)" fill="#AD650E"/>
<rect width="26.1974" height="17.7337" rx="4" transform="matrix(-1 0 0 1 192.446 81.2617)" fill="#AD650E"/>
<rect width="26.1974" height="8.46379" rx="4" transform="matrix(-1 0 0 1 192.446 90.5316)" fill="#975C17"/>
<rect width="2.41823" height="20.958" rx="1.20911" transform="matrix(-1 0 0 1 199.297 79.6495)" fill="#FFE6BF"/>
<rect width="9.6729" height="24.9883" rx="4" transform="matrix(-1 0 0 1 198.088 77.6344)" fill="#FFB540"/>
<rect width="2.41823" height="20.958" rx="1.20911" transform="matrix(-1 0 0 1 162.621 79.6495)" fill="#FFE6BF"/>
<rect width="9.26987" height="24.9883" rx="4" transform="matrix(-1 0 0 1 170.682 77.6344)" fill="#FFB540"/>
<path d="M185.188 105.346C185.188 105.346 189.53 107.499 188.526 111.197C188.023 112.95 186.928 114.475 185.427 115.511C183.926 116.547 182.112 117.03 180.294 116.878C175.678 116.61 174.328 114.145 174.723 112.759C175.358 110.515 178.521 110.34 179.898 109.971C181.274 109.602 181.508 109.132 183.024 107.313C184.54 105.493 185.188 105.346 185.188 105.346Z" fill="#3276A0"/>
<path d="M179.905 109.975C181.281 109.606 181.515 109.136 183.031 107.317C184.547 105.497 185.195 105.35 185.195 105.35C185.851 105.699 186.457 106.135 186.997 106.646C186.283 107.231 185.624 107.881 185.03 108.587C183.317 110.497 181.153 113.795 183.361 116.2L183.601 116.437C182.542 116.804 181.42 116.955 180.301 116.882C175.685 116.614 174.335 114.149 174.73 112.763C175.358 110.514 178.521 110.339 179.905 109.975Z" fill="#2C5777"/>
<path d="M179.905 109.975C181.281 109.606 180.771 108.636 182.286 106.817C183.802 104.997 185.195 105.35 185.195 105.35C185.851 105.699 186.457 106.135 186.997 106.646C185.778 106.79 183.219 110.869 180.806 111.654C178.753 111.986 174.684 110.972 174.676 113.043C174.684 112.948 174.702 112.854 174.73 112.763C175.358 110.514 178.521 110.339 179.905 109.975Z" fill="#294E6D"/>
<path d="M180.826 109.338C181.167 108.805 181.302 107.989 182.283 106.815C183.799 104.995 185.191 105.348 185.191 105.348C185.191 105.348 185.352 105.441 185.617 105.594C184.578 107.426 182.855 108.772 180.826 109.338Z" fill="#1F4060"/>
<path d="M179.024 112.412C181.293 113.317 182.03 115.023 180.629 116.885L180.297 116.88C175.682 116.612 174.331 114.147 174.727 112.761C174.76 112.644 174.802 112.53 174.854 112.42C176.092 111.743 177.638 111.854 179.024 112.412Z" fill="#2C658C"/>
<path d="M184.967 111.339C185.224 110.82 185.659 110.41 186.192 110.184C186.371 110.14 186.559 110.141 186.738 110.186C186.917 110.232 187.082 110.321 187.218 110.445C187.354 110.57 187.457 110.727 187.518 110.901C187.58 111.075 187.597 111.262 187.568 111.444C187.451 112.041 187.179 112.597 186.778 113.054C186.531 113.407 186.188 113.683 185.79 113.847C185.627 113.899 185.455 113.912 185.287 113.887C185.118 113.861 184.958 113.797 184.818 113.7C184.678 113.602 184.563 113.474 184.48 113.325C184.398 113.176 184.351 113.01 184.343 112.84C184.306 112.306 184.665 111.774 184.967 111.339Z" fill="#468CAF"/>
<path d="M176.385 103.066C178.584 103.763 183.071 105.995 183.571 111.738C184.071 117.482 181.069 119.755 178.355 117.951C176.452 116.685 178.554 112.15 171.603 110.236C169.019 109.521 168.789 105.768 171.066 104.081C172.53 102.995 174.953 102.612 176.385 103.066Z" fill="#3276A0"/>
<path d="M171.066 104.081C171.487 103.776 171.949 103.532 172.438 103.356C172.36 103.477 172.288 103.601 172.223 103.73C170.182 107.531 175.613 109.643 178.484 109.635C179.375 109.641 180.258 109.465 181.078 109.117C181.649 108.922 182.17 108.606 182.605 108.188C183.147 109.302 183.476 110.508 183.578 111.742C184.102 117.485 181.076 119.759 178.362 117.955C176.459 116.689 178.561 112.154 171.61 110.24C169.019 109.521 168.791 105.765 171.066 104.081Z" fill="#2C658C"/>
<path d="M170.175 107.881C171.677 109.237 173.875 109.017 175.473 110.167C177.464 111.596 177.283 113.4 177.462 115.588C177.499 116.137 177.592 116.68 177.741 117.21C176.869 115.422 177.56 111.88 171.599 110.234C170.146 109.833 169.439 108.47 169.502 107.055C169.684 107.362 169.911 107.641 170.175 107.881Z" fill="#2C5777"/>
<path d="M176.769 104.456C177.595 104.481 178.385 104.797 179 105.348C179.18 105.517 179.314 105.729 179.387 105.965C179.461 106.201 179.472 106.452 179.419 106.693C179.373 106.909 179.266 107.108 179.11 107.266C178.955 107.423 178.758 107.533 178.543 107.583C178.101 107.776 177.609 107.819 177.141 107.705C176.381 107.522 175.581 107.111 175.342 106.308C175.269 106.088 175.251 105.855 175.29 105.627C175.329 105.4 175.423 105.185 175.564 105.002C175.704 104.82 175.888 104.674 176.098 104.579C176.308 104.484 176.539 104.441 176.769 104.456Z" fill="#468CAF"/>
<path d="M187.341 125.708C187.635 125.263 188.149 124.55 188.745 124.573C188.972 124.572 189.19 124.659 189.355 124.815C189.52 124.97 189.618 125.184 189.63 125.41C189.58 125.962 189.364 126.487 189.012 126.915C188.898 127.063 188.771 127.199 188.632 127.324C188.461 127.535 188.23 127.69 187.97 127.77C187.948 127.78 187.928 127.791 187.908 127.804C187.73 127.856 187.539 127.847 187.366 127.779C187.193 127.711 187.048 127.588 186.952 127.429C186.868 127.264 186.829 127.08 186.838 126.895C186.847 126.71 186.904 126.53 187.003 126.374C187.089 126.139 187.202 125.916 187.341 125.708Z" fill="#468CAF"/>
<path d="M180.491 112.52C180.61 112.408 180.753 112.323 180.909 112.273C181.065 112.224 181.23 112.209 181.393 112.231C181.574 112.222 181.755 112.257 181.92 112.333C182.086 112.409 182.23 112.523 182.342 112.667C182.702 113.14 182.764 113.99 182.584 114.738C182.574 114.835 182.558 114.928 182.542 115.012C182.458 115.428 182.24 115.805 181.921 116.087C181.726 116.243 181.48 116.323 181.229 116.312C180.979 116.301 180.741 116.2 180.56 116.027C179.754 115.561 179.822 114.33 179.979 113.551C180.039 113.162 180.218 112.802 180.491 112.52Z" fill="#3276A0"/>
</g>
<defs>
<clipPath id="clip0">
<rect width="288" height="155" rx="16" fill="white"/>
</clipPath>
</defs>
</svg>
