<svg width="472" height="206" viewBox="0 0 472 206" fill="none" xmlns="http://www.w3.org/2000/svg">
<g clip-path="url(#clip0)">
<rect width="472" height="206" rx="16" fill="#404040"/>
<path d="M198.5 212.5L284 146L309 167L392.5 90.5L414.5 112.5L494 33" stroke="#43E0BB" stroke-width="14"/>
<path d="M42.2349 268.468C42.2555 263.552 43.2877 258.692 45.2672 254.192C45.2672 254.192 45.3279 254.192 45.334 254.192C45.5486 254.455 45.8531 254.63 46.189 254.683C46.3341 254.767 46.4863 254.838 46.6439 254.895C46.6765 254.909 46.7115 254.916 46.7469 254.916C46.7823 254.916 46.8175 254.909 46.8501 254.895C47.6143 255.253 48.536 255.502 49.191 255.198C49.3184 255.144 47.9781 254.058 47.8993 254.016C47.4677 253.82 47.0606 253.573 46.6864 253.282C46.274 252.961 45.9949 252.633 46.1223 252.36C47.6296 249.317 49.2958 246.356 51.1136 243.488L52.3689 241.42C53.148 242.068 54.0976 242.479 55.104 242.602C55.1252 242.606 55.147 242.605 55.1678 242.6C55.1887 242.594 55.2082 242.585 55.2253 242.572C55.3441 242.566 55.4621 242.548 55.5771 242.517C55.6091 242.509 55.6379 242.49 55.6598 242.465C55.6817 242.44 55.6957 242.41 55.7003 242.377C55.7048 242.344 55.6997 242.31 55.6853 242.28C55.6709 242.25 55.6481 242.225 55.6196 242.208C55.0434 241.838 55.0919 241.656 54.5218 241.286C53.5272 240.643 53.1937 240.164 53.3089 239.819C55.5857 236.072 57.4174 232.073 58.7671 227.902C58.9971 228.1 59.2686 228.245 59.5616 228.326C60.0286 228.611 60.5319 228.751 60.8897 228.459C61.2475 228.168 60.532 227.635 60.35 227.526C59.507 227.034 59.1916 226.549 59.2341 226.313C60.4674 221.777 61.1615 217.111 61.3021 212.412C61.4982 212.581 61.7296 212.704 61.9793 212.773C62.229 212.841 62.4907 212.852 62.7455 212.807C62.8607 212.807 62.139 211.806 62.0723 211.715C61.8471 211.533 61.6685 211.3 61.5514 211.035C61.4343 210.771 61.3822 210.482 61.3992 210.193C61.4091 202.524 60.682 194.871 59.228 187.341L96.4528 180.622C99.1576 195.607 99.6366 208.064 98.7876 218.513C98.7512 218.774 98.2236 219.241 97.3018 219.296C96.5862 219.338 96.6953 219.15 96.0889 219.617C96.0403 219.657 96.0023 219.709 95.978 219.767C95.9537 219.825 95.9438 219.888 95.9494 219.951C95.887 220.001 95.8358 220.064 95.7994 220.136C95.763 220.207 95.7423 220.286 95.7383 220.366C95.7342 220.446 95.7471 220.526 95.7762 220.601C95.8052 220.676 95.8498 220.743 95.9069 220.8C96.5861 221.364 97.6838 221.2 98.454 220.885C98.454 220.885 98.5571 220.818 98.5935 220.8C98.171 224.815 97.5028 228.801 96.5923 232.735C96.4589 233.281 95.6825 233.76 94.5484 233.851C93.8773 233.824 93.212 233.984 92.626 234.312C92.5775 234.312 92.529 234.312 92.4804 234.348C92.3567 234.382 92.2493 234.459 92.1784 234.566C92.1074 234.672 92.0778 234.801 92.0949 234.928C92.112 235.055 92.1746 235.171 92.2712 235.256C92.3678 235.34 92.4918 235.386 92.6199 235.385C93.5377 235.644 94.5202 235.538 95.3611 235.088C95.5526 235.033 95.7376 234.958 95.913 234.864C95.9736 234.864 96.0464 234.864 96.101 234.864C95.1387 238.619 93.923 242.305 92.4622 245.895C92.2803 246.314 91.6253 246.666 90.3396 246.738C89.5532 246.71 88.7841 246.973 88.1806 247.478C88.104 247.557 88.0491 247.654 88.0212 247.761C87.9934 247.867 87.9936 247.978 88.0217 248.085C88.0498 248.191 88.1049 248.288 88.1816 248.367C88.2583 248.445 88.354 248.503 88.4595 248.533C89.0016 248.722 89.5913 248.722 90.1334 248.533C90.3592 248.476 90.5819 248.408 90.8005 248.327C91.0766 248.216 91.3459 248.088 91.607 247.945C90.2503 251.054 88.7342 254.09 87.0646 257.042C86.8038 257.497 84.9057 257.952 83.6928 258.043C83.3289 258.043 82.1644 259.371 82.5161 259.529C82.5889 259.559 82.6678 259.577 82.7467 259.601C83.5229 260.111 84.6994 259.862 85.7001 259.413C84.8995 260.772 84.1173 262.058 83.3835 263.258C82.0614 265.423 80.254 268.389 79.9387 269.438C80.011 269.145 80.0458 268.843 80.0419 268.541L42.2349 268.468Z" fill="#2C5777"/>
<path d="M97.3018 219.296C96.5862 219.338 96.6954 219.15 96.0889 219.617C96.0403 219.657 96.0023 219.709 95.978 219.767C95.9537 219.825 95.9439 219.888 95.9494 219.951C95.8395 220.049 95.769 220.184 95.7512 220.33C95.7333 220.476 95.7692 220.624 95.8523 220.745C90.6246 221.352 85.13 220.715 80.5573 223.778C75.5479 227.156 72.3822 232.875 69.3741 237.975C63.9948 247.072 59.1311 257.734 57.1843 268.45H46.8744C47.9538 262.966 49.7353 257.644 52.1749 252.615C54.6614 247.636 57.53 242.857 60.1863 237.969C63.6371 231.619 67.2454 222.953 64.1949 216.415C63.9723 215.846 63.6984 215.298 63.3763 214.778C63.0365 214.077 62.6303 213.411 62.1634 212.789C62.3504 212.816 62.5403 212.816 62.7273 212.789C62.8426 212.789 62.1208 211.788 62.0541 211.697C61.8289 211.515 61.6504 211.282 61.5333 211.017C61.4163 210.753 61.364 210.464 61.381 210.175C61.3909 202.506 60.6638 194.853 59.2098 187.323L96.4346 180.604C99.1394 195.589 99.6185 208.046 98.7694 218.495C98.7512 218.774 98.2236 219.241 97.3018 219.296Z" fill="#1F4060"/>
<path d="M153.933 183.606C163.637 192.909 170.011 202.285 174.129 211.291C174.777 212.698 173.649 213.492 173.104 213.771C172.97 213.898 172.57 214.517 172.655 214.626C172.6 214.881 172.819 215.16 173.085 215.026C173.112 215.052 173.144 215.071 173.178 215.084C173.212 215.096 173.249 215.101 173.286 215.099C173.325 215.163 173.379 215.217 173.443 215.257C173.477 215.32 173.524 215.374 173.582 215.416C173.64 215.458 173.707 215.487 173.777 215.499C173.888 215.573 174.021 215.605 174.153 215.59C174.722 215.443 175.215 215.088 175.536 214.596C177.075 218.446 178.292 222.418 179.174 226.47C179.228 226.852 179.16 227.24 178.979 227.58C178.798 227.92 178.514 228.194 178.168 228.363C177.306 228.908 177.852 228.854 177.246 229.672C177.185 229.751 177.288 229.86 177.373 229.836C177.849 229.703 178.29 229.467 178.665 229.145C178.724 229.23 178.813 229.29 178.914 229.315C178.931 229.338 178.951 229.358 178.974 229.375C178.986 229.421 179.01 229.462 179.042 229.496C179.074 229.53 179.114 229.556 179.158 229.571C179.202 229.586 179.25 229.59 179.296 229.582C179.342 229.574 179.386 229.555 179.423 229.527C179.533 229.458 179.63 229.37 179.708 229.266C180.509 233.801 180.915 238.397 180.921 243.003C180.88 243.255 180.784 243.495 180.638 243.705C180.492 243.915 180.3 244.09 180.078 244.215C179.927 244.317 179.784 244.429 179.647 244.549V244.585L179.599 244.622C179.509 244.709 179.414 244.79 179.314 244.864C179.239 244.927 179.191 245.016 179.179 245.112C179.166 245.209 179.191 245.307 179.247 245.386C179.244 245.422 179.244 245.459 179.247 245.495C179.259 245.574 179.286 245.65 179.327 245.718C179.369 245.786 179.423 245.846 179.487 245.893C179.551 245.941 179.624 245.975 179.702 245.994C179.779 246.013 179.86 246.017 179.939 246.005C180.313 245.916 180.654 245.723 180.921 245.447C180.83 249.019 180.539 252.336 180.163 255.35C179.975 256.842 177.701 257.6 176.991 257.655C176.628 257.649 176.277 257.786 176.015 258.037C175.906 258.082 175.808 258.149 175.727 258.235C175.647 258.32 175.585 258.422 175.546 258.533C175.507 258.644 175.492 258.762 175.501 258.879C175.511 258.996 175.545 259.11 175.602 259.213C175.978 259.917 176.936 259.856 177.597 259.735C178.401 259.484 179.136 259.05 179.744 258.467C179.465 260.329 179.138 262.331 178.871 263.883C178.538 265.848 178.077 268.547 178.052 269.402H140.197C140.299 265.748 140.705 262.109 141.41 258.522C141.555 258.637 141.683 258.849 141.816 258.916C142.12 259.056 142.45 259.128 142.783 259.128C143.117 259.128 143.447 259.056 143.751 258.916C144.631 258.928 145.501 258.72 146.28 258.31C146.287 258.306 146.294 258.299 146.298 258.292C146.303 258.284 146.305 258.276 146.305 258.267C146.305 258.259 146.303 258.25 146.298 258.243C146.294 258.235 146.287 258.229 146.28 258.225C145.2 257.964 144.691 258.116 143.605 257.734C142.52 257.351 141.786 256.521 141.84 255.993C142.277 253.391 142.69 250.729 142.932 247.957C143.126 248.068 143.329 248.164 143.539 248.242L143.666 248.297C143.686 248.369 143.722 248.436 143.77 248.493C143.818 248.551 143.878 248.598 143.945 248.631C144.108 248.719 144.291 248.762 144.477 248.757C144.662 248.752 144.842 248.697 145 248.6C145.103 248.563 145.199 248.51 145.285 248.443C145.371 248.356 145.426 248.244 145.441 248.123C145.456 248.003 145.431 247.88 145.37 247.775C145.312 247.67 145.217 247.59 145.103 247.551C144.859 247.374 144.58 247.25 144.284 247.187C143.211 246.926 143.072 246.174 143.072 245.974C143.292 242.505 143.099 239.021 142.495 235.598C142.641 235.646 142.811 235.828 142.95 235.84C143.018 235.848 143.087 235.841 143.151 235.82C143.216 235.799 143.276 235.765 143.326 235.719H143.429C143.528 235.71 143.619 235.666 143.688 235.595C143.756 235.523 143.795 235.429 143.799 235.331C143.821 235.318 143.84 235.3 143.855 235.28C143.87 235.259 143.88 235.235 143.884 235.21C144.545 235.304 145.219 235.172 145.795 234.834C145.867 234.791 145.419 234.542 145.419 234.627C145.419 234.712 144.885 234.342 144.412 234.16C143.939 233.978 142.016 233.675 141.804 232.638C141.143 230.243 139.597 226.573 138.741 224.457C138.996 224.421 139.408 225.063 139.396 224.778C139.389 224.671 139.367 224.564 139.33 224.463C139.358 224.379 139.354 224.288 139.318 224.207C139.282 224.126 139.217 224.061 139.136 224.026C139.582 224.02 140.024 223.934 140.439 223.772C140.454 223.772 140.468 223.766 140.478 223.756C140.488 223.745 140.494 223.731 140.494 223.717C140.494 223.703 140.488 223.689 140.478 223.678C140.468 223.668 140.454 223.662 140.439 223.662C139.542 223.329 139.651 223.104 138.687 223.056C138.349 223.012 138.026 222.892 137.74 222.706C137.455 222.521 137.215 222.273 137.037 221.983C134.412 217.908 131.298 214.171 127.764 210.854L153.933 183.606Z" fill="#2C5777"/>
<path d="M153.933 183.606C163.637 192.909 170.011 202.285 174.129 211.291C174.777 212.698 173.649 213.492 173.104 213.771C172.97 213.898 172.57 214.517 172.655 214.626C172.6 214.881 172.819 215.16 173.085 215.026C173.112 215.052 173.144 215.071 173.178 215.084C173.212 215.096 173.249 215.101 173.286 215.099C173.325 215.163 173.379 215.217 173.443 215.257C173.477 215.32 173.524 215.374 173.582 215.416C173.64 215.458 173.707 215.487 173.777 215.499C173.888 215.573 174.021 215.605 174.153 215.59C174.674 215.512 175.184 214.644 175.536 214.159C176.112 215.59 176.627 217.44 177.094 218.847C176.642 220.029 175.964 221.113 175.099 222.037C172.722 224.421 168.877 224.063 166.366 224.803C160.962 226.392 157.596 231.965 157.148 237.508C156.747 242.523 158.361 247.563 158.282 252.609C158.287 256.495 157.804 260.366 156.844 264.132C156.402 265.763 156.062 267.692 155.431 269.426H143.836C147.619 262.086 149.575 253.941 149.536 245.683C149.488 241.183 149.106 233.821 145.97 230.412C145.018 229.199 141.41 228.363 140.312 228.363C139.53 226.458 138.796 224.839 138.687 224.354C139.039 224.257 139.396 225.112 139.384 224.827C139.377 224.719 139.355 224.613 139.318 224.511C139.346 224.428 139.342 224.336 139.306 224.255C139.27 224.174 139.205 224.11 139.123 224.075C139.57 224.069 140.012 223.983 140.427 223.82C140.442 223.82 140.456 223.814 140.466 223.804C140.476 223.794 140.482 223.78 140.482 223.766C140.482 223.751 140.476 223.737 140.466 223.727C140.456 223.717 140.442 223.711 140.427 223.711C139.53 223.377 139.639 223.153 138.675 223.105C138.337 223.06 138.014 222.941 137.728 222.755C137.443 222.569 137.202 222.322 137.025 222.031C134.4 217.957 131.286 214.22 127.752 210.902L153.933 183.606Z" fill="#1F4060"/>
<path d="M170.963 112.583C174.028 111.067 177.569 110.831 180.808 111.926C184.047 113.021 186.719 115.358 188.235 118.423C190.045 121.458 192.222 124.259 194.718 126.762C194.718 126.798 194.33 127.301 194.336 127.32C194.439 127.866 194.942 127.241 194.845 127.872C194.785 128.223 194.785 128.533 195.191 128.375C195.468 128.267 195.769 128.236 196.062 128.286C196.354 128.336 196.628 128.466 196.853 128.66C198.764 130.305 200.79 131.811 202.917 133.166C202.917 133.166 202.917 133.451 202.917 133.475C203.281 133.791 203.063 133.548 203.154 134.033C203.202 134.324 203.063 134.737 203.281 134.64C203.653 134.48 204.054 134.403 204.458 134.413C204.863 134.424 205.26 134.522 205.622 134.7C207.952 135.801 210.337 136.783 212.766 137.642C212.991 137.757 212.584 138.09 212.766 138.194C213.063 138.357 212.882 138.054 213.148 138.26L213.409 138.648C213.47 138.836 213.555 138.964 213.797 138.879L213.9 138.843C214.622 138.611 215.395 138.595 216.126 138.794L217.097 139.037C218.34 139.34 220.887 139.613 222.082 139.776C222.47 139.934 221.615 139.91 222.015 140.007C222.3 140.074 222.585 140.183 222.876 140.274C222.961 140.321 223.053 140.354 223.149 140.371C223.282 140.468 223.373 140.619 223.543 140.583C223.983 140.218 224.543 140.032 225.114 140.061C227.892 140.125 230.671 139.922 233.41 139.455C233.52 139.455 234.381 140.365 234.478 140.213C234.865 139.629 235.398 139.157 236.024 138.843C237.916 138.297 242.283 137.09 242.283 137.09C242.283 137.09 250.319 134.573 254.485 146.987C259.434 161.706 249.027 165.181 249.027 165.181C247.335 165.893 245.601 166.5 243.835 167.001C242.731 167.325 241.547 167.241 240.5 166.764L240.421 166.722C240.421 166.722 240.379 166.813 240.36 166.831C240.13 167.063 239.916 167.31 239.718 167.571C239.469 167.831 240.191 167.571 239.869 167.74C239.869 167.74 239.748 168.038 239.742 168.038C235.048 168.999 230.274 169.515 225.484 169.578C224.992 169.579 224.506 169.478 224.055 169.281C223.604 169.085 223.199 168.798 222.864 168.438L222.828 168.402C222.221 169.008 222.573 169.42 221.76 169.487C217.936 169.201 214.138 168.638 210.395 167.801C209.564 167.601 208.752 167.383 207.969 167.158C207.504 167.029 207.073 166.798 206.706 166.484C206.339 166.17 206.046 165.779 205.847 165.339C205.491 165.63 205.109 165.888 204.707 166.109C204.393 166.072 204.086 165.997 203.791 165.885C199.413 164.404 195.185 162.511 191.164 160.232C190.822 160.054 190.521 159.807 190.28 159.507C190.039 159.206 189.863 158.858 189.763 158.486C189.157 158.486 188.854 158.71 188.29 158.486C187.822 158.29 187.388 158.022 187.004 157.691C171.442 147.382 164.807 134.33 164.431 133.56C161.296 127.174 164.583 115.742 170.963 112.583Z" fill="#2C5777"/>
<path d="M220.25 147.624C211.602 147.624 206.696 145.271 202.741 142.572C199.576 140.413 197.459 138.187 196.768 136.38C195.385 132.741 196.271 130.922 199.4 130.698C200.528 131.547 201.735 132.396 202.948 133.16C202.948 133.16 202.948 133.445 202.948 133.469C203.312 133.785 203.093 133.542 203.184 134.027C203.233 134.318 203.093 134.731 203.312 134.634C203.683 134.474 204.085 134.397 204.489 134.407C204.893 134.417 205.29 134.515 205.652 134.694C207.983 135.795 210.367 136.777 212.797 137.636C213.021 137.751 212.615 138.084 212.797 138.187C213.094 138.351 212.912 138.048 213.179 138.254L213.44 138.642C213.5 138.83 213.585 138.958 213.828 138.873L213.931 138.836C214.652 138.605 215.425 138.588 216.156 138.788L217.127 139.03C218.37 139.334 220.917 139.607 222.112 139.77C222.5 139.928 221.645 139.904 222.045 140.001C222.33 140.068 222.615 140.177 222.906 140.268C222.991 140.315 223.084 140.348 223.179 140.365C223.313 140.462 223.404 140.613 223.574 140.577C224.012 140.211 224.574 140.025 225.144 140.055C226.527 140.092 228.061 140.055 229.511 139.946C230.172 141.693 228.577 148.158 220.25 147.624Z" fill="#3276A0"/>
<path d="M246.401 139.564C245.878 138.968 245.264 138.458 244.581 138.054C243.934 137.678 243.226 137.418 242.489 137.284L242.453 137.078C243.253 136.877 247.875 136.016 251.689 141.25C251.204 141.457 250.749 141.728 250.337 142.057C249.894 141.387 249.314 140.818 248.636 140.389C247.958 139.959 247.196 139.678 246.401 139.564Z" fill="#3276A0"/>
<path d="M170.963 112.583C174.028 111.067 177.569 110.831 180.808 111.926C184.047 113.021 186.719 115.358 188.235 118.423C190.022 121.435 192.171 124.217 194.633 126.707C191.479 130.522 189.26 137.296 195.397 145.01C199.218 149.807 206.95 154.107 212.56 155.745C216.266 156.818 219.613 156.563 223.222 156.563C237.625 156.563 234.296 151.639 235.266 144.804C235.476 143.003 236.021 141.256 236.873 139.655C237.716 137.229 238.565 137.163 242.101 138.946C242.371 139.098 242.583 139.335 242.706 139.62C242.829 139.904 242.855 140.221 242.78 140.522C242.174 142.305 240.779 143.627 240.118 145.483C239.578 147.012 239.16 148.261 239.511 149.898L239.881 150.08C240.02 150.002 240.175 149.956 240.335 149.949C240.494 149.941 240.653 149.971 240.799 150.036C240.945 150.101 241.073 150.199 241.174 150.322C241.275 150.446 241.345 150.592 241.379 150.747L241.591 151.154C242.141 151.887 242.533 152.725 242.744 153.616C242.908 154.119 243.029 154.635 243.174 155.138C247.389 153.647 251.416 151.673 255.176 149.255C255.635 150.995 255.863 152.787 255.856 154.586C255.239 155.421 254.8 156.372 254.564 157.382C254.497 157.485 254.449 157.57 254.418 157.625C253.963 158.067 253.545 158.559 253.054 158.971C253.054 158.916 251.616 159.881 251.404 160.008C251.192 160.135 250.834 160.33 250.543 160.487C250.846 161.051 251.113 161.633 251.41 162.119C251.489 162.249 251.539 162.396 251.556 162.548C251.573 162.699 251.557 162.853 251.509 162.998C251.461 163.143 251.383 163.276 251.279 163.388C251.175 163.5 251.048 163.588 250.907 163.647C250.598 165.236 246.662 166.145 246.662 166.145C246.536 166.075 246.416 165.994 246.304 165.903C245.432 165.207 244.401 164.738 243.304 164.536C242.207 164.334 241.077 164.405 240.015 164.745H239.936C230.627 167.619 219.88 167.213 210.462 164.829C209.249 164.502 207.993 164.15 206.774 163.786C197.779 161.032 189.355 156.674 181.909 150.923C174.705 145.271 168.379 137.781 163.394 129.958C162.497 123.547 165.668 115.184 170.963 112.583Z" fill="#1F4060"/>
<path d="M192.656 127.016C193.087 126.841 194.476 126.465 194.833 126.883C195.114 127.327 195.24 127.852 195.191 128.375C189.733 130.492 175.657 137.381 176.997 151.572L174.772 151.784C173.359 136.787 186.288 129.661 192.656 127.016Z" fill="#121A26"/>
<path d="M189.806 158.48C189.327 158.637 188.811 158.637 188.332 158.48C187.865 158.304 187.653 157.109 187.653 156.612C187.719 146.235 192.407 140.492 195.434 137.441C197.232 135.567 199.381 134.065 201.759 133.02C201.993 132.915 202.253 132.887 202.504 132.939C202.754 132.992 202.982 133.122 203.154 133.311L203.233 133.421C203.381 133.807 203.419 134.227 203.342 134.634C200.969 135.664 198.821 137.152 197.023 139.012C194.112 141.923 189.515 148.212 189.806 158.48Z" fill="#121A26"/>
<path d="M205.883 165.339C205.883 165.339 205.386 166.146 204.822 166.115C204.5 166.042 204.203 165.885 203.962 165.659C203.721 165.433 203.544 165.146 203.451 164.829C201.842 157.446 203.012 149.729 206.738 143.154C207.826 141.205 209.266 139.474 210.983 138.048C211.255 137.829 211.577 137.681 211.919 137.616C212.262 137.552 212.616 137.573 212.948 137.678C213.046 137.713 213.139 137.758 213.227 137.812C213.402 137.929 213.548 138.086 213.654 138.269C213.759 138.451 213.82 138.656 213.834 138.867C213.834 138.867 213.834 138.867 213.834 138.867C212.063 139.734 210.195 141.65 208.679 144.276C206.852 147.431 205.665 150.915 205.185 154.529C204.705 158.144 204.942 161.817 205.883 165.339Z" fill="#121A26"/>
<path d="M216.945 151.366C217.357 147.63 218.413 143.852 220.414 141.056C220.851 140.45 221.657 139.673 222.391 139.776C222.461 139.782 222.53 139.794 222.597 139.813C223.013 139.947 223.397 140.166 223.725 140.456C221.536 142.039 219.747 146.332 219.171 151.596C218.564 156.982 219.286 164.162 222.876 168.395C222.876 168.395 222.688 169.487 221.979 169.487C221.624 169.434 221.287 169.296 220.996 169.085C220.706 168.874 220.471 168.596 220.311 168.274C217.091 163.483 216.363 156.709 216.945 151.366Z" fill="#121A26"/>
<path d="M230.135 148.23C230.311 145.769 230.836 143.345 231.694 141.032C232.094 140.019 233.447 139.067 234.12 139.606C234.284 139.782 234.412 139.988 234.496 140.213C233.653 141.662 232.616 144.531 232.337 148.418C232.058 152.306 232.385 161.348 240.445 166.709C240.445 166.709 240.5 167.589 240.009 167.922C239.517 168.256 238.292 167.734 237.674 167.249C229.953 161.215 229.844 152.263 230.135 148.23Z" fill="#121A26"/>
<path d="M47.881 176.498C47.881 176.395 47.9295 176.292 47.9537 176.188L52.4781 154.156L52.6054 153.549C56.1411 138.242 87.0464 131.65 121.973 138.824C156.681 145.956 182.376 164.017 179.963 179.415L179.72 180.628L175.311 202.084C175.279 202.287 175.242 202.489 175.202 202.691C172.012 218.216 140.925 224.948 105.762 217.725C70.5991 210.502 44.691 192.023 47.881 176.498Z" fill="#2C5777"/>
<path d="M95.9251 157.819L97.4716 158.007C98.1994 158.098 98.9331 158.17 99.667 158.249C99.7458 158.249 101.753 158.474 101.814 158.462C105.616 158.965 109.419 159.675 113.197 160.311C121.037 161.686 128.82 163.329 136.546 165.242C144.147 167.11 151.659 169.303 159.082 171.822C162.778 173.092 166.445 174.438 170.084 175.861C171.814 176.544 173.534 177.248 175.245 177.972C175.966 178.275 175.93 178.257 175.135 177.929L176.16 178.372L179.193 179.736C179.356 179.815 179.526 179.876 179.69 179.943L176.051 197.615C176.021 197.815 175.99 198.015 175.948 198.221C172.758 213.753 141.665 220.479 106.508 213.256C105.445 213.037 104.395 212.811 103.36 212.576C100.665 211.962 98.1214 210.811 95.8807 209.192C93.64 207.573 91.7485 205.519 90.3187 203.154C88.889 200.788 87.9505 198.158 87.5592 195.422C87.1678 192.685 87.3318 189.898 88.0411 187.226L88.0957 187.032C90.7278 177.317 93.4993 167.601 95.9251 157.819Z" fill="#346F93"/>
<path d="M110.419 195.043C75.4932 187.863 49.6944 169.62 52.4781 154.156L52.6054 153.549C56.1411 138.242 87.0464 131.65 121.973 138.824C156.681 145.956 182.376 164.017 179.963 179.415L179.72 180.628C175.863 195.704 145.127 202.175 110.419 195.043Z" fill="#468CAF"/>
<path d="M55.856 154.817L55.9653 154.289C57.0266 149.789 61.3384 146.011 68.4341 143.33C75.3477 140.729 84.4024 139.352 94.6152 139.352C103.582 139.394 112.522 140.341 121.3 142.178C137.62 145.532 152.405 151.445 162.933 158.825C172.491 165.497 177.488 172.774 176.603 178.772V178.827L176.403 179.803V179.852C175.232 184.248 170.872 187.96 163.794 190.586C156.899 193.151 147.917 194.504 137.82 194.504C128.852 194.462 119.912 193.513 111.135 191.672C94.7062 188.3 79.8539 182.338 69.2893 174.897C59.7071 168.129 54.8068 160.809 55.856 154.817Z" fill="#121A26"/>
<path d="M55.856 154.817L55.9653 154.289L60.817 130.685L60.9261 130.152C61.9874 125.652 66.2994 121.874 73.395 119.199C80.3087 116.591 89.3632 115.215 99.576 115.215C108.544 115.256 117.484 116.205 126.26 118.047C142.58 121.401 157.366 127.307 167.894 134.688C177.452 141.39 182.449 148.637 181.564 154.641V154.689L181.364 155.666L176.627 178.754V178.808L176.427 179.785V179.833C175.257 184.23 170.896 187.942 163.819 190.568C156.923 193.133 147.942 194.485 137.844 194.485C128.876 194.444 119.936 193.495 111.16 191.653C94.7304 188.281 79.8781 182.32 69.3135 174.878C59.7072 168.129 54.8068 160.809 55.856 154.817Z" fill="#121A26"/>
<path d="M141.723 182.151C134.029 180.17 129.753 170.947 132.173 161.55C134.593 152.153 142.791 146.142 150.485 148.123C158.179 150.104 162.454 159.328 160.035 168.724C157.615 178.121 149.416 184.133 141.723 182.151Z" fill="#1F4060"/>
<path d="M143.402 183.134C135.708 181.153 131.432 171.929 133.852 162.532C136.272 153.136 144.47 147.124 152.164 149.105C159.858 151.086 164.133 160.31 161.714 169.707C159.294 179.103 151.095 185.115 143.402 183.134Z" fill="#346F93"/>
<path d="M160.277 163.283C160.164 163.301 160.05 163.296 159.939 163.269C159.828 163.242 159.724 163.193 159.633 163.126C159.541 163.058 159.464 162.972 159.406 162.874C159.348 162.777 159.31 162.668 159.294 162.555C159.114 161.085 158.705 159.653 158.081 158.31C156.668 155.278 154.303 153.173 151.41 152.433C150.658 152.238 149.883 152.14 149.106 152.142C146.993 152.174 144.937 152.833 143.199 154.034C143.022 154.151 142.808 154.197 142.599 154.164C142.39 154.13 142.202 154.019 142.071 153.852C142.003 153.76 141.954 153.655 141.928 153.543C141.901 153.431 141.897 153.315 141.916 153.202C141.936 153.089 141.978 152.981 142.039 152.884C142.101 152.787 142.182 152.704 142.277 152.639C143.653 151.674 145.218 151.012 146.869 150.698C148.52 150.385 150.219 150.426 151.853 150.82C155.249 151.693 158.021 154.119 159.652 157.643C160.341 159.139 160.795 160.732 160.999 162.367C161.03 162.589 160.973 162.814 160.841 162.994C160.708 163.174 160.51 163.296 160.289 163.331L160.277 163.283Z" fill="#468CAF"/>
<path d="M138.693 171.883C138.855 171.843 139.026 171.864 139.175 171.941C139.323 172.018 139.438 172.146 139.5 172.301C140.549 174.969 142.532 176.995 145.17 177.674C146.094 177.911 147.055 177.97 148.002 177.85C148.105 177.835 148.21 177.844 148.309 177.875C148.408 177.906 148.499 177.959 148.574 178.03C148.65 178.101 148.709 178.189 148.746 178.285C148.784 178.382 148.799 178.486 148.79 178.59C148.771 178.744 148.701 178.888 148.591 178.997C148.482 179.107 148.338 179.177 148.184 179.196C147.808 179.245 147.429 179.269 147.05 179.269C146.303 179.269 145.56 179.175 144.836 178.99C141.762 178.196 139.433 175.837 138.22 172.756C138.184 172.665 138.168 172.568 138.173 172.47C138.178 172.373 138.204 172.277 138.249 172.191C138.294 172.104 138.356 172.028 138.433 171.967C138.51 171.907 138.598 171.864 138.693 171.84V171.883Z" fill="#468CAF"/>
<path d="M145.815 176.627C141.202 175.57 138.508 170.145 139.799 164.51C141.09 158.875 145.876 155.163 150.489 156.22C155.102 157.277 157.796 162.701 156.505 168.336C155.215 173.972 150.428 177.683 145.815 176.627Z" fill="#121A26"/>
<path d="M145.955 174.848C142.056 173.844 139.89 169.17 141.116 164.409C142.342 159.647 146.496 156.601 150.395 157.605C154.294 158.609 156.461 163.283 155.235 168.044C154.009 172.806 149.854 175.852 145.955 174.848Z" fill="#4FC997"/>
<path d="M153.442 168.025C153.396 168.181 153.298 168.315 153.165 168.407C153.032 168.499 152.871 168.543 152.709 168.531C152.548 168.519 152.395 168.452 152.277 168.341C152.159 168.23 152.082 168.083 152.059 167.922C151.914 166.812 151.847 165.496 151.714 164.975C151.55 164.251 151.179 163.591 150.646 163.075C150.113 162.559 149.44 162.21 148.712 162.07C147.681 161.815 146.589 161.833 146.589 161.063C146.589 160.293 148.96 159.953 150.198 160.275C152.921 160.972 154.443 164.235 153.576 167.552C153.539 167.722 153.491 167.874 153.442 168.025Z" fill="#72DDB1"/>
<path d="M146.001 170.257C146.783 170.985 147.663 171.137 147.978 171.47C148.457 171.949 147.978 172.356 147.371 172.416C145.661 172.592 143.854 170.56 143.569 168.777C143.436 167.825 143.896 167.237 144.448 167.565C145 167.892 144.994 169.317 146.001 170.257Z" fill="#72DDB1"/>
<path d="M57.4876 129.788L57.621 129.133L67.0453 83.2721L67.4092 81.5073C67.4329 81.3719 67.4653 81.2382 67.5062 81.107C67.6475 80.6456 67.8136 80.1921 68.0035 79.7485C73.9044 66.0424 103.451 60.4266 136.637 67.2432C169.962 74.0902 194.979 91.0166 194.779 105.99C194.773 106.599 194.725 107.207 194.633 107.81L194.67 107.84L184.966 155.029L184.724 156.242C183.82 159.771 181.449 162.828 177.907 165.339L177.84 165.381C177.077 165.883 176.199 166.181 175.289 166.248C174.378 166.314 173.466 166.147 172.638 165.762C171.811 165.376 171.095 164.786 170.56 164.046C170.025 163.307 169.687 162.443 169.58 161.536C169.55 161.251 169.513 160.972 169.471 160.693C168.028 150.42 161.472 142.117 152.381 140.637C132.046 137.338 124.223 160.099 122.949 162.907C120.778 167.692 114.659 170.894 103.009 167.552C83.4926 161.955 68.2583 152.536 61.3264 142.96C58.1424 138.539 56.7234 134.057 57.4876 129.788Z" fill="#2C5777"/>
<path d="M136.637 67.2738C171.345 74.4058 197.041 92.4724 194.627 107.87L194.385 109.083C190.527 124.184 159.816 130.655 125.084 123.523C90.2183 116.361 64.4375 98.161 67.1302 82.7204L67.2879 81.9441C70.9146 66.6673 101.771 60.0811 136.637 67.2738Z" fill="#468CAF"/>
<path d="M69.3316 83.0418L69.4409 82.5081V82.4353C70.5992 77.5412 75.1659 73.4596 82.6557 70.6335C89.7028 67.9772 98.9028 66.5763 109.261 66.5763C118.304 66.6188 127.319 67.5738 136.17 69.4267C152.648 72.8168 167.591 78.7965 178.253 86.2682C188.192 93.2364 193.36 100.926 192.42 107.373V107.416V107.476L192.213 108.471V108.513V108.574C190.928 113.383 186.312 117.38 178.871 120.151C171.842 122.759 162.715 124.142 152.478 124.142C143.435 124.097 134.42 123.14 125.569 121.285C108.982 117.877 93.9722 111.849 83.2985 104.304C73.2797 97.2694 68.2036 89.5127 69.3316 83.0418Z" fill="#121A26"/>
<path d="M109.189 126.143C111.281 114.972 113.434 103.813 116.017 92.7391C118.225 83.248 121.118 73.9388 123.507 64.5022C126.62 64.9308 129.776 65.4746 132.974 66.1336C166.275 72.9806 191.31 89.907 191.14 104.874C191.131 105.483 191.083 106.091 190.994 106.694C190.994 106.694 190.994 106.694 191.025 106.724L181.321 153.913L181.073 155.126C180.187 158.595 177.876 161.615 174.401 164.114L174.947 164.229C175.893 164.423 175.978 165.988 174.99 166.188C173.909 166.306 172.815 166.205 171.773 165.893C170.731 165.58 169.763 165.062 168.925 164.369C167.657 163.217 166.883 161.62 166.766 159.911C165.317 149.638 157.839 140.716 148.712 139.54C129.378 137.041 121.76 159.553 120.487 162.343C118.425 166.891 111.705 169.517 101.05 166.904C104.228 153.392 106.641 139.716 109.189 126.143Z" fill="#1F4060"/>
<path d="M57.4876 129.788L57.621 129.133L67.0453 83.2721L67.4092 81.5073C67.4329 81.3719 67.4653 81.2382 67.5062 81.107C67.6475 80.6456 67.8136 80.1921 68.0035 79.7485C73.9044 66.0424 103.451 60.4266 136.637 67.2432C169.962 74.0902 194.979 91.0166 194.779 105.99C194.773 106.599 194.725 107.207 194.633 107.81L194.67 107.84L184.966 155.029L184.724 156.242C183.82 159.771 181.449 162.828 177.907 165.339L177.84 165.381C177.077 165.883 176.199 166.181 175.289 166.248C174.378 166.314 173.466 166.147 172.638 165.762C171.811 165.376 171.095 164.786 170.56 164.046C170.025 163.307 169.687 162.443 169.58 161.536C169.55 161.251 169.513 160.972 169.471 160.693C168.028 150.42 161.478 142.081 152.381 140.637C132.143 137.435 124.223 160.099 122.949 162.907C120.778 167.692 114.659 170.894 103.009 167.552C83.4926 161.955 68.2583 152.536 61.3264 142.96C58.1424 138.539 56.7234 134.057 57.4876 129.788Z" fill="#2C5777"/>
<path d="M94.6515 137.169C95.9676 130.528 97.2715 124.087 100.613 120.74C106.981 114.372 118.504 117.592 119.717 117.016C119.747 117.016 107.721 110.891 107.915 110.806C108.291 110.654 108.94 110.381 109.091 110.327C114.04 108.374 119.037 106.451 124.283 105.475C124.429 105.444 126.709 105.123 126.303 105.153L127.128 105.056C128.565 104.905 130.008 104.777 131.446 104.662C134.151 104.45 136.861 104.292 139.566 104.056C145.352 103.546 151.089 102.916 156.917 102.758C162.784 102.588 168.656 102.746 174.505 103.231C179.961 103.625 185.378 104.452 190.703 105.705C192.043 106 193.422 106.072 194.785 105.918V105.972C194.779 106.581 194.731 107.189 194.639 107.792L194.676 107.822L184.972 155.011L184.73 156.224C183.826 159.753 181.455 162.81 177.913 165.321L177.846 165.363C177.084 165.865 176.205 166.163 175.295 166.229C174.384 166.296 173.472 166.129 172.644 165.743C171.817 165.358 171.101 164.768 170.566 164.028C170.031 163.289 169.694 162.425 169.586 161.518C169.556 161.233 169.52 160.954 169.477 160.675C168.034 150.402 161.484 142.063 152.387 140.619C132.149 137.417 124.229 160.081 122.955 162.889C120.784 167.674 114.738 170.609 103.015 167.534C86.8282 163.295 92.9716 145.659 94.6515 137.169Z" fill="#346F93"/>
<path d="M136.637 67.2738C171.345 74.4058 197.041 92.4724 194.627 107.87L194.385 109.083C190.527 124.184 159.816 130.655 125.084 123.523C90.2183 116.361 64.4375 98.161 67.1302 82.7204L67.2879 81.9441C70.9146 66.6673 101.771 60.0811 136.637 67.2738Z" fill="#468CAF"/>
<path d="M69.3316 83.0418L69.4409 82.5081V82.4353C70.5992 77.5412 75.1659 73.4596 82.6557 70.6335C89.7028 67.9772 98.9028 66.5763 109.261 66.5763C118.304 66.6188 127.319 67.5738 136.17 69.4267C152.648 72.8168 167.591 78.7965 178.253 86.2682C188.192 93.2364 193.36 100.926 192.42 107.373V107.416V107.476L192.213 108.471V108.513V108.574C190.928 113.383 186.312 117.38 178.871 120.151C171.842 122.759 162.715 124.142 152.478 124.142C143.435 124.097 134.42 123.14 125.569 121.285C108.982 117.877 93.9722 111.849 83.2985 104.304C73.2797 97.2694 68.2036 89.5127 69.3316 83.0418Z" fill="#121A26"/>
<path d="M79.8235 144.652C72.9673 144.652 67.4092 137.433 67.4092 128.527C67.4092 119.62 72.9673 112.401 79.8235 112.401C86.6797 112.401 92.2378 119.62 92.2378 128.527C92.2378 137.433 86.6797 144.652 79.8235 144.652Z" fill="#121A26"/>
<path d="M68.1915 77.6807L68.3492 76.9105L70.5809 66.0609C72.2279 57.801 75.5412 49.9636 80.3184 43.0271C85.0957 36.0906 91.2366 30.2006 98.3663 25.7168C105.496 21.2331 113.465 18.2496 121.786 16.9487C130.108 15.6477 138.607 16.0566 146.765 18.1502C168.216 23.5114 185.009 39.2309 193.002 58.7287C193.208 59.2105 193.335 59.7225 193.378 60.2449C193.56 63.0285 191.692 65.0966 190.163 66.2003C191.494 71.2207 192.324 76.3601 192.644 81.5439C192.644 81.5439 198.254 85.5769 197.617 92.4602C197.405 94.1886 197.126 95.9171 196.768 97.6515L195.688 102.885L195.446 104.098C191.589 119.199 160.877 125.67 126.145 118.538C91.2796 111.321 65.5109 93.1273 68.1915 77.6807Z" fill="#2C5777"/>
<path d="M113.864 46.7086C118.837 40.8744 127.552 34.5793 134.15 35.7377C139.924 36.7323 147.056 37.7087 154.091 35.7922C158.057 34.7127 156.11 25.4824 157.815 22.0377C175.311 29.2364 187.604 45.5563 192.99 58.7166C193.197 59.2002 193.323 59.7144 193.365 60.2388C193.547 63.0164 191.68 65.0905 190.151 66.1882C191.482 71.2085 192.312 76.348 192.632 81.5317C192.632 81.5317 198.241 85.5647 197.605 92.4481C197.392 94.1765 195.67 101.23 195.67 101.23C191.819 116.337 161.035 123.008 126.376 115.67C105.556 111.261 99.1575 100.247 99.1575 85.498C99.1696 79.0028 103.445 58.9349 113.864 46.7086Z" fill="#346F93"/>
<path d="M135.879 90.1677C135.879 99.0342 140.779 108.362 160.884 108.362C181.637 108.362 197.447 101.011 197.672 90.9622C197.896 80.9131 185.736 75.2972 165.638 74.8606C145.54 74.4239 135.891 80.1126 135.879 90.1677Z" fill="#468CAF"/>
<path d="M137.68 82.2957L137.747 82.1562C139.525 78.5904 142.319 75.6314 145.777 73.6528C149.236 71.6743 153.203 70.765 157.178 71.0397C169.198 71.8403 179.35 70.9245 185.785 68.4865C188.647 67.4009 190.776 66.0121 192.001 64.3444L195.1 88.9001C194.894 91.0755 194.158 93.1675 192.959 94.994C191.759 96.8205 190.131 98.3261 188.217 99.3798C179.769 103.989 167.215 106.409 152.132 104.438C139.196 102.752 132.471 92.9452 137.577 82.4958L137.68 82.2957Z" fill="#121A26"/>
<path d="M17.6914 138.375C18.0795 137.769 17.3336 137.769 17.2608 137.102C17.2608 136.932 17.0121 136.532 17.0303 136.356C17.4686 130.561 19.2659 124.952 22.2763 119.981C22.8366 119.41 23.5339 118.993 24.3018 118.768C24.7384 118.671 24.3019 118.107 24.4292 117.695C24.4899 117.507 24.2897 117.307 24.3685 117.131C28.0077 112.461 32.8211 108.84 38.3172 106.639C39.0953 106.368 39.9242 106.275 40.743 106.366C41.1615 106.494 41.4162 105.887 41.7861 105.554L41.9499 105.481C42.3198 105.323 41.8286 105.402 42.2167 105.238C46.9314 103.998 51.818 103.541 56.6809 103.886C57.5327 103.935 58.3558 104.211 59.0643 104.686C59.4039 104.947 60.0347 104.474 60.4592 104.444C65.2582 105.36 69.8728 107.063 74.1167 109.483C74.6081 109.826 75.0214 110.268 75.3297 110.781C75.7059 110.987 76.1173 111.121 76.5426 111.176C76.8384 111.245 77.1237 111.353 77.3916 111.497C80.839 112.91 83.7735 115.341 85.8033 118.465C87.704 121.349 88.6727 124.747 88.5783 128.2C88.4839 131.653 87.331 134.993 85.2756 137.769C81.5095 143.124 74.4867 142.178 68.7981 136.586C68.1067 135.98 68.7555 135.204 68.7373 135.21L68.3796 135.295C67.6337 135.392 66.8392 134.858 66.2267 134.427C64.3709 133.111 61.9814 131.789 60.1984 130.522C59.8649 130.237 59.5919 129.733 59.4827 129.812C59.0302 130.174 58.46 130.355 57.8817 130.322C55.4535 129.776 52.9888 129.407 50.5072 129.218C50.3616 129.151 49.9007 128.818 49.8643 128.993C49.6771 129.539 49.2859 129.991 48.7726 130.255C48.0024 130.613 46.0678 131.777 44.8306 132.105C44.6911 132.141 44.6184 131.965 44.582 132.105C44.6228 132.258 44.6531 132.414 44.6729 132.572C44.654 132.877 44.5535 133.173 44.3818 133.427C43.5876 134.536 43.0321 135.797 42.7505 137.132C42.6171 137.387 42.3017 136.974 42.144 137.132C41.9924 137.162 42.3198 137.854 42.3865 138.03C42.6995 138.357 42.879 138.79 42.8899 139.243C42.9628 140.729 43.2487 142.198 43.7389 143.603C43.7389 144.143 43.4661 143.779 43.6116 144.264C43.7935 144.871 43.1629 144.392 43.6905 144.677C44.166 144.888 44.5979 145.186 44.964 145.556C45.7221 146.32 47.8022 148.679 48.718 149.516C48.8508 149.633 48.9564 149.778 49.0273 149.941C49.178 150.155 49.3442 150.357 49.5246 150.547C49.5644 150.631 49.6154 150.708 49.6762 150.778C50.2894 150.875 50.8856 151.059 51.4471 151.323C52.941 152.225 54.5118 152.992 56.1411 153.616L56.0502 153.586C56.0502 153.586 66.0387 155.405 61.2719 167.85C55.8501 181.998 47.7477 177.996 47.7477 177.996C43.7766 176.546 39.9886 174.637 36.4614 172.307C35.9156 171.925 35.6002 170.639 35.6002 170.639C35.4629 170.648 35.3252 170.648 35.1879 170.639C35.0631 170.591 34.9245 170.591 34.7997 170.639C34.4176 170.609 34.0598 170.882 33.7019 170.73C33.2046 170.354 25.2115 162.476 23.004 159.08C22.7605 158.612 22.6834 158.075 22.7856 157.558C22.7856 157.394 22.2398 157.388 22.0397 157.212C21.8395 157.036 21.4635 156.964 21.3059 156.751C18.7186 151.883 17.2672 146.492 17.0606 140.983C17.0556 140.076 17.2721 139.18 17.6914 138.375Z" fill="#2C5777"/>
<path d="M29.4992 116.652C31.6623 111.942 35.5598 108.249 40.3792 106.342C40.4995 106.344 40.6194 106.358 40.737 106.384C41.1555 106.512 41.4102 105.905 41.7801 105.572L41.9499 105.481C42.3199 105.323 41.8286 105.402 42.2168 105.238C46.9314 103.998 51.818 103.541 56.681 103.886C57.5328 103.935 58.3558 104.211 59.0643 104.686C59.4039 104.947 60.0347 104.474 60.4592 104.444C65.2582 105.36 69.8728 107.063 74.1168 109.483C74.6081 109.826 75.0215 110.268 75.3297 110.781C75.7059 110.987 76.1173 111.121 76.5426 111.176C76.8384 111.245 77.1238 111.353 77.3916 111.497C80.839 112.91 83.7735 115.341 85.8034 118.465L85.8337 118.514C86.1645 119.034 86.3054 119.653 86.2324 120.265C86.1595 120.877 85.8773 121.445 85.4335 121.874C84.9897 122.302 84.4116 122.563 83.7971 122.614C83.1826 122.665 82.5695 122.502 82.0614 122.153C78.0851 119.286 73.7556 116.944 69.1801 115.184C61.3749 112.376 53.6607 112.079 46.2861 114.857C39.3603 117.458 34.1084 125.264 35.6246 134.791C36.6738 141.408 41.7498 150.82 55.2314 156.703C55.8893 157.004 56.5017 157.396 57.0508 157.867C56.1481 158.353 55.3424 159.001 54.6735 159.778C53.3802 161.274 52.2857 162.931 51.4169 164.708C50.6344 163.824 49.6972 163.09 48.6514 162.543C33.4898 155.265 26.8914 143.888 26.1273 136.526C25.2115 127.817 26.4608 122.941 29.4992 116.652Z" fill="#3276A0"/>
<path d="M44.6669 129.739C45.7517 127.559 47.4875 125.771 49.6338 124.621C55.6984 121.382 64.5407 123.408 70.7023 126.367C72.8629 127.425 74.925 128.674 76.8641 130.097C77.8086 130.787 78.9027 131.244 80.0574 131.43C81.212 131.616 82.3943 131.527 83.5078 131.169C84.6213 130.812 85.6344 130.196 86.4645 129.372C87.2945 128.548 87.9178 127.539 88.2837 126.428C88.3522 126.23 88.4049 126.028 88.4414 125.822C88.872 129.26 88.308 133.445 85.2514 137.793C81.4853 143.148 74.4625 142.202 68.7738 136.611C68.7086 136.552 68.6515 136.484 68.604 136.411C68.5864 136.391 68.572 136.368 68.5615 136.344C68.5337 136.299 68.5133 136.25 68.5009 136.198C68.4667 136.032 68.4679 135.86 68.5045 135.694C68.5411 135.527 68.6121 135.371 68.7131 135.234L68.3554 135.319C67.6095 135.416 66.815 134.882 66.2024 134.452C64.3467 133.136 61.9572 131.814 60.1742 130.546C59.8407 130.261 59.5678 129.758 59.4586 129.836C59.0061 130.198 58.4358 130.379 57.8575 130.346C55.4292 129.8 52.9646 129.431 50.4829 129.242C50.3374 129.175 49.8764 128.842 49.8401 129.018C49.6529 129.563 49.2617 130.016 48.7484 130.279C47.5097 130.977 46.2228 131.585 44.8974 132.099C44.9157 131.883 44.9157 131.666 44.8974 131.45C44.8974 131.11 44.8367 130.789 44.7821 130.467C44.7619 130.222 44.7234 129.979 44.6669 129.739Z" fill="#1F4060"/>
<path d="M17.6914 138.375C17.7458 138.303 17.7793 138.217 17.7883 138.127C19.5228 147.024 22.8949 153.046 29.8692 160.026C35.2849 165.436 41.5981 169.499 49.47 171.549C49.1907 173.59 49.3985 175.668 50.0764 177.614C50.1856 177.881 50.2948 178.147 50.41 178.402C49.4913 178.393 48.577 178.273 47.687 178.044C43.7159 176.595 39.9281 174.686 36.4008 172.356C35.855 171.974 35.5395 170.688 35.5395 170.688C35.4022 170.697 35.2645 170.697 35.1272 170.688C35.0024 170.639 34.8639 170.639 34.7391 170.688C34.357 170.658 33.9992 170.93 33.6414 170.779C33.1441 170.403 25.1508 162.525 22.9433 159.129C22.6998 158.661 22.6229 158.124 22.725 157.606C22.725 157.443 22.1792 157.437 21.9791 157.261C21.779 157.085 21.403 157.012 21.2453 156.8C18.658 151.932 17.2067 146.541 17.0001 141.032C17.0057 140.103 17.2433 139.19 17.6914 138.375Z" fill="#1F4060"/>
<path d="M76.6091 126.956C78.1435 121.34 77.5553 114.402 75.3296 110.806C75.7421 110.845 76.1489 110.931 76.5425 111.06C77.0767 111.301 77.5505 111.658 77.9293 112.105C78.308 112.552 78.5821 113.077 78.7318 113.644C79.7506 117.283 80.4663 122.468 78.9623 127.241C77.5978 131.559 74.3047 135.574 70.8054 136.338C68.3795 136.871 68.149 136.235 68.4826 135.246C68.5372 135.094 74.5168 134.591 76.6091 126.956Z" fill="#121A26"/>
<path d="M63.4731 120.127C64.1645 113.832 62.7575 106.997 58.8882 104.601C58.9244 104.608 58.9614 104.608 58.9975 104.601C59.7521 104.384 60.5566 104.417 61.2911 104.694C62.0257 104.972 62.6508 105.48 63.0729 106.142C65.4199 109.847 66.1052 115.305 65.4988 120.369C64.9772 125.179 63.3822 127.999 61.6902 129.758C60.7865 130.698 59.9739 130.867 59.4463 129.879C61.3566 128.526 62.9576 124.839 63.4731 120.127Z" fill="#121A26"/>
<path d="M41.9014 105.353C42.2671 105.22 42.6579 105.169 43.0457 105.203C43.4336 105.238 43.809 105.357 44.1454 105.554C45.1779 106.152 46.1314 106.877 46.9836 107.713C48.9304 109.599 55.5711 116.676 51.8353 127.908C51.4896 128.939 50.8407 129.551 49.8886 129.078C49.8401 129.078 49.8097 129.036 49.8157 129.018C52.9208 117.495 47.3535 110.963 45.5219 109.192C43.8602 107.585 41.9499 106.548 40.4034 106.348C40.8002 105.883 41.319 105.539 41.9014 105.353Z" fill="#121A26"/>
<path d="M24.132 117.61C24.2818 117.285 24.5149 117.006 24.8079 116.8C25.1008 116.594 25.4431 116.47 25.7998 116.44C27.0373 116.342 28.2824 116.418 29.4991 116.664C33.5879 117.543 37.3848 119.451 40.5306 122.207C43.1505 124.469 44.9154 126.798 45.5643 129.521C45.8675 130.795 45.8311 131.832 44.7941 132.147C44.6485 132.19 44.5516 132.202 44.5455 132.147C43.5327 126.835 37.2194 120.224 29.111 118.678C27.5318 118.33 25.8915 118.371 24.332 118.799C24.2073 118.631 24.1241 118.435 24.0893 118.229C24.0546 118.022 24.0692 117.81 24.132 117.61Z" fill="#121A26"/>
<path d="M17.0849 136.956C17.0354 136.621 17.0711 136.279 17.1887 135.961C17.3063 135.643 17.5022 135.359 17.7581 135.137C19.5108 133.53 22.0033 132.378 25.2054 131.717C30.6636 130.595 37.365 131.31 41.6103 134.409C42.1414 134.806 42.5196 135.374 42.6809 136.017C42.8422 136.66 42.7767 137.338 42.4957 137.939C42.4411 138.06 42.4048 138.145 42.4169 138.163C39.4937 133.815 31.731 132.475 25.624 133.736C21.7426 134.537 18.9529 136.21 17.7399 138.382C17.4373 137.95 17.2153 137.467 17.0849 136.956Z" fill="#121A26"/>
<path d="M29.6144 144.379C33.5685 142.063 37.7713 141.293 41.4404 142.208C42.5199 142.475 43.6843 143.063 43.8663 144.228C43.9165 144.429 43.9039 144.641 43.83 144.834C40.1912 143.015 35.1151 143.53 30.6333 146.156C25.9211 148.916 23.0404 153.246 22.6947 157.922C22.4264 157.911 22.1656 157.83 21.9372 157.689C21.7088 157.548 21.5207 157.35 21.3908 157.115C21.1952 156.785 21.0703 156.418 21.0244 156.036C20.9785 155.655 21.0123 155.269 21.1239 154.902C22.3004 150.693 25.2721 146.927 29.6144 144.379Z" fill="#121A26"/>
<path d="M36.4917 156.212C38.5597 153.076 41.7497 150.147 45.5886 149.092C46.2914 148.876 47.0449 148.891 47.7382 149.136C48.4315 149.38 49.0279 149.841 49.4397 150.45C49.5208 150.576 49.5878 150.71 49.6398 150.85C46.9471 150.547 42.3077 151.166 38.2262 157.352C35.1939 161.912 34.3994 166.503 35.5638 170.694C35.5335 170.694 35.5941 170.657 35.5638 170.694C35.3273 170.985 33.7444 171.555 33.3502 170.275C32.204 165.897 33.7626 160.354 36.4917 156.212Z" fill="#121A26"/>
<path d="M241.597 151.513C239.884 145.774 241.071 140.353 244.249 139.405C247.426 138.456 251.39 142.34 253.103 148.078C254.816 153.817 253.629 159.238 250.452 160.186C247.274 161.134 243.31 157.251 241.597 151.513Z" fill="#121A26"/>
<path d="M49.396 175.567C46.5258 174.257 46.1197 168.988 48.4887 163.8C50.8578 158.611 55.1049 155.467 57.9751 156.777C60.8452 158.087 61.2514 163.356 58.8823 168.545C56.5133 173.734 52.2661 176.878 49.396 175.567Z" fill="#121A26"/>
<path d="M140.34 35.1465C129.615 32.943 121.613 27.7869 122.467 23.63C123.321 19.4731 132.708 17.8896 143.433 20.0931C154.158 22.2967 162.16 27.4528 161.306 31.6096C160.452 35.7665 151.065 37.35 140.34 35.1465Z" fill="#121A26"/>
<path d="M123.604 23.0019C122.816 26.8468 130.378 31.65 140.494 33.7302C150.61 35.8104 159.458 34.3791 160.247 30.5341C160.435 29.6305 160.605 25.6824 159.944 24.7303C157.791 21.6009 151.101 21.4008 143.357 19.8119C135.612 18.2229 129.25 15.9062 126.042 17.9318C125.035 18.5444 123.786 22.0922 123.604 23.0019Z" fill="#1F4060"/>
<path d="M142.999 28.6843C142.738 30.4673 142.477 32.2503 142.235 34.0394C141.628 33.9424 141.082 33.8332 140.494 33.718C139.779 33.5664 139.069 33.4026 138.378 33.2328C138.881 31.565 139.299 29.8548 139.7 28.1446C140.803 28.369 141.895 28.5509 142.999 28.6843Z" fill="#2C5777"/>
<path d="M131.525 25.0699C133.049 25.99 134.678 26.725 136.376 27.2593C135.824 28.8907 135.291 30.5281 134.787 32.1656C132.937 31.5445 131.141 30.7696 129.42 29.8489C129.899 28.7633 130.342 27.6656 130.821 26.6468C131.045 26.1252 131.288 25.5976 131.525 25.0699Z" fill="#2C5777"/>
<path d="M151.72 29.394L151.756 28.9695C154.655 28.7572 158.239 27.7566 158.937 24.5787C158.972 24.4145 158.998 24.2485 159.016 24.0814C159.071 24.0146 159.122 23.9437 159.167 23.8691C159.46 24.1189 159.721 24.4041 159.944 24.7182C160.605 25.6764 160.435 29.6184 160.247 30.522C159.774 32.8327 156.39 34.2639 151.568 34.5975C151.605 33.5362 151.617 32.487 151.659 31.4924C151.683 30.7889 151.72 30.0915 151.72 29.394Z" fill="#2C5777"/>
<path d="M141.358 29.5102C131.745 27.5352 124.56 22.9739 125.31 19.3223C126.06 15.6707 134.461 14.3115 144.074 16.2865C153.687 18.2615 160.872 22.8228 160.122 26.4744C159.372 30.1261 150.971 31.4852 141.358 29.5102Z" fill="#1F4060"/>
<path d="M125.32 19.2841C125.351 19.1393 125.393 18.9973 125.448 18.8596C129.087 19.5207 143.478 23.5718 146.34 21.6675C146.533 21.5297 146.681 21.3384 146.767 21.1173C146.852 20.8962 146.871 20.6549 146.82 20.4233C146.77 20.1917 146.653 19.9799 146.484 19.8141C146.314 19.6483 146.1 19.5357 145.867 19.4903C145.789 19.4472 145.706 19.4145 145.619 19.3933C145.498 19.2952 145.361 19.2211 145.212 19.175C141.616 17.962 137.983 16.4944 134.296 15.3785C137.586 15.2715 140.877 15.5648 144.096 16.2518C153.709 18.2228 160.895 22.7834 160.143 26.4343C159.391 30.0853 150.992 31.4498 141.38 29.4667C131.767 27.4835 124.568 22.935 125.32 19.2841Z" fill="#346F93"/>
<path d="M125.333 19.2418C125.387 20.6548 127.722 22.5955 131.112 24.4088C133.162 25.5005 137.977 27.2713 144.382 28.3084C158.33 30.5644 160.083 25.1669 159.816 24.4452C160.14 25.0545 160.251 25.7547 160.132 26.4344C159.38 30.0732 150.98 31.4499 141.367 29.4667C131.755 27.4836 124.568 22.9291 125.32 19.2781C125.322 19.2654 125.327 19.2531 125.333 19.2418Z" fill="#468CAF"/>
<path d="M143.508 23.183C140.116 22.486 137.58 20.8757 137.845 19.5863C138.11 18.2969 141.075 17.8167 144.468 18.5137C147.86 19.2107 150.395 20.8209 150.131 22.1103C149.866 23.3997 146.901 23.8799 143.508 23.183Z" fill="#121A26"/>
<path d="M139.548 19.3631C139.563 19.2953 139.588 19.23 139.621 19.169L144.946 2.18802C146.049 -1.34766 151.313 -0.237833 150.877 3.45553L148.784 21.0794C148.791 21.1439 148.791 21.2089 148.784 21.2734C148.584 22.2438 146.359 22.6016 143.811 22.08C141.264 21.5585 139.348 20.3152 139.548 19.3631Z" fill="#2C5777"/>
<path d="M148.9 20.0604C147.462 20.8913 145.218 20.8125 144.266 20.0604C142.799 18.9385 143.138 17.1373 143.66 14.4689C144.509 10.0113 146.474 0.301861 146.474 0.301861C148.402 -0.638157 151.216 0.677868 150.889 3.40695L148.9 20.0604Z" fill="#346F93"/>
<path d="M162.034 95.8348C159.395 95.4882 157.7 91.8149 158.25 87.6302C158.799 83.4456 161.384 80.3342 164.024 80.6808C166.663 81.0274 168.358 84.7007 167.808 88.8854C167.259 93.0701 164.673 96.1814 162.034 95.8348Z" fill="#4FC997"/>
<path d="M186.67 89.919C184.726 89.6717 183.583 86.072 184.116 81.8789C184.65 77.6857 186.658 74.4869 188.601 74.7342C190.545 74.9815 191.689 78.5812 191.155 82.7743C190.622 86.9675 188.613 90.1662 186.67 89.919Z" fill="#4FC997"/>
<path d="M148.463 4.27434C147.8 4.27434 147.262 3.73672 147.262 3.07354C147.262 2.41036 147.8 1.87274 148.463 1.87274C149.126 1.87274 149.664 2.41036 149.664 3.07354C149.664 3.73672 149.126 4.27434 148.463 4.27434Z" fill="#468CAF"/>
<path d="M146.104 17.2587C146.421 17.3114 146.745 17.2362 147.007 17.0498C147.268 16.8633 147.445 16.5808 147.499 16.2641L148.712 7.47647C148.821 6.81543 148.603 6.14831 148.051 6.07554C147.602 6.00883 147.117 6.17257 146.905 7.0762L145.085 15.8639C145.059 16.0225 145.065 16.1847 145.103 16.341C145.14 16.4973 145.208 16.6446 145.303 16.7744C145.398 16.9042 145.517 17.0138 145.655 17.097C145.792 17.1801 145.945 17.2351 146.104 17.2587Z" fill="#468CAF"/>
<path d="M104.745 32.8279C103.885 31.1462 105.329 28.6871 107.971 27.3352C110.612 25.9834 113.452 26.2507 114.312 27.9323C115.173 29.614 113.729 32.0733 111.087 33.4251C108.445 34.777 105.606 34.5095 104.745 32.8279Z" fill="#346F93"/>
<path d="M167.707 51.9715C165.03 48.757 164.518 44.7697 166.564 43.0656C168.61 41.3615 172.439 42.5859 175.116 45.8004C177.794 49.0149 178.305 53.0022 176.259 54.7064C174.213 56.4105 170.384 55.1861 167.707 51.9715Z" fill="#468CAF"/>
<path d="M182.401 120.794C183.317 120.478 184.196 120.061 185.021 119.551C185.627 119.169 186.161 118.744 186.713 118.302C187.62 117.785 188.472 117.175 189.254 116.482C189.254 116.573 189.254 116.658 189.254 116.743L182.304 150.559C182.147 151.323 181.693 151.992 181.043 152.421C180.392 152.85 179.598 153.003 178.835 152.846C178.071 152.689 177.402 152.235 176.973 151.585C176.544 150.934 176.391 150.14 176.548 149.377L182.401 120.794Z" fill="#468CAF"/>
<path d="M167.245 192.933C168.474 192.297 169.622 191.517 170.666 190.61L170.823 190.483C171.976 189.682 173.134 188.918 174.244 188.057L171.539 201.229C171.382 201.993 170.929 202.662 170.278 203.091C169.628 203.52 168.833 203.673 168.07 203.516C167.307 203.359 166.637 202.905 166.208 202.255C165.78 201.604 165.627 200.81 165.784 200.047L167.245 192.933Z" fill="#468CAF"/>
<path d="M146.826 126.101C150.609 126.296 154.402 126.093 158.142 125.494C160.077 125.379 162.011 125.215 163.94 124.966L162.818 131.286C162.428 133.457 161.194 135.385 159.385 136.649C157.577 137.913 155.342 138.409 153.169 138.03C150.998 137.639 149.069 136.405 147.804 134.597C146.539 132.79 146.042 130.555 146.419 128.381L146.826 126.101Z" fill="#468CAF"/>
<path d="M134.545 196.942C138.093 196.808 141.659 196.62 145.206 196.335C146.451 196.282 147.692 196.164 148.924 195.984L150.901 195.759C151.168 195.759 151.429 195.68 151.689 195.638L150.028 205.032C149.889 206.154 149.524 207.236 148.954 208.212C148.384 209.189 147.621 210.039 146.711 210.71C145.802 211.382 144.765 211.862 143.665 212.12C142.564 212.378 141.422 212.409 140.309 212.212C139.196 212.014 138.135 211.592 137.19 210.971C136.245 210.35 135.437 209.543 134.814 208.6C134.191 207.656 133.767 206.596 133.568 205.483C133.368 204.37 133.397 203.228 133.653 202.127L134.545 196.942Z" fill="#468CAF"/>
<path d="M117.479 73.0714C118.414 73.0707 119.324 72.7648 120.069 72.1999C120.814 71.6351 121.355 70.8423 121.609 69.942C123.771 62.6846 128.262 56.3403 134.387 51.8876C135.346 51.2732 136.022 50.3028 136.266 49.1899C136.51 48.077 136.302 46.9128 135.688 45.9534C135.073 44.9939 134.103 44.3179 132.99 44.0739C131.877 43.8299 130.713 44.0381 129.754 44.6525C121.836 50.218 116.047 58.3106 113.337 67.6011C113.159 68.2401 113.132 68.9115 113.256 69.5629C113.381 70.2143 113.655 70.828 114.055 71.3564C114.456 71.8847 114.974 72.3132 115.568 72.6086C116.162 72.904 116.816 73.0582 117.479 73.0592V73.0714Z" fill="#468CAF"/>
<path d="M64.8499 154.392L56.8324 154.999C55.6711 155.09 54.5631 155.525 53.6503 156.249C52.7375 156.972 52.0612 157.952 51.7078 159.062L46.0131 176.922C45.6137 178.182 45.6176 179.536 46.0242 180.794C46.4308 182.052 47.2198 183.151 48.2812 183.939L60.6228 193.085C62.0738 194.16 63.8702 194.663 65.6687 194.498L76.9366 193.442C77.9674 193.348 78.9494 192.96 79.7655 192.323C80.5816 191.687 81.1975 190.829 81.5398 189.852L87.6044 172.683C88.2428 170.865 88.2138 168.879 87.5228 167.081C86.8318 165.282 85.5236 163.787 83.8322 162.864L70.3929 155.544C68.6973 154.627 66.7704 154.227 64.8499 154.392Z" fill="#1F4060"/>
<path d="M58.2819 154.908L64.4981 154.417C66.6414 154.246 68.7869 154.719 70.6599 155.775L84.7116 163.659C84.9097 163.77 85.0669 163.942 85.1601 164.149C85.2533 164.356 85.2776 164.588 85.2294 164.81C85.1812 165.032 85.0631 165.232 84.8924 165.382C84.7217 165.532 84.5074 165.623 84.281 165.642L75.087 166.376C74.1309 166.457 73.173 166.245 72.3398 165.77L57.7179 157.358C57.475 157.217 57.2836 157.001 57.1718 156.743C57.0601 156.486 57.0339 156.199 57.0969 155.925C57.16 155.651 57.3089 155.405 57.5222 155.222C57.7354 155.039 58.0016 154.929 58.2819 154.908Z" fill="#2C5777"/>
<path d="M59.7315 191.556L49.1244 183.866C47.9437 183.011 47.0587 181.809 46.5924 180.428C46.1262 179.046 46.1018 177.554 46.5227 176.158L51.3744 160.111C51.5064 159.695 51.7301 159.313 52.0291 158.994C52.3281 158.676 52.6948 158.428 53.1021 158.27C53.5094 158.112 53.9469 158.047 54.3826 158.08C54.8182 158.113 55.241 158.243 55.6196 158.461L68.7374 165.945C69.5225 166.391 70.1314 167.092 70.4624 167.931C70.7935 168.771 70.8268 169.699 70.5568 170.56L63.4006 190.428C63.2762 190.78 63.0711 191.098 62.8018 191.356C62.5326 191.614 62.2066 191.806 61.8499 191.916C61.4933 192.025 61.1158 192.05 60.7479 191.987C60.38 191.925 60.032 191.777 59.7315 191.556Z" fill="#2C658C"/>
<path d="M71.6405 164.256C68.6185 163.148 66.6418 160.959 67.2254 159.368C67.8089 157.777 70.7317 157.386 73.7537 158.494C76.7756 159.602 78.7524 161.79 78.1689 163.382C77.5853 164.973 74.6624 165.364 71.6405 164.256Z" fill="#121A26"/>
<path d="M73.7284 172.762C73.7284 169.511 76.9669 168.25 81.3092 168.517C83.9716 168.674 85.2513 170.033 85.2271 172.204C85.2271 174.272 83.5592 176.17 80.909 176.449C78.2587 176.728 73.7284 175.776 73.7284 172.762Z" fill="#121A26"/>
<path d="M70.7144 180.446C71.044 179.332 71.7374 178.36 72.6839 177.686C73.6304 177.012 74.7755 176.675 75.9361 176.728C78.6955 176.728 81.5459 177.941 81.9583 180.058C82.3707 182.174 80.6301 185.188 77.8707 185.188C73.2313 185.188 69.7319 184.837 70.7144 180.446Z" fill="#121A26"/>
<path d="M68.1915 189.573C68.2091 188.393 68.6942 187.269 69.5402 186.447C70.3863 185.625 71.524 185.172 72.7036 185.188C75.1901 185.188 77.8586 186.159 78.2225 188.057C78.5863 189.955 76.6517 192.448 74.2319 193.012C70.7144 193.83 68.143 191.999 68.1915 189.573Z" fill="#121A26"/>
<path d="M239.885 133.457L243.218 128C243.914 126.859 244.869 125.898 246.005 125.194C247.142 124.49 248.428 124.063 249.759 123.948L262.686 123.876C267.005 123.855 270.046 125.016 271.242 128.816L275.446 142.153C276.386 145.134 276.711 148.275 276.403 151.385C276.095 154.496 275.16 157.511 273.653 160.25L273.153 161.117C271.344 164.407 267.171 164.939 263.504 164.159L246.795 161.698C243.669 161.048 242.808 158.997 242.004 155.878L238.523 139.589C238.095 137.795 238.914 135.054 239.885 133.457Z" fill="#2C658C"/>
<path d="M259.294 141.505C261.177 146.892 264.034 156.146 265.806 161.483C265.918 161.817 265.943 162.175 265.877 162.521C265.812 162.868 265.658 163.192 265.432 163.463C265.206 163.733 264.914 163.941 264.584 164.066C264.254 164.192 263.898 164.23 263.549 164.179L247.465 161.496C246.528 161.297 245.668 160.833 244.986 160.159C244.305 159.485 243.832 158.63 243.623 157.695L239.973 141.359C239.863 140.867 239.865 140.357 239.982 139.867C240.098 139.378 240.325 138.921 240.645 138.532C240.964 138.143 241.369 137.832 241.827 137.623C242.285 137.415 242.785 137.313 243.288 137.327C247.097 137.425 250.957 137.714 254.33 137.84C255.43 137.879 256.493 138.25 257.379 138.904C258.265 139.558 258.933 140.464 259.294 141.505Z" fill="#294E6D"/>
<path d="M260.8 163.761C260.758 163.733 260.714 163.708 260.669 163.685C258.188 162.743 256.821 161.604 255.941 159.114C255.41 157.584 254.533 156.198 253.377 155.064C252.182 153.834 251.336 153.08 251.601 151.349C251.823 149.908 252.55 148.613 252.599 147.121C252.704 144.016 250.989 140.12 248.347 137.614L254.336 137.83C255.438 137.868 256.502 138.238 257.389 138.893C258.276 139.548 258.944 140.455 259.305 141.497C261.188 146.884 264.045 156.139 265.817 161.475C265.929 161.81 265.954 162.167 265.889 162.514C265.823 162.86 265.67 163.184 265.443 163.455C265.217 163.725 264.925 163.933 264.595 164.059C264.266 164.184 263.909 164.223 263.561 164.171L260.8 163.761Z" fill="#1F4060"/>
<path d="M271.205 128.697L275.983 146.924C276.306 147.943 276.418 149.017 276.313 150.081C276.208 151.145 275.888 152.176 275.372 153.113L272.849 161.705C272.612 162.131 272.254 162.477 271.821 162.7C271.387 162.923 270.898 163.013 270.413 162.958C269.929 162.903 269.472 162.706 269.099 162.391C268.727 162.077 268.456 161.659 268.32 161.191C266.528 155.016 263.679 147.398 261.814 142.61C260.696 139.695 260.223 135.76 261.828 133.052C262.941 131.221 264.295 129.549 265.854 128.08C268.068 126.381 270.433 126.262 271.205 128.697Z" fill="#3276A0"/>
<path d="M245.544 132.243C245.995 134.786 249.046 136.366 252.358 135.785C255.67 135.204 257.991 132.664 257.54 130.121C257.09 127.578 253.392 125.625 250.092 126.185C249.395 126.283 248.724 126.517 248.118 126.874C247.512 127.232 246.982 127.706 246.559 128.269C246.137 128.832 245.83 129.473 245.655 130.155C245.481 130.837 245.443 131.546 245.544 132.243Z" fill="#121A26"/>
<path d="M264.895 140.901C266.682 141.723 269.142 140.215 270.353 137.511C271.564 134.807 271.395 129.338 269.605 128.508C267.816 127.678 265.239 130.721 263.981 133.398C262.723 136.075 263.137 140.089 264.895 140.901Z" fill="#121A26"/>
<path d="M266.9 143.629C268.144 140.939 270.542 139.4 272.257 140.192C273.971 140.984 274.354 143.808 273.11 146.499C271.867 149.19 269.469 150.729 267.754 149.936C266.039 149.144 265.657 146.32 266.9 143.629Z" fill="#121A26"/>
<path d="M270.048 157.73C268.64 156.841 268.628 154.332 270.022 152.126C271.415 149.92 273.685 148.852 275.092 149.74C276.5 150.629 276.512 153.138 275.119 155.344C273.726 157.551 271.455 158.619 270.048 157.73Z" fill="#121A26"/>
<path d="M274.361 149.503C274.361 149.503 277.936 149.971 278.331 155.108C278.643 159.419 274.399 165.751 270.545 166.264C264.824 167.029 260.013 163.075 260.056 160.537C260.142 155.888 264.74 157.604 266.866 155.862C268.992 154.121 269.162 153.098 270.54 151.681C272.942 149.293 274.361 149.503 274.361 149.503Z" fill="#3276A0"/>
<path d="M266.866 155.862C268.989 154.126 269.162 153.098 270.54 151.681C272.954 149.272 274.373 149.482 274.373 149.482C274.373 149.482 276.874 149.82 277.931 152.937C277.849 152.96 277.772 152.971 277.694 152.997C275.447 153.723 273.192 155.943 271.767 157.817C270.981 158.782 270.385 159.888 270.012 161.075C269.538 162.902 269.905 164.9 271.263 166.076C271.036 166.152 270.801 166.204 270.564 166.233C264.842 166.998 260.031 163.044 260.074 160.506C260.142 155.888 264.74 157.604 266.866 155.862Z" fill="#2C5777"/>
<path d="M268.854 158.229C266.3 159.268 262.239 159.024 260.264 159.159C261.178 156.241 264.988 157.404 266.866 155.862C268.989 154.126 269.162 153.098 270.54 151.681C272.954 149.272 274.373 149.482 274.373 149.482C275.409 149.712 276.329 150.305 276.965 151.154C275.521 154.032 271.586 157.124 268.854 158.229Z" fill="#294E6D"/>
<path d="M270.449 151.79C270.471 151.753 270.486 151.727 270.507 151.69C270.939 151.26 271.402 150.863 271.893 150.502C271.427 150.947 270.947 151.377 270.449 151.79Z" fill="#2C658C"/>
<path d="M266.196 160.189C267.054 160.707 267.693 161.52 267.993 162.476C268.294 163.432 268.235 164.466 267.827 165.381C267.684 165.684 267.493 165.961 267.261 166.203C263.1 165.502 260.024 162.571 260.035 160.525C260.04 160.159 260.082 159.793 260.16 159.435C262.25 159.017 264.378 159.006 266.196 160.189Z" fill="#2C658C"/>
<path d="M272.398 139.561C272.398 139.561 278.931 142.8 277.421 148.364C276.665 151.002 275.017 153.297 272.758 154.856C270.499 156.415 267.769 157.142 265.034 156.913C258.089 156.51 256.056 152.801 256.652 150.715C257.607 147.338 262.367 147.075 264.438 146.52C266.509 145.965 266.861 145.258 269.142 142.52C271.423 139.782 272.398 139.561 272.398 139.561Z" fill="#3276A0"/>
<path d="M264.448 146.525C266.52 145.97 266.872 145.263 269.153 142.526C271.434 139.788 272.409 139.567 272.409 139.567C273.396 140.092 274.308 140.748 275.12 141.517C274.045 142.397 273.054 143.374 272.16 144.437C269.583 147.312 266.326 152.273 269.649 155.894L270.011 156.249C268.416 156.801 266.728 157.029 265.044 156.919C258.099 156.515 256.067 152.807 256.662 150.721C257.607 147.337 262.367 147.074 264.448 146.525Z" fill="#2C5777"/>
<path d="M264.448 146.525C266.519 145.97 265.751 144.511 268.032 141.774C270.313 139.036 272.409 139.566 272.409 139.566C273.396 140.092 274.308 140.748 275.12 141.517C273.287 141.733 269.435 147.871 265.805 149.052C262.715 149.551 256.593 148.026 256.58 151.142C256.592 150.999 256.62 150.858 256.662 150.72C257.607 147.337 262.367 147.074 264.448 146.525Z" fill="#294E6D"/>
<path d="M265.834 145.568C266.347 144.765 266.551 143.538 268.027 141.771C270.308 139.033 272.403 139.564 272.403 139.564C272.403 139.564 272.645 139.703 273.044 139.934C271.48 142.691 268.888 144.716 265.834 145.568Z" fill="#1F4060"/>
<path d="M263.122 150.193C266.537 151.555 267.647 154.121 265.539 156.924L265.039 156.916C258.094 156.512 256.062 152.804 256.657 150.718C256.707 150.542 256.771 150.37 256.848 150.205C258.711 149.186 261.037 149.353 263.122 150.193Z" fill="#2C658C"/>
<path d="M89.6482 156.727C88.9568 161.148 82.8741 160.026 80.9819 161.348C79.0898 162.67 77.8222 163.853 75.2932 163.853C72.7643 163.853 68.3614 161.882 68.3614 159.098C68.3614 156.315 70.0413 154.362 76.3545 152.53C82.1523 150.85 90.3031 152.53 89.6482 156.727Z" fill="#3276A0"/>
<path d="M73.7285 153.391C72.8734 159.013 81.1153 159.608 84.9542 159.189C86.5441 159.073 88.0743 158.535 89.3875 157.631C88.029 160.966 82.7164 160.117 80.9819 161.336C79.0352 162.701 77.8222 163.841 75.2932 163.841C72.7643 163.841 68.3614 161.87 68.3614 159.086C68.3614 156.757 69.5682 154.993 73.7285 153.391Z" fill="#2C658C"/>
<path d="M71.0601 188.075C70.0533 190.198 70.4961 193.339 74.3168 194.552C80.5149 196.523 86.0458 194.17 85.033 190.307C84.372 187.766 83.0559 188.033 79.5748 186.984C75.9118 185.886 72.5156 184.994 71.0601 188.075Z" fill="#3276A0"/>
<path d="M69.8472 188.372C71.6302 185 75.6268 185.649 79.6052 186.984C81.176 187.511 82.3221 187.669 83.153 187.996C82.965 188.906 79.3323 188.39 77.2764 188.73C73.7528 189.337 74.0318 194.073 75.93 194.971C75.4085 194.861 74.8747 194.722 74.335 194.552C70.49 193.339 68.3492 191.174 69.8472 188.372Z" fill="#2C5777"/>
<path d="M70.7083 187.184C72.3607 188.104 74.1322 188.791 75.9725 189.227C73.8499 190.61 74.2804 194.2 75.9058 194.971C75.3842 194.861 74.8506 194.722 74.3108 194.552C70.4901 193.339 68.3492 191.174 69.8229 188.372C70.0561 187.933 70.3546 187.533 70.7083 187.184Z" fill="#2C658C"/>
<path d="M73.486 178.596C71.0237 180.112 69.8108 185.037 76.3484 187.123C81.279 188.694 88.2715 187.353 89.9392 184.321C91.607 181.289 90.3153 178.633 84.6327 178.257C78.9501 177.881 76.0756 177.007 73.486 178.596Z" fill="#3276A0"/>
<path d="M73.486 178.596C76.0635 177.007 78.9441 177.874 84.6327 178.25C86.1825 178.274 87.7029 178.678 89.0599 179.427C88.9568 179.475 85.7245 180.191 80.521 179.997C73.7165 179.742 74.2987 186.571 77.4887 187.42C77.1006 187.335 76.7245 187.238 76.3606 187.123C69.8472 185.037 71.0601 180.112 73.486 178.596Z" fill="#2C5777"/>
<path d="M73.3525 178.693C74.686 179.461 76.1128 180.054 77.5978 180.458C74.0136 181.968 74.8627 186.723 77.4826 187.42C77.0944 187.335 76.7184 187.238 76.3545 187.123C69.9563 185.079 70.9934 180.312 73.3525 178.693Z" fill="#2C658C"/>
<path d="M75.1963 172.489C74.5898 176.285 78.3438 179.16 85.5061 178.596C93.281 177.99 96.186 175.376 95.0519 171.585C93.9178 167.795 85.5546 169.16 82.1099 169.16C78.6652 169.16 75.6693 169.523 75.1963 172.489Z" fill="#3276A0"/>
<path d="M75.1962 172.489C75.6692 169.523 78.6712 169.178 82.1159 169.178H82.7224C81.9217 169.662 81.318 170.414 81.0182 171.3C80.7345 172.18 80.7562 173.131 81.0798 173.997C81.4034 174.863 82.01 175.595 82.8013 176.073C85.5122 177.656 89.63 176.849 92.4379 175.867C93.488 175.49 94.4323 174.866 95.1913 174.048C94.5848 176.51 91.504 178.172 85.5304 178.626C78.3377 179.142 74.5897 176.285 75.1962 172.489Z" fill="#2C658C"/>
<path d="M86.5189 153.731C87.5741 154.259 88.2837 155.49 86.5189 155.927C84.7541 156.363 80.7393 157.14 80.048 154.386C79.6113 152.67 82.8801 151.912 86.5189 153.731Z" fill="#468CAF"/>
<path d="M72.0486 155.259C72.8309 155.472 71.6788 156.788 72.455 158.079C73.3587 159.583 74.4018 159.529 74.2744 160.505C74.1713 161.615 70.0291 161.336 69.8047 158.583C69.6652 156.424 71.3026 155.059 72.0486 155.259Z" fill="#2C5777"/>
<path d="M92.6625 171.458C93.6147 172.41 92.2319 174.302 87.2043 174.527C83.1592 174.709 83.5109 171.373 86.337 171.003C87.4347 170.864 91.68 170.506 92.6625 171.458Z" fill="#468CAF"/>
<path d="M86.992 182.229C87.7683 183.211 87.5377 185.164 83.438 185.395C80.1389 185.583 80.4058 182.138 82.7346 181.756C83.614 181.61 86.2218 181.24 86.992 182.229Z" fill="#468CAF"/>
<path d="M82.8133 190.458C83.4198 191.241 83.5168 192.805 80.2359 192.993C77.5978 193.139 77.8101 190.386 79.6719 190.082C80.3754 189.967 82.1947 189.67 82.8133 190.458Z" fill="#468CAF"/>
<path d="M272.066 148.578C272.453 147.797 273.107 147.18 273.909 146.841C274.179 146.774 274.461 146.775 274.73 146.844C274.999 146.912 275.248 147.046 275.452 147.234C275.657 147.422 275.813 147.657 275.905 147.919C275.997 148.181 276.023 148.462 275.98 148.737C275.804 149.635 275.394 150.471 274.791 151.16C274.419 151.691 273.903 152.105 273.304 152.353C273.059 152.43 272.801 152.451 272.547 152.412C272.293 152.374 272.052 152.277 271.842 152.131C271.631 151.984 271.457 151.791 271.333 151.567C271.209 151.342 271.138 151.092 271.126 150.836C271.071 150.034 271.611 149.232 272.066 148.578Z" fill="#468CAF"/>
<rect width="12.7357" height="74.595" rx="4" transform="matrix(-1 0 0 1 267.657 101.279)" fill="#AD650E"/>
<rect width="39.4201" height="26.6844" rx="4" transform="matrix(-1 0 0 1 280.999 92.1825)" fill="#AD650E"/>
<rect width="39.4201" height="12.7357" rx="4" transform="matrix(-1 0 0 1 280.999 106.131)" fill="#975C17"/>
<rect width="3.63878" height="31.5361" rx="1.81939" transform="matrix(-1 0 0 1 291.309 89.7567)" fill="#FFE6BF"/>
<rect width="14.5551" height="37.6007" rx="4" transform="matrix(-1 0 0 1 289.49 86.7243)" fill="#FFB540"/>
<rect width="3.63878" height="31.5361" rx="1.81939" transform="matrix(-1 0 0 1 236.121 89.7567)" fill="#FFE6BF"/>
<rect width="13.9487" height="37.6007" rx="4" transform="matrix(-1 0 0 1 248.25 86.7243)" fill="#FFB540"/>
<path d="M270.078 128.423C270.078 128.423 276.611 131.663 275.1 137.227C274.344 139.865 272.696 142.159 270.437 143.718C268.178 145.277 265.449 146.004 262.713 145.775C255.768 145.372 253.736 141.664 254.331 139.577C255.287 136.2 260.046 135.937 262.117 135.382C264.188 134.827 264.541 134.12 266.822 131.382C269.102 128.645 270.078 128.423 270.078 128.423Z" fill="#3276A0"/>
<path d="M262.128 135.388C264.199 134.833 264.551 134.126 266.832 131.388C269.113 128.651 270.088 128.429 270.088 128.429C271.075 128.955 271.987 129.611 272.8 130.38C271.725 131.26 270.734 132.237 269.839 133.3C267.262 136.174 264.005 141.136 267.329 144.756L267.69 145.112C266.096 145.664 264.408 145.891 262.724 145.781C255.779 145.378 253.747 141.669 254.342 139.583C255.287 136.2 260.046 135.937 262.128 135.388Z" fill="#2C5777"/>
<path d="M262.128 135.388C264.199 134.833 263.431 133.374 265.712 130.636C267.993 127.898 270.088 128.429 270.088 128.429C271.075 128.955 271.987 129.611 272.8 130.38C270.966 130.596 267.115 136.733 263.484 137.915C260.395 138.414 254.272 136.889 254.259 140.005C254.272 139.862 254.299 139.72 254.342 139.583C255.287 136.2 260.046 135.937 262.128 135.388Z" fill="#294E6D"/>
<path d="M263.514 134.431C264.027 133.627 264.231 132.401 265.706 130.633C267.987 127.896 270.083 128.426 270.083 128.426C270.083 128.426 270.325 128.566 270.724 128.796C269.159 131.553 266.567 133.579 263.514 134.431Z" fill="#1F4060"/>
<path d="M260.802 139.055C264.217 140.418 265.326 142.984 263.218 145.787L262.719 145.778C255.774 145.375 253.741 141.667 254.337 139.58C254.387 139.404 254.45 139.233 254.528 139.067C256.39 138.049 258.717 138.216 260.802 139.055Z" fill="#2C658C"/>
<path d="M269.746 137.44C270.132 136.659 270.786 136.043 271.589 135.703C271.858 135.637 272.141 135.638 272.41 135.706C272.679 135.775 272.927 135.909 273.132 136.096C273.337 136.284 273.492 136.519 273.584 136.782C273.676 137.044 273.702 137.325 273.66 137.599C273.484 138.497 273.073 139.333 272.471 140.022C272.099 140.553 271.583 140.967 270.983 141.215C270.739 141.293 270.48 141.313 270.227 141.275C269.973 141.236 269.732 141.14 269.521 140.993C269.311 140.847 269.137 140.654 269.013 140.429C268.889 140.205 268.818 139.955 268.806 139.699C268.751 138.897 269.291 138.095 269.746 137.44Z" fill="#468CAF"/>
<path d="M256.832 124.992C260.141 126.041 266.892 129.4 267.645 138.042C268.398 146.684 263.88 150.105 259.796 147.39C256.933 145.485 260.095 138.662 249.636 135.781C245.747 134.706 245.401 129.058 248.828 126.519C251.032 124.886 254.677 124.308 256.832 124.992Z" fill="#3276A0"/>
<path d="M248.828 126.519C249.461 126.06 250.157 125.693 250.893 125.429C250.774 125.61 250.666 125.798 250.569 125.991C247.497 131.711 255.67 134.888 259.991 134.876C261.331 134.886 262.659 134.621 263.893 134.097C264.752 133.805 265.536 133.328 266.191 132.7C267.006 134.376 267.502 136.19 267.655 138.048C268.444 146.689 263.891 150.111 259.807 147.396C256.943 145.491 260.105 138.668 249.646 135.788C245.747 134.706 245.404 129.053 248.828 126.519Z" fill="#2C658C"/>
<path d="M247.487 132.237C249.748 134.278 253.055 133.946 255.459 135.677C258.455 137.827 258.183 140.541 258.453 143.834C258.508 144.66 258.648 145.478 258.872 146.275C257.56 143.585 258.6 138.254 249.631 135.778C247.444 135.174 246.38 133.124 246.475 130.995C246.749 131.457 247.09 131.876 247.487 132.237Z" fill="#2C5777"/>
<path d="M257.41 127.083C258.652 127.122 259.841 127.597 260.766 128.426C261.038 128.68 261.239 129 261.349 129.355C261.46 129.709 261.476 130.087 261.397 130.45C261.327 130.775 261.166 131.074 260.933 131.311C260.699 131.549 260.403 131.714 260.078 131.789C259.414 132.08 258.673 132.144 257.97 131.972C256.826 131.697 255.621 131.079 255.262 129.87C255.152 129.54 255.126 129.189 255.184 128.846C255.242 128.504 255.383 128.181 255.596 127.906C255.808 127.631 256.084 127.412 256.4 127.268C256.717 127.125 257.063 127.061 257.41 127.083Z" fill="#468CAF"/>
<path d="M273.317 159.062C273.759 158.393 274.533 157.32 275.43 157.355C275.771 157.353 276.1 157.483 276.348 157.718C276.596 157.952 276.744 158.273 276.762 158.614C276.686 159.445 276.362 160.234 275.833 160.878C275.661 161.1 275.47 161.306 275.26 161.493C275.002 161.811 274.655 162.045 274.264 162.164C274.232 162.179 274.201 162.197 274.171 162.216C273.903 162.294 273.616 162.28 273.356 162.178C273.095 162.076 272.876 161.891 272.732 161.651C272.606 161.403 272.547 161.126 272.56 160.848C272.574 160.569 272.659 160.299 272.809 160.064C272.938 159.711 273.109 159.375 273.317 159.062Z" fill="#468CAF"/>
<path d="M263.009 139.217C263.189 139.048 263.404 138.922 263.639 138.847C263.874 138.772 264.123 138.75 264.367 138.782C264.64 138.769 264.913 138.822 265.161 138.936C265.41 139.05 265.627 139.223 265.795 139.439C266.336 140.15 266.431 141.43 266.159 142.555C266.145 142.701 266.12 142.841 266.097 142.967C265.969 143.594 265.641 144.161 265.163 144.585C264.868 144.82 264.498 144.941 264.121 144.924C263.745 144.907 263.387 144.755 263.114 144.494C261.901 143.794 262.004 141.942 262.24 140.769C262.33 140.184 262.599 139.642 263.009 139.217Z" fill="#3276A0"/>
</g>
<defs>
<clipPath id="clip0">
<rect width="472" height="206" rx="16" fill="white"/>
</clipPath>
</defs>
</svg>
