<svg width="288" height="155" viewBox="0 0 288 155" fill="none" xmlns="http://www.w3.org/2000/svg">
<g clip-path="url(#clip0)">
<rect width="288" height="155" rx="8" fill="#404040"/>
<path d="M143.546 50.9791C110.678 50.9791 84.0237 77.6039 84.0138 109.889L83.9908 178.976V182.951C84.06 185.021 88.4304 188.401 100.581 191.205C112.024 193.838 127.265 195.306 143.497 195.313C159.728 195.319 174.973 193.871 186.416 191.235C198.668 188.414 203.016 185.002 203.016 182.938V179.022L203.036 109.932C203.036 77.6401 176.411 50.9857 143.543 50.9758L143.546 50.9791Z" fill="#121A26"/>
<path d="M143.53 97.0545C159.761 97.0545 175.002 98.519 186.445 101.158C198.695 103.989 203.042 107.411 203.042 109.465C203.042 111.519 198.691 114.941 186.442 117.762C174.996 120.395 159.755 121.846 143.523 121.84C127.292 121.833 112.047 120.375 100.604 117.732C88.3549 114.905 84.0105 111.479 84.0105 109.426C84.0105 107.372 88.3582 103.953 100.611 101.132C112.054 98.4993 127.298 97.0479 143.53 97.0545ZM143.53 95.3234C109.707 95.3234 82.2827 101.626 82.2827 109.426C82.2827 117.225 109.697 123.558 143.52 123.577C177.342 123.597 204.767 117.275 204.77 109.478C204.773 101.682 177.355 95.3464 143.53 95.3267V95.3234Z" fill="#468CAF"/>
<path d="M143.536 79.8687C159.768 79.8687 175.009 81.3332 186.452 83.9759C198.701 86.803 203.046 90.229 203.046 92.2826C203.046 94.3363 198.698 97.7557 186.445 100.576C175.002 103.209 159.758 104.66 143.526 104.654C127.295 104.647 112.054 103.193 100.611 100.55C88.3615 97.7195 84.0171 94.2968 84.0171 92.2431C84.0171 90.1895 88.3646 86.7668 100.617 83.9463C112.06 81.3135 127.305 79.8654 143.536 79.8687ZM143.536 78.1409C109.711 78.1409 82.2894 84.4433 82.2861 92.2431C82.2828 100.043 109.704 106.372 143.526 106.395C177.349 106.418 204.773 100.092 204.777 92.2925C204.78 84.4926 177.359 78.1606 143.536 78.1409Z" fill="#2A6D96"/>
<path d="M143.385 33.4086C109.562 33.4086 82.1314 60.8068 82.1215 94.6226V105.954C82.1215 113.754 109.536 120.086 143.362 120.105C177.188 120.125 204.609 113.803 204.609 106.003V94.672C204.622 60.8529 177.211 33.4184 143.385 33.4086Z" fill="#2C5777"/>
<path d="M143.408 40.0925C152.249 40.0925 159.416 38.594 159.416 36.7455C159.416 34.897 152.249 33.3984 143.408 33.3984C134.567 33.3984 127.4 34.897 127.4 36.7455C127.4 38.594 134.567 40.0925 143.408 40.0925Z" fill="#121A26"/>
<path d="M156.052 33.3721C153.436 34.0896 148.812 34.5701 143.546 34.5668C138.28 34.5635 133.673 34.083 131.04 33.3622C129.658 33.0002 128.792 32.319 128.795 31.8549C128.795 31.8549 127.39 35.3764 127.39 35.7186C127.39 37.7756 134.631 39.4441 143.54 39.4474C152.449 39.4507 159.689 37.8019 159.692 35.7285C159.692 35.202 158.534 32.0063 158.231 31.7299C158.014 32.149 157.705 32.5141 157.328 32.7983C156.951 33.0825 156.515 33.2786 156.052 33.3721Z" fill="#2C5777"/>
<path d="M138.83 34.4284C136.836 34.3099 135.026 34.1223 133.515 33.8788C133.278 35.4146 133.026 36.9505 132.758 38.4863C134.743 38.8787 136.752 39.1425 138.771 39.2761C138.784 38.8187 138.807 35.5835 138.83 34.4284Z" fill="#346F93"/>
<path d="M145.623 34.5408C144.945 34.5583 144.255 34.5671 143.553 34.5671H143.128C143.079 35.8835 143 39.1186 142.983 39.4444H143.549C144.388 39.4444 145.21 39.4302 146.018 39.4017C145.801 37.7956 145.708 36.1699 145.623 34.5408Z" fill="#346F93"/>
<path d="M154.914 33.6422C154.255 33.7804 153.505 33.9055 152.692 34.0174C153.12 35.5313 153.446 37.0682 153.739 38.6249C154.593 38.4697 155.439 38.2709 156.273 38.0292C155.809 36.5647 155.348 35.1067 154.914 33.6422Z" fill="#346F93"/>
<path d="M143.553 29.4327C135.397 29.4327 128.782 30.578 128.782 31.9965C128.782 32.4967 129.615 32.9838 131.05 33.3623C133.683 34.083 138.29 34.5668 143.556 34.5668C148.822 34.5668 153.449 34.1159 156.062 33.3721C157.273 33.043 158.333 32.5066 158.333 32.0063C158.323 30.5747 151.708 29.436 143.553 29.4327Z" fill="#4D9DBC"/>
<path d="M143.553 30.3971C140.808 30.3971 138.58 30.8875 138.58 31.493C138.58 31.707 138.86 31.9077 139.344 32.0756C140.222 32.3849 141.779 32.589 143.553 32.5923C145.327 32.5955 146.883 32.3981 147.762 32.0788C148.17 31.9307 148.526 31.7103 148.526 31.4963C148.526 30.9039 146.301 30.4004 143.553 30.3971Z" fill="#121A26"/>
<path d="M89.882 65.0687V65.1056V65.0855C89.8823 65.0799 89.8823 65.0743 89.882 65.0687Z" fill="#121A26"/>
<path d="M204.777 92.1611L204.711 91.934C204.711 92.1676 204.731 92.398 204.737 92.6317C204.762 92.476 204.775 92.3187 204.777 92.1611Z" fill="#121A26"/>
<path d="M186.692 89.8572L186.613 89.199C186.052 84.7509 183.765 80.7015 180.247 77.9233C176.728 75.145 172.258 73.8605 167.801 74.3463C161.084 75.0704 152.741 75.7681 143.526 76.0873C134.311 75.7582 125.965 75.0704 119.248 74.3463C114.79 73.8615 110.32 75.1479 106.802 77.9281C103.284 80.7083 100.999 84.7596 100.44 89.2089L100.357 89.8671C100.119 91.7595 100.257 93.6803 100.763 95.5193C101.269 97.3583 102.133 99.0792 103.306 100.583C104.479 102.087 105.938 103.344 107.599 104.283C109.259 105.222 111.088 105.823 112.982 106.053C123.117 107.26 133.316 107.855 143.523 107.833C153.731 107.855 163.931 107.26 174.068 106.053C175.962 105.823 177.792 105.221 179.453 104.282C181.115 103.343 182.574 102.085 183.747 100.58C184.92 99.0746 185.784 97.3525 186.29 95.5124C186.795 93.6722 186.932 91.7503 186.692 89.8572Z" fill="#121A26"/>
<path d="M174.087 102.804C163.951 104.009 153.751 104.602 143.543 104.581C133.336 104.602 123.137 104.009 113.002 102.804C106.206 101.975 100.361 96.7353 100.361 90.0479C99.9335 93.8419 101.022 97.6512 103.39 100.647C105.757 103.642 109.212 105.581 113.002 106.043C123.137 107.25 133.336 107.845 143.543 107.823C153.751 107.845 163.951 107.25 174.087 106.043C177.877 105.581 181.332 103.642 183.699 100.647C186.067 97.6512 187.156 93.8419 186.728 90.0479C186.712 97.1302 180.867 101.991 174.087 102.804Z" fill="#468CAF"/>
<path d="M143.52 123.554C109.697 123.554 82.2794 117.212 82.2827 109.403L82.2631 160.994C82.2631 165.41 91.0634 169.359 104.843 171.953H104.935C106.106 172.169 107.308 172.147 108.47 171.886C109.631 171.626 110.728 171.134 111.694 170.438C112.661 169.743 113.476 168.86 114.092 167.841C114.708 166.823 115.112 165.69 115.279 164.512C115.279 164.485 115.279 164.462 115.279 164.443C116.378 157.672 119.875 151.522 125.133 147.116C130.39 142.709 137.057 140.341 143.915 140.442C150.774 140.543 157.368 143.108 162.492 147.668C167.617 152.227 170.931 158.478 171.83 165.279C171.83 165.279 171.83 165.302 171.83 165.315C171.952 166.374 172.288 167.397 172.817 168.322C173.347 169.247 174.059 170.055 174.91 170.697C175.762 171.339 176.734 171.801 177.77 172.055C178.805 172.31 179.881 172.351 180.933 172.177L182.15 171.963C195.93 169.376 204.734 165.436 204.737 161.017V109.429C204.767 117.252 177.346 123.567 143.52 123.554Z" fill="#2C5777"/>
<path d="M91.0041 159.256C88.6214 153.332 88.1212 146.852 87.0154 140.619C86.5876 138.226 86.1037 135.843 85.4981 133.49C85.1493 132.141 84.7675 130.801 84.3331 129.478C84.1521 128.935 83.9646 128.392 83.7671 127.856C83.7309 127.764 83.6421 127.527 83.54 127.28C83.3492 126.865 83.0464 126.2 82.9378 125.987C82.7271 125.575 82.5033 125.167 82.2795 124.766V161.004C82.2795 164.624 88.1508 167.915 97.8035 170.403C94.894 167.12 92.5916 163.345 91.0041 159.256Z" fill="#1F4060"/>
<path d="M204.227 123.752C204.181 123.847 204.125 123.959 204.066 124.081C203.661 125.141 203.243 126.194 202.855 127.26C201.617 130.648 200.698 134.144 200.11 137.703C200.014 138.288 199.935 138.874 199.84 139.46C199.84 139.539 199.817 139.602 199.81 139.651C199.702 140.457 199.597 141.264 199.481 142.07C199.334 143.167 199.175 144.256 199.004 145.338C198.27 150.018 197.303 154.694 195.687 159.16C194.288 163.024 192.567 166.796 190.25 170.169C199.29 167.711 204.747 164.531 204.75 161.053V122.679C204.582 123.028 204.401 123.383 204.227 123.752Z" fill="#1F4060"/>
<path opacity="0.57" d="M186.439 123.163C186.828 123.083 187.23 123.092 187.615 123.188C188.001 123.283 188.36 123.464 188.667 123.716C188.974 123.969 189.221 124.286 189.389 124.646C189.558 125.006 189.643 125.398 189.641 125.796V160.352C189.636 162.169 188.911 163.911 187.626 165.196C186.341 166.481 184.6 167.205 182.782 167.21C180.965 167.204 179.225 166.48 177.94 165.195C176.656 163.91 175.932 162.169 175.927 160.352V128.517C175.926 127.473 176.304 126.464 176.991 125.677C177.678 124.89 178.627 124.379 179.662 124.239C182.088 123.91 184.355 123.577 186.439 123.163Z" fill="#468CAF"/>
<path opacity="0.57" d="M100.617 123.163C100.228 123.083 99.8262 123.092 99.4407 123.188C99.0552 123.283 98.696 123.464 98.3891 123.716C98.0823 123.969 97.8356 124.286 97.6671 124.646C97.4986 125.006 97.4125 125.398 97.4152 125.796V160.352C97.4204 162.169 98.1443 163.91 99.4287 165.195C100.713 166.48 102.454 167.204 104.27 167.21C106.088 167.205 107.829 166.481 109.115 165.196C110.4 163.911 111.124 162.169 111.129 160.352V128.517C111.129 127.473 110.751 126.464 110.064 125.677C109.377 124.891 108.429 124.38 107.394 124.239C104.975 123.91 102.697 123.577 100.617 123.163Z" fill="#468CAF"/>
<path d="M143.553 187.039C153.295 187.039 161.193 179.142 161.193 169.399C161.193 159.657 153.295 151.759 143.553 151.759C133.81 151.759 125.913 159.657 125.913 169.399C125.913 179.142 133.81 187.039 143.553 187.039Z" fill="#2C5777"/>
<path d="M128.513 170.36C128.387 170.36 128.262 170.336 128.145 170.287C128.029 170.239 127.923 170.168 127.834 170.079C127.745 169.989 127.675 169.884 127.627 169.767C127.579 169.65 127.554 169.525 127.555 169.399C127.56 165.158 129.247 161.092 132.246 158.093C135.245 155.094 139.312 153.407 143.553 153.401C143.798 153.416 144.027 153.523 144.196 153.702C144.364 153.88 144.458 154.116 144.458 154.361C144.458 154.606 144.364 154.842 144.196 155.02C144.027 155.199 143.798 155.306 143.553 155.32C139.82 155.325 136.241 156.809 133.601 159.449C130.961 162.088 129.476 165.666 129.47 169.399C129.471 169.525 129.446 169.65 129.398 169.767C129.35 169.884 129.28 169.989 129.191 170.079C129.102 170.168 128.996 170.239 128.88 170.287C128.763 170.336 128.639 170.36 128.513 170.36Z" fill="#468CAF"/>
<path d="M143.023 12.0001C138.876 12.0001 139.241 30.9468 139.241 30.9468C139.241 30.9468 139.946 31.7301 143.52 31.7301C147.094 31.7301 147.946 30.9863 147.946 30.9863C147.946 30.9863 146.933 12.0001 143.023 12.0001Z" fill="#2C5777"/>
<path d="M120.979 96.074C123.611 96.074 125.745 93.0401 125.745 89.2977C125.745 85.5552 123.611 82.5214 120.979 82.5214C118.347 82.5214 116.214 85.5552 116.214 89.2977C116.214 93.0401 118.347 96.074 120.979 96.074Z" fill="#4FC997"/>
<path d="M166.126 96.074C168.758 96.074 170.892 93.0401 170.892 89.2977C170.892 85.5552 168.758 82.5214 166.126 82.5214C163.494 82.5214 161.361 85.5552 161.361 89.2977C161.361 93.0401 163.494 96.074 166.126 96.074Z" fill="#4FC997"/>
<path d="M142.43 28.765C141.706 28.765 141.177 28.1528 141.114 27.0898C140.893 22.5942 141.772 16.8513 141.772 16.8513C141.792 16.3148 142.138 15.8969 142.559 15.8969C142.784 15.9241 142.99 16.0357 143.136 16.2092C143.282 16.3827 143.357 16.6051 143.345 16.8315C143.345 16.8315 144.082 24.944 143.743 27.0898C143.599 28.2022 143.151 28.765 142.43 28.765Z" fill="#468CAF"/>
<path d="M142.786 14.4288C143.21 14.4288 143.553 14.0855 143.553 13.662C143.553 13.2385 143.21 12.8951 142.786 12.8951C142.363 12.8951 142.019 13.2385 142.019 13.662C142.019 14.0855 142.363 14.4288 142.786 14.4288Z" fill="#468CAF"/>
<path d="M128.341 45.0029C119.989 43.2817 114.71 47.4713 111.619 50.0942C106.587 54.3726 107.183 59.51 117.448 62.1626C130.316 65.4899 148.802 64.7658 154.966 64.0155C166.577 62.5937 162.884 56.4262 161.502 53.3524C160.024 50.0613 158.112 45.5328 149.822 45.9804C142.388 46.372 132.175 45.7928 128.341 45.0029Z" fill="#468CAF"/>
<g opacity="0.5">
<path opacity="0.5" d="M166.35 45.207C170.204 43.6142 187.554 56.8213 179.982 61.5275C176.315 63.8017 173.604 58.9572 170.368 54.6952C166.429 49.5019 164.083 46.1483 166.35 45.207Z" fill="#468CAF"/>
</g>
<path d="M85.3928 110.877C85.3928 110.877 104.994 125.358 142.328 125.358C179.662 125.358 200.58 112.193 200.58 112.193C200.58 112.193 195.479 175.217 144.303 175.217C93.1268 175.217 85.3928 110.877 85.3928 110.877Z" fill="#A8C6BF"/>
<path d="M108.098 140.401C113.887 147.069 121.4 154.385 126.199 158.864C126.649 159.284 127.206 159.573 127.809 159.699C128.411 159.826 129.037 159.785 129.619 159.582C130.2 159.379 130.715 159.02 131.107 158.546C131.5 158.071 131.755 157.499 131.846 156.889C132.267 154.105 132.774 150.91 133.238 148.145C133.512 146.516 133.133 144.845 132.183 143.494C131.233 142.143 129.789 141.221 128.163 140.928C122.211 139.853 116.328 138.424 110.546 136.649C110.062 136.497 109.542 136.508 109.064 136.679C108.586 136.85 108.178 137.173 107.901 137.597C107.623 138.022 107.492 138.526 107.528 139.032C107.564 139.539 107.764 140.019 108.098 140.401Z" fill="#B6D8D0"/>
<path d="M179.682 140.401C173.893 147.069 166.38 154.385 161.581 158.864C161.131 159.284 160.574 159.573 159.971 159.699C159.368 159.826 158.743 159.785 158.161 159.582C157.58 159.379 157.065 159.02 156.673 158.546C156.28 158.071 156.024 157.499 155.934 156.889C155.512 154.105 155.006 150.91 154.542 148.145C154.268 146.516 154.647 144.845 155.597 143.494C156.547 142.143 157.991 141.221 159.616 140.928C165.568 139.853 171.451 138.424 177.234 136.649C177.718 136.497 178.238 136.508 178.716 136.679C179.193 136.85 179.602 137.173 179.879 137.597C180.157 138.022 180.288 138.526 180.252 139.032C180.216 139.539 180.016 140.019 179.682 140.401Z" fill="#B6D8D0"/>
<path d="M137.941 138.081C137.941 138.081 133.551 160.352 132.728 171.212L154.449 170.992C154.449 160.681 149.43 138.081 149.43 138.081H137.941Z" fill="#4FC997"/>
<path d="M132.745 118.795C132.745 118.795 137.27 119.124 142.74 119.124C148.21 119.124 155.782 118.795 155.782 118.795C155.782 118.795 157.981 121.198 157.981 126.177C157.981 129.346 151.211 138.63 151.211 138.63C151.026 138.906 150.777 139.133 150.484 139.289C150.191 139.446 149.865 139.528 149.533 139.529H137.8C137.463 139.529 137.132 139.444 136.837 139.284C136.541 139.123 136.291 138.89 136.108 138.607C136.108 138.607 129.658 130.169 129.658 125.917C129.658 119.802 132.745 118.795 132.745 118.795Z" fill="#4FC997"/>
<g style="mix-blend-mode:screen" opacity="0.35">
<path d="M133.337 157.663C136.572 155.636 148.052 147.714 151.537 143.959" stroke="#61E5AC" stroke-width="10" stroke-miterlimit="10"/>
</g>
<g style="mix-blend-mode:screen" opacity="0.35">
<path d="M131 174.889C135.335 172.996 150.556 161.915 155.081 155.745" stroke="#61E5AC" stroke-width="10" stroke-miterlimit="10"/>
</g>
<g style="mix-blend-mode:multiply" opacity="0.44">
<path d="M136.493 167.326C136.533 164.387 136.75 161.438 137.023 158.516C137.369 154.784 137.876 150.989 139.064 147.418C139.929 144.815 142.121 140.872 145.458 142.952C147.288 144.091 147.92 146.533 148.219 148.521C148.591 151.002 150.276 158.762 150.645 170.837C150.645 170.903 150.668 170.966 150.678 171.032L154.449 170.992C154.449 160.681 149.746 139.529 149.746 139.529H137.658C137.658 139.529 133.551 160.352 132.722 171.213L136.483 171.173C136.395 169.827 136.48 168.438 136.493 167.326Z" fill="#4FC997"/>
</g>
<g style="mix-blend-mode:screen" opacity="0.35">
<path d="M131.195 135.478C131.195 135.478 139.623 121.27 144.277 117.43" stroke="#61E5AC" stroke-width="10" stroke-miterlimit="10"/>
</g>
<g style="mix-blend-mode:screen" opacity="0.35">
<path d="M139.804 141.757C141.562 138.081 152.998 122.261 156.371 117.9" stroke="#61E5AC" stroke-width="10" stroke-miterlimit="10"/>
</g>
<g style="mix-blend-mode:multiply" opacity="0.44">
<path d="M155.782 118.795C155.782 118.795 153.709 118.884 150.948 118.969C151.631 119.878 152.19 120.874 152.61 121.931C154.196 126.032 152.906 131.163 149.398 133.852C145.208 137.067 139.195 135.941 136.128 131.768C133.548 128.257 132.837 122.599 135.407 118.933C133.762 118.854 132.745 118.782 132.745 118.782C132.745 118.782 129.645 119.789 129.645 125.904C129.645 130.156 136.108 138.594 136.108 138.594C136.291 138.877 136.541 139.109 136.837 139.27C137.132 139.431 137.463 139.515 137.8 139.516H149.533C149.865 139.515 150.191 139.433 150.484 139.276C150.777 139.119 151.026 138.893 151.211 138.617C151.211 138.617 157.981 129.333 157.981 126.164C157.981 121.197 155.782 118.795 155.782 118.795Z" fill="#4FC997"/>
</g>
<path d="M83.2537 102.485C83.2537 102.485 107.772 117.295 134.924 117.295C129.408 122.808 128.434 133.773 128.22 136.969C128.212 137.082 128.18 137.193 128.127 137.293C128.074 137.393 128 137.482 127.911 137.552C127.822 137.622 127.719 137.673 127.609 137.701C127.499 137.73 127.384 137.735 127.272 137.716C123.046 137.002 104.623 133.635 91.3168 126.856C76.1779 119.105 83.2537 102.485 83.2537 102.485Z" fill="#E3F0F1"/>
<path d="M106.433 126.905C90.2473 117.121 86.5843 104.756 86.5843 104.318C84.4418 103.203 83.2537 102.485 83.2537 102.485C83.2537 102.485 76.1779 119.105 91.3168 126.839C104.623 133.635 123.046 137.002 127.272 137.7C127.384 137.718 127.499 137.713 127.609 137.685C127.719 137.657 127.822 137.606 127.911 137.535C128 137.465 128.074 137.377 128.127 137.277C128.18 137.176 128.212 137.066 128.22 136.953C128.259 136.327 128.332 135.396 128.463 134.27C120.719 133.095 113.532 131.2 106.433 126.905Z" fill="#CEEAE4"/>
<path d="M127.624 137.808C127.414 137.807 127.213 137.727 127.061 137.583C126.909 137.44 126.817 137.243 126.804 137.034C126.804 136.811 126.495 131.44 128.881 124.643C130.527 119.95 132.241 117.538 134.117 117.268C134.554 117.216 134.997 117.279 135.402 117.452C135.806 117.626 136.158 117.903 136.421 118.256C136.586 118.469 136.681 118.727 136.694 118.996L134.331 118.897C133.907 118.966 132.38 119.621 130.425 125.19C128.154 131.657 128.45 136.883 128.45 136.936C128.463 137.153 128.388 137.367 128.243 137.53C128.098 137.693 127.894 137.792 127.677 137.804L127.624 137.808Z" fill="#B6D8D0"/>
<path d="M203.723 102.485C203.723 102.485 179.205 117.295 152.053 117.295C157.569 122.808 158.544 133.773 158.761 136.969C158.768 137.082 158.8 137.193 158.852 137.293C158.905 137.393 158.979 137.481 159.068 137.552C159.157 137.622 159.259 137.673 159.369 137.701C159.479 137.73 159.593 137.735 159.705 137.716C163.934 137.002 182.354 133.635 195.66 126.856C210.799 119.105 203.723 102.485 203.723 102.485Z" fill="#E3F0F1"/>
<path d="M180.544 126.905C196.73 117.121 200.396 104.756 200.396 104.318C202.535 103.203 203.723 102.485 203.723 102.485C203.723 102.485 210.799 119.105 195.66 126.839C182.354 133.635 163.934 137.002 159.705 137.7C159.593 137.718 159.479 137.713 159.369 137.685C159.259 137.657 159.157 137.606 159.068 137.535C158.979 137.465 158.905 137.377 158.852 137.276C158.8 137.176 158.768 137.066 158.761 136.953C158.718 136.327 158.646 135.396 158.517 134.27C166.258 133.095 173.446 131.2 180.544 126.905Z" fill="#CEEAE4"/>
<path d="M159.353 137.808C159.563 137.808 159.765 137.728 159.918 137.585C160.071 137.441 160.163 137.244 160.176 137.034C160.176 136.811 160.482 131.44 158.096 124.643C156.45 119.95 154.736 117.538 152.86 117.268C152.423 117.216 151.98 117.279 151.575 117.452C151.171 117.626 150.819 117.903 150.556 118.256C150.393 118.469 150.298 118.727 150.286 118.996L152.649 118.897C153.07 118.966 154.601 119.621 156.552 125.19C158.823 131.657 158.547 136.883 158.544 136.936C158.536 137.043 158.551 137.152 158.586 137.254C158.621 137.356 158.675 137.45 158.747 137.531C158.819 137.612 158.906 137.678 159.003 137.724C159.1 137.771 159.206 137.799 159.314 137.804L159.353 137.808Z" fill="#B6D8D0"/>
<path d="M81.0617 109.998L78.2084 152.782V173.187H123.517L81.0617 109.998Z" fill="#090E16"/>
<path d="M50.1651 174.25L22 149.965C31.2775 139.203 43.2242 130.218 56.5563 123.965C66.4295 119.358 72.6267 117.225 75.1674 117.429C88.4239 134.214 83.744 153.96 80.0415 154.618C77.7378 155.023 64.0501 158.146 50.1651 174.25Z" fill="#0D111E"/>
<path d="M73.9562 115.731C74.1537 117.176 73.298 121.178 73.8739 127.332C74.4038 133.115 75.6906 141.155 71.5702 145.282C69.0328 147.819 65.5344 150.087 61.5094 152.605C47.7231 161.231 43.4084 167.563 42.951 168.02L50.1914 174.25C64.0764 158.147 77.7508 154.938 80.0545 154.629C97.076 152.345 80.0184 129.774 73.9562 115.731Z" fill="#090E16"/>
<path d="M42.5067 150.699C41.5956 150.666 40.7149 150.362 39.9761 149.828C39.2373 149.294 38.6736 148.552 38.3564 147.697C38.0393 146.842 37.9829 145.913 38.1944 145.026C38.406 144.139 38.8759 143.335 39.5448 142.715C49.6977 133.299 62.4606 128.738 62.9971 128.563C64.1497 128.157 65.4164 128.225 66.5188 128.753C67.6211 129.281 68.4686 130.225 68.8749 131.377C69.2812 132.53 69.213 133.797 68.6853 134.899C68.1576 136.001 67.2135 136.849 66.0609 137.255C65.8437 137.331 54.483 141.445 45.811 149.485C44.9137 150.311 43.7255 150.748 42.5067 150.699Z" fill="#121A27"/>
<path d="M82.2861 95.5172C82.2861 95.5172 79.1957 95.9549 76.5629 102.484C73.93 109.014 72.6136 112.42 72.6136 117.242C72.6136 121.273 79.594 141.457 81.8879 147.974C82.097 148.568 82.4853 149.083 82.9993 149.447C83.5133 149.811 84.1276 150.007 84.7576 150.008H94.7724L126.772 170.682C126.772 170.682 92.0705 134.461 82.2861 95.5172Z" fill="#121C2B"/>
<path d="M82.2861 95.5172C82.2861 95.5172 79.1957 95.9549 76.5629 102.484C73.93 109.014 72.6136 112.42 72.6136 117.242C72.6136 121.273 79.594 141.457 81.8879 147.974C82.097 148.568 82.4853 149.083 82.9993 149.447C83.5133 149.811 84.1276 150.007 84.7576 150.008H94.7724L126.772 170.682C126.772 170.682 92.0705 134.461 82.2861 95.5172ZM93.2882 145.104C92.0837 148.016 88.8848 147.687 86.377 147.687C84.2641 147.687 83.4644 146.746 82.9213 145.364C80.3708 138.864 76.3655 126.025 75.7369 123.037C74.4205 116.863 77.3461 108.816 80.0547 106.105C80.884 105.279 82.319 106.124 82.7864 107.595C85.6101 116.481 92.5213 131.999 94.4038 135.784C95.8716 138.722 94.5059 142.142 93.2882 145.104Z" fill="#0D111E"/>
<path d="M90.6748 166.457C90.6748 168.579 94.8183 176.33 95.3219 175.928L126.785 170.682L99.3205 134.244C97.7079 133.098 89.8685 158.519 90.6748 166.457Z" fill="#121C2B"/>
<path d="M99.3205 134.244C97.7079 133.112 89.8685 158.532 90.6748 166.47C90.6766 166.566 90.6844 166.661 90.698 166.756V166.839C90.7144 166.937 90.7308 167.039 90.7571 167.148C90.7571 167.148 90.7571 167.171 90.7571 167.184C90.7867 167.309 90.8197 167.444 90.8625 167.582C90.8682 167.61 90.8759 167.638 90.8855 167.665C90.925 167.796 90.9645 167.931 91.0139 168.069C91.0129 168.084 91.0129 168.098 91.0139 168.112C91.0666 168.273 91.1258 168.441 91.1916 168.609C91.1898 168.621 91.1898 168.633 91.1916 168.645C91.2542 168.813 91.3199 168.974 91.3923 169.165C92.6166 172.196 94.9072 176.215 95.2725 175.925L98.139 175.448C96.6021 172.874 95.9044 171.999 94.7723 169.169C94.2244 167.795 93.795 166.377 93.4888 164.93C92.7944 158.38 95.9867 147.757 97.7935 143.59C98.8006 141.27 99.9261 141.991 101.387 143.455C103.609 145.677 114.019 161.803 123.684 171.759L127.258 171.199L99.3205 134.244Z" fill="#0D111E"/>
<path d="M205.942 109.998L208.795 152.782V173.187H163.487L205.942 109.998Z" fill="#090E16"/>
<path d="M236.835 174.25L265 149.965C255.723 139.203 243.776 130.218 230.444 123.965C220.571 119.358 214.377 117.225 211.833 117.429C198.58 134.214 203.256 153.96 206.962 154.618C209.262 155.023 222.95 158.146 236.835 174.25Z" fill="#121A27"/>
<path d="M206.314 126.697C206.113 128.161 206.055 129.641 206.139 131.117C206.468 136.916 207.301 141.395 211.757 145.183C215.397 148.28 221.479 150.087 225.504 152.604C239.29 161.23 243.605 167.562 244.062 168.02L236.822 174.25C222.937 158.146 209.249 155.023 206.962 154.628C203.938 154.105 200.251 140.74 206.314 126.697Z" fill="#0D111E"/>
<path d="M244.494 150.699C245.405 150.666 246.285 150.362 247.024 149.828C247.763 149.294 248.327 148.552 248.644 147.697C248.961 146.842 249.017 145.913 248.806 145.026C248.594 144.139 248.124 143.335 247.456 142.715C237.303 133.299 224.54 128.738 224.003 128.563C223.433 128.362 222.828 128.275 222.223 128.308C221.619 128.34 221.027 128.492 220.482 128.753C219.936 129.014 219.447 129.38 219.042 129.831C218.638 130.281 218.327 130.806 218.125 131.377C217.924 131.948 217.837 132.553 217.87 133.157C217.902 133.761 218.054 134.353 218.315 134.899C218.576 135.445 218.943 135.934 219.393 136.338C219.843 136.742 220.368 137.054 220.939 137.255C221.16 137.331 232.517 141.445 241.189 149.485C242.087 150.311 243.275 150.748 244.494 150.699Z" fill="#1A2638"/>
<path d="M204.714 95.5172C204.714 95.5172 207.808 95.9549 210.441 102.484C213.073 109.014 214.39 112.42 214.39 117.242C214.39 121.273 207.406 141.457 205.112 147.974C204.904 148.568 204.515 149.083 204.001 149.448C203.487 149.812 202.873 150.008 202.242 150.008H192.215L160.216 170.682C160.216 170.682 194.933 134.461 204.714 95.5172Z" fill="#121A27"/>
<path d="M206.998 137.041C208.848 131.173 210.141 126.039 209.766 120.585C209.608 118.282 207.765 113.016 206.722 111.492C205.284 109.396 203.677 110.669 202.582 112.022C201.532 113.319 199.234 117.788 197.046 122.033C192.962 129.952 185.619 138.235 184.411 139.456C192.639 126.766 200.745 111.367 204.727 95.5172C204.727 95.5172 207.821 95.9549 210.454 102.484C213.087 109.014 214.403 112.42 214.403 117.242C214.403 121.273 207.419 141.457 205.126 147.974C204.917 148.568 204.528 149.083 204.014 149.446C203.5 149.81 202.885 150.005 202.256 150.004H199.429C204.036 150.004 204.836 143.84 206.998 137.041Z" fill="#1A2638"/>
<path d="M187.986 133.723C189.486 133.723 192.537 140.891 193.992 145.028C195.186 148.424 198.428 149.682 201.005 150.004H192.215L160.216 170.682C160.216 170.682 174.775 156.096 187.986 133.723Z" fill="#0D111E"/>
<path d="M196.325 166.457C196.325 168.579 192.182 176.33 191.681 175.928L160.216 170.682L187.679 134.244C189.295 133.098 197.125 158.519 196.325 166.457Z" fill="#121A27"/>
<path d="M187.679 134.244C189.295 133.112 197.131 158.532 196.325 166.47C196.325 167.24 195.779 168.751 195.058 170.347C195.15 169.03 195.387 166.848 195.246 165.466C194.561 158.045 190.967 147.777 189.157 143.607C188.15 141.287 186.11 141.672 184.741 143.222C183.046 145.144 162.137 170.735 161.95 171.196L159.692 171.212L187.679 134.244Z" fill="#1A2638"/>
</g>
<defs>
<clipPath id="clip0">
<rect width="288" height="155" rx="8" fill="white"/>
</clipPath>
</defs>
</svg>
