<svg width="472" height="206" viewBox="0 0 472 206" fill="none" xmlns="http://www.w3.org/2000/svg">
<g clip-path="url(#clip0)">
<rect width="472" height="206" rx="16" fill="#404040"/>
<path d="M236.065 68.8594C189.806 68.8594 152.292 106.331 152.279 151.77L152.246 249.003V254.598C152.343 257.511 158.494 262.268 175.595 266.215C191.7 269.92 213.151 271.986 235.995 271.995C258.84 272.005 280.295 269.967 296.4 266.256C313.644 262.287 319.763 257.484 319.763 254.579V249.068L319.791 151.83C319.791 106.382 282.319 68.8686 236.06 68.8547L236.065 68.8594Z" fill="#121A26"/>
<path d="M236.042 133.706C258.886 133.706 280.336 135.767 296.441 139.482C313.681 143.465 319.8 148.283 319.8 151.173C319.8 154.063 313.677 158.88 296.437 162.85C280.327 166.555 258.877 168.598 236.032 168.589C213.188 168.58 191.733 166.528 175.628 162.808C158.388 158.829 152.274 154.008 152.274 151.117C152.274 148.227 158.393 143.414 175.637 139.445C191.743 135.739 213.197 133.697 236.042 133.706ZM236.042 131.27C188.44 131.27 149.842 140.14 149.842 151.117C149.842 162.095 188.426 171.007 236.028 171.034C283.63 171.062 322.227 162.164 322.232 151.191C322.236 140.218 283.648 131.302 236.042 131.274V131.27Z" fill="#468CAF"/>
<path d="M236.051 109.519C258.895 109.519 280.346 111.58 296.451 115.299C313.691 119.278 319.805 124.1 319.805 126.99C319.805 129.88 313.686 134.693 296.441 138.662C280.336 142.368 258.882 144.411 236.037 144.401C213.193 144.392 191.742 142.345 175.637 138.625C158.397 134.642 152.283 129.825 152.283 126.935C152.283 124.044 158.402 119.227 175.646 115.258C191.751 111.552 213.206 109.514 236.051 109.519ZM236.051 107.087C188.444 107.087 149.852 115.957 149.847 126.935C149.842 137.912 188.435 146.819 236.037 146.852C283.639 146.884 322.236 137.982 322.241 127.004C322.246 116.026 283.653 107.115 236.051 107.087Z" fill="#2A6D96"/>
<path d="M235.838 44.1304C188.236 44.1304 149.629 82.6908 149.615 130.283V146.231C149.615 157.209 188.199 166.12 235.806 166.148C283.412 166.176 322.005 157.278 322.005 146.3V130.353C322.023 82.7557 283.444 44.1443 235.838 44.1304Z" fill="#2C5777"/>
<path d="M235.87 53.5373C248.313 53.5373 258.4 51.4283 258.4 48.8267C258.4 46.2251 248.313 44.1161 235.87 44.1161C223.428 44.1161 213.341 46.2251 213.341 48.8267C213.341 51.4283 223.428 53.5373 235.87 53.5373Z" fill="#121A26"/>
<path d="M253.666 44.0791C249.984 45.0889 243.476 45.7651 236.065 45.7605C228.654 45.7559 222.169 45.0796 218.464 44.0652C216.518 43.5557 215.3 42.5969 215.305 41.9438C215.305 41.9438 213.327 46.8999 213.327 47.3817C213.327 50.2766 223.517 52.6249 236.056 52.6296C248.594 52.6342 258.784 50.3137 258.789 47.3956C258.789 46.6545 257.158 42.1569 256.732 41.7678C256.426 42.3577 255.992 42.8715 255.461 43.2715C254.931 43.6715 254.317 43.9475 253.666 44.0791Z" fill="#2C5777"/>
<path d="M229.427 45.5658C226.62 45.3991 224.073 45.1351 221.947 44.7924C221.613 46.9539 221.258 49.1155 220.881 51.277C223.675 51.8293 226.502 52.2006 229.344 52.3886C229.362 51.7448 229.395 47.1916 229.427 45.5658Z" fill="#346F93"/>
<path d="M238.987 45.7238C238.033 45.7485 237.062 45.7608 236.074 45.7608H235.477C235.407 47.6135 235.296 52.1667 235.273 52.6252H236.069C237.249 52.6252 238.407 52.6051 239.543 52.565C239.238 50.3046 239.108 48.0165 238.987 45.7238Z" fill="#346F93"/>
<path d="M252.063 44.4592C251.137 44.6538 250.081 44.8298 248.937 44.9873C249.539 47.1179 249.997 49.281 250.41 51.4719C251.612 51.2534 252.802 50.9736 253.976 50.6336C253.323 48.5724 252.675 46.5204 252.063 44.4592Z" fill="#346F93"/>
<path d="M236.074 38.5349C224.596 38.5349 215.286 40.1468 215.286 42.1431C215.286 42.8472 216.458 43.5327 218.477 44.0654C222.183 45.0797 228.668 45.7606 236.079 45.7606C243.49 45.7606 250.002 45.1261 253.68 44.0793C255.384 43.6161 256.876 42.8611 256.876 42.157C256.862 40.1422 247.552 38.5395 236.074 38.5349Z" fill="#4D9DBC"/>
<path d="M236.074 39.892C232.211 39.892 229.075 40.5822 229.075 41.4344C229.075 41.7355 229.469 42.018 230.15 42.2543C231.387 42.6897 233.578 42.9768 236.074 42.9815C238.571 42.9861 240.761 42.7081 241.998 42.2589C242.572 42.0504 243.073 41.7401 243.073 41.4391C243.073 40.6053 239.942 39.8966 236.074 39.892Z" fill="#121A26"/>
<path d="M160.537 88.6892V88.7412V88.7128C160.538 88.7049 160.538 88.6971 160.537 88.6892Z" fill="#121A26"/>
<path d="M322.241 126.819L322.148 126.5C322.148 126.828 322.176 127.153 322.185 127.482C322.22 127.263 322.239 127.041 322.241 126.819Z" fill="#121A26"/>
<path d="M296.789 123.577L296.678 122.65C295.888 116.39 292.67 110.691 287.717 106.781C282.765 102.871 276.474 101.063 270.202 101.747C260.748 102.766 249.006 103.747 236.037 104.197C223.068 103.734 211.321 102.766 201.868 101.747C195.594 101.064 189.303 102.875 184.351 106.787C179.399 110.7 176.183 116.402 175.396 122.664L175.281 123.59C174.945 126.254 175.139 128.957 175.851 131.545C176.564 134.134 177.78 136.556 179.431 138.672C181.082 140.789 183.135 142.559 185.472 143.88C187.809 145.201 190.384 146.047 193.049 146.37C207.313 148.07 221.667 148.907 236.032 148.876C250.399 148.907 264.755 148.07 279.021 146.37C281.687 146.047 284.263 145.2 286.601 143.878C288.939 142.557 290.993 140.786 292.644 138.667C294.295 136.549 295.511 134.126 296.222 131.536C296.934 128.946 297.126 126.241 296.789 123.577Z" fill="#121A26"/>
<path d="M279.049 141.798C264.782 143.494 250.427 144.329 236.06 144.299C221.695 144.329 207.341 143.494 193.076 141.798C183.512 140.631 175.285 133.257 175.285 123.845C174.684 129.185 176.216 134.546 179.548 138.762C182.88 142.978 187.742 145.707 193.076 146.356C207.341 148.056 221.695 148.893 236.06 148.862C250.427 148.893 264.783 148.056 279.049 146.356C284.383 145.707 289.245 142.978 292.577 138.762C295.909 134.546 297.441 129.185 296.84 123.845C296.817 133.813 288.59 140.654 279.049 141.798Z" fill="#468CAF"/>
<path d="M236.028 171.002C188.426 171.002 149.838 162.077 149.842 151.085L149.815 223.695C149.815 229.91 162.2 235.469 181.594 239.119H181.723C183.371 239.423 185.063 239.391 186.698 239.025C188.333 238.659 189.876 237.966 191.236 236.987C192.596 236.009 193.744 234.766 194.611 233.332C195.478 231.899 196.046 230.305 196.282 228.646C196.282 228.609 196.282 228.577 196.282 228.549C197.828 219.019 202.751 210.364 210.15 204.163C217.549 197.961 226.931 194.628 236.584 194.77C246.238 194.913 255.517 198.522 262.73 204.94C269.942 211.357 274.607 220.154 275.871 229.725C275.871 229.725 275.871 229.758 275.871 229.776C276.043 231.267 276.516 232.707 277.261 234.009C278.007 235.311 279.009 236.448 280.207 237.351C281.405 238.255 282.774 238.905 284.231 239.263C285.688 239.621 287.203 239.679 288.683 239.434L290.397 239.133C309.791 235.492 322.181 229.948 322.185 223.727V151.122C322.227 162.132 283.634 171.021 236.028 171.002Z" fill="#2C5777"/>
<path d="M162.117 221.249C158.763 212.911 158.059 203.791 156.503 195.018C155.901 191.651 155.22 188.298 154.368 184.986C153.877 183.087 153.339 181.202 152.728 179.34C152.473 178.575 152.209 177.811 151.931 177.056C151.88 176.926 151.755 176.593 151.612 176.245C151.343 175.662 150.917 174.726 150.764 174.425C150.468 173.846 150.153 173.272 149.838 172.707V223.708C149.838 228.803 158.101 233.435 171.686 236.937C167.591 232.317 164.351 227.004 162.117 221.249Z" fill="#1F4060"/>
<path d="M321.468 171.28C321.403 171.414 321.324 171.572 321.241 171.743C320.671 173.235 320.083 174.717 319.536 176.218C317.795 180.986 316.502 185.906 315.673 190.915C315.539 191.739 315.428 192.564 315.293 193.388C315.293 193.499 315.261 193.587 315.252 193.657C315.099 194.791 314.951 195.926 314.788 197.061C314.582 198.605 314.358 200.138 314.117 201.661C313.084 208.247 311.722 214.829 309.448 221.114C307.479 226.552 305.057 231.86 301.796 236.608C314.52 233.148 322.199 228.674 322.204 223.778V169.77C321.968 170.261 321.713 170.761 321.468 171.28Z" fill="#1F4060"/>
<path opacity="0.57" d="M296.432 170.451C296.98 170.339 297.546 170.351 298.088 170.486C298.631 170.621 299.136 170.875 299.568 171.23C300 171.585 300.347 172.032 300.584 172.538C300.822 173.045 300.943 173.597 300.939 174.156V222.791C300.932 225.349 299.912 227.8 298.104 229.609C296.295 231.417 293.844 232.437 291.286 232.444C288.729 232.436 286.279 231.416 284.472 229.607C282.664 227.799 281.645 225.348 281.638 222.791V177.987C281.637 176.517 282.169 175.097 283.136 173.989C284.103 172.882 285.438 172.163 286.895 171.966C290.309 171.502 293.5 171.035 296.432 170.451Z" fill="#468CAF"/>
<path opacity="0.57" d="M175.647 170.451C175.099 170.339 174.533 170.351 173.991 170.486C173.448 170.621 172.942 170.875 172.511 171.23C172.079 171.585 171.731 172.032 171.494 172.538C171.257 173.045 171.136 173.597 171.14 174.156V222.791C171.147 225.348 172.166 227.799 173.974 229.607C175.781 231.416 178.231 232.436 180.788 232.444C183.346 232.437 185.797 231.417 187.606 229.609C189.414 227.8 190.434 225.349 190.441 222.791V177.987C190.441 176.517 189.908 175.097 188.942 173.99C187.975 172.883 186.64 172.164 185.184 171.966C181.779 171.502 178.574 171.035 175.647 170.451Z" fill="#468CAF"/>
<path d="M235.328 14C229.492 14 230.006 40.6657 230.006 40.6657C230.006 40.6657 230.998 41.7681 236.028 41.7681C241.058 41.7681 242.257 40.7213 242.257 40.7213C242.257 40.7213 240.831 14 235.328 14Z" fill="#2C5777"/>
<path d="M204.304 132.326C208.008 132.326 211.011 128.056 211.011 122.789C211.011 117.522 208.008 113.252 204.304 113.252C200.6 113.252 197.597 117.522 197.597 122.789C197.597 128.056 200.6 132.326 204.304 132.326Z" fill="#4FC997"/>
<path d="M267.844 132.326C271.548 132.326 274.551 128.056 274.551 122.789C274.551 117.522 271.548 113.252 267.844 113.252C264.14 113.252 261.137 117.522 261.137 122.789C261.137 128.056 264.14 132.326 267.844 132.326Z" fill="#4FC997"/>
<path d="M234.495 37.595C233.476 37.595 232.73 36.7335 232.642 35.2374C232.331 28.9103 233.568 20.8276 233.568 20.8276C233.596 20.0726 234.082 19.4844 234.675 19.4844C234.992 19.5227 235.282 19.6798 235.488 19.9239C235.693 20.1681 235.798 20.4811 235.782 20.7998C235.782 20.7998 236.82 32.2174 236.343 35.2374C236.139 36.803 235.509 37.595 234.495 37.595Z" fill="#468CAF"/>
<path d="M234.995 17.4182C235.591 17.4182 236.074 16.9351 236.074 16.339C236.074 15.743 235.591 15.2598 234.995 15.2598C234.399 15.2598 233.916 15.743 233.916 16.339C233.916 16.9351 234.399 17.4182 234.995 17.4182Z" fill="#468CAF"/>
<path d="M214.665 60.4484C202.91 58.026 195.48 63.9224 191.131 67.614C184.049 73.6355 184.887 80.8658 199.334 84.5991C217.445 89.2819 243.462 88.2629 252.137 87.2069C268.479 85.2059 263.282 76.5257 261.336 72.1995C259.257 67.5677 256.566 61.1942 244.898 61.8242C234.434 62.3754 220.062 61.5601 214.665 60.4484Z" fill="#468CAF"/>
<g opacity="0.5">
<path opacity="0.5" d="M268.159 60.7357C273.583 58.4939 298.002 77.0817 287.344 83.7053C282.185 86.9059 278.368 80.0878 273.815 74.0895C268.27 66.7804 264.968 62.0605 268.159 60.7357Z" fill="#468CAF"/>
</g>
<path d="M154.219 153.16C154.219 153.16 181.807 173.54 234.351 173.54C286.895 173.54 316.335 155.013 316.335 155.013C316.335 155.013 309.156 243.713 237.13 243.713C165.104 243.713 154.219 153.16 154.219 153.16Z" fill="#A8C6BF"/>
<path d="M186.175 194.713C194.322 204.097 204.897 214.393 211.65 220.697C212.284 221.288 213.067 221.695 213.916 221.873C214.764 222.051 215.645 221.994 216.463 221.708C217.281 221.422 218.006 220.918 218.558 220.25C219.111 219.582 219.47 218.776 219.598 217.918C220.191 214 220.904 209.502 221.557 205.611C221.943 203.319 221.409 200.967 220.072 199.066C218.735 197.164 216.703 195.866 214.415 195.454C206.038 193.941 197.758 191.931 189.621 189.432C188.939 189.218 188.207 189.233 187.535 189.474C186.862 189.715 186.287 190.169 185.897 190.767C185.507 191.365 185.322 192.074 185.373 192.786C185.423 193.499 185.704 194.175 186.175 194.713Z" fill="#B6D8D0"/>
<path d="M286.923 194.713C278.775 204.097 268.201 214.393 261.448 220.697C260.813 221.288 260.03 221.695 259.182 221.873C258.333 222.051 257.452 221.994 256.634 221.708C255.816 221.422 255.092 220.918 254.539 220.25C253.987 219.582 253.627 218.776 253.499 217.918C252.906 214 252.193 209.502 251.54 205.611C251.154 203.319 251.688 200.967 253.025 199.066C254.362 197.164 256.395 195.866 258.682 195.454C267.059 193.941 275.339 191.93 283.477 189.432C284.158 189.218 284.891 189.233 285.563 189.474C286.235 189.715 286.81 190.169 287.2 190.767C287.591 191.365 287.775 192.074 287.725 192.786C287.675 193.499 287.393 194.175 286.923 194.713Z" fill="#B6D8D0"/>
<path d="M228.177 191.448C228.177 191.448 221.998 222.791 220.84 238.077L251.41 237.766C251.41 223.255 244.347 191.448 244.347 191.448H228.177Z" fill="#4FC997"/>
<path d="M220.863 164.304C220.863 164.304 227.232 164.768 234.93 164.768C242.628 164.768 253.286 164.304 253.286 164.304C253.286 164.304 256.38 167.686 256.38 174.694C256.38 179.154 246.852 192.221 246.852 192.221C246.593 192.609 246.241 192.927 245.829 193.148C245.417 193.368 244.957 193.484 244.49 193.485H227.977C227.504 193.485 227.038 193.366 226.622 193.14C226.206 192.913 225.854 192.586 225.597 192.188C225.597 192.188 216.518 180.312 216.518 174.328C216.518 165.722 220.863 164.304 220.863 164.304Z" fill="#4FC997"/>
<g style="mix-blend-mode:screen" opacity="0.35">
<path d="M221.697 219.007C226.25 216.154 242.406 205.005 247.311 199.72" stroke="#61E5AC" stroke-width="10" stroke-miterlimit="10"/>
</g>
<g style="mix-blend-mode:multiply" opacity="0.44">
<path d="M226.139 232.606C226.194 228.47 226.5 224.32 226.884 220.207C227.371 214.954 228.084 209.614 229.756 204.588C230.974 200.924 234.059 195.375 238.756 198.303C241.331 199.905 242.22 203.342 242.642 206.14C243.165 209.632 245.537 220.554 246.056 237.549C246.056 237.641 246.088 237.729 246.102 237.822L251.41 237.766C251.41 223.255 244.791 193.486 244.791 193.486H227.778C227.778 193.486 221.998 222.792 220.83 238.077L226.125 238.021C226 236.127 226.12 234.172 226.139 232.606Z" fill="#4FC997"/>
</g>
<g style="mix-blend-mode:screen" opacity="0.35">
<path d="M218.681 187.784C218.681 187.784 230.543 167.788 237.093 162.383" stroke="#61E5AC" stroke-width="10" stroke-miterlimit="10"/>
</g>
<g style="mix-blend-mode:screen" opacity="0.35">
<path d="M230.798 196.621C233.272 191.448 249.367 169.182 254.115 163.045" stroke="#61E5AC" stroke-width="10" stroke-miterlimit="10"/>
</g>
<g style="mix-blend-mode:multiply" opacity="0.44">
<path d="M253.286 164.304C253.286 164.304 250.368 164.429 246.482 164.55C247.444 165.829 248.231 167.231 248.821 168.718C251.054 174.49 249.238 181.711 244.3 185.495C238.404 190.02 229.941 188.436 225.625 182.563C221.993 177.621 220.993 169.659 224.61 164.499C222.294 164.388 220.863 164.286 220.863 164.286C220.863 164.286 216.5 165.703 216.5 174.309C216.5 180.293 225.597 192.17 225.597 192.17C225.854 192.567 226.206 192.895 226.622 193.121C227.038 193.348 227.504 193.466 227.978 193.467H244.49C244.957 193.466 245.417 193.35 245.829 193.129C246.241 192.909 246.593 192.59 246.853 192.202C246.853 192.202 256.38 179.135 256.38 174.675C256.38 167.685 253.286 164.304 253.286 164.304Z" fill="#4FC997"/>
</g>
<path d="M151.209 141.349C151.209 141.349 185.716 162.193 223.929 162.193C216.166 169.951 214.795 185.385 214.494 189.882C214.483 190.042 214.438 190.197 214.363 190.338C214.288 190.48 214.185 190.604 214.059 190.703C213.934 190.802 213.789 190.873 213.634 190.913C213.479 190.953 213.318 190.96 213.16 190.934C207.213 189.929 181.283 185.19 162.557 175.648C141.25 164.74 151.209 141.349 151.209 141.349Z" fill="#E3F0F1"/>
<path d="M183.831 175.718C161.051 161.947 155.896 144.545 155.896 143.929C152.881 142.359 151.209 141.349 151.209 141.349C151.209 141.349 141.25 164.74 162.557 175.625C181.283 185.19 207.213 189.929 213.16 190.911C213.318 190.937 213.479 190.93 213.634 190.89C213.789 190.85 213.934 190.778 214.059 190.68C214.185 190.581 214.288 190.456 214.363 190.315C214.438 190.174 214.483 190.019 214.494 189.859C214.55 188.979 214.652 187.668 214.837 186.084C203.938 184.431 193.822 181.763 183.831 175.718Z" fill="#CEEAE4"/>
<path d="M213.656 191.063C213.361 191.062 213.078 190.949 212.863 190.747C212.649 190.545 212.52 190.268 212.502 189.974C212.502 189.659 212.067 182.1 215.425 172.535C217.741 165.93 220.154 162.535 222.794 162.155C223.409 162.081 224.033 162.171 224.602 162.415C225.172 162.658 225.666 163.048 226.037 163.545C226.268 163.845 226.403 164.208 226.421 164.587L223.096 164.448C222.498 164.545 220.349 165.467 217.597 173.304C214.401 182.406 214.818 189.761 214.818 189.835C214.836 190.142 214.731 190.443 214.527 190.672C214.323 190.901 214.036 191.04 213.73 191.058L213.656 191.063Z" fill="#B6D8D0"/>
<path d="M320.759 141.349C320.759 141.349 286.251 162.193 248.038 162.193C255.801 169.951 257.172 185.385 257.478 189.882C257.489 190.042 257.532 190.197 257.607 190.338C257.681 190.479 257.784 190.603 257.91 190.702C258.035 190.801 258.179 190.873 258.334 190.913C258.489 190.953 258.65 190.96 258.807 190.934C264.759 189.929 290.684 185.19 309.41 175.648C330.717 164.74 320.759 141.349 320.759 141.349Z" fill="#E3F0F1"/>
<path d="M288.136 175.718C310.916 161.947 316.076 144.545 316.076 143.929C319.087 142.359 320.759 141.349 320.759 141.349C320.759 141.349 330.717 164.74 309.411 175.625C290.684 185.19 264.759 189.929 258.807 190.911C258.65 190.937 258.489 190.93 258.334 190.89C258.179 190.85 258.035 190.778 257.91 190.679C257.785 190.58 257.681 190.456 257.607 190.315C257.533 190.174 257.489 190.018 257.478 189.859C257.418 188.979 257.316 187.668 257.135 186.084C268.029 184.431 278.145 181.763 288.136 175.718Z" fill="#CEEAE4"/>
<path d="M258.312 191.063C258.607 191.063 258.892 190.951 259.107 190.749C259.322 190.546 259.452 190.269 259.47 189.974C259.47 189.659 259.9 182.1 256.542 172.535C254.226 165.93 251.813 162.535 249.173 162.155C248.558 162.081 247.934 162.171 247.365 162.415C246.796 162.658 246.301 163.048 245.931 163.545C245.701 163.845 245.568 164.209 245.551 164.587L248.876 164.448C249.469 164.545 251.623 165.467 254.37 173.304C257.566 182.406 257.177 189.761 257.172 189.835C257.162 189.987 257.182 190.139 257.231 190.283C257.281 190.427 257.358 190.559 257.459 190.673C257.56 190.787 257.682 190.879 257.819 190.945C257.956 191.012 258.104 191.05 258.256 191.058L258.312 191.063Z" fill="#B6D8D0"/>
<path d="M148.124 151.923L144.108 212.138V240.856H207.875L148.124 151.923Z" fill="#090E16"/>
<path d="M104.64 242.351L64.9999 208.173C78.0572 193.026 94.8709 180.381 113.635 171.581C127.53 165.096 136.252 162.095 139.828 162.382C158.485 186.005 151.899 213.796 146.688 214.722C143.446 215.292 124.182 219.688 104.64 242.351Z" fill="#0D111E"/>
<path d="M138.123 159.992C138.401 162.026 137.197 167.658 138.008 176.32C138.753 184.458 140.564 195.774 134.765 201.582C131.194 205.153 126.271 208.345 120.606 211.888C101.203 224.028 95.1303 232.94 94.4865 233.584L104.677 242.352C124.219 219.688 143.464 215.172 146.706 214.737C170.662 211.522 146.655 179.757 138.123 159.992Z" fill="#090E16"/>
<path d="M93.8612 209.206C92.5788 209.159 91.3393 208.732 90.2995 207.98C89.2597 207.228 88.4664 206.184 88.02 204.981C87.5737 203.778 87.4943 202.47 87.792 201.221C88.0898 199.973 88.7512 198.841 89.6925 197.969C103.982 184.717 121.944 178.298 122.699 178.052C124.322 177.48 126.104 177.576 127.656 178.319C129.207 179.062 130.4 180.39 130.972 182.012C131.544 183.634 131.448 185.417 130.705 186.969C129.962 188.52 128.634 189.713 127.012 190.285C126.706 190.391 110.717 196.181 98.5116 207.497C97.2488 208.66 95.5765 209.274 93.8612 209.206Z" fill="#121A27"/>
<path d="M149.847 131.543C149.847 131.543 145.498 132.159 141.792 141.348C138.087 150.538 136.234 155.332 136.234 162.118C136.234 167.792 146.058 196.199 149.286 205.37C149.581 206.207 150.127 206.931 150.851 207.444C151.574 207.957 152.439 208.232 153.325 208.233H167.42L212.456 237.33C212.456 237.33 163.618 186.352 149.847 131.543Z" fill="#121C2B"/>
<path d="M149.847 131.543C149.847 131.543 145.498 132.159 141.792 141.348C138.087 150.538 136.234 155.332 136.234 162.118C136.234 167.792 146.058 196.199 149.286 205.37C149.581 206.207 150.127 206.931 150.851 207.444C151.574 207.957 152.439 208.232 153.325 208.233H167.42L212.456 237.33C212.456 237.33 163.618 186.352 149.847 131.543ZM165.331 201.331C163.636 205.431 159.134 204.967 155.604 204.967C152.631 204.967 151.505 203.643 150.741 201.697C147.151 192.549 141.514 174.48 140.63 170.275C138.777 161.585 142.894 150.26 146.706 146.444C147.874 145.281 149.893 146.471 150.551 148.542C154.525 161.048 164.252 182.887 166.901 188.214C168.967 192.35 167.045 197.163 165.331 201.331Z" fill="#0D111E"/>
<path d="M161.653 231.383C161.653 234.371 167.485 245.279 168.194 244.714L212.474 237.331L173.821 186.047C171.552 184.435 160.518 220.211 161.653 231.383Z" fill="#121C2B"/>
<path d="M173.821 186.047C171.552 184.453 160.518 220.23 161.653 231.402C161.656 231.537 161.667 231.672 161.686 231.805V231.921C161.709 232.06 161.732 232.203 161.769 232.356C161.769 232.356 161.769 232.389 161.769 232.407C161.811 232.583 161.857 232.773 161.917 232.968C161.925 233.007 161.936 233.046 161.95 233.083C162.005 233.269 162.061 233.459 162.131 233.653C162.129 233.673 162.129 233.693 162.131 233.713C162.205 233.94 162.288 234.177 162.381 234.413C162.378 234.43 162.378 234.447 162.381 234.464C162.469 234.7 162.561 234.927 162.663 235.196C164.386 239.462 167.61 245.117 168.124 244.709L172.158 244.038C169.995 240.416 169.013 239.184 167.42 235.2C166.649 233.267 166.045 231.271 165.614 229.234C164.636 220.017 169.129 205.065 171.672 199.201C173.09 195.936 174.674 196.95 176.73 199.011C179.857 202.138 194.507 224.834 208.111 238.846L213.141 238.058L173.821 186.047Z" fill="#0D111E"/>
<path d="M323.881 151.923L327.896 212.138V240.856H264.129L323.881 151.923Z" fill="#090E16"/>
<path d="M367.36 242.351L407 208.173C393.943 193.026 377.129 180.381 358.365 171.581C344.47 165.096 335.752 162.095 332.172 162.382C313.519 186.005 320.101 213.796 325.317 214.722C328.554 215.292 347.818 219.688 367.36 242.351Z" fill="#121A27"/>
<path d="M324.404 175.425C324.122 177.486 324.04 179.569 324.159 181.646C324.622 189.807 325.794 196.111 332.065 201.443C337.188 205.801 345.748 208.344 351.413 211.888C370.816 224.028 376.888 232.939 377.532 233.583L367.342 242.351C347.8 219.688 328.536 215.292 325.317 214.736C321.06 214 315.872 195.19 324.404 175.425Z" fill="#0D111E"/>
<path d="M378.139 209.206C379.421 209.159 380.661 208.732 381.701 207.98C382.74 207.228 383.534 206.184 383.98 204.981C384.426 203.778 384.506 202.47 384.208 201.221C383.91 199.973 383.249 198.841 382.308 197.969C368.018 184.717 350.056 178.298 349.301 178.052C348.497 177.769 347.646 177.647 346.796 177.692C345.945 177.738 345.112 177.951 344.344 178.319C343.576 178.687 342.888 179.202 342.319 179.836C341.75 180.47 341.311 181.209 341.028 182.012C340.745 182.816 340.623 183.667 340.669 184.517C340.714 185.367 340.927 186.201 341.295 186.969C341.663 187.737 342.178 188.425 342.812 188.994C343.446 189.563 344.185 190.002 344.988 190.285C345.299 190.391 361.283 196.181 373.488 207.497C374.751 208.66 376.424 209.274 378.139 209.206Z" fill="#1A2638"/>
<path d="M322.153 131.543C322.153 131.543 326.507 132.159 330.213 141.348C333.918 150.538 335.771 155.332 335.771 162.118C335.771 167.792 325.942 196.199 322.714 205.37C322.42 206.207 321.873 206.932 321.15 207.445C320.426 207.958 319.561 208.233 318.674 208.233H304.561L259.525 237.33C259.525 237.33 308.387 186.352 322.153 131.543Z" fill="#121A27"/>
<path d="M325.368 189.983C327.971 181.725 329.791 174.499 329.263 166.824C329.041 163.581 326.447 156.17 324.979 154.026C322.954 151.075 320.694 152.868 319.152 154.772C317.674 156.597 314.441 162.887 311.361 168.862C305.612 180.006 295.279 191.665 293.579 193.383C305.159 175.522 316.567 153.85 322.172 131.543C322.172 131.543 326.526 132.159 330.231 141.348C333.937 150.538 335.789 155.332 335.789 162.118C335.789 167.792 325.96 196.199 322.732 205.37C322.438 206.207 321.891 206.931 321.168 207.443C320.444 207.955 319.579 208.229 318.693 208.228H314.714C321.199 208.228 322.324 199.553 325.368 189.983Z" fill="#1A2638"/>
<path d="M298.609 185.314C300.721 185.314 305.015 195.402 307.062 201.225C308.744 206.005 313.306 207.774 316.933 208.228H304.561L259.525 237.33C259.525 237.33 280.017 216.802 298.609 185.314Z" fill="#0D111E"/>
<path d="M310.346 231.383C310.346 234.371 304.515 245.279 303.811 244.714L259.525 237.331L298.178 186.047C300.453 184.435 311.472 220.211 310.346 231.383Z" fill="#121A27"/>
<path d="M298.178 186.047C300.453 184.453 311.481 220.23 310.346 231.402C310.346 232.486 309.578 234.612 308.563 236.858C308.693 235.006 309.026 231.935 308.827 229.989C307.864 219.544 302.806 205.093 300.258 199.224C298.841 195.959 295.969 196.501 294.042 198.682C291.657 201.388 262.23 237.405 261.966 238.054L258.789 238.077L298.178 186.047Z" fill="#1A2638"/>
</g>
<defs>
<clipPath id="clip0">
<rect width="472" height="206" rx="16" fill="white"/>
</clipPath>
</defs>
</svg>
