<svg width="320" height="407" viewBox="0 0 320 407" fill="none" xmlns="http://www.w3.org/2000/svg">
<g clip-path="url(#clip0)">
<rect width="320" height="407" fill="#4099F1"/>
<path d="M171.601 305.654C171.601 305.654 180.735 285.35 183.308 281.571C185.88 277.793 188.959 279.712 188.742 283.418C188.524 287.123 185.271 306.967 185.271 306.967L171.601 305.654Z" fill="#346E91"/>
<path d="M188.252 280.859C188.255 282.295 185.26 295.462 183.884 297.617C182.507 299.771 180.051 298.937 175.067 298.078C173.672 300.47 172.513 302.992 171.61 305.61L185.28 306.923C185.28 306.923 188.533 287.079 188.75 283.374C188.816 282.506 188.643 281.637 188.252 280.859Z" fill="#2C5776"/>
<path d="M195.499 314.645C193.088 322.744 185.478 319.764 175.331 317.123C165.184 314.481 157.572 308.52 159.116 304.04C161.483 297.203 169.497 297.905 179.648 300.529C189.798 303.153 197.391 308.305 195.499 314.645Z" fill="#346E91"/>
<path d="M195.388 312.839C194.846 312.624 194.361 312.285 193.973 311.849C193.585 311.414 193.303 310.894 193.151 310.331C192.894 309.443 192.741 308.528 192.695 307.605C192.669 307.326 192.661 307.004 192.635 306.679C191.972 306.09 191.269 305.547 190.53 305.056C191.291 310.349 184.672 306.901 178.585 305.344C172.412 303.661 166.05 302.771 159.652 302.695C159.536 302.955 159.176 303.742 159.073 304.023C157.53 308.503 165.142 314.464 175.289 317.105C185.436 319.747 193.046 322.727 195.457 314.627C195.623 314.078 195.72 313.511 195.743 312.938C195.622 312.915 195.504 312.881 195.388 312.839Z" fill="#2C5776"/>
<path d="M159.084 304.198C157.763 308.659 165.298 314.504 175.331 317.123C185.364 319.741 192.928 322.675 195.418 314.866C184.009 309.099 171.985 304.881 159.084 304.198Z" fill="#273C56"/>
<path d="M176.405 302.097C176.228 302.975 173.704 302.978 170.586 302.432C167.469 301.885 165.719 301.45 165.879 300.568C166.038 299.685 168.089 299.13 171.206 299.676C174.324 300.223 176.555 301.222 176.405 302.097Z" fill="#5CA1BD"/>
<path d="M182.076 286.27C181.108 288.891 180.25 292.604 181.184 292.957C182.119 293.31 183.722 290.123 184.7 287.495C185.679 284.866 186.479 282.486 185.535 282.177C184.592 281.868 183.051 283.66 182.076 286.27Z" fill="#5CA1BD"/>
<path d="M231.296 457.851C235.852 442.86 198.002 418.081 146.755 402.506C95.5075 386.93 50.27 386.456 45.714 401.446C41.1579 416.437 79.0085 441.216 130.256 456.791C181.503 472.367 226.74 472.841 231.296 457.851Z" fill="#1F4060"/>
<path d="M230.528 460.384C235.084 445.393 197.234 420.614 145.986 405.039C94.7393 389.463 49.5019 388.989 44.9458 403.979C40.3897 418.97 78.2403 443.749 129.487 459.324C180.735 474.9 225.972 475.374 230.528 460.384Z" fill="#121A26"/>
<path d="M229.508 463.747C234.064 448.756 196.214 423.977 144.967 408.402C93.7196 392.826 48.4819 392.352 43.9258 407.342C39.3698 422.333 77.2205 447.112 128.468 462.687C179.715 478.263 224.952 478.737 229.508 463.747Z" fill="#4B8CAB"/>
<path d="M146.755 402.522C196.287 417.571 233.294 441.221 231.609 456.325L239.714 429.752C246.97 405.26 244.248 378.893 232.14 356.401C220.032 333.909 199.522 317.117 175.082 309.688C150.642 302.259 124.256 304.796 101.68 316.745C79.103 328.694 62.1672 349.086 54.5664 373.473L46.6814 399.414C54.6448 386.546 97.9947 387.683 146.755 402.522Z" fill="#346F93"/>
<path opacity="0.58" d="M192.937 411.107C203.115 407.884 211.982 395.071 212.318 378.762C212.606 364.418 208.418 345.835 190.665 329.543C182.872 322.393 170.329 313.499 145.894 311.651C128.195 310.32 106.406 317.254 95.0696 324.541C85.4984 330.693 76.3354 339.853 70.927 349.031C67.2683 355.229 65.1616 362.22 64.7862 369.408L64.7614 369.531C64.5026 375.029 65.0738 380.311 67.8149 385.17C68.7567 386.792 70.1112 388.135 71.7406 389.063C73.37 389.99 75.2161 390.47 77.0911 390.452C95.559 390.42 120.333 394.439 146.696 402.455C147.73 402.764 148.744 403.088 149.767 403.413C170.002 410.074 184.147 413.887 192.937 411.107Z" fill="#5CA1BD"/>
<path d="M93.4873 351.964C104.867 337.8 116.011 330.649 150.503 338.393C167.122 342.13 182.263 355.371 190.622 361.62C184.067 351.053 167.687 339.693 147.681 335.2C113.192 327.446 93.0577 333.47 81.9206 348.926C75.3257 358.093 73.8809 373.821 90.1418 376.434C86.8921 369.789 90.3465 355.884 93.4873 351.964Z" fill="#1F4060"/>
<path d="M80.7678 363.525C80.0576 373.028 87.748 376.29 90.142 376.434C109.842 377.592 135.551 382.504 162.299 392.692C186.591 401.954 193.041 390.6 195.502 383.571C198.109 376.133 197.5 351.002 149.596 338.083C111.02 327.649 82.5188 340.25 80.7678 363.525Z" fill="#121A26"/>
<path d="M221.564 358.271C219.53 359.287 215.923 357.041 213.484 353.266C211.045 349.492 210.697 345.645 212.693 344.63C214.69 343.616 218.301 345.844 220.752 349.603C223.203 353.362 223.578 357.26 221.564 358.271Z" fill="#5CA1BD"/>
<path d="M119.653 364.311C119.074 364.264 118.537 363.99 118.158 363.549C117.78 363.108 117.591 362.535 117.632 361.955C117.67 360.486 117.126 359.062 116.118 357.992C114.604 356.28 112.478 355.23 110.198 355.07C105.962 354.764 102.067 357.709 101.82 360.338C101.773 360.919 101.497 361.458 101.053 361.835C100.609 362.213 100.033 362.399 99.4521 362.352C98.871 362.305 98.3324 362.029 97.9547 361.585C97.577 361.141 97.3911 360.566 97.438 359.984C97.8741 354.65 104.081 350.215 110.479 350.683C113.921 350.928 117.128 352.517 119.407 355.108C120.287 356.067 120.969 357.192 121.412 358.416C121.856 359.64 122.053 360.94 121.991 362.24C121.947 362.821 121.673 363.361 121.232 363.742C120.79 364.122 120.216 364.312 119.634 364.27L119.653 364.311Z" fill="#43E0BB"/>
<path d="M160.674 374.68C160.204 374.424 159.843 374.005 159.66 373.501C159.477 372.998 159.484 372.445 159.681 371.947C161.942 366.222 168.229 363.613 174.632 365.819C180.783 367.92 184.477 373.721 183.209 379.327C183.081 379.895 182.733 380.389 182.24 380.701C181.748 381.012 181.152 381.115 180.584 380.987C180.015 380.859 179.521 380.511 179.21 380.018C178.898 379.526 178.795 378.93 178.923 378.362C179.694 374.951 177.239 371.347 173.209 369.976C169.178 368.605 165.159 370.08 163.789 373.562C163.685 373.832 163.529 374.079 163.329 374.288C163.129 374.497 162.89 374.665 162.625 374.781C162.36 374.898 162.075 374.961 161.786 374.967C161.497 374.973 161.209 374.922 160.94 374.816L160.674 374.68Z" fill="#43E0BB"/>
<path d="M231.406 383.591C229.712 380.022 224.066 381.671 224.943 385.076C224.561 385.647 224.361 386.321 224.371 387.009C224.388 392.316 224.56 397.626 224.956 402.918C225.208 406.471 225.204 410.027 228.033 412.546C230.043 414.323 232.757 413.06 233.465 410.734C236.188 401.746 235.454 392.065 231.406 383.591Z" fill="#468AAD"/>
<rect x="52.6012" y="254.517" width="85.6094" height="27.4682" rx="13.7341" transform="rotate(-10.7875 52.6012 254.517)" fill="white"/>
<path d="M72.4372 268.704L74.4954 268.312L73.9159 265.27L76.9572 264.691L76.5651 262.633L73.5238 263.212L72.9443 260.171L70.8861 260.563L71.4656 263.604L68.4242 264.184L68.8164 266.242L71.8577 265.662L72.4372 268.704Z" fill="#43E0BB"/>
<path d="M84.5955 268.413C87.2171 267.913 88.674 265.866 88.2147 263.487C87.7911 261.232 85.9069 259.911 83.7855 260.315C82.7506 260.513 81.9416 261.114 81.6383 261.773L81.5693 261.786L81.3121 258.779L86.4576 257.799L86.0698 255.763L78.8719 257.135L79.4972 263.45L81.7863 263.425C82.0553 262.867 82.6987 262.429 83.3943 262.297C84.5798 262.077 85.5939 262.771 85.8294 264.007C86.0627 265.232 85.3901 266.236 84.223 266.458C83.2342 266.647 82.3167 266.178 82.085 265.275L79.6704 265.735C80.1042 267.761 82.1578 268.877 84.5955 268.413Z" fill="#43E0BB"/>
<path d="M95.365 266.462C98.3259 265.898 99.6845 263.304 98.9508 259.422C98.2226 255.569 95.991 253.706 93.0417 254.268C90.0866 254.831 88.7124 257.375 89.4417 261.234C90.1674 265.105 92.3974 267.022 95.365 266.462ZM94.9718 264.398C93.6207 264.656 92.4883 263.465 91.9771 260.751C91.4734 258.076 92.0852 256.565 93.4305 256.309C94.7701 256.054 95.9003 257.233 96.4097 259.906C96.9325 262.619 96.3171 264.142 94.9718 264.398Z" fill="#43E0BB"/>
<path d="M106.511 264.338C109.472 263.774 110.831 261.18 110.097 257.298C109.369 253.445 107.137 251.582 104.188 252.144C101.233 252.707 99.8586 255.251 100.588 259.11C101.314 262.981 103.544 264.898 106.511 264.338ZM106.118 262.274C104.767 262.532 103.635 261.342 103.123 258.627C102.62 255.952 103.231 254.442 104.577 254.185C105.916 253.93 107.047 255.109 107.556 257.782C108.079 260.495 107.463 262.018 106.118 262.274Z" fill="#43E0BB"/>
<path d="M121.992 256.706C124.729 256.184 126.175 254.425 125.729 252.145C125.326 249.97 123.355 248.659 120.561 249.192L115.961 250.068L117.013 255.587L115.34 255.906L115.72 257.901L117.393 257.582L117.538 258.341L115.865 258.66L116.245 260.655L117.918 260.336L118.205 261.842L120.677 261.371L120.39 259.865L122.96 259.375L122.58 257.38L120.01 257.87L119.865 257.111L121.992 256.706ZM119.485 255.116L118.819 251.621L120.946 251.215C122.263 250.965 123.058 251.635 123.245 252.648C123.448 253.682 122.94 254.458 121.543 254.724L119.485 255.116Z" fill="#43E0BB"/>
<rect x="182.98" y="233" width="100.717" height="27.4682" rx="13.7341" transform="rotate(13.2893 182.98 233)" fill="white"/>
<path d="M190.167 251.891L192.206 252.373L192.917 249.36L195.931 250.071L196.412 248.032L193.399 247.32L194.111 244.307L192.072 243.826L191.36 246.839L188.347 246.127L187.865 248.166L190.878 248.878L190.167 251.891Z" fill="#43E0BB"/>
<path d="M196.834 255.342L205.15 257.306L205.626 255.29L200.728 254.133L200.747 254.053L202.844 252.787C205.758 251.166 206.66 250.224 206.974 248.897C207.451 246.875 206.137 245.055 203.637 244.465C201.188 243.886 199.161 244.953 198.626 247.244L200.967 247.797C201.225 246.679 202.093 246.163 203.158 246.414C204.183 246.656 204.796 247.475 204.554 248.5C204.335 249.428 203.614 249.932 202.314 250.701L197.254 253.565L196.834 255.342Z" fill="#43E0BB"/>
<path d="M211.45 259.065C214.384 259.758 216.682 257.943 217.596 254.1C218.503 250.285 217.226 247.674 214.304 246.984C211.376 246.292 209.084 248.054 208.175 251.875C207.258 255.706 208.513 258.365 211.45 259.065ZM211.933 257.02C210.595 256.704 210.046 255.155 210.687 252.468C211.318 249.821 212.493 248.691 213.826 249.006C215.153 249.319 215.704 250.857 215.079 253.505C214.449 256.195 213.266 257.335 211.933 257.02Z" fill="#43E0BB"/>
<path d="M220.531 259.255L218.526 258.782L218.347 259.413C217.913 260.946 217.093 262.43 216.77 263.058L218.343 263.429C218.779 262.804 219.81 261.34 220.32 259.867L220.531 259.255Z" fill="#43E0BB"/>
<path d="M226.378 262.591C229.311 263.284 231.61 261.469 232.524 257.626C233.431 253.811 232.153 251.2 229.231 250.51C226.304 249.818 224.011 251.58 223.103 255.401C222.186 259.231 223.44 261.891 226.378 262.591ZM226.861 260.546C225.522 260.23 224.974 258.681 225.615 255.994C226.246 253.347 227.421 252.217 228.754 252.532C230.081 252.845 230.632 254.383 230.006 257.031C229.377 259.721 228.194 260.861 226.861 260.546Z" fill="#43E0BB"/>
<path d="M237.421 265.199C240.354 265.892 242.653 264.077 243.567 260.234C244.474 256.419 243.196 253.808 240.274 253.118C237.346 252.426 235.054 254.188 234.146 258.009C233.229 261.84 234.483 264.499 237.421 265.199ZM237.904 263.154C236.565 262.838 236.017 261.289 236.658 258.602C237.289 255.955 238.464 254.825 239.797 255.14C241.124 255.453 241.675 256.991 241.049 259.639C240.42 262.329 239.237 263.469 237.904 263.154Z" fill="#43E0BB"/>
<path d="M248.464 267.807C251.397 268.5 253.696 266.686 254.61 262.842C255.517 259.027 254.239 256.416 251.317 255.726C248.389 255.035 246.097 256.797 245.189 260.617C244.272 264.448 245.526 267.107 248.464 267.807ZM248.947 265.762C247.608 265.446 247.06 263.898 247.7 261.21C248.332 258.563 249.507 257.433 250.839 257.748C252.167 258.062 252.718 259.599 252.092 262.248C251.463 264.937 250.279 266.077 248.947 265.762Z" fill="#43E0BB"/>
<path d="M265.712 267.154C268.423 267.795 270.461 266.779 270.984 264.515C271.504 262.364 270.238 260.364 267.47 259.71L262.913 258.634L261.622 264.102L259.964 263.71L259.497 265.687L261.155 266.078L260.977 266.83L259.32 266.438L258.853 268.415L260.51 268.806L260.158 270.299L262.607 270.877L262.96 269.385L265.506 269.986L265.973 268.01L263.427 267.408L263.604 266.657L265.712 267.154ZM264.071 264.68L264.889 261.217L266.996 261.715C268.301 262.023 268.753 262.96 268.511 263.961C268.274 264.987 267.494 265.489 266.11 265.162L264.071 264.68Z" fill="#43E0BB"/>
</g>
<defs>
<clipPath id="clip0">
<rect width="320" height="407" fill="white"/>
</clipPath>
</defs>
</svg>
