<svg width="1128" height="472" viewBox="0 0 1128 472" fill="none" xmlns="http://www.w3.org/2000/svg">
<g clip-path="url(#clip0)">
<rect width="1128" height="472" rx="24" fill="#4099F1"/>
<rect x="658" y="138.483" width="165" height="68" rx="16" transform="rotate(-9.58797 658 138.483)" fill="white"/>
<path d="M690.748 176.571L695.26 175.809L694.134 169.141L700.802 168.014L700.04 163.502L693.372 164.628L692.245 157.96L687.733 158.722L688.859 165.39L682.191 166.517L682.953 171.03L689.621 169.903L690.748 176.571ZM717.313 176.492C723.061 175.521 726.336 171.117 725.442 165.901C724.62 160.957 720.566 157.986 715.914 158.772C713.645 159.155 711.851 160.43 711.159 161.857L711.007 161.882L710.583 155.303L721.865 153.397L721.111 148.935L705.329 151.601L706.406 165.421L711.406 165.471C712.019 164.266 713.444 163.338 714.97 163.08C717.568 162.654 719.751 164.217 720.209 166.927C720.663 169.612 719.148 171.774 716.589 172.206C714.421 172.573 712.439 171.507 711.974 169.524L706.68 170.418C707.534 174.864 711.968 177.395 717.313 176.492ZM740.921 172.725C747.413 171.628 750.499 166.024 749.074 157.514C747.66 149.066 742.872 144.896 736.405 145.988C729.926 147.083 726.808 152.575 728.225 161.036C729.632 169.523 734.415 173.811 740.921 172.725ZM740.157 168.199C737.195 168.7 734.776 166.048 733.784 160.096C732.806 154.233 734.211 150.962 737.161 150.463C740.098 149.967 742.512 152.593 743.503 158.455C744.52 164.402 743.107 167.701 740.157 168.199ZM765.36 168.596C771.852 167.5 774.938 161.896 773.513 153.385C772.099 144.938 767.311 140.768 760.844 141.86C754.365 142.955 751.247 148.447 752.664 156.907C754.071 165.395 758.854 169.683 765.36 168.596ZM764.596 164.071C761.634 164.571 759.215 161.92 758.223 155.968C757.245 150.105 758.65 146.833 761.6 146.335C764.537 145.839 766.951 148.465 767.941 154.326C768.959 160.274 767.546 163.573 764.596 164.071ZM799.518 152.636C805.518 151.622 808.757 147.847 807.886 142.847C807.107 138.078 802.861 135.126 796.735 136.16L786.65 137.864L788.695 149.965L785.026 150.585L785.765 154.959L789.433 154.339L789.715 156.003L786.046 156.623L786.785 160.997L790.453 160.377L791.011 163.68L796.432 162.764L795.874 159.462L801.508 158.51L800.77 154.136L795.135 155.088L794.854 153.424L799.518 152.636ZM794.115 149.05L792.82 141.385L797.484 140.598C800.371 140.11 802.077 141.611 802.439 143.832C802.835 146.099 801.691 147.77 798.628 148.287L794.115 149.05Z" fill="#43E0BB"/>
<rect x="908.648" y="67" width="222" height="68" rx="16" transform="rotate(19.4549 908.648 67)" fill="white"/>
<path d="M918.788 116.197L923.103 117.722L925.355 111.345L931.732 113.597L933.256 109.282L926.88 107.03L929.132 100.653L924.817 99.1286L922.564 105.505L916.188 103.253L914.663 107.568L921.04 109.821L918.788 116.197ZM932.457 125.256L950.057 131.473L951.564 127.206L941.197 123.544L941.257 123.375L946.109 121.116C952.818 118.28 954.998 116.447 955.99 113.638C957.502 109.359 955.075 105.099 949.783 103.229C944.6 101.398 939.949 103.24 938.25 108.09L943.204 109.84C944.027 107.473 946.032 106.555 948.286 107.351C950.456 108.118 951.595 110.038 950.828 112.208C950.134 114.173 948.452 115.097 945.448 116.463L933.786 121.495L932.457 125.256ZM963.326 136.77C969.534 138.963 974.952 135.562 977.838 127.43C980.703 119.358 978.541 113.388 972.357 111.203C966.162 109.015 960.77 112.303 957.901 120.387C955.011 128.491 957.111 134.561 963.326 136.77ZM964.855 132.443C962.022 131.442 961.195 127.95 963.217 122.265C965.209 116.664 968.025 114.486 970.846 115.483C973.655 116.475 974.49 119.943 972.51 125.548C970.513 131.242 967.676 133.439 964.855 132.443ZM983.002 139.314L978.759 137.815L978.222 139.144C976.919 142.372 974.791 145.403 973.943 146.69L977.27 147.865C978.364 146.611 980.948 143.673 982.401 140.593L983.002 139.314ZM994.917 147.929C1001.13 150.122 1006.54 146.721 1009.43 138.589C1012.29 130.517 1010.13 124.547 1003.95 122.362C997.753 120.174 992.361 123.462 989.492 131.546C986.602 139.65 988.702 145.72 994.917 147.929ZM996.446 143.602C993.613 142.601 992.786 139.109 994.808 133.424C996.8 127.823 999.616 125.645 1002.44 126.642C1005.25 127.634 1006.08 131.102 1004.1 136.707C1002.1 142.401 999.267 144.598 996.446 143.602ZM1018.29 156.184C1024.5 158.377 1029.91 154.976 1032.8 146.844C1035.66 138.772 1033.5 132.802 1027.32 130.617C1021.12 128.429 1015.73 131.717 1012.86 139.801C1009.97 147.905 1012.07 153.975 1018.29 156.184ZM1019.82 151.857C1016.98 150.856 1016.16 147.364 1018.18 141.679C1020.17 136.078 1022.99 133.9 1025.81 134.897C1028.62 135.889 1029.45 139.357 1027.47 144.962C1025.47 150.656 1022.64 152.853 1019.82 151.857ZM1041.66 164.439C1047.87 166.632 1053.28 163.231 1056.17 155.099C1059.03 147.027 1056.87 141.057 1050.69 138.872C1044.49 136.684 1039.1 139.972 1036.23 148.056C1033.34 156.16 1035.44 162.23 1041.66 164.439ZM1043.19 160.112C1040.35 159.111 1039.53 155.619 1041.55 149.934C1043.54 144.333 1046.36 142.155 1049.18 143.152C1051.99 144.144 1052.82 147.612 1050.84 153.217C1048.84 158.911 1046.01 161.108 1043.19 160.112ZM1079.27 167.068C1085.01 169.095 1089.67 167.366 1091.34 162.572C1092.97 158.024 1090.69 153.383 1084.83 151.313L1075.19 147.907L1071.1 159.479L1067.59 158.24L1066.12 162.423L1069.62 163.662L1069.06 165.253L1065.55 164.014L1064.08 168.196L1067.59 169.436L1066.47 172.594L1071.65 174.425L1072.77 171.266L1078.16 173.17L1079.63 168.987L1074.25 167.084L1074.81 165.493L1079.27 167.068ZM1076.29 161.31L1078.87 153.981L1083.33 155.556C1086.09 156.531 1086.86 158.672 1086.1 160.789C1085.34 162.963 1083.53 163.869 1080.6 162.834L1076.29 161.31Z" fill="#43E0BB"/>
<path d="M960.935 256.701C960.935 256.701 980.888 212.351 986.508 204.097C992.127 195.843 998.851 200.036 998.377 208.129C997.903 216.223 990.796 259.569 990.796 259.569L960.935 256.701Z" fill="#346E91"/>
<path d="M997.307 202.541C997.314 205.678 990.773 234.438 987.766 239.145C984.759 243.851 979.394 242.029 968.508 240.153C965.459 245.377 962.929 250.887 960.955 256.605L990.815 259.473C990.815 259.473 997.922 216.127 998.396 208.033C998.539 206.138 998.162 204.239 997.307 202.541Z" fill="#2C5776"/>
<path d="M1013.14 276.34C1007.87 294.032 991.248 287.523 969.084 281.753C946.919 275.984 930.292 262.962 933.664 253.177C938.834 238.241 956.341 239.775 978.513 245.507C1000.69 251.238 1017.27 262.493 1013.14 276.34Z" fill="#346E91"/>
<path d="M1012.9 272.396C1011.71 271.925 1010.65 271.185 1009.8 270.234C1008.96 269.282 1008.34 268.146 1008.01 266.916C1007.45 264.977 1007.11 262.979 1007.01 260.963C1006.96 260.353 1006.94 259.65 1006.88 258.939C1005.43 257.652 1003.9 256.468 1002.28 255.395C1003.95 266.956 989.487 259.425 976.192 256.024C962.708 252.348 948.811 250.404 934.836 250.237C934.582 250.805 933.795 252.524 933.572 253.138C930.199 262.924 946.827 275.945 968.991 281.715C991.156 287.484 1007.78 293.993 1013.05 276.301C1013.41 275.103 1013.62 273.863 1013.67 272.612C1013.41 272.561 1013.15 272.488 1012.9 272.396Z" fill="#2C5776"/>
<path d="M933.594 253.522C930.709 263.266 947.168 276.034 969.083 281.753C990.999 287.473 1007.52 293.882 1012.96 276.823C988.039 264.226 961.775 255.013 933.594 253.522Z" fill="#273C56"/>
<path d="M971.431 248.931C971.044 250.851 965.53 250.857 958.72 249.663C951.91 248.469 948.088 247.518 948.436 245.591C948.785 243.664 953.264 242.45 960.074 243.644C966.884 244.838 971.757 247.02 971.431 248.931Z" fill="#5CA1BD"/>
<path d="M983.818 214.36C981.704 220.086 979.828 228.196 981.87 228.967C983.911 229.739 987.413 222.775 989.55 217.035C991.687 211.294 993.435 206.094 991.374 205.419C989.313 204.743 985.947 208.658 983.818 214.36Z" fill="#5CA1BD"/>
<path d="M1091.33 589.151C1101.28 556.407 1018.6 502.281 906.663 468.259C794.722 434.237 695.908 433.201 685.956 465.945C676.004 498.689 758.683 552.814 870.624 586.837C982.565 620.859 1081.38 621.895 1091.33 589.151Z" fill="#1F4060"/>
<path d="M1089.65 594.683C1099.61 561.939 1016.93 507.814 904.986 473.791C793.044 439.769 694.23 438.733 684.278 471.477C674.326 504.222 757.005 558.347 868.946 592.369C980.887 626.392 1079.7 627.428 1089.65 594.683Z" fill="#121A26"/>
<path d="M1087.43 602.03C1097.38 569.285 1014.7 515.16 902.758 481.138C790.817 447.115 692.002 446.079 682.05 478.824C672.098 511.568 754.777 565.693 866.718 599.716C978.66 633.738 1077.47 634.774 1087.43 602.03Z" fill="#4B8CAB"/>
<path d="M906.665 468.294C1014.86 501.166 1095.69 552.827 1092.02 585.819L1109.72 527.773C1125.57 474.275 1119.62 416.68 1093.17 367.55C1066.73 318.419 1021.92 281.74 968.54 265.513C915.155 249.286 857.52 254.827 808.204 280.928C758.889 307.028 721.896 351.571 705.293 404.841L688.069 461.505C705.464 433.397 800.155 435.882 906.665 468.294Z" fill="#346F93"/>
<path opacity="0.58" d="M1007.54 487.047C1029.77 480.007 1049.14 452.017 1049.88 416.394C1050.51 385.063 1041.36 344.469 1002.58 308.883C985.556 293.265 958.157 273.837 904.784 269.8C866.123 266.894 818.528 282.039 793.766 297.956C772.859 311.395 752.844 331.404 741.03 351.451C733.038 364.991 728.436 380.261 727.616 395.962L727.562 396.23C726.997 408.24 728.245 419.776 734.232 430.392C736.289 433.933 739.248 436.867 742.807 438.894C746.366 440.92 750.399 441.968 754.494 441.929C794.835 441.859 848.948 450.638 906.534 468.148C908.795 468.823 911.009 469.53 913.242 470.24C957.444 484.79 988.34 493.12 1007.54 487.047Z" fill="#5CA1BD"/>
<path d="M790.309 357.857C815.166 326.92 839.509 311.299 914.85 328.216C951.153 336.378 984.226 365.3 1002.48 378.95C988.166 355.869 952.387 331.054 908.688 321.24C833.35 304.304 789.371 317.462 765.044 351.222C750.638 371.245 747.482 405.602 783.002 411.309C775.903 396.795 783.449 366.42 790.309 357.857Z" fill="#1F4060"/>
<path d="M762.526 383.111C760.974 403.87 777.773 410.994 783.002 411.31C826.033 413.839 882.19 424.569 940.617 446.822C993.679 467.054 1007.77 442.253 1013.14 426.899C1018.84 410.652 1017.51 355.756 912.871 327.536C828.608 304.745 766.35 332.272 762.526 383.111Z" fill="#121A26"/>
<path d="M1070.07 371.634C1065.63 373.853 1057.75 368.948 1052.42 360.703C1047.1 352.458 1046.33 344.055 1050.7 341.839C1055.06 339.623 1062.94 344.49 1068.3 352.701C1073.65 360.911 1074.47 369.425 1070.07 371.634Z" fill="#5CA1BD"/>
<path d="M847.465 384.827C846.2 384.725 845.026 384.127 844.199 383.163C843.372 382.2 842.96 380.949 843.05 379.683C843.132 376.474 841.943 373.363 839.743 371.026C836.436 367.285 831.791 364.993 826.81 364.642C817.558 363.974 809.05 370.407 808.51 376.15C808.408 377.419 807.805 378.595 806.835 379.42C805.865 380.246 804.608 380.651 803.338 380.549C802.069 380.447 800.893 379.844 800.068 378.874C799.243 377.904 798.837 376.647 798.939 375.378C799.892 363.726 813.45 354.038 827.425 355.059C834.943 355.594 841.949 359.066 846.926 364.725C848.849 366.821 850.338 369.277 851.307 371.951C852.276 374.625 852.706 377.464 852.572 380.305C852.474 381.574 851.877 382.754 850.912 383.585C849.947 384.416 848.693 384.83 847.423 384.739L847.465 384.827Z" fill="#43E0BB"/>
<path d="M937.069 407.478C936.041 406.918 935.253 406.003 934.853 404.903C934.453 403.803 934.469 402.596 934.898 401.507C939.837 389.002 953.57 383.303 967.558 388.122C980.993 392.71 989.062 405.384 986.292 417.628C986.013 418.869 985.252 419.949 984.176 420.629C983.101 421.309 981.799 421.534 980.557 421.254C979.316 420.975 978.237 420.213 977.556 419.138C976.876 418.062 976.651 416.761 976.931 415.519C978.614 408.069 973.251 400.197 964.448 397.202C955.644 394.208 946.865 397.43 943.873 405.035C943.645 405.625 943.304 406.164 942.867 406.621C942.431 407.078 941.908 407.444 941.33 407.699C940.751 407.953 940.128 408.091 939.497 408.104C938.865 408.117 938.237 408.005 937.648 407.774L937.069 407.478Z" fill="#43E0BB"/>
<path d="M1091.57 426.942C1087.87 419.145 1075.54 422.749 1077.45 430.186C1076.62 431.433 1076.18 432.906 1076.2 434.407C1076.24 446 1076.62 457.6 1077.48 469.159C1078.03 476.92 1078.02 484.688 1084.2 490.189C1088.59 494.071 1094.52 491.312 1096.07 486.231C1102.02 466.599 1100.41 445.452 1091.57 426.942Z" fill="#468AAD"/>
</g>
<defs>
<clipPath id="clip0">
<rect width="1128" height="472" rx="24" fill="white"/>
</clipPath>
</defs>
</svg>
