<svg width="472" height="262" viewBox="0 0 472 262" fill="none" xmlns="http://www.w3.org/2000/svg">
<g clip-path="url(#clip0)">
<rect width="472" height="262" rx="16" fill="#F2EDFF"/>
<path fill-rule="evenodd" clip-rule="evenodd" d="M-68 44.6667L-41.0833 61.8889C-14.1667 79.1111 39.6667 113.556 93.5 110.111C147.333 106.667 201.167 65.3333 255 48.1111C308.833 30.8889 362.667 37.7778 416.5 37.7778C470.333 37.7778 524.167 30.8889 551.083 27.4444L578 24V148H551.083C524.167 148 470.333 148 416.5 148C362.667 148 308.833 148 255 148C201.167 148 147.333 148 93.5 148C39.6667 148 -14.1667 148 -41.0833 148H-68V44.6667Z" fill="#D8CCFB"/>
<path fill-rule="evenodd" clip-rule="evenodd" d="M-45.7712 141.776L-36.5 125.5C18.471 134.479 84.4274 148.171 158.5 132.5C232.573 116.829 304.187 73.1151 400.12 82.3074C478.295 89.798 551.56 129.155 589.771 149.183L627.999 169.643L629.565 206.794L592.265 208.365C554.964 209.937 480.364 213.081 405.764 216.224C331.163 219.368 256.563 222.512 181.962 225.655C107.362 228.799 32.7612 231.942 -4.53902 233.514L-41.8392 235.086L-45.7712 141.776Z" fill="#8F6FEC"/>
<path fill-rule="evenodd" clip-rule="evenodd" d="M0 202.633H28.7917C57.5833 202.633 115.167 202.633 172.75 192.406C230.333 182.178 287.917 161.722 345.5 154.051C403.083 146.381 460.667 151.494 518.25 154.051C575.833 156.608 633.417 156.608 662.208 156.608H691V264H662.208C633.417 264 575.833 264 518.25 264C460.667 264 403.083 264 345.5 264C287.917 264 230.333 264 172.75 264C115.167 264 57.5833 264 28.7917 264H0V202.633Z" fill="#7050CB"/>
<path d="M187.887 119.248C150.583 119.248 120.325 149.468 120.313 186.116V264.532V269.044C120.393 271.389 125.353 275.225 139.146 278.411C152.13 281.407 169.428 283.064 187.857 283.07C206.285 283.077 223.578 281.431 236.567 278.442C250.471 275.244 255.407 271.37 255.407 269.025V264.581V186.159C255.407 149.511 225.186 119.248 187.881 119.248H187.887Z" fill="#121A26"/>
<path d="M187.869 171.525C206.285 171.525 223.59 173.188 236.579 176.184C250.477 179.394 255.413 183.268 255.413 185.613C255.413 187.958 250.502 191.825 236.573 195.03C223.578 198.019 206.279 199.664 187.857 199.658C169.435 199.652 152.136 197.994 139.146 194.993C125.242 191.782 120.313 187.909 120.313 185.57C120.313 183.231 125.224 179.351 139.153 176.153C152.142 173.164 169.441 171.518 187.869 171.525ZM187.869 169.56C149.478 169.56 118.355 176.712 118.349 185.57C118.342 194.428 149.466 201.604 187.857 201.616C226.248 201.629 257.371 194.465 257.377 185.613C257.383 176.761 226.26 169.572 187.869 169.56Z" fill="#468CAF"/>
<path d="M187.875 152.034C206.291 152.034 223.596 153.698 236.585 156.693C250.483 159.904 255.419 163.777 255.419 166.122C255.419 168.467 250.508 172.335 236.579 175.539C223.59 178.529 206.285 180.174 187.863 180.168C169.441 180.162 152.142 178.504 139.152 175.508C125.248 172.298 120.319 168.418 120.319 166.08C120.319 163.741 125.23 159.867 139.159 156.663C152.148 153.673 169.447 152.028 187.875 152.034ZM187.875 150.07C149.484 150.07 118.361 157.228 118.355 166.08C118.348 174.932 149.472 182.114 187.863 182.132C226.254 182.151 257.377 174.974 257.383 166.122C257.389 157.27 226.266 150.082 187.875 150.07Z" fill="#2A6D96"/>
<path d="M187.887 99.2908C169.452 99.2859 151.77 106.604 138.73 119.636C125.69 132.667 118.361 150.345 118.355 168.781V181.672C118.355 190.524 149.472 197.712 187.863 197.724C226.254 197.737 257.377 190.573 257.383 181.721V168.83C257.387 159.7 255.591 150.66 252.101 142.224C248.61 133.789 243.492 126.124 237.038 119.666C230.585 113.209 222.923 108.086 214.489 104.59C206.056 101.094 197.017 99.2932 187.887 99.2908Z" fill="#2C5777"/>
<path d="M187.728 106.891C197.763 106.891 205.898 105.189 205.898 103.091C205.898 100.992 197.763 99.2908 187.728 99.2908C177.692 99.2908 169.557 100.992 169.557 103.091C169.557 105.189 177.692 106.891 187.728 106.891Z" fill="#121A26"/>
<path d="M202.08 99.2601C199.109 100.077 193.866 100.617 187.893 100.617C181.92 100.617 176.672 100.07 173.701 99.2478C172.135 98.8365 171.153 98.063 171.153 97.5412C171.153 97.5412 169.557 101.538 169.557 101.924C169.557 104.257 177.765 106.154 187.887 106.154C198.01 106.154 206.217 104.269 206.217 101.937C206.217 101.323 204.91 97.707 204.56 97.4C204.312 97.8759 203.961 98.2901 203.531 98.612C203.102 98.9339 202.606 99.1554 202.08 99.2601Z" fill="#2C5777"/>
<path d="M182.534 100.457C180.269 100.322 178.237 100.113 176.5 99.8431C176.23 101.587 175.941 103.336 175.641 105.073C177.892 105.521 180.17 105.82 182.461 105.97C182.479 105.442 182.51 101.771 182.534 100.457Z" fill="#346F93"/>
<path d="M190.275 100.586C189.502 100.586 188.722 100.617 187.924 100.617H187.439C187.384 102.102 187.298 105.785 187.274 106.141H187.918C188.87 106.141 189.809 106.141 190.724 106.098C190.441 104.281 190.337 102.428 190.275 100.586Z" fill="#346F93"/>
<path d="M200.791 99.567C200.036 99.7205 199.189 99.8678 198.268 99.9905C198.753 101.709 199.121 103.453 199.453 105.215C200.423 105.036 201.384 104.808 202.332 104.533C201.804 102.882 201.282 101.255 200.791 99.567Z" fill="#346F93"/>
<path d="M187.894 94.791C178.637 94.791 171.129 96.0863 171.129 97.6946C171.129 98.2655 172.074 98.7996 173.701 99.2477C176.672 100.07 181.915 100.617 187.894 100.617C193.873 100.617 199.121 100.101 202.08 99.26C203.455 98.8671 204.658 98.2778 204.658 97.7069C204.658 96.0986 197.151 94.791 187.894 94.791Z" fill="#4D9DBC"/>
<path d="M187.894 95.8838C184.775 95.8838 182.246 96.4424 182.246 97.1115C182.246 97.3509 182.565 97.5781 183.118 97.7745C184.672 98.2039 186.282 98.4004 187.894 98.3577C189.506 98.4097 191.117 98.213 192.669 97.7745C193.13 97.6088 193.535 97.3571 193.535 97.1115C193.535 96.4424 191.012 95.8838 187.894 95.8838Z" fill="#121A26"/>
<path d="M257.383 165.987L257.31 165.73C257.31 165.994 257.31 166.258 257.34 166.515C257.367 166.341 257.381 166.164 257.383 165.987Z" fill="#121A26"/>
<path d="M236.855 163.366L236.763 162.636C236.13 157.585 233.536 152.986 229.542 149.83C225.548 146.674 220.473 145.215 215.413 145.767C207.789 146.589 198.317 147.381 187.863 147.743C177.427 147.381 167.93 146.589 160.306 145.767C155.245 145.217 150.171 146.677 146.177 149.834C142.183 152.991 139.59 157.591 138.956 162.642L138.864 163.372C138.595 165.52 138.753 167.7 139.328 169.787C139.902 171.874 140.884 173.827 142.214 175.535C143.545 177.242 145.2 178.67 147.084 179.737C148.967 180.804 151.043 181.488 153.192 181.752C164.698 183.118 176.276 183.793 187.863 183.771C199.448 183.793 211.024 183.118 222.528 181.752C224.677 181.489 226.754 180.805 228.638 179.738C230.523 178.671 232.178 177.242 233.509 175.534C234.84 173.826 235.821 171.872 236.395 169.784C236.97 167.696 237.126 165.515 236.855 163.366Z" fill="#121A26"/>
<path d="M222.528 178.062C211.024 179.432 199.448 180.106 187.863 180.082C176.276 180.106 164.698 179.432 153.192 178.062C145.481 177.123 138.845 171.175 138.845 163.587C138.362 167.894 139.598 172.216 142.284 175.617C144.971 179.017 148.89 181.219 153.192 181.746C164.698 183.112 176.276 183.786 187.863 183.765C199.448 183.787 211.024 183.112 222.528 181.746C226.83 181.221 230.752 179.019 233.439 175.619C236.127 172.218 237.363 167.894 236.88 163.587C236.88 171.629 230.244 177.123 222.528 178.062Z" fill="#468CAF"/>
<path d="M187.857 201.616C149.466 201.616 118.349 194.422 118.349 185.57V244.121C118.349 249.136 128.336 253.617 143.971 256.558H144.082C145.41 256.803 146.775 256.777 148.093 256.481C149.411 256.185 150.655 255.626 151.752 254.837C152.848 254.048 153.774 253.045 154.473 251.889C155.172 250.733 155.63 249.448 155.819 248.111C155.819 248.08 155.819 248.056 155.819 248.031C157.067 240.347 161.037 233.367 167.003 228.366C172.97 223.366 180.536 220.677 188.32 220.792C196.104 220.907 203.588 223.817 209.405 228.991C215.222 234.165 218.984 241.258 220.005 248.976V249.019C220.143 250.221 220.525 251.383 221.126 252.433C221.727 253.483 222.535 254.4 223.501 255.129C224.467 255.857 225.571 256.382 226.746 256.671C227.921 256.96 229.143 257.007 230.336 256.809C230.846 256.723 231.312 256.643 231.724 256.564C247.359 253.629 257.353 249.16 257.353 244.145V185.588C257.371 194.465 226.248 201.629 187.857 201.616Z" fill="#2C5777"/>
<path d="M128.275 242.138C125.574 235.422 125.003 228.062 123.744 220.984C123.266 218.271 122.713 215.563 122.026 212.893C121.633 211.365 121.197 209.824 120.7 208.344C120.497 207.73 120.282 207.117 120.086 206.503L119.828 205.852C119.613 205.379 119.269 204.624 119.146 204.385C118.907 203.912 118.649 203.452 118.391 202.998V244.127C118.391 248.221 125.052 251.96 136.009 254.796C132.702 251.068 130.083 246.782 128.275 242.138Z" fill="#1F4060"/>
<path d="M256.757 201.844C256.708 201.954 256.64 202.077 256.573 202.206C256.113 203.433 255.64 204.606 255.198 205.815C253.795 209.661 252.753 213.63 252.086 217.669C251.975 218.332 251.883 218.995 251.779 219.664C251.779 219.75 251.779 219.824 251.742 219.879C251.627 220.796 251.504 221.71 251.374 222.623C251.206 223.851 251.026 225.078 250.833 226.306C250.08 231.644 248.82 236.898 247.07 241.997C245.549 246.405 243.474 250.603 240.895 254.489C251.159 251.702 257.353 248.092 257.353 244.145V200.561C257.187 201.021 256.954 201.426 256.757 201.844Z" fill="#1F4060"/>
<path opacity="0.57" d="M235.241 201.463C235.858 201.366 236.489 201.406 237.09 201.578C237.69 201.75 238.246 202.052 238.718 202.461C239.19 202.87 239.568 203.377 239.824 203.947C240.08 204.516 240.209 205.135 240.201 205.76V243.402C240.195 245.464 239.372 247.44 237.914 248.897C236.455 250.354 234.479 251.175 232.417 251.18C230.357 251.173 228.382 250.352 226.925 248.895C225.468 247.437 224.646 245.463 224.64 243.402V208.412C224.633 206.933 225.16 205.502 226.124 204.381C227.089 203.26 228.425 202.524 229.888 202.31L235.241 201.463Z" fill="#468CAF"/>
<path d="M140.484 201.463C139.867 201.366 139.236 201.406 138.636 201.578C138.035 201.75 137.48 202.052 137.008 202.461C136.535 202.87 136.158 203.377 135.902 203.947C135.646 204.516 135.517 205.135 135.524 205.76V243.402C135.531 245.464 136.353 247.44 137.812 248.897C139.27 250.354 141.246 251.175 143.308 251.18C145.37 251.175 147.346 250.354 148.805 248.897C150.263 247.44 151.086 245.464 151.092 243.402V208.412C151.092 206.932 150.561 205.502 149.596 204.381C148.63 203.26 147.294 202.523 145.831 202.304L140.484 201.463Z" fill="#468CAF"/>
<path d="M187.894 273.678C198.953 273.678 207.918 264.713 207.918 253.654C207.918 242.595 198.953 233.63 187.894 233.63C176.834 233.63 167.869 242.595 167.869 253.654C167.869 264.713 176.834 273.678 187.894 273.678Z" fill="#2C5777"/>
<path d="M195.186 267.804C194.975 267.799 194.769 267.74 194.587 267.633C194.406 267.525 194.255 267.373 194.149 267.19C194.07 267.054 194.019 266.903 193.998 266.747C193.978 266.591 193.989 266.433 194.03 266.281C194.071 266.129 194.142 265.987 194.238 265.863C194.334 265.738 194.454 265.634 194.591 265.557C196.263 264.591 197.709 263.279 198.834 261.709C199.958 260.139 200.734 258.347 201.11 256.453C201.223 256.197 201.419 255.988 201.667 255.859C201.915 255.73 202.199 255.689 202.473 255.743C202.747 255.798 202.994 255.944 203.174 256.158C203.354 256.372 203.455 256.64 203.461 256.92C203.018 259.147 202.104 261.255 200.781 263.101C199.457 264.947 197.755 266.49 195.788 267.625C195.607 267.738 195.399 267.799 195.186 267.804Z" fill="#2A6D96"/>
<path d="M170.822 254.722C170.534 254.722 170.257 254.608 170.054 254.404C169.85 254.2 169.735 253.924 169.735 253.635C169.74 248.821 171.655 244.205 175.059 240.801C178.463 237.397 183.079 235.482 187.894 235.477C188.182 235.477 188.458 235.592 188.662 235.795C188.866 235.999 188.98 236.276 188.98 236.564C188.98 236.852 188.866 237.128 188.662 237.332C188.458 237.536 188.182 237.65 187.894 237.65C183.664 237.662 179.611 239.347 176.62 242.338C173.629 245.328 171.944 249.381 171.933 253.611C171.936 253.758 171.91 253.904 171.855 254.04C171.801 254.176 171.719 254.3 171.615 254.404C171.511 254.508 171.387 254.59 171.251 254.644C171.115 254.699 170.969 254.725 170.822 254.722Z" fill="#468CAF"/>
<path d="M187.894 265.213C194.278 265.213 199.453 260.038 199.453 253.654C199.453 247.27 194.278 242.095 187.894 242.095C181.51 242.095 176.334 247.27 176.334 253.654C176.334 260.038 181.51 265.213 187.894 265.213Z" fill="#121A26"/>
<path d="M187.894 263.605C193.389 263.605 197.844 259.15 197.844 253.654C197.844 248.158 193.389 243.703 187.894 243.703C182.398 243.703 177.943 248.158 177.943 253.654C177.943 259.15 182.398 263.605 187.894 263.605Z" fill="#4FC997"/>
<path d="M187.292 75C182.584 75 182.995 96.4854 182.995 96.4854C182.995 96.4854 183.793 97.3754 187.857 97.3754C191.921 97.3754 192.884 96.5284 192.884 96.5284C192.884 96.5284 191.73 75 187.292 75Z" fill="#2C5777"/>
<path d="M179.772 256.109C179.794 256.007 179.842 255.913 179.91 255.834C179.979 255.756 180.067 255.696 180.165 255.661C180.314 255.615 180.475 255.628 180.615 255.696C180.755 255.764 180.864 255.884 180.92 256.029C181.231 256.934 181.731 257.762 182.387 258.457C183.044 259.153 183.841 259.7 184.726 260.063C184.837 260.143 184.918 260.259 184.956 260.391C184.994 260.523 184.987 260.663 184.935 260.791C184.883 260.918 184.791 261.024 184.671 261.093C184.552 261.161 184.414 261.187 184.278 261.168C183.236 260.739 182.298 260.094 181.525 259.275C180.753 258.455 180.163 257.481 179.797 256.416C179.762 256.318 179.754 256.212 179.772 256.109Z" fill="#3DAD7D"/>
<path d="M188.434 245.514C188.463 245.379 188.543 245.26 188.657 245.181C188.771 245.102 188.911 245.07 189.048 245.09C191.389 245.55 193.452 246.92 194.785 248.9C196.117 250.879 196.611 253.306 196.156 255.649C196.119 255.779 196.034 255.889 195.918 255.96C195.803 256.03 195.665 256.054 195.533 256.028C195.4 256.002 195.282 255.927 195.202 255.818C195.122 255.709 195.086 255.574 195.1 255.44C195.499 253.378 195.064 251.241 193.89 249.499C192.716 247.757 190.9 246.551 188.839 246.146C188.702 246.114 188.584 246.03 188.508 245.912C188.433 245.794 188.406 245.651 188.434 245.514Z" fill="#71E2B1"/>
<path d="M159.5 176C162.538 176 165 172.866 165 169C165 165.134 162.538 162 159.5 162C156.462 162 154 165.134 154 169C154 172.866 156.462 176 159.5 176Z" fill="#43E0BB"/>
<path d="M210.5 176C213.538 176 216 172.866 216 169C216 165.134 213.538 162 210.5 162C207.462 162 205 165.134 205 169C205 172.866 207.462 176 210.5 176Z" fill="#43E0BB"/>
<path d="M259.839 216.797C259.839 226.091 257.77 233.629 255.216 233.629C252.663 233.629 249.864 229.541 249.864 217.528C249.864 208.234 252.663 199.965 255.216 199.965C257.77 199.965 259.839 207.503 259.839 216.797Z" fill="#121A26"/>
<path d="M115.224 216.797C115.224 226.091 117.293 233.629 119.846 233.629C122.4 233.629 125.199 229.541 125.199 217.528C125.199 208.234 122.4 199.965 119.846 199.965C117.293 199.965 115.224 207.503 115.224 216.797Z" fill="#121A26"/>
<path d="M186.592 94.0298C185.77 94.0298 185.174 93.3361 185.1 92.1268C185.023 88.2389 185.276 84.3515 185.856 80.5063C185.839 80.246 185.923 79.9895 186.09 79.7887C186.256 79.588 186.493 79.4582 186.752 79.4259C187.007 79.4581 187.24 79.5854 187.405 79.7823C187.57 79.9792 187.655 80.2313 187.642 80.4879C187.642 80.4879 188.477 89.6959 188.09 92.1514C187.943 93.3914 187.439 94.0298 186.592 94.0298Z" fill="#468CAF"/>
<path d="M187.022 77.7623C187.503 77.7623 187.894 77.3721 187.894 76.8907C187.894 76.4093 187.503 76.019 187.022 76.019C186.541 76.019 186.15 76.4093 186.15 76.8907C186.15 77.3721 186.541 77.7623 187.022 77.7623Z" fill="#468CAF"/>
<path d="M170.632 112.458C161.147 110.506 155.156 115.264 151.651 118.241C145.942 123.09 146.617 128.928 158.262 131.936C172.872 135.712 193.866 134.895 200.834 134.036C214.014 132.427 209.821 125.442 208.249 121.936C206.574 118.204 204.406 113.06 194.996 113.569C186.592 114.03 174.978 113.361 170.632 112.458Z" fill="#468CAF"/>
<g opacity="0.5">
<path opacity="0.5" d="M213.768 112.691C218.145 110.887 237.838 125.877 229.237 131.212C225.075 133.796 222 128.296 218.329 123.465C213.854 117.572 211.196 113.759 213.768 112.691Z" fill="#468CAF"/>
</g>
<path d="M308.868 247.969C308.549 247.908 308.218 247.865 307.88 247.828C307.543 247.791 307.187 247.779 306.831 247.779C306.475 247.779 306.1 247.779 305.719 247.816C305.135 247.856 304.553 247.928 303.976 248.031C303.362 248.141 302.748 248.276 302.134 248.448L301.521 248.632C300.89 248.821 300.252 249.042 299.605 249.295C299.176 249.467 298.746 249.645 298.31 249.836L297.659 250.136C294.635 251.541 291.846 253.405 289.39 255.661C288.559 256.417 287.843 257.292 287.267 258.258C287.053 258.561 286.91 258.907 286.847 259.273C286.784 259.638 286.804 260.013 286.904 260.369C287.087 260.843 287.434 261.235 287.88 261.474C288.339 260.57 288.964 259.76 289.722 259.087L290.274 258.571C290.849 258.062 291.449 257.582 292.073 257.134C292.503 256.821 292.963 256.52 293.442 256.195C295.227 255.041 297.116 254.054 299.083 253.249C301.04 252.425 303.092 251.848 305.191 251.53C305.768 251.45 306.327 251.401 306.867 251.376C307.663 251.343 308.459 251.375 309.249 251.475C309.525 251.511 309.796 251.554 310.053 251.61C311.224 251.819 312.316 252.341 313.215 253.12C313.364 252.407 313.319 251.667 313.086 250.977C312.435 249.418 310.956 248.344 308.868 247.969Z" fill="#121A26"/>
<path d="M314.504 255.532L314.326 254.918C314.105 254.222 313.7 253.598 313.153 253.114C312.255 252.335 311.163 251.813 309.992 251.603C309.734 251.548 309.464 251.505 309.188 251.468C308.398 251.369 307.601 251.337 306.806 251.37C306.266 251.37 305.707 251.444 305.13 251.524C303.031 251.841 300.979 252.419 299.022 253.243C297.055 254.048 295.166 255.034 293.381 256.189C292.902 256.496 292.441 256.803 292.012 257.128C291.388 257.576 290.788 258.056 290.213 258.565L289.661 259.08C288.902 259.754 288.278 260.564 287.819 261.468C287.607 261.912 287.561 262.418 287.69 262.893L287.795 263.285C288.601 266.041 289.139 268.867 289.403 271.726C289.249 270.498 290.704 269.178 292.994 267.871C295.943 266.297 299.111 265.174 302.392 264.538C306.149 263.789 309.679 263.819 312.374 264.673C315.069 265.526 316.843 267.19 317.07 269.252C316.656 264.607 315.797 260.013 314.504 255.532Z" fill="#2C5776"/>
<path d="M299.747 232.138C299.418 232.151 299.09 232.182 298.764 232.23C298.427 232.279 298.089 232.34 297.733 232.426C297.377 232.512 297.027 232.61 296.665 232.727C296.119 232.905 295.566 233.114 295.007 233.341C294.449 233.568 293.884 233.863 293.313 234.176L292.748 234.501C292.177 234.833 291.607 235.195 291.042 235.588C290.661 235.852 290.287 236.128 289.906 236.416L289.347 236.858C286.724 238.928 284.445 241.399 282.595 244.182C281.134 246.465 280.6 248.295 281.306 249.4C281.609 249.806 282.043 250.096 282.534 250.222C282.733 249.228 283.127 248.282 283.694 247.441C283.823 247.233 283.964 247.024 284.111 246.827C284.51 246.214 284.989 245.6 285.517 244.986C285.861 244.577 286.229 244.167 286.622 243.758C288.078 242.217 289.675 240.816 291.392 239.572C293.1 238.311 294.955 237.264 296.917 236.453C297.457 236.238 297.991 236.054 298.513 235.901C299.272 235.673 300.051 235.515 300.839 235.428C301.109 235.428 301.379 235.379 301.643 235.367C302.827 235.292 304.01 235.526 305.075 236.048C305.05 235.332 304.827 234.637 304.43 234.041C303.571 232.666 301.828 232.039 299.747 232.138Z" fill="#121A26"/>
<path d="M306.965 238.043L306.64 237.503C306.264 236.895 305.735 236.395 305.105 236.054C304.04 235.533 302.858 235.298 301.674 235.373C301.41 235.373 301.14 235.404 300.87 235.434C300.081 235.521 299.303 235.679 298.543 235.907C298.021 236.061 297.487 236.245 296.947 236.459C294.986 237.271 293.13 238.318 291.422 239.578C289.706 240.822 288.109 242.224 286.653 243.764C286.243 244.174 285.875 244.583 285.548 244.992C285.02 245.606 284.541 246.22 284.142 246.834C283.994 247.055 283.853 247.264 283.724 247.448C283.158 248.289 282.763 249.234 282.564 250.229C282.46 250.722 282.539 251.237 282.785 251.677L283 252.033C284.555 254.687 285.864 257.477 286.91 260.37C286.81 260.013 286.79 259.638 286.853 259.273C286.916 258.908 287.059 258.561 287.273 258.258C287.849 257.293 288.565 256.418 289.397 255.661C291.852 253.405 294.641 251.541 297.665 250.136L298.316 249.836C298.752 249.645 299.182 249.467 299.611 249.295C300.258 249.046 300.896 248.825 301.527 248.633L302.14 248.448C302.754 248.276 303.368 248.141 303.982 248.031C304.559 247.928 305.141 247.856 305.725 247.816C306.106 247.785 306.474 247.773 306.836 247.779C307.199 247.785 307.549 247.779 307.886 247.828C308.224 247.877 308.555 247.908 308.875 247.97C310.962 248.356 312.429 249.43 313.03 250.971C311.407 246.486 309.377 242.159 306.965 238.043Z" fill="#2C5776"/>
<path d="M287.156 218.829C286.849 218.921 286.542 219.026 286.217 219.155C285.891 219.284 285.603 219.425 285.259 219.584C284.915 219.744 284.614 219.922 284.289 220.118C283.787 220.424 283.302 220.756 282.834 221.113C282.343 221.487 281.858 221.892 281.379 222.341L280.907 222.789C280.434 223.243 279.961 223.734 279.507 224.256C279.2 224.6 278.893 224.956 278.605 225.33L278.163 225.889C276.121 228.528 274.498 231.466 273.35 234.599C272.953 235.653 272.715 236.76 272.644 237.884C272.593 238.252 272.625 238.628 272.737 238.982C272.85 239.337 273.04 239.662 273.295 239.934C273.671 240.263 274.152 240.448 274.651 240.456C274.625 239.445 274.793 238.438 275.149 237.491C275.228 237.264 275.314 237.024 275.406 236.779C275.682 236.063 275.995 235.362 276.346 234.679C276.585 234.201 276.849 233.709 277.138 233.212C278.204 231.372 279.437 229.634 280.821 228.019C282.192 226.401 283.757 224.958 285.48 223.722C285.955 223.39 286.427 223.089 286.898 222.819C287.589 222.423 288.311 222.087 289.059 221.813C289.317 221.72 289.581 221.641 289.832 221.567C290.964 221.22 292.167 221.179 293.319 221.45C293.133 220.749 292.757 220.111 292.233 219.609C290.993 218.504 289.194 218.234 287.156 218.829Z" fill="#121A26"/>
<path d="M295.584 222.936L295.179 222.506V222.476C294.677 221.958 294.039 221.594 293.338 221.426C292.186 221.155 290.982 221.195 289.851 221.542C289.599 221.616 289.335 221.696 289.077 221.788C288.33 222.062 287.607 222.399 286.917 222.795C286.446 223.065 285.973 223.366 285.499 223.697C283.775 224.933 282.21 226.376 280.839 227.994C279.455 229.609 278.222 231.347 277.156 233.188C276.868 233.685 276.604 234.176 276.364 234.655C276.014 235.337 275.7 236.038 275.425 236.754C275.333 237 275.247 237.239 275.167 237.466C274.812 238.413 274.643 239.42 274.67 240.431C274.694 240.933 274.889 241.412 275.222 241.788L275.486 242.07C277.642 244.334 279.597 246.78 281.331 249.381C280.625 248.276 281.159 246.447 282.62 244.164C284.47 241.381 286.749 238.909 289.372 236.84L289.931 236.398C290.311 236.11 290.686 235.833 291.066 235.569C291.631 235.177 292.202 234.814 292.773 234.483L293.338 234.157C293.909 233.844 294.473 233.544 295.032 233.323C295.591 233.102 296.143 232.868 296.689 232.709C297.052 232.592 297.408 232.494 297.758 232.408C298.108 232.322 298.451 232.261 298.789 232.212C299.114 232.163 299.442 232.133 299.771 232.119C301.852 232.021 303.595 232.647 304.479 234.016C301.842 230.071 298.866 226.364 295.584 222.936Z" fill="#2C5776"/>
<path d="M271.097 208.86C270.809 209.034 270.531 209.222 270.262 209.425C269.986 209.633 269.716 209.86 269.446 210.1C269.176 210.339 268.918 210.603 268.66 210.892C268.254 211.329 267.875 211.791 267.524 212.273C267.162 212.764 266.818 213.292 266.487 213.851C266.382 214.041 266.272 214.231 266.162 214.422C265.842 214.999 265.548 215.606 265.259 216.263C265.069 216.687 264.891 217.116 264.719 217.558C264.633 217.779 264.547 218 264.467 218.228C263.326 221.353 262.617 224.621 262.362 227.939C262.26 229.041 262.305 230.151 262.497 231.241C262.528 231.592 262.64 231.93 262.823 232.23C263.006 232.53 263.256 232.784 263.553 232.973C263.979 233.171 264.464 233.208 264.915 233.077C264.666 232.118 264.595 231.121 264.707 230.136C264.707 229.897 264.744 229.645 264.774 229.388C264.852 228.688 264.975 227.933 265.142 227.122C265.249 226.603 265.372 226.062 265.511 225.502C266.035 223.447 266.737 221.442 267.61 219.51C268.467 217.561 269.573 215.731 270.901 214.065C271.255 213.637 271.632 213.227 272.03 212.838C272.594 212.269 273.21 211.755 273.872 211.303C274.095 211.145 274.327 211 274.565 210.867C275.595 210.235 276.776 209.893 277.985 209.879C277.596 209.234 277.04 208.706 276.376 208.35C275.595 207.966 274.719 207.815 273.853 207.915C272.877 208.028 271.937 208.35 271.097 208.86Z" fill="#121A26"/>
<path d="M280.661 210.757L280.195 210.468L280.103 210.407C279.463 210.019 278.727 209.819 277.979 209.83C276.77 209.844 275.589 210.186 274.559 210.818C274.32 210.951 274.089 211.096 273.866 211.254C273.204 211.706 272.588 212.22 272.024 212.789C271.626 213.178 271.249 213.588 270.895 214.016C269.567 215.681 268.461 217.512 267.604 219.461C266.731 221.394 266.029 223.398 265.505 225.453C265.366 226.013 265.243 226.554 265.136 227.073C264.973 227.892 264.85 228.647 264.768 229.338C264.737 229.596 264.713 229.848 264.701 230.088C264.589 231.072 264.66 232.069 264.909 233.028C265.042 233.486 265.328 233.885 265.72 234.157H265.775L266.057 234.335C268.639 235.941 271.061 237.791 273.289 239.86C273.034 239.589 272.844 239.263 272.731 238.909C272.619 238.554 272.587 238.179 272.638 237.81C272.709 236.686 272.947 235.579 273.344 234.526C274.492 231.393 276.115 228.454 278.156 225.815L278.598 225.256C278.893 224.882 279.212 224.526 279.501 224.182C279.955 223.66 280.428 223.169 280.9 222.715L281.373 222.267C281.852 221.825 282.337 221.42 282.828 221.039C283.296 220.683 283.781 220.351 284.283 220.045C284.608 219.848 284.897 219.67 285.253 219.51C285.609 219.351 285.867 219.204 286.211 219.081C286.554 218.958 286.824 218.847 287.15 218.755C289.188 218.142 290.986 218.418 292.208 219.517C288.653 216.228 284.785 213.295 280.661 210.757Z" fill="#2C5776"/>
<path d="M261.779 202.991L261.054 202.862C260.068 202.676 259.048 202.796 258.132 203.206C257.175 203.624 252.994 205.662 252.393 216.423C251.699 228.89 255.394 230.081 255.806 230.137L256.119 230.186C258.705 230.781 261.204 231.707 263.553 232.942C263.256 232.754 263.006 232.499 262.823 232.199C262.64 231.899 262.529 231.561 262.497 231.211C262.305 230.121 262.26 229.01 262.362 227.908C262.617 224.59 263.326 221.323 264.467 218.197C264.547 217.97 264.633 217.749 264.719 217.528C264.891 217.086 265.069 216.656 265.259 216.232C265.542 215.619 265.843 215.005 266.162 214.391C266.272 214.201 266.383 214.01 266.487 213.82C266.818 213.261 267.162 212.733 267.525 212.242C267.876 211.76 268.255 211.299 268.66 210.861C268.918 210.573 269.182 210.315 269.446 210.069C269.71 209.824 269.986 209.603 270.262 209.394C270.531 209.192 270.81 209.003 271.097 208.829C271.931 208.303 272.87 207.964 273.847 207.835C274.713 207.735 275.589 207.886 276.37 208.271C271.764 205.867 266.856 204.092 261.779 202.991Z" fill="#2C5776"/>
<path d="M294.093 261.186C293.739 259.627 293.296 258.09 292.767 256.582C292.509 256.76 292.251 256.938 292.012 257.116C291.388 257.564 290.788 258.043 290.213 258.553L289.66 259.068C288.902 259.742 288.277 260.552 287.819 261.456C287.607 261.9 287.561 262.405 287.69 262.88L287.794 263.273C288.6 266.029 289.139 268.855 289.403 271.714C289.249 270.486 290.704 269.166 292.994 267.859C293.577 267.539 294.221 267.245 294.915 266.907C294.754 264.986 294.48 263.075 294.093 261.186Z" fill="#1F4060"/>
<path d="M290.243 250.781C289.034 248.515 287.675 246.333 286.173 244.249C285.946 244.495 285.731 244.747 285.523 244.986C284.995 245.6 284.516 246.214 284.117 246.828C283.97 247.049 283.828 247.257 283.699 247.441C283.133 248.283 282.739 249.228 282.539 250.222C282.435 250.716 282.514 251.231 282.76 251.671L282.975 252.027C284.53 254.681 285.839 257.471 286.885 260.363C286.785 260.007 286.765 259.632 286.828 259.267C286.891 258.901 287.034 258.555 287.248 258.252C287.824 257.286 288.54 256.411 289.372 255.655C290.098 254.97 290.863 254.327 291.661 253.727C291.232 252.745 290.765 251.757 290.243 250.781Z" fill="#1F4060"/>
<path d="M284.344 241.831C282.053 238.968 279.509 236.315 276.745 233.906C276.603 234.164 276.468 234.422 276.345 234.673C275.995 235.356 275.682 236.057 275.406 236.773C275.314 237.018 275.228 237.257 275.148 237.485C274.793 238.432 274.624 239.439 274.651 240.45C274.675 240.952 274.87 241.43 275.204 241.806L275.468 242.089C277.623 244.352 279.579 246.799 281.312 249.4C280.606 248.295 281.14 246.466 282.601 244.182C283.139 243.367 283.721 242.583 284.344 241.831Z" fill="#1F4060"/>
<path d="M274.375 232.064C271.465 230.039 268.236 228.577 265.167 226.945C265.154 226.993 265.144 227.042 265.136 227.092C264.973 227.91 264.85 228.665 264.768 229.357C264.737 229.615 264.713 229.867 264.701 230.106C264.589 231.091 264.66 232.087 264.909 233.046C265.042 233.504 265.328 233.903 265.72 234.176H265.775L266.057 234.354C268.639 235.959 271.061 237.809 273.289 239.879C273.034 239.607 272.844 239.282 272.731 238.927C272.619 238.573 272.587 238.197 272.638 237.828C272.709 236.705 272.947 235.598 273.344 234.544C273.645 233.7 273.989 232.873 274.375 232.064Z" fill="#1F4060"/>
<path d="M262.497 231.211C262.305 230.121 262.26 229.01 262.362 227.908C262.411 227.172 262.503 226.374 262.626 225.533C261.583 224.924 260.577 224.256 259.611 223.531C256.45 221.15 253.589 218.817 252.712 213.2C252.57 214.182 252.46 215.244 252.392 216.423C251.699 228.891 255.394 230.081 255.806 230.137L256.119 230.186C258.705 230.781 261.203 231.707 263.553 232.942C263.256 232.754 263.006 232.499 262.823 232.199C262.64 231.899 262.528 231.561 262.497 231.211Z" fill="#1F4060"/>
<path d="M66.1574 247.969C66.4767 247.908 66.8081 247.865 67.1457 247.828C67.4833 247.791 67.8393 247.779 68.1954 247.779C68.5514 247.779 68.9259 247.779 69.3065 247.816C69.8931 247.856 70.4771 247.928 71.0561 248.031C71.67 248.141 72.2838 248.276 72.8977 248.448L73.5116 248.632C74.1418 248.821 74.7801 249.042 75.4268 249.295C75.8565 249.467 76.2924 249.645 76.7221 249.836L77.3728 250.136C80.3972 251.541 83.1864 253.405 85.6416 255.661C86.4735 256.417 87.1892 257.292 87.7655 258.258C87.9791 258.561 88.1225 258.907 88.1852 259.273C88.2478 259.638 88.2282 260.013 88.1278 260.369C87.9421 260.826 87.6035 261.203 87.1701 261.438C86.7116 260.533 86.0868 259.723 85.3285 259.05C85.1566 258.878 84.9724 258.706 84.7759 258.534C84.248 258.061 83.6465 257.583 82.9835 257.098C82.5476 256.785 82.0934 256.484 81.6084 256.158C79.8238 255.003 77.9352 254.016 75.967 253.212C74.0101 252.388 71.9584 251.811 69.8591 251.493C69.282 251.413 68.7234 251.364 68.1832 251.34C67.388 251.306 66.5912 251.339 65.8014 251.438C65.5251 251.475 65.255 251.518 64.9971 251.573C63.8269 251.783 62.735 252.305 61.8358 253.083C61.6855 252.37 61.7322 251.629 61.9708 250.941C62.5908 249.418 64.0703 248.344 66.1574 247.969Z" fill="#121A26"/>
<path d="M60.5282 255.532L60.7001 254.918C60.9208 254.222 61.3261 253.598 61.8727 253.114C62.7719 252.336 63.8638 251.814 65.0341 251.603C65.2919 251.548 65.562 251.505 65.8383 251.468C66.6281 251.369 67.4247 251.337 68.22 251.37C68.7602 251.37 69.3188 251.444 69.8959 251.524C71.9952 251.841 74.0471 252.419 76.004 253.243C77.9721 254.047 79.8608 255.033 81.6454 256.189C82.1303 256.496 82.5846 256.803 83.0204 257.128C83.6834 257.613 84.285 258.092 84.8129 258.565C85.0093 258.737 85.1936 258.909 85.3654 259.08C86.1238 259.754 86.7485 260.564 87.207 261.468C87.419 261.912 87.4647 262.418 87.3359 262.893L87.2315 263.285C86.4255 266.041 85.887 268.867 85.6232 271.726C85.7767 270.498 84.3218 269.178 82.032 267.871C79.0848 266.298 75.9193 265.175 72.64 264.538C68.877 263.789 65.3472 263.819 62.6524 264.673C59.9575 265.526 58.1833 267.19 57.9562 269.252C58.3689 264.607 59.2302 260.012 60.5282 255.532Z" fill="#2C5776"/>
<path d="M75.2795 232.138C75.6083 232.151 75.9363 232.182 76.2618 232.23C76.5994 232.279 76.937 232.34 77.293 232.426C77.6491 232.512 77.999 232.61 78.3673 232.727C78.9075 232.905 79.46 233.114 80.0186 233.341C80.5772 233.568 81.1481 233.863 81.7129 234.176L82.2839 234.501C82.8486 234.833 83.4195 235.195 83.9843 235.588C84.3649 235.852 84.7454 236.128 85.1199 236.416L85.6786 236.858C88.302 238.928 90.5811 241.399 92.4311 244.182C93.8921 246.465 94.4261 248.295 93.7201 249.4C93.4167 249.806 92.9835 250.096 92.4924 250.222C92.2933 249.228 91.899 248.282 91.3323 247.441C91.2033 247.233 91.0621 247.024 90.9147 246.827C90.5157 246.214 90.037 245.6 89.5091 244.986C89.1653 244.581 88.797 244.169 88.4102 243.758C86.9513 242.22 85.3547 240.819 83.6405 239.572C81.9315 238.313 80.0764 237.266 78.1157 236.453C77.5755 236.238 77.0414 236.054 76.5196 235.901C75.7621 235.673 74.9854 235.515 74.1991 235.428C73.9229 235.428 73.6529 235.379 73.3889 235.367C72.2071 235.289 71.0258 235.524 69.9635 236.048C69.9762 235.335 70.1889 234.639 70.5774 234.041C71.4552 232.666 73.1985 232.039 75.2795 232.138Z" fill="#121A26"/>
<path d="M68.0604 238.043L68.3858 237.503C68.7628 236.893 69.2943 236.393 69.9266 236.054C70.9889 235.531 72.1702 235.296 73.352 235.373C73.616 235.373 73.8861 235.404 74.1624 235.434C74.9486 235.521 75.7252 235.679 76.4827 235.907C77.0045 236.06 77.5386 236.245 78.0788 236.459C80.0395 237.272 81.8946 238.319 83.6036 239.578C85.3178 240.825 86.9144 242.226 88.3733 243.764C88.7601 244.182 89.1284 244.593 89.4722 244.992C90.0001 245.606 90.479 246.22 90.878 246.834C91.0253 247.055 91.1665 247.263 91.2954 247.448C91.8621 248.289 92.2564 249.234 92.4555 250.228C92.5594 250.722 92.4809 251.237 92.2346 251.677L92.0197 252.033C90.4647 254.687 89.1559 257.477 88.1094 260.37C88.2099 260.013 88.2295 259.638 88.1668 259.273C88.1042 258.907 87.9608 258.561 87.7472 258.258C87.1708 257.293 86.4551 256.418 85.6232 255.661C83.168 253.405 80.3789 251.541 77.3545 250.136L76.7099 249.811C76.2802 249.621 75.8442 249.443 75.4145 249.271C74.7679 249.021 74.1296 248.8 73.4994 248.608L72.8855 248.424C72.2716 248.252 71.6578 248.117 71.0439 248.006C70.4649 247.904 69.8809 247.832 69.2943 247.791C68.9137 247.761 68.5455 247.748 68.1833 247.755C67.8211 247.761 67.4711 247.755 67.1335 247.804C66.7958 247.853 66.4644 247.883 66.1452 247.945C64.0581 248.332 62.5909 249.406 61.9955 250.947C63.62 246.47 65.65 242.151 68.0604 238.043Z" fill="#2C5776"/>
<path d="M87.8699 218.829C88.1769 218.921 88.4838 219.026 88.8092 219.155C89.1345 219.284 89.4231 219.425 89.7668 219.584C90.1106 219.744 90.4114 219.922 90.7368 220.118C91.2217 220.413 91.7066 220.732 92.1977 221.113C92.6888 221.493 93.1677 221.892 93.6465 222.341L94.1192 222.789C94.598 223.243 95.0644 223.734 95.5187 224.256C95.8256 224.6 96.1327 224.956 96.4212 225.33L96.8632 225.889C98.9046 228.528 100.528 231.466 101.676 234.599C102.076 235.652 102.314 236.76 102.382 237.884C102.436 238.252 102.406 238.629 102.293 238.984C102.18 239.339 101.988 239.664 101.731 239.934C101.356 240.265 100.875 240.45 100.374 240.456C100.401 239.445 100.232 238.438 99.8772 237.491C99.8035 237.264 99.7176 237.024 99.6194 236.779C99.3441 236.063 99.0305 235.362 98.6802 234.679C98.4408 234.201 98.1768 233.709 97.8883 233.212C96.8221 231.372 95.5892 229.634 94.2051 228.019C92.8342 226.401 91.2693 224.958 89.5458 223.722C89.071 223.39 88.5985 223.089 88.1278 222.819C87.4378 222.422 86.7149 222.085 85.967 221.813C85.7092 221.72 85.4514 221.641 85.1935 221.567C84.0622 221.219 82.8587 221.179 81.7067 221.45C81.8931 220.749 82.269 220.111 82.7932 219.609C84.0332 218.504 85.838 218.234 87.8699 218.829Z" fill="#121A26"/>
<path d="M79.4416 222.936L79.8468 222.506V222.475C80.3489 221.958 80.9875 221.594 81.6884 221.426C82.8404 221.154 84.0438 221.195 85.1751 221.542C85.433 221.616 85.6908 221.696 85.9486 221.788C86.6965 222.061 87.4194 222.398 88.1094 222.795C88.5801 223.065 89.0526 223.366 89.5274 223.697C91.2509 224.933 92.8158 226.376 94.1867 227.994C95.5708 229.609 96.8037 231.347 97.8699 233.187C98.1584 233.685 98.4224 234.176 98.6618 234.655C99.0121 235.337 99.3257 236.038 99.601 236.754C99.6992 237 99.7851 237.239 99.8588 237.466C100.214 238.413 100.383 239.42 100.356 240.431C100.332 240.933 100.137 241.412 99.8036 241.788L99.5396 242.07C97.384 244.334 95.4287 246.78 93.6955 249.381C94.4015 248.276 93.8675 246.447 92.4065 244.163C90.5565 241.381 88.2774 238.909 85.654 236.84L85.0953 236.398C84.7208 236.109 84.3403 235.833 83.9597 235.569C83.3949 235.176 82.824 234.814 82.2593 234.483L81.6884 234.157C81.1237 233.844 80.5528 233.543 79.9941 233.322C79.4355 233.101 78.8829 232.868 78.3427 232.709C77.9744 232.592 77.6184 232.494 77.2684 232.408C76.9185 232.322 76.5748 232.261 76.2372 232.211C75.9117 232.163 75.5837 232.133 75.2549 232.119C73.1739 232.021 71.4306 232.647 70.5466 234.016C73.1837 230.071 76.16 226.364 79.4416 222.936Z" fill="#2C5776"/>
<path d="M103.929 208.86C104.216 209.034 104.495 209.222 104.764 209.425C105.04 209.633 105.31 209.86 105.58 210.1C105.85 210.339 106.108 210.603 106.372 210.892C106.774 211.331 107.151 211.792 107.501 212.273C107.864 212.764 108.207 213.292 108.539 213.851C108.643 214.041 108.754 214.231 108.864 214.422C109.183 214.999 109.478 215.606 109.767 216.263C109.957 216.687 110.135 217.116 110.307 217.558L110.565 218.228C111.702 221.354 112.408 224.622 112.664 227.939C112.766 229.041 112.721 230.151 112.529 231.241C112.497 231.591 112.386 231.928 112.204 232.228C112.022 232.528 111.774 232.783 111.479 232.973C111.051 233.171 110.564 233.208 110.11 233.077C110.36 232.118 110.43 231.121 110.319 230.136C110.319 229.897 110.282 229.645 110.252 229.388C110.172 228.688 110.049 227.933 109.889 227.122C109.779 226.601 109.656 226.06 109.515 225.502C108.991 223.448 108.29 221.444 107.422 219.51C106.561 217.562 105.453 215.732 104.125 214.065C103.772 213.635 103.395 213.225 102.996 212.838C102.433 212.267 101.817 211.753 101.154 211.303C100.931 211.145 100.699 211 100.46 210.867C99.4309 210.235 98.2494 209.893 97.0413 209.879C97.4299 209.234 97.9855 208.706 98.6495 208.35C99.4312 207.966 100.307 207.815 101.173 207.915C102.149 208.027 103.089 208.35 103.929 208.86Z" fill="#121A26"/>
<path d="M94.3646 210.757L94.8312 210.468L94.9232 210.407C95.563 210.019 96.299 209.819 97.0472 209.83C98.2553 209.844 99.4369 210.186 100.466 210.818C100.705 210.951 100.937 211.096 101.16 211.254C101.823 211.704 102.439 212.218 103.002 212.789C103.401 213.176 103.778 213.586 104.131 214.016C105.459 215.683 106.567 217.513 107.428 219.461C108.296 221.395 108.997 223.399 109.521 225.453C109.662 226.011 109.785 226.552 109.896 227.073C110.055 227.884 110.178 228.639 110.258 229.338C110.288 229.596 110.313 229.848 110.325 230.088C110.437 231.072 110.366 232.069 110.116 233.028C109.983 233.486 109.697 233.885 109.306 234.157H109.251L108.969 234.335C106.386 235.941 103.965 237.791 101.737 239.86C101.994 239.59 102.186 239.265 102.299 238.91C102.412 238.555 102.442 238.179 102.388 237.81C102.32 236.686 102.082 235.578 101.682 234.526C100.534 231.393 98.9107 228.454 96.8693 225.815L96.4273 225.256C96.1326 224.882 95.8133 224.526 95.5248 224.182C95.0705 223.66 94.6041 223.169 94.1253 222.715L93.6526 222.267C93.1738 221.825 92.6888 221.42 92.2038 221.039C91.7189 220.658 91.2278 220.339 90.7429 220.045C90.4175 219.848 90.129 219.67 89.7729 219.51C89.4169 219.351 89.159 219.204 88.8152 219.081C88.4715 218.958 88.2014 218.847 87.876 218.755C85.8441 218.142 84.0393 218.418 82.8177 219.517C86.373 216.228 90.2403 213.295 94.3646 210.757Z" fill="#2C5776"/>
<path d="M113.247 202.991L113.971 202.862C114.958 202.676 115.978 202.796 116.893 203.206C117.851 203.624 122.038 205.662 122.633 216.423C123.327 228.89 119.631 230.081 119.22 230.137L118.907 230.186C116.322 230.78 113.826 231.706 111.479 232.942C111.774 232.752 112.022 232.498 112.204 232.198C112.386 231.898 112.497 231.56 112.529 231.211C112.72 230.121 112.766 229.01 112.664 227.908C112.408 224.591 111.702 221.324 110.564 218.197L110.307 217.528C110.135 217.086 109.957 216.656 109.767 216.232C109.484 215.619 109.183 215.005 108.864 214.391C108.754 214.201 108.643 214.01 108.539 213.82C108.207 213.261 107.863 212.733 107.501 212.242C107.15 211.762 106.774 211.3 106.372 210.861C106.108 210.573 105.844 210.315 105.58 210.069C105.316 209.824 105.04 209.603 104.763 209.394C104.495 209.192 104.216 209.003 103.929 208.829C103.095 208.302 102.157 207.963 101.179 207.835C100.313 207.735 99.4372 207.886 98.6555 208.271C103.262 205.867 108.169 204.092 113.247 202.991Z" fill="#2C5776"/>
<path d="M80.9331 261.186C81.29 259.628 81.7328 258.091 82.2591 256.582L83.0203 257.116C83.6833 257.601 84.2848 258.08 84.8128 258.553C85.0092 258.724 85.1935 258.896 85.3653 259.068C86.1236 259.742 86.7484 260.552 87.2069 261.456C87.4189 261.9 87.4646 262.405 87.3358 262.88L87.2314 263.273C86.4254 266.029 85.8869 268.855 85.6231 271.714C85.7766 270.486 84.3217 269.166 82.0319 267.859C81.4488 267.539 80.8043 267.245 80.1106 266.907C80.2713 264.986 80.5459 263.075 80.9331 261.186Z" fill="#1F4060"/>
<path d="M84.7821 250.781C85.9911 248.515 87.3509 246.333 88.8521 244.249C89.0792 244.495 89.3002 244.747 89.5028 244.986C90.0307 245.6 90.5094 246.214 90.9084 246.828C91.0558 247.049 91.1971 247.257 91.326 247.441C91.8927 248.283 92.287 249.228 92.4861 250.222C92.59 250.716 92.5116 251.231 92.2652 251.671L92.0503 252.027C90.4953 254.681 89.1865 257.471 88.14 260.363C88.2405 260.007 88.2601 259.632 88.1974 259.267C88.1348 258.901 87.9914 258.555 87.7778 258.252C87.2014 257.286 86.4858 256.411 85.6538 255.655C84.9272 254.97 84.1628 254.327 83.3641 253.727C83.7938 252.745 84.2603 251.757 84.7821 250.781Z" fill="#1F4060"/>
<path d="M90.6813 241.831C92.9728 238.968 95.5161 236.315 98.2809 233.906C98.4221 234.164 98.5572 234.422 98.68 234.673C99.0303 235.356 99.3439 236.057 99.6192 236.773C99.7174 237.018 99.8033 237.257 99.877 237.485C100.232 238.432 100.401 239.439 100.374 240.45C100.35 240.952 100.155 241.43 99.8217 241.806L99.5578 242.089C97.4022 244.352 95.4469 246.799 93.7137 249.4C94.4197 248.295 93.8857 246.466 92.4247 244.182C91.8864 243.367 91.3043 242.583 90.6813 241.831Z" fill="#1F4060"/>
<path d="M100.651 232.064C103.56 230.039 106.789 228.577 109.859 226.945L109.895 227.092C110.055 227.902 110.178 228.657 110.257 229.357C110.288 229.615 110.313 229.867 110.325 230.106C110.436 231.091 110.366 232.087 110.116 233.046C109.983 233.504 109.697 233.903 109.306 234.176H109.251L108.968 234.354C106.386 235.959 103.965 237.809 101.737 239.879C101.994 239.609 102.186 239.284 102.299 238.929C102.412 238.573 102.442 238.197 102.388 237.828C102.32 236.704 102.082 235.597 101.682 234.544C101.381 233.7 101.036 232.873 100.651 232.064Z" fill="#1F4060"/>
<path d="M112.529 231.211C112.72 230.121 112.766 229.01 112.664 227.908C112.615 227.172 112.529 226.374 112.4 225.533C113.444 224.923 114.452 224.255 115.42 223.531C118.576 221.15 121.436 218.817 122.314 213.2C122.455 214.182 122.566 215.244 122.633 216.423C123.327 228.891 119.631 230.081 119.22 230.137L118.907 230.186C116.322 230.78 113.826 231.707 111.479 232.942C111.774 232.752 112.022 232.498 112.204 232.198C112.386 231.898 112.497 231.56 112.529 231.211Z" fill="#1F4060"/>
<path d="M262 120C262 115.582 265.582 112 270 112H416C420.418 112 424 115.582 424 120V130C424 134.418 420.418 138 416 138H262V120Z" fill="white"/>
<path d="M272.188 129H273.449L269.801 124.108L273.33 120.273H272.068L268.574 124.057H268.114V120.273H267.057V129H268.114V124.994H269.188L272.188 129ZM276.857 129.136C278.63 129.136 279.823 127.79 279.823 125.761C279.823 123.716 278.63 122.369 276.857 122.369C275.084 122.369 273.891 123.716 273.891 125.761C273.891 127.79 275.084 129.136 276.857 129.136ZM276.857 128.233C275.51 128.233 274.897 127.074 274.897 125.761C274.897 124.449 275.51 123.273 276.857 123.273C278.203 123.273 278.817 124.449 278.817 125.761C278.817 127.074 278.203 128.233 276.857 128.233ZM284.938 127.636L282.688 122.455H281.358V129H282.364V123.899L284.528 129H285.347L287.511 123.993V129H288.517V122.455H287.222L284.938 127.636ZM290.771 131.455C291.679 131.455 292.318 130.973 292.697 129.955L295.484 122.472L294.385 122.455L292.578 127.67H292.51L290.703 122.455H289.612L292.033 129.034L291.845 129.545C291.479 130.543 291.027 130.636 290.294 130.449L290.038 131.335C290.141 131.386 290.43 131.455 290.771 131.455ZM304.127 129H305.082V122.455H302.389C300.978 122.455 300.122 123.192 300.122 124.398C300.122 125.297 300.574 125.936 301.362 126.205L299.764 129H300.855L302.372 126.341H304.127V129ZM304.127 125.403H302.27C301.558 125.403 301.127 125.024 301.127 124.398C301.127 123.763 301.605 123.375 302.389 123.375H304.127V125.403ZM313.048 129.136C314.377 129.136 315.349 128.472 315.656 127.483L314.684 127.21C314.428 127.892 313.836 128.233 313.048 128.233C311.867 128.233 311.053 127.47 311.006 126.068H315.758V125.642C315.758 123.205 314.309 122.369 312.945 122.369C311.173 122.369 309.996 123.767 309.996 125.778C309.996 127.79 311.156 129.136 313.048 129.136ZM311.006 125.199C311.075 124.18 311.795 123.273 312.945 123.273C314.036 123.273 314.735 124.091 314.735 125.199H311.006ZM326.219 128.062H325.248V122.455H324.242V128.062H321.771V122.455H320.765V128.062H318.293V122.455H317.288V129H325.06V130.875H326.1L326.219 128.062ZM330.356 129.136C331.686 129.136 332.657 128.472 332.964 127.483L331.993 127.21C331.737 127.892 331.145 128.233 330.356 128.233C329.176 128.233 328.362 127.47 328.315 126.068H333.066V125.642C333.066 123.205 331.618 122.369 330.254 122.369C328.481 122.369 327.305 123.767 327.305 125.778C327.305 127.79 328.464 129.136 330.356 129.136ZM328.315 125.199C328.383 124.18 329.103 123.273 330.254 123.273C331.345 123.273 332.044 124.091 332.044 125.199H328.315ZM338.977 122.455H337.971V129H338.977V126.205H342.113V129H343.119V122.455H342.113V125.267H338.977V122.455ZM347.7 129.136C349.029 129.136 350.001 128.472 350.308 127.483L349.336 127.21C349.081 127.892 348.488 128.233 347.7 128.233C346.52 128.233 345.706 127.47 345.659 126.068H350.41V125.642C350.41 123.205 348.961 122.369 347.598 122.369C345.825 122.369 344.649 123.767 344.649 125.778C344.649 127.79 345.808 129.136 347.7 129.136ZM345.659 125.199C345.727 124.18 346.447 123.273 347.598 123.273C348.689 123.273 349.387 124.091 349.387 125.199H345.659ZM357.974 129.136C359.747 129.136 360.94 127.79 360.94 125.761C360.94 123.716 359.747 122.369 357.974 122.369C356.201 122.369 355.008 123.716 355.008 125.761C355.008 127.79 356.201 129.136 357.974 129.136ZM357.974 128.233C356.627 128.233 356.014 127.074 356.014 125.761C356.014 124.449 356.627 123.273 357.974 123.273C359.321 123.273 359.934 124.449 359.934 125.761C359.934 127.074 359.321 128.233 357.974 128.233ZM361.62 123.392H363.784V129H364.79V123.392H366.938V122.455H361.62V123.392ZM368.405 129H369.411V123.392H372.547V129H373.553V122.455H368.405V129ZM375.389 131.455H376.395V127.994H376.48C376.702 128.352 377.128 129.136 378.389 129.136C380.026 129.136 381.168 127.824 381.168 125.744C381.168 123.682 380.026 122.369 378.372 122.369C377.094 122.369 376.702 123.153 376.48 123.494H376.361V122.455H375.389V131.455ZM376.378 125.727C376.378 124.261 377.026 123.273 378.253 123.273C379.531 123.273 380.162 124.347 380.162 125.727C380.162 127.125 379.514 128.233 378.253 128.233C377.043 128.233 376.378 127.21 376.378 125.727ZM384.628 129.153C385.77 129.153 386.366 128.54 386.571 128.114H386.622V129H387.628V124.688C387.628 122.608 386.043 122.369 385.207 122.369C384.219 122.369 383.094 122.71 382.582 123.903L383.537 124.244C383.759 123.767 384.283 123.256 385.241 123.256C386.166 123.256 386.622 123.746 386.622 124.585V124.619C386.622 125.105 386.128 125.062 384.935 125.216C383.72 125.374 382.395 125.642 382.395 127.142C382.395 128.42 383.384 129.153 384.628 129.153ZM384.781 128.25C383.98 128.25 383.401 127.892 383.401 127.193C383.401 126.426 384.099 126.188 384.884 126.085C385.31 126.034 386.452 125.915 386.622 125.71V126.631C386.622 127.449 385.974 128.25 384.781 128.25ZM389.463 129H392.549C393.878 129 394.679 128.25 394.679 127.244C394.679 126.217 393.9 125.663 393.179 125.557C393.917 125.403 394.441 124.99 394.441 124.193C394.441 123.149 393.546 122.455 392.14 122.455H389.463V129ZM390.418 128.08V126.068H392.549C393.239 126.068 393.657 126.482 393.657 127.159C393.657 127.73 393.239 128.08 392.549 128.08H390.418ZM390.418 125.199V123.375H392.14C392.945 123.375 393.435 123.712 393.435 124.261C393.435 124.845 392.945 125.199 392.14 125.199H390.418ZM397.207 127.517V122.455H396.202V129H397.378L400.514 123.938V129H401.52V122.455H400.361L397.207 127.517ZM402.782 129H403.123C404.572 129 404.99 127.875 405.083 125.727L405.186 123.392H407.589V129H408.595V122.455H404.231L404.112 125.352C404.027 127.551 403.805 128.062 403.021 128.062H402.782V129ZM411.173 129.068C411.595 129.068 411.94 128.723 411.94 128.301C411.94 127.879 411.595 127.534 411.173 127.534C410.751 127.534 410.406 127.879 410.406 128.301C410.406 128.723 410.751 129.068 411.173 129.068ZM414.478 129.068C414.9 129.068 415.245 128.723 415.245 128.301C415.245 127.879 414.9 127.534 414.478 127.534C414.056 127.534 413.711 127.879 413.711 128.301C413.711 128.723 414.056 129.068 414.478 129.068ZM417.782 129.068C418.204 129.068 418.549 128.723 418.549 128.301C418.549 127.879 418.204 127.534 417.782 127.534C417.36 127.534 417.015 127.879 417.015 128.301C417.015 128.723 417.36 129.068 417.782 129.068Z" fill="#95A2B0"/>
</g>
<defs>
<clipPath id="clip0">
<rect width="472" height="262" rx="16" fill="white"/>
</clipPath>
</defs>
</svg>
