<svg width="288" height="196" viewBox="0 0 288 196" fill="none" xmlns="http://www.w3.org/2000/svg">
<g clip-path="url(#clip0)">
<rect width="288" height="196" rx="8" fill="#F2EDFF"/>
<path fill-rule="evenodd" clip-rule="evenodd" d="M-64 62.6667L-47.4167 73.2222C-30.8333 83.7778 2.33334 104.889 35.5 102.778C68.6667 100.667 101.833 75.3333 135 64.7778C168.167 54.2222 201.333 58.4444 234.5 58.4444C267.667 58.4444 300.833 54.2222 317.417 52.1111L334 50V126H317.417C300.833 126 267.667 126 234.5 126C201.333 126 168.167 126 135 126C101.833 126 68.6667 126 35.5 126C2.33334 126 -30.8333 126 -47.4167 126H-64V62.6667Z" fill="#D8CCFB"/>
<path fill-rule="evenodd" clip-rule="evenodd" d="M-50.2937 122.629L-44.577 112.593C-10.6819 118.129 29.9869 126.572 75.6601 116.909C121.333 107.246 165.491 80.2923 224.643 85.9602C272.846 90.579 318.021 114.847 341.582 127.196L365.154 139.811L366.119 162.719L343.12 163.688C320.12 164.657 274.122 166.595 228.123 168.534C182.124 170.472 136.126 172.41 90.1269 174.349C44.1282 176.287 -1.87053 178.225 -24.8699 179.194L-47.8692 180.164L-50.2937 122.629Z" fill="#8F6FEC"/>
<path fill-rule="evenodd" clip-rule="evenodd" d="M-22 160.319H-4.25C13.5 160.319 49 160.319 84.5 154.038C120 147.758 155.5 135.198 191 130.488C226.5 125.778 262 128.918 297.5 130.488C333 132.058 368.5 132.058 386.25 132.058H404V198H386.25C368.5 198 333 198 297.5 198C262 198 226.5 198 191 198C155.5 198 120 198 84.5 198C49 198 13.5 198 -4.25 198H-22V160.319Z" fill="#7050CB"/>
<path d="M137.127 194.825C127.7 197 114.658 198.347 100.246 198.343C85.8337 198.338 72.7966 196.963 63.3693 194.797C53.9421 192.631 48.1938 189.628 48.1938 186.317V206.726C48.1938 213.358 71.4997 218.743 100.26 218.752C129.02 218.761 152.335 213.39 152.339 206.758V186.35C152.326 189.661 146.518 192.65 137.127 194.825Z" fill="#2C5777"/>
<path d="M150.859 183.512V186.35C150.859 188.106 147.18 191.008 136.745 193.404C127.015 195.643 114.056 196.876 100.255 196.871C86.4545 196.867 73.4908 195.625 63.7647 193.381C53.4315 190.994 49.7158 188.12 49.6561 186.363C49.6561 186.363 49.6561 186.331 49.6561 186.317C49.6561 186.304 49.6561 186.29 49.6561 186.271V183.475C48.6949 184.395 48.1845 185.315 48.1845 186.317C48.1845 187.32 48.6949 188.249 49.6561 189.159C53.7948 193.073 66.2113 196.237 82.3617 197.607C87.9399 198.067 93.9687 198.338 100.25 198.343C106.532 198.347 112.566 198.09 118.144 197.621C134.322 196.241 146.743 193.1 150.859 189.192C151.82 188.272 152.33 187.329 152.33 186.35C152.33 185.37 151.815 184.423 150.859 183.512Z" fill="#468CAF"/>
<path d="M100.292 74.1471C72.3458 74.1471 49.679 96.7862 49.6698 124.24V182.983V186.363C49.7296 188.12 53.4453 190.994 63.7784 193.381C73.5046 195.625 86.4636 196.867 100.269 196.871C114.074 196.876 127.028 195.643 136.759 193.404C147.175 191.008 150.872 188.106 150.872 186.35V183.02V124.272C150.872 96.8185 128.233 74.1471 100.287 74.1471H100.292Z" fill="#121A26"/>
<path d="M100.278 113.309C114.074 113.309 127.038 114.555 136.768 116.8C147.18 119.205 150.877 122.106 150.877 123.863C150.877 125.62 147.198 128.517 136.764 130.917C127.028 133.157 114.069 134.389 100.269 134.385C86.4683 134.38 73.5093 133.139 63.7785 130.89C53.3626 128.485 49.6699 125.583 49.6699 123.831C49.6699 122.079 53.3488 119.172 63.7831 116.777C73.5139 114.537 86.473 113.305 100.278 113.309ZM100.278 111.838C71.5181 111.838 48.203 117.195 48.1984 123.831C48.1938 130.467 71.5089 135.843 100.269 135.852C129.029 135.861 152.344 130.494 152.349 123.863C152.353 117.232 129.038 111.847 100.278 111.838Z" fill="#468CAF"/>
<path d="M100.283 98.7085C114.079 98.7085 127.042 99.9548 136.773 102.199C147.184 104.604 150.882 107.506 150.882 109.262C150.882 111.019 147.203 113.916 136.768 116.317C127.038 118.556 114.074 119.789 100.273 119.784C86.4729 119.78 73.5138 118.538 63.7831 116.294C53.3671 113.889 49.6744 110.982 49.6744 109.23C49.6744 107.478 53.3533 104.576 63.7877 102.176C73.5184 99.9363 86.4775 98.7039 100.283 98.7085ZM100.283 97.2369C71.5226 97.2369 48.2075 102.599 48.2029 109.23C48.1983 115.862 71.5134 121.242 100.273 121.256C129.033 121.269 152.349 115.894 152.353 109.262C152.358 102.631 129.043 97.2461 100.283 97.2369Z" fill="#2A6D96"/>
<path d="M100.292 59.1969C86.4814 59.1932 73.2351 64.6755 63.4667 74.4379C53.6982 84.2003 48.2078 97.4432 48.2029 111.254V120.911C48.2029 127.542 71.5134 132.927 100.273 132.936C129.033 132.945 152.349 127.579 152.353 120.948V111.29C152.356 104.451 151.011 97.6789 148.396 91.3596C145.781 85.0404 141.946 79.2981 137.112 74.4607C132.278 69.6233 126.538 65.7856 120.22 63.1666C113.902 60.5476 107.131 59.1987 100.292 59.1969Z" fill="#2C5777"/>
<path d="M100.172 64.8901C107.69 64.8901 113.784 63.6156 113.784 62.0434C113.784 60.4713 107.69 59.1969 100.172 59.1969C92.6545 59.1969 86.5602 60.4713 86.5602 62.0434C86.5602 63.6156 92.6545 64.8901 100.172 64.8901Z" fill="#121A26"/>
<path d="M110.924 59.1739C108.698 59.7855 104.771 60.1902 100.296 60.1902C95.8219 60.1902 91.89 59.7809 89.6643 59.1647C88.4916 58.8566 87.7559 58.2772 87.7559 57.8863C87.7559 57.8863 86.5602 60.8801 86.5602 61.1698C86.5602 62.9173 92.7086 64.3382 100.292 64.3382C107.875 64.3382 114.023 62.9265 114.023 61.179C114.023 60.7191 113.044 58.0105 112.782 57.7805C112.596 58.137 112.333 58.4473 112.011 58.6885C111.69 58.9296 111.318 59.0955 110.924 59.1739Z" fill="#2C5777"/>
<path d="M96.2818 60.0706C94.5849 59.9694 93.0628 59.8131 91.7614 59.6107C91.559 60.9167 91.3428 62.2274 91.1175 63.5288C92.804 63.8639 94.5108 64.0881 96.2266 64.2002C96.2404 63.8047 96.2634 61.0547 96.2818 60.0706Z" fill="#346F93"/>
<path d="M102.081 60.1671C101.501 60.1671 100.917 60.1901 100.319 60.1901H99.9561C99.9147 61.303 99.8504 64.0622 99.832 64.3289H100.315C101.028 64.3289 101.731 64.3289 102.416 64.2967C102.205 62.9355 102.127 61.5467 102.081 60.1671Z" fill="#346F93"/>
<path d="M109.958 59.4038C109.393 59.5188 108.758 59.6291 108.068 59.7211C108.431 61.0087 108.707 62.3147 108.956 63.6345C109.683 63.5006 110.402 63.3303 111.112 63.1242C110.717 61.8871 110.326 60.6684 109.958 59.4038Z" fill="#346F93"/>
<path d="M100.296 55.826C93.3617 55.826 87.7375 56.7964 87.7375 58.0012C87.7375 58.4289 88.4457 58.829 89.6643 59.1647C91.89 59.7809 95.8173 60.1902 100.296 60.1902C104.776 60.1902 108.707 59.8039 110.924 59.1739C111.954 58.8796 112.855 58.4381 112.855 58.0104C112.855 56.8056 107.231 55.826 100.296 55.826Z" fill="#4D9DBC"/>
<path d="M100.296 56.6447C97.9603 56.6447 96.0656 57.0631 96.0656 57.5644C96.0656 57.7437 96.3048 57.9139 96.7187 58.0611C97.8831 58.3827 99.0888 58.5299 100.296 58.4979C101.504 58.5369 102.711 58.3896 103.874 58.0611C104.219 57.9369 104.523 57.7483 104.523 57.5644C104.523 57.0631 102.633 56.6447 100.296 56.6447Z" fill="#121A26"/>
<path d="M152.353 109.161L152.298 108.968C152.298 109.166 152.298 109.364 152.321 109.557C152.341 109.426 152.352 109.294 152.353 109.161Z" fill="#121A26"/>
<path d="M136.975 107.198L136.906 106.65C136.432 102.867 134.489 99.4213 131.497 97.0572C128.504 94.6931 124.703 93.5999 120.912 94.0133C115.201 94.6295 108.105 95.2227 100.273 95.4941C92.4557 95.2227 85.3415 94.6295 79.63 94.0133C75.8387 93.6012 72.0373 94.6956 69.0453 97.0604C66.0534 99.4252 64.1106 102.871 63.6359 106.655L63.5669 107.202C63.3656 108.811 63.4836 110.444 63.9143 112.008C64.345 113.571 65.08 115.034 66.077 116.313C67.074 117.592 68.3135 118.662 69.7246 119.461C71.1357 120.26 72.6906 120.773 74.3002 120.971C82.9199 121.994 91.5932 122.5 100.273 122.484C108.952 122.5 117.624 121.994 126.242 120.971C127.852 120.774 129.408 120.261 130.82 119.462C132.231 118.663 133.471 117.592 134.468 116.313C135.466 115.033 136.2 113.569 136.631 112.005C137.061 110.441 137.178 108.807 136.975 107.198Z" fill="#121A26"/>
<path d="M126.242 118.207C117.624 119.233 108.952 119.738 100.273 119.72C91.5931 119.738 82.9197 119.233 74.3002 118.207C68.5243 117.503 63.5531 113.047 63.5531 107.363C63.191 110.589 64.1168 113.828 66.1292 116.375C68.1416 118.922 71.0781 120.572 74.3002 120.966C82.9199 121.99 91.5932 122.495 100.273 122.479C108.952 122.495 117.624 121.99 126.242 120.966C129.465 120.573 132.403 118.924 134.416 116.376C136.429 113.829 137.356 110.59 136.994 107.363C136.994 113.388 132.022 117.503 126.242 118.207Z" fill="#468CAF"/>
<path d="M100.269 135.852C71.5089 135.852 48.1984 130.462 48.1984 123.831V167.693C48.1984 171.45 55.6804 174.807 67.3931 177.01H67.4759C68.471 177.193 69.493 177.174 70.4804 176.952C71.4678 176.731 72.4003 176.312 73.2216 175.721C74.043 175.13 74.7363 174.379 75.2599 173.513C75.7835 172.647 76.1266 171.684 76.2686 170.682C76.2686 170.659 76.2686 170.641 76.2686 170.622C77.2034 164.866 80.1771 159.637 84.647 155.891C89.1168 152.145 94.7846 150.131 100.616 150.217C106.447 150.303 112.054 152.483 116.411 156.359C120.769 160.235 123.587 165.549 124.352 171.33V171.363C124.456 172.263 124.741 173.133 125.192 173.92C125.642 174.707 126.247 175.394 126.971 175.94C127.695 176.485 128.522 176.878 129.402 177.095C130.282 177.311 131.197 177.346 132.092 177.198C132.473 177.134 132.823 177.074 133.131 177.014C144.844 174.816 152.33 171.468 152.33 167.711V123.845C152.344 130.494 129.029 135.861 100.269 135.852Z" fill="#2C5777"/>
<path d="M55.6343 166.208C53.6109 161.177 53.1833 155.663 52.2405 150.361C51.8818 148.328 51.4679 146.3 50.9529 144.3C50.6586 143.155 50.332 142 49.9595 140.892C49.8078 140.432 49.6468 139.972 49.4996 139.512L49.3065 139.025C49.1456 138.671 48.888 138.105 48.796 137.926C48.6167 137.572 48.4236 137.227 48.2304 136.887V167.698C48.2304 170.765 53.22 173.566 61.4286 175.69C58.9509 172.897 56.989 169.687 55.6343 166.208Z" fill="#1F4060"/>
<path d="M151.884 136.022C151.847 136.105 151.797 136.197 151.746 136.293C151.401 137.213 151.047 138.091 150.716 138.997C149.665 141.879 148.884 144.851 148.384 147.877C148.302 148.374 148.233 148.871 148.155 149.372C148.155 149.436 148.154 149.491 148.127 149.533C148.041 150.22 147.949 150.905 147.851 151.588C147.725 152.508 147.59 153.428 147.446 154.348C146.882 158.346 145.938 162.282 144.627 166.102C143.488 169.405 141.933 172.549 140.001 175.46C147.69 173.372 152.33 170.668 152.33 167.711V135.061C152.206 135.406 152.031 135.709 151.884 136.022Z" fill="#1F4060"/>
<path opacity="0.57" d="M135.766 135.737C136.228 135.665 136.701 135.694 137.151 135.823C137.601 135.952 138.017 136.178 138.371 136.484C138.724 136.791 139.007 137.171 139.199 137.597C139.391 138.024 139.487 138.488 139.482 138.956V167.155C139.477 168.699 138.861 170.179 137.768 171.271C136.675 172.363 135.195 172.978 133.65 172.981C132.107 172.976 130.628 172.361 129.536 171.269C128.444 170.178 127.829 168.699 127.824 167.155V140.943C127.819 139.835 128.214 138.762 128.936 137.923C129.659 137.083 130.66 136.532 131.756 136.371L135.766 135.737Z" fill="#468CAF"/>
<path d="M64.7809 135.737C64.3185 135.665 63.846 135.694 63.3962 135.823C62.9463 135.952 62.5301 136.178 62.1763 136.484C61.8226 136.791 61.5399 137.171 61.348 137.597C61.1561 138.024 61.0597 138.488 61.0653 138.956V167.155C61.0702 168.699 61.6862 170.179 62.7788 171.271C63.8714 172.363 65.3518 172.978 66.8964 172.981C68.4409 172.978 69.9213 172.363 71.0139 171.271C72.1065 170.179 72.7226 168.699 72.7274 167.155V140.943C72.7275 139.834 72.3298 138.763 71.6065 137.923C70.8832 137.083 69.8825 136.531 68.7865 136.367L64.7809 135.737Z" fill="#468CAF"/>
<path d="M100.296 189.835C108.581 189.835 115.297 183.119 115.297 174.835C115.297 166.55 108.581 159.834 100.296 159.834C92.0117 159.834 85.2956 166.55 85.2956 174.835C85.2956 183.119 92.0117 189.835 100.296 189.835Z" fill="#2C5777"/>
<path d="M105.76 185.434C105.602 185.431 105.447 185.387 105.311 185.306C105.175 185.226 105.062 185.112 104.983 184.975C104.923 184.873 104.885 184.76 104.87 184.643C104.854 184.526 104.862 184.408 104.893 184.294C104.924 184.18 104.977 184.074 105.049 183.981C105.121 183.887 105.211 183.809 105.314 183.751C106.566 183.028 107.65 182.045 108.492 180.869C109.334 179.693 109.916 178.35 110.197 176.932C110.282 176.74 110.429 176.583 110.614 176.486C110.8 176.39 111.013 176.359 111.218 176.4C111.423 176.441 111.609 176.55 111.743 176.71C111.878 176.871 111.954 177.072 111.959 177.281C111.626 178.95 110.942 180.529 109.95 181.912C108.959 183.295 107.684 184.45 106.21 185.301C106.075 185.385 105.919 185.431 105.76 185.434Z" fill="#2A6D96"/>
<path d="M87.5076 175.635C87.2918 175.635 87.0847 175.549 86.932 175.396C86.7794 175.244 86.6937 175.037 86.6937 174.821C86.6973 171.214 88.1317 167.756 90.6819 165.206C93.2321 162.656 96.6899 161.222 100.297 161.218C100.512 161.218 100.719 161.304 100.872 161.456C101.025 161.609 101.11 161.816 101.11 162.032C101.11 162.248 101.025 162.455 100.872 162.608C100.719 162.76 100.512 162.846 100.297 162.846C97.1281 162.854 94.0918 164.117 91.8513 166.357C89.6109 168.598 88.3485 171.634 88.34 174.802C88.3425 174.912 88.3227 175.022 88.2817 175.124C88.2408 175.226 88.1796 175.319 88.1018 175.397C88.024 175.474 87.9312 175.536 87.8291 175.577C87.7269 175.618 87.6176 175.637 87.5076 175.635Z" fill="#468CAF"/>
<path d="M100.297 183.494C105.079 183.494 108.956 179.617 108.956 174.835C108.956 170.052 105.079 166.175 100.297 166.175C95.5141 166.175 91.6372 170.052 91.6372 174.835C91.6372 179.617 95.5141 183.494 100.297 183.494Z" fill="#121A26"/>
<path d="M100.296 182.289C104.413 182.289 107.751 178.952 107.751 174.835C107.751 170.718 104.413 167.38 100.296 167.38C96.1795 167.38 92.842 170.718 92.842 174.835C92.842 178.952 96.1795 182.289 100.296 182.289Z" fill="#4FC997"/>
<path d="M99.8457 41C96.3186 41 96.6267 57.0953 96.6267 57.0953C96.6267 57.0953 97.2246 57.7621 100.269 57.7621C103.313 57.7621 104.035 57.1275 104.035 57.1275C104.035 57.1275 103.171 41 99.8457 41Z" fill="#2C5777"/>
<path d="M94.2124 176.674C94.2289 176.598 94.2646 176.527 94.3161 176.468C94.3676 176.409 94.4332 176.365 94.5067 176.338C94.6184 176.304 94.739 176.313 94.8441 176.364C94.9492 176.416 95.0308 176.505 95.0724 176.614C95.3051 177.292 95.6798 177.912 96.1715 178.433C96.6632 178.954 97.2605 179.364 97.9235 179.636C98.0069 179.696 98.0676 179.782 98.0961 179.881C98.1245 179.98 98.1189 180.086 98.0802 180.181C98.0416 180.276 97.972 180.356 97.8827 180.407C97.7935 180.458 97.6896 180.478 97.5878 180.463C96.8076 180.142 96.1048 179.659 95.5259 179.045C94.9471 178.432 94.5056 177.702 94.2308 176.904C94.2052 176.83 94.1989 176.751 94.2124 176.674Z" fill="#3DAD7D"/>
<path d="M100.701 168.737C100.723 168.635 100.783 168.546 100.868 168.487C100.954 168.428 101.058 168.404 101.161 168.419C102.915 168.764 104.461 169.791 105.459 171.273C106.457 172.756 106.827 174.574 106.486 176.329C106.458 176.426 106.394 176.509 106.308 176.562C106.221 176.615 106.118 176.633 106.019 176.613C105.92 176.594 105.831 176.538 105.771 176.456C105.712 176.374 105.684 176.273 105.695 176.173C105.994 174.628 105.668 173.027 104.788 171.722C103.909 170.417 102.549 169.514 101.005 169.21C100.902 169.186 100.814 169.123 100.757 169.035C100.7 168.947 100.68 168.84 100.701 168.737Z" fill="#71E2B1"/>
<path d="M79.026 116.662C81.3015 116.662 83.1462 114.314 83.1462 111.418C83.1462 108.522 81.3015 106.174 79.026 106.174C76.7505 106.174 74.9058 108.522 74.9058 111.418C74.9058 114.314 76.7505 116.662 79.026 116.662Z" fill="#43E0BB"/>
<path d="M117.232 116.662C119.507 116.662 121.352 114.314 121.352 111.418C121.352 108.522 119.507 106.174 117.232 106.174C114.956 106.174 113.111 108.522 113.111 111.418C113.111 114.314 114.956 116.662 117.232 116.662Z" fill="#43E0BB"/>
<path d="M154.193 147.224C154.193 154.187 152.643 159.834 150.73 159.834C148.817 159.834 146.72 156.771 146.72 147.771C146.72 140.809 148.817 134.615 150.73 134.615C152.643 134.615 154.193 140.262 154.193 147.224Z" fill="#121A26"/>
<path d="M45.8575 147.224C45.8575 154.187 47.4073 159.834 49.3203 159.834C51.2334 159.834 53.3304 156.771 53.3304 147.771C53.3304 140.809 51.2334 134.615 49.3203 134.615C47.4073 134.615 45.8575 140.262 45.8575 147.224Z" fill="#121A26"/>
<path d="M99.3216 55.2559C98.7053 55.2559 98.2593 54.7362 98.2041 53.8303C98.1463 50.9177 98.3355 48.0056 98.7697 45.125C98.7577 44.93 98.8204 44.7379 98.9451 44.5875C99.0699 44.4371 99.2473 44.3399 99.4411 44.3157C99.6321 44.3398 99.8069 44.4351 99.9305 44.5827C100.054 44.7302 100.118 44.919 100.108 45.1112C100.108 45.1112 100.733 52.0092 100.444 53.8487C100.333 54.7776 99.9562 55.2559 99.3216 55.2559Z" fill="#468CAF"/>
<path d="M99.6436 43.0694C100.004 43.0694 100.297 42.777 100.297 42.4164C100.297 42.0558 100.004 41.7634 99.6436 41.7634C99.2829 41.7634 98.9905 42.0558 98.9905 42.4164C98.9905 42.777 99.2829 43.0694 99.6436 43.0694Z" fill="#468CAF"/>
<path d="M87.365 69.061C80.2601 67.5986 75.7718 71.1626 73.146 73.3929C68.8692 77.0258 69.3751 81.3992 78.0987 83.6525C89.0435 86.4807 104.771 85.869 109.99 85.2252C119.864 84.0204 116.723 78.7871 115.546 76.1613C114.29 73.3653 112.667 69.5117 105.617 69.8934C99.3215 70.2383 90.6208 69.737 87.365 69.061Z" fill="#468CAF"/>
<g opacity="0.5">
<path opacity="0.5" d="M119.68 69.2357C122.959 67.8837 137.711 79.1136 131.268 83.1099C128.15 85.0459 125.846 80.9255 123.096 77.3063C119.744 72.8916 117.753 70.0358 119.68 69.2357Z" fill="#468CAF"/>
</g>
<path d="M186.093 182.993C188.908 182.432 191.552 182.455 193.571 183.094C195.59 183.733 196.919 184.979 197.089 186.524C197.259 188.07 196.132 189.55 194.233 190.53C192.334 191.509 189.763 192.006 186.875 191.951C184.376 191.908 181.896 191.496 179.517 190.728C177.65 190.075 176.409 189.307 176.358 188.378C176.308 187.449 177.333 186.469 179.048 185.49C181.259 184.31 183.634 183.469 186.093 182.993Z" fill="#152D44"/>
<path d="M186.489 185.384C188.283 185.089 190.116 185.114 191.902 185.458C193.313 185.793 194.279 186.432 194.316 187.237C194.353 188.042 193.566 188.828 192.228 189.38C190.512 190 188.7 190.312 186.875 190.3C185.07 190.35 183.266 190.176 181.504 189.78C180.124 189.44 179.205 188.994 179.205 188.438C179.205 187.881 179.931 187.297 181.26 186.741C182.941 186.075 184.697 185.619 186.489 185.384Z" fill="#121A26"/>
<path d="M190.922 170.576C190.683 170.53 190.435 170.498 190.182 170.47C189.929 170.443 189.662 170.434 189.395 170.434C189.129 170.434 188.848 170.434 188.563 170.461C188.125 170.491 187.689 170.545 187.257 170.622C186.797 170.705 186.337 170.806 185.877 170.935L185.417 171.073C184.945 171.214 184.467 171.379 183.983 171.569C183.661 171.698 183.339 171.832 183.012 171.974L182.525 172.2C180.259 173.252 178.17 174.648 176.331 176.338C175.707 176.905 175.171 177.56 174.739 178.284C174.579 178.51 174.472 178.77 174.425 179.044C174.378 179.317 174.393 179.598 174.468 179.865C174.605 180.22 174.865 180.513 175.199 180.693C175.543 180.016 176.011 179.409 176.579 178.904L176.993 178.518C177.423 178.137 177.873 177.777 178.34 177.442C178.662 177.207 179.007 176.982 179.366 176.738C180.703 175.873 182.118 175.135 183.592 174.531C185.058 173.914 186.595 173.481 188.167 173.243C188.6 173.184 189.018 173.147 189.423 173.128C190.019 173.103 190.616 173.128 191.207 173.202C191.414 173.23 191.617 173.262 191.81 173.303C192.687 173.46 193.505 173.851 194.178 174.434C194.29 173.9 194.256 173.346 194.081 172.829C193.594 171.661 192.486 170.857 190.922 170.576Z" fill="#121A26"/>
<path d="M195.144 176.242L195.01 175.782C194.845 175.26 194.541 174.793 194.132 174.43C193.459 173.846 192.641 173.455 191.764 173.299C191.571 173.257 191.368 173.225 191.161 173.197C190.57 173.123 189.973 173.099 189.377 173.124C188.972 173.124 188.554 173.179 188.122 173.239C186.549 173.477 185.012 173.909 183.546 174.526C182.072 175.13 180.657 175.869 179.32 176.734C178.961 176.964 178.616 177.194 178.294 177.437C177.827 177.773 177.377 178.132 176.947 178.513L176.533 178.9C175.965 179.404 175.497 180.011 175.153 180.689C174.995 181.021 174.96 181.4 175.057 181.756L175.135 182.05C175.739 184.114 176.142 186.231 176.34 188.373C176.225 187.453 177.315 186.465 179.03 185.485C181.239 184.306 183.612 183.464 186.071 182.988C188.885 182.427 191.529 182.45 193.548 183.089C195.567 183.728 196.896 184.975 197.066 186.52C196.756 183.04 196.112 179.598 195.144 176.242Z" fill="#2C5776"/>
<path d="M184.089 158.716C183.842 158.726 183.597 158.749 183.353 158.785C183.1 158.822 182.847 158.868 182.58 158.932C182.313 158.997 182.051 159.07 181.78 159.158C181.371 159.291 180.957 159.448 180.538 159.618C180.12 159.788 179.697 160.009 179.269 160.243L178.846 160.487C178.418 160.735 177.991 161.007 177.568 161.301C177.282 161.499 177.002 161.705 176.717 161.922L176.298 162.253C174.333 163.803 172.626 165.655 171.24 167.739C170.145 169.45 169.745 170.82 170.274 171.648C170.502 171.952 170.826 172.169 171.194 172.264C171.343 171.519 171.638 170.811 172.063 170.181C172.16 170.024 172.265 169.868 172.376 169.721C172.675 169.261 173.033 168.801 173.429 168.341C173.686 168.035 173.962 167.728 174.257 167.422C175.347 166.267 176.544 165.217 177.83 164.285C179.109 163.341 180.499 162.557 181.969 161.949C182.373 161.788 182.773 161.65 183.164 161.535C183.733 161.365 184.317 161.246 184.907 161.181C185.109 161.181 185.312 161.144 185.509 161.135C186.396 161.079 187.282 161.255 188.08 161.646C188.061 161.109 187.894 160.589 187.597 160.142C186.953 159.112 185.648 158.643 184.089 158.716Z" fill="#121A26"/>
<path d="M189.497 163.14L189.253 162.736C188.971 162.28 188.575 161.906 188.103 161.65C187.305 161.26 186.419 161.084 185.533 161.14C185.335 161.14 185.132 161.163 184.93 161.186C184.34 161.251 183.756 161.369 183.187 161.54C182.796 161.655 182.396 161.793 181.992 161.954C180.522 162.561 179.132 163.346 177.853 164.29C176.567 165.222 175.37 166.272 174.28 167.426C173.973 167.733 173.697 168.039 173.452 168.346C173.056 168.806 172.698 169.266 172.399 169.726C172.288 169.891 172.183 170.047 172.086 170.185C171.662 170.816 171.366 171.524 171.217 172.269C171.139 172.638 171.198 173.024 171.382 173.354L171.543 173.621C172.708 175.609 173.689 177.699 174.473 179.866C174.397 179.598 174.383 179.318 174.43 179.044C174.477 178.77 174.584 178.511 174.744 178.284C175.176 177.561 175.712 176.905 176.335 176.338C178.175 174.648 180.264 173.252 182.53 172.2L183.017 171.974C183.344 171.832 183.666 171.698 183.987 171.57C184.472 171.383 184.95 171.217 185.422 171.073L185.882 170.935C186.342 170.806 186.802 170.705 187.262 170.622C187.694 170.545 188.13 170.491 188.568 170.461C188.853 170.438 189.129 170.429 189.4 170.434C189.671 170.438 189.933 170.434 190.186 170.471C190.439 170.507 190.688 170.53 190.927 170.576C192.49 170.866 193.589 171.671 194.04 172.825C192.824 169.465 191.303 166.223 189.497 163.14Z" fill="#2C5776"/>
<path d="M174.657 148.746C174.427 148.815 174.197 148.894 173.953 148.99C173.709 149.087 173.493 149.193 173.236 149.312C172.978 149.432 172.753 149.565 172.509 149.712C172.133 149.941 171.769 150.19 171.419 150.457C171.051 150.738 170.688 151.041 170.329 151.377L169.975 151.713C169.621 152.053 169.267 152.421 168.927 152.812C168.697 153.069 168.467 153.336 168.251 153.616L167.92 154.035C166.39 156.012 165.174 158.213 164.314 160.56C164.017 161.35 163.838 162.179 163.785 163.021C163.747 163.297 163.771 163.578 163.855 163.844C163.94 164.11 164.082 164.353 164.273 164.557C164.555 164.803 164.915 164.942 165.289 164.948C165.269 164.19 165.396 163.436 165.662 162.726C165.721 162.556 165.786 162.377 165.855 162.193C166.061 161.657 166.296 161.132 166.558 160.62C166.738 160.262 166.935 159.894 167.152 159.521C167.95 158.143 168.874 156.84 169.911 155.631C170.938 154.418 172.11 153.337 173.401 152.412C173.757 152.163 174.111 151.938 174.463 151.736C174.981 151.439 175.522 151.187 176.082 150.981C176.275 150.912 176.473 150.853 176.662 150.797C177.509 150.537 178.411 150.507 179.274 150.71C179.134 150.184 178.852 149.707 178.46 149.331C177.531 148.503 176.183 148.3 174.657 148.746Z" fill="#121A26"/>
<path d="M180.971 151.823L180.667 151.501V151.478C180.291 151.091 179.813 150.818 179.288 150.692C178.425 150.489 177.523 150.519 176.676 150.779C176.487 150.834 176.289 150.894 176.096 150.963C175.536 151.168 174.995 151.421 174.477 151.717C174.125 151.92 173.771 152.145 173.415 152.393C172.124 153.319 170.952 154.4 169.925 155.612C168.888 156.822 167.964 158.124 167.166 159.503C166.949 159.875 166.752 160.243 166.572 160.602C166.31 161.113 166.075 161.638 165.869 162.175C165.8 162.358 165.735 162.538 165.676 162.708C165.41 163.417 165.283 164.172 165.303 164.929C165.321 165.305 165.467 165.664 165.717 165.945L165.915 166.157C167.53 167.853 168.994 169.685 170.293 171.634C169.764 170.806 170.164 169.436 171.258 167.725C172.644 165.641 174.352 163.789 176.317 162.239L176.735 161.908C177.021 161.692 177.301 161.485 177.586 161.287C178.009 160.993 178.437 160.721 178.865 160.473L179.288 160.229C179.715 159.995 180.138 159.769 180.557 159.604C180.975 159.438 181.389 159.264 181.799 159.144C182.07 159.057 182.337 158.983 182.599 158.919C182.861 158.854 183.118 158.808 183.371 158.772C183.615 158.736 183.861 158.712 184.107 158.703C185.666 158.629 186.972 159.098 187.634 160.124C185.659 157.168 183.429 154.391 180.971 151.823Z" fill="#2C5776"/>
<path d="M162.627 141.278C162.411 141.409 162.202 141.55 162.001 141.701C161.794 141.858 161.592 142.028 161.39 142.207C161.187 142.387 160.994 142.584 160.801 142.8C160.497 143.128 160.213 143.474 159.95 143.835C159.679 144.203 159.421 144.598 159.173 145.017C159.095 145.159 159.012 145.302 158.929 145.445C158.69 145.877 158.469 146.332 158.253 146.824C158.111 147.142 157.977 147.463 157.849 147.795C157.784 147.96 157.72 148.126 157.66 148.296C156.805 150.638 156.274 153.085 156.083 155.571C156.006 156.396 156.04 157.228 156.184 158.045C156.208 158.307 156.291 158.561 156.428 158.785C156.566 159.01 156.753 159.201 156.975 159.342C157.295 159.49 157.657 159.518 157.996 159.42C157.809 158.701 157.756 157.955 157.839 157.217C157.839 157.038 157.867 156.849 157.89 156.656C157.948 156.132 158.04 155.566 158.166 154.959C158.246 154.57 158.338 154.165 158.442 153.745C158.834 152.206 159.36 150.704 160.015 149.257C160.656 147.796 161.485 146.425 162.479 145.178C162.745 144.857 163.028 144.55 163.326 144.258C163.748 143.832 164.21 143.447 164.705 143.109C164.872 142.99 165.046 142.882 165.225 142.782C165.996 142.308 166.881 142.052 167.786 142.042C167.495 141.558 167.079 141.163 166.581 140.897C165.996 140.609 165.34 140.495 164.691 140.57C163.96 140.655 163.256 140.897 162.627 141.278Z" fill="#121A26"/>
<path d="M169.791 142.699L169.442 142.483L169.373 142.437C168.894 142.146 168.342 141.997 167.782 142.005C166.877 142.016 165.991 142.271 165.22 142.745C165.041 142.845 164.868 142.954 164.701 143.072C164.205 143.41 163.743 143.795 163.321 144.221C163.023 144.513 162.741 144.82 162.475 145.141C161.48 146.388 160.652 147.76 160.01 149.22C159.356 150.667 158.83 152.169 158.437 153.708C158.333 154.128 158.241 154.533 158.161 154.922C158.039 155.536 157.947 156.101 157.885 156.619C157.862 156.812 157.844 157.001 157.835 157.18C157.751 157.918 157.804 158.665 157.991 159.383C158.091 159.726 158.305 160.025 158.598 160.229H158.64L158.851 160.363C160.785 161.565 162.6 162.951 164.268 164.501C164.078 164.298 163.935 164.054 163.851 163.789C163.766 163.523 163.743 163.242 163.781 162.965C163.834 162.124 164.012 161.294 164.31 160.505C165.17 158.158 166.386 155.957 167.915 153.98L168.246 153.561C168.467 153.281 168.706 153.014 168.922 152.756C169.262 152.366 169.616 151.998 169.971 151.657L170.325 151.322C170.683 150.99 171.047 150.687 171.415 150.402C171.765 150.135 172.129 149.886 172.504 149.657C172.748 149.51 172.964 149.376 173.231 149.257C173.498 149.137 173.691 149.027 173.948 148.935C174.206 148.843 174.408 148.76 174.652 148.691C176.179 148.231 177.526 148.438 178.441 149.261C175.778 146.798 172.881 144.6 169.791 142.699Z" fill="#2C5776"/>
<path d="M155.646 136.882L155.103 136.785C154.364 136.646 153.6 136.735 152.914 137.043C152.197 137.356 149.065 138.882 148.614 146.944C148.095 156.284 150.863 157.176 151.171 157.217L151.406 157.254C153.343 157.7 155.215 158.394 156.975 159.319C156.753 159.178 156.566 158.987 156.428 158.762C156.291 158.538 156.208 158.284 156.184 158.022C156.04 157.205 156.006 156.373 156.083 155.548C156.274 153.062 156.805 150.615 157.66 148.273C157.72 148.103 157.784 147.937 157.849 147.772C157.977 147.44 158.111 147.119 158.253 146.801C158.465 146.341 158.69 145.882 158.929 145.422C159.012 145.279 159.095 145.137 159.173 144.994C159.421 144.576 159.679 144.18 159.95 143.812C160.213 143.451 160.497 143.105 160.801 142.777C160.994 142.561 161.192 142.368 161.39 142.184C161.587 142 161.794 141.835 162.001 141.678C162.202 141.527 162.411 141.386 162.627 141.255C163.252 140.861 163.954 140.607 164.687 140.51C165.335 140.435 165.991 140.549 166.577 140.837C163.126 139.036 159.45 137.706 155.646 136.882Z" fill="#2C5776"/>
<path d="M179.853 180.477C179.588 179.31 179.256 178.158 178.86 177.028C178.667 177.162 178.474 177.295 178.294 177.428C177.827 177.764 177.377 178.123 176.947 178.504L176.533 178.891C175.965 179.395 175.497 180.002 175.153 180.68C174.994 181.012 174.96 181.391 175.057 181.746L175.135 182.041C175.739 184.105 176.142 186.222 176.34 188.364C176.225 187.444 177.315 186.455 179.03 185.476C179.467 185.237 179.95 185.016 180.469 184.763C180.349 183.324 180.143 181.892 179.853 180.477Z" fill="#1F4060"/>
<path d="M176.97 172.682C176.064 170.985 175.045 169.35 173.921 167.789C173.751 167.973 173.59 168.162 173.433 168.341C173.038 168.801 172.679 169.261 172.38 169.721C172.27 169.886 172.164 170.043 172.067 170.181C171.643 170.811 171.348 171.519 171.198 172.264C171.121 172.634 171.179 173.019 171.364 173.349L171.525 173.616C172.69 175.604 173.67 177.694 174.454 179.861C174.379 179.594 174.364 179.313 174.411 179.039C174.458 178.766 174.565 178.506 174.725 178.279C175.157 177.556 175.693 176.9 176.317 176.334C176.861 175.821 177.434 175.339 178.032 174.89C177.71 174.154 177.361 173.414 176.97 172.682Z" fill="#1F4060"/>
<path d="M172.55 165.978C170.834 163.833 168.928 161.846 166.857 160.041C166.752 160.234 166.65 160.427 166.558 160.616C166.296 161.127 166.061 161.652 165.855 162.188C165.786 162.372 165.721 162.552 165.662 162.722C165.396 163.431 165.269 164.185 165.289 164.943C165.307 165.319 165.453 165.678 165.703 165.959L165.901 166.171C167.516 167.866 168.98 169.699 170.279 171.648C169.75 170.82 170.15 169.45 171.244 167.739C171.648 167.129 172.084 166.541 172.55 165.978Z" fill="#1F4060"/>
<path d="M165.082 158.661C162.902 157.144 160.484 156.049 158.184 154.826C158.174 154.862 158.167 154.899 158.161 154.936C158.039 155.549 157.947 156.115 157.885 156.633C157.862 156.826 157.844 157.015 157.835 157.194C157.751 157.932 157.804 158.679 157.991 159.397C158.091 159.74 158.305 160.039 158.598 160.243H158.639L158.851 160.377C160.785 161.579 162.599 162.965 164.268 164.515C164.078 164.312 163.935 164.068 163.851 163.803C163.766 163.537 163.742 163.255 163.781 162.979C163.834 162.138 164.012 161.308 164.31 160.519C164.535 159.887 164.793 159.267 165.082 158.661Z" fill="#1F4060"/>
<path d="M156.184 158.022C156.04 157.205 156.006 156.373 156.083 155.548C156.119 154.996 156.188 154.398 156.28 153.768C155.499 153.312 154.745 152.812 154.022 152.269C151.654 150.485 149.511 148.737 148.853 144.53C148.748 145.265 148.665 146.061 148.614 146.944C148.095 156.284 150.863 157.176 151.171 157.217L151.406 157.254C153.343 157.7 155.215 158.394 156.975 159.319C156.752 159.178 156.565 158.987 156.428 158.762C156.291 158.538 156.207 158.284 156.184 158.022Z" fill="#1F4060"/>
<path d="M205.78 201.562L201.292 190.401C200.892 189.424 200.207 188.589 199.326 188.006C198.445 187.423 197.409 187.118 196.353 187.131L179.632 187.306C179.068 187.308 178.51 187.433 177.998 187.671C177.486 187.909 177.032 188.255 176.666 188.686L173.378 192.599C172.973 193.081 172.694 193.656 172.566 194.273C172.438 194.889 172.466 195.528 172.647 196.131L176.915 210.447C177.08 210.994 177.422 211.471 177.887 211.804C178.352 212.137 178.914 212.306 179.485 212.286L198.671 211.628C199.493 211.598 200.296 211.374 201.016 210.975C201.735 210.575 202.35 210.011 202.81 209.329L205.481 204.395C205.759 203.983 205.931 203.509 205.983 203.016C206.035 202.522 205.966 202.023 205.78 201.562Z" fill="#2C5777"/>
<path d="M178.041 189.049C179.421 192.493 181.964 199.401 182.976 202.164C183.107 202.524 183.141 202.912 183.075 203.289C183.009 203.666 182.844 204.019 182.599 204.312L177.922 209.908C177.839 210.009 177.73 210.085 177.608 210.129C177.485 210.172 177.353 210.181 177.225 210.155C177.097 210.129 176.979 210.069 176.883 209.981C176.787 209.893 176.717 209.78 176.68 209.656L172.629 196.062C172.457 195.48 172.432 194.865 172.556 194.272C172.679 193.678 172.947 193.124 173.337 192.659L176.556 188.819C176.652 188.701 176.777 188.61 176.919 188.555C177.061 188.5 177.214 188.483 177.365 188.507C177.515 188.53 177.657 188.592 177.775 188.687C177.894 188.783 177.986 188.907 178.041 189.049Z" fill="#1F4060"/>
<path d="M184.052 200.081L179.283 188.769C179.215 188.607 179.188 188.431 179.204 188.256C179.22 188.081 179.279 187.913 179.376 187.767C179.472 187.62 179.602 187.499 179.756 187.415C179.91 187.331 180.082 187.285 180.258 187.283L196.257 187.118C197.341 187.109 198.402 187.427 199.304 188.029C200.206 188.63 200.907 189.489 201.315 190.493L205.403 200.541C205.482 200.733 205.512 200.941 205.491 201.147C205.47 201.353 205.399 201.55 205.283 201.722C205.168 201.894 205.012 202.035 204.829 202.132C204.646 202.229 204.442 202.28 204.235 202.279H187.358C186.653 202.276 185.963 202.066 185.376 201.676C184.788 201.285 184.328 200.731 184.052 200.081Z" fill="#468CAF"/>
<path d="M178.45 202.839C179.929 202.541 180.719 200.273 180.215 197.773C179.711 195.274 178.104 193.489 176.625 193.787C175.146 194.085 174.356 196.354 174.86 198.853C175.364 201.353 176.971 203.137 178.45 202.839Z" fill="#121A26"/>
<path d="M176.551 193.905C177.747 194.407 179.2 196.182 179.471 198.803C179.743 201.424 178.423 202.578 177.434 202.758C176.446 202.937 175.696 202.932 173.038 204.478C170.279 206.073 168.614 207.641 167.303 206.368C165.62 204.74 166.512 201.47 168.683 198.246C170.656 195.372 174.482 193.045 176.551 193.905Z" fill="#2C5777"/>
<path d="M176.703 194.728C178.345 197.446 174.321 200.707 172.909 201.401C171.571 202.068 169.331 203.3 168.168 201.898C167.096 200.606 168.78 198.136 169.842 196.839C171.493 195.106 173.351 193.818 174.928 193.776C175.272 193.809 175.607 193.91 175.912 194.073C176.216 194.237 176.485 194.46 176.703 194.728Z" fill="#346F93"/>
<path d="M174.394 195.294C175.921 196.554 173.617 199.847 170.532 200.09C168.444 200.261 170.532 196.844 171.415 196.048C171.934 195.588 173.36 194.425 174.394 195.294Z" fill="#468CAF"/>
<path d="M13.9338 182.993C11.1148 182.432 8.47061 182.455 6.4518 183.094C4.43299 183.733 3.10391 184.979 2.93376 186.524C2.76361 188.07 3.89038 189.55 5.78962 190.53C7.68886 191.509 10.2595 192.006 13.1475 191.951C15.6471 191.909 18.1266 191.497 20.5053 190.728C22.3724 190.075 23.6139 189.307 23.6645 188.378C23.7151 187.449 22.6896 186.469 20.9743 185.49C18.765 184.311 16.392 183.47 13.9338 182.993Z" fill="#152D44"/>
<path d="M13.5336 185.384C11.7392 185.089 9.90668 185.114 8.12097 185.458C6.71379 185.793 5.74347 186.432 5.70668 187.237C5.66989 188.042 6.45628 188.828 7.79909 189.38C9.51334 190.001 11.3243 190.312 13.1474 190.3C14.9524 190.35 16.7567 190.176 18.5186 189.78C19.8982 189.44 20.8179 188.994 20.8179 188.438C20.8179 187.881 20.0913 187.297 18.7623 186.741C17.082 186.075 15.3257 185.619 13.5336 185.384Z" fill="#121A26"/>
<path d="M9.10051 170.576C9.33964 170.53 9.5879 170.498 9.84083 170.47C10.0938 170.443 10.3605 170.434 10.6272 170.434C10.8939 170.434 11.1744 170.434 11.4596 170.461C11.899 170.492 12.3365 170.545 12.7702 170.622C13.2301 170.705 13.69 170.806 14.1498 170.935L14.6097 171.073C15.0818 171.214 15.56 171.379 16.0444 171.569C16.3663 171.698 16.6929 171.832 17.0148 171.974L17.5023 172.2C19.7679 173.252 21.8573 174.648 23.6966 176.338C24.3198 176.905 24.856 177.56 25.2877 178.284C25.4477 178.51 25.5552 178.77 25.6021 179.044C25.649 179.317 25.6344 179.598 25.5591 179.865C25.42 180.207 25.1664 180.49 24.8417 180.666C24.4982 179.988 24.0302 179.381 23.4621 178.877C23.3333 178.748 23.1953 178.619 23.0481 178.49C22.6527 178.136 22.202 177.778 21.7054 177.414C21.3789 177.18 21.0386 176.955 20.6753 176.711C19.3384 175.845 17.9235 175.106 16.4491 174.503C14.9832 173.886 13.4462 173.454 11.8735 173.216C11.4412 173.156 11.0228 173.119 10.6181 173.101C10.0223 173.076 9.42541 173.1 8.83375 173.174C8.62681 173.202 8.42444 173.234 8.2313 173.276C7.35463 173.433 6.53662 173.824 5.86304 174.407C5.75046 173.873 5.78542 173.318 5.96419 172.802C6.42866 171.662 7.53696 170.857 9.10051 170.576Z" fill="#121A26"/>
<path d="M4.88353 176.242L5.01231 175.782C5.17764 175.26 5.48124 174.793 5.89073 174.43C6.56431 173.847 7.38232 173.456 8.25899 173.299C8.45213 173.257 8.6545 173.225 8.86144 173.197C9.4531 173.123 10.0499 173.099 10.6457 173.124C11.0503 173.124 11.4688 173.179 11.9011 173.239C13.4738 173.477 15.0109 173.909 16.4768 174.526C17.9512 175.129 19.3661 175.868 20.703 176.734C21.0663 176.964 21.4066 177.194 21.7331 177.437C22.2297 177.801 22.6803 178.159 23.0758 178.513C23.223 178.642 23.361 178.771 23.4898 178.9C24.0578 179.404 24.5259 180.011 24.8694 180.689C25.0282 181.021 25.0624 181.4 24.9659 181.756L24.8877 182.05C24.2839 184.114 23.8805 186.231 23.6829 188.373C23.7979 187.453 22.7079 186.465 20.9926 185.485C18.7848 184.307 16.4134 183.465 13.9568 182.988C11.1378 182.427 8.49357 182.45 6.47476 183.089C4.45595 183.728 3.12688 184.975 2.95673 186.52C3.26589 183.04 3.91115 179.598 4.88353 176.242Z" fill="#2C5776"/>
<path d="M15.9341 158.716C16.1804 158.726 16.426 158.749 16.6699 158.785C16.9228 158.822 17.1757 158.868 17.4424 158.932C17.7091 158.997 17.9713 159.07 18.2472 159.158C18.6519 159.291 19.0657 159.448 19.4842 159.618C19.9027 159.788 20.3304 160.009 20.7534 160.243L21.1812 160.487C21.6043 160.735 22.0319 161.007 22.455 161.301C22.7401 161.499 23.0252 161.705 23.3057 161.922L23.7243 162.253C25.6895 163.803 27.3969 165.655 28.7828 167.739C29.8773 169.45 30.2773 170.82 29.7484 171.648C29.5211 171.952 29.1966 172.169 28.8287 172.264C28.6795 171.519 28.3841 170.811 27.9596 170.181C27.863 170.024 27.7572 169.868 27.6468 169.721C27.3479 169.261 26.9893 168.801 26.5938 168.341C26.3363 168.038 26.0603 167.73 25.7706 167.422C24.6777 166.269 23.4816 165.22 22.1975 164.285C20.9172 163.342 19.5275 162.558 18.0587 161.949C17.654 161.788 17.2539 161.65 16.863 161.535C16.2956 161.365 15.7137 161.246 15.1247 161.181C14.9177 161.181 14.7155 161.144 14.5177 161.135C13.6324 161.077 12.7474 161.254 11.9517 161.646C11.9612 161.111 12.1205 160.59 12.4115 160.142C13.0691 159.112 14.3751 158.643 15.9341 158.716Z" fill="#121A26"/>
<path d="M10.5261 163.14L10.7698 162.736C11.0522 162.278 11.4504 161.904 11.9241 161.65C12.7199 161.258 13.6049 161.082 14.4902 161.14C14.6879 161.14 14.8903 161.163 15.0972 161.186C15.6862 161.251 16.268 161.369 16.8354 161.54C17.2263 161.655 17.6264 161.793 18.0311 161.954C19.4999 162.563 20.8896 163.347 22.1699 164.29C23.4541 165.224 24.6501 166.274 25.7431 167.426C26.0328 167.739 26.3087 168.047 26.5662 168.346C26.9617 168.806 27.3204 169.266 27.6194 169.725C27.7297 169.891 27.8355 170.047 27.932 170.185C28.3566 170.815 28.6519 171.523 28.8011 172.269C28.8789 172.638 28.8202 173.024 28.6356 173.354L28.4746 173.621C27.3097 175.609 26.3293 177.699 25.5454 179.865C25.6206 179.598 25.6353 179.318 25.5884 179.044C25.5414 178.77 25.434 178.51 25.274 178.284C24.8422 177.56 24.3061 176.905 23.6829 176.338C21.8436 174.648 19.7542 173.252 17.4885 172.2L17.0056 171.956C16.6837 171.813 16.3572 171.68 16.0353 171.551C15.5509 171.364 15.0727 171.199 14.6005 171.055L14.1407 170.917C13.6808 170.788 13.2209 170.687 12.7611 170.604C12.3274 170.527 11.8898 170.473 11.4504 170.443C11.1653 170.42 10.8895 170.411 10.6181 170.415C10.3468 170.42 10.0846 170.415 9.83168 170.452C9.57875 170.489 9.33049 170.512 9.09136 170.558C7.52782 170.848 6.42874 171.652 5.98267 172.807C7.19965 169.453 8.7204 166.217 10.5261 163.14Z" fill="#2C5776"/>
<path d="M25.3659 148.746C25.5958 148.815 25.8258 148.894 26.0695 148.99C26.3132 149.087 26.5294 149.193 26.7869 149.312C27.0445 149.432 27.2698 149.565 27.5136 149.712C27.8768 149.933 28.2401 150.172 28.608 150.457C28.9759 150.742 29.3346 151.041 29.6933 151.377L30.0474 151.713C30.4061 152.053 30.7555 152.421 31.0958 152.812C31.3257 153.069 31.5558 153.336 31.7719 153.616L32.103 154.035C33.6323 156.012 34.8482 158.213 35.7083 160.56C36.0081 161.349 36.1865 162.179 36.2372 163.021C36.2778 163.297 36.2551 163.579 36.1706 163.845C36.0862 164.111 35.9422 164.354 35.7497 164.557C35.4687 164.804 35.1081 164.943 34.7334 164.948C34.7535 164.19 34.627 163.436 34.3609 162.726C34.3057 162.556 34.2414 162.377 34.1678 162.193C33.9615 161.657 33.7266 161.132 33.4642 160.62C33.2848 160.262 33.0871 159.894 32.8709 159.521C32.0723 158.143 31.1486 156.84 30.1117 155.631C29.0848 154.418 27.9125 153.337 26.6213 152.412C26.2657 152.163 25.9117 151.938 25.5591 151.736C25.0422 151.438 24.5006 151.186 23.9404 150.981C23.7472 150.912 23.5541 150.853 23.361 150.797C22.5135 150.537 21.6118 150.507 20.7488 150.71C20.8885 150.184 21.1701 149.707 21.5628 149.331C22.4917 148.503 23.8438 148.3 25.3659 148.746Z" fill="#121A26"/>
<path d="M19.052 151.823L19.3556 151.501V151.478C19.7317 151.09 20.2101 150.818 20.7352 150.692C21.5982 150.488 22.4997 150.518 23.3472 150.779C23.5403 150.834 23.7335 150.894 23.9266 150.963C24.4869 151.167 25.0284 151.42 25.5453 151.717C25.8979 151.919 26.2519 152.145 26.6075 152.393C27.8987 153.319 29.071 154.4 30.098 155.612C31.1349 156.822 32.0585 158.124 32.8572 159.503C33.0733 159.875 33.2711 160.243 33.4504 160.602C33.7128 161.113 33.9477 161.638 34.154 162.174C34.2276 162.358 34.2919 162.538 34.3471 162.708C34.6132 163.417 34.7397 164.172 34.7196 164.929C34.7016 165.305 34.5556 165.664 34.3058 165.945L34.108 166.157C32.4932 167.853 31.0284 169.685 29.7301 171.634C30.2589 170.806 29.8589 169.436 28.7644 167.725C27.3785 165.641 25.6712 163.789 23.7059 162.239L23.2873 161.908C23.0068 161.692 22.7218 161.485 22.4367 161.287C22.0136 160.993 21.5859 160.721 21.1628 160.473L20.7352 160.229C20.3121 159.995 19.8844 159.769 19.4659 159.604C19.0475 159.438 18.6335 159.263 18.2288 159.144C17.9529 159.056 17.6862 158.983 17.4241 158.919C17.1619 158.854 16.9044 158.808 16.6515 158.771C16.4076 158.735 16.162 158.712 15.9157 158.702C14.3567 158.629 13.0508 159.098 12.3885 160.123C14.364 157.168 16.5936 154.391 19.052 151.823Z" fill="#2C5776"/>
<path d="M37.3961 141.278C37.6116 141.409 37.8203 141.55 38.0215 141.701C38.2284 141.858 38.4308 142.028 38.6331 142.207C38.8355 142.387 39.0286 142.584 39.2264 142.8C39.5273 143.13 39.8097 143.475 40.0725 143.835C40.3438 144.203 40.6014 144.598 40.8497 145.017C40.9279 145.159 41.0106 145.302 41.0933 145.445C41.3325 145.877 41.5533 146.332 41.7694 146.824C41.912 147.142 42.0453 147.463 42.1741 147.795L42.3672 148.296C43.219 150.638 43.7482 153.086 43.94 155.571C44.0162 156.396 43.9822 157.228 43.8388 158.045C43.8149 158.307 43.7316 158.559 43.5953 158.784C43.4591 159.009 43.2734 159.2 43.0524 159.342C42.7312 159.491 42.367 159.518 42.0269 159.42C42.2137 158.701 42.2667 157.955 42.1833 157.217C42.1833 157.038 42.1556 156.849 42.1326 156.656C42.0729 156.132 41.981 155.566 41.8614 154.959C41.7786 154.568 41.6866 154.164 41.5808 153.745C41.188 152.207 40.6634 150.705 40.0127 149.257C39.3677 147.797 38.5377 146.426 37.5432 145.178C37.2786 144.856 36.9962 144.549 36.6971 144.258C36.2759 143.831 35.8138 143.446 35.3175 143.109C35.1503 142.99 34.9767 142.882 34.7978 142.782C34.0266 142.308 33.1415 142.052 32.2365 142.042C32.5276 141.558 32.9438 141.163 33.4412 140.897C34.0268 140.609 34.683 140.495 35.3313 140.57C36.0626 140.654 36.767 140.896 37.3961 141.278Z" fill="#121A26"/>
<path d="M30.2313 142.699L30.5808 142.483L30.6498 142.437C31.129 142.146 31.6804 141.997 32.2409 142.005C33.1459 142.016 34.0311 142.271 34.8024 142.745C34.9813 142.845 35.1548 142.954 35.3221 143.072C35.8183 143.409 36.2804 143.794 36.7017 144.221C37.0007 144.512 37.2832 144.819 37.5477 145.141C38.5422 146.389 39.3722 147.76 40.0173 149.22C40.668 150.668 41.1926 152.17 41.5854 153.708C41.6911 154.127 41.7832 154.531 41.8659 154.922C41.9855 155.529 42.0774 156.095 42.1372 156.619C42.1602 156.812 42.1786 157.001 42.1878 157.18C42.2712 157.918 42.2182 158.665 42.0314 159.383C41.9317 159.726 41.7176 160.025 41.4245 160.229H41.3831L41.1715 160.363C39.2372 161.565 37.4231 162.951 35.7543 164.501C35.9468 164.299 36.0908 164.056 36.1752 163.79C36.2597 163.523 36.2824 163.242 36.2418 162.965C36.1911 162.123 36.0127 161.294 35.7129 160.505C34.8529 158.158 33.6369 155.957 32.1076 153.98L31.7765 153.561C31.5558 153.281 31.3166 153.014 31.1004 152.756C30.7601 152.366 30.4107 151.998 30.052 151.657L29.6979 151.322C29.3392 150.99 28.9759 150.687 28.6126 150.402C28.2493 150.117 27.8815 149.878 27.5182 149.657C27.2744 149.51 27.0583 149.376 26.7915 149.257C26.5248 149.137 26.3317 149.027 26.0741 148.935C25.8166 148.843 25.6143 148.76 25.3705 148.691C23.8484 148.231 22.4964 148.438 21.5812 149.261C24.2446 146.798 27.1417 144.6 30.2313 142.699Z" fill="#2C5776"/>
<path d="M44.3767 136.882L44.9194 136.785C45.6582 136.646 46.4221 136.735 47.1083 137.043C47.8257 137.356 50.962 138.882 51.4081 146.944C51.9278 156.284 49.1593 157.176 48.8512 157.217L48.6167 157.254C46.6806 157.699 44.8102 158.393 43.0523 159.319C43.2733 159.177 43.459 158.986 43.5952 158.761C43.7315 158.536 43.8148 158.284 43.8387 158.022C43.9821 157.205 44.0161 156.373 43.9399 155.548C43.7481 153.063 43.2189 150.615 42.3671 148.273L42.174 147.772C42.0452 147.44 41.9119 147.119 41.7693 146.801C41.5578 146.341 41.3324 145.882 41.0932 145.422C41.0105 145.279 40.9278 145.137 40.8496 144.994C40.6013 144.576 40.3437 144.18 40.0724 143.812C39.8096 143.452 39.5272 143.107 39.2263 142.777C39.0285 142.561 38.8308 142.368 38.633 142.184C38.4353 142 38.2283 141.835 38.0214 141.678C37.8202 141.527 37.6115 141.386 37.396 141.255C36.7714 140.861 36.0684 140.607 35.3358 140.51C34.6875 140.435 34.0313 140.549 33.4457 140.837C36.8965 139.036 40.5729 137.706 44.3767 136.882Z" fill="#2C5776"/>
<path d="M20.1694 180.477C20.4368 179.31 20.7685 178.159 21.1628 177.028L21.733 177.428C22.2296 177.792 22.6803 178.15 23.0758 178.504C23.2229 178.633 23.3609 178.762 23.4897 178.891C24.0578 179.395 24.5258 180.002 24.8693 180.68C25.0281 181.012 25.0623 181.391 24.9658 181.746L24.8876 182.041C24.2838 184.105 23.8804 186.222 23.6828 188.364C23.7978 187.444 22.7078 186.455 20.9925 185.476C20.5557 185.237 20.0729 185.016 19.5532 184.763C19.6736 183.324 19.8793 181.892 20.1694 180.477Z" fill="#1F4060"/>
<path d="M23.0527 172.682C23.9584 170.985 24.9771 169.35 26.1016 167.789C26.2718 167.973 26.4374 168.162 26.5891 168.341C26.9846 168.801 27.3432 169.261 27.6421 169.721C27.7525 169.886 27.8583 170.043 27.9549 170.181C28.3795 170.811 28.6748 171.519 28.824 172.264C28.9018 172.634 28.8431 173.019 28.6585 173.349L28.4975 173.616C27.3326 175.604 26.3522 177.694 25.5682 179.861C25.6435 179.594 25.6582 179.313 25.6112 179.039C25.5643 178.766 25.4569 178.506 25.2969 178.279C24.8651 177.556 24.329 176.9 23.7058 176.334C23.1614 175.821 22.5888 175.339 21.9905 174.89C22.3124 174.154 22.6618 173.414 23.0527 172.682Z" fill="#1F4060"/>
<path d="M27.472 165.978C29.1887 163.833 31.094 161.846 33.1651 160.041C33.2709 160.234 33.3721 160.427 33.4641 160.616C33.7265 161.127 33.9614 161.652 34.1677 162.188C34.2413 162.372 34.3056 162.552 34.3608 162.722C34.6269 163.431 34.7534 164.185 34.7333 164.943C34.7153 165.319 34.5692 165.678 34.3194 165.959L34.1217 166.171C32.5069 167.866 31.0421 169.699 29.7438 171.648C30.2726 170.82 29.8726 169.45 28.7781 167.739C28.3748 167.129 27.9388 166.541 27.472 165.978Z" fill="#1F4060"/>
<path d="M34.9402 158.661C37.12 157.144 39.5389 156.049 41.8382 154.826L41.8658 154.936C41.9854 155.543 42.0773 156.109 42.1371 156.633C42.1601 156.826 42.1785 157.015 42.1877 157.194C42.2711 157.932 42.2181 158.679 42.0313 159.397C41.9316 159.74 41.7175 160.039 41.4244 160.243H41.383L41.1714 160.377C39.2371 161.579 37.423 162.965 35.7542 164.515C35.9467 164.313 36.0907 164.07 36.1751 163.804C36.2596 163.537 36.2823 163.256 36.2417 162.979C36.191 162.137 36.0126 161.308 35.7128 160.519C35.4871 159.887 35.2293 159.267 34.9402 158.661Z" fill="#1F4060"/>
<path d="M43.8387 158.022C43.9821 157.205 44.0161 156.373 43.9399 155.548C43.9031 154.996 43.8386 154.398 43.742 153.768C44.5238 153.311 45.2793 152.811 46.0047 152.269C48.3684 150.485 50.5113 148.737 51.1689 144.53C51.2747 145.265 51.3575 146.061 51.4081 146.944C51.9277 156.284 49.1593 157.176 48.8512 157.217L48.6167 157.254C46.6805 157.699 44.8102 158.393 43.0522 159.319C43.2733 159.177 43.4589 158.986 43.5952 158.761C43.7315 158.536 43.8148 158.284 43.8387 158.022Z" fill="#1F4060"/>
<path d="M-5.77158 201.847L-1.43508 190.626C-1.04992 189.642 -0.37788 188.796 0.493749 188.199C1.36538 187.601 2.39645 187.279 3.45335 187.274L20.174 187.219C20.7413 187.221 21.3016 187.345 21.8166 187.583C22.3316 187.821 22.7893 188.168 23.1585 188.598L26.4971 192.466C26.9093 192.942 27.1965 193.513 27.333 194.128C27.4695 194.743 27.451 195.382 27.279 195.988L23.2045 210.359C23.0481 210.91 22.7137 211.393 22.2536 211.733C21.7935 212.073 21.2336 212.252 20.6615 212.24L1.4667 211.845C0.639961 211.827 -0.170835 211.614 -0.899095 211.222C-1.62736 210.83 -2.25225 210.271 -2.72261 209.591L-5.4818 204.689C-5.76115 204.276 -5.93389 203.8 -5.98445 203.304C-6.035 202.809 -5.96186 202.308 -5.77158 201.847Z" fill="#2C5777"/>
<path d="M21.7927 188.939C20.4499 192.406 18.0127 199.346 17.0378 202.123C16.9129 202.484 16.8845 202.871 16.9555 203.246C17.0265 203.621 17.1944 203.971 17.4424 204.261L22.1975 209.78C22.2829 209.877 22.393 209.95 22.5162 209.99C22.6395 210.031 22.7713 210.037 22.8978 210.009C23.0244 209.981 23.141 209.919 23.2354 209.83C23.3299 209.741 23.3986 209.629 23.4345 209.504L27.3019 195.86C27.4657 195.276 27.4827 194.66 27.3511 194.068C27.2195 193.476 26.9435 192.926 26.5478 192.466L23.269 188.667C23.1693 188.554 23.0417 188.468 22.8989 188.418C22.756 188.368 22.6026 188.357 22.4538 188.384C22.305 188.411 22.1658 188.477 22.05 188.574C21.9341 188.671 21.8455 188.797 21.7927 188.939Z" fill="#1F4060"/>
<path d="M15.9341 200.049L20.5328 188.677C20.5982 188.514 20.6228 188.338 20.6043 188.164C20.5859 187.989 20.525 187.822 20.4269 187.677C20.3289 187.532 20.1968 187.413 20.0421 187.33C19.8873 187.248 19.7148 187.205 19.5395 187.205L3.54079 187.256C2.45418 187.259 1.3938 187.59 0.497443 188.204C-0.398913 188.818 -1.08979 189.688 -1.4855 190.7L-5.43578 200.817C-5.51222 201.01 -5.53996 201.218 -5.51651 201.424C-5.49305 201.63 -5.41908 201.827 -5.30128 201.998C-5.18348 202.168 -5.0255 202.307 -4.84119 202.402C-4.65689 202.497 -4.45195 202.545 -4.24469 202.542L12.6277 202.316C13.3415 202.309 14.0369 202.089 14.6256 201.685C15.2143 201.282 15.6698 200.712 15.9341 200.049Z" fill="#468CAF"/>
<path d="M25.1825 198.811C25.6524 196.304 24.8314 194.047 23.3486 193.769C21.8658 193.491 20.2829 195.297 19.8129 197.804C19.343 200.31 20.164 202.567 21.6468 202.845C23.1296 203.123 24.7126 201.317 25.1825 198.811Z" fill="#121A26"/>
<path d="M23.3518 193.776C22.1607 194.291 20.7306 196.076 20.496 198.711C20.2615 201.346 21.595 202.472 22.5883 202.638C23.5816 202.804 24.3267 202.79 27.0077 204.298C29.7669 205.857 31.473 207.402 32.7652 206.11C34.4299 204.459 33.4918 201.203 31.2568 198.012C29.2656 195.161 25.4074 192.884 23.3518 193.776Z" fill="#2C5777"/>
<path d="M23.2091 194.6C21.6088 197.359 25.674 200.536 27.095 201.222C28.4424 201.865 30.6957 203.061 31.8408 201.654C32.8939 200.348 31.1786 197.901 30.0979 196.628C28.424 194.912 26.5524 193.652 24.975 193.634C24.631 193.668 24.2974 193.772 23.994 193.937C23.6907 194.103 23.4237 194.329 23.2091 194.6Z" fill="#346F93"/>
<path d="M25.527 195.133C24.0186 196.416 26.364 199.677 29.4496 199.879C31.542 200.017 29.4496 196.628 28.5299 195.846C27.9919 195.409 26.5617 194.25 25.527 195.133Z" fill="#468CAF"/>
<path d="M149 67C149 62.5817 152.582 59 157 59H277C281.418 59 285 62.5817 285 67V71C285 75.4183 281.418 79 277 79H149V67Z" fill="white"/>
<path d="M158.156 73H159.207L156.168 68.9233L159.108 65.7273H158.057L155.145 68.8807H154.761V65.7273H153.881V73H154.761V69.6619H155.656L158.156 73ZM162.047 73.1136C163.525 73.1136 164.519 71.9915 164.519 70.3011C164.519 68.5966 163.525 67.4744 162.047 67.4744C160.57 67.4744 159.576 68.5966 159.576 70.3011C159.576 71.9915 160.57 73.1136 162.047 73.1136ZM162.047 72.3608C160.925 72.3608 160.414 71.3949 160.414 70.3011C160.414 69.2074 160.925 68.2273 162.047 68.2273C163.17 68.2273 163.681 69.2074 163.681 70.3011C163.681 71.3949 163.17 72.3608 162.047 72.3608ZM168.781 71.8636L166.906 67.5455H165.798V73H166.636V68.7493L168.44 73H169.122L170.926 68.8274V73H171.764V67.5455H170.685L168.781 71.8636ZM173.643 75.0455C174.399 75.0455 174.932 74.6442 175.248 73.7955L177.57 67.5597L176.654 67.5455L175.148 71.892H175.092L173.586 67.5455H172.677L174.694 73.0284L174.538 73.4545C174.232 74.2855 173.856 74.3636 173.245 74.2074L173.032 74.946C173.117 74.9886 173.359 75.0455 173.643 75.0455ZM184.773 73H185.568V67.5455H183.324C182.149 67.5455 181.435 68.1598 181.435 69.1648C181.435 69.9141 181.811 70.4467 182.468 70.6705L181.137 73H182.046L183.31 70.7841H184.773V73ZM184.773 70.0028H183.225C182.632 70.0028 182.273 69.6868 182.273 69.1648C182.273 68.6357 182.671 68.3125 183.324 68.3125H184.773V70.0028ZM192.206 73.1136C193.314 73.1136 194.124 72.5597 194.38 71.7358L193.57 71.5085C193.357 72.0767 192.863 72.3608 192.206 72.3608C191.223 72.3608 190.544 71.7251 190.505 70.5568H194.465V70.2017C194.465 68.1705 193.257 67.4744 192.121 67.4744C190.644 67.4744 189.664 68.6392 189.664 70.3153C189.664 71.9915 190.63 73.1136 192.206 73.1136ZM190.505 69.8324C190.562 68.9837 191.162 68.2273 192.121 68.2273C193.03 68.2273 193.613 68.9091 193.613 69.8324H190.505ZM203.183 72.2188H202.373V67.5455H201.535V72.2188H199.475V67.5455H198.637V72.2188H196.578V67.5455H195.74V73H202.217V74.5625H203.083L203.183 72.2188ZM206.63 73.1136C207.738 73.1136 208.548 72.5597 208.803 71.7358L207.994 71.5085C207.781 72.0767 207.287 72.3608 206.63 72.3608C205.646 72.3608 204.968 71.7251 204.929 70.5568H208.889V70.2017C208.889 68.1705 207.681 67.4744 206.545 67.4744C205.068 67.4744 204.088 68.6392 204.088 70.3153C204.088 71.9915 205.053 73.1136 206.63 73.1136ZM204.929 69.8324C204.986 68.9837 205.586 68.2273 206.545 68.2273C207.454 68.2273 208.036 68.9091 208.036 69.8324H204.929ZM213.814 67.5455H212.976V73H213.814V70.6705H216.428V73H217.266V67.5455H216.428V69.8892H213.814V67.5455ZM221.083 73.1136C222.191 73.1136 223.001 72.5597 223.257 71.7358L222.447 71.5085C222.234 72.0767 221.74 72.3608 221.083 72.3608C220.1 72.3608 219.421 71.7251 219.382 70.5568H223.342V70.2017C223.342 68.1705 222.134 67.4744 220.998 67.4744C219.521 67.4744 218.541 68.6392 218.541 70.3153C218.541 71.9915 219.507 73.1136 221.083 73.1136ZM219.382 69.8324C219.439 68.9837 220.039 68.2273 220.998 68.2273C221.907 68.2273 222.49 68.9091 222.49 69.8324H219.382ZM229.645 73.1136C231.122 73.1136 232.117 71.9915 232.117 70.3011C232.117 68.5966 231.122 67.4744 229.645 67.4744C228.168 67.4744 227.173 68.5966 227.173 70.3011C227.173 71.9915 228.168 73.1136 229.645 73.1136ZM229.645 72.3608C228.523 72.3608 228.012 71.3949 228.012 70.3011C228.012 69.2074 228.523 68.2273 229.645 68.2273C230.767 68.2273 231.279 69.2074 231.279 70.3011C231.279 71.3949 230.767 72.3608 229.645 72.3608ZM232.683 68.3267H234.487V73H235.325V68.3267H237.115V67.5455H232.683V68.3267ZM238.337 73H239.175V68.3267H241.789V73H242.627V67.5455H238.337V73ZM244.158 75.0455H244.996V72.1619H245.067C245.251 72.4602 245.607 73.1136 246.658 73.1136C248.021 73.1136 248.973 72.0199 248.973 70.2869C248.973 68.5682 248.021 67.4744 246.643 67.4744C245.578 67.4744 245.251 68.1278 245.067 68.4119H244.967V67.5455H244.158V75.0455ZM244.982 70.2727C244.982 69.0511 245.521 68.2273 246.544 68.2273C247.609 68.2273 248.135 69.1222 248.135 70.2727C248.135 71.4375 247.595 72.3608 246.544 72.3608C245.536 72.3608 244.982 71.5085 244.982 70.2727ZM251.857 73.1278C252.808 73.1278 253.305 72.6165 253.476 72.2614H253.518V73H254.357V69.4062C254.357 67.6733 253.036 67.4744 252.339 67.4744C251.516 67.4744 250.578 67.7585 250.152 68.7528L250.947 69.0369C251.132 68.6392 251.569 68.2131 252.368 68.2131C253.138 68.2131 253.518 68.6214 253.518 69.321V69.3494C253.518 69.7543 253.107 69.7188 252.112 69.8466C251.1 69.978 249.996 70.2017 249.996 71.4517C249.996 72.517 250.82 73.1278 251.857 73.1278ZM251.984 72.375C251.317 72.375 250.834 72.0767 250.834 71.4943C250.834 70.8551 251.416 70.6562 252.07 70.571C252.425 70.5284 253.376 70.429 253.518 70.2585V71.0256C253.518 71.7074 252.979 72.375 251.984 72.375ZM255.886 73H258.457C259.565 73 260.233 72.375 260.233 71.5369C260.233 70.6811 259.583 70.2195 258.983 70.1307C259.597 70.0028 260.034 69.6584 260.034 68.9943C260.034 68.1243 259.288 67.5455 258.116 67.5455H255.886V73ZM256.682 72.233V70.5568H258.457C259.032 70.5568 259.381 70.9013 259.381 71.4659C259.381 71.9418 259.032 72.233 258.457 72.233H256.682ZM256.682 69.8324V68.3125H258.116C258.787 68.3125 259.196 68.593 259.196 69.0511C259.196 69.5376 258.787 69.8324 258.116 69.8324H256.682ZM262.339 71.7642V67.5455H261.501V73H262.482L265.095 68.7812V73H265.933V67.5455H264.967L262.339 71.7642ZM266.985 73H267.269C268.477 73 268.825 72.0625 268.903 70.2727L268.988 68.3267H270.991V73H271.829V67.5455H268.193L268.093 69.9602C268.022 71.7926 267.838 72.2188 267.184 72.2188H266.985V73ZM273.977 73.0568C274.329 73.0568 274.617 72.7692 274.617 72.4176C274.617 72.0661 274.329 71.7784 273.977 71.7784C273.626 71.7784 273.338 72.0661 273.338 72.4176C273.338 72.7692 273.626 73.0568 273.977 73.0568ZM276.731 73.0568C277.083 73.0568 277.371 72.7692 277.371 72.4176C277.371 72.0661 277.083 71.7784 276.731 71.7784C276.38 71.7784 276.092 72.0661 276.092 72.4176C276.092 72.7692 276.38 73.0568 276.731 73.0568ZM279.485 73.0568C279.837 73.0568 280.124 72.7692 280.124 72.4176C280.124 72.0661 279.837 71.7784 279.485 71.7784C279.134 71.7784 278.846 72.0661 278.846 72.4176C278.846 72.7692 279.134 73.0568 279.485 73.0568Z" fill="#95A2B0"/>
</g>
<defs>
<clipPath id="clip0">
<rect width="288" height="196" rx="8" fill="white"/>
</clipPath>
</defs>
</svg>
