<svg width="1128" height="514" viewBox="0 0 1128 514" fill="none" xmlns="http://www.w3.org/2000/svg">
<rect width="1128" height="514" rx="16" fill="#E8F3FF"/>
<path opacity="0.2" d="M740 405C740 383.316 1032.64 369.872 1067 366C1124.42 359.529 1018.5 395.5 1048.5 416.5C1069.9 431.48 1078 453.5 1029.5 453.5C1002.54 453.5 949.312 435.943 897.5 427C836.3 416.437 740 426.683 740 405Z" fill="#285077"/>
<path d="M767.5 255C798.3 248.2 829 273.5 840.5 287C856.167 269.667 905.1 232.3 975.5 221.5C1063.5 208 1090.5 248 1096.5 307.5C1102.5 367 1038.5 392 1014 391.5C989.5 391 915 405.5 850.5 413.5C786 421.5 713.5 415 703.5 365.5C693.5 316 729 263.5 767.5 255Z" fill="#4099F1"/>
<path d="M767.5 248C798.3 241.2 829 266.5 840.5 280C856.167 262.667 905.1 225.3 975.5 214.5C1063.5 201 1090.5 241 1096.5 300.5C1102.5 360 1038.5 385 1014 384.5C989.5 384 915 398.5 850.5 406.5C786 414.5 713.5 408 703.5 358.5C693.5 309 729 256.5 767.5 248Z" fill="#76B9F7"/>
<path d="M845.5 295L820.5 283.5C848.1 325.5 805.167 383.833 788.5 398.5C826.9 378.1 848 314.833 845.5 295Z" fill="#4099F1"/>
<path d="M1006.57 225.403C1008.44 231.13 1009.18 236.701 1008.42 241.047C1008.11 242.992 1007.36 244.84 1006.22 246.444C1005.74 247.113 1005.14 247.68 1004.45 248.113C1003.75 248.546 1002.98 248.837 1002.17 248.968C1001.36 249.099 1000.53 249.068 999.734 248.876C998.937 248.685 998.187 248.337 997.526 247.852C996.755 247.346 996.057 246.738 995.449 246.045C994.768 245.236 994.168 244.363 993.658 243.437C991.494 239.552 990.486 234.103 990.503 228.053C990.556 222.824 991.106 217.612 992.146 212.487C992.346 211.496 992.554 210.592 992.772 209.802C992.959 209.082 993.188 208.374 993.458 207.681C993.936 206.49 994.44 205.943 995.092 205.734C995.744 205.525 996.466 206.134 997.317 207.064C998.398 208.34 999.35 209.72 1000.16 211.183C1002.79 215.686 1004.94 220.452 1006.57 225.403Z" fill="#1F4060"/>
<path d="M1002.31 226.602C1003.3 230.298 1003.66 234.136 1003.38 237.953C1003.01 240.968 1001.87 242.994 1000.27 243.28C998.673 243.567 996.952 241.864 995.727 239.091C994.329 235.53 993.556 231.755 993.441 227.931C993.214 224.145 993.325 220.347 993.771 216.58C994.154 213.625 994.692 211.774 995.509 211.678C996.326 211.583 997.422 213.139 998.656 215.85C1000.2 219.313 1001.43 222.912 1002.31 226.602Z" fill="#121A26"/>
<path d="M1032.02 232.251C1032.02 231.747 1031.96 231.234 1031.89 230.704C1031.82 230.174 1031.72 229.635 1031.6 229.088C1031.47 228.54 1031.33 227.984 1031.15 227.419C1030.88 226.533 1030.56 225.663 1030.2 224.811C1029.82 223.931 1029.39 223.044 1028.92 222.152C1028.75 221.856 1028.6 221.552 1028.42 221.283C1027.92 220.379 1027.36 219.475 1026.75 218.571C1026.35 217.963 1025.89 217.354 1025.49 216.754L1024.82 215.885C1021.64 211.723 1018 207.933 1013.97 204.587C1012.68 203.502 1011.28 202.547 1009.8 201.736C1008.62 201.145 1007.74 201.04 1007.09 201.379C1006.85 201.553 1006.64 201.778 1006.49 202.039C1006.34 202.3 1006.25 202.591 1006.23 202.892C1007.56 203.53 1008.78 204.375 1009.85 205.395C1010.12 205.638 1010.41 205.899 1010.72 206.16C1011.51 206.89 1012.35 207.724 1013.24 208.654C1013.81 209.254 1014.4 209.888 1014.98 210.566C1017.19 213.07 1019.22 215.728 1021.06 218.519C1022.92 221.302 1024.45 224.292 1025.62 227.428C1025.93 228.297 1026.19 229.166 1026.4 229.948C1026.71 231.153 1026.93 232.383 1027.03 233.624C1027.03 234.059 1027.09 234.494 1027.09 234.893C1027.12 236.718 1026.67 238.519 1025.77 240.108C1026.87 240.171 1027.96 239.927 1028.93 239.404C1030.02 238.761 1030.87 237.773 1031.34 236.597C1031.89 235.22 1032.13 233.733 1032.02 232.251Z" fill="#121A26"/>
<path d="M1051.59 213.469C1051.41 212.986 1051.2 212.513 1050.97 212.052C1050.73 211.574 1050.46 211.096 1050.15 210.609C1049.85 210.123 1049.53 209.653 1049.18 209.167C1048.63 208.425 1048.05 207.712 1047.44 207.029C1046.79 206.325 1046.09 205.621 1045.35 204.934L1044.57 204.256C1043.79 203.569 1042.96 202.909 1042.09 202.257C1041.51 201.822 1040.91 201.388 1040.3 200.971L1039.36 200.345C1034.99 197.504 1030.33 195.147 1025.45 193.314C1023.88 192.7 1022.25 192.249 1020.58 191.966C1020.05 191.879 1019.51 191.879 1018.98 191.966C1018.57 192.009 1018.2 192.194 1017.92 192.488C1017.75 192.737 1017.63 193.021 1017.57 193.321C1017.51 193.62 1017.52 193.929 1017.59 194.226C1019.05 194.381 1020.47 194.768 1021.81 195.373L1022.89 195.834C1023.9 196.277 1024.97 196.79 1026.09 197.372C1026.82 197.746 1027.59 198.163 1028.37 198.598C1031.28 200.23 1034.07 202.069 1036.72 204.099C1039.4 206.128 1041.83 208.461 1043.97 211.053C1044.55 211.765 1045.07 212.478 1045.55 213.191C1046.24 214.219 1046.84 215.311 1047.33 216.45C1047.5 216.841 1047.65 217.232 1047.78 217.615C1048.42 219.331 1048.59 221.189 1048.27 222.995C1049.33 222.686 1050.27 222.083 1050.99 221.256C1052.59 219.388 1052.71 216.467 1051.59 213.469Z" fill="#121A26"/>
<path d="M1063.65 187.986C1063.3 187.602 1062.93 187.236 1062.55 186.891C1062.14 186.521 1061.71 186.173 1061.26 185.848C1060.79 185.509 1060.3 185.187 1059.79 184.875C1058.99 184.393 1058.17 183.958 1057.32 183.571C1056.42 183.154 1055.5 182.783 1054.57 182.458L1053.59 182.137C1052.6 181.824 1051.58 181.537 1050.52 181.268C1049.81 181.103 1049.09 180.946 1048.35 180.807L1047.25 180.607C1042.1 179.798 1036.9 179.46 1031.69 179.599C1027.53 179.729 1024.99 180.086 1024.52 181.268C1024.47 181.542 1024.48 181.822 1024.55 182.092C1024.61 182.363 1024.73 182.617 1024.89 182.841C1026.3 182.559 1027.74 182.463 1029.18 182.554L1030.34 182.606C1031.41 182.658 1032.61 182.754 1033.89 182.893C1034.72 182.98 1035.56 183.076 1036.45 183.197C1039.76 183.623 1043.03 184.264 1046.25 185.118C1049.5 185.956 1052.64 187.185 1055.59 188.777C1056.38 189.22 1057.15 189.698 1057.85 190.185C1058.87 190.896 1059.82 191.702 1060.69 192.593C1060.98 192.897 1061.27 193.218 1061.55 193.54C1062.79 194.945 1063.61 196.671 1063.91 198.52C1064.83 197.822 1065.52 196.862 1065.89 195.765C1066.33 194.501 1066.35 193.131 1065.95 191.854C1065.48 190.411 1064.69 189.091 1063.65 187.986Z" fill="#121A26"/>
<path d="M1063.62 158.366C1063.13 158.173 1062.63 158.011 1062.12 157.879C1061.59 157.737 1061.05 157.624 1060.5 157.54C1059.95 157.453 1059.37 157.383 1058.77 157.349C1057.83 157.301 1056.9 157.301 1055.97 157.349C1055 157.401 1054.01 157.505 1053 157.662L1051.99 157.827C1050.96 158.009 1049.92 158.244 1048.87 158.513C1048.16 158.705 1047.46 158.904 1046.74 159.122L1045.67 159.469C1040.74 161.159 1035.98 163.279 1031.42 165.805C1029.96 166.574 1028.56 167.445 1027.22 168.413C1026.29 169.152 1025.67 169.777 1025.79 170.325C1025.84 170.539 1025.95 170.732 1026.12 170.872C1026.31 171.081 1026.54 171.255 1026.8 171.385C1027.97 170.6 1029.22 169.93 1030.52 169.386L1031.57 168.934C1032.57 168.517 1033.67 168.065 1034.87 167.622L1037.32 166.753C1040.44 165.621 1043.63 164.689 1046.88 163.963C1050.15 163.203 1053.51 162.853 1056.87 162.92C1057.74 162.948 1058.61 163.026 1059.48 163.154C1060.71 163.324 1061.93 163.615 1063.11 164.024C1063.52 164.171 1063.92 164.337 1064.3 164.51C1066.07 165.246 1067.59 166.493 1068.65 168.091C1068.89 167.534 1069.07 166.951 1069.18 166.353C1069.26 165.759 1069.26 165.156 1069.18 164.562C1068.97 163.192 1068.37 161.913 1067.44 160.886C1066.36 159.776 1065.06 158.915 1063.62 158.366Z" fill="#121A26"/>
<path d="M1050.67 132.77C1050.16 132.814 1049.65 132.887 1049.15 132.987C1048.64 133.091 1048.11 133.222 1047.55 133.378C1046.98 133.529 1046.42 133.712 1045.88 133.926C1045 134.25 1044.15 134.631 1043.32 135.064C1042.45 135.507 1041.58 136.003 1040.76 136.559L1039.89 137.133C1039.02 137.724 1038.15 138.367 1037.34 139.053C1036.78 139.514 1036.22 139.992 1035.66 140.488L1034.79 141.244C1031.03 144.837 1027.57 148.738 1024.45 152.908C1023.44 154.264 1022.56 155.72 1021.84 157.253C1021.35 158.427 1021.27 159.296 1021.59 159.861C1021.77 160.08 1022.01 160.254 1022.27 160.37C1022.53 160.486 1022.81 160.541 1023.1 160.53C1023.7 159.215 1024.48 157.992 1025.42 156.897L1026.15 156.028C1026.88 155.159 1027.61 154.29 1028.48 153.351C1029.04 152.742 1029.63 152.117 1030.22 151.482C1032.55 149.095 1035.05 146.876 1037.7 144.842C1040.34 142.777 1043.21 141.027 1046.25 139.627C1047.12 139.262 1047.91 138.941 1048.73 138.671C1049.9 138.259 1051.12 137.968 1052.36 137.802C1052.79 137.75 1053.23 137.715 1053.62 137.698C1055.47 137.567 1057.33 137.939 1058.99 138.775C1058.95 137.636 1058.61 136.528 1057.99 135.568C1057.64 135.03 1057.2 134.552 1056.7 134.152C1056.16 133.781 1055.58 133.488 1054.96 133.282C1053.58 132.808 1052.12 132.633 1050.67 132.77Z" fill="#121A26"/>
<path d="M1027.13 114.857C1026.69 115.124 1026.26 115.414 1025.84 115.726C1025.42 116.065 1024.97 116.43 1024.6 116.821C1024.23 117.212 1023.79 117.638 1023.4 118.09C1022.8 118.786 1022.23 119.518 1021.71 120.28C1021.17 121.08 1020.65 121.932 1020.16 122.818L1019.67 123.687C1019.19 124.609 1018.74 125.582 1018.32 126.581C1018.04 127.251 1017.76 127.937 1017.5 128.633L1017.12 129.693C1015.44 134.634 1014.23 139.72 1013.49 144.886C1013.23 146.522 1013.09 148.175 1013.07 149.831C1013.06 150.336 1013.12 150.839 1013.26 151.326C1013.28 151.49 1013.34 151.646 1013.43 151.785C1013.52 151.925 1013.64 152.044 1013.78 152.134C1013.98 152.239 1014.21 152.27 1014.43 152.221C1014.71 152.185 1014.99 152.103 1015.25 151.978C1015.32 150.561 1015.53 149.155 1015.87 147.78C1015.96 147.423 1016.06 147.05 1016.14 146.667C1016.41 145.607 1016.72 144.46 1017.06 143.243C1017.29 142.452 1017.53 141.626 1017.81 140.774C1018.8 137.587 1019.99 134.466 1021.37 131.431C1022.76 128.372 1024.51 125.494 1026.59 122.862C1027.17 122.158 1027.76 121.497 1028.37 120.889C1029.25 119.993 1030.22 119.192 1031.27 118.498C1031.63 118.264 1032 118.047 1032.37 117.847C1034.02 116.871 1035.92 116.409 1037.84 116.517C1037.54 115.987 1037.18 115.496 1036.77 115.057C1036.35 114.638 1035.88 114.281 1035.36 113.996C1034.16 113.313 1032.77 113.036 1031.4 113.205C1029.87 113.408 1028.4 113.974 1027.13 114.857Z" fill="#121A26"/>
<path d="M999.325 109.268C999.038 109.704 998.777 110.157 998.542 110.623C998.299 111.102 998.073 111.606 997.865 112.127C997.656 112.649 997.465 113.196 997.282 113.761C997.012 114.644 996.789 115.54 996.613 116.447C996.422 117.385 996.283 118.359 996.178 119.367C996.178 119.706 996.109 120.054 996.083 120.401C996.005 121.436 995.961 122.505 995.961 123.591C995.961 124.321 995.961 125.06 995.961 125.807L996.013 126.929C996.339 132.14 997.213 137.302 998.621 142.33C999.785 146.267 1000.92 148.761 1002.27 148.866C1002.56 148.858 1002.84 148.789 1003.1 148.661C1003.36 148.533 1003.59 148.351 1003.77 148.127C1003.11 146.834 1002.63 145.456 1002.34 144.033C1002.25 143.677 1002.18 143.303 1002.09 142.912C1001.86 141.852 1001.65 140.67 1001.45 139.435C1001.33 138.566 1001.21 137.758 1001.11 136.828C1000.7 133.515 1000.53 130.178 1000.59 126.842C1000.63 123.492 1001.06 120.157 1001.87 116.907C1002.11 116.038 1002.38 115.169 1002.67 114.378C1003.1 113.213 1003.64 112.09 1004.27 111.023C1004.5 110.658 1004.72 110.302 1004.97 109.963C1005.99 108.419 1007.43 107.198 1009.12 106.443C1008.23 105.742 1007.15 105.314 1006.03 105.209C1004.73 105.118 1003.44 105.441 1002.34 106.13C1001.12 106.947 1000.09 108.017 999.325 109.268Z" fill="#121A26"/>
<path d="M971.625 114.717C971.52 115.232 971.441 115.751 971.391 116.273C971.338 116.812 971.312 117.368 971.312 117.933C971.312 118.498 971.312 119.081 971.391 119.672C971.473 120.597 971.606 121.516 971.79 122.427C971.99 123.374 972.234 124.339 972.538 125.312L972.851 126.286C973.19 127.277 973.572 128.267 974.007 129.267C974.293 129.936 974.598 130.605 974.928 131.283L975.423 132.291C977.839 136.911 980.657 141.309 983.845 145.433C984.83 146.766 985.927 148.013 987.122 149.161C987.991 149.978 988.817 150.396 989.434 150.196C989.689 150.077 989.917 149.906 990.101 149.693C990.285 149.481 990.422 149.231 990.503 148.962C989.427 148 988.485 146.898 987.704 145.685L987.052 144.729C986.461 143.86 985.827 142.808 985.175 141.704C984.758 140.992 984.306 140.244 983.906 139.462C982.29 136.543 980.867 133.52 979.647 130.414C978.387 127.305 977.512 124.053 977.04 120.732C976.929 119.867 976.862 118.997 976.84 118.125C976.803 116.88 976.885 115.634 977.083 114.405C977.153 113.979 977.24 113.536 977.344 113.162C977.744 111.339 978.648 109.665 979.952 108.329C978.851 108.003 977.68 108.003 976.579 108.329C974.085 109.068 972.268 111.476 971.625 114.717Z" fill="#121A26"/>
<path d="M1068.65 160.808C1068.41 159.704 1068.11 158.426 1067.78 157.062C1067.6 156.384 1067.45 155.671 1067.24 154.967C1067.03 154.263 1066.79 153.559 1066.55 152.855C1066.32 152.151 1066.08 151.439 1065.85 150.752C1065.73 150.404 1065.61 150.057 1065.49 149.718C1065.38 149.379 1065.22 149.066 1065.09 148.753C1064.55 147.484 1064.03 146.311 1063.6 145.276C1063.16 144.242 1062.73 143.477 1062.44 142.912C1062.16 142.347 1061.97 142.043 1061.97 142.043L1061.49 141.174C1060.95 140.145 1060.11 139.302 1059.09 138.758C1057.43 137.921 1055.57 137.549 1053.72 137.68C1053.31 137.68 1052.85 137.732 1052.46 137.784C1051.22 137.95 1050 138.242 1048.82 138.653C1048.01 138.923 1047.18 139.244 1046.35 139.61C1043.3 141.009 1040.43 142.759 1037.79 144.824C1035.15 146.859 1032.65 149.078 1030.32 151.465C1029.69 152.099 1029.1 152.725 1028.58 153.333C1027.71 154.281 1026.97 155.158 1026.25 156.01L1025.52 156.879C1024.58 157.974 1023.79 159.197 1023.19 160.512C1023.07 160.759 1022.99 161.028 1022.97 161.304C1022.95 161.58 1022.98 161.857 1023.07 162.12L1023.25 162.468L1023.44 162.807C1023.61 163.083 1023.76 163.374 1023.88 163.676C1024.03 164.05 1024.22 164.476 1024.43 164.928L1024.58 165.275L1024.69 165.64L1024.92 166.362L1025.18 167.083C1025.25 167.326 1025.29 167.57 1025.35 167.796C1025.44 168.248 1025.56 168.665 1025.66 169.039C1025.74 169.777 1025.83 170.264 1025.83 170.264C1025.7 169.717 1026.33 169.091 1027.26 168.352C1028.59 167.384 1030 166.513 1031.46 165.745C1036.01 163.218 1040.78 161.098 1045.7 159.409L1046.77 159.061C1047.49 158.844 1048.2 158.644 1048.9 158.453C1049.95 158.183 1051 157.948 1052.02 157.766L1053.04 157.601C1054.05 157.444 1055.04 157.34 1056 157.288C1056.93 157.24 1057.87 157.24 1058.8 157.288C1059.41 157.288 1059.98 157.392 1060.54 157.479C1061.08 157.564 1061.62 157.677 1062.15 157.818C1062.66 157.95 1063.16 158.113 1063.65 158.305C1065.1 158.839 1066.42 159.684 1067.52 160.782C1068.45 161.813 1069.05 163.095 1069.26 164.467C1069.26 164.467 1068.99 163.042 1068.65 160.808Z" fill="#2C5777"/>
<path d="M1017.82 140.861C1017.55 141.73 1017.3 142.547 1017.07 143.338C1016.73 144.546 1016.42 145.702 1016.15 146.754C1016.06 147.145 1015.97 147.519 1015.88 147.875C1015.53 149.247 1015.32 150.65 1015.26 152.064C1015.23 152.316 1015.26 152.571 1015.34 152.812C1015.42 153.052 1015.55 153.271 1015.73 153.455L1016 153.664C1017.03 154.424 1017.98 155.276 1018.85 156.21C1019 156.393 1019.17 156.566 1019.32 156.74L1019.56 157.01C1019.65 157.123 1019.74 157.244 1019.83 157.366L1020.79 158.626C1021.03 158.896 1021.25 159.187 1021.44 159.495L1021.65 159.834C1021.33 159.27 1021.41 158.4 1021.91 157.227C1022.62 155.693 1023.5 154.237 1024.51 152.881C1027.63 148.712 1031.09 144.811 1034.86 141.217L1035.72 140.461C1036.28 139.966 1036.84 139.488 1037.4 139.027C1038.27 138.341 1039.14 137.697 1039.95 137.106L1040.82 136.533C1041.69 135.977 1042.56 135.481 1043.38 135.038C1044.21 134.604 1045.06 134.224 1045.94 133.899C1046.49 133.686 1047.05 133.503 1047.61 133.352C1048.17 133.195 1048.7 133.065 1049.21 132.961C1049.72 132.86 1050.22 132.788 1050.73 132.743C1052.2 132.576 1053.68 132.727 1055.08 133.187C1055.7 133.392 1056.28 133.685 1056.82 134.056C1057.32 134.457 1057.76 134.935 1058.11 135.472L1057.57 134.664C1057.12 133.954 1056.63 133.269 1056.11 132.613L1053.96 129.814L1053.35 129.032L1052.63 128.163C1052.13 127.607 1051.63 127.033 1051.12 126.425C1049.22 124.368 1047.19 122.44 1045.03 120.654L1043.84 119.654L1042.89 118.933L1042.02 118.316L1041.15 117.673C1040.16 116.964 1038.99 116.551 1037.78 116.482C1035.87 116.383 1033.97 116.845 1032.32 117.812C1031.94 118.012 1031.58 118.229 1031.21 118.472C1030.17 119.162 1029.2 119.96 1028.32 120.854C1027.71 121.462 1027.12 122.123 1026.54 122.827C1024.45 125.459 1022.7 128.337 1021.32 131.396C1019.95 134.472 1018.78 137.634 1017.82 140.861Z" fill="#2C5777"/>
<path d="M1001.18 136.837C1001.29 137.706 1001.41 138.575 1001.53 139.444C1001.72 140.713 1001.94 141.895 1002.17 142.921C1002.25 143.312 1002.33 143.686 1002.42 144.042C1002.71 145.465 1003.18 146.843 1003.84 148.136C1003.97 148.398 1004.14 148.633 1004.36 148.826C1004.58 149.019 1004.83 149.165 1005.1 149.257L1005.5 149.318L1005.9 149.387L1006.92 149.622C1007.36 149.7 1007.79 149.857 1008.35 149.996C1008.9 150.135 1009.38 150.326 1009.91 150.5C1011.24 150.966 1012.53 151.548 1013.76 152.238C1013.62 152.147 1013.5 152.029 1013.41 151.889C1013.32 151.75 1013.27 151.593 1013.24 151.43C1013.1 150.943 1013.04 150.44 1013.05 149.935C1013.07 148.278 1013.22 146.626 1013.47 144.989C1014.21 139.824 1015.42 134.738 1017.1 129.797L1017.48 128.736C1017.74 128.041 1018.02 127.355 1018.3 126.685C1018.72 125.686 1019.17 124.712 1019.65 123.791L1020.14 122.922C1020.64 122.053 1021.15 121.184 1021.7 120.384C1022.22 119.622 1022.78 118.89 1023.38 118.194C1023.77 117.742 1024.17 117.325 1024.58 116.925C1024.99 116.525 1025.41 116.169 1025.82 115.83C1026.24 115.518 1026.67 115.228 1027.11 114.961C1028.39 114.113 1029.84 113.577 1031.36 113.396C1032.73 113.227 1034.12 113.504 1035.32 114.187L1034.45 113.683C1033.87 113.361 1033.06 112.909 1032.05 112.44C1029.63 111.243 1027.14 110.192 1024.6 109.294C1023.23 108.816 1021.85 108.338 1020.56 107.99C1019.26 107.642 1018.05 107.277 1017 107.06L1014.48 106.495L1013.53 106.321L1012.61 106.165C1011.47 105.962 1010.3 106.104 1009.24 106.573C1007.55 107.329 1006.11 108.55 1005.09 110.093C1004.84 110.432 1004.62 110.789 1004.39 111.154C1003.76 112.221 1003.22 113.344 1002.79 114.509C1002.5 115.3 1002.23 116.151 1001.99 117.038C1001.18 120.288 1000.75 123.622 1000.72 126.972C1000.64 130.267 1000.8 133.563 1001.18 136.837Z" fill="#2C5777"/>
<path d="M983.906 139.462C984.332 140.244 984.776 140.992 985.175 141.704C985.827 142.808 986.462 143.825 987.053 144.729L987.704 145.685C988.486 146.898 989.427 148.001 990.503 148.962V148.91C990.715 149.118 990.968 149.278 991.247 149.38C991.526 149.482 991.824 149.523 992.12 149.501L992.467 149.414C992.602 149.378 992.738 149.352 992.876 149.336L993.98 149.153C994.849 149.005 996.126 148.875 997.378 148.797C997.995 148.797 998.621 148.797 999.203 148.736H1000.79L1002.32 148.84C1000.98 148.736 999.838 146.233 998.673 142.304C997.265 137.276 996.391 132.114 996.065 126.903L996.013 125.782C996.013 125.034 995.97 124.296 996.013 123.566C996.013 122.479 996.013 121.41 996.135 120.376C996.135 120.028 996.196 119.681 996.231 119.342C996.335 118.333 996.474 117.36 996.665 116.421C996.841 115.515 997.065 114.618 997.335 113.736C997.517 113.171 997.708 112.623 997.917 112.102C998.125 111.58 998.351 111.076 998.595 110.598C998.829 110.131 999.09 109.679 999.377 109.242C1000.17 107.987 1001.22 106.919 1002.47 106.113C1003.57 105.424 1004.86 105.102 1006.16 105.192C1006.16 105.192 1004.76 105.07 1002.68 104.966C1001.63 104.966 1000.41 104.905 999.099 104.896C997.787 104.888 996.404 104.94 995.014 105.027C992.233 105.183 989.46 105.505 987.391 105.826L984.888 106.252C984.28 106.348 983.941 106.435 983.941 106.435L983.124 106.609C981.98 106.86 980.935 107.44 980.117 108.277H980.03C978.726 109.613 977.823 111.287 977.422 113.11C977.318 113.51 977.231 113.927 977.162 114.353C976.963 115.582 976.882 116.828 976.919 118.073C976.941 118.945 977.007 119.815 977.118 120.68C977.59 124.001 978.466 127.253 979.726 130.362C980.918 133.484 982.314 136.524 983.906 139.462Z" fill="#2C5777"/>
<path d="M1027.02 233.581C1026.92 232.34 1026.71 231.11 1026.39 229.904C1026.18 229.035 1025.92 228.244 1025.62 227.384C1024.44 224.248 1022.91 221.259 1021.05 218.475C1019.22 215.684 1017.18 213.027 1014.97 210.523C1014.37 209.845 1013.79 209.21 1013.23 208.611C1012.36 207.681 1011.49 206.872 1010.71 206.116C1010.41 205.855 1010.12 205.595 1009.84 205.351C1008.77 204.332 1007.55 203.487 1006.22 202.848C1005.68 202.577 1005.05 202.53 1004.48 202.718L1003.12 203.257C1002.98 203.366 1002.83 203.459 1002.67 203.535L1001.23 204.108C1000.71 204.308 1000.13 204.456 999.577 204.656C999.037 204.849 998.486 205.006 997.925 205.125C997.404 205.247 996.917 205.412 996.5 205.482L995.109 205.725C995.761 205.586 996.483 206.125 997.334 207.055C998.415 208.331 999.367 209.711 1000.18 211.174C1002.81 215.679 1004.97 220.448 1006.61 225.402C1008.48 231.13 1009.22 236.701 1008.45 241.047C1008.15 242.992 1007.39 244.84 1006.25 246.444C1005.28 247.77 1003.84 248.675 1002.22 248.973L1005.56 248.365C1006.56 248.174 1007.69 247.852 1008.91 247.557C1010.14 247.261 1011.43 246.905 1012.68 246.479C1016.34 245.308 1019.91 243.897 1023.38 242.255C1024.39 241.788 1025.22 241.023 1025.77 240.065C1026.67 238.475 1027.12 236.674 1027.09 234.85C1027.02 234.441 1027.02 234.016 1027.02 233.581Z" fill="#2C5777"/>
<path d="M1028.29 198.598C1027.51 198.163 1026.76 197.729 1026.02 197.373C1024.9 196.79 1023.82 196.278 1022.81 195.834L1021.73 195.374C1020.4 194.771 1018.97 194.384 1017.52 194.226C1017.21 194.169 1016.9 194.18 1016.59 194.26C1016.29 194.339 1016.01 194.485 1015.78 194.687L1015.45 195.017C1015.35 195.132 1015.25 195.239 1015.13 195.339L1014.27 196.13C1013.56 196.825 1012.53 197.616 1011.48 198.459C1010.44 199.302 1009.35 200.006 1008.49 200.484L1007.49 201.119L1007.1 201.336C1007.75 200.997 1008.63 201.101 1009.81 201.692C1011.29 202.504 1012.68 203.458 1013.98 204.543C1018.01 207.89 1021.65 211.68 1024.83 215.842L1025.49 216.711C1025.94 217.311 1026.36 217.919 1026.76 218.527C1027.34 219.431 1027.9 220.335 1028.43 221.239C1028.61 221.535 1028.76 221.839 1028.93 222.108C1029.41 223.001 1029.83 223.887 1030.21 224.768C1030.57 225.62 1030.89 226.49 1031.16 227.375C1031.34 227.955 1031.48 228.511 1031.6 229.044C1031.73 229.592 1031.82 230.13 1031.9 230.661C1031.98 231.191 1032.01 231.704 1032.03 232.208C1032.12 233.672 1031.87 235.137 1031.31 236.493C1030.84 237.669 1029.99 238.657 1028.9 239.3L1029.71 238.839L1031.78 237.553C1033.52 236.519 1035.69 234.945 1037.86 233.39C1040.04 231.834 1042.07 230.07 1043.54 228.688L1045.34 227.054C1045.76 226.654 1046 226.411 1046 226.411L1046.68 225.733C1047.44 224.946 1047.96 223.966 1048.21 222.899C1048.52 221.099 1048.35 219.248 1047.71 217.537C1047.57 217.154 1047.42 216.763 1047.26 216.372C1046.77 215.233 1046.17 214.142 1045.48 213.113C1045 212.4 1044.48 211.687 1043.9 210.975C1041.76 208.386 1039.33 206.052 1036.65 204.021C1034 202.02 1031.2 200.208 1028.29 198.598Z" fill="#2C5777"/>
<path d="M1036.45 183.223C1035.59 183.101 1034.72 183.006 1033.89 182.919C1032.61 182.78 1031.41 182.684 1030.34 182.632L1029.18 182.58C1027.75 182.488 1026.3 182.585 1024.9 182.867C1024.16 183.058 1023.7 183.344 1023.52 183.788C1023.47 183.91 1023.42 184.029 1023.36 184.144L1022.67 185.483C1022.44 185.953 1022.19 186.408 1021.91 186.847C1021.61 187.382 1021.29 187.902 1020.94 188.403L1019.9 189.933L1018.88 191.228C1018.65 191.532 1018.41 191.822 1018.14 192.097L1017.85 192.436C1018.12 192.142 1018.5 191.957 1018.9 191.914C1019.43 191.827 1019.97 191.827 1020.51 191.914C1022.17 192.197 1023.8 192.648 1025.37 193.261C1030.25 195.094 1034.91 197.452 1039.28 200.293L1040.22 200.919C1040.83 201.336 1041.43 201.788 1042.01 202.205C1042.88 202.857 1043.75 203.517 1044.49 204.204L1045.27 204.882C1046.02 205.568 1046.71 206.272 1047.36 206.976C1047.98 207.66 1048.56 208.373 1049.1 209.114C1049.45 209.601 1049.78 210.079 1050.07 210.557C1050.37 211.035 1050.65 211.522 1050.89 212C1051.12 212.461 1051.33 212.934 1051.51 213.417C1052.63 216.415 1052.52 219.336 1050.84 221.169L1051.46 220.465C1051.85 220.022 1052.4 219.388 1053.02 218.571L1055.16 215.798C1055.91 214.764 1056.68 213.608 1057.45 212.469C1058.23 211.331 1058.93 210.131 1059.6 208.993C1060.27 207.854 1060.89 206.829 1061.34 205.873C1062.29 203.987 1062.92 202.735 1062.92 202.735C1062.92 202.735 1063.03 202.535 1063.13 202.318C1063.22 202.101 1063.31 201.883 1063.31 201.883C1063.77 200.815 1063.92 199.644 1063.76 198.494C1063.46 196.645 1062.65 194.918 1061.41 193.513C1061.15 193.192 1060.86 192.87 1060.54 192.566C1059.67 191.675 1058.72 190.869 1057.71 190.159C1057 189.672 1056.24 189.194 1055.45 188.751C1052.49 187.159 1049.35 185.93 1046.1 185.091C1042.93 184.262 1039.71 183.638 1036.45 183.223Z" fill="#2C5777"/>
<path d="M1037.32 166.701L1034.87 167.57C1033.67 168.022 1032.57 168.439 1031.57 168.882L1030.52 169.334C1029.22 169.878 1027.97 170.548 1026.8 171.333H1026.85C1026.26 171.768 1025.98 172.202 1025.98 172.585C1025.99 172.683 1025.99 172.782 1025.98 172.88C1025.98 172.88 1025.98 173.384 1025.98 174.149C1025.97 174.589 1025.93 175.027 1025.86 175.461C1025.86 175.705 1025.86 175.957 1025.8 176.209C1025.74 176.461 1025.69 176.722 1025.65 176.991C1025.58 177.512 1025.48 178.028 1025.35 178.538C1025.21 179.034 1025.09 179.503 1024.99 179.903C1024.89 180.303 1024.73 180.642 1024.66 180.876L1024.54 181.241C1025.01 180.059 1027.55 179.703 1031.71 179.573C1036.91 179.434 1042.12 179.771 1047.27 180.581L1048.37 180.781C1049.11 180.92 1049.83 181.076 1050.53 181.241C1051.6 181.485 1052.62 181.771 1053.61 182.11L1054.58 182.432C1055.52 182.756 1056.44 183.127 1057.34 183.545C1058.19 183.932 1059.01 184.367 1059.81 184.848C1060.32 185.161 1060.81 185.483 1061.28 185.822C1061.72 186.147 1062.15 186.495 1062.56 186.865C1062.95 187.21 1063.32 187.575 1063.67 187.96C1064.7 189.075 1065.48 190.404 1065.94 191.853C1066.34 193.13 1066.32 194.501 1065.88 195.765C1065.88 195.765 1066 195.426 1066.21 194.826C1066.41 194.226 1066.72 193.383 1067.01 192.323L1067.97 188.698C1068.33 187.377 1068.54 185.891 1068.84 184.44C1068.96 183.71 1069.11 182.988 1069.2 182.258C1069.3 181.528 1069.36 180.807 1069.44 180.103C1069.56 178.703 1069.75 177.417 1069.75 176.279C1069.75 174.01 1069.83 172.506 1069.83 172.506V172.054C1069.83 171.837 1069.83 171.611 1069.83 171.611C1069.76 170.372 1069.36 169.173 1068.68 168.135V168.039C1067.62 166.441 1066.11 165.194 1064.34 164.458C1063.95 164.284 1063.55 164.119 1063.15 163.971C1061.97 163.563 1060.75 163.272 1059.51 163.102C1058.65 162.974 1057.78 162.896 1056.91 162.868C1053.54 162.801 1050.19 163.151 1046.91 163.911C1043.66 164.635 1040.45 165.567 1037.32 166.701Z" fill="#2C5777"/>
<path d="M987.122 149.161C985.927 148.013 984.83 146.766 983.845 145.433C980.657 141.308 977.839 136.911 975.423 132.291L974.928 131.283C974.598 130.605 974.293 129.936 974.007 129.267C973.572 128.267 973.19 127.276 972.851 126.286L972.538 125.312C972.234 124.339 971.99 123.374 971.79 122.427C971.606 121.516 971.473 120.597 971.391 119.672C971.338 119.08 971.312 118.498 971.312 117.933C971.312 117.368 971.312 116.812 971.391 116.273C971.441 115.751 971.52 115.231 971.625 114.717C972.294 111.475 974.085 109.068 976.588 108.303L975.649 108.607C975.058 108.807 974.207 109.042 973.19 109.476C970.648 110.389 968.163 111.455 965.75 112.666C963.204 113.942 960.75 115.394 958.406 117.012C957.415 117.646 956.589 118.333 956.024 118.75L955.155 119.437L954.686 119.81L954.225 120.202C952.954 121.278 952.044 122.719 951.618 124.33C951.386 125.18 951.264 126.056 951.253 126.938C951.247 127.87 951.349 128.801 951.557 129.71C951.652 130.145 951.774 130.579 951.913 131.005C952.328 132.228 952.892 133.395 953.591 134.482C954.07 135.242 954.602 135.968 955.181 136.654C957.401 139.166 959.985 141.331 962.847 143.077C965.871 145.007 968.931 146.554 971.538 148.032L973.798 149.266L976.823 151.004L977.796 151.569L979.534 152.629L980.908 153.42C981.62 153.829 982.168 154.002 982.368 153.803L982.542 153.655C982.542 153.655 982.802 153.446 983.289 153.116C983.964 152.644 984.676 152.229 985.418 151.873C986.283 151.435 987.174 151.052 988.087 150.726C988.46 150.561 988.826 150.491 989.06 150.404L989.434 150.283C988.782 150.396 988.035 149.978 987.122 149.161Z" fill="#2C5777"/>
<path d="M1004.7 121.401C1003.53 121.019 1002.38 120.671 1001.22 120.341C1000.89 122.404 1000.7 124.485 1000.65 126.573C1001.51 126.712 1002.33 126.859 1003.17 127.025C1003.72 127.14 1004.29 127.09 1004.82 126.882C1005.35 126.673 1005.8 126.315 1006.12 125.851L1006.17 125.79C1006.42 125.419 1006.58 124.995 1006.64 124.551C1006.7 124.107 1006.66 123.656 1006.52 123.232C1006.37 122.808 1006.13 122.422 1005.82 122.104C1005.5 121.787 1005.12 121.546 1004.7 121.401Z" fill="#346F93"/>
<path d="M978.109 125.738C983.403 125.325 988.721 125.325 994.015 125.738C994.684 125.791 995.344 125.851 996.005 125.921C996.005 125.869 996.005 125.817 996.005 125.773C996.005 125.026 995.961 124.287 996.005 123.557C996.005 122.47 996.005 121.401 996.127 120.367C996.127 120.019 996.187 119.672 996.222 119.333C996.222 119.202 996.222 119.081 996.222 118.95C989.881 117.482 983.368 116.897 976.866 117.212C976.866 117.49 976.866 117.76 976.866 118.081C976.889 118.953 976.955 119.823 977.066 120.689C977.288 122.396 977.636 124.084 978.109 125.738Z" fill="#346F93"/>
<path d="M972.85 126.286L972.538 125.312C972.234 124.339 971.99 123.374 971.79 122.427C971.606 121.516 971.473 120.597 971.39 119.671C971.338 119.08 971.312 118.498 971.312 117.933C971.312 117.838 971.312 117.751 971.312 117.655L969.409 117.89C968.773 117.973 968.163 118.196 967.623 118.543C967.083 118.89 966.627 119.353 966.287 119.897C965.948 120.441 965.732 121.054 965.657 121.691C965.582 122.328 965.65 122.974 965.854 123.583V123.704C966.185 124.684 966.854 125.513 967.741 126.043C968.628 126.574 969.676 126.771 970.695 126.599C971.39 126.486 972.095 126.381 972.799 126.294L972.85 126.286Z" fill="#346F93"/>
<path d="M1024.65 165.675L1024.89 166.397L1025.15 167.118C1025.22 167.361 1025.25 167.605 1025.31 167.831C1025.41 168.282 1025.53 168.7 1025.62 169.073C1025.7 169.812 1025.79 170.299 1025.79 170.299C1025.67 169.751 1026.29 169.126 1027.22 168.387C1027.94 167.856 1028.69 167.365 1029.46 166.918C1029.86 165.402 1030.17 163.864 1030.4 162.312C1030.53 159.073 1030.09 155.835 1029.09 152.751L1028.55 153.333C1027.68 154.281 1026.94 155.158 1026.22 156.01L1025.49 156.879C1024.54 157.974 1023.76 159.197 1023.16 160.512C1023.03 160.759 1022.96 161.028 1022.93 161.304C1022.91 161.58 1022.95 161.858 1023.03 162.12L1023.22 162.468L1023.41 162.807C1023.58 163.083 1023.73 163.374 1023.84 163.676C1024 164.05 1024.18 164.476 1024.39 164.928L1024.55 165.275L1024.65 165.675Z" fill="#1F4060"/>
<path d="M1023.71 143.512C1022.14 141.793 1020.4 140.246 1018.5 138.897C1018.27 139.566 1018.05 140.227 1017.85 140.861C1017.58 141.73 1017.32 142.547 1017.1 143.338C1016.75 144.546 1016.45 145.702 1016.18 146.754C1016.09 147.145 1015.99 147.519 1015.91 147.875C1015.56 149.247 1015.35 150.651 1015.28 152.064C1015.25 152.316 1015.28 152.572 1015.36 152.812C1015.44 153.052 1015.58 153.272 1015.75 153.455L1016.03 153.664C1017.05 154.424 1018 155.276 1018.87 156.21C1019.03 156.393 1019.19 156.567 1019.35 156.74L1019.58 157.01C1019.68 157.123 1019.77 157.245 1019.85 157.366L1020.82 158.627C1021.06 158.896 1021.27 159.187 1021.46 159.496L1021.68 159.835C1021.36 159.27 1021.44 158.401 1021.93 157.227C1022.65 155.694 1023.52 154.237 1024.54 152.882C1025.41 151.726 1026.44 150.422 1027.59 149.031C1026.55 147.026 1025.25 145.17 1023.71 143.512Z" fill="#1F4060"/>
<path d="M1013.26 151.413C1013.12 150.926 1013.06 150.423 1013.07 149.918C1013.09 148.261 1013.23 146.609 1013.49 144.972C1013.85 142.6 1014.36 139.758 1015.1 136.689L1014.82 136.524C1012.17 135.566 1009.45 134.853 1006.67 134.395C1004.76 134.095 1002.83 133.904 1000.9 133.821C1000.98 134.856 1001.07 135.873 1001.18 136.837C1001.3 137.802 1001.41 138.576 1001.53 139.445C1001.72 140.714 1001.94 141.896 1002.17 142.921C1002.25 143.312 1002.33 143.686 1002.42 144.042C1002.7 145.466 1003.18 146.843 1003.84 148.136C1003.97 148.399 1004.14 148.633 1004.36 148.826C1004.58 149.019 1004.83 149.166 1005.1 149.257L1005.5 149.318L1005.9 149.388L1006.92 149.622C1007.36 149.701 1007.79 149.857 1008.35 149.996C1008.9 150.135 1009.38 150.326 1009.91 150.5C1011.24 150.966 1012.53 151.548 1013.76 152.238C1013.62 152.144 1013.51 152.022 1013.42 151.879C1013.33 151.737 1013.28 151.578 1013.26 151.413Z" fill="#1F4060"/>
<path d="M985.175 141.704C985.827 142.808 986.462 143.825 987.053 144.729L987.705 145.685C988.486 146.898 989.427 148 990.503 148.962V148.909C990.715 149.118 990.968 149.278 991.247 149.38C991.526 149.482 991.824 149.523 992.12 149.5L992.467 149.414C992.602 149.378 992.738 149.352 992.876 149.335L993.98 149.153C994.849 149.005 996.126 148.875 997.378 148.797C997.995 148.797 998.621 148.796 999.203 148.736H1000.79L1002.32 148.84C1000.98 148.736 999.838 146.232 998.673 142.304C997.879 139.496 997.253 136.643 996.796 133.76C991.803 133.93 986.84 134.591 981.977 135.733C982.611 137.037 983.246 138.28 983.88 139.436C984.332 140.244 984.758 140.992 985.175 141.704Z" fill="#1F4060"/>
<path d="M1026.36 229.905C1026.16 229.036 1025.89 228.245 1025.59 227.384C1024.42 224.248 1022.89 221.259 1021.03 218.476C1019.54 216.206 1017.92 214.029 1016.17 211.957C1011.3 211.556 1006.4 212.437 1001.98 214.512C1003.8 218.013 1005.34 221.654 1006.57 225.403C1008.44 231.13 1009.18 236.701 1008.42 241.047C1008.11 242.992 1007.36 244.84 1006.22 246.445C1005.24 247.77 1003.8 248.675 1002.18 248.974L1005.52 248.365C1006.52 248.174 1007.65 247.852 1008.88 247.557C1010.1 247.261 1011.4 246.905 1012.65 246.479C1016.3 245.308 1019.88 243.897 1023.35 242.255C1024.35 241.788 1025.19 241.023 1025.74 240.065C1026.63 238.475 1027.09 236.674 1027.05 234.85C1027.05 234.442 1027.05 233.981 1027 233.581C1026.89 232.34 1026.68 231.11 1026.36 229.905Z" fill="#1F4060"/>
<path d="M1047.25 216.415C1046.76 215.277 1046.16 214.186 1045.47 213.156C1045.29 212.895 1045.11 212.643 1044.93 212.383C1037.59 214.416 1030.26 213.93 1022.79 212.722L1022.21 212.635C1023.08 213.652 1023.95 214.712 1024.82 215.833L1025.49 216.702C1025.93 217.302 1026.35 217.91 1026.75 218.519C1027.33 219.423 1027.89 220.327 1028.42 221.23C1028.6 221.526 1028.75 221.83 1028.92 222.1C1029.4 222.992 1029.83 223.878 1030.2 224.759C1030.56 225.611 1030.88 226.481 1031.15 227.367C1031.33 227.946 1031.47 228.502 1031.6 229.035C1031.72 229.583 1031.81 230.122 1031.89 230.652C1031.97 231.182 1032 231.695 1032.02 232.199C1032.11 233.663 1031.86 235.128 1031.3 236.484C1030.83 237.66 1029.98 238.648 1028.89 239.291L1029.7 238.831L1031.77 237.544C1033.51 236.51 1035.68 234.937 1037.85 233.381C1040.03 231.825 1042.06 230.061 1043.53 228.679L1045.33 227.045C1045.75 226.645 1045.99 226.402 1045.99 226.402L1046.67 225.724C1047.43 224.937 1047.96 223.957 1048.2 222.891C1048.51 221.091 1048.34 219.24 1047.7 217.528C1047.56 217.189 1047.41 216.806 1047.25 216.415Z" fill="#1F4060"/>
<path d="M1050.1 210.531L1050.15 210.61C1050.46 211.096 1050.73 211.574 1050.97 212.052C1051.2 212.513 1051.41 212.986 1051.59 213.469C1052.71 216.468 1052.59 219.388 1050.92 221.222L1051.53 220.518C1051.92 220.075 1052.48 219.44 1053.1 218.623L1055.24 215.851C1055.99 214.808 1056.76 213.66 1057.53 212.522C1058.3 211.383 1059.01 210.184 1059.68 209.045C1060.35 207.907 1060.96 206.881 1061.42 205.925C1062.37 204.039 1063 202.787 1063 202.787C1063 202.787 1063.11 202.587 1063.21 202.37C1063.3 202.153 1063.39 201.936 1063.39 201.936C1063.59 201.463 1063.73 200.967 1063.81 200.458C1060.01 204.759 1055.34 208.194 1050.1 210.531Z" fill="#1F4060"/>
<path d="M1026.8 171.36H1026.85C1026.26 171.794 1025.98 172.229 1025.98 172.611C1025.99 172.709 1025.99 172.808 1025.98 172.907C1025.98 172.907 1025.98 173.411 1025.98 174.176C1025.97 174.615 1025.93 175.053 1025.86 175.488C1025.86 175.723 1025.86 175.966 1025.8 176.209C1026.78 174.332 1027.64 172.389 1028.36 170.395C1027.82 170.683 1027.3 171.006 1026.8 171.36Z" fill="#1F4060"/>
<path d="M977.796 151.482L979.535 152.542L980.908 153.333C981.621 153.742 982.168 153.916 982.368 153.716L982.542 153.568C982.542 153.568 982.803 153.359 983.289 153.029C983.964 152.558 984.676 152.142 985.419 151.786C986.283 151.349 987.174 150.966 988.087 150.639C988.461 150.474 988.826 150.404 989.06 150.318L989.434 150.196C988.817 150.396 988.035 149.978 987.122 149.161C985.927 148.013 984.831 146.766 983.846 145.433C981.716 142.647 979.743 139.746 977.935 136.741L976.727 137.072C975.98 137.428 975.241 137.793 974.511 138.193C971.843 139.636 967.28 141.67 965.394 144.52C967.541 145.772 969.644 146.884 971.538 147.919L973.798 149.153L976.823 150.891L977.796 151.482Z" fill="#1F4060"/>
<path d="M1055.26 138.784C1055.14 138.41 1054.99 138.037 1054.85 137.672C1054.48 137.672 1054.11 137.672 1053.72 137.672C1053.32 137.672 1052.85 137.724 1052.46 137.776C1051.22 137.942 1050 138.233 1048.82 138.645C1048.01 138.914 1047.18 139.236 1046.34 139.601C1044.61 140.389 1042.94 141.307 1041.35 142.348C1043.74 147.882 1044.78 153.905 1044.39 159.922C1044.82 159.774 1045.26 159.617 1045.67 159.478L1046.74 159.131C1047.46 158.913 1048.16 158.713 1048.87 158.522C1049.92 158.253 1050.96 158.018 1051.99 157.836L1053 157.671C1054.01 157.514 1055 157.41 1055.97 157.358C1056.9 157.31 1057.83 157.31 1058.76 157.358H1059.13C1058.6 151.033 1057.3 144.796 1055.26 138.784Z" fill="#346F93"/>
<path d="M1045.55 121.219L1045.04 120.784L1043.85 119.785L1042.89 119.063L1042.03 118.446L1041.16 117.803C1040.17 117.094 1039 116.681 1037.78 116.612C1035.87 116.513 1033.98 116.975 1032.33 117.942C1031.95 118.142 1031.59 118.359 1031.22 118.602C1030.18 119.292 1029.21 120.09 1028.33 120.984C1028.07 121.245 1027.81 121.523 1027.55 121.801C1032.6 126.115 1036.55 131.57 1039.07 137.715C1039.34 137.515 1039.6 137.315 1039.87 137.133L1040.74 136.559C1041.61 136.003 1042.48 135.507 1043.3 135.064C1044.13 134.63 1044.98 134.25 1045.86 133.925C1046.41 133.712 1046.97 133.529 1047.54 133.378C1048.09 133.221 1048.62 133.091 1049.13 132.987C1049.64 132.886 1050.15 132.814 1050.66 132.769C1051.35 132.709 1052.05 132.709 1052.75 132.769C1050.74 128.69 1048.33 124.82 1045.55 121.219Z" fill="#346F93"/>
<path d="M1021.74 117.559L1023.15 118.428C1023.23 118.324 1023.31 118.211 1023.4 118.116C1023.79 117.664 1024.19 117.246 1024.6 116.847C1025.01 116.447 1025.42 116.091 1025.84 115.752C1026.26 115.44 1026.69 115.15 1027.13 114.882C1028.4 114.035 1029.86 113.499 1031.38 113.318C1032.75 113.148 1034.13 113.426 1035.33 114.109L1034.46 113.605C1033.89 113.283 1033.07 112.831 1032.07 112.362C1029.65 111.165 1027.16 110.114 1024.62 109.216C1023.24 108.738 1021.87 108.26 1020.58 107.912C1019.28 107.564 1018.06 107.199 1017.02 106.982L1014.5 106.417L1013.54 106.243L1012.62 106.087C1011.49 105.883 1010.31 106.026 1009.26 106.495C1007.57 107.251 1006.13 108.471 1005.1 110.015C1004.86 110.354 1004.63 110.711 1004.41 111.076C1004.35 111.171 1004.3 111.284 1004.24 111.38C1010.3 112.614 1016.31 114.317 1021.74 117.559Z" fill="#346F93"/>
<path d="M998.725 110.285C998.916 109.937 999.116 109.59 999.325 109.268C1000.12 108.013 1001.17 106.945 1002.42 106.139C1003.52 105.45 1004.81 105.127 1006.1 105.218C1006.1 105.218 1004.7 105.096 1002.63 104.992C1001.58 104.992 1000.36 104.931 999.047 104.922C997.734 104.914 996.352 104.966 994.962 105.053C992.181 105.209 989.408 105.531 987.339 105.852L984.836 106.278C984.228 106.374 983.889 106.461 983.889 106.461L983.072 106.635C982.105 106.858 981.209 107.318 980.464 107.973C983.524 108.208 986.548 108.694 989.504 109.181C992.599 109.339 995.68 109.708 998.725 110.285Z" fill="#346F93"/>
<path d="M1042.34 197.051C1042.87 197.091 1043.4 197.091 1043.93 197.051C1047.14 194.444 1049.58 190.767 1051.58 186.96C1049.84 186.26 1048.06 185.662 1046.25 185.17C1044.01 184.569 1041.74 184.082 1039.45 183.71C1038 187.543 1035.78 191.532 1036.98 195.495C1038.61 196.453 1040.45 196.988 1042.34 197.051Z" fill="#346F93"/>
<path d="M1053.59 182.137L1053.84 182.215C1054.06 181.719 1054.28 181.233 1054.49 180.746C1055.65 178.051 1056.69 175.288 1057.63 172.498C1057.99 170.368 1058.31 168.23 1058.56 166.066C1058.67 165.049 1058.76 164.032 1058.84 163.024C1058.21 162.946 1057.57 162.885 1056.89 162.868C1053.53 162.801 1050.17 163.151 1046.89 163.911C1045.95 164.119 1045.02 164.345 1044.11 164.58C1044.11 166.984 1043.87 169.382 1043.42 171.742C1042.84 174.523 1042.02 177.248 1040.97 179.885C1042.97 180.042 1045.08 180.276 1047.25 180.633L1048.35 180.833C1049.09 180.972 1049.81 181.128 1050.52 181.293C1051.58 181.554 1052.6 181.824 1053.59 182.137Z" fill="#346F93"/>
<path d="M973.929 110.007C974.645 109.202 975.563 108.602 976.588 108.269L975.649 108.573C975.058 108.773 974.207 109.007 973.19 109.442C972.408 109.72 971.521 110.059 970.583 110.441C971.695 110.285 972.807 110.111 973.929 110.007Z" fill="#346F93"/>
<path d="M918.247 276.371C970.799 261.984 1007.16 227.525 999.462 199.404C991.764 171.282 942.921 160.148 890.368 174.535C837.816 188.921 801.454 223.381 809.153 251.502C816.851 279.623 865.694 290.757 918.247 276.371Z" fill="#1F4060"/>
<path d="M919.498 280.92C972.05 266.533 1008.41 232.074 1000.71 203.953C990.459 158.139 940.788 158.672 888.236 173.058C835.683 187.445 797.616 220.578 810.404 256.051C818.102 284.173 866.945 295.307 919.498 280.92Z" fill="#121A26"/>
<path d="M892.629 182.476C840.081 196.868 803.725 231.33 811.425 259.455L830.381 328.691C826.209 313.446 834.988 296.341 852.275 281.575C866.868 269.103 887.527 258.308 911.594 251.72C935.66 245.132 958.927 243.898 977.839 247.192C1000.24 251.085 1016.51 261.332 1020.68 276.577L1001.72 207.342C993.997 179.216 945.177 168.091 892.629 182.476Z" fill="#2C5777"/>
<path d="M978.353 200.676C976.97 194.45 973.669 188.815 968.915 184.565C964.161 180.314 958.193 177.662 951.852 176.983C934.348 175.062 913.793 176.722 892.638 182.511C870.614 188.542 851.441 198.094 837.161 209.237C832.978 212.499 829.854 216.926 828.183 221.96C826.511 226.994 826.366 232.411 827.765 237.527C830.981 249.269 835.405 265.34 838.595 277.508C838.956 278.883 839.663 280.143 840.647 281.169C841.632 282.196 842.861 282.954 844.221 283.372C845.58 283.791 847.023 283.856 848.414 283.561C849.805 283.266 851.098 282.622 852.171 281.688L852.284 281.592C866.877 269.12 887.536 258.326 911.603 251.738C935.669 245.149 958.936 243.915 977.848 247.209H977.97C979.183 247.436 980.433 247.36 981.609 246.987C982.785 246.614 983.851 245.956 984.711 245.072C985.571 244.187 986.199 243.104 986.54 241.918C986.88 240.732 986.922 239.481 986.662 238.275C984.324 227.749 980.96 212.591 978.353 200.676Z" fill="#346F93"/>
<path d="M918.747 177.339C909.926 178.408 901.197 180.125 892.629 182.476C891.76 182.71 892.846 182.945 892.021 183.188C897.114 206.585 903.919 229.539 910.403 252.589C911.42 252.293 910.559 251.998 911.594 251.72C920.568 249.247 929.722 247.48 938.971 246.435C931.28 223.716 925.9 200.249 918.747 177.339Z" fill="#468CAF"/>
<path d="M868.467 190.958C861.479 193.968 854.722 197.489 848.251 201.492C851.25 215.094 860.419 256.57 865.712 272.91C872.465 268.425 878.149 264.296 886.371 260.663C879.748 237.605 873.343 214.416 868.467 190.958Z" fill="#468CAF"/>
<path d="M950.236 229.844L950.079 229.435C946.247 219.295 938.653 211.023 928.876 206.341C919.098 201.659 907.892 200.928 897.59 204.3C887.287 207.671 878.682 214.887 873.565 224.443C868.448 234 867.213 245.161 870.118 255.605V255.718C871.006 258.903 870.862 262.288 869.707 265.386C868.551 268.484 866.444 271.136 863.687 272.962C839.012 289.363 825.323 310.335 830.338 328.691C838.039 356.817 886.884 367.95 939.432 353.557C991.98 339.164 1028.34 304.703 1020.64 276.586C1016.04 259.794 996.778 249.061 970.826 246.166C966.218 245.621 961.853 243.806 958.217 240.924C954.581 238.042 951.818 234.206 950.236 229.844Z" fill="#1F4060"/>
<path d="M981.907 252.824C970.73 249.999 953.86 252.059 946.15 231.182C942.725 222.076 935.923 214.64 927.158 210.419C918.393 206.198 908.338 205.517 899.084 208.517C889.829 211.517 882.087 217.967 877.464 226.527C872.842 235.088 871.696 245.1 874.264 254.484C875.011 257.213 878.418 267.999 864.886 277.872C860.248 281.116 855.821 284.652 851.632 288.458C837.621 301.747 831.685 315.584 834.927 327.43L840.246 346.847L840.594 345.665C847.981 322.198 879.479 298.123 921.171 286.703C962.864 275.282 1002.23 279.932 1020.55 296.385L1021.42 297.254L1018.1 285.086L1016.1 277.803C1012.89 265.982 1000.63 257.526 981.907 252.824Z" fill="#121A26"/>
<path d="M911.498 273.509C926.024 273.509 937.799 261.734 937.799 247.209C937.799 232.684 926.024 220.909 911.498 220.909C896.973 220.909 885.198 232.684 885.198 247.209C885.198 261.734 896.973 273.509 911.498 273.509Z" fill="#1F4060"/>
<path d="M910.751 270.78C925.276 270.78 937.051 259.005 937.051 244.48C937.051 229.955 925.276 218.18 910.751 218.18C896.226 218.18 884.451 229.955 884.451 244.48C884.451 259.005 896.226 270.78 910.751 270.78Z" fill="#2C5777"/>
<path d="M910.751 259.525C919.06 259.525 925.796 252.789 925.796 244.48C925.796 236.171 919.06 229.435 910.751 229.435C902.442 229.435 895.706 236.171 895.706 244.48C895.706 252.789 902.442 259.525 910.751 259.525Z" fill="#121A26"/>
<path d="M910.751 256.97C917.649 256.97 923.241 251.378 923.241 244.48C923.241 237.582 917.649 231.99 910.751 231.99C903.853 231.99 898.262 237.582 898.262 244.48C898.262 251.378 903.853 256.97 910.751 256.97Z" fill="#43E0BB"/>
<path d="M906.11 248.86C906.216 248.543 906.248 248.206 906.203 247.874C906.158 247.542 906.037 247.225 905.849 246.948C905.427 246.151 905.185 245.271 905.138 244.371C905.092 243.47 905.242 242.57 905.58 241.734C905.878 240.987 906.348 240.322 906.952 239.792C907.556 239.261 908.277 238.882 909.056 238.683C909.373 238.625 909.667 238.481 909.906 238.266C910.145 238.052 910.321 237.774 910.412 237.466C910.514 237.149 910.529 236.811 910.454 236.486C910.38 236.162 910.22 235.863 909.991 235.622C909.761 235.381 909.471 235.206 909.15 235.116C908.83 235.026 908.491 235.024 908.17 235.111C905.875 235.739 903.891 237.186 902.59 239.178C901.29 241.17 900.764 243.57 901.112 245.923C901.293 247.12 901.69 248.275 902.285 249.33C902.494 249.674 902.796 249.951 903.156 250.13C903.516 250.309 903.92 250.382 904.32 250.34C904.72 250.298 905.1 250.143 905.415 249.893C905.73 249.644 905.968 249.31 906.101 248.93L906.11 248.86Z" fill="#BCF8EA"/>
<path d="M917 244.185C916.542 244.485 916.211 244.943 916.07 245.471C915.786 246.497 915.227 247.426 914.453 248.157C914.184 248.423 913.988 248.754 913.883 249.117C913.778 249.481 913.768 249.865 913.854 250.234V250.286C913.945 250.678 914.139 251.038 914.416 251.329C914.694 251.621 915.044 251.832 915.431 251.942C915.818 252.052 916.227 252.057 916.616 251.955C917.005 251.853 917.36 251.649 917.643 251.364C919.002 250.006 919.935 248.281 920.329 246.401C920.407 245.982 920.361 245.549 920.195 245.156C920.03 244.764 919.752 244.428 919.397 244.192C919.042 243.956 918.626 243.829 918.2 243.828C917.774 243.827 917.356 243.951 917 244.185Z" fill="#BCF8EA"/>
<path d="M820.082 251.268C829.356 262.706 828.687 292.987 821.421 295.959L807.697 243.68C811.764 242.394 811.964 241.247 820.082 251.268Z" fill="#121A26"/>
<path d="M921.172 286.72C879.454 298.141 847.982 322.19 840.594 345.682C838.642 351.497 838.424 357.755 839.969 363.691L846.774 388.54C854.475 416.665 903.32 427.79 955.868 413.406C1008.42 399.022 1044.77 364.551 1037.07 336.426L1030.27 311.577C1028.57 305.683 1025.19 300.409 1020.55 296.402C1002.23 279.95 962.865 275.3 921.172 286.72Z" fill="#2C5777"/>
<path d="M895.298 329.109C907.987 324.45 929.307 318.914 942.666 316.862C966.906 313.125 992.102 312.36 1016.31 316.993C1014.48 307.745 1012.56 298.515 1010.16 289.415C989.521 278.881 956.172 277.134 921.172 286.721C897.636 293.161 877.368 303.634 862.836 315.759C860.608 317.61 858.953 320.056 858.062 322.812C857.171 325.568 857.081 328.52 857.803 331.325C858.261 333.098 858.701 334.877 859.124 336.661C859.4 337.822 859.952 338.898 860.733 339.8C861.514 340.701 862.501 341.4 863.611 341.838C864.72 342.276 865.919 342.439 867.105 342.314C868.291 342.189 869.429 341.779 870.423 341.12C878.037 335.992 886.659 332.281 895.298 329.109Z" fill="#346F93"/>
<path d="M899.869 293.986C891.644 297.364 883.721 301.435 876.185 306.154C879.236 315.158 882.026 324.258 884.79 333.358C888.266 331.82 891.743 330.429 895.298 329.134C899.878 327.457 905.588 325.658 911.638 323.919C907.831 313.898 904.146 303.816 899.869 293.986Z" fill="#468CAF"/>
<path d="M955.827 413.647C1008.38 399.26 1044.74 364.801 1037.04 336.68C1029.34 308.558 980.501 297.424 927.948 311.811C875.396 326.198 839.034 360.657 846.733 388.778C854.431 416.899 903.274 428.034 955.827 413.647Z" fill="#1F4060"/>
<path d="M1011.38 368.68C997.143 382.169 976.118 393.207 952.174 399.769C928.229 406.331 904.475 407.53 885.354 403.184C869.823 399.647 859.098 392.633 855.404 383.742C855.509 384.524 855.663 385.299 855.864 386.062C858.585 396.005 869.771 403.906 886.597 407.73C905.718 412.076 929.428 410.876 953.373 404.323C977.318 397.77 998.351 386.723 1012.58 373.234C1025.09 361.37 1030.7 348.898 1027.98 338.929C1027.76 338.169 1027.5 337.423 1027.2 336.695C1028.54 346.221 1022.9 357.72 1011.38 368.68Z" fill="#346F93"/>
<path d="M885.355 403.185C904.476 407.53 928.186 406.331 952.131 399.778C976.075 393.224 997.1 382.178 1011.34 368.689C1022.9 357.729 1028.55 346.23 1027.2 336.696C1023.5 327.813 1012.78 320.79 997.248 317.253C978.127 312.907 954.416 314.107 930.472 320.669C906.527 327.231 885.494 338.26 871.266 351.758C859.706 362.709 854.048 374.216 855.404 383.742C859.098 392.625 869.823 399.639 885.355 403.185Z" fill="#1F4060"/>
<path d="M869.867 393.572C891.525 399.317 912.237 393.798 928.247 383.412C934.591 379.301 940.736 374.72 948.124 372.66C956.494 370.296 965.402 371.391 973.989 371.244C985.653 371.035 996.092 367.341 1006.59 363.421C1011.37 360.91 1016.19 358.467 1021.1 356.208C1021.4 356.065 1021.71 355.943 1022.03 355.843C1026.21 349.098 1028.02 342.527 1027.2 336.722C1023.5 327.839 1012.78 320.816 997.248 317.279C978.127 312.933 954.416 314.133 930.472 320.695C906.527 327.257 885.502 338.286 871.266 351.784C859.706 362.735 854.048 374.242 855.404 383.768C857.038 389.183 863.687 391.938 869.867 393.572Z" fill="#192F44"/>
<path d="M931.654 360.597C935.191 373.539 920.607 383.351 904.798 387.688C888.988 392.025 873.813 386.906 870.901 376.276C867.989 365.647 878.445 353.522 894.255 349.194C910.064 344.866 928.751 349.924 931.654 360.597Z" fill="#121A26"/>
<path d="M987.38 365.265C1003.19 360.937 1013.65 348.811 1010.74 338.181C1007.83 327.551 992.653 322.442 976.842 326.77C961.031 331.099 950.573 343.225 953.483 353.855C956.393 364.485 971.569 369.593 987.38 365.265Z" fill="#121A26"/>
<path d="M865.017 120.619L882.634 115.795L868.841 89.0171C868.531 88.4108 868.022 87.9297 867.399 87.6547C866.776 87.3797 866.077 87.3276 865.42 87.5071C864.764 87.6866 864.189 88.0867 863.792 88.6403C863.396 89.1939 863.202 89.8671 863.244 90.5468L865.017 120.619Z" fill="#346F93"/>
<path d="M862.342 141.039C879.166 136.482 890.828 125.489 888.389 116.485C885.951 107.481 870.335 103.875 853.511 108.432C836.686 112.988 825.025 123.982 827.463 132.986C829.902 141.99 845.517 145.596 862.342 141.039Z" fill="#346F93"/>
<path d="M895.654 115.352C894.471 112.939 893.153 110.595 891.708 108.329C889.456 105.032 886.876 101.972 884.007 99.1945C879.069 99.2046 874.154 99.8829 869.397 101.211C865.337 102.31 861.413 103.861 857.699 105.835C857.632 110.619 857.861 115.402 858.385 120.158C858.828 124.808 858.333 130.736 859.463 135.751C865.817 136.336 872.225 135.747 878.367 134.012C886.702 131.726 893.759 127.876 898.487 123.478C897.636 120.775 896.714 118.037 895.654 115.352Z" fill="#468CAF"/>
<path d="M867.014 90.9131C866.829 90.2371 866.132 89.8387 865.459 90.0231C864.785 90.2075 864.389 90.905 864.574 91.5809L866.564 98.849C866.749 99.5249 867.445 99.9233 868.119 99.7389C868.792 99.5545 869.188 98.8571 869.003 98.1811L867.014 90.9131Z" fill="#468CAF"/>
<path d="M890.387 174.297C942.935 159.904 991.781 171.038 999.481 199.155L992.589 174.01C985.678 148.776 969.027 127.32 946.298 114.362C923.568 101.404 896.622 98.0055 871.387 104.914C846.152 111.826 824.697 128.479 811.739 151.21C798.781 173.941 795.382 200.888 802.291 226.124L809.183 251.268C801.483 223.151 837.839 188.69 890.387 174.297Z" fill="#2C5777"/>
<path d="M808.157 247.513L809.183 251.268C808.867 250.105 808.623 248.923 808.453 247.73L808.157 247.513Z" fill="#346F93"/>
<path d="M952.565 118.246C940.795 110.303 927.447 104.998 913.435 102.697C899.423 100.396 885.079 101.152 871.387 104.914C847.785 111.344 827.431 126.351 814.311 146.997C811 153.95 808.514 166.927 808.931 180.729C809.027 184.371 810.106 187.92 812.054 190.999C814.001 194.079 816.745 196.575 819.995 198.223C823.244 199.871 826.879 200.611 830.514 200.363C834.149 200.116 837.65 198.89 840.646 196.816C854.161 187.491 871.187 179.555 890.387 174.297C911.177 168.604 931.384 166.909 948.689 168.674C951.934 169.001 955.208 168.482 958.193 167.167C961.177 165.852 963.77 163.785 965.718 161.17C967.666 158.554 968.903 155.477 969.307 152.241C969.712 149.005 969.271 145.719 968.027 142.704C965.037 135.377 960.205 127.094 952.565 118.246Z" fill="#346F93"/>
<path d="M864.244 111.511C862.158 112.38 860.08 113.205 858.073 114.04C852.33 116.424 847.451 120.502 844.086 125.731C840.721 130.959 839.03 137.089 839.238 143.304C839.607 154.563 840.728 165.786 842.593 176.896C843.532 182.45 844.627 187.951 845.818 193.41C852.929 189.003 860.381 185.173 868.102 181.954C864.165 164.467 860.411 146.945 857.412 129.284C862.201 126.208 876.29 120.923 878.202 120.454C881.287 138.61 885.425 156.558 889.57 174.515L890.387 174.28C899.318 171.823 908.424 170.059 917.626 169.004C913.654 155.611 909.691 142.2 904.754 129.215C903.293 125.365 901.078 121.846 898.239 118.863C895.4 115.88 891.994 113.495 888.221 111.846C884.448 110.197 880.383 109.318 876.266 109.26C872.149 109.203 868.061 109.968 864.244 111.511Z" fill="#468CAF"/>
<path d="M874.342 118.107C846.895 125.616 826.392 143.503 820.917 165.04C819.778 169.551 820.699 175.601 824.549 179.199C827.635 182.076 832.937 179.147 837.117 176.374C847.434 169.551 863.122 161.373 885.189 155.332C901.673 150.82 918.745 148.828 935.825 149.422C940.936 149.613 946.646 149.048 947.993 144.946C949.61 140.001 946.968 134.516 943.787 131.361C928.394 115.925 901.868 110.537 874.342 118.107Z" fill="#1F4060"/>
<path d="M875.586 122.618C848.138 130.127 827.635 148.014 822.16 169.551C819.787 178.921 830.304 186.221 838.36 180.85C848.677 174.027 864.365 165.849 886.433 159.808C902.917 155.296 919.988 153.304 937.069 153.898C946.681 154.255 951.844 142.599 945.021 135.837C929.681 120.471 903.077 115.082 875.586 122.618Z" fill="#121A26"/>
<path d="M843.792 158.957C846.243 157.558 848.911 156.184 851.736 154.881C854.222 153.733 856.655 152.725 859.01 151.847C859.01 151.847 859.01 151.847 859.01 151.787C857.368 148.214 852.614 146.893 848.398 148.831C844.183 150.77 842.097 155.254 843.748 158.827C843.74 158.896 843.774 158.957 843.792 158.957Z" fill="#43E0BB"/>
<path d="M918.434 138.549C915.61 138.549 912.62 138.758 909.517 139.08C906.805 139.358 904.189 139.731 901.695 140.175C901.695 140.175 901.695 140.131 901.695 140.114C901.295 136.194 904.711 132.639 909.334 132.161C913.958 131.683 918.026 134.482 918.426 138.393L918.434 138.549Z" fill="#43E0BB"/>
<path d="M1068.25 440.697C1068.25 447.867 1049.87 453.673 1027.22 453.673C1004.56 453.673 986.175 447.867 986.175 440.697V429.598C986.175 429.598 1011.15 427.721 1027.22 427.721C1043.67 427.721 1068.25 429.598 1068.25 429.598V440.697Z" fill="#1F4060"/>
<path d="M1003.56 428.503C998.977 428.746 994.866 429.007 991.737 429.215C991.737 433.509 991.867 445.964 991.876 447.293C995.291 449 998.905 450.273 1002.64 451.083C1002.8 447.511 1003.25 432.475 1003.56 428.503Z" fill="#346F93"/>
<path d="M1062.97 429.259C1060.86 429.12 1058.24 428.955 1055.31 428.781C1055.39 433.605 1055.23 438.446 1055.24 443.261C1055.24 445.564 1055.3 447.867 1055.37 450.162C1058.13 449.387 1060.78 448.296 1063.29 446.911C1063.02 441.001 1063.07 435.065 1062.97 429.259Z" fill="#346F93"/>
<path d="M1025.7 427.73C1022.61 427.73 1019.26 427.834 1015.85 427.947C1015.76 436.369 1015.85 444.765 1015.99 453.152C1018.89 453.413 1021.93 453.569 1025.06 453.621C1024.77 445.017 1025.41 436.213 1025.7 427.73Z" fill="#346F93"/>
<path d="M1027.22 442.574C1049.88 442.574 1068.25 436.765 1068.25 429.598C1068.25 422.431 1049.88 416.622 1027.22 416.622C1004.55 416.622 986.184 422.431 986.184 429.598C986.184 436.765 1004.55 442.574 1027.22 442.574Z" fill="#468CAF"/>
<path d="M1027.9 436.116C1044.8 436.116 1058.5 432.139 1058.5 427.234C1058.5 422.328 1044.8 418.351 1027.9 418.351C1011 418.351 997.3 422.328 997.3 427.234C997.3 432.139 1011 436.116 1027.9 436.116Z" fill="#121A26"/>
<path d="M1054.84 406.166C1055.25 405.778 1055.58 405.307 1055.8 404.782C1056.03 404.258 1056.13 403.693 1056.12 403.124C1056.04 398.283 1055.9 393.025 1055.62 387.601C1055.52 386.958 1055.62 384.586 1055.52 383.925C1055.36 382.526 1054.71 382.7 1053.53 381.796C1054 381.366 1054.38 380.839 1054.62 380.25C1054.87 379.661 1054.98 379.026 1054.95 378.389C1054.31 370.245 1053.34 360.041 1051.85 352.671C1051.77 352.549 1047.84 352.566 1047.87 352.566C1051.34 350.116 1050.4 348.516 1049.73 346.213C1049.3 344.753 1048.86 343.345 1048.35 342.015C1046.91 338.042 1045.16 334.184 1043.14 330.473C1042.5 329.421 1040.75 327.866 1035.23 328.022C1036.37 327.642 1037.59 327.514 1038.79 327.646C1039.99 327.778 1041.15 328.167 1042.18 328.787C1032.2 311.752 1016.27 300.566 993.51 300.566C971.782 300.566 954.312 317.679 954.312 346.908C954.312 351.141 958.371 363.474 975.284 363.474C987.852 363.474 992.415 359.893 992.415 359.893C992.415 359.893 992.554 360.18 992.789 360.762C993.079 361.413 993.525 361.983 994.087 362.421C994.65 362.859 995.311 363.152 996.014 363.274L998.021 363.605C998.942 363.77 995.483 366.464 995.553 366.812C997.028 371.395 998.204 376.069 999.073 380.805C999.209 381.534 999.517 382.221 999.97 382.809C1000.42 383.397 1001.01 383.869 1001.68 384.186H1001.73C1001.23 384.388 1000.8 384.722 1000.47 385.152C1000.14 385.582 999.941 386.092 999.881 386.628C999.994 387.949 1000.1 389.74 1000.1 391.043V402.594C1000.1 403.541 1000.37 404.468 1000.89 405.262L1000.07 408.209V425.757C1000.07 430.354 1014.67 432.988 1029.9 432.988C1045.48 432.988 1056.07 428.712 1056.07 425.757C1056.07 422.55 1056.07 416.196 1056.07 408.478C1055.76 407.657 1055.35 406.88 1054.84 406.166Z" fill="#2C5777"/>
<path d="M1030.12 383.004C1030.21 386.776 1030.21 390.548 1030.18 394.302C1030.17 395.428 1030.39 396.544 1030.83 397.581C1031.27 398.618 1031.91 399.554 1032.73 400.332C1033.54 401.109 1034.51 401.711 1035.57 402.1C1036.62 402.489 1037.75 402.657 1038.87 402.594H1039.13C1041.29 402.473 1043.31 401.506 1044.76 399.904C1046.22 398.302 1046.98 396.193 1046.88 394.033C1046.66 389.131 1046.37 384.229 1046.08 379.327C1045.8 374.425 1045.55 370.827 1045.1 366.012C1044.61 361.38 1043.74 356.796 1042.5 352.306C1041.53 348.647 1040.41 344.483 1038.34 342.441C1036.27 340.398 1033.81 339.069 1030.35 339.833C1027.75 340.398 1026.42 342.441 1026.07 345.709C1025.76 348.551 1026.12 350.924 1026.62 354.974C1027.66 363.561 1029.87 373.634 1030.12 383.004Z" fill="#346F93"/>
<path d="M1036.39 320.4C1026.42 308.153 1012.29 300.522 993.476 300.522C971.747 300.522 954.278 317.636 954.278 346.865C954.278 350.411 957.146 359.667 968.062 362.509C968.531 360.45 970.191 352.949 975.511 349.525C982.142 345.24 987.392 348.482 990.13 353.357C990.633 354.246 991.052 355.18 991.381 356.147C991.642 356.773 992.676 360.493 992.754 360.641C993.045 361.292 993.49 361.861 994.053 362.299C994.615 362.737 995.277 363.03 995.979 363.153L997.987 363.483C998.908 363.648 995.449 366.342 995.518 366.69C996.993 371.273 998.169 375.947 999.038 380.683C999.175 381.413 999.482 382.1 999.935 382.687C1000.39 383.275 1000.97 383.747 1001.65 384.064H1001.7C1001.2 384.266 1000.76 384.6 1000.44 385.03C1000.11 385.46 999.906 385.97 999.846 386.506C999.959 387.828 1000.06 389.618 1000.06 390.922V402.473C1000.07 403.42 1000.34 404.346 1000.85 405.141L1000.04 408.087V425.635C1000.04 429.112 1008.22 431.415 1018.71 432.38C1018.79 426.061 1019.01 419.734 1018.71 413.467C1018 398.44 1017.19 382.587 1013.59 367.942C1010.28 354.496 1006.49 339.825 1015.86 327.813C1021.68 320.53 1029.08 318.766 1036.39 320.4Z" fill="#1F4060"/>
<path d="M982.333 335.236C989.929 334.167 991.894 324.233 998.977 318.974C1008.89 311.604 1016.9 309.622 1028.08 312.117C1019.02 304.825 1007.57 300.522 993.475 300.522C990.503 300.52 987.54 300.858 984.645 301.531C979.83 306.577 976.736 313.018 975.806 319.93C974.337 330.308 979.769 335.592 982.333 335.236Z" fill="#192F44"/>
<path d="M1054.84 406.166C1045.62 413.815 1009.34 413.224 1000.95 405.21C1000.61 406.056 1000.35 406.928 1000.16 407.818C999.977 409.208 1000.76 410.086 1001.98 410.782C1008.42 414.475 1019.36 415.996 1029.52 415.996C1038.79 415.996 1047.3 414.397 1053.35 411.651C1055.54 410.651 1056.68 409.174 1055.85 407.435C1055.58 406.959 1055.24 406.53 1054.84 406.166Z" fill="#121A26"/>
<path d="M1055.43 383.439C1055.21 382.491 1053.78 381.579 1053.5 381.796C1049.54 384.829 1040.81 387.011 1029.29 387.706C1017.78 388.401 1008.14 387.854 1001.72 384.134C1001.72 384.134 1000.11 384.36 999.829 385.733C999.551 387.106 1001.51 388.28 1002.89 388.888C1007.99 391.156 1016.62 391.86 1022.76 391.86C1025.67 391.86 1028.08 391.756 1029.58 391.669C1037.75 391.174 1045.85 389.731 1052.18 387.08C1053.51 386.524 1055.65 385.177 1055.5 383.734C1055.48 383.634 1055.46 383.536 1055.43 383.439Z" fill="#121A26"/>
<path d="M1049.94 350.541C1045.23 355.843 1035.85 358.694 1026.08 361.067C1014.84 363.804 1004.55 364.169 997.987 363.526C997.184 363.811 996.468 364.299 995.909 364.943C995.084 365.96 995.336 367.09 996.396 367.272C998.205 367.576 1000.04 367.71 1001.87 367.672C1011.55 367.672 1020.18 366.733 1027.2 364.865C1037.52 362.127 1047.68 358.868 1051.17 354.583C1053.05 352.271 1050.33 350.089 1049.94 350.541Z" fill="#121A26"/>
<path d="M992.085 358.181C992.085 358.181 990.399 353.34 991.972 349.889C995.535 342.067 1003.94 334.384 1011.54 330.499C1020.71 325.805 1027.64 324.267 1035.65 325.171C1040.49 325.718 1042.17 328.743 1042.17 328.743C1042.35 329.032 1042.46 329.359 1042.49 329.699C1041.38 328.98 1040.09 328.578 1038.76 328.534C1020.68 326.64 993.354 344.222 992.085 358.181Z" fill="#121A26"/>
<path d="M991.911 356.608C988.834 356.121 975.397 338.443 986.166 317.644C989.391 311.43 996.361 306.346 1002.68 304.807C1006.14 303.974 1009.73 303.871 1013.24 304.504C1016.74 305.137 1020.07 306.492 1023.02 308.484C1022.96 308.484 1019.85 305.876 1011.72 306.224C1000.88 306.693 992.971 314.046 989.564 320.53C980.873 337.131 988.947 353.514 991.929 355L991.911 356.608Z" fill="#121A26"/>
<path d="M980.847 355.313C970.713 352.783 964.159 344.014 962.343 336.635C956.05 311.073 976.953 304.355 976.953 304.355C973.316 306.223 970.322 309.139 968.357 312.725C963.473 321.268 964.707 334.679 969.505 342.441C971.821 346.2 975.014 349.341 978.81 351.595C982.607 353.849 986.893 355.148 991.302 355.382L991.911 356.651C991.824 356.616 987.757 357.042 980.847 355.313Z" fill="#121A26"/>
<path d="M1063.21 243.594C1070.38 243.811 1075.63 262.35 1074.94 285C1074.25 307.649 1067.89 325.849 1060.73 325.623L1049.63 325.293C1049.63 325.293 1048.52 300.262 1049 284.217C1049.5 267.764 1052.12 243.255 1052.12 243.255L1063.21 243.594Z" fill="#1F4060"/>
<path d="M1049.07 307.892C1049.17 312.473 1049.3 316.627 1049.41 319.721L1067.48 320.138C1069.3 316.776 1070.68 313.199 1071.6 309.492C1068.06 309.213 1053.03 308.31 1049.07 307.892Z" fill="#346F93"/>
<path d="M1051.59 248.522C1051.39 250.617 1051.13 253.233 1050.87 256.162C1055.7 256.231 1060.54 256.535 1065.34 256.675C1067.65 256.735 1069.95 256.753 1072.25 256.753C1071.56 253.971 1070.55 251.279 1069.24 248.731C1063.35 248.817 1057.44 248.6 1051.59 248.522Z" fill="#346F93"/>
<path d="M1048.96 285.729C1048.89 288.815 1048.87 292.161 1048.88 295.585C1057.29 295.924 1065.69 296.081 1074.09 296.211C1074.44 293.308 1074.69 290.275 1074.84 287.146C1066.21 287.181 1057.44 286.277 1048.96 285.729Z" fill="#346F93"/>
<path d="M1063.93 284.709C1064.62 262.058 1059.37 243.52 1052.21 243.302C1045.04 243.084 1038.68 261.27 1037.99 283.921C1037.3 306.572 1042.55 325.111 1049.71 325.328C1056.88 325.546 1063.24 307.36 1063.93 284.709Z" fill="#468CAF"/>
<path d="M1057.5 283.813C1058.01 266.92 1054.45 253.104 1049.55 252.955C1044.65 252.806 1040.25 266.38 1039.74 283.274C1039.23 300.167 1042.79 313.983 1047.69 314.132C1052.59 314.28 1056.99 300.706 1057.5 283.813Z" fill="#121A26"/>
<path d="M1046.39 255.527C1039.44 255.527 1030.65 254.988 1021.78 254.492C1021.46 254.492 1021.13 254.591 1020.86 254.775C1020.59 254.96 1020.38 255.222 1020.26 255.527C1019.63 255.042 1018.91 254.679 1018.15 254.458C1009.85 253.675 991.815 253.18 986.653 255.327C985.659 255.421 984.657 255.288 983.724 254.936C974.276 256.17 956.554 260.151 950.036 264.557C948.515 265.583 946.916 264.696 945.534 265.079C935.869 269.972 924.674 276.751 916.617 283.626C915.417 284.613 914.384 285.787 913.558 287.102C912.159 288.493 909.551 289.38 909.212 289.71C902.337 296.482 896.147 303.918 890.734 311.908C890.021 312.974 889.552 314.185 889.361 315.454C889.363 315.477 889.363 315.5 889.361 315.523C888.231 317.514 887.484 316.853 886.163 318.722C882.036 325.958 878.546 333.539 875.733 341.38C875.286 342.676 875.086 344.044 875.142 345.413C875.142 345.526 875.142 345.639 875.142 345.761C875.142 345.882 873.352 348.551 872.778 349.768C871.984 353.46 871.404 357.194 871.04 360.953C870.701 363.561 869.354 372.504 873.699 378.136C882.452 389.435 904.902 386.975 918.26 379.075C920.823 377.578 923.164 375.729 925.213 373.582C927.348 371.354 928.71 368.499 929.098 365.438C929.159 364.882 929.237 364.326 929.324 363.778C929.324 363.526 929.324 363.274 929.324 363.039C929.406 362.302 929.332 361.556 929.107 360.849C929.095 360.836 929.088 360.819 929.088 360.801C929.088 360.783 929.095 360.766 929.107 360.753C929.552 360.266 929.932 359.722 930.237 359.137C931.015 356.084 932.068 353.108 933.383 350.245L933.435 350.089C933.696 349.072 933.879 348.029 934.096 347.004H934.148C934.765 346.352 935.443 345.822 936.034 345.152C938.523 340.935 941.464 337.001 944.804 333.419C945.054 332.636 945.528 331.944 946.168 331.429C946.716 331.098 947.237 330.742 947.759 330.368C952.251 326.043 957.186 322.204 962.482 318.913C963.421 317.983 963.846 316.784 965.289 316.54C966.164 316.383 967.019 316.126 967.836 315.775C970.316 314.437 972.816 313.226 975.337 312.142C978.834 310.619 982.446 309.375 986.14 308.422H985.471C985.461 308.418 985.453 308.412 985.448 308.403C985.442 308.395 985.439 308.385 985.439 308.375C985.439 308.365 985.442 308.355 985.448 308.346C985.453 308.338 985.461 308.331 985.471 308.327C986.893 308.246 988.23 307.624 989.208 306.589C989.301 306.497 989.425 306.446 989.556 306.446C989.686 306.446 989.811 306.497 989.903 306.589C990.198 306.844 990.546 307.032 990.921 307.138C991.297 307.245 991.691 307.268 992.076 307.206C999.551 306.015 1007.63 306.006 1018.15 306.71C1018.88 306.56 1019.61 306.368 1020.32 306.137C1020.55 306.023 1020.8 305.958 1021.05 305.945C1021.3 305.931 1021.55 305.97 1021.79 306.058C1021.89 306.096 1021.98 306.145 1022.07 306.206C1022.89 306.757 1023.83 307.105 1024.81 307.223C1028.05 307.501 1037.47 308.344 1043.79 308.744C1045.39 308.845 1046.98 308.377 1048.27 307.423C1049.56 306.469 1050.47 305.09 1050.84 303.529C1054.75 287.207 1054.48 255.527 1046.39 255.527Z" fill="#2C5777"/>
<path d="M1053.3 277.689C1051.96 282.322 1047.76 283.904 1043.93 284.643C1031.08 286.998 1002 280.601 975.024 289.127C956.772 294.881 924.388 308.248 908.769 347.273C904.815 357.146 899.392 369.584 887.371 371.365C879.462 372.539 872.491 367.619 870.692 364.047C870.388 367.932 870.458 373.955 873.7 378.162C882.452 389.461 904.902 387.001 918.261 379.101C921.101 377.445 923.662 375.351 925.848 372.895C927.66 370.807 928.789 368.213 929.081 365.464C929.142 364.908 929.22 364.351 929.307 363.804C929.307 363.552 929.307 363.3 929.307 363.065C929.389 362.328 929.315 361.582 929.09 360.875C929.078 360.862 929.071 360.845 929.071 360.827C929.071 360.809 929.078 360.792 929.09 360.779C929.535 360.291 929.915 359.748 930.22 359.163C930.998 356.11 932.051 353.134 933.366 350.271L933.418 350.115C933.679 349.098 933.862 348.055 934.079 347.029H934.131C934.748 346.378 935.426 345.847 936.017 345.178C938.506 340.961 941.447 337.026 944.786 333.445C945.037 332.662 945.511 331.97 946.151 331.454C946.699 331.124 947.22 330.768 947.742 330.394C952.234 326.069 957.168 322.23 962.465 318.939C963.404 318.009 963.829 316.809 965.272 316.566C966.147 316.409 967.002 316.152 967.819 315.801C970.299 314.463 972.799 313.252 975.319 312.168C978.817 310.645 982.429 309.401 986.123 308.448H985.454C985.444 308.444 985.436 308.438 985.431 308.429C985.425 308.421 985.422 308.411 985.422 308.4C985.422 308.39 985.425 308.38 985.431 308.372C985.436 308.363 985.444 308.357 985.454 308.353C986.876 308.271 988.213 307.65 989.191 306.614C989.284 306.523 989.409 306.472 989.539 306.472C989.669 306.472 989.794 306.523 989.886 306.614C990.181 306.87 990.529 307.058 990.904 307.164C991.28 307.271 991.674 307.294 992.059 307.231C999.534 306.041 1007.61 306.032 1018.13 306.736C1018.87 306.586 1019.59 306.394 1020.31 306.162C1020.53 306.049 1020.78 305.984 1021.03 305.97C1021.29 305.957 1021.54 305.996 1021.77 306.084C1021.92 306.141 1022.05 306.217 1022.17 306.31C1022.9 306.833 1023.76 307.151 1024.65 307.231C1028.01 307.527 1038.1 308.422 1044.55 308.796C1046.04 308.884 1047.52 308.454 1048.73 307.578C1049.94 306.702 1050.81 305.435 1051.2 303.99C1053.39 295.941 1053.6 284.443 1053.3 277.689Z" fill="#1F4060"/>
<path d="M926.943 294.308C925.205 291.805 921.433 293.1 916.061 296.915C911.394 300.461 913.15 298.879 908.491 304.059C904.377 308.511 900.693 313.342 897.488 318.487C893.724 324.38 890.143 330.012 888.423 336.887C887.284 341.45 887.623 344.587 889.683 346.647C891.743 348.707 894.706 346.647 896.193 344.831C898.8 341.719 901.712 334.731 904.58 330.055C908.926 323.041 913.871 315.28 919.399 309.196C921.467 306.902 920.746 307.275 923.744 303.981C925.448 302.191 928.942 297.245 926.943 294.308Z" fill="#346F93"/>
<path d="M967.714 275.717C975.536 275.378 981.438 274.239 990.537 273.561C998.989 272.933 1007.47 272.86 1015.93 273.344C1021.68 273.674 1028.21 274.413 1031.26 273.553C1032.1 273.306 1032.86 272.828 1033.44 272.174C1034.03 271.52 1034.42 270.715 1034.58 269.85C1034.92 267.973 1034.67 265.713 1033.31 264.357C1028.35 259.394 999.142 259.455 983.011 261.88C977.118 262.749 970.399 263.236 965.35 266.53C961.465 269.059 963.351 275.908 967.714 275.717Z" fill="#346F93"/>
<path d="M929.316 360.493C922.484 365.455 910.838 367.446 904.293 367.402C891.187 367.289 875.811 360.945 875.107 345.752C874.132 346.449 873.419 347.453 873.082 348.603C873.021 348.75 872.969 348.916 872.917 349.081C872.469 350.642 872.38 352.284 872.657 353.884C872.934 355.484 873.57 357 874.516 358.32C880.54 367.011 892.212 371.166 903.441 371.166C921.815 371.166 928.403 364.134 929.333 363.169C930.698 361.64 929.455 360.345 929.316 360.493Z" fill="#121A26"/>
<path d="M934.478 346.639C926.83 349.889 916.487 347.934 909.412 344.822C897.366 339.52 888.553 328.839 889.309 315.515C889.309 315.289 887.623 315.949 886.701 317.775C886.206 318.765 885.945 321.599 886.336 324.728C887.814 336.226 897.148 344.388 908.421 348.577C922.206 353.705 931.662 350.585 931.784 350.558C933.661 350.159 934.687 349.333 934.53 347.421C934.478 346.639 934.443 346.691 934.478 346.639Z" fill="#121A26"/>
<path d="M945.968 331.533C944.158 331.442 942.359 331.201 940.588 330.812C934.788 329.591 929.307 327.176 924.492 323.719C912.02 314.785 907.77 296.472 913.558 287.129C912.364 287.491 911.226 288.018 910.177 288.693C910.116 288.693 910.056 288.797 909.986 288.858C908.371 290.363 907.413 292.442 907.318 294.647C905.979 307.336 910.907 319.165 922.328 327.292C927.308 330.846 936.356 334.166 943.865 334.166C944.908 334.184 945.968 333.767 945.968 331.533Z" fill="#121A26"/>
<path d="M965.003 316.575C957.867 313.551 950.097 305.407 947.237 299.905C940.701 287.303 938.659 271.884 950.036 264.583C948.294 264.276 946.5 264.583 944.96 265.453C942.353 267.191 940.154 268.547 938.963 271.441C934.748 281.688 938.859 294.247 944.578 303.199C948.246 308.936 954.738 315.75 961.961 318.574C963.577 319.009 965.003 318.07 965.003 316.575Z" fill="#121A26"/>
<path d="M988.687 307.892C989.018 307.837 989.321 307.671 989.546 307.421C989.772 307.172 989.907 306.854 989.93 306.519C985.888 302.478 981.907 295.742 980.021 286.199C978.187 276.899 980.021 259.334 986.653 255.353C986.008 255.119 985.331 254.987 984.645 254.962H984.575C983.432 254.959 982.309 255.272 981.331 255.865C980.353 256.459 979.557 257.31 979.03 258.325C974.511 267.165 974.441 276.847 976.084 286.199C977.292 293.108 980.786 300.913 984.932 305.502C987.305 308.136 988.669 307.901 988.687 307.892Z" fill="#121A26"/>
<path d="M1022.17 306.206C1016.54 291.926 1016.14 276.316 1020.26 255.526C1020.26 255.526 1019.6 255.048 1019.24 254.814C1017.69 253.858 1016.53 255.231 1016.14 256.439C1011.68 270.223 1013.21 292.074 1017.09 301.877C1017.96 304.094 1019.17 307.145 1021.54 306.953C1021.89 306.901 1022.14 306.188 1022.17 306.206Z" fill="#121A26"/>
<path d="M802.725 102.651L801.317 94.4635C800.657 90.6269 798.796 87.0991 796.001 84.3889C793.207 81.6786 789.623 79.9261 785.768 79.3839C785.279 79.3196 784.83 79.0795 784.505 78.7085C784.179 78.3376 784 77.861 784 77.3675C784 76.8741 784.179 76.3975 784.505 76.0265C784.83 75.6555 785.279 75.4155 785.768 75.3511C789.624 74.8072 793.208 73.0529 796.002 70.3412C798.797 67.6295 800.658 64.1005 801.317 60.2629L802.725 52.0755C802.775 51.775 802.93 51.502 803.162 51.3051C803.395 51.1081 803.69 51 803.994 51C804.299 51 804.594 51.1081 804.826 51.3051C805.058 51.502 805.213 51.775 805.263 52.0755L806.671 60.0542C807.336 63.8121 809.154 67.2699 811.874 69.9472C814.593 72.6246 818.079 74.3888 821.846 74.9947C822.409 75.0853 822.922 75.3734 823.291 75.8074C823.661 76.2414 823.864 76.793 823.864 77.3632C823.864 77.9334 823.661 78.4849 823.291 78.9189C822.922 79.3529 822.409 79.641 821.846 79.7316C818.077 80.3381 814.591 82.1035 811.871 84.7826C809.152 87.4616 807.334 90.9213 806.671 94.6808L805.263 102.66C805.212 102.96 805.056 103.232 804.823 103.428C804.59 103.625 804.295 103.732 803.991 103.731C803.686 103.73 803.392 103.621 803.16 103.423C802.928 103.225 802.774 102.951 802.725 102.651Z" fill="#FFAA00"/>
<path d="M883.338 67.2886L882.043 59.7879C881.439 56.2724 879.734 53.0396 877.174 50.5558C874.613 48.0721 871.33 46.4658 867.798 45.9686C867.357 45.9007 866.954 45.6772 866.664 45.3384C866.373 44.9996 866.213 44.568 866.213 44.1216C866.213 43.6753 866.373 43.2436 866.664 42.9049C866.954 42.5661 867.357 42.3426 867.798 42.2747C871.328 41.7776 874.609 40.1722 877.167 37.69C879.726 35.2079 881.43 31.9773 882.034 28.4641L883.329 20.9721C883.377 20.6999 883.519 20.4532 883.73 20.2753C883.942 20.0975 884.209 20 884.485 20C884.762 20 885.029 20.0975 885.241 20.2753C885.452 20.4532 885.594 20.6999 885.641 20.9721L886.936 28.2816C887.547 31.7234 889.214 34.8897 891.706 37.3411C894.198 39.7925 897.391 41.4075 900.843 41.9618C901.361 42.0424 901.834 42.3057 902.175 42.7041C902.516 43.1026 902.704 43.61 902.704 44.1347C902.704 44.6594 902.516 45.1668 902.175 45.5652C901.834 45.9637 901.361 46.227 900.843 46.3075C897.39 46.8624 894.196 48.4787 891.704 50.9318C889.212 53.3849 887.546 56.5531 886.936 59.9965L885.641 67.2972C885.588 67.5642 885.444 67.8043 885.233 67.9766C885.022 68.1489 884.758 68.2425 884.486 68.2415C884.214 68.2405 883.951 68.1448 883.741 67.971C883.532 67.7971 883.389 67.5559 883.338 67.2886Z" fill="#FFAA00"/>
<path d="M961.117 82.9853L960.144 77.3445C959.697 74.6918 958.416 72.2506 956.488 70.3751C954.559 68.4997 952.083 67.2876 949.419 66.9149C949.088 66.8624 948.786 66.6935 948.569 66.4386C948.351 66.1837 948.231 65.8595 948.231 65.5243C948.231 65.1891 948.351 64.8648 948.569 64.6099C948.786 64.355 949.088 64.1862 949.419 64.1337C952.082 63.7583 954.557 62.5454 956.485 60.6704C958.413 58.7954 959.695 56.3556 960.144 53.704L961.117 48.0632C961.117 47.8327 961.209 47.6117 961.372 47.4487C961.535 47.2857 961.756 47.1941 961.987 47.1941C962.217 47.1941 962.438 47.2857 962.601 47.4487C962.764 47.6117 962.856 47.8327 962.856 48.0632L963.821 53.5649C964.278 56.1506 965.527 58.5305 967.395 60.3756C969.264 62.2206 971.659 63.4397 974.25 63.8642C974.637 63.9276 974.988 64.1262 975.242 64.4247C975.495 64.7232 975.635 65.1022 975.635 65.4939C975.635 65.8855 975.495 66.2645 975.242 66.563C974.988 66.8615 974.637 67.0602 974.25 67.1235C971.658 67.5498 969.263 68.7705 967.394 70.617C965.526 72.4635 964.277 74.8447 963.821 77.4315L962.856 82.9331C962.863 83.1637 962.778 83.3875 962.62 83.5553C962.462 83.7232 962.243 83.8214 962.013 83.8283C961.782 83.8352 961.558 83.7503 961.391 83.5922C961.223 83.4341 961.124 83.2158 961.117 82.9853Z" fill="#FFAA00"/>
<path d="M823.585 269.172C822.438 256.604 818.057 246.931 810.252 239.621C808.566 238.552 807.48 240.994 806.272 238.257C805.924 237.457 804.916 235.197 802.943 234.154C800.474 232.659 793.521 230.374 786.916 228.826C785.882 228.826 784.569 229.643 783.439 229.696C782.458 228.789 781.3 228.095 780.037 227.657C778.775 227.219 777.436 227.046 776.104 227.149C775.539 227.149 774.965 227.149 774.366 227.149C771.046 227.219 764.162 227.54 761.137 227.957C760.617 228.186 760.155 228.528 759.783 228.958C759.412 229.388 759.141 229.895 758.991 230.443C756.687 229.67 755.584 229.774 754.81 229.956C748.507 231.847 742.397 234.327 736.558 237.361C735.098 238.743 734.411 241.351 734.281 241.368C734.15 241.385 731.413 241.446 730.135 242.342C725.344 246.018 720.928 250.158 716.95 254.701C716.324 255.865 717.141 255.935 716.863 257.178C716.698 257.943 717.055 258.69 716.351 258.994C715.632 259.301 714.952 259.692 714.325 260.159C714.132 260.302 713.946 260.456 713.769 260.62C709.241 269.954 715.812 274.526 726.737 282.409C737.923 290.527 746.77 290.709 752.063 286.572C752.437 285.218 752.555 283.806 752.411 282.409C752.35 281.757 753.106 281.54 753.584 281.74C754.688 282.226 754.523 281.922 755.549 281.974C756.279 281.531 758.269 280.054 759.686 279.054C760.476 278.495 761.04 277.672 761.276 276.733C761.456 276.02 761.575 275.294 761.633 274.561C761.633 274.161 762.085 274.291 762.284 274.613C762.902 275.603 763.023 276.142 763.275 276.134C766.257 274.795 770.646 273.083 771.463 271.849C771.636 271.588 772.071 272.318 772.28 272.544L772.34 272.605C772.914 273.196 772.036 273.665 772.819 273.996C773.114 274.117 778.737 274.265 779.389 274.265C780.143 274.222 780.864 273.942 781.449 273.465C782.127 272.926 782.756 272.327 783.326 271.675C783.326 271.675 783.509 271.571 783.535 271.545C783.561 271.519 783.266 273.283 784.404 273.9C785.317 274.004 791.496 275.438 792.009 275.56C792.959 275.809 793.959 275.8 794.904 275.534C795.85 275.268 796.708 274.755 797.389 274.048C797.598 273.813 797.824 273.552 798.067 273.248C798.128 273.135 796.824 275.916 797.354 276.255C799.779 277.368 805.403 281.01 807.41 282.339C808.514 283.043 809.965 283.487 811.252 282.496C811.252 282.496 811.321 282.496 811.365 282.574V282.644C811.452 282.683 811.524 282.751 811.568 282.836C811.612 282.921 811.626 283.019 811.608 283.113C811.608 283.113 811.608 283.113 811.608 283.165C811.608 283.217 811.608 283.165 811.608 283.208C812.025 284.225 811.304 284.078 811.4 284.191C811.921 284.947 819.622 292.23 820.612 293.065C820.612 293.021 825.236 287.293 823.585 269.172Z" fill="#346F93"/>
<path d="M782.657 237.457C782.657 237.371 782.614 237.292 782.588 237.214C782.103 235.469 781.017 233.951 779.523 232.929C778.028 231.906 776.22 231.445 774.418 231.626C772.871 231.765 771.385 231.93 770.02 232.06C760.894 232.929 750.647 234.737 742.694 239.526C739.946 241.153 737.39 243.083 735.072 245.28C734.182 246.129 733.654 247.288 733.598 248.517C733.541 249.746 733.96 250.949 734.768 251.877C735.406 252.567 736.189 253.11 737.06 253.465C737.931 253.821 738.869 253.982 739.809 253.936C743.902 253.936 747.805 250.555 751.055 248.504C756.679 244.949 763.023 243.707 769.568 243.289C770.437 243.229 771.245 243.194 772.08 243.159C774.057 242.972 776.047 242.972 778.025 243.159C778.738 243.191 779.449 243.055 780.101 242.763C780.752 242.47 781.326 242.029 781.777 241.475C782.227 240.92 782.541 240.268 782.694 239.571C782.847 238.873 782.835 238.149 782.657 237.457Z" fill="#468CAF"/>
<path d="M823.585 269.172C822.716 259.307 819.787 251.233 814.807 244.688C815.557 246.862 815.618 249.215 814.98 251.424C814.98 251.424 817.049 245.558 814.98 251.424C812.912 257.291 803.404 258.908 794.165 258.195C787.673 257.587 781.146 257.451 774.635 257.786C771.671 257.951 765.022 258.951 762.137 259.525C759.497 260.808 757.065 262.481 754.923 264.487C747.605 271.328 742.642 279.776 737.271 288.076C743.52 290.162 748.57 289.345 752.046 286.616C752.42 285.262 752.538 283.85 752.394 282.453C752.333 281.801 753.089 281.583 753.567 281.783C754.671 282.27 754.506 281.966 755.531 282.018C756.261 281.575 758.252 280.097 759.668 279.098C760.458 278.538 761.022 277.716 761.259 276.777C761.439 276.064 761.558 275.337 761.615 274.604C761.615 274.204 762.067 274.335 762.267 274.656C762.884 275.647 763.006 276.186 763.258 276.177C766.239 274.839 770.628 273.127 771.445 271.892C771.619 271.632 772.053 272.362 772.262 272.588L772.323 272.649C772.897 273.24 772.019 273.709 772.801 274.039C773.097 274.161 778.72 274.309 779.372 274.309C780.126 274.266 780.846 273.986 781.432 273.509C782.11 272.97 782.738 272.37 783.309 271.719C783.309 271.719 783.492 271.614 783.518 271.588C783.544 271.562 783.248 273.327 784.387 273.944C785.299 274.048 791.479 275.482 791.992 275.604C792.942 275.852 793.941 275.843 794.887 275.578C795.832 275.312 796.69 274.799 797.372 274.091C797.58 273.857 797.806 273.596 798.05 273.292C798.11 273.179 796.807 275.96 797.337 276.299C799.762 277.412 805.385 281.053 807.393 282.383C808.497 283.087 809.948 283.53 811.234 282.539C811.234 282.539 811.304 282.54 811.347 282.618V282.687C811.435 282.727 811.507 282.794 811.551 282.88C811.595 282.965 811.609 283.062 811.591 283.157C811.591 283.157 811.591 283.157 811.591 283.209C811.591 283.261 811.591 283.209 811.591 283.252C812.008 284.269 811.286 284.121 811.382 284.234C811.904 284.99 819.604 292.274 820.595 293.108C820.612 293.021 825.236 287.294 823.585 269.172Z" fill="#2C5777"/>
<path d="M823.958 268.269C823.73 266.094 823.376 263.935 822.898 261.802C822.246 269.876 816.492 278.62 811.251 282.453C811.048 282.894 811.005 283.392 811.13 283.861C811.825 285.304 814.902 282.922 816.032 281.792C820.134 277.69 822.872 274.326 824.08 270.433C823.941 269.042 824.071 269.659 823.958 268.269Z" fill="#121A26"/>
<path d="M809.183 238.917C808.298 238.47 807.315 238.252 806.324 238.283C807.144 240.222 807.672 242.272 807.888 244.367C808.923 253.762 805.907 264.018 797.372 274.057C797.424 274.057 796.503 275.343 797.372 276.229C798.241 277.116 800.761 274.874 802.196 273.283C810.409 264.157 812.312 255.127 811.504 244.315C811.295 241.803 810.922 239.786 809.183 238.917Z" fill="#121A26"/>
<path d="M790.202 231.591C788.463 229.044 786.612 228.114 784.344 229.096C784.013 229.237 783.717 229.448 783.475 229.713C788.194 234.059 790.871 241.603 791.218 250.573C791.531 258.508 788.411 266.747 783.396 271.684C783.544 273.318 784.013 274.439 785.248 273.674C791.193 269.989 795.391 258.16 795.278 249.834C795.112 242.568 793.391 236.249 790.202 231.591Z" fill="#121A26"/>
<path d="M778.337 252.224C778.094 241.951 773.574 234.381 766.517 229.514C764.988 228.356 763.081 227.813 761.172 227.993C760.583 228.098 760.049 228.403 759.658 228.855C759.267 229.308 759.043 229.881 759.025 230.478C770.697 235.015 773.687 246.123 774.4 252.737C775.269 260.768 773.583 267.982 771.462 271.858C772.105 274.109 772.836 274.466 773.522 273.596C777.581 268.625 778.529 260.09 778.337 252.224Z" fill="#121A26"/>
<path d="M758.017 247.47C753.56 241.78 747.089 238.019 739.939 236.962C739.021 236.815 738.081 236.88 737.193 237.153C735.176 237.796 733.777 239.352 734.133 241.421C744.128 240.795 750.595 245.819 754.367 250.442C759.808 257.109 762.571 266.826 761.633 274.596C762.606 277.003 763.649 276.673 764.153 274.378C765.413 265.218 764.423 255.309 758.017 247.47Z" fill="#121A26"/>
<path d="M753.584 281.775C753.938 281.933 754.313 282.041 754.697 282.097C756.035 282.305 756.539 281.228 756.183 279.22C754.897 272.006 749.456 264.236 739.191 258.135C732.438 254.119 725.763 252.511 719.844 253.267C719.191 253.328 718.561 253.535 717.999 253.874C717.438 254.212 716.96 254.674 716.602 255.223C716.274 255.792 716.082 256.43 716.042 257.086C716.001 257.742 716.113 258.398 716.368 259.004C724.529 255.658 733.751 260.368 736.784 262.185C745.371 267.287 751.559 275.378 752.515 282.027C752.637 281.869 752.81 281.757 753.005 281.711C753.2 281.665 753.404 281.688 753.584 281.775Z" fill="#121A26"/>
<path d="M689.729 281.244L704.904 263.488C706.243 261.934 708.018 260.819 709.999 260.287C711.98 259.755 714.075 259.832 716.012 260.507L746.675 271.18C747.714 271.539 748.663 272.12 749.455 272.883C750.247 273.645 750.865 274.57 751.264 275.595L754.888 284.825C755.333 285.965 755.486 287.198 755.334 288.412C755.182 289.626 754.73 290.783 754.019 291.778L737.297 315.48C736.655 316.386 735.732 317.054 734.67 317.379C733.609 317.705 732.469 317.669 731.43 317.279L696.526 304.19C695.023 303.625 693.676 302.712 692.594 301.526C691.512 300.34 690.727 298.915 690.303 297.367L688.443 286.624C688.2 285.691 688.191 284.712 688.415 283.774C688.639 282.836 689.091 281.967 689.729 281.244Z" fill="#346F93"/>
<path d="M723.347 303.634C722.356 305.094 720.105 305.728 718.732 304.19C717.185 302.452 716.185 300.34 714.63 298.61C713.564 297.526 712.4 296.542 711.153 295.673C711.439 296.376 711.683 297.096 711.883 297.828C712.856 301.426 707.676 303.66 705.86 300.366C704.122 297.254 702.774 293.734 699.315 292.135C697.134 291.127 694.179 290.397 692.918 292.926C692.858 293.049 692.785 293.166 692.701 293.274C692.809 293.854 692.716 294.454 692.438 294.975C692.16 295.496 691.714 295.908 691.171 296.142C690.859 296.266 690.526 296.331 690.189 296.333L690.372 297.367C690.796 298.915 691.582 300.341 692.663 301.527C693.745 302.712 695.092 303.625 696.595 304.19L731.499 317.279C732.45 317.638 733.489 317.692 734.472 317.436C732.49 310.856 729.839 304.32 723.347 303.634Z" fill="#1F4060"/>
<path d="M748.517 275.422C743.833 280.897 734.889 292.04 731.326 296.498C730.86 297.077 730.556 297.768 730.443 298.502C730.33 299.236 730.413 299.987 730.683 300.679L735.819 313.881C735.912 314.115 736.066 314.32 736.265 314.474C736.465 314.628 736.702 314.725 736.952 314.756C737.203 314.786 737.456 314.748 737.687 314.646C737.917 314.544 738.116 314.382 738.261 314.176L754.141 291.674C754.817 290.712 755.245 289.598 755.386 288.43C755.527 287.262 755.377 286.078 754.949 284.982L751.385 275.908C751.27 275.644 751.09 275.412 750.863 275.234C750.636 275.056 750.367 274.938 750.083 274.89C749.798 274.841 749.506 274.865 749.233 274.957C748.959 275.05 748.714 275.21 748.517 275.422Z" fill="#2C5777"/>
<path d="M742.138 290.058C741.104 291.254 740.228 292.577 739.53 293.995C737.618 297.645 737.357 300.079 739.73 303.556C740.757 305.053 741.661 306.632 742.433 308.275L748.239 300.062C745.966 296.879 743.927 293.535 742.138 290.058Z" fill="#1F4060"/>
<path d="M730.648 291.979L746.423 274.118C746.648 273.863 746.808 273.556 746.887 273.225C746.967 272.893 746.963 272.547 746.877 272.217C746.792 271.888 746.626 271.584 746.395 271.334C746.164 271.083 745.875 270.893 745.553 270.78L716.211 260.568C714.219 259.877 712.066 259.799 710.029 260.346C707.993 260.894 706.168 262.04 704.791 263.636L691.05 279.593C690.786 279.898 690.602 280.263 690.513 280.656C690.424 281.048 690.433 281.457 690.54 281.845C690.646 282.234 690.847 282.59 691.124 282.882C691.401 283.175 691.745 283.394 692.127 283.522L723.173 293.952C724.474 294.399 725.879 294.451 727.21 294.1C728.54 293.748 729.737 293.01 730.648 291.979Z" fill="#468CAF"/>
<path d="M699.117 301.795C701.531 301.007 702.553 297.505 701.4 293.973C700.247 290.442 697.355 288.217 694.942 289.005C692.528 289.793 691.506 293.295 692.659 296.827C693.812 300.359 696.703 302.583 699.117 301.795Z" fill="#121A26"/>
<path d="M715.333 298.358C716.498 301.913 715.864 305.798 713.048 306.719C710.232 307.641 706.799 304.747 705.634 301.192C704.469 297.637 705.321 294.491 708.137 293.578C710.953 292.665 714.177 294.795 715.333 298.358Z" fill="#121A26"/>
<path d="M729.657 305.293C730.465 308.979 729.866 311.76 726.893 312.412C723.921 313.064 720.47 309.804 719.132 306.18C717.793 302.556 718.628 298.836 721.6 298.184C724.573 297.532 728.84 301.617 729.657 305.293Z" fill="#121A26"/>
<path d="M748.551 295.55C751.026 291.245 750.967 286.567 748.419 285.103C745.872 283.639 741.801 285.943 739.326 290.248C736.852 294.554 736.911 299.231 739.458 300.695C742.006 302.159 746.077 299.856 748.551 295.55Z" fill="#121A26"/>
<path d="M698.159 290.197C697.478 289.525 696.58 289.115 695.626 289.04C694.672 288.966 693.722 289.231 692.944 289.788C690.919 291.249 687.59 294.508 686.495 300.748C684.027 314.846 691.771 313.42 692.892 312.299C694.526 310.665 694.926 307.866 697.681 305.111C700.436 302.356 701.158 301.183 701.158 297.428C700.976 294.754 699.923 292.214 698.159 290.197Z" fill="#2C5777"/>
<path d="M708.137 293.578C704.47 293.578 700.793 296.993 698.733 302.408C695.509 310.865 700.158 321.912 705.13 321.912C710.101 321.912 709.476 316.419 710.51 312.49C711.657 308.205 714.778 305.737 714.856 303.477C715.108 299.349 713.117 293.578 708.137 293.578Z" fill="#2C5777"/>
<path d="M720.218 298.819C717.402 299.601 710.319 310.074 714.508 320.382C718.697 330.69 723.043 328.274 724.99 325.51C726.937 322.746 724.19 314.811 727.345 312.256C729.431 310.517 729.622 306.598 727.345 302.826C725.737 300.131 722.695 298.141 720.218 298.819Z" fill="#2C5777"/>
<path d="M689.668 304.972C691.276 298.097 694.066 297.506 695.908 294.308C698.151 290.414 693.866 289.041 692.927 289.71C690.902 291.17 687.573 294.429 686.478 300.67C686.204 302.174 686.044 303.696 686 305.224C686.365 307.423 689.216 306.945 689.668 304.972Z" fill="#346F93"/>
<path d="M700.984 314.576C703.948 314.576 704.461 310.508 705.13 308.162C707.155 300.679 709.806 300.835 710.284 298.132C710.875 294.734 708.441 293.578 708.137 293.578C704.469 293.578 700.793 296.993 698.733 302.408C697.616 305.531 697.363 308.897 698.003 312.151C698.559 313.872 699.359 314.593 700.984 314.576Z" fill="#346F93"/>
<path d="M716.976 319.852C718.367 319.391 719.001 314.637 719.584 312.898C720.896 309.161 724.216 306.571 724.216 302.625C724.216 298.949 721.713 298.375 720.201 298.792C717.637 299.505 711.553 308.231 713.621 317.557C714.256 319.026 715.003 320.503 716.976 319.852Z" fill="#346F93"/>
<path d="M690.746 293.022C689.129 292.787 687.269 296.142 686.539 300.401C686.435 305.468 695.213 293.673 690.746 293.022Z" fill="#468CAF"/>
<path d="M706.825 296.09C706.147 295.22 704.217 295.22 702.783 296.854C700.887 299.256 699.701 302.14 699.359 305.181C699.028 308.501 701.158 310.013 702.183 307.354C703.23 304.428 704.751 301.694 706.685 299.262C706.975 298.788 707.139 298.248 707.164 297.694C707.188 297.139 707.071 296.587 706.825 296.09Z" fill="#468CAF"/>
<path d="M715.577 313.411C717.402 313.959 718.41 309.596 718.74 308.927C720.705 304.981 722.113 303.234 721.087 301.921C720.061 300.609 718.262 301.235 717.08 303.095C716.342 304.325 715.805 305.666 715.49 307.067C714.612 309.987 714.481 313.081 715.577 313.411Z" fill="#468CAF"/>
<path d="M748.257 285.26C745.745 285.443 741.973 287.807 739.852 292.457C737.731 297.106 739.444 300.062 741.147 301C742.851 301.939 744.241 302.408 748.178 306.884C752.246 311.525 754.349 315.445 757.556 313.924C761.667 311.969 762.05 305.398 760.007 298.115C758.191 291.613 752.602 284.982 748.257 285.26Z" fill="#2C5777"/>
<path d="M747.474 286.72C742.763 290.709 748.152 299.184 750.316 301.356C752.48 303.529 755.722 307.067 758.73 305.207C761.502 303.468 759.938 297.906 758.782 294.873C756.817 290.666 754.193 287.146 751.324 286.094C750.674 285.934 749.997 285.907 749.335 286.015C748.674 286.122 748.041 286.362 747.474 286.72Z" fill="#346F93"/>
<path d="M751.368 289.154C747.779 290.527 749.978 298.01 755.497 300.374C759.243 301.973 757.539 294.403 756.366 292.378C755.714 291.214 753.837 288.206 751.368 289.154Z" fill="#468CAF"/>
</svg>
