<svg width="320" height="513" viewBox="0 0 320 513" fill="none" xmlns="http://www.w3.org/2000/svg">
<rect width="320" height="513" fill="#E8F3FF"/>
<path opacity="0.2" d="M76.7811 386.198C76.7811 374.642 232.753 367.476 251.067 365.412C281.67 361.963 225.217 381.135 241.206 392.328C252.612 400.312 256.929 412.048 231.08 412.048C216.709 412.048 188.341 402.691 160.726 397.924C128.107 392.294 76.7811 397.755 76.7811 386.198Z" fill="#285077"/>
<path d="M91.4382 306.251C107.854 302.627 124.217 316.111 130.346 323.307C138.696 314.068 164.777 294.152 202.299 288.396C249.201 281.201 263.592 302.52 266.79 334.233C269.987 365.945 235.877 379.27 222.818 379.003C209.76 378.737 170.053 386.465 135.676 390.729C101.298 394.993 62.6571 391.528 57.3273 365.146C51.9974 338.763 70.9183 310.781 91.4382 306.251Z" fill="#4099F1"/>
<path d="M91.4382 302.52C107.854 298.896 124.217 312.38 130.346 319.576C138.696 310.337 164.777 290.421 202.299 284.665C249.201 277.47 263.592 298.789 266.79 330.502C269.987 362.214 235.877 375.539 222.818 375.272C209.76 375.006 170.053 382.734 135.676 386.998C101.298 391.262 62.6571 387.797 57.3273 361.415C51.9974 335.032 70.9183 307.05 91.4382 302.52Z" fill="#76B9F7"/>
<path d="M133.011 327.57L119.686 321.441C134.397 343.826 111.514 374.917 102.631 382.734C123.097 371.861 134.343 338.141 133.011 327.57Z" fill="#4099F1"/>
<path d="M218.86 290.476C219.856 293.529 220.25 296.498 219.842 298.814C219.68 299.851 219.279 300.836 218.67 301.691C218.418 302.047 218.097 302.349 217.726 302.58C217.355 302.811 216.942 302.966 216.511 303.036C216.08 303.106 215.64 303.089 215.215 302.987C214.79 302.885 214.39 302.7 214.038 302.442C213.627 302.172 213.255 301.847 212.931 301.478C212.568 301.047 212.248 300.582 211.977 300.088C210.823 298.018 210.286 295.113 210.295 291.889C210.323 289.102 210.616 286.324 211.171 283.592C211.277 283.064 211.388 282.583 211.504 282.161C211.604 281.777 211.726 281.4 211.87 281.031C212.125 280.396 212.394 280.104 212.741 279.993C213.088 279.882 213.473 280.206 213.927 280.702C214.503 281.382 215.01 282.118 215.442 282.898C216.843 285.297 217.989 287.837 218.86 290.476Z" fill="#1F4060"/>
<path d="M216.586 291.115C217.115 293.085 217.308 295.131 217.156 297.165C216.961 298.772 216.354 299.852 215.502 300.005C214.649 300.158 213.732 299.25 213.079 297.772C212.334 295.874 211.922 293.862 211.861 291.824C211.74 289.806 211.799 287.781 212.037 285.774C212.241 284.199 212.528 283.212 212.963 283.161C213.399 283.11 213.982 283.94 214.64 285.385C215.465 287.23 216.117 289.149 216.586 291.115Z" fill="#121A26"/>
<path d="M232.424 294.126C232.424 293.858 232.391 293.584 232.354 293.302C232.317 293.019 232.262 292.732 232.197 292.44C232.132 292.148 232.053 291.852 231.961 291.551C231.815 291.079 231.645 290.615 231.451 290.161C231.25 289.692 231.023 289.219 230.77 288.744C230.682 288.586 230.599 288.424 230.506 288.28C230.237 287.798 229.941 287.317 229.617 286.835C229.399 286.511 229.153 286.186 228.94 285.867L228.584 285.404C226.889 283.185 224.95 281.165 222.802 279.382C222.113 278.804 221.368 278.295 220.579 277.862C219.953 277.547 219.481 277.492 219.138 277.672C219.007 277.764 218.897 277.884 218.817 278.024C218.737 278.163 218.689 278.318 218.675 278.478C219.385 278.819 220.037 279.269 220.607 279.812C220.75 279.942 220.903 280.081 221.07 280.22C221.491 280.609 221.941 281.054 222.413 281.549C222.719 281.869 223.029 282.207 223.34 282.569C224.519 283.903 225.603 285.32 226.582 286.807C227.574 288.291 228.39 289.884 229.014 291.555C229.176 292.019 229.316 292.482 229.427 292.899C229.595 293.541 229.708 294.197 229.765 294.858C229.765 295.09 229.793 295.321 229.793 295.535C229.812 296.507 229.571 297.467 229.093 298.314C229.678 298.347 230.26 298.217 230.775 297.939C231.356 297.596 231.808 297.07 232.058 296.442C232.355 295.708 232.48 294.916 232.424 294.126Z" fill="#121A26"/>
<path d="M242.851 284.116C242.756 283.858 242.646 283.606 242.522 283.361C242.393 283.106 242.249 282.851 242.087 282.592C241.925 282.332 241.753 282.082 241.568 281.823C241.278 281.428 240.969 281.047 240.642 280.683C240.294 280.308 239.924 279.933 239.525 279.567L239.113 279.205C238.696 278.839 238.256 278.487 237.788 278.14C237.482 277.908 237.163 277.677 236.834 277.454L236.333 277.121C234.006 275.607 231.521 274.35 228.922 273.373C228.084 273.046 227.214 272.806 226.328 272.655C226.044 272.608 225.754 272.608 225.471 272.655C225.256 272.678 225.058 272.776 224.91 272.933C224.816 273.066 224.751 273.217 224.72 273.377C224.689 273.537 224.692 273.701 224.729 273.86C225.508 273.942 226.268 274.148 226.981 274.471L227.555 274.717C228.092 274.953 228.667 275.226 229.264 275.536C229.654 275.736 230.061 275.958 230.478 276.19C232.03 277.06 233.518 278.04 234.93 279.122C236.357 280.203 237.654 281.447 238.793 282.828C239.099 283.208 239.377 283.588 239.632 283.967C240.002 284.516 240.319 285.097 240.581 285.705C240.674 285.913 240.753 286.121 240.822 286.325C241.165 287.24 241.256 288.231 241.086 289.193C241.647 289.028 242.148 288.707 242.532 288.266C243.389 287.27 243.449 285.714 242.851 284.116Z" fill="#121A26"/>
<path d="M249.281 270.534C249.095 270.329 248.899 270.134 248.693 269.95C248.474 269.753 248.245 269.567 248.007 269.394C247.757 269.214 247.497 269.042 247.224 268.875C246.799 268.619 246.36 268.387 245.909 268.181C245.429 267.958 244.939 267.76 244.44 267.588L243.921 267.416C243.393 267.249 242.847 267.097 242.281 266.953C241.906 266.865 241.522 266.782 241.128 266.707L240.54 266.601C237.798 266.169 235.022 265.99 232.248 266.064C230.029 266.133 228.676 266.323 228.426 266.953C228.401 267.099 228.406 267.248 228.44 267.392C228.474 267.537 228.537 267.672 228.625 267.791C229.377 267.641 230.144 267.59 230.909 267.639L231.525 267.666C232.099 267.694 232.739 267.745 233.42 267.819C233.86 267.866 234.309 267.916 234.786 267.981C236.547 268.208 238.291 268.55 240.007 269.005C241.739 269.452 243.411 270.107 244.987 270.955C245.408 271.192 245.816 271.446 246.191 271.706C246.734 272.085 247.24 272.514 247.701 272.989C247.859 273.151 248.012 273.322 248.164 273.494C248.825 274.242 249.26 275.163 249.42 276.148C249.912 275.776 250.28 275.264 250.476 274.68C250.709 274.006 250.721 273.276 250.508 272.595C250.255 271.826 249.836 271.123 249.281 270.534Z" fill="#121A26"/>
<path d="M249.263 254.747C249.002 254.644 248.736 254.558 248.466 254.487C248.182 254.412 247.894 254.351 247.604 254.306C247.308 254.26 247.002 254.223 246.678 254.205C246.181 254.179 245.683 254.179 245.186 254.205C244.672 254.232 244.144 254.288 243.606 254.371L243.064 254.459C242.518 254.557 241.962 254.682 241.401 254.825C241.026 254.927 240.651 255.034 240.266 255.15L239.697 255.335C237.072 256.235 234.531 257.365 232.104 258.712C231.326 259.121 230.579 259.586 229.867 260.102C229.371 260.495 229.038 260.829 229.103 261.121C229.127 261.235 229.189 261.338 229.279 261.413C229.382 261.524 229.504 261.616 229.64 261.686C230.265 261.267 230.929 260.91 231.623 260.62L232.183 260.379C232.716 260.157 233.304 259.916 233.943 259.68L235.245 259.217C236.91 258.613 238.612 258.117 240.341 257.73C242.087 257.325 243.876 257.138 245.668 257.174C246.133 257.189 246.597 257.231 247.058 257.299C247.717 257.389 248.365 257.545 248.994 257.762C249.212 257.841 249.425 257.929 249.628 258.022C250.573 258.414 251.379 259.078 251.945 259.93C252.075 259.633 252.169 259.322 252.227 259.004C252.271 258.687 252.271 258.366 252.227 258.049C252.118 257.319 251.796 256.637 251.301 256.09C250.728 255.498 250.032 255.039 249.263 254.747Z" fill="#121A26"/>
<path d="M242.365 241.104C242.093 241.128 241.822 241.167 241.554 241.22C241.281 241.276 240.998 241.345 240.702 241.429C240.399 241.509 240.1 241.606 239.808 241.72C239.341 241.893 238.886 242.096 238.446 242.327C237.982 242.564 237.519 242.828 237.079 243.124L236.616 243.43C236.153 243.745 235.69 244.088 235.259 244.454C234.958 244.699 234.661 244.954 234.365 245.218L233.901 245.621C231.894 247.536 230.05 249.615 228.389 251.838C227.848 252.56 227.382 253.336 226.999 254.154C226.735 254.779 226.693 255.242 226.865 255.543C226.962 255.66 227.085 255.753 227.224 255.815C227.363 255.877 227.514 255.906 227.666 255.9C227.986 255.199 228.404 254.547 228.908 253.964L229.297 253.501C229.681 253.037 230.075 252.574 230.538 252.074C230.835 251.75 231.15 251.416 231.465 251.078C232.707 249.806 234.039 248.623 235.449 247.539C236.855 246.438 238.385 245.505 240.007 244.759C240.47 244.565 240.892 244.393 241.327 244.25C241.955 244.03 242.604 243.875 243.263 243.786C243.49 243.759 243.727 243.74 243.935 243.731C244.924 243.661 245.913 243.86 246.798 244.305C246.777 243.698 246.593 243.107 246.265 242.596C246.076 242.309 245.843 242.054 245.575 241.841C245.29 241.643 244.978 241.487 244.648 241.378C243.915 241.125 243.137 241.032 242.365 241.104Z" fill="#121A26"/>
<path d="M229.816 231.557C229.579 231.7 229.351 231.854 229.13 232.02C228.908 232.201 228.667 232.396 228.468 232.604C228.268 232.812 228.037 233.039 227.828 233.28C227.506 233.651 227.206 234.041 226.93 234.448C226.638 234.874 226.365 235.328 226.101 235.8L225.841 236.264C225.586 236.755 225.345 237.273 225.118 237.806C224.97 238.163 224.822 238.529 224.683 238.899L224.479 239.464C223.585 242.098 222.939 244.809 222.547 247.562C222.41 248.434 222.334 249.315 222.321 250.198C222.316 250.467 222.35 250.735 222.422 250.994C222.436 251.082 222.468 251.165 222.516 251.239C222.563 251.314 222.626 251.377 222.7 251.425C222.807 251.481 222.93 251.498 223.048 251.472C223.199 251.453 223.346 251.409 223.483 251.342C223.52 250.587 223.631 249.837 223.817 249.104C223.863 248.915 223.914 248.715 223.96 248.511C224.104 247.946 224.266 247.335 224.451 246.686C224.572 246.265 224.702 245.825 224.85 245.371C225.376 243.672 226.01 242.009 226.749 240.391C227.485 238.76 228.418 237.226 229.528 235.823C229.839 235.448 230.154 235.096 230.478 234.772C230.946 234.294 231.463 233.868 232.021 233.498C232.215 233.373 232.41 233.257 232.609 233.151C233.489 232.631 234.503 232.384 235.523 232.442C235.366 232.159 235.175 231.898 234.953 231.664C234.731 231.441 234.478 231.25 234.203 231.098C233.564 230.734 232.824 230.586 232.095 230.677C231.276 230.785 230.495 231.087 229.816 231.557Z" fill="#121A26"/>
<path d="M214.997 228.578C214.844 228.811 214.705 229.052 214.58 229.301C214.45 229.556 214.33 229.824 214.219 230.102C214.107 230.38 214.006 230.672 213.908 230.973C213.764 231.444 213.645 231.921 213.552 232.404C213.45 232.905 213.375 233.424 213.32 233.961C213.32 234.142 213.283 234.327 213.269 234.512C213.227 235.063 213.204 235.633 213.204 236.212C213.204 236.601 213.204 236.995 213.204 237.393L213.232 237.991C213.406 240.768 213.871 243.52 214.622 246.2C215.242 248.298 215.849 249.628 216.567 249.683C216.721 249.679 216.871 249.642 217.009 249.574C217.147 249.506 217.268 249.409 217.364 249.289C217.012 248.6 216.757 247.866 216.604 247.108C216.558 246.918 216.516 246.718 216.47 246.51C216.35 245.945 216.234 245.315 216.132 244.657C216.067 244.194 216.002 243.763 215.946 243.267C215.732 241.502 215.64 239.723 215.673 237.945C215.691 236.159 215.92 234.382 216.354 232.65C216.479 232.187 216.623 231.723 216.78 231.302C217.009 230.681 217.295 230.083 217.633 229.514C217.753 229.319 217.874 229.129 218.003 228.949C218.548 228.126 219.316 227.475 220.217 227.073C219.742 226.699 219.17 226.471 218.568 226.415C217.878 226.367 217.191 226.539 216.604 226.906C215.955 227.341 215.406 227.912 214.997 228.578Z" fill="#121A26"/>
<path d="M200.233 231.483C200.177 231.757 200.135 232.034 200.108 232.312C200.081 232.599 200.067 232.896 200.067 233.197C200.067 233.498 200.067 233.808 200.108 234.123C200.152 234.616 200.223 235.107 200.321 235.592C200.428 236.097 200.558 236.611 200.72 237.13L200.887 237.649C201.067 238.177 201.271 238.705 201.503 239.237C201.656 239.594 201.818 239.951 201.994 240.312L202.258 240.849C203.545 243.312 205.047 245.655 206.747 247.854C207.272 248.564 207.856 249.229 208.493 249.841C208.956 250.276 209.396 250.499 209.725 250.392C209.861 250.329 209.982 250.238 210.081 250.124C210.179 250.011 210.252 249.878 210.295 249.734C209.721 249.222 209.22 248.635 208.803 247.988L208.456 247.478C208.141 247.015 207.803 246.455 207.455 245.866C207.233 245.487 206.992 245.088 206.779 244.671C205.917 243.115 205.159 241.504 204.509 239.849C203.837 238.192 203.371 236.459 203.119 234.688C203.06 234.227 203.025 233.764 203.013 233.299C202.993 232.635 203.037 231.971 203.143 231.316C203.18 231.089 203.226 230.853 203.282 230.654C203.495 229.682 203.976 228.79 204.671 228.078C204.085 227.904 203.46 227.904 202.874 228.078C201.544 228.472 200.576 229.755 200.233 231.483Z" fill="#121A26"/>
<path d="M251.945 256.048C251.82 255.46 251.657 254.779 251.481 254.052C251.389 253.69 251.305 253.311 251.194 252.935C251.083 252.56 250.953 252.185 250.828 251.81C250.703 251.434 250.578 251.055 250.453 250.689C250.388 250.503 250.323 250.318 250.263 250.137C250.203 249.957 250.12 249.79 250.05 249.623C249.758 248.947 249.485 248.321 249.253 247.77C249.022 247.219 248.79 246.811 248.637 246.51C248.484 246.209 248.387 246.047 248.387 246.047L248.128 245.584C247.841 245.035 247.396 244.586 246.849 244.296C245.964 243.85 244.975 243.652 243.986 243.722C243.769 243.722 243.523 243.749 243.315 243.777C242.655 243.866 242.006 244.021 241.378 244.24C240.943 244.384 240.503 244.555 240.058 244.75C238.436 245.496 236.906 246.429 235.5 247.529C234.09 248.614 232.759 249.796 231.516 251.068C231.182 251.407 230.867 251.74 230.589 252.064C230.126 252.569 229.733 253.037 229.348 253.491L228.959 253.954C228.456 254.538 228.038 255.19 227.717 255.891C227.651 256.022 227.61 256.166 227.599 256.313C227.588 256.46 227.606 256.608 227.653 256.748L227.75 256.933L227.852 257.114C227.943 257.261 228.021 257.416 228.083 257.577C228.167 257.776 228.264 258.003 228.375 258.244L228.459 258.429L228.514 258.624L228.639 259.008L228.778 259.393C228.815 259.523 228.834 259.652 228.866 259.773C228.917 260.014 228.982 260.236 229.033 260.435C229.075 260.829 229.121 261.088 229.121 261.088C229.056 260.796 229.39 260.463 229.885 260.069C230.597 259.553 231.345 259.089 232.123 258.679C234.55 257.333 237.09 256.203 239.715 255.302L240.285 255.117C240.669 255.001 241.045 254.895 241.42 254.793C241.98 254.649 242.536 254.524 243.083 254.427L243.625 254.339C244.162 254.256 244.69 254.2 245.205 254.172C245.702 254.147 246.199 254.147 246.696 254.172C247.02 254.172 247.326 254.228 247.623 254.274C247.913 254.319 248.2 254.379 248.484 254.455C248.755 254.525 249.021 254.612 249.281 254.714C250.056 254.999 250.76 255.449 251.343 256.034C251.837 256.584 252.159 257.267 252.269 257.998C252.269 257.998 252.125 257.239 251.945 256.048Z" fill="#2C5777"/>
<path d="M224.855 245.417C224.711 245.88 224.577 246.316 224.456 246.737C224.271 247.381 224.109 247.997 223.965 248.558C223.919 248.766 223.868 248.965 223.822 249.155C223.636 249.886 223.524 250.634 223.488 251.388C223.473 251.522 223.488 251.658 223.531 251.786C223.574 251.914 223.645 252.031 223.738 252.129L223.886 252.24C224.432 252.645 224.939 253.1 225.401 253.598C225.485 253.695 225.573 253.788 225.656 253.88L225.781 254.024C225.832 254.084 225.878 254.149 225.925 254.214L226.439 254.885C226.567 255.029 226.682 255.184 226.782 255.349L226.897 255.529C226.726 255.228 226.768 254.765 227.032 254.14C227.415 253.322 227.881 252.546 228.422 251.824C230.083 249.601 231.927 247.522 233.934 245.607L234.397 245.204C234.694 244.94 234.99 244.685 235.291 244.439C235.754 244.074 236.218 243.731 236.649 243.416L237.112 243.11C237.575 242.814 238.038 242.55 238.478 242.313C238.919 242.082 239.374 241.88 239.84 241.706C240.133 241.592 240.431 241.495 240.734 241.415C241.031 241.331 241.313 241.262 241.587 241.206C241.855 241.153 242.125 241.114 242.397 241.09C243.177 241.001 243.968 241.082 244.714 241.327C245.043 241.436 245.355 241.592 245.64 241.79C245.909 242.003 246.142 242.258 246.33 242.545L246.043 242.114C245.803 241.735 245.541 241.37 245.26 241.021L244.116 239.529L243.792 239.112L243.407 238.649C243.143 238.353 242.874 238.047 242.601 237.723C241.59 236.626 240.506 235.599 239.358 234.647L238.724 234.114L238.214 233.729L237.751 233.401L237.288 233.058C236.761 232.68 236.138 232.46 235.491 232.423C234.472 232.37 233.461 232.617 232.581 233.132C232.382 233.238 232.188 233.354 231.993 233.484C231.436 233.852 230.919 234.277 230.45 234.753C230.126 235.078 229.811 235.43 229.501 235.805C228.391 237.208 227.457 238.742 226.721 240.372C225.991 242.012 225.367 243.697 224.855 245.417Z" fill="#2C5777"/>
<path d="M215.988 243.272C216.044 243.735 216.109 244.199 216.173 244.662C216.275 245.338 216.391 245.968 216.512 246.515C216.558 246.723 216.6 246.922 216.646 247.112C216.798 247.871 217.054 248.605 217.406 249.294C217.471 249.434 217.565 249.559 217.68 249.662C217.796 249.765 217.931 249.843 218.077 249.892L218.286 249.924L218.499 249.961L219.046 250.086C219.277 250.128 219.509 250.211 219.805 250.286C220.102 250.36 220.357 250.462 220.639 250.554C221.349 250.803 222.035 251.113 222.691 251.481C222.617 251.432 222.554 251.369 222.506 251.295C222.459 251.221 222.427 251.137 222.413 251.05C222.341 250.791 222.307 250.522 222.311 250.253C222.325 249.37 222.401 248.49 222.538 247.617C222.93 244.864 223.576 242.153 224.47 239.52L224.674 238.955C224.813 238.584 224.961 238.218 225.109 237.862C225.336 237.329 225.573 236.81 225.832 236.319L226.091 235.856C226.355 235.393 226.629 234.929 226.921 234.503C227.197 234.097 227.497 233.707 227.819 233.336C228.028 233.095 228.241 232.873 228.458 232.659C228.676 232.446 228.899 232.256 229.121 232.076C229.341 231.91 229.57 231.755 229.807 231.613C230.486 231.161 231.262 230.875 232.072 230.779C232.801 230.688 233.541 230.836 234.179 231.2L233.716 230.932C233.411 230.76 232.975 230.519 232.438 230.269C231.149 229.631 229.823 229.071 228.468 228.592C227.736 228.337 227.004 228.083 226.314 227.897C225.624 227.712 224.975 227.518 224.419 227.402L223.076 227.101L222.566 227.008L222.075 226.925C221.469 226.816 220.845 226.892 220.282 227.142C219.381 227.545 218.613 228.196 218.068 229.018C217.938 229.199 217.818 229.389 217.697 229.584C217.359 230.152 217.074 230.751 216.845 231.372C216.688 231.793 216.544 232.247 216.419 232.72C215.985 234.452 215.756 236.229 215.738 238.014C215.7 239.771 215.784 241.527 215.988 243.272Z" fill="#2C5777"/>
<path d="M206.779 244.671C207.006 245.088 207.242 245.487 207.455 245.866C207.803 246.455 208.141 246.997 208.456 247.478L208.803 247.988C209.22 248.635 209.721 249.222 210.295 249.734V249.707C210.408 249.818 210.543 249.903 210.692 249.958C210.84 250.012 210.999 250.034 211.157 250.022L211.342 249.975C211.413 249.956 211.486 249.942 211.56 249.934L212.148 249.836C212.611 249.758 213.292 249.688 213.959 249.646C214.288 249.646 214.622 249.646 214.932 249.614H215.78L216.595 249.67C215.877 249.614 215.27 248.28 214.649 246.186C213.899 243.506 213.433 240.755 213.26 237.977L213.232 237.38C213.232 236.981 213.209 236.588 213.232 236.199C213.232 235.62 213.232 235.05 213.297 234.499C213.297 234.313 213.329 234.128 213.348 233.947C213.403 233.41 213.477 232.891 213.579 232.391C213.673 231.908 213.792 231.43 213.936 230.959C214.033 230.658 214.135 230.366 214.246 230.088C214.358 229.811 214.478 229.542 214.608 229.287C214.733 229.038 214.872 228.797 215.025 228.564C215.447 227.895 216.009 227.326 216.674 226.897C217.26 226.529 217.948 226.358 218.638 226.406C218.638 226.406 217.892 226.341 216.785 226.285C216.224 226.285 215.576 226.253 214.876 226.248C214.177 226.244 213.44 226.271 212.699 226.318C211.217 226.401 209.739 226.573 208.637 226.744L207.302 226.971C206.978 227.022 206.798 227.068 206.798 227.068L206.362 227.161C205.753 227.295 205.195 227.604 204.759 228.05H204.713C204.018 228.762 203.536 229.654 203.323 230.626C203.268 230.839 203.221 231.061 203.184 231.288C203.078 231.944 203.035 232.607 203.055 233.271C203.066 233.736 203.102 234.2 203.161 234.661C203.413 236.431 203.879 238.164 204.551 239.821C205.186 241.485 205.931 243.105 206.779 244.671Z" fill="#2C5777"/>
<path d="M229.76 294.835C229.703 294.173 229.59 293.518 229.422 292.876C229.311 292.412 229.172 291.991 229.01 291.532C228.385 289.861 227.569 288.267 226.578 286.784C225.598 285.296 224.514 283.88 223.335 282.545C223.015 282.184 222.705 281.846 222.409 281.526C221.945 281.031 221.482 280.6 221.065 280.197C220.903 280.058 220.75 279.919 220.602 279.789C220.032 279.246 219.38 278.795 218.67 278.455C218.383 278.31 218.05 278.285 217.744 278.386L217.021 278.673C216.947 278.731 216.866 278.781 216.78 278.821L216.011 279.127C215.733 279.233 215.428 279.312 215.131 279.419C214.844 279.521 214.55 279.605 214.251 279.669C213.973 279.734 213.714 279.822 213.491 279.859L212.75 279.988C213.098 279.914 213.482 280.201 213.936 280.697C214.512 281.377 215.019 282.113 215.451 282.893C216.856 285.294 218.005 287.835 218.879 290.476C219.875 293.529 220.268 296.498 219.861 298.814C219.699 299.851 219.297 300.836 218.689 301.691C218.17 302.398 217.401 302.88 216.539 303.039L218.318 302.715C218.851 302.613 219.453 302.441 220.106 302.284C220.759 302.126 221.45 301.936 222.117 301.709C224.065 301.085 225.97 300.333 227.819 299.458C228.354 299.209 228.799 298.802 229.093 298.291C229.571 297.444 229.812 296.484 229.793 295.511C229.76 295.294 229.76 295.067 229.76 294.835Z" fill="#2C5777"/>
<path d="M230.437 276.19C230.02 275.958 229.617 275.726 229.223 275.537C228.625 275.226 228.051 274.953 227.513 274.717L226.939 274.471C226.227 274.15 225.469 273.944 224.692 273.86C224.529 273.829 224.362 273.835 224.201 273.877C224.041 273.92 223.892 273.998 223.766 274.105L223.59 274.281C223.538 274.342 223.483 274.399 223.423 274.453L222.96 274.874C222.585 275.245 222.033 275.666 221.478 276.116C220.922 276.565 220.338 276.94 219.884 277.195L219.351 277.533L219.143 277.649C219.486 277.468 219.958 277.524 220.583 277.839C221.373 278.271 222.117 278.78 222.807 279.358C224.954 281.142 226.894 283.162 228.588 285.38L228.945 285.844C229.181 286.163 229.408 286.487 229.621 286.812C229.93 287.294 230.227 287.775 230.511 288.257C230.603 288.415 230.687 288.577 230.775 288.72C231.031 289.196 231.258 289.668 231.456 290.138C231.65 290.592 231.82 291.056 231.965 291.527C232.058 291.836 232.137 292.133 232.201 292.417C232.266 292.709 232.317 292.996 232.359 293.279C232.401 293.561 232.419 293.834 232.428 294.103C232.474 294.884 232.342 295.664 232.044 296.387C231.794 297.014 231.342 297.54 230.761 297.883L231.192 297.638L232.294 296.952C233.221 296.401 234.379 295.562 235.537 294.733C236.695 293.904 237.779 292.964 238.562 292.227L239.521 291.356C239.748 291.143 239.873 291.013 239.873 291.013L240.234 290.652C240.639 290.233 240.921 289.71 241.049 289.142C241.217 288.183 241.126 287.196 240.785 286.284C240.711 286.08 240.632 285.871 240.544 285.663C240.282 285.056 239.964 284.475 239.595 283.926C239.34 283.546 239.062 283.166 238.756 282.786C237.615 281.406 236.319 280.163 234.893 279.08C233.477 278.014 231.988 277.048 230.437 276.19Z" fill="#2C5777"/>
<path d="M234.786 267.995C234.323 267.93 233.86 267.879 233.42 267.833C232.739 267.759 232.1 267.708 231.525 267.68L230.909 267.652C230.144 267.604 229.377 267.655 228.625 267.805C228.236 267.907 227.986 268.06 227.893 268.296C227.868 268.361 227.839 268.425 227.805 268.486L227.439 269.199C227.319 269.45 227.182 269.693 227.032 269.927C226.875 270.212 226.704 270.489 226.518 270.756L225.962 271.571L225.42 272.261C225.298 272.424 225.167 272.579 225.026 272.725L224.868 272.905C225.016 272.749 225.215 272.65 225.429 272.627C225.713 272.581 226.002 272.581 226.286 272.627C227.173 272.778 228.042 273.018 228.88 273.345C231.479 274.322 233.964 275.579 236.292 277.093L236.792 277.427C237.121 277.649 237.441 277.89 237.746 278.112C238.21 278.46 238.673 278.812 239.071 279.178L239.484 279.539C239.882 279.905 240.253 280.28 240.6 280.655C240.928 281.02 241.237 281.4 241.526 281.795C241.712 282.054 241.888 282.309 242.045 282.564C242.203 282.819 242.351 283.078 242.481 283.333C242.604 283.578 242.714 283.83 242.81 284.088C243.407 285.686 243.347 287.243 242.453 288.22L242.782 287.845C242.99 287.609 243.287 287.27 243.616 286.835L244.755 285.357C245.158 284.806 245.566 284.19 245.978 283.583C246.39 282.976 246.766 282.337 247.122 281.73C247.479 281.123 247.808 280.577 248.049 280.067C248.558 279.062 248.892 278.395 248.892 278.395C248.892 278.395 248.952 278.288 249.003 278.172C249.054 278.057 249.1 277.941 249.1 277.941C249.343 277.371 249.426 276.747 249.341 276.134C249.182 275.149 248.746 274.228 248.086 273.48C247.947 273.308 247.794 273.137 247.623 272.975C247.161 272.5 246.656 272.07 246.113 271.692C245.737 271.432 245.33 271.178 244.908 270.941C243.333 270.093 241.661 269.438 239.928 268.991C238.238 268.549 236.52 268.216 234.786 267.995Z" fill="#2C5777"/>
<path d="M235.245 259.189L233.943 259.652C233.304 259.893 232.716 260.116 232.183 260.352L231.622 260.593C230.929 260.883 230.264 261.239 229.64 261.658H229.668C229.353 261.89 229.204 262.121 229.204 262.325C229.209 262.378 229.209 262.43 229.204 262.483C229.204 262.483 229.204 262.751 229.204 263.159C229.196 263.393 229.174 263.627 229.139 263.858C229.139 263.988 229.14 264.122 229.107 264.257C229.075 264.391 229.051 264.53 229.028 264.674C228.989 264.951 228.934 265.226 228.866 265.498C228.792 265.762 228.727 266.012 228.676 266.226C228.625 266.439 228.537 266.619 228.5 266.744L228.435 266.939C228.685 266.309 230.038 266.119 232.257 266.05C235.032 265.976 237.807 266.155 240.549 266.587L241.137 266.693C241.531 266.768 241.916 266.851 242.291 266.939C242.856 267.069 243.403 267.222 243.931 267.402L244.449 267.574C244.949 267.746 245.439 267.944 245.918 268.167C246.369 268.373 246.809 268.605 247.233 268.861C247.507 269.028 247.766 269.2 248.016 269.38C248.254 269.554 248.483 269.739 248.702 269.936C248.908 270.12 249.105 270.315 249.29 270.52C249.842 271.114 250.257 271.823 250.504 272.595C250.716 273.276 250.705 274.006 250.471 274.68C250.471 274.68 250.532 274.499 250.643 274.179C250.754 273.86 250.916 273.41 251.074 272.845L251.583 270.914C251.778 270.209 251.889 269.417 252.047 268.644C252.111 268.255 252.19 267.87 252.241 267.481C252.292 267.092 252.324 266.707 252.366 266.332C252.431 265.586 252.533 264.901 252.533 264.294C252.533 263.085 252.575 262.283 252.575 262.283V262.043C252.575 261.927 252.575 261.806 252.575 261.806C252.536 261.146 252.325 260.507 251.963 259.953V259.902C251.398 259.05 250.591 258.386 249.647 257.994C249.443 257.901 249.23 257.813 249.012 257.734C248.384 257.517 247.735 257.362 247.076 257.271C246.615 257.203 246.151 257.161 245.686 257.146C243.894 257.11 242.105 257.297 240.359 257.702C238.624 258.088 236.916 258.585 235.245 259.189Z" fill="#2C5777"/>
<path d="M208.493 249.841C207.856 249.229 207.272 248.564 206.747 247.854C205.047 245.655 203.545 243.312 202.258 240.849L201.994 240.312C201.818 239.951 201.656 239.594 201.503 239.237C201.271 238.705 201.067 238.177 200.887 237.648L200.72 237.13C200.558 236.611 200.428 236.097 200.321 235.592C200.223 235.107 200.152 234.616 200.108 234.123C200.081 233.808 200.067 233.498 200.067 233.197C200.067 232.896 200.067 232.599 200.108 232.312C200.135 232.034 200.177 231.757 200.233 231.483C200.59 229.755 201.544 228.472 202.878 228.064L202.378 228.226C202.063 228.333 201.609 228.458 201.067 228.689C199.713 229.176 198.388 229.744 197.102 230.39C195.745 231.07 194.437 231.844 193.188 232.706C192.66 233.044 192.219 233.41 191.918 233.632L191.455 233.998L191.205 234.197L190.959 234.406C190.282 234.98 189.797 235.748 189.57 236.606C189.446 237.059 189.381 237.526 189.375 237.996C189.372 238.493 189.427 238.989 189.537 239.474C189.588 239.705 189.653 239.937 189.727 240.164C189.949 240.816 190.249 241.438 190.621 242.017C190.877 242.422 191.16 242.809 191.469 243.175C192.652 244.514 194.029 245.668 195.555 246.598C197.167 247.627 198.797 248.451 200.187 249.239L201.391 249.896L203.004 250.823L203.522 251.124L204.449 251.689L205.181 252.111C205.561 252.328 205.853 252.421 205.959 252.315L206.052 252.236C206.052 252.236 206.191 252.125 206.45 251.949C206.81 251.697 207.189 251.476 207.585 251.286C208.046 251.053 208.521 250.849 209.007 250.675C209.206 250.587 209.401 250.55 209.526 250.503L209.725 250.438C209.378 250.499 208.979 250.276 208.493 249.841Z" fill="#2C5777"/>
<path d="M217.86 235.045C217.239 234.841 216.627 234.656 216.007 234.48C215.833 235.579 215.731 236.689 215.701 237.801C216.164 237.876 216.6 237.954 217.044 238.042C217.339 238.104 217.646 238.077 217.926 237.966C218.206 237.855 218.447 237.664 218.619 237.417L218.647 237.384C218.78 237.186 218.866 236.96 218.897 236.724C218.929 236.488 218.906 236.247 218.83 236.021C218.754 235.795 218.626 235.589 218.458 235.42C218.29 235.251 218.085 235.123 217.86 235.045Z" fill="#346F93"/>
<path d="M203.689 237.357C206.511 237.137 209.345 237.137 212.167 237.357C212.523 237.385 212.875 237.417 213.227 237.454C213.227 237.426 213.227 237.398 213.227 237.375C213.227 236.977 213.204 236.583 213.227 236.194C213.227 235.615 213.227 235.045 213.292 234.494C213.292 234.309 213.325 234.123 213.343 233.943C213.343 233.873 213.343 233.808 213.343 233.739C209.963 232.956 206.492 232.645 203.027 232.812C203.027 232.961 203.027 233.104 203.027 233.276C203.039 233.74 203.074 234.204 203.133 234.665C203.251 235.575 203.437 236.475 203.689 237.357Z" fill="#346F93"/>
<path d="M200.886 237.648L200.72 237.13C200.558 236.611 200.428 236.097 200.321 235.592C200.223 235.106 200.152 234.616 200.108 234.123C200.08 233.808 200.067 233.498 200.067 233.197C200.067 233.146 200.067 233.099 200.067 233.048L199.052 233.174C198.713 233.218 198.388 233.337 198.1 233.522C197.813 233.707 197.57 233.953 197.388 234.243C197.207 234.533 197.093 234.86 197.053 235.2C197.013 235.539 197.049 235.884 197.158 236.208V236.273C197.334 236.795 197.69 237.237 198.163 237.519C198.636 237.802 199.194 237.907 199.738 237.815C200.108 237.755 200.484 237.699 200.859 237.653L200.886 237.648Z" fill="#346F93"/>
<path d="M228.496 258.642L228.621 259.027L228.76 259.411C228.797 259.541 228.815 259.671 228.848 259.791C228.899 260.032 228.963 260.254 229.014 260.454C229.056 260.847 229.102 261.107 229.102 261.107C229.038 260.815 229.371 260.481 229.867 260.088C230.249 259.805 230.646 259.543 231.057 259.305C231.272 258.497 231.439 257.677 231.557 256.85C231.63 255.123 231.395 253.398 230.863 251.754L230.571 252.064C230.108 252.569 229.714 253.037 229.329 253.491L228.94 253.954C228.437 254.538 228.019 255.19 227.699 255.891C227.632 256.022 227.592 256.166 227.581 256.313C227.569 256.46 227.588 256.608 227.634 256.748L227.731 256.933L227.833 257.114C227.924 257.261 228.002 257.416 228.065 257.577C228.148 257.776 228.245 258.003 228.357 258.244L228.44 258.429L228.496 258.642Z" fill="#1F4060"/>
<path d="M227.995 246.83C227.159 245.913 226.227 245.089 225.216 244.37C225.095 244.727 224.975 245.079 224.868 245.417C224.725 245.88 224.59 246.316 224.47 246.737C224.285 247.381 224.123 247.997 223.979 248.558C223.933 248.766 223.882 248.965 223.835 249.155C223.65 249.887 223.538 250.635 223.502 251.388C223.487 251.522 223.502 251.658 223.545 251.786C223.588 251.914 223.659 252.032 223.752 252.129L223.9 252.241C224.446 252.646 224.953 253.1 225.415 253.598C225.498 253.695 225.586 253.788 225.67 253.88L225.795 254.024C225.846 254.084 225.892 254.149 225.938 254.214L226.453 254.886C226.581 255.029 226.696 255.184 226.795 255.349L226.911 255.529C226.74 255.228 226.781 254.765 227.046 254.14C227.429 253.322 227.894 252.546 228.435 251.824C228.898 251.207 229.45 250.513 230.061 249.771C229.507 248.703 228.813 247.713 227.995 246.83Z" fill="#1F4060"/>
<path d="M222.422 251.041C222.35 250.781 222.316 250.513 222.32 250.244C222.334 249.361 222.41 248.48 222.547 247.608C222.737 246.344 223.011 244.829 223.404 243.193L223.256 243.105C221.846 242.595 220.391 242.215 218.911 241.971C217.892 241.811 216.865 241.709 215.835 241.665C215.877 242.216 215.928 242.758 215.988 243.272C216.048 243.786 216.108 244.199 216.173 244.662C216.275 245.338 216.391 245.968 216.511 246.515C216.558 246.723 216.599 246.923 216.646 247.112C216.798 247.871 217.054 248.605 217.406 249.294C217.471 249.434 217.564 249.559 217.68 249.662C217.795 249.765 217.931 249.843 218.077 249.892L218.286 249.924L218.499 249.961L219.045 250.086C219.277 250.128 219.509 250.212 219.805 250.286C220.102 250.36 220.356 250.462 220.639 250.554C221.349 250.803 222.035 251.113 222.691 251.481C222.618 251.431 222.556 251.365 222.51 251.29C222.463 251.214 222.434 251.129 222.422 251.041Z" fill="#1F4060"/>
<path d="M207.455 245.866C207.803 246.455 208.141 246.997 208.456 247.478L208.803 247.988C209.22 248.635 209.721 249.222 210.295 249.734V249.707C210.408 249.818 210.543 249.903 210.692 249.957C210.84 250.012 210.999 250.034 211.157 250.022L211.342 249.975C211.413 249.956 211.486 249.942 211.56 249.934L212.148 249.836C212.611 249.757 213.292 249.688 213.959 249.646C214.288 249.646 214.622 249.646 214.932 249.614H215.78L216.595 249.669C215.877 249.614 215.27 248.28 214.649 246.186C214.226 244.689 213.892 243.169 213.649 241.632C210.988 241.723 208.342 242.075 205.751 242.684C206.089 243.379 206.427 244.041 206.765 244.657C207.006 245.088 207.233 245.486 207.455 245.866Z" fill="#1F4060"/>
<path d="M229.408 292.876C229.297 292.413 229.158 291.991 228.996 291.532C228.371 289.861 227.555 288.268 226.564 286.784C225.772 285.574 224.908 284.414 223.974 283.31C221.377 283.096 218.769 283.566 216.41 284.672C217.382 286.537 218.201 288.479 218.86 290.476C219.856 293.529 220.25 296.498 219.842 298.814C219.68 299.851 219.279 300.836 218.67 301.691C218.152 302.398 217.383 302.88 216.521 303.039L218.3 302.715C218.832 302.613 219.435 302.442 220.088 302.284C220.741 302.127 221.431 301.937 222.098 301.71C224.047 301.086 225.952 300.334 227.801 299.458C228.335 299.209 228.78 298.802 229.075 298.291C229.552 297.444 229.794 296.484 229.774 295.512C229.774 295.294 229.774 295.048 229.746 294.835C229.689 294.174 229.576 293.518 229.408 292.876Z" fill="#1F4060"/>
<path d="M240.54 285.686C240.277 285.079 239.959 284.498 239.59 283.949C239.497 283.81 239.4 283.676 239.303 283.537C235.393 284.621 231.483 284.361 227.504 283.717L227.194 283.671C227.657 284.213 228.12 284.778 228.583 285.376L228.94 285.839C229.176 286.159 229.403 286.483 229.616 286.807C229.925 287.289 230.222 287.771 230.506 288.252C230.599 288.41 230.682 288.572 230.77 288.716C231.026 289.191 231.253 289.664 231.451 290.133C231.645 290.587 231.815 291.051 231.96 291.523C232.053 291.832 232.132 292.128 232.197 292.412C232.262 292.704 232.313 292.991 232.354 293.274C232.396 293.556 232.414 293.83 232.424 294.098C232.469 294.879 232.338 295.66 232.039 296.382C231.789 297.009 231.338 297.536 230.756 297.878L231.187 297.633L232.289 296.947C233.216 296.396 234.374 295.558 235.532 294.728C236.69 293.899 237.774 292.959 238.557 292.222L239.516 291.351C239.743 291.138 239.868 291.009 239.868 291.009L240.229 290.647C240.634 290.228 240.916 289.706 241.045 289.137C241.212 288.178 241.121 287.191 240.78 286.279C240.706 286.098 240.628 285.895 240.54 285.686Z" fill="#1F4060"/>
<path d="M242.059 282.55L242.087 282.592C242.249 282.851 242.393 283.106 242.522 283.361C242.646 283.606 242.756 283.858 242.851 284.116C243.449 285.714 243.389 287.27 242.494 288.248L242.823 287.873C243.032 287.636 243.328 287.298 243.657 286.863L244.797 285.385C245.2 284.829 245.607 284.218 246.02 283.611C246.432 283.004 246.807 282.365 247.164 281.758C247.521 281.151 247.85 280.604 248.09 280.095C248.6 279.09 248.933 278.423 248.933 278.423C248.933 278.423 248.994 278.316 249.045 278.2C249.096 278.084 249.142 277.969 249.142 277.969C249.25 277.717 249.325 277.452 249.364 277.181C247.342 279.473 244.85 281.304 242.059 282.55Z" fill="#1F4060"/>
<path d="M229.64 261.672H229.668C229.353 261.904 229.204 262.135 229.204 262.339C229.209 262.392 229.209 262.444 229.204 262.497C229.204 262.497 229.204 262.765 229.204 263.173C229.196 263.407 229.174 263.641 229.139 263.873C229.139 263.998 229.14 264.127 229.107 264.257C229.632 263.256 230.089 262.221 230.474 261.158C230.185 261.312 229.907 261.483 229.64 261.672Z" fill="#1F4060"/>
<path d="M203.523 251.078L204.449 251.643L205.181 252.064C205.561 252.282 205.853 252.375 205.959 252.268L206.052 252.19C206.052 252.19 206.191 252.078 206.45 251.902C206.81 251.651 207.189 251.429 207.585 251.24C208.046 251.007 208.521 250.802 209.007 250.628C209.206 250.54 209.401 250.503 209.526 250.457L209.725 250.392C209.396 250.499 208.98 250.276 208.493 249.841C207.856 249.229 207.272 248.564 206.747 247.854C205.612 246.369 204.56 244.822 203.597 243.221L202.953 243.397C202.554 243.587 202.161 243.782 201.772 243.995C200.349 244.764 197.917 245.848 196.912 247.367C198.056 248.034 199.177 248.627 200.187 249.178L201.392 249.836L203.004 250.763L203.523 251.078Z" fill="#1F4060"/>
<path d="M244.811 244.31C244.746 244.111 244.667 243.912 244.593 243.717C244.394 243.717 244.195 243.717 243.986 243.717C243.778 243.717 243.523 243.745 243.314 243.773C242.655 243.861 242.006 244.016 241.378 244.236C240.943 244.379 240.503 244.551 240.058 244.745C239.134 245.165 238.244 245.655 237.394 246.209C238.67 249.159 239.225 252.369 239.016 255.576C239.243 255.497 239.479 255.414 239.696 255.34L240.266 255.154C240.651 255.039 241.026 254.932 241.401 254.83C241.962 254.686 242.518 254.561 243.064 254.464L243.606 254.376C244.144 254.293 244.672 254.237 245.186 254.209C245.683 254.184 246.181 254.184 246.678 254.209H246.872C246.589 250.838 245.897 247.514 244.811 244.31Z" fill="#346F93"/>
<path d="M239.636 234.948L239.363 234.716L238.728 234.184L238.219 233.799L237.756 233.47L237.292 233.127C236.766 232.749 236.142 232.529 235.495 232.493C234.477 232.44 233.466 232.686 232.586 233.202C232.387 233.308 232.192 233.424 231.998 233.554C231.44 233.921 230.923 234.347 230.455 234.823C230.316 234.962 230.177 235.11 230.043 235.258C232.734 237.557 234.838 240.465 236.181 243.74C236.324 243.634 236.463 243.527 236.607 243.43L237.07 243.124C237.533 242.828 237.996 242.563 238.437 242.327C238.877 242.096 239.332 241.893 239.798 241.72C240.091 241.606 240.389 241.509 240.693 241.429C240.989 241.345 241.271 241.276 241.545 241.22C241.813 241.167 242.083 241.128 242.355 241.104C242.727 241.072 243.101 241.072 243.472 241.104C242.401 238.93 241.116 236.867 239.636 234.948Z" fill="#346F93"/>
<path d="M226.943 232.998L227.694 233.461C227.74 233.405 227.782 233.345 227.828 233.294C228.037 233.053 228.25 232.831 228.468 232.618C228.685 232.405 228.908 232.215 229.13 232.034C229.35 231.868 229.579 231.713 229.816 231.571C230.495 231.119 231.271 230.833 232.081 230.737C232.81 230.647 233.55 230.794 234.189 231.158L233.725 230.89C233.42 230.718 232.984 230.478 232.447 230.227C231.158 229.589 229.833 229.029 228.477 228.55C227.745 228.296 227.013 228.041 226.323 227.856C225.633 227.67 224.984 227.476 224.428 227.36L223.085 227.059L222.575 226.966L222.084 226.883C221.478 226.774 220.854 226.85 220.291 227.101C219.39 227.503 218.622 228.154 218.077 228.977C217.947 229.157 217.827 229.347 217.707 229.542C217.674 229.593 217.646 229.653 217.619 229.704C220.847 230.362 224.048 231.27 226.943 232.998Z" fill="#346F93"/>
<path d="M214.677 229.12C214.779 228.935 214.885 228.75 214.997 228.578C215.419 227.909 215.982 227.34 216.646 226.911C217.232 226.543 217.92 226.372 218.61 226.42C218.61 226.42 217.864 226.355 216.757 226.299C216.196 226.299 215.548 226.267 214.849 226.262C214.149 226.258 213.413 226.285 212.671 226.332C211.189 226.415 209.711 226.587 208.609 226.758L207.275 226.985C206.95 227.036 206.77 227.082 206.77 227.082L206.334 227.175C205.819 227.294 205.341 227.539 204.944 227.888C206.575 228.013 208.187 228.273 209.762 228.532C211.412 228.616 213.054 228.813 214.677 229.12Z" fill="#346F93"/>
<path d="M237.922 275.365C238.205 275.386 238.488 275.386 238.77 275.365C240.479 273.975 241.781 272.016 242.846 269.987C241.919 269.614 240.971 269.295 240.007 269.033C238.813 268.713 237.604 268.453 236.384 268.255C235.611 270.297 234.425 272.424 235.069 274.536C235.936 275.046 236.917 275.331 237.922 275.365Z" fill="#346F93"/>
<path d="M243.921 267.416L244.051 267.458C244.172 267.194 244.287 266.934 244.399 266.675C245.019 265.239 245.57 263.766 246.071 262.279C246.265 261.144 246.437 260.004 246.566 258.851C246.627 258.309 246.673 257.767 246.719 257.23C246.381 257.188 246.038 257.155 245.677 257.146C243.885 257.11 242.096 257.297 240.35 257.702C239.845 257.813 239.349 257.934 238.867 258.059C238.865 259.34 238.741 260.618 238.497 261.876C238.19 263.358 237.753 264.811 237.191 266.216C238.261 266.3 239.382 266.425 240.54 266.615L241.128 266.721C241.522 266.795 241.906 266.879 242.282 266.967C242.847 267.106 243.393 267.249 243.921 267.416Z" fill="#346F93"/>
<path d="M201.461 228.972C201.843 228.543 202.332 228.223 202.879 228.046L202.378 228.208C202.063 228.314 201.609 228.439 201.067 228.671C200.65 228.819 200.178 229 199.678 229.204C200.271 229.12 200.863 229.028 201.461 228.972Z" fill="#346F93"/>
<path d="M171.783 317.641C199.793 309.974 219.173 291.607 215.07 276.619C210.967 261.631 184.934 255.697 156.925 263.364C128.915 271.032 109.535 289.399 113.638 304.387C117.741 319.375 143.774 325.309 171.783 317.641Z" fill="#1F4060"/>
<path d="M172.45 320.066C200.46 312.398 219.84 294.032 215.737 279.044C210.271 254.626 183.798 254.91 155.788 262.577C127.779 270.245 107.49 287.905 114.305 306.811C118.408 321.8 144.441 327.734 172.45 320.066Z" fill="#121A26"/>
<path d="M158.13 267.597C130.123 275.268 110.745 293.635 114.85 308.626L124.953 345.527C122.729 337.402 127.408 328.285 136.622 320.415C144.4 313.767 155.411 308.014 168.238 304.503C181.065 300.991 193.466 300.334 203.546 302.089C215.483 304.165 224.155 309.626 226.379 317.751L216.275 280.85C212.157 265.86 186.137 259.93 158.13 267.597Z" fill="#2C5777"/>
<path d="M203.819 277.297C203.082 273.979 201.323 270.976 198.789 268.71C196.255 266.445 193.074 265.031 189.695 264.669C180.365 263.645 169.41 264.53 158.134 267.615C146.396 270.83 136.177 275.921 128.566 281.86C126.337 283.599 124.672 285.958 123.781 288.641C122.89 291.325 122.812 294.211 123.559 296.938C125.273 303.197 127.63 311.762 129.33 318.247C129.523 318.98 129.9 319.652 130.424 320.199C130.949 320.746 131.604 321.15 132.329 321.373C133.053 321.596 133.822 321.631 134.564 321.474C135.305 321.317 135.995 320.973 136.566 320.475L136.626 320.424C144.404 313.777 155.415 308.024 168.242 304.512C181.069 301.001 193.47 300.343 203.55 302.099H203.615C204.261 302.22 204.928 302.179 205.554 301.98C206.181 301.781 206.749 301.431 207.208 300.959C207.666 300.488 208.001 299.911 208.183 299.279C208.364 298.647 208.386 297.979 208.247 297.337C207.001 291.727 205.209 283.648 203.819 277.297Z" fill="#346F93"/>
<path d="M172.05 264.859C167.349 265.429 162.696 266.344 158.13 267.597C157.667 267.722 158.246 267.847 157.805 267.977C160.52 280.447 164.147 292.681 167.603 304.966C168.145 304.809 167.686 304.651 168.238 304.503C173.021 303.185 177.9 302.243 182.83 301.686C178.73 289.577 175.862 277.07 172.05 264.859Z" fill="#468CAF"/>
<path d="M145.252 272.118C141.527 273.722 137.926 275.599 134.477 277.732C136.075 284.982 140.962 307.088 143.783 315.797C147.383 313.406 150.412 311.206 154.795 309.27C151.265 296.98 147.851 284.621 145.252 272.118Z" fill="#468CAF"/>
<path d="M188.833 292.843L188.75 292.626C186.707 287.221 182.66 282.812 177.449 280.317C172.238 277.821 166.265 277.431 160.774 279.229C155.283 281.026 150.696 284.871 147.969 289.965C145.242 295.058 144.584 301.007 146.132 306.574V306.634C146.605 308.331 146.528 310.135 145.913 311.787C145.297 313.438 144.173 314.851 142.704 315.824C129.553 324.566 122.257 335.744 124.93 345.527C129.034 360.518 155.068 366.452 183.075 358.78C211.082 351.109 230.46 332.742 226.355 317.756C223.905 308.806 213.64 303.085 199.807 301.543C197.352 301.252 195.025 300.285 193.087 298.749C191.149 297.213 189.676 295.168 188.833 292.843Z" fill="#1F4060"/>
<path d="M205.713 305.091C199.756 303.586 190.765 304.683 186.656 293.556C184.83 288.703 181.205 284.74 176.533 282.49C171.862 280.241 166.503 279.878 161.57 281.476C156.638 283.075 152.511 286.513 150.047 291.076C147.584 295.638 146.973 300.975 148.342 305.976C148.74 307.43 150.556 313.179 143.343 318.441C140.871 320.17 138.512 322.055 136.279 324.084C128.811 331.167 125.648 338.541 127.375 344.855L130.211 355.204L130.396 354.574C134.333 342.067 151.121 329.235 173.342 323.148C195.564 317.061 216.544 319.539 226.309 328.308L226.772 328.772L225.003 322.286L223.937 318.404C222.228 312.104 215.692 307.597 205.713 305.091Z" fill="#121A26"/>
<path d="M168.187 316.116C175.929 316.116 182.204 309.84 182.204 302.099C182.204 294.357 175.929 288.081 168.187 288.081C160.445 288.081 154.169 294.357 154.169 302.099C154.169 309.84 160.445 316.116 168.187 316.116Z" fill="#1F4060"/>
<path d="M167.788 314.661C175.53 314.661 181.806 308.386 181.806 300.644C181.806 292.902 175.53 286.626 167.788 286.626C160.047 286.626 153.771 292.902 153.771 300.644C153.771 308.386 160.047 314.661 167.788 314.661Z" fill="#2C5777"/>
<path d="M167.788 308.663C172.217 308.663 175.807 305.073 175.807 300.644C175.807 296.216 172.217 292.625 167.788 292.625C163.36 292.625 159.77 296.216 159.77 300.644C159.77 305.073 163.36 308.663 167.788 308.663Z" fill="#121A26"/>
<path d="M167.789 307.301C171.465 307.301 174.445 304.321 174.445 300.644C174.445 296.968 171.465 293.987 167.789 293.987C164.112 293.987 161.132 296.968 161.132 300.644C161.132 304.321 164.112 307.301 167.789 307.301Z" fill="#43E0BB"/>
<path d="M165.315 302.979C165.372 302.81 165.389 302.63 165.364 302.453C165.34 302.276 165.276 302.107 165.176 301.96C164.951 301.535 164.822 301.066 164.797 300.586C164.772 300.106 164.852 299.626 165.032 299.18C165.191 298.783 165.442 298.428 165.764 298.145C166.086 297.863 166.47 297.66 166.885 297.554C167.054 297.524 167.211 297.447 167.338 297.332C167.466 297.218 167.559 297.07 167.608 296.906C167.662 296.737 167.67 296.557 167.63 296.384C167.591 296.211 167.505 296.052 167.383 295.923C167.261 295.795 167.106 295.701 166.935 295.653C166.764 295.605 166.584 295.604 166.413 295.65C165.19 295.985 164.132 296.757 163.439 297.818C162.746 298.88 162.466 300.159 162.651 301.413C162.747 302.051 162.959 302.667 163.276 303.229C163.388 303.412 163.548 303.56 163.74 303.656C163.932 303.751 164.148 303.79 164.361 303.767C164.574 303.745 164.776 303.662 164.944 303.529C165.113 303.396 165.239 303.218 165.31 303.016L165.315 302.979Z" fill="#BCF8EA"/>
<path d="M171.119 300.487C170.875 300.647 170.699 300.891 170.623 301.172C170.472 301.719 170.174 302.214 169.762 302.604C169.618 302.746 169.514 302.922 169.458 303.116C169.402 303.309 169.397 303.514 169.442 303.711V303.739C169.491 303.947 169.594 304.139 169.742 304.295C169.89 304.45 170.077 304.563 170.283 304.621C170.489 304.68 170.707 304.682 170.914 304.628C171.122 304.574 171.311 304.465 171.462 304.313C172.186 303.589 172.683 302.67 172.893 301.668C172.935 301.445 172.91 301.214 172.822 301.005C172.734 300.795 172.586 300.616 172.397 300.491C172.208 300.365 171.986 300.297 171.759 300.297C171.531 300.296 171.309 300.362 171.119 300.487Z" fill="#BCF8EA"/>
<path d="M119.463 304.262C124.406 310.358 124.05 326.497 120.177 328.082L112.862 300.218C115.03 299.532 115.137 298.921 119.463 304.262Z" fill="#121A26"/>
<path d="M173.343 323.157C151.107 329.244 134.334 342.062 130.396 354.583C129.355 357.682 129.239 361.018 130.063 364.182L133.69 377.425C137.794 392.416 163.828 398.345 191.835 390.679C219.842 383.012 239.22 364.64 235.115 349.65L231.488 336.406C230.584 333.264 228.785 330.454 226.309 328.318C216.544 319.549 195.564 317.07 173.343 323.157Z" fill="#2C5777"/>
<path d="M159.552 345.75C166.315 343.267 177.679 340.316 184.799 339.223C197.718 337.231 211.147 336.823 224.049 339.292C223.076 334.363 222.052 329.444 220.774 324.594C209.772 318.979 191.997 318.048 173.343 323.158C160.798 326.59 149.996 332.172 142.25 338.634C141.063 339.621 140.181 340.925 139.706 342.394C139.231 343.863 139.183 345.436 139.568 346.931C139.812 347.876 140.047 348.824 140.272 349.775C140.419 350.394 140.713 350.968 141.13 351.448C141.546 351.928 142.072 352.301 142.663 352.534C143.255 352.768 143.894 352.855 144.526 352.788C145.158 352.721 145.765 352.503 146.294 352.152C150.352 349.419 154.948 347.441 159.552 345.75Z" fill="#346F93"/>
<path d="M161.989 327.03C157.605 328.83 153.382 331 149.366 333.515C150.991 338.314 152.479 343.165 153.952 348.015C155.805 347.195 157.657 346.454 159.552 345.763C161.993 344.869 165.037 343.91 168.261 342.984C166.232 337.643 164.268 332.269 161.989 327.03Z" fill="#468CAF"/>
<path d="M191.813 390.807C219.823 383.139 239.203 364.773 235.1 349.785C230.996 334.797 204.964 328.863 176.954 336.53C148.945 344.198 129.565 362.564 133.668 377.553C137.771 392.541 163.803 398.475 191.813 390.807Z" fill="#1F4060"/>
<path d="M221.422 366.84C213.834 374.03 202.628 379.913 189.866 383.41C177.104 386.908 164.444 387.547 154.252 385.231C145.974 383.345 140.258 379.607 138.289 374.868C138.345 375.285 138.427 375.698 138.535 376.105C139.985 381.404 145.947 385.615 154.915 387.654C165.106 389.97 177.743 389.33 190.505 385.838C203.267 382.345 214.478 376.457 222.061 369.268C228.727 362.945 231.72 356.297 230.27 350.984C230.155 350.579 230.016 350.181 229.853 349.793C230.571 354.87 227.56 360.999 221.422 366.84Z" fill="#346F93"/>
<path d="M154.253 385.231C164.444 387.547 177.081 386.908 189.843 383.415C202.605 379.922 213.811 374.035 221.399 366.845C227.56 361.004 230.571 354.875 229.853 349.793C227.884 345.059 222.168 341.316 213.89 339.431C203.698 337.115 191.061 337.754 178.299 341.251C165.537 344.749 154.327 350.627 146.744 357.821C140.583 363.658 137.567 369.791 138.29 374.868C140.258 379.603 145.975 383.341 154.253 385.231Z" fill="#1F4060"/>
<path d="M145.998 380.108C157.542 383.17 168.581 380.228 177.113 374.692C180.495 372.501 183.77 370.06 187.708 368.962C192.169 367.702 196.917 368.286 201.493 368.207C207.71 368.096 213.274 366.127 218.869 364.038C221.417 362.699 223.988 361.397 226.601 360.193C226.761 360.117 226.927 360.052 227.097 359.999C229.325 356.404 230.293 352.902 229.853 349.807C227.884 345.073 222.168 341.33 213.89 339.445C203.698 337.129 191.061 337.768 178.299 341.265C165.537 344.763 154.331 350.641 146.744 357.835C140.583 363.672 137.567 369.805 138.29 374.882C139.16 377.768 142.704 379.237 145.998 380.108Z" fill="#192F44"/>
<path d="M178.929 362.532C180.815 369.43 173.042 374.66 164.615 376.972C156.189 379.283 148.101 376.555 146.549 370.889C144.997 365.224 150.57 358.762 158.996 356.455C167.422 354.148 177.382 356.844 178.929 362.532Z" fill="#121A26"/>
<path d="M208.631 365.02C217.057 362.713 222.631 356.25 221.08 350.585C219.529 344.919 211.441 342.196 203.014 344.503C194.587 346.81 189.013 353.273 190.564 358.939C192.115 364.604 200.204 367.327 208.631 365.02Z" fill="#121A26"/>
<path d="M143.413 234.628L152.803 232.057L145.451 217.785C145.286 217.462 145.014 217.205 144.682 217.059C144.35 216.912 143.978 216.885 143.628 216.98C143.278 217.076 142.971 217.289 142.76 217.584C142.549 217.879 142.446 218.238 142.468 218.6L143.413 234.628Z" fill="#346F93"/>
<path d="M141.987 245.512C150.954 243.083 157.17 237.224 155.87 232.425C154.57 227.626 146.247 225.704 137.28 228.133C128.313 230.561 122.098 236.42 123.397 241.219C124.697 246.019 133.02 247.94 141.987 245.512Z" fill="#346F93"/>
<path d="M159.742 231.821C159.111 230.535 158.409 229.285 157.639 228.078C156.439 226.321 155.064 224.69 153.535 223.209C150.902 223.215 148.283 223.576 145.748 224.284C143.584 224.87 141.492 225.697 139.512 226.748C139.477 229.298 139.599 231.848 139.878 234.383C140.115 236.861 139.851 240.02 140.453 242.693C143.84 243.005 147.255 242.691 150.528 241.767C154.971 240.548 158.732 238.496 161.252 236.152C160.798 234.712 160.307 233.252 159.742 231.821Z" fill="#468CAF"/>
<path d="M144.477 218.795C144.379 218.435 144.008 218.223 143.648 218.321C143.289 218.419 143.078 218.791 143.177 219.151L144.237 223.025C144.336 223.385 144.707 223.598 145.066 223.5C145.425 223.401 145.636 223.03 145.538 222.669L144.477 218.795Z" fill="#468CAF"/>
<path d="M156.935 263.238C184.942 255.567 210.976 261.501 215.08 276.486L211.407 263.085C207.723 249.635 198.849 238.2 186.734 231.293C174.62 224.387 160.258 222.576 146.808 226.258C133.359 229.942 121.923 238.818 115.017 250.933C108.11 263.048 106.299 277.41 109.981 290.861L113.655 304.262C109.55 289.276 128.928 270.909 156.935 263.238Z" fill="#2C5777"/>
<path d="M113.108 302.261L113.655 304.262C113.486 303.642 113.356 303.012 113.265 302.377L113.108 302.261Z" fill="#346F93"/>
<path d="M190.075 233.364C183.802 229.13 176.687 226.303 169.219 225.076C161.751 223.85 154.106 224.253 146.808 226.258C134.229 229.685 123.381 237.683 116.388 248.687C114.623 252.393 113.298 259.31 113.52 266.666C113.572 268.607 114.147 270.498 115.185 272.14C116.223 273.781 117.685 275.111 119.417 275.99C121.149 276.868 123.086 277.263 125.024 277.131C126.961 276.999 128.827 276.345 130.424 275.24C137.627 270.27 146.702 266.04 156.935 263.238C168.015 260.204 178.786 259.3 188.009 260.241C189.738 260.415 191.483 260.139 193.074 259.438C194.665 258.737 196.047 257.635 197.085 256.241C198.123 254.847 198.782 253.207 198.998 251.482C199.214 249.757 198.979 248.006 198.316 246.399C196.722 242.494 194.147 238.079 190.075 233.364Z" fill="#346F93"/>
<path d="M143.001 229.774C141.889 230.237 140.782 230.677 139.712 231.122C136.651 232.392 134.051 234.566 132.257 237.353C130.464 240.139 129.562 243.407 129.673 246.719C129.87 252.72 130.467 258.701 131.462 264.623C131.962 267.583 132.546 270.515 133.18 273.424C136.97 271.076 140.942 269.034 145.058 267.319C142.959 257.999 140.958 248.66 139.36 239.247C141.912 237.607 149.421 234.79 150.44 234.54C152.085 244.217 154.29 253.783 156.5 263.354L156.935 263.229C161.695 261.919 166.548 260.979 171.453 260.417C169.336 253.278 167.223 246.13 164.592 239.21C163.814 237.158 162.633 235.282 161.12 233.692C159.607 232.103 157.791 230.831 155.78 229.952C153.769 229.073 151.603 228.605 149.409 228.574C147.214 228.543 145.036 228.951 143.001 229.774Z" fill="#468CAF"/>
<path d="M148.383 233.289C133.754 237.292 122.827 246.825 119.908 258.304C119.301 260.708 119.792 263.933 121.845 265.85C123.489 267.384 126.315 265.823 128.543 264.345C134.042 260.708 142.403 256.349 154.165 253.13C162.95 250.725 172.049 249.663 181.153 249.98C183.877 250.082 186.92 249.781 187.638 247.594C188.5 244.958 187.091 242.035 185.396 240.354C177.192 232.127 163.054 229.255 148.383 233.289Z" fill="#1F4060"/>
<path d="M149.046 235.694C134.417 239.696 123.489 249.229 120.571 260.708C119.306 265.702 124.911 269.593 129.206 266.73C134.704 263.094 143.066 258.735 154.827 255.516C163.613 253.111 172.712 252.049 181.815 252.366C186.939 252.555 189.69 246.343 186.054 242.739C177.878 234.549 163.698 231.677 149.046 235.694Z" fill="#121A26"/>
<path d="M132.1 255.062C133.407 254.316 134.829 253.584 136.334 252.889C137.659 252.278 138.956 251.74 140.212 251.272C140.212 251.272 140.212 251.272 140.212 251.24C139.336 249.336 136.802 248.632 134.556 249.665C132.309 250.698 131.197 253.088 132.077 254.992C132.073 255.029 132.091 255.062 132.1 255.062Z" fill="#43E0BB"/>
<path d="M171.884 244.185C170.378 244.185 168.784 244.296 167.131 244.467C165.685 244.616 164.291 244.815 162.962 245.051C162.962 245.051 162.962 245.028 162.962 245.019C162.749 242.929 164.569 241.035 167.033 240.78C169.498 240.525 171.666 242.017 171.879 244.101L171.884 244.185Z" fill="#43E0BB"/>
<path d="M251.732 405.224C251.732 409.046 241.939 412.14 229.862 412.14C217.786 412.14 207.988 409.046 207.988 405.224V399.309C207.988 399.309 221.302 398.308 229.862 398.308C238.631 398.308 251.732 399.309 251.732 399.309V405.224Z" fill="#1F4060"/>
<path d="M217.253 398.725C214.811 398.855 212.62 398.994 210.953 399.105C210.953 401.393 211.022 408.032 211.027 408.74C212.847 409.65 214.773 410.328 216.762 410.76C216.85 408.856 217.091 400.842 217.253 398.725Z" fill="#346F93"/>
<path d="M248.92 399.128C247.794 399.054 246.4 398.966 244.834 398.873C244.88 401.444 244.792 404.024 244.797 406.591C244.797 407.818 244.829 409.046 244.866 410.269C246.337 409.856 247.754 409.274 249.091 408.536C248.947 405.386 248.971 402.223 248.92 399.128Z" fill="#346F93"/>
<path d="M229.056 398.313C227.407 398.313 225.623 398.369 223.803 398.429C223.757 402.918 223.803 407.393 223.877 411.863C225.424 412.002 227.046 412.085 228.713 412.113C228.56 407.527 228.899 402.834 229.056 398.313Z" fill="#346F93"/>
<path d="M229.862 406.225C241.94 406.225 251.732 403.129 251.732 399.309C251.732 395.489 241.94 392.393 229.862 392.393C217.784 392.393 207.993 395.489 207.993 399.309C207.993 403.129 217.784 406.225 229.862 406.225Z" fill="#468CAF"/>
<path d="M230.228 402.783C239.236 402.783 246.539 400.663 246.539 398.049C246.539 395.434 239.236 393.314 230.228 393.314C221.22 393.314 213.917 395.434 213.917 398.049C213.917 400.663 221.22 402.783 230.228 402.783Z" fill="#121A26"/>
<path d="M244.584 386.82C244.806 386.613 244.981 386.362 245.099 386.083C245.217 385.803 245.275 385.502 245.269 385.199C245.228 382.619 245.149 379.816 245.001 376.925C244.95 376.583 245.001 375.318 244.95 374.966C244.862 374.22 244.514 374.313 243.889 373.831C244.14 373.602 244.338 373.321 244.469 373.007C244.599 372.693 244.659 372.355 244.644 372.015C244.301 367.674 243.787 362.236 242.99 358.308C242.949 358.243 240.855 358.252 240.869 358.252C242.722 356.946 242.221 356.094 241.86 354.866C241.633 354.088 241.397 353.337 241.128 352.629C240.358 350.511 239.429 348.455 238.349 346.477C238.006 345.916 237.075 345.087 234.133 345.17C234.744 344.968 235.391 344.9 236.031 344.97C236.67 345.04 237.287 345.248 237.839 345.578C232.516 336.499 224.03 330.537 211.898 330.537C200.317 330.537 191.006 339.658 191.006 355.237C191.006 357.493 193.169 364.066 202.184 364.066C208.882 364.066 211.314 362.157 211.314 362.157C211.314 362.157 211.388 362.31 211.513 362.621C211.668 362.968 211.906 363.271 212.205 363.505C212.505 363.738 212.858 363.894 213.232 363.959L214.302 364.135C214.793 364.223 212.949 365.659 212.986 365.845C213.773 368.288 214.399 370.779 214.863 373.303C214.935 373.692 215.099 374.058 215.341 374.371C215.582 374.684 215.895 374.936 216.252 375.105H216.28C216.013 375.213 215.781 375.39 215.607 375.62C215.433 375.849 215.325 376.121 215.293 376.407C215.354 377.111 215.409 378.065 215.409 378.76V384.916C215.41 385.421 215.556 385.915 215.831 386.338L215.395 387.909V397.261C215.395 399.712 223.173 401.116 231.294 401.116C239.595 401.116 245.242 398.836 245.242 397.261C245.242 395.552 245.242 392.166 245.242 388.052C245.077 387.614 244.856 387.2 244.584 386.82Z" fill="#2C5777"/>
<path d="M231.409 374.475C231.46 376.485 231.46 378.496 231.442 380.497C231.436 381.097 231.554 381.692 231.788 382.244C232.022 382.797 232.366 383.296 232.8 383.71C233.235 384.125 233.749 384.445 234.312 384.653C234.875 384.86 235.475 384.95 236.074 384.916H236.213C237.363 384.851 238.442 384.336 239.215 383.482C239.989 382.628 240.395 381.504 240.345 380.353C240.225 377.741 240.072 375.128 239.919 372.515C239.766 369.903 239.632 367.985 239.396 365.419C239.132 362.95 238.667 360.506 238.006 358.113C237.492 356.163 236.894 353.944 235.792 352.856C234.689 351.767 233.378 351.058 231.535 351.466C230.145 351.767 229.441 352.856 229.251 354.597C229.089 356.112 229.279 357.377 229.547 359.535C230.098 364.112 231.275 369.481 231.409 374.475Z" fill="#346F93"/>
<path d="M234.754 341.108C229.441 334.581 221.908 330.514 211.879 330.514C200.298 330.514 190.987 339.635 190.987 355.214C190.987 357.104 192.516 362.037 198.334 363.552C198.585 362.454 199.469 358.456 202.304 356.631C205.839 354.347 208.637 356.075 210.096 358.674C210.364 359.148 210.588 359.646 210.763 360.161C210.902 360.494 211.453 362.477 211.495 362.556C211.65 362.903 211.887 363.206 212.187 363.44C212.487 363.673 212.839 363.83 213.214 363.895L214.284 364.071C214.775 364.159 212.931 365.595 212.968 365.78C213.754 368.223 214.381 370.714 214.844 373.238C214.917 373.627 215.081 373.993 215.322 374.306C215.564 374.62 215.876 374.871 216.234 375.04H216.262C215.995 375.148 215.762 375.326 215.589 375.555C215.415 375.784 215.307 376.056 215.275 376.342C215.335 377.046 215.391 378 215.391 378.695V384.851C215.391 385.356 215.538 385.85 215.812 386.274L215.377 387.844V397.197C215.377 399.05 219.736 400.277 225.327 400.791C225.373 397.424 225.489 394.051 225.327 390.711C224.952 382.702 224.517 374.253 222.599 366.447C220.838 359.281 218.814 351.461 223.812 345.059C226.911 341.178 230.858 340.237 234.754 341.108Z" fill="#1F4060"/>
<path d="M205.941 349.015C209.989 348.446 211.036 343.151 214.812 340.348C220.097 336.42 224.363 335.364 230.325 336.693C225.494 332.807 219.393 330.514 211.879 330.514C210.295 330.512 208.716 330.693 207.173 331.051C204.606 333.741 202.957 337.173 202.462 340.858C201.679 346.389 204.574 349.205 205.941 349.015Z" fill="#192F44"/>
<path d="M244.584 386.82C239.674 390.897 220.333 390.582 215.863 386.311C215.684 386.761 215.543 387.226 215.442 387.7C215.344 388.442 215.761 388.909 216.41 389.28C219.847 391.249 225.675 392.059 231.09 392.059C236.033 392.059 240.568 391.207 243.792 389.743C244.959 389.211 245.566 388.423 245.121 387.497C244.981 387.243 244.8 387.014 244.584 386.82Z" fill="#121A26"/>
<path d="M244.899 374.707C244.783 374.202 244.019 373.715 243.87 373.831C241.763 375.448 237.107 376.61 230.969 376.981C224.831 377.352 219.694 377.06 216.275 375.077C216.275 375.077 215.414 375.198 215.266 375.93C215.117 376.661 216.164 377.287 216.896 377.611C219.615 378.82 224.215 379.195 227.486 379.195C229.038 379.195 230.325 379.14 231.122 379.093C235.477 378.829 239.794 378.06 243.166 376.648C243.875 376.351 245.019 375.633 244.936 374.864C244.927 374.811 244.914 374.758 244.899 374.707Z" fill="#121A26"/>
<path d="M241.971 357.173C239.465 359.999 234.467 361.518 229.255 362.783C223.266 364.242 217.781 364.437 214.284 364.094C213.855 364.246 213.474 364.506 213.176 364.849C212.736 365.391 212.871 365.993 213.436 366.09C214.4 366.252 215.377 366.323 216.354 366.303C221.515 366.303 226.11 365.803 229.853 364.807C235.356 363.348 240.767 361.611 242.629 359.327C243.63 358.095 242.184 356.932 241.971 357.173Z" fill="#121A26"/>
<path d="M211.138 361.245C211.138 361.245 210.239 358.664 211.078 356.825C212.977 352.656 217.457 348.561 221.505 346.491C226.397 343.989 230.089 343.169 234.36 343.651C236.936 343.943 237.834 345.555 237.834 345.555C237.931 345.709 237.989 345.883 238.006 346.064C237.41 345.681 236.722 345.467 236.014 345.444C226.379 344.434 211.814 353.805 211.138 361.245Z" fill="#121A26"/>
<path d="M211.045 360.406C209.406 360.147 202.244 350.725 207.983 339.639C209.702 336.327 213.417 333.617 216.785 332.797C218.629 332.353 220.545 332.298 222.411 332.636C224.277 332.973 226.053 333.696 227.625 334.757C227.592 334.757 225.938 333.367 221.603 333.552C215.826 333.803 211.61 337.722 209.795 341.177C205.162 350.025 209.466 358.757 211.055 359.549L211.045 360.406Z" fill="#121A26"/>
<path d="M205.148 359.716C199.747 358.368 196.254 353.694 195.286 349.761C191.932 336.137 203.073 332.556 203.073 332.556C201.134 333.552 199.539 335.106 198.492 337.017C195.888 341.571 196.546 348.719 199.103 352.855C200.338 354.859 202.039 356.533 204.063 357.734C206.086 358.936 208.371 359.628 210.721 359.753L211.045 360.429C210.999 360.411 208.831 360.638 205.148 359.716Z" fill="#121A26"/>
<path d="M249.049 300.172C252.866 300.288 255.664 310.168 255.298 322.24C254.932 334.312 251.541 344.012 247.724 343.892L241.809 343.716C241.809 343.716 241.216 330.375 241.475 321.823C241.739 313.054 243.138 299.991 243.138 299.991L249.049 300.172Z" fill="#1F4060"/>
<path d="M241.508 334.442C241.563 336.883 241.633 339.097 241.693 340.746L251.324 340.969C252.29 339.177 253.028 337.27 253.52 335.294C251.634 335.146 243.62 334.664 241.508 334.442Z" fill="#346F93"/>
<path d="M242.851 302.798C242.745 303.915 242.61 305.309 242.471 306.87C245.042 306.907 247.623 307.069 250.184 307.144C251.412 307.176 252.639 307.185 253.867 307.185C253.498 305.703 252.959 304.268 252.26 302.91C249.124 302.956 245.973 302.84 242.851 302.798Z" fill="#346F93"/>
<path d="M241.452 322.629C241.415 324.274 241.401 326.057 241.41 327.882C245.89 328.063 250.369 328.146 254.844 328.216C255.03 326.669 255.164 325.052 255.243 323.384C250.647 323.403 245.973 322.921 241.452 322.629Z" fill="#346F93"/>
<path d="M249.43 322.085C249.797 310.013 246.999 300.132 243.181 300.016C239.363 299.9 235.971 309.593 235.604 321.665C235.237 333.738 238.035 343.619 241.853 343.735C245.671 343.851 249.063 334.158 249.43 322.085Z" fill="#468CAF"/>
<path d="M246.002 321.608C246.276 312.604 244.379 305.241 241.766 305.161C239.152 305.082 236.812 312.316 236.538 321.32C236.265 330.324 238.162 337.688 240.775 337.767C243.389 337.847 245.729 330.612 246.002 321.608Z" fill="#121A26"/>
<path d="M240.081 306.532C236.375 306.532 231.692 306.245 226.967 305.981C226.792 305.98 226.621 306.033 226.477 306.131C226.332 306.23 226.22 306.369 226.156 306.532C225.82 306.273 225.438 306.08 225.03 305.962C220.607 305.545 210.994 305.281 208.243 306.425C207.713 306.476 207.179 306.404 206.682 306.217C201.646 306.875 192.201 308.996 188.727 311.345C187.916 311.891 187.064 311.419 186.327 311.623C181.176 314.231 175.209 317.844 170.915 321.508C170.276 322.034 169.725 322.66 169.285 323.361C168.539 324.102 167.149 324.575 166.968 324.751C163.304 328.36 160.005 332.323 157.12 336.582C156.739 337.15 156.49 337.796 156.388 338.472C156.389 338.484 156.389 338.497 156.388 338.509C155.786 339.57 155.387 339.218 154.683 340.214C152.484 344.07 150.624 348.111 149.124 352.29C148.886 352.981 148.779 353.71 148.81 354.44C148.81 354.5 148.81 354.56 148.81 354.625C148.81 354.69 147.855 356.112 147.55 356.761C147.126 358.728 146.817 360.719 146.623 362.722C146.442 364.112 145.724 368.879 148.041 371.881C152.705 377.903 164.671 376.592 171.791 372.381C173.157 371.583 174.404 370.598 175.497 369.453C176.635 368.266 177.36 366.744 177.567 365.113C177.6 364.816 177.641 364.52 177.688 364.228C177.688 364.094 177.688 363.959 177.688 363.834C177.731 363.441 177.692 363.044 177.572 362.667C177.565 362.66 177.562 362.651 177.562 362.641C177.562 362.632 177.565 362.623 177.572 362.616C177.809 362.356 178.011 362.066 178.174 361.754C178.589 360.127 179.15 358.541 179.851 357.015L179.879 356.932C180.018 356.39 180.115 355.834 180.231 355.287H180.259C180.587 354.94 180.949 354.657 181.264 354.301C182.591 352.053 184.158 349.956 185.938 348.047C186.071 347.63 186.324 347.261 186.665 346.986C186.957 346.81 187.235 346.62 187.513 346.421C189.907 344.116 192.537 342.07 195.36 340.316C195.86 339.82 196.087 339.181 196.856 339.051C197.323 338.967 197.778 338.83 198.214 338.643C199.535 337.93 200.868 337.285 202.211 336.707C204.075 335.895 206.001 335.232 207.969 334.724H207.613C207.608 334.722 207.604 334.719 207.601 334.714C207.598 334.71 207.596 334.704 207.596 334.699C207.596 334.694 207.598 334.688 207.601 334.684C207.604 334.679 207.608 334.676 207.613 334.673C208.371 334.63 209.083 334.299 209.605 333.747C209.654 333.698 209.721 333.671 209.79 333.671C209.859 333.671 209.926 333.698 209.975 333.747C210.133 333.883 210.318 333.983 210.518 334.04C210.718 334.097 210.928 334.109 211.133 334.076C215.117 333.441 219.421 333.437 225.03 333.812C225.422 333.732 225.809 333.63 226.189 333.506C226.309 333.446 226.441 333.411 226.576 333.404C226.71 333.397 226.845 333.417 226.971 333.464C227.024 333.484 227.074 333.511 227.12 333.543C227.556 333.837 228.056 334.022 228.579 334.085C230.307 334.233 235.328 334.683 238.696 334.896C239.549 334.95 240.394 334.7 241.082 334.192C241.769 333.683 242.255 332.948 242.453 332.116C244.537 323.417 244.394 306.532 240.081 306.532Z" fill="#2C5777"/>
<path d="M243.764 318.344C243.051 320.813 240.813 321.656 238.77 322.05C231.924 323.306 216.424 319.896 202.045 324.44C192.317 327.507 175.057 334.632 166.732 355.431C164.625 360.693 161.734 367.322 155.327 368.272C151.112 368.897 147.397 366.275 146.438 364.371C146.276 366.442 146.313 369.652 148.041 371.894C152.706 377.916 164.671 376.606 171.791 372.395C173.305 371.512 174.67 370.396 175.835 369.087C176.801 367.974 177.402 366.592 177.558 365.126C177.591 364.83 177.632 364.534 177.679 364.242C177.679 364.107 177.679 363.973 177.679 363.848C177.722 363.455 177.683 363.057 177.563 362.681C177.556 362.674 177.553 362.665 177.553 362.655C177.553 362.646 177.556 362.637 177.563 362.63C177.8 362.37 178.002 362.08 178.165 361.768C178.58 360.141 179.141 358.555 179.842 357.029L179.87 356.946C180.009 356.404 180.106 355.848 180.222 355.301H180.25C180.579 354.954 180.94 354.671 181.255 354.315C182.581 352.067 184.149 349.97 185.929 348.061C186.062 347.644 186.315 347.275 186.656 347C186.948 346.824 187.226 346.634 187.504 346.435C189.898 344.13 192.528 342.083 195.351 340.329C195.851 339.834 196.078 339.195 196.847 339.065C197.314 338.981 197.769 338.844 198.205 338.657C199.526 337.944 200.859 337.298 202.202 336.721C204.066 335.909 205.992 335.246 207.96 334.738H207.604C207.599 334.736 207.595 334.732 207.592 334.728C207.589 334.723 207.587 334.718 207.587 334.713C207.587 334.707 207.589 334.702 207.592 334.697C207.595 334.693 207.599 334.689 207.604 334.687C208.362 334.644 209.074 334.312 209.596 333.761C209.645 333.712 209.712 333.685 209.781 333.685C209.85 333.685 209.917 333.712 209.966 333.761C210.123 333.897 210.309 333.997 210.509 334.054C210.709 334.111 210.919 334.123 211.124 334.09C215.108 333.455 219.412 333.45 225.021 333.826C225.413 333.745 225.799 333.643 226.179 333.52C226.3 333.46 226.432 333.425 226.567 333.418C226.701 333.41 226.836 333.431 226.962 333.478C227.039 333.508 227.11 333.549 227.175 333.599C227.564 333.877 228.02 334.047 228.496 334.09C230.284 334.247 235.662 334.724 239.099 334.923C239.895 334.971 240.682 334.741 241.328 334.274C241.974 333.808 242.438 333.132 242.643 332.362C243.81 328.072 243.926 321.944 243.764 318.344Z" fill="#1F4060"/>
<path d="M176.419 327.201C175.492 325.867 173.482 326.558 170.619 328.591C168.131 330.481 169.067 329.638 166.584 332.399C164.391 334.772 162.428 337.346 160.719 340.089C158.714 343.229 156.805 346.231 155.888 349.895C155.281 352.327 155.462 354 156.56 355.098C157.657 356.195 159.237 355.098 160.029 354.129C161.419 352.471 162.971 348.747 164.499 346.254C166.816 342.516 169.451 338.379 172.398 335.137C173.5 333.914 173.116 334.113 174.714 332.357C175.622 331.403 177.484 328.767 176.419 327.201Z" fill="#346F93"/>
<path d="M198.149 317.293C202.318 317.112 205.463 316.505 210.313 316.144C214.818 315.809 219.339 315.77 223.849 316.028C226.911 316.204 230.39 316.598 232.016 316.139C232.465 316.008 232.869 315.753 233.182 315.405C233.494 315.056 233.703 314.627 233.785 314.166C233.971 313.165 233.836 311.961 233.109 311.238C230.469 308.593 214.899 308.626 206.302 309.918C203.161 310.381 199.58 310.641 196.889 312.396C194.818 313.744 195.823 317.395 198.149 317.293Z" fill="#346F93"/>
<path d="M177.683 362.477C174.042 365.122 167.835 366.183 164.347 366.16C157.361 366.099 149.166 362.718 148.791 354.62C148.271 354.992 147.891 355.527 147.712 356.14C147.679 356.218 147.651 356.307 147.624 356.395C147.385 357.226 147.338 358.102 147.485 358.954C147.633 359.807 147.972 360.615 148.476 361.319C151.686 365.951 157.908 368.165 163.893 368.165C173.685 368.165 177.197 364.418 177.692 363.904C178.42 363.088 177.757 362.398 177.683 362.477Z" fill="#121A26"/>
<path d="M180.435 355.093C176.358 356.825 170.846 355.783 167.075 354.125C160.654 351.299 155.957 345.606 156.36 338.504C156.36 338.384 155.462 338.736 154.97 339.709C154.706 340.237 154.567 341.747 154.776 343.415C155.563 349.543 160.539 353.893 166.547 356.126C173.894 358.859 178.934 357.196 178.999 357.182C179.999 356.969 180.546 356.529 180.462 355.51C180.435 355.093 180.416 355.121 180.435 355.093Z" fill="#121A26"/>
<path d="M186.559 347.042C185.594 346.993 184.635 346.865 183.691 346.657C180.6 346.007 177.678 344.719 175.112 342.877C168.465 338.115 166.199 328.355 169.285 323.375C168.648 323.568 168.042 323.849 167.483 324.209C167.45 324.209 167.418 324.264 167.381 324.297C166.52 325.099 166.009 326.207 165.958 327.382C165.245 334.145 167.872 340.45 173.959 344.781C176.613 346.676 181.435 348.445 185.438 348.445C185.993 348.455 186.559 348.232 186.559 347.042Z" fill="#121A26"/>
<path d="M196.704 339.07C192.9 337.458 188.759 333.117 187.235 330.185C183.752 323.468 182.663 315.25 188.727 311.359C187.798 311.195 186.842 311.358 186.021 311.822C184.632 312.749 183.46 313.471 182.825 315.014C180.578 320.475 182.769 327.169 185.818 331.94C187.772 334.998 191.233 338.63 195.082 340.135C195.944 340.367 196.704 339.866 196.704 339.07Z" fill="#121A26"/>
<path d="M209.327 334.442C209.503 334.412 209.665 334.324 209.785 334.191C209.905 334.058 209.977 333.889 209.989 333.71C207.835 331.556 205.714 327.966 204.708 322.879C203.731 317.923 204.708 308.561 208.243 306.439C207.899 306.315 207.538 306.244 207.173 306.231H207.136C206.526 306.229 205.928 306.396 205.406 306.712C204.885 307.029 204.461 307.482 204.18 308.023C201.771 312.735 201.734 317.895 202.61 322.879C203.254 326.562 205.116 330.722 207.326 333.168C208.59 334.572 209.317 334.446 209.327 334.442Z" fill="#121A26"/>
<path d="M227.171 333.543C224.173 325.932 223.96 317.612 226.156 306.532C226.156 306.532 225.804 306.277 225.61 306.152C224.785 305.642 224.169 306.374 223.96 307.018C221.584 314.365 222.395 326.011 224.465 331.236C224.929 332.417 225.572 334.043 226.837 333.941C227.022 333.914 227.157 333.534 227.171 333.543Z" fill="#121A26"/>
<path d="M110.213 225.051L109.462 220.688C109.11 218.643 108.118 216.763 106.629 215.318C105.139 213.874 103.23 212.94 101.175 212.651C100.914 212.616 100.675 212.488 100.501 212.291C100.328 212.093 100.232 211.839 100.232 211.576C100.232 211.313 100.328 211.059 100.501 210.861C100.675 210.663 100.914 210.536 101.175 210.501C103.23 210.211 105.14 209.276 106.629 207.831C108.119 206.386 109.111 204.505 109.462 202.459L110.213 198.096C110.239 197.936 110.322 197.79 110.446 197.685C110.569 197.58 110.727 197.522 110.889 197.522C111.051 197.522 111.208 197.58 111.332 197.685C111.456 197.79 111.539 197.936 111.565 198.096L112.316 202.348C112.67 204.351 113.639 206.194 115.089 207.621C116.538 209.048 118.396 209.988 120.404 210.311C120.704 210.36 120.977 210.513 121.174 210.744C121.371 210.976 121.479 211.27 121.479 211.574C121.479 211.877 121.371 212.171 121.174 212.403C120.977 212.634 120.704 212.788 120.404 212.836C118.395 213.159 116.537 214.1 115.087 215.528C113.638 216.956 112.669 218.8 112.316 220.804L111.565 225.056C111.538 225.216 111.455 225.361 111.331 225.466C111.207 225.571 111.049 225.628 110.887 225.627C110.725 225.627 110.568 225.568 110.444 225.463C110.321 225.358 110.239 225.212 110.213 225.051Z" fill="#FFAA00"/>
<path d="M153.178 206.204L152.488 202.206C152.166 200.333 151.257 198.61 149.892 197.286C148.528 195.962 146.778 195.106 144.895 194.841C144.66 194.805 144.446 194.685 144.291 194.505C144.136 194.324 144.051 194.094 144.051 193.856C144.051 193.619 144.136 193.388 144.291 193.208C144.446 193.027 144.66 192.908 144.895 192.872C146.777 192.607 148.525 191.751 149.889 190.428C151.253 189.106 152.161 187.384 152.483 185.511L153.173 181.518C153.199 181.373 153.274 181.242 153.387 181.147C153.5 181.052 153.642 181 153.789 181C153.937 181 154.079 181.052 154.192 181.147C154.305 181.242 154.38 181.373 154.406 181.518L155.096 185.414C155.421 187.248 156.31 188.936 157.638 190.243C158.966 191.549 160.668 192.41 162.508 192.705C162.784 192.748 163.036 192.889 163.218 193.101C163.4 193.313 163.5 193.584 163.5 193.863C163.5 194.143 163.4 194.413 163.218 194.626C163.036 194.838 162.784 194.979 162.508 195.021C160.667 195.317 158.965 196.179 157.637 197.486C156.309 198.794 155.42 200.482 155.096 202.317L154.406 206.209C154.377 206.351 154.3 206.479 154.188 206.571C154.076 206.663 153.935 206.712 153.79 206.712C153.645 206.711 153.504 206.66 153.393 206.568C153.281 206.475 153.205 206.346 153.178 206.204Z" fill="#FFAA00"/>
<path d="M194.633 214.57L194.114 211.564C193.876 210.15 193.193 208.849 192.165 207.849C191.137 206.85 189.818 206.204 188.398 206.005C188.221 205.977 188.061 205.887 187.945 205.751C187.829 205.615 187.765 205.442 187.765 205.264C187.765 205.085 187.829 204.912 187.945 204.776C188.061 204.641 188.221 204.551 188.398 204.523C189.817 204.322 191.136 203.676 192.164 202.677C193.191 201.677 193.875 200.377 194.114 198.964L194.633 195.957C194.633 195.834 194.682 195.717 194.769 195.63C194.856 195.543 194.973 195.494 195.096 195.494C195.219 195.494 195.337 195.543 195.424 195.63C195.511 195.717 195.559 195.834 195.559 195.957L196.074 198.89C196.317 200.268 196.983 201.536 197.979 202.52C198.975 203.503 200.251 204.153 201.632 204.379C201.838 204.413 202.026 204.519 202.161 204.678C202.296 204.837 202.37 205.039 202.37 205.247C202.37 205.456 202.296 205.658 202.161 205.817C202.026 205.976 201.838 206.082 201.632 206.116C200.251 206.343 198.974 206.994 197.978 207.978C196.983 208.962 196.317 210.231 196.074 211.61L195.559 214.542C195.563 214.665 195.518 214.784 195.434 214.874C195.349 214.963 195.233 215.016 195.11 215.019C194.987 215.023 194.868 214.978 194.778 214.894C194.689 214.809 194.637 214.693 194.633 214.57Z" fill="#FFAA00"/>
<path d="M121.33 313.804C120.719 307.106 118.384 301.95 114.224 298.054C113.326 297.485 112.747 298.786 112.103 297.327C111.918 296.901 111.38 295.697 110.329 295.141C109.013 294.344 105.307 293.126 101.787 292.301C101.235 292.301 100.536 292.736 99.9336 292.764C99.4104 292.281 98.7931 291.911 98.1203 291.678C97.4476 291.444 96.7339 291.352 96.0239 291.407C95.7228 291.407 95.4171 291.407 95.0974 291.407C93.3279 291.444 89.659 291.615 88.047 291.838C87.7698 291.96 87.5232 292.142 87.3253 292.371C87.1274 292.6 86.9831 292.871 86.9028 293.163C85.6752 292.75 85.0869 292.806 84.6746 292.903C81.3155 293.911 78.0585 295.233 74.9466 296.85C74.1684 297.586 73.8024 298.976 73.7329 298.985C73.6634 298.995 72.2042 299.027 71.5233 299.504C68.97 301.464 66.6162 303.67 64.496 306.092C64.1625 306.712 64.5979 306.749 64.4496 307.412C64.3616 307.819 64.5516 308.218 64.1764 308.38C63.7933 308.543 63.4309 308.752 63.097 309.001C62.9939 309.077 62.895 309.159 62.8006 309.246C60.3871 314.221 63.8892 316.658 69.712 320.86C75.6739 325.186 80.3896 325.283 83.2107 323.078C83.4099 322.357 83.4728 321.604 83.3961 320.86C83.3636 320.512 83.7666 320.396 84.0214 320.503C84.6097 320.762 84.5217 320.6 85.0683 320.628C85.4574 320.392 86.5182 319.604 87.2733 319.071C87.6943 318.773 87.995 318.335 88.1211 317.835C88.2169 317.455 88.2804 317.067 88.3109 316.677C88.3109 316.463 88.5518 316.533 88.6584 316.704C88.9873 317.232 89.0522 317.52 89.1865 317.515C90.7754 316.802 93.1147 315.889 93.5502 315.231C93.6428 315.092 93.8744 315.481 93.9856 315.602L94.018 315.634C94.3238 315.949 93.8559 316.199 94.2728 316.375C94.4303 316.44 97.4275 316.519 97.7749 316.519C98.1767 316.496 98.5609 316.347 98.8728 316.093C99.2342 315.805 99.5691 315.486 99.8734 315.139C99.8734 315.139 99.9707 315.083 99.9846 315.069C99.9985 315.055 99.841 315.996 100.448 316.324C100.934 316.38 104.228 317.144 104.501 317.209C105.008 317.342 105.54 317.337 106.044 317.195C106.548 317.054 107.005 316.78 107.369 316.403C107.48 316.278 107.6 316.139 107.73 315.977C107.762 315.917 107.067 317.399 107.35 317.58C108.642 318.173 111.64 320.114 112.71 320.822C113.298 321.198 114.072 321.434 114.757 320.906C114.757 320.906 114.794 320.906 114.817 320.948V320.985C114.864 321.006 114.902 321.042 114.926 321.087C114.949 321.132 114.957 321.185 114.947 321.235C114.947 321.235 114.947 321.235 114.947 321.263C114.947 321.29 114.947 321.263 114.947 321.286C115.169 321.828 114.785 321.749 114.836 321.809C115.114 322.212 119.218 326.094 119.746 326.539C119.746 326.516 122.211 323.463 121.33 313.804Z" fill="#346F93"/>
<path d="M99.5167 296.901C99.5167 296.855 99.4935 296.813 99.4796 296.772C99.2212 295.841 98.6426 295.033 97.8459 294.488C97.0492 293.943 96.0856 293.697 95.1252 293.793C94.3006 293.867 93.5085 293.955 92.7812 294.025C87.9172 294.488 82.4557 295.451 78.2171 298.004C76.7524 298.871 75.3897 299.899 74.1545 301.07C73.6803 301.523 73.3989 302.141 73.3687 302.796C73.3385 303.451 73.5618 304.092 73.9923 304.586C74.3327 304.954 74.7497 305.244 75.2139 305.433C75.6781 305.623 76.1782 305.709 76.6791 305.684C78.8609 305.684 80.9408 303.882 82.6733 302.789C85.6705 300.894 89.0521 300.232 92.5403 300.01C93.0035 299.977 93.4343 299.959 93.879 299.94C94.9328 299.841 95.9937 299.841 97.0476 299.94C97.4278 299.957 97.8068 299.885 98.1541 299.729C98.5014 299.573 98.8073 299.338 99.0473 299.042C99.2874 298.747 99.4548 298.399 99.5363 298.028C99.6178 297.656 99.6111 297.27 99.5167 296.901Z" fill="#468CAF"/>
<path d="M121.33 313.805C120.867 308.547 119.306 304.243 116.652 300.755C117.052 301.914 117.084 303.168 116.744 304.345C116.744 304.345 117.847 301.218 116.744 304.345C115.642 307.472 110.574 308.334 105.65 307.954C102.19 307.63 98.7113 307.557 95.2409 307.736C93.6613 307.824 90.1175 308.357 88.5795 308.663C87.1726 309.347 85.8765 310.238 84.7347 311.308C80.8342 314.953 78.1892 319.456 75.3264 323.88C78.6571 324.992 81.3485 324.556 83.2014 323.102C83.4006 322.38 83.4634 321.628 83.3867 320.883C83.3543 320.535 83.7573 320.42 84.0121 320.526C84.6004 320.786 84.5123 320.623 85.0589 320.651C85.448 320.415 86.5088 319.627 87.2639 319.095C87.6849 318.797 87.9856 318.358 88.1117 317.858C88.2075 317.478 88.271 317.091 88.3016 316.7C88.3016 316.487 88.5424 316.556 88.649 316.728C88.9779 317.256 89.0428 317.543 89.1771 317.538C90.766 316.825 93.1054 315.912 93.5408 315.255C93.6334 315.116 93.865 315.505 93.9762 315.625L94.0087 315.658C94.3144 315.973 93.8466 316.223 94.2635 316.399C94.421 316.464 97.4181 316.542 97.7656 316.542C98.1673 316.52 98.5515 316.37 98.8634 316.116C99.2248 315.829 99.5597 315.509 99.864 315.162C99.864 315.162 99.9613 315.106 99.9752 315.092C99.9891 315.079 99.8316 316.019 100.438 316.348C100.925 316.403 104.218 317.168 104.492 317.233C104.998 317.365 105.531 317.36 106.035 317.219C106.539 317.077 106.996 316.804 107.359 316.427C107.47 316.301 107.591 316.163 107.721 316C107.753 315.94 107.058 317.422 107.341 317.603C108.633 318.196 111.63 320.137 112.7 320.846C113.289 321.221 114.062 321.457 114.748 320.929C114.748 320.929 114.785 320.929 114.808 320.971V321.008C114.855 321.029 114.893 321.065 114.916 321.11C114.94 321.156 114.947 321.208 114.938 321.258C114.938 321.258 114.938 321.258 114.938 321.286C114.938 321.314 114.938 321.286 114.938 321.309C115.16 321.851 114.776 321.772 114.826 321.833C115.104 322.236 119.209 326.117 119.737 326.562C119.746 326.516 122.21 323.463 121.33 313.805Z" fill="#2C5777"/>
<path d="M121.53 313.323C121.408 312.164 121.219 311.013 120.964 309.876C120.617 314.18 117.55 318.84 114.757 320.883C114.648 321.118 114.625 321.383 114.692 321.633C115.063 322.402 116.703 321.133 117.305 320.531C119.491 318.344 120.95 316.552 121.594 314.476C121.52 313.735 121.59 314.064 121.53 313.323Z" fill="#121A26"/>
<path d="M113.655 297.679C113.183 297.441 112.659 297.325 112.131 297.341C112.568 298.375 112.849 299.467 112.964 300.584C113.516 305.591 111.908 311.057 107.359 316.408C107.387 316.408 106.896 317.093 107.359 317.566C107.822 318.038 109.166 316.843 109.93 315.996C114.308 311.132 115.322 306.318 114.891 300.556C114.78 299.217 114.581 298.142 113.655 297.679Z" fill="#121A26"/>
<path d="M103.538 293.774C102.611 292.417 101.625 291.921 100.415 292.445C100.239 292.52 100.081 292.632 99.9523 292.774C102.468 295.09 103.894 299.111 104.08 303.891C104.246 308.121 102.583 312.512 99.9105 315.143C99.9893 316.014 100.239 316.612 100.897 316.204C104.066 314.24 106.303 307.935 106.243 303.498C106.155 299.625 105.238 296.257 103.538 293.774Z" fill="#121A26"/>
<path d="M97.2142 304.772C97.0845 299.296 94.6757 295.261 90.9142 292.667C90.0994 292.05 89.0829 291.761 88.0653 291.857C87.7516 291.913 87.4667 292.075 87.2584 292.316C87.0501 292.557 86.9309 292.863 86.921 293.182C93.1423 295.6 94.7359 301.52 95.1158 305.045C95.579 309.325 94.6803 313.17 93.55 315.236C93.8928 316.436 94.2819 316.626 94.6479 316.163C96.8112 313.513 97.3161 308.964 97.2142 304.772Z" fill="#121A26"/>
<path d="M86.3838 302.238C84.0083 299.205 80.5592 297.2 76.7485 296.637C76.2592 296.559 75.7584 296.594 75.2847 296.739C74.21 297.082 73.4642 297.911 73.6541 299.013C78.9813 298.68 82.4278 301.357 84.4383 303.822C87.3381 307.375 88.8111 312.554 88.3108 316.695C88.8297 317.978 89.3856 317.802 89.6543 316.579C90.326 311.697 89.7979 306.416 86.3838 302.238Z" fill="#121A26"/>
<path d="M84.0212 320.522C84.2101 320.606 84.4096 320.664 84.6142 320.693C85.3276 320.804 85.5962 320.23 85.4063 319.16C84.7207 315.315 81.8209 311.174 76.3501 307.922C72.7508 305.782 69.1931 304.925 66.0385 305.328C65.6905 305.36 65.3542 305.47 65.055 305.651C64.7558 305.831 64.5013 306.077 64.3106 306.37C64.1357 306.673 64.0334 307.013 64.0117 307.363C63.99 307.712 64.0495 308.062 64.1855 308.385C68.5353 306.602 73.4502 309.112 75.0669 310.08C79.6437 312.8 82.9419 317.112 83.4515 320.656C83.5164 320.572 83.6087 320.512 83.7125 320.488C83.8163 320.463 83.9253 320.475 84.0212 320.522Z" fill="#121A26"/>
<path d="M49.9874 320.239L58.0755 310.775C58.789 309.947 59.7351 309.352 60.7909 309.069C61.8467 308.786 62.9634 308.826 63.9957 309.186L80.3387 314.875C80.8926 315.066 81.3981 315.376 81.8205 315.782C82.2428 316.189 82.5718 316.682 82.7846 317.228L84.7163 322.147C84.9531 322.755 85.0348 323.412 84.9539 324.059C84.873 324.706 84.6321 325.323 84.253 325.853L75.3404 338.486C74.9984 338.969 74.5061 339.325 73.9404 339.498C73.3746 339.672 72.7674 339.653 72.2135 339.445L53.61 332.468C52.8092 332.167 52.0911 331.681 51.5146 331.049C50.938 330.417 50.5195 329.657 50.2932 328.832L49.3019 323.106C49.1727 322.609 49.1677 322.087 49.2873 321.587C49.4068 321.087 49.6472 320.624 49.9874 320.239Z" fill="#346F93"/>
<path d="M67.9053 332.172C67.3772 332.95 66.1774 333.288 65.4455 332.468C64.621 331.542 64.0882 330.416 63.2591 329.495C62.6912 328.916 62.0709 328.392 61.4061 327.929C61.5586 328.304 61.6885 328.687 61.7952 329.078C62.314 330.995 59.5531 332.186 58.585 330.43C57.6585 328.772 56.9405 326.896 55.0968 326.043C53.934 325.506 52.3591 325.117 51.6874 326.465C51.6554 326.531 51.6166 326.593 51.5716 326.65C51.6289 326.96 51.5794 327.279 51.4313 327.557C51.2831 327.835 51.0452 328.054 50.7563 328.179C50.5897 328.245 50.4121 328.28 50.2328 328.281L50.33 328.832C50.5564 329.657 50.975 330.417 51.5515 331.049C52.128 331.681 52.8461 332.167 53.6469 332.468L72.2504 339.445C72.7572 339.636 73.3107 339.665 73.8347 339.528C72.7785 336.022 71.3657 332.538 67.9053 332.172Z" fill="#1F4060"/>
<path d="M81.3206 317.135C78.8238 320.054 74.0571 325.992 72.1578 328.369C71.9098 328.677 71.7476 329.046 71.6874 329.437C71.6273 329.828 71.6712 330.228 71.815 330.597L74.5527 337.634C74.6021 337.758 74.6842 337.868 74.7905 337.95C74.8968 338.032 75.0234 338.084 75.1567 338.1C75.2901 338.116 75.4252 338.096 75.548 338.041C75.6709 337.987 75.7767 337.901 75.8544 337.791L84.3178 325.798C84.6783 325.285 84.9063 324.691 84.9815 324.069C85.0567 323.446 84.9766 322.815 84.7485 322.231L82.8493 317.395C82.7878 317.254 82.6921 317.13 82.5709 317.035C82.4497 316.941 82.3067 316.878 82.155 316.852C82.0033 316.826 81.8477 316.838 81.702 316.888C81.5563 316.938 81.4252 317.023 81.3206 317.135Z" fill="#2C5777"/>
<path d="M77.9204 324.936C77.3697 325.574 76.9027 326.279 76.5307 327.035C75.5115 328.98 75.3726 330.277 76.6372 332.13C77.1844 332.929 77.6663 333.77 78.0779 334.646L81.1723 330.268C79.961 328.572 78.8742 326.79 77.9204 324.936Z" fill="#1F4060"/>
<path d="M71.7964 325.96L80.2041 316.441C80.3245 316.305 80.4096 316.141 80.4519 315.964C80.4942 315.788 80.4924 315.603 80.4466 315.428C80.4008 315.252 80.3125 315.09 80.1894 314.957C80.0664 314.823 79.9123 314.722 79.7409 314.662L64.102 309.219C63.0404 308.85 61.8925 308.809 60.8072 309.101C59.7219 309.392 58.7492 310.003 58.0151 310.854L50.6913 319.359C50.5509 319.521 50.4526 319.716 50.4052 319.925C50.3578 320.134 50.3628 320.352 50.4196 320.559C50.4764 320.766 50.5832 320.956 50.7308 321.112C50.8784 321.268 51.0621 321.385 51.2658 321.453L67.8126 327.012C68.5061 327.25 69.2549 327.278 69.9641 327.091C70.6733 326.903 71.311 326.51 71.7964 325.96Z" fill="#468CAF"/>
<path d="M54.9911 331.192C56.2777 330.772 56.8224 328.906 56.2079 327.023C55.5933 325.141 54.0523 323.955 52.7657 324.375C51.4791 324.795 50.9343 326.662 51.5489 328.544C52.1634 330.427 53.7046 331.612 54.9911 331.192Z" fill="#121A26"/>
<path d="M63.6342 329.36C64.255 331.255 63.9169 333.326 62.416 333.817C60.9151 334.308 59.0853 332.765 58.4646 330.87C57.8438 328.976 58.2979 327.299 59.7987 326.812C61.2996 326.326 63.0181 327.461 63.6342 329.36Z" fill="#121A26"/>
<path d="M71.2685 333.057C71.6993 335.021 71.3796 336.503 69.7953 336.851C68.2111 337.198 66.3721 335.461 65.6587 333.529C64.9453 331.597 65.39 329.615 66.9743 329.267C68.5586 328.92 70.8331 331.097 71.2685 333.057Z" fill="#121A26"/>
<path d="M81.3388 327.864C82.6577 325.569 82.6261 323.076 81.2684 322.296C79.9106 321.515 77.7409 322.743 76.4221 325.038C75.1032 327.333 75.1347 329.826 76.4924 330.606C77.8502 331.386 80.02 330.158 81.3388 327.864Z" fill="#121A26"/>
<path d="M54.4806 325.01C54.1174 324.652 53.6392 324.434 53.1306 324.394C52.622 324.354 52.1158 324.495 51.7012 324.793C50.6218 325.571 48.8476 327.308 48.2639 330.634C46.9483 338.148 51.0758 337.388 51.6734 336.791C52.5443 335.92 52.7573 334.428 54.2258 332.96C55.6943 331.491 56.0788 330.866 56.0788 328.864C55.9821 327.44 55.4207 326.086 54.4806 325.01Z" fill="#2C5777"/>
<path d="M59.7988 326.812C57.8439 326.812 55.8844 328.633 54.7865 331.519C53.0679 336.026 55.5462 341.914 58.1959 341.914C60.8456 341.914 60.5122 338.986 61.0634 336.892C61.6749 334.609 63.3379 333.293 63.3796 332.089C63.5139 329.888 62.4531 326.812 59.7988 326.812Z" fill="#2C5777"/>
<path d="M66.2377 329.606C64.7368 330.023 60.9614 335.605 63.1942 341.099C65.427 346.593 67.7432 345.305 68.7808 343.832C69.8185 342.359 68.3546 338.129 70.0362 336.767C71.1479 335.841 71.2499 333.752 70.0362 331.741C69.1792 330.305 67.5579 329.244 66.2377 329.606Z" fill="#2C5777"/>
<path d="M49.955 332.885C50.8119 329.221 52.2989 328.906 53.281 327.201C54.4761 325.126 52.1924 324.394 51.6921 324.751C50.6128 325.529 48.8385 327.266 48.2548 330.592C48.1088 331.394 48.0236 332.205 48 333.02C48.1946 334.192 49.7141 333.937 49.955 332.885Z" fill="#346F93"/>
<path d="M55.9863 338.004C57.5659 338.004 57.8391 335.836 58.1958 334.585C59.2752 330.597 60.6881 330.68 60.9429 329.24C61.2579 327.428 59.9608 326.812 59.7987 326.812C57.8439 326.812 55.8843 328.633 54.7865 331.519C54.1909 333.183 54.0564 334.977 54.3973 336.712C54.6938 337.629 55.12 338.013 55.9863 338.004Z" fill="#346F93"/>
<path d="M64.5097 340.816C65.2509 340.57 65.5891 338.036 65.8994 337.11C66.5989 335.118 68.3685 333.738 68.3685 331.635C68.3685 329.675 67.0344 329.369 66.2283 329.592C64.8618 329.971 61.6191 334.622 62.7216 339.593C63.0597 340.376 63.4582 341.163 64.5097 340.816Z" fill="#346F93"/>
<path d="M50.5295 326.516C49.6678 326.391 48.6765 328.179 48.2874 330.449C48.2318 333.149 52.9105 326.863 50.5295 326.516Z" fill="#468CAF"/>
<path d="M59.0992 328.151C58.7378 327.688 57.7094 327.688 56.945 328.559C55.9346 329.839 55.3024 331.376 55.1199 332.997C54.9439 334.766 56.0788 335.572 56.6254 334.155C57.1835 332.595 57.9942 331.138 59.025 329.842C59.1792 329.589 59.2669 329.302 59.2799 329.006C59.2928 328.71 59.2307 328.416 59.0992 328.151Z" fill="#468CAF"/>
<path d="M63.7638 337.383C64.7366 337.675 65.274 335.35 65.45 334.993C66.4969 332.89 67.2473 331.959 66.7007 331.259C66.1541 330.56 65.1952 330.893 64.5651 331.885C64.1717 332.541 63.8857 333.255 63.7175 334.002C63.2496 335.558 63.1801 337.207 63.7638 337.383Z" fill="#468CAF"/>
<path d="M81.1816 322.379C79.8429 322.476 77.8325 323.736 76.7022 326.215C75.5719 328.693 76.4845 330.268 77.3924 330.768C78.3003 331.269 79.0415 331.519 81.1399 333.904C83.3079 336.378 84.4289 338.467 86.1383 337.657C88.3294 336.614 88.5332 333.112 87.4446 329.23C86.4764 325.765 83.4978 322.231 81.1816 322.379Z" fill="#2C5777"/>
<path d="M80.7648 323.157C78.254 325.284 81.126 329.8 82.2795 330.958C83.4329 332.116 85.1609 334.002 86.7637 333.01C88.2414 332.084 87.4076 329.119 86.7915 327.503C85.7446 325.26 84.3456 323.384 82.8169 322.824C82.47 322.738 82.1094 322.724 81.7567 322.781C81.4041 322.839 81.0668 322.967 80.7648 323.157Z" fill="#346F93"/>
<path d="M82.8401 324.454C80.9269 325.186 82.0989 329.175 85.0404 330.435C87.037 331.287 86.129 327.252 85.5037 326.173C85.1562 325.552 84.1557 323.95 82.8401 324.454Z" fill="#468CAF"/>
</svg>
